<svg width="19" height="25" viewBox="0 0 19 25" fill="none" xmlns="http://www.w3.org/2000/svg">
<path d="M13.7926 0H1.13636C0.834981 0 0.545943 0.119724 0.332833 0.332833C0.119723 0.545943 0 0.834981 0 1.13636V23.8636C0 24.165 0.119723 24.4541 0.332833 24.6672C0.545943 24.8803 0.834981 25 1.13636 25H17.0455C17.3468 25 17.6359 24.8803 17.849 24.6672C18.0621 24.4541 18.1818 24.165 18.1818 23.8636V4.43182L13.7926 0ZM16.2074 4.50284H13.7784V1.96023L16.2074 4.50284ZM1.42045 23.5227V1.42045H12.358V5.15625C12.3585 5.24914 12.3776 5.34099 12.4142 5.42637C12.4508 5.51176 12.5041 5.58895 12.571 5.65341C12.7082 5.78684 12.891 5.86303 13.0824 5.86648H16.7614V23.5227H1.42045Z" fill="black"/>
<path d="M8.50843 6.81787C8.16093 6.83816 7.83297 6.98535 7.58683 7.2315C7.34069 7.47764 7.1935 7.80559 7.17321 8.1531C7.29876 9.25532 7.65186 10.3195 8.21014 11.2781C7.82193 12.6146 7.32305 13.9165 6.71866 15.1701C5.65315 15.5113 4.6362 15.9887 3.69309 16.5906V16.5906C3.45114 16.849 3.31436 17.1884 3.30957 17.5423C3.32098 17.8004 3.40621 18.0497 3.55515 18.2608C3.70409 18.4718 3.91047 18.6357 4.14979 18.7329C4.38911 18.8301 4.6513 18.8566 4.90523 18.8092C5.15916 18.7619 5.39415 18.6426 5.5823 18.4656V18.4656C6.1818 17.6412 6.70931 16.7667 7.159 15.852C8.34576 15.3598 9.56562 14.9516 10.8096 14.6304C11.7222 15.3536 12.8419 15.7666 14.0056 15.8093C14.3378 15.7751 14.6455 15.6189 14.8692 15.371C15.0929 15.1231 15.2168 14.801 15.2168 14.467C15.2168 14.1331 15.0929 13.811 14.8692 13.563C14.6455 13.3151 14.3378 13.1589 14.0056 13.1247C12.9828 13.1867 11.9739 13.3923 11.0084 13.7355C10.238 13.0008 9.59055 12.1471 9.09082 11.2071C9.48457 10.2288 9.74264 9.20131 9.85787 8.1531C9.83725 7.80328 9.68805 7.47343 9.43896 7.22696C9.18986 6.98048 8.85845 6.83479 8.50843 6.81787ZM8.50843 7.62753C8.57864 7.62563 8.64851 7.63782 8.71393 7.66338C8.77934 7.68895 8.83897 7.72736 8.88928 7.77635C8.9396 7.82535 8.97959 7.88393 9.00689 7.94864C9.03418 8.01334 9.04823 8.08287 9.04821 8.1531C8.97177 8.81844 8.81436 9.47195 8.57946 10.0991C8.27301 9.48732 8.06679 8.83028 7.96866 8.1531C7.96658 8.0823 7.97923 8.01184 8.00581 7.94619C8.03239 7.88054 8.07232 7.82112 8.12307 7.77171C8.17381 7.7223 8.23427 7.68397 8.30061 7.65915C8.36695 7.63433 8.43772 7.62356 8.50843 7.62753V7.62753ZM8.74991 12.2156C9.15483 12.8549 9.6314 13.4458 10.1704 13.977C9.37491 14.2042 8.59366 14.4741 7.82662 14.7724C8.16752 13.9343 8.46582 13.0679 8.74991 12.2156ZM14.0198 13.9201C14.163 13.9201 14.3002 13.977 14.4015 14.0782C14.5027 14.1795 14.5596 14.3168 14.5596 14.4599C14.5596 14.6031 14.5027 14.7404 14.4015 14.8416C14.3002 14.9428 14.163 14.9997 14.0198 14.9997C13.2597 14.9492 12.5212 14.7257 11.8607 14.3463C12.5615 14.1213 13.2861 13.9783 14.0198 13.9201V13.9201ZM6.00843 16.3349C5.70752 16.8913 5.37063 17.4275 4.99991 17.94C4.89922 18.0324 4.76724 18.0832 4.63059 18.0821C4.55918 18.084 4.48811 18.0714 4.42174 18.045C4.35536 18.0185 4.29508 17.9789 4.24456 17.9283C4.19404 17.8778 4.15435 17.8175 4.12792 17.7512C4.10149 17.6848 4.08886 17.6137 4.09082 17.5423C4.09239 17.4062 4.1428 17.2751 4.23287 17.173C4.79003 16.8254 5.38593 16.5441 6.00843 16.3349V16.3349Z" fill="#E42525"/>
<path d="M8.50842 6.81785C8.85844 6.83476 9.18985 6.98046 9.43895 7.22693C9.68804 7.4734 9.83724 7.80325 9.85786 8.15307C9.74263 9.20128 9.48456 10.2288 9.09081 11.207C9.59485 12.1481 10.2471 13.0018 11.0226 13.7355C11.9881 13.3923 12.997 13.1867 14.0198 13.1247C14.352 13.1589 14.6597 13.3151 14.8834 13.563C15.1071 13.8109 15.231 14.133 15.231 14.467C15.231 14.8009 15.1071 15.123 14.8834 15.371C14.6597 15.6189 14.352 15.7751 14.0198 15.8093C12.8512 15.7696 11.7261 15.3564 10.8096 14.6303C9.57007 14.9569 8.35497 15.3698 7.1732 15.8661C6.72733 16.7755 6.2046 17.6452 5.6107 18.4656V18.4656C5.422 18.6533 5.182 18.781 4.92088 18.8327C4.65977 18.8843 4.38922 18.8576 4.14325 18.7559C3.89729 18.6542 3.6869 18.482 3.53855 18.261C3.39021 18.04 3.31054 17.78 3.30956 17.5139C3.32515 17.1679 3.46659 16.8396 3.70729 16.5906V16.5906C4.65039 15.9887 5.66734 15.5113 6.73286 15.1701C7.33239 13.916 7.82651 12.6142 8.21013 11.2781C7.65185 10.3194 7.29875 9.2553 7.1732 8.15307C7.19349 7.80557 7.34068 7.47761 7.58682 7.23147C7.83296 6.98533 8.16092 6.83814 8.50842 6.81785V6.81785ZM8.50842 10.0991C8.74332 9.47192 8.90074 8.81841 8.97717 8.15307C8.95647 8.02673 8.89154 7.91186 8.79396 7.82897C8.69639 7.74608 8.57253 7.70057 8.4445 7.70057C8.31648 7.70057 8.19262 7.74608 8.09504 7.82897C7.99747 7.91186 7.93253 8.02673 7.91183 8.15307C8.00548 8.82945 8.2069 9.48645 8.50842 10.0991ZM7.7982 14.7724C8.56524 14.4741 9.34649 14.2042 10.1419 13.9769C9.60298 13.4458 9.12641 12.8548 8.72149 12.2156C8.4374 13.0678 8.13911 13.9343 7.76979 14.7724H7.7982ZM13.9914 14.9997C14.1345 14.9997 14.2718 14.9428 14.3731 14.8416C14.4743 14.7403 14.5312 14.603 14.5312 14.4599C14.5312 14.3167 14.4743 14.1794 14.3731 14.0782C14.2718 13.977 14.1345 13.9201 13.9914 13.9201C13.2576 13.9783 12.5331 14.1213 11.8323 14.3463C12.4928 14.7257 13.2313 14.9492 13.9914 14.9997V14.9997ZM4.63058 18.082C4.76723 18.0832 4.89921 18.0324 4.9999 17.94C5.37062 17.4275 5.70751 16.8913 6.00842 16.3349C5.38592 16.5441 4.79002 16.8253 4.23286 17.173C4.14279 17.2751 4.09238 17.4061 4.09081 17.5423C4.08885 17.6137 4.10148 17.6848 4.12791 17.7511C4.15434 17.8175 4.19403 17.8778 4.24455 17.9283C4.29507 17.9788 4.35535 18.0185 4.42173 18.0449C4.4881 18.0714 4.55917 18.084 4.63058 18.082V18.082ZM8.50842 6.53375C8.07895 6.53375 7.66707 6.70436 7.36339 7.00804C7.05971 7.31172 6.88911 7.7236 6.88911 8.15307C7.00897 9.28941 7.37755 10.3854 7.96865 11.3633C7.58488 12.6132 7.11013 13.8333 6.5482 15.0139L6.00842 15.2127C5.1389 15.4859 4.31533 15.8881 3.56524 16.4059V16.4059C3.27306 16.7063 3.10992 17.109 3.1107 17.5281C3.10607 17.9448 3.26086 18.3475 3.5434 18.6538C3.82595 18.9601 4.21487 19.1468 4.63058 19.1758C4.84513 19.1778 5.05784 19.136 5.25568 19.053C5.45351 18.9699 5.63232 18.8474 5.78115 18.6928C6.40594 17.88 6.94391 17.0041 7.38627 16.0792C8.48444 15.6328 9.60866 15.2533 10.7527 14.9428C11.6986 15.6513 12.8388 16.0528 14.0198 16.0934C14.4249 16.0555 14.8013 15.8678 15.0753 15.567C15.3493 15.2661 15.5011 14.8739 15.5011 14.467C15.5011 14.0601 15.3493 13.6679 15.0753 13.367C14.8013 13.0662 14.4249 12.8785 14.0198 12.8406C13.0517 12.9023 12.0962 13.0934 11.1789 13.4088C10.4739 12.7593 9.87051 12.0075 9.38911 11.1786L9.51695 10.7951C9.85865 9.95142 10.0694 9.06045 10.1419 8.15307C10.142 7.93922 10.0996 7.72748 10.0173 7.53009C9.93507 7.33269 9.81452 7.15354 9.66265 7.00299C9.51077 6.85244 9.33058 6.73345 9.13247 6.65292C8.93437 6.57238 8.72227 6.53188 8.50842 6.53375ZM8.50842 9.24682C8.35303 8.90076 8.25699 8.53101 8.22433 8.15307C8.22225 8.12082 8.22706 8.08849 8.23846 8.05825C8.24986 8.02801 8.26757 8.00054 8.29043 7.97769C8.31328 7.95483 8.34074 7.93712 8.37099 7.92572C8.40123 7.91432 8.43356 7.90951 8.46581 7.91159C8.4987 7.90966 8.53163 7.91447 8.56259 7.92573C8.59354 7.937 8.62187 7.95448 8.64582 7.9771C8.66977 7.99972 8.68884 8.027 8.70185 8.05726C8.71486 8.08752 8.72155 8.12013 8.72149 8.15307C8.69329 8.52471 8.62178 8.89178 8.50842 9.24682V9.24682ZM8.26695 14.2752C8.46581 13.7923 8.63626 13.3093 8.79251 12.8548C9.03273 13.1971 9.29364 13.5244 9.57376 13.8349C9.11922 13.9769 8.67888 14.119 8.26695 14.2752ZM12.6562 14.4173C13.0887 14.3042 13.531 14.2329 13.9772 14.2042C14.045 14.2042 14.11 14.2311 14.158 14.2791C14.2059 14.327 14.2329 14.3921 14.2329 14.4599C14.2329 14.5277 14.2059 14.5927 14.158 14.6407C14.11 14.6886 14.045 14.7156 13.9772 14.7156C13.5229 14.693 13.076 14.592 12.6562 14.4173V14.4173ZM4.63058 17.798C4.59647 17.8 4.5623 17.7948 4.53034 17.7827C4.49838 17.7706 4.46935 17.7518 4.44518 17.7277C4.42101 17.7035 4.40225 17.6745 4.39014 17.6425C4.37802 17.6106 4.37283 17.5764 4.3749 17.5423C4.36317 17.5154 4.35711 17.4864 4.35711 17.457C4.35711 17.4277 4.36317 17.3987 4.3749 17.3718C4.65776 17.1877 4.95739 17.0308 5.26979 16.9031C5.10201 17.2055 4.91209 17.4951 4.70161 17.7695C4.65478 17.7795 4.60638 17.7795 4.55956 17.7695L4.63058 17.798Z" fill="#E42525"/>
</svg>
