<svg width="25" height="24" viewBox="0 0 25 24" fill="none" xmlns="http://www.w3.org/2000/svg">
<path d="M12.4853 1.56481L23.5042 22.1191H1.52032L12.4853 1.56481ZM12.4853 0.000313552C12.273 -0.00465292 12.0634 0.0494648 11.8801 0.156631C11.6967 0.263796 11.5467 0.419797 11.4468 0.607232L0.117667 21.8763C0.0320328 22.0406 -0.00812263 22.2247 0.00136309 22.4097C0.0108488 22.5946 0.0696304 22.7737 0.171616 22.9283C0.280378 23.0928 0.428836 23.2272 0.603273 23.3191C0.777711 23.4111 0.972504 23.4576 1.16966 23.4543H23.801C24.0073 23.4684 24.2136 23.427 24.3986 23.3346C24.5835 23.2421 24.7404 23.1018 24.8529 22.9283C24.9492 22.7673 25 22.5832 25 22.3956C25 22.208 24.9492 22.0239 24.8529 21.8628L13.5373 0.66118C13.4401 0.464588 13.2904 0.298764 13.1047 0.182109C12.919 0.0654528 12.7046 0.002527 12.4853 0.000313552V0.000313552Z" fill="black"/>
<path d="M12.4451 20.7706C13.0931 20.7706 13.6185 20.2452 13.6185 19.5972C13.6185 18.9492 13.0931 18.4238 12.4451 18.4238C11.7971 18.4238 11.2717 18.9492 11.2717 19.5972C11.2717 20.2452 11.7971 20.7706 12.4451 20.7706Z" fill="#E42525"/>
<path d="M13.3353 6.87891H11.5415C11.3925 6.87891 11.2717 6.99967 11.2717 7.14865V16.9942C11.2717 17.1432 11.3925 17.2639 11.5415 17.2639H13.3353C13.4842 17.2639 13.605 17.1432 13.605 16.9942V7.14865C13.605 6.99967 13.4842 6.87891 13.3353 6.87891Z" fill="#E42525"/>
</svg>
