<svg width="25" height="25" viewBox="0 0 25 25" fill="none" xmlns="http://www.w3.org/2000/svg">
<path d="M12.5 1.42045C14.6913 1.42045 16.8334 2.07026 18.6555 3.28769C20.4775 4.50513 21.8976 6.23552 22.7362 8.26004C23.5748 10.2846 23.7942 12.5123 23.3667 14.6615C22.9391 16.8107 21.8839 18.7849 20.3344 20.3344C18.7849 21.8839 16.8107 22.9391 14.6615 23.3666C12.5123 23.7942 10.2846 23.5747 8.26005 22.7362C6.23552 21.8976 4.50514 20.4775 3.2877 18.6555C2.07026 16.8334 1.42046 14.6913 1.42046 12.5C1.42422 9.56267 2.59273 6.74673 4.66973 4.66973C6.74674 2.59273 9.56268 1.42421 12.5 1.42045V1.42045ZM12.5 0C10.0277 0 7.61099 0.733112 5.55538 2.10663C3.49976 3.48015 1.89761 5.43238 0.951511 7.71646C0.00541606 10.0005 -0.242126 12.5139 0.24019 14.9386C0.722505 17.3634 1.91301 19.5907 3.66117 21.3388C5.40933 23.087 7.63661 24.2775 10.0614 24.7598C12.4861 25.2421 14.9995 24.9946 17.2835 24.0485C19.5676 23.1024 21.5199 21.5002 22.8934 19.4446C24.2669 17.389 25 14.9723 25 12.5C25 10.8585 24.6767 9.23303 24.0485 7.71646C23.4203 6.19989 22.4996 4.8219 21.3388 3.66116C20.1781 2.50043 18.8001 1.57969 17.2835 0.951506C15.767 0.323322 14.1415 0 12.5 0V0Z" fill="black"/>
<path d="M12.8837 9.38938C13.672 9.4869 14.3969 9.87071 14.9207 10.4678C15.4445 11.065 15.7306 11.8337 15.7246 12.628V16.1649L16.2928 16.5911L17.5996 17.5712V18.4661H7.35813V17.557L8.65075 16.5911L9.23313 16.1649V12.5996C9.23711 11.8111 9.5274 11.0508 10.05 10.4603C10.5726 9.86981 11.2918 9.48923 12.074 9.38938H12.8553H12.8837ZM12.8553 7.96893H12.0172C10.859 8.07462 9.78149 8.60708 8.99395 9.46287C8.20642 10.3187 7.76514 11.4366 7.75586 12.5996V15.4405L6.06552 16.6905C6.00859 16.7339 5.96234 16.7897 5.93033 16.8537C5.89832 16.9178 5.8814 16.9883 5.88086 17.0598V19.4036C5.88086 19.5279 5.93025 19.6471 6.01815 19.735C6.10606 19.8229 6.22529 19.8723 6.34961 19.8723H18.5087C18.633 19.8723 18.7522 19.8229 18.8402 19.735C18.9281 19.6471 18.9774 19.5279 18.9774 19.4036V17.0456C18.9769 16.9741 18.96 16.9036 18.928 16.8395C18.896 16.7755 18.8497 16.7197 18.7928 16.6763L17.1024 15.4121V12.5712C17.1002 11.4033 16.6621 10.2783 15.8739 9.41656C15.0857 8.55478 14.0041 8.01828 12.8411 7.91211L12.8553 7.96893Z" fill="#E42525"/>
<path d="M10.9089 14.3891C10.7241 14.3856 10.5476 14.3116 10.4155 14.1822C10.2835 14.0528 10.2059 13.8778 10.1987 13.6931V13.3806C10.1053 12.8642 10.1567 12.3321 10.3473 11.8432C10.5378 11.3543 10.8601 10.9277 11.2783 10.6107C11.3524 10.5414 11.4406 10.4888 11.5369 10.4564C11.6331 10.4241 11.7352 10.4128 11.8362 10.4232C11.9372 10.4336 12.0348 10.4656 12.1224 10.517C12.21 10.5683 12.2855 10.6379 12.344 10.7209C12.4024 10.804 12.4424 10.8986 12.4611 10.9984C12.4799 11.0982 12.4771 11.2008 12.4528 11.2994C12.4285 11.398 12.3834 11.4902 12.3205 11.5699C12.2575 11.6496 12.1782 11.7149 12.0879 11.7613C11.6192 12.1022 11.605 12.4999 11.6192 13.3522V13.6789C11.6211 13.7715 11.6044 13.8635 11.5703 13.9496C11.5362 14.0357 11.4852 14.1141 11.4204 14.1803C11.3556 14.2464 11.2782 14.299 11.1928 14.3348C11.1074 14.3707 11.0157 14.3891 10.9231 14.3891H10.9089Z" fill="#E42525"/>
<path d="M12.4998 6.87513C12.3114 6.87513 12.1308 6.80031 11.9976 6.66711C11.8644 6.53392 11.7896 6.35327 11.7896 6.16491V3.6365C11.7896 3.44813 11.8644 3.26748 11.9976 3.13429C12.1308 3.0011 12.3114 2.92627 12.4998 2.92627C12.6881 2.92627 12.8688 3.0011 13.002 3.13429C13.1352 3.26748 13.21 3.44813 13.21 3.6365V6.16491C13.21 6.35327 13.1352 6.53392 13.002 6.66711C12.8688 6.80031 12.6881 6.87513 12.4998 6.87513Z" fill="#E42525"/>
<path d="M8.97706 7.98274C8.85847 7.98128 8.74206 7.95072 8.63804 7.89376C8.53402 7.8368 8.44557 7.75517 8.38047 7.65604L6.96001 5.48274C6.85722 5.32616 6.82045 5.13532 6.85769 4.95175C6.89494 4.76818 7.00319 4.60676 7.15888 4.50263C7.23667 4.45049 7.32418 4.41458 7.41617 4.39706C7.50817 4.37954 7.60275 4.38076 7.69426 4.40065C7.78577 4.42055 7.87233 4.4587 7.94875 4.51283C8.02516 4.56697 8.08987 4.63597 8.13899 4.7157L9.55945 6.88899C9.61159 6.96678 9.64749 7.05429 9.66502 7.14629C9.68254 7.23828 9.68132 7.33287 9.66142 7.42438C9.64153 7.51589 9.60337 7.60244 9.54924 7.67886C9.49511 7.75528 9.42611 7.81998 9.34638 7.8691C9.23881 7.94595 9.10922 7.98583 8.97706 7.98274V7.98274Z" fill="#E42525"/>
<path d="M16.0366 7.99731C15.8889 8.00144 15.744 7.95648 15.6247 7.86946C15.5472 7.81806 15.4808 7.75167 15.4294 7.67419C15.3781 7.59672 15.3427 7.50973 15.3255 7.41837C15.3083 7.32702 15.3096 7.23314 15.3292 7.14228C15.3489 7.05142 15.3866 6.96542 15.44 6.88935L17.0451 4.68765C17.1544 4.53319 17.3205 4.42846 17.507 4.39649C17.6934 4.36452 17.885 4.40794 18.0394 4.51719C18.1939 4.62644 18.2986 4.79258 18.3306 4.97905C18.3626 5.16552 18.3191 5.35705 18.2099 5.51151L16.619 7.69901C16.5538 7.79266 16.4666 7.86885 16.365 7.92086C16.2635 7.97288 16.1507 7.99913 16.0366 7.99731V7.99731Z" fill="#E42525"/>
</svg>
