<svg width="26" height="25" viewBox="0 0 26 25" fill="none" xmlns="http://www.w3.org/2000/svg">
<path d="M13.25 0C10.7777 0 8.36099 0.733112 6.30538 2.10663C4.24976 3.48015 2.64761 5.43238 1.70151 7.71646C0.755416 10.0005 0.507874 12.5139 0.99019 14.9386C1.4725 17.3634 2.66301 19.5907 4.41117 21.3388C6.15933 23.087 8.38661 24.2775 10.8114 24.7598C13.2361 25.2421 15.7495 24.9946 18.0335 24.0485C20.3176 23.1024 22.2699 21.5002 23.6434 19.4446C25.0169 17.389 25.75 14.9723 25.75 12.5C25.7462 9.18595 24.4281 6.00871 22.0847 3.66532C19.7413 1.32193 16.5641 0.00375956 13.25 0V0ZM11.2898 24.8437V22.358C11.2825 21.9198 11.143 21.4941 10.8895 21.1367C10.636 20.7793 10.2804 20.5068 9.86932 20.3551C8.45885 19.7456 7.23938 18.7661 6.33998 17.5203C5.44057 16.2745 4.89469 14.8088 4.7601 13.2781C4.6255 11.7475 4.90721 10.209 5.57539 8.82534C6.24358 7.4417 7.2734 6.26443 8.55586 5.41813C9.83832 4.57183 11.3257 4.08797 12.8606 4.01777C14.3956 3.94756 15.9209 4.29362 17.2753 5.01931C18.6297 5.74501 19.7626 6.82334 20.5544 8.14021C21.3461 9.45707 21.767 10.9635 21.7727 12.5C21.7727 18.0256 17.4972 23.2386 11.2898 24.8437Z" fill="#00CAFF"/>
</svg>
