<svg width="25" height="25" viewBox="0 0 25 25" fill="none" xmlns="http://www.w3.org/2000/svg">
<path d="M12.5 1.42045C14.6913 1.42045 16.8334 2.07026 18.6555 3.28769C20.4775 4.50513 21.8976 6.23552 22.7362 8.26004C23.5748 10.2846 23.7942 12.5123 23.3667 14.6615C22.9391 16.8107 21.8839 18.7849 20.3344 20.3344C18.7849 21.8839 16.8107 22.9391 14.6615 23.3666C12.5123 23.7942 10.2846 23.5747 8.26005 22.7362C6.23552 21.8976 4.50514 20.4775 3.2877 18.6555C2.07026 16.8334 1.42046 14.6913 1.42046 12.5C1.42422 9.56267 2.59273 6.74673 4.66973 4.66973C6.74674 2.59273 9.56268 1.42421 12.5 1.42045V1.42045ZM12.5 0C10.0277 0 7.61099 0.733112 5.55538 2.10663C3.49976 3.48015 1.89761 5.43238 0.951511 7.71646C0.00541606 10.0005 -0.242126 12.5139 0.24019 14.9386C0.722505 17.3634 1.91301 19.5907 3.66117 21.3388C5.40933 23.087 7.63661 24.2775 10.0614 24.7598C12.4861 25.2421 14.9995 24.9946 17.2835 24.0485C19.5676 23.1024 21.5199 21.5002 22.8934 19.4446C24.2669 17.389 25 14.9723 25 12.5C25 10.8585 24.6767 9.23303 24.0485 7.71646C23.4203 6.19989 22.4996 4.8219 21.3388 3.66116C20.1781 2.50043 18.8001 1.57969 17.2835 0.951506C15.767 0.323322 14.1415 0 12.5 0V0Z" fill="black"/>
<path d="M19.0483 8.40905H18.963L12.784 5.1136C12.6691 5.05717 12.5428 5.02783 12.4147 5.02783C12.2867 5.02783 12.1603 5.05717 12.0454 5.1136L9.2045 6.60507L5.89484 8.40905C5.77022 8.47763 5.66627 8.57838 5.59382 8.7008C5.52137 8.82322 5.48307 8.96282 5.48291 9.10507V15.625C5.48256 15.7654 5.52079 15.9033 5.59343 16.0235C5.66607 16.1438 5.77033 16.2417 5.89484 16.3068L12.1022 19.6164C12.2172 19.6729 12.3435 19.7022 12.4715 19.7022C12.5996 19.7022 12.7259 19.6729 12.8409 19.6164L19.0483 16.3068C19.1728 16.2417 19.277 16.1438 19.3497 16.0235C19.4223 15.9033 19.4605 15.7654 19.4602 15.625V9.10507C19.46 8.96282 19.4217 8.82322 19.3493 8.7008C19.2768 8.57838 19.1729 8.47763 19.0483 8.40905V8.40905ZM12.4715 6.51985L17.2159 9.04825L15.696 9.94314H15.5681L10.838 7.40053L12.4715 6.51985ZM12.4715 11.6903L7.55678 9.14769L9.31814 8.21019L14.2045 10.7386L12.4715 11.6903ZM6.90337 10.3977L11.7897 12.9261V17.8835L6.90337 15.284V10.3977ZM13.2102 17.8409V12.9119L14.6306 12.1306V12.9261C14.6306 13.1145 14.7055 13.2951 14.8387 13.4283C14.9719 13.5615 15.1525 13.6363 15.3409 13.6363C15.5292 13.6363 15.7099 13.5615 15.8431 13.4283C15.9763 13.2951 16.0511 13.1145 16.0511 12.9261V11.3636L18.0397 10.2556V15.3125L13.2102 17.8409Z" fill="#E42525"/>
</svg>
