<svg width="25" height="25" viewBox="0 0 25 25" fill="none" xmlns="http://www.w3.org/2000/svg">
<path d="M12.5 3.10049e-05C10.0277 3.10049e-05 7.61098 0.733142 5.55537 2.10666C3.49976 3.48017 1.8976 5.4324 0.95151 7.71648C0.00541598 10.0006 -0.242125 12.5139 0.240189 14.9386C0.722504 17.3634 1.91301 19.5907 3.66117 21.3388C5.40932 23.087 7.6366 24.2775 10.0614 24.7598C12.4861 25.2421 14.9995 24.9946 17.2835 24.0485C19.5676 23.1024 21.5198 21.5002 22.8933 19.4446C24.2669 17.389 25 14.9723 25 12.5C25.0036 10.8575 24.6828 9.23037 24.0559 7.71215C23.429 6.19392 22.5084 4.81448 21.347 3.65302C20.1855 2.49156 18.8061 1.57096 17.2879 0.944076C15.7696 0.31719 14.1425 -0.00363133 12.5 3.10049e-05ZM18.25 19.1667L15.8889 20.8333L12.4722 14.6667L9.13888 20.8333L6.69444 19.1667L10.5555 13.0556L4.16667 11.8056L4.88889 8.88891L11.3611 10.8889L11.0278 4.16669H13.9722L13.6389 10.8889L20.0555 8.88891L20.8333 11.8056L14.4444 13.0556L18.25 19.1667Z" fill="#DF1B21"/>
</svg>
