<svg width="25" height="20" viewBox="0 0 25 20" fill="none" xmlns="http://www.w3.org/2000/svg">
<path d="M4.74649 19.5624C4.59601 19.5654 4.44886 19.5179 4.32848 19.4276C2.51392 18.0711 1.1725 16.1777 0.494459 14.016C-0.183585 11.8543 -0.163831 9.53402 0.550918 7.38418C1.26567 5.23433 2.63913 3.36409 4.47652 2.03869C6.3139 0.713282 8.52194 0 10.7875 0C13.053 0 15.2611 0.713282 17.0985 2.03869C18.9358 3.36409 20.3093 5.23433 21.0241 7.38418C21.7388 9.53402 21.7586 11.8543 21.0805 14.016C20.4025 16.1777 19.061 18.0711 17.2465 19.4276C17.0939 19.5268 16.9093 19.5641 16.7302 19.5318C16.5511 19.4996 16.391 19.4002 16.2827 19.254C16.1743 19.1078 16.1258 18.9258 16.1471 18.7451C16.1683 18.5643 16.2577 18.3985 16.397 18.2814C17.6994 17.3261 18.7348 16.0526 19.4043 14.5827C20.0738 13.1128 20.3549 11.4957 20.2208 9.88615C20.0866 8.27656 19.5416 6.72832 18.638 5.38956C17.7344 4.0508 16.5024 2.96631 15.0598 2.23984C13.6172 1.51337 12.0124 1.16923 10.3988 1.24034C8.78515 1.31145 7.21678 1.79544 5.8437 2.646C4.47063 3.49655 3.33878 4.68522 2.55644 6.09828C1.7741 7.51135 1.36746 9.10152 1.3754 10.7167C1.36681 12.1883 1.70691 13.641 2.36786 14.9559C3.02881 16.2708 3.99181 17.4104 5.17799 18.2814C5.32677 18.3964 5.4253 18.5645 5.45295 18.7505C5.4806 18.9365 5.43522 19.1259 5.32632 19.2792C5.25793 19.3678 5.17005 19.4395 5.06949 19.4886C4.96893 19.5377 4.8584 19.5629 4.74649 19.5624V19.5624Z" fill="black"/>
<path d="M12.7156 12.9685H8.88603L8.15788 15.1395H5.85205L9.776 4.59473H11.7852L15.7361 15.1395H13.4168L12.7156 12.9685ZM9.49283 11.2155H12.1897L10.7738 7.2916L9.49283 11.2155Z" fill="#E42525"/>
<path d="M23.8265 16.6764C24.4744 16.6764 24.9996 16.1511 24.9996 15.5032C24.9996 14.8553 24.4744 14.3301 23.8265 14.3301C23.1786 14.3301 22.6533 14.8553 22.6533 15.5032C22.6533 16.1511 23.1786 16.6764 23.8265 16.6764Z" fill="#E42525"/>
<path d="M24.7303 2.78809H22.9369C22.788 2.78809 22.6672 2.90883 22.6672 3.05777V12.9014C22.6672 13.0503 22.788 13.171 22.9369 13.171H24.7303C24.8793 13.171 25 13.0503 25 12.9014V3.05777C25 2.90883 24.8793 2.78809 24.7303 2.78809Z" fill="#E42525"/>
</svg>
