<svg width="25" height="16" viewBox="0 0 25 16" fill="none" xmlns="http://www.w3.org/2000/svg">
<path d="M23.5795 4.11967V14.0629H1.42045V4.11967H23.5795V4.11967ZM23.8636 2.69922H1.13636C0.834981 2.69922 0.545943 2.81894 0.332833 3.03205C0.119724 3.24516 0 3.5342 0 3.83558V14.3469C0 14.6483 0.119724 14.9374 0.332833 15.1505C0.545943 15.3636 0.834981 15.4833 1.13636 15.4833H23.8636C24.165 15.4833 24.4541 15.3636 24.6672 15.1505C24.8803 14.9374 25 14.6483 25 14.3469V3.83558C25 3.5342 24.8803 3.24516 24.6672 3.03205C24.4541 2.81894 24.165 2.69922 23.8636 2.69922Z" fill="black"/>
<path d="M9.09077 8.38135H3.40895V9.8018H9.09077V8.38135Z" fill="#E42525"/>
<path d="M9.09077 0H3.40895V1.42045H9.09077V0Z" fill="black"/>
<path d="M21.5912 8.38135H15.9094V9.8018H21.5912V8.38135Z" fill="#E42525"/>
<path d="M19.4605 6.25049H18.0401V11.9323H19.4605V6.25049Z" fill="#E42525"/>
<path d="M4.82941 0.28418H3.40895V3.69327H4.82941V0.28418Z" fill="black"/>
<path d="M9.09077 0.28418H7.67032V3.69327H9.09077V0.28418Z" fill="black"/>
<path d="M21.5912 0H15.9094V1.42045H21.5912V0Z" fill="black"/>
<path d="M17.3298 0.28418H15.9094V3.69327H17.3298V0.28418Z" fill="black"/>
<path d="M21.5912 0.28418H20.1707V3.69327H21.5912V0.28418Z" fill="black"/>
</svg>
