<svg width="36" height="36" viewBox="0 0 36 36" fill="none" xmlns="http://www.w3.org/2000/svg">
<path fill-rule="evenodd" clip-rule="evenodd" d="M7.9998 34C6.8964 34 6 33.1036 6 32.0002V3.99977C6 2.89639 6.8964 2 7.9998 2H22.0002L29.9994 9.9991V32.0002C29.9994 33.1036 29.103 34 27.9996 34H7.9998ZM7.9998 32.0002H27.9996V11.9943L22.074 11.9755C20.9796 11.9719 20.0922 11.0899 20.0796 9.9955L20.0202 3.99977H7.9998V32.0002ZM22.0812 9.9757L27.1621 9.99116L22.0286 4.85638L22.0812 9.9757Z" fill="black"/>
<path d="M12 19.9998H24V21.9998H12V19.9998Z" fill="black"/>
<path d="M12 25.9997H24V27.9997H12V25.9997Z" fill="black"/>
</svg>
