<svg width="26" height="25" viewBox="0 0 26 25" fill="none" xmlns="http://www.w3.org/2000/svg">
<path d="M24.0057 0H3.97727C3.67589 0 3.38685 0.119724 3.17374 0.332833C2.96063 0.545943 2.84091 0.834981 2.84091 1.13636V2.69886H1.84659C1.35684 2.69886 0.887157 2.89341 0.540854 3.23972C0.194551 3.58602 0 4.05571 0 4.54545V23.1534C0 23.6432 0.194551 24.1128 0.540854 24.4591C0.887157 24.8054 1.35684 25 1.84659 25H20.7386C20.9811 25 21.2213 24.9522 21.4453 24.8594C21.6693 24.7666 21.8729 24.6306 22.0444 24.4591C22.2158 24.2877 22.3519 24.0841 22.4447 23.8601C22.5375 23.636 22.5852 23.3959 22.5852 23.1534V22.3011H24.0057C24.3071 22.3011 24.5961 22.1814 24.8092 21.9683C25.0223 21.7552 25.142 21.4662 25.142 21.1648V1.13636C25.142 0.834981 25.0223 0.545943 24.8092 0.332833C24.5961 0.119724 24.3071 0 24.0057 0ZM21.1648 23.1534C21.1668 23.2099 21.1571 23.2662 21.1364 23.3188C21.1157 23.3714 21.0843 23.4192 21.0444 23.4591C21.0044 23.4991 20.9566 23.5304 20.904 23.5511C20.8514 23.5719 20.7951 23.5815 20.7386 23.5795H1.84659C1.73357 23.5795 1.62518 23.5346 1.54527 23.4547C1.46535 23.3748 1.42045 23.2664 1.42045 23.1534V4.54545C1.42045 4.43244 1.46535 4.32405 1.54527 4.24413C1.62518 4.16421 1.73357 4.11932 1.84659 4.11932H2.84091V21.1648C2.84091 21.4662 2.96063 21.7552 3.17374 21.9683C3.38685 22.1814 3.67589 22.3011 3.97727 22.3011H21.1648V23.1534ZM23.7216 20.8807H4.26136V3.40909V1.42045H23.7216V20.8807Z" fill="black"/>
<path d="M20.3124 4.83012V14.0347L18.6079 12.6852L17.713 11.9466L16.8181 12.6852L15.1562 14.1057V4.83012H20.2698H20.3124ZM21.6903 3.40967H13.7783V17.046L17.7556 13.779L21.7329 17.046V3.40967H21.6903Z" fill="#E42525"/>
</svg>
