<svg width="25" height="28" viewBox="0 0 25 28" fill="none" xmlns="http://www.w3.org/2000/svg">
<path d="M18.4608 21.3822C18.3325 21.3815 18.2067 21.3471 18.0958 21.2827C17.9849 21.2182 17.8928 21.1258 17.8287 21.0147C17.7315 20.8446 17.7048 20.6432 17.7543 20.4536C17.8037 20.2641 17.9254 20.1014 18.0933 20.0004C18.3579 19.8534 18.6078 19.6917 18.8724 19.5153C20.3025 18.5296 21.4732 17.2127 22.2846 15.6769C23.096 14.1412 23.5241 12.432 23.5324 10.6951C23.5265 8.95773 23.0995 7.24768 22.2879 5.71151C21.4763 4.17535 20.3043 2.85887 18.8724 1.87492L18.0933 1.37511C17.9314 1.27983 17.8131 1.12507 17.7637 0.943819C17.7142 0.762568 17.7376 0.569177 17.8287 0.404889C17.8759 0.320792 17.9395 0.247028 18.0157 0.187972C18.092 0.128916 18.1793 0.0857695 18.2725 0.0610921C18.3657 0.0364147 18.463 0.0307085 18.5585 0.0443116C18.6539 0.0579148 18.7457 0.0905504 18.8283 0.140283C19.1223 0.301987 19.4163 0.493091 19.6956 0.684195C21.3298 1.79484 22.6674 3.28836 23.592 5.03456C24.5165 6.78076 24.9998 8.72661 24.9998 10.7025C24.9998 12.6783 24.5165 14.6242 23.592 16.3703C22.6674 18.1165 21.3298 19.6101 19.6956 20.7207L18.8283 21.2793C18.715 21.3405 18.5894 21.3756 18.4608 21.3822V21.3822Z" fill="black"/>
<path d="M6.55372 21.3825C6.42449 21.3799 6.29805 21.3444 6.18622 21.2796C5.87751 21.1032 5.5835 20.9121 5.3042 20.721C3.67005 19.6104 2.3324 18.1168 1.40787 16.3706C0.483336 14.6244 0 12.6786 0 10.7028C0 8.72691 0.483336 6.78106 1.40787 5.03486C2.3324 3.28866 3.67005 1.79513 5.3042 0.684489C5.58729 0.486056 5.8818 0.304439 6.18622 0.140577C6.26939 0.0800872 6.36434 0.0377257 6.46491 0.0162315C6.56549 -0.0052627 6.66945 -0.0054111 6.77009 0.0157959C6.87072 0.0370029 6.96579 0.0790931 7.04913 0.139345C7.13248 0.199598 7.20226 0.276671 7.25395 0.365582C7.30564 0.454493 7.3381 0.553262 7.34923 0.655504C7.36035 0.757746 7.3499 0.861185 7.31854 0.959133C7.28718 1.05708 7.23561 1.14736 7.16718 1.22413C7.09874 1.3009 7.01495 1.36245 6.92123 1.4048C6.65663 1.56651 6.39202 1.72821 6.14211 1.90461C4.7057 2.88512 3.5295 4.20049 2.71507 5.73717C1.90063 7.27384 1.47242 8.98565 1.46742 10.7248C1.47617 12.4633 1.90599 14.1737 2.72011 15.7098C3.53422 17.2458 4.70839 18.5618 6.14211 19.545C6.39298 19.7205 6.65306 19.8824 6.92123 20.0301C7.08912 20.1311 7.21082 20.2938 7.26027 20.4833C7.30973 20.6729 7.28301 20.8743 7.18584 21.0444C7.1181 21.15 7.02444 21.2366 6.91379 21.2958C6.80314 21.3549 6.67919 21.3848 6.55372 21.3825Z" fill="black"/>
<path d="M12.507 2.37487C14.7437 2.35131 16.8987 3.21536 18.4996 4.77769C20.1005 6.34003 21.0168 8.47324 21.0478 10.7099C21.0168 12.9466 20.1005 15.0799 18.4996 16.6422C16.8987 18.2045 14.7437 19.0686 12.507 19.045C10.2727 19.0647 8.12154 18.1989 6.52381 16.637C4.92609 15.0751 4.01177 12.9441 3.98077 10.7099C4.00791 8.47458 4.92101 6.34133 6.51958 4.77859C8.11816 3.21585 10.2715 2.35134 12.507 2.37487V2.37487ZM12.507 0.904837C9.88168 0.881325 7.35439 1.90072 5.48014 3.73914C3.60589 5.57756 2.5379 8.0847 2.51074 10.7099C2.5379 13.3352 3.60589 15.8423 5.48014 17.6807C7.35439 19.5192 9.88168 20.5386 12.507 20.5151C13.8081 20.5286 15.0992 20.2858 16.3065 19.8004C17.5138 19.315 18.6137 18.5965 19.5433 17.686C20.4729 16.7755 21.214 15.6908 21.7244 14.4938C22.2348 13.2969 22.5044 12.0111 22.5179 10.7099C22.5044 9.40879 22.2348 8.12302 21.7244 6.92606C21.214 5.72911 20.4729 4.64441 19.5433 3.7339C18.6137 2.8234 17.5138 2.10493 16.3065 1.61952C15.0992 1.1341 13.8081 0.891253 12.507 0.904837V0.904837Z" fill="black"/>
<path d="M0.144287 27.7919V22.3527H2.05533C2.57264 22.3293 3.08499 22.4625 3.52536 22.7349C3.69324 22.8631 3.82675 23.0309 3.91397 23.2233C4.00118 23.4157 4.03939 23.6267 4.02517 23.8375C4.03372 24.0886 3.96159 24.3359 3.81936 24.5431C3.68331 24.7478 3.48861 24.9066 3.26075 24.9988C3.51916 25.053 3.74906 25.1993 3.90757 25.4104C4.07493 25.6352 4.16284 25.9093 4.15747 26.1895C4.17029 26.4129 4.13193 26.6364 4.04532 26.8427C3.9587 27.0491 3.82611 27.2329 3.65766 27.3802C3.22704 27.6771 2.70978 27.8219 2.18763 27.7919H0.144287ZM1.26151 24.6607H2.09943C2.65804 24.6607 2.93735 24.4255 2.93735 23.9845C2.94669 23.8863 2.93295 23.7873 2.89721 23.6955C2.86148 23.6036 2.80474 23.5213 2.73154 23.4553C2.53033 23.3278 2.29243 23.2709 2.05533 23.2936H1.26151V24.6607ZM1.26151 25.4545V26.9245H2.21703C2.43863 26.9333 2.65653 26.8658 2.83444 26.7334C2.92311 26.6625 2.99153 26.5694 3.03282 26.4636C3.07411 26.3578 3.08681 26.243 3.06965 26.1307C3.08239 26.0266 3.07075 25.921 3.03563 25.8221C3.00052 25.7233 2.94289 25.634 2.86732 25.5613C2.79174 25.4886 2.70029 25.4344 2.60019 25.4031C2.50008 25.3718 2.39407 25.3643 2.29053 25.381L1.26151 25.4545Z" fill="black"/>
<path d="M7.27395 25.7924H6.37723V27.7916H5.26001V22.3525H7.27395C7.79832 22.322 8.31725 22.4725 8.74398 22.7788C8.92188 22.9263 9.06251 23.1136 9.15446 23.3256C9.24641 23.5376 9.28709 23.7683 9.27319 23.9989C9.28191 24.3254 9.19505 24.6473 9.02329 24.925C8.84593 25.1873 8.59547 25.3918 8.30297 25.5131L9.479 27.7328H8.28827L7.27395 25.7924ZM6.37723 24.8956H7.27395C7.51678 24.9071 7.75438 24.8226 7.93547 24.6604C8.08116 24.4963 8.16163 24.2845 8.16163 24.0651C8.16163 23.8456 8.08116 23.6338 7.93547 23.4697C7.84329 23.3895 7.73592 23.3287 7.61976 23.2908C7.50359 23.2529 7.38099 23.2388 7.25925 23.2492H6.37723V24.8956Z" fill="black"/>
<path d="M13.6101 26.6744H11.655L11.3316 27.7917H10.082L12.1107 22.3525H13.1544L15.183 27.7917H13.9923L13.6101 26.6744ZM11.949 25.763H13.3161L12.6252 23.7197L11.949 25.763Z" fill="black"/>
<path d="M17.6674 25.6013L17.0794 26.2334V27.7917H15.9622V22.3525H17.0794V24.8222L17.5645 24.146L18.961 22.3525H20.3282L18.4024 24.7634L20.387 27.7917H19.0492L17.6674 25.6013Z" fill="black"/>
<path d="M24.385 25.4396H22.2388V26.9096H24.7673V27.8063H21.1216V22.3672H24.7526V23.2786H22.2388V24.5722H24.385V25.4396Z" fill="black"/>
<path d="M12.5513 16.5021C13.0953 16.5021 13.5362 16.0611 13.5362 15.5171C13.5362 14.9732 13.0953 14.5322 12.5513 14.5322C12.0074 14.5322 11.5664 14.9732 11.5664 15.5171C11.5664 16.0611 12.0074 16.5021 12.5513 16.5021Z" fill="#E42525"/>
<path d="M13.2422 4.78613H11.8604C11.698 4.78613 11.5664 4.91776 11.5664 5.08014V13.2535C11.5664 13.4159 11.698 13.5475 11.8604 13.5475H13.2422C13.4046 13.5475 13.5362 13.4159 13.5362 13.2535V5.08014C13.5362 4.91776 13.4046 4.78613 13.2422 4.78613Z" fill="#E42525"/>
</svg>
