<svg width="25" height="22" viewBox="0 0 25 22" fill="none" xmlns="http://www.w3.org/2000/svg">
<path d="M18.4967 21.3026C18.3796 21.3043 18.2641 21.2746 18.1623 21.2168C18.0605 21.1589 17.976 21.0749 17.9174 20.9735C17.8734 20.8987 17.8449 20.8158 17.8337 20.7298C17.8225 20.6437 17.8287 20.5563 17.8521 20.4727C17.8754 20.3891 17.9154 20.3111 17.9696 20.2434C18.0238 20.1756 18.0911 20.1195 18.1675 20.0783L18.9443 19.5781C20.4077 18.5895 21.6063 17.257 22.4349 15.6974C23.2634 14.1378 23.6967 12.3987 23.6967 10.6327C23.6967 8.8666 23.2634 7.12753 22.4349 5.56792C21.6063 4.00831 20.4077 2.6758 18.9443 1.68725L18.1675 1.18699C18.0336 1.10478 17.9342 0.976473 17.8881 0.826178C17.8421 0.675883 17.8525 0.513942 17.9174 0.370779C18.0078 0.220425 18.1535 0.111441 18.3233 0.0671535C18.4931 0.0228658 18.6734 0.0467932 18.8258 0.133814C19.1154 0.304955 19.4182 0.489261 19.6946 0.686731C21.3291 1.79714 22.6671 3.29059 23.5919 5.03683C24.5167 6.78307 25.0001 8.72906 25.0001 10.7051C25.0001 12.6811 24.5167 14.627 23.5919 16.3733C22.6671 18.1195 21.3291 19.613 19.6946 20.7234C19.4182 20.9209 19.1154 21.1052 18.8258 21.2763C18.7205 21.3147 18.6067 21.3238 18.4967 21.3026V21.3026Z" fill="black"/>
<path d="M6.49032 21.3028C6.37861 21.3012 6.26943 21.2693 6.17437 21.2107C5.88474 21.0395 5.58196 20.8552 5.3055 20.6577C3.671 19.5473 2.33302 18.0539 1.40825 16.3076C0.483472 14.5614 0 12.6154 0 10.6394C0 8.66342 0.483472 6.71743 1.40825 4.97119C2.33302 3.22495 3.671 1.73149 5.3055 0.621087C5.58196 0.423617 5.88474 0.239311 6.17437 0.06817C6.33337 -0.00952757 6.51662 -0.0213061 6.68426 0.035396C6.8519 0.0920981 6.99037 0.212695 7.06957 0.370958C7.11359 0.445746 7.14206 0.528647 7.15329 0.614698C7.16452 0.70075 7.15827 0.788183 7.13492 0.871763C7.11157 0.955343 7.07159 1.03335 7.01738 1.10112C6.96317 1.16889 6.89585 1.22502 6.81944 1.26616L6.04272 1.68743C4.58199 2.67646 3.3859 4.0084 2.5591 5.5667C1.7323 7.12501 1.29998 8.86219 1.29998 10.6263C1.29998 12.3903 1.7323 14.1275 2.5591 15.6858C3.3859 17.2441 4.58199 18.576 6.04272 19.5651L6.81944 20.0653C6.89585 20.1065 6.96317 20.1626 7.01738 20.2304C7.07159 20.2981 7.11157 20.3761 7.13492 20.4597C7.15827 20.5433 7.16452 20.6307 7.15329 20.7168C7.14206 20.8028 7.11359 20.8857 7.06957 20.9605C7.01273 21.0644 6.92892 21.151 6.82698 21.2113C6.72504 21.2715 6.60873 21.3031 6.49032 21.3028Z" fill="black"/>
<path d="M12.4934 2.08217C14.7898 2.05756 17.0023 2.9445 18.6458 4.54855C20.2894 6.1526 21.2298 8.34287 21.2611 10.6392C21.2298 12.9356 20.2894 15.1258 18.6458 16.7299C17.0023 18.3339 14.7898 19.2209 12.4934 19.1963C10.197 19.2209 7.98448 18.3339 6.34094 16.7299C4.69741 15.1258 3.75694 12.9356 3.72571 10.6392C3.75694 8.34287 4.69741 6.1526 6.34094 4.54855C7.98448 2.9445 10.197 2.05756 12.4934 2.08217ZM12.4934 0.765698C11.1829 0.751795 9.88257 0.99616 8.66656 1.48484C7.45054 1.97352 6.3427 2.69694 5.40628 3.6138C4.46987 4.53065 3.72323 5.62298 3.20899 6.82841C2.69475 8.03384 2.423 9.32876 2.40924 10.6392C2.423 11.9497 2.69475 13.2446 3.20899 14.45C3.72323 15.6555 4.46987 16.7478 5.40628 17.6646C6.3427 18.5815 7.45054 19.3049 8.66656 19.7936C9.88257 20.2823 11.1829 20.5266 12.4934 20.5127C13.8039 20.5266 15.1042 20.2823 16.3202 19.7936C17.5362 19.3049 18.6441 18.5815 19.5805 17.6646C20.5169 16.7478 21.2636 15.6555 21.7778 14.45C22.292 13.2446 22.5638 11.9497 22.5775 10.6392C22.5638 9.32876 22.292 8.03384 21.7778 6.82841C21.2636 5.62298 20.5169 4.53065 19.5805 3.6138C18.6441 2.69694 17.5362 1.97352 16.3202 1.48484C15.1042 0.99616 13.8039 0.751795 12.4934 0.765698V0.765698Z" fill="black"/>
<path d="M8.50438 12.2191H6.67449L6.35854 13.246H4.93675L6.95095 7.7168H8.26742L10.3079 13.246H8.80717L8.50438 12.2191ZM6.99044 11.1791H8.17527L7.58286 9.23074L6.99044 11.1791Z" fill="#E42525"/>
<path d="M10.5189 13.2065V7.67734H12.5068C13.0742 7.64013 13.6394 7.77799 14.126 8.07228C14.3079 8.19823 14.4551 8.36798 14.5541 8.56586C14.653 8.76374 14.7005 8.98337 14.6921 9.20444C14.6966 9.46564 14.6233 9.72227 14.4815 9.94167C14.3472 10.1545 14.1421 10.3131 13.9022 10.3893C14.1677 10.4484 14.4048 10.5972 14.5736 10.8105C14.7311 11.033 14.8099 11.3018 14.7974 11.5741C14.8146 11.8023 14.777 12.0313 14.6877 12.242C14.5984 12.4527 14.4599 12.6389 14.284 12.7852C13.8424 13.0947 13.308 13.2434 12.7701 13.2065H10.5189ZM11.8354 9.98116H12.5331C12.7514 10.0017 12.9701 9.94583 13.1518 9.82318C13.2196 9.76808 13.2729 9.69737 13.3073 9.61712C13.3417 9.53686 13.3561 9.44947 13.3493 9.36242C13.3566 9.26828 13.3413 9.17377 13.3046 9.08675C13.268 8.99973 13.2111 8.92273 13.1387 8.86216C12.9471 8.7395 12.7202 8.68394 12.4936 8.70419H11.8354V9.98116ZM11.8354 10.8632V12.1797H12.7569C12.9538 12.1913 13.1488 12.1356 13.3098 12.0217C13.3762 11.9626 13.4284 11.8893 13.4625 11.8072C13.4967 11.7252 13.512 11.6365 13.5073 11.5478C13.5165 11.4512 13.5025 11.3539 13.4662 11.2639C13.43 11.174 13.3728 11.094 13.2992 11.0308C13.2257 10.9676 13.138 10.9229 13.0437 10.9007C12.9493 10.8784 12.8509 10.8791 12.7569 10.9027L11.8354 10.8632Z" fill="#E42525"/>
<path d="M18.1808 11.7321C18.1851 11.646 18.1681 11.5601 18.1313 11.4821C18.0946 11.404 18.0393 11.3362 17.9702 11.2845C17.7477 11.1342 17.5035 11.0188 17.2461 10.9423C16.959 10.8495 16.6776 10.7396 16.4036 10.6131C16.1105 10.4951 15.8583 10.2938 15.6782 10.0341C15.4981 9.77447 15.3979 9.46779 15.3899 9.15187C15.387 8.86253 15.4796 8.5803 15.6532 8.34882C15.8529 8.09866 16.1168 7.90753 16.4168 7.79591C16.766 7.66567 17.1368 7.60312 17.5094 7.6116C17.8803 7.60258 18.2487 7.67446 18.5889 7.82224C18.8868 7.94485 19.1396 8.15631 19.313 8.42781C19.4937 8.69065 19.5859 9.00421 19.5763 9.32301H18.2598C18.2611 9.22327 18.2405 9.12447 18.1996 9.03351C18.1586 8.94255 18.0983 8.86163 18.0229 8.79642C17.8623 8.66921 17.6614 8.60382 17.4568 8.61212C17.256 8.60254 17.0575 8.65794 16.8907 8.77009C16.8255 8.81332 16.7721 8.87201 16.7351 8.94092C16.6981 9.00983 16.6787 9.08683 16.6787 9.16503C16.6787 9.24324 16.6981 9.32023 16.7351 9.38915C16.7721 9.45806 16.8255 9.51674 16.8907 9.55997C17.1422 9.71206 17.4121 9.83151 17.6937 9.91542C18.02 10.0092 18.3338 10.1418 18.6284 10.3104C18.8973 10.4379 19.1242 10.6393 19.2828 10.8911C19.4413 11.1429 19.5248 11.4346 19.5236 11.7321C19.5349 11.9509 19.4915 12.1689 19.3972 12.3666C19.303 12.5643 19.1609 12.7354 18.9839 12.8643C18.5429 13.1645 18.0159 13.3124 17.4831 13.2856C17.0616 13.2931 16.6436 13.2077 16.2588 13.0355C15.9267 12.9031 15.6423 12.6737 15.4426 12.3772C15.2553 12.0922 15.1589 11.7571 15.1661 11.4162H16.4826C16.4748 11.5352 16.4906 11.6546 16.529 11.7676C16.5674 11.8805 16.6277 11.9848 16.7064 12.0744C16.9247 12.2292 17.1898 12.3036 17.4568 12.2851C17.6393 12.2957 17.8201 12.2447 17.9702 12.1403C18.0379 12.0966 18.093 12.0359 18.13 11.9643C18.1669 11.8927 18.1845 11.8127 18.1808 11.7321Z" fill="#E42525"/>
</svg>
