<svg width="25" height="24" viewBox="0 0 25 24" fill="none" xmlns="http://www.w3.org/2000/svg">
<path d="M16.4063 4.42757V8.72445H4.03646V4.42757H16.4063ZM16.6667 3.12549H3.77604C3.49977 3.12549 3.23482 3.23524 3.03947 3.43059C2.84412 3.62594 2.73438 3.89089 2.73438 4.16716V8.98486C2.73438 9.26113 2.84412 9.52608 3.03947 9.72143C3.23482 9.91678 3.49977 10.0265 3.77604 10.0265H16.6667C16.9429 10.0265 17.2079 9.91678 17.4032 9.72143C17.5986 9.52608 17.7083 9.26113 17.7083 8.98486V4.16716C17.7083 3.89089 17.5986 3.62594 17.4032 3.43059C17.2079 3.23524 16.9429 3.12549 16.6667 3.12549V3.12549Z" fill="#E42525"/>
<path d="M23.3073 3.51563H20.4427V1.04167C20.4427 0.7654 20.333 0.500448 20.1376 0.305097C19.9423 0.109747 19.6773 0 19.401 0H1.04167C0.7654 0 0.500448 0.109747 0.305097 0.305097C0.109747 0.500448 0 0.7654 0 1.04167V19.401C0 19.6773 0.109747 19.9423 0.305097 20.1376C0.500448 20.333 0.7654 20.4427 1.04167 20.4427H4.55729V22.2656C4.56043 22.5724 4.64689 22.8726 4.80743 23.134C4.96798 23.3955 5.19656 23.6084 5.46875 23.75V23.75C5.71061 23.8762 5.9774 23.9474 6.25 23.9583H23.3073C23.7562 23.9583 24.1868 23.78 24.5042 23.4625C24.8217 23.1451 25 22.7146 25 22.2656V5.20833C25 4.98604 24.9562 4.76593 24.8711 4.56056C24.7861 4.35519 24.6614 4.16859 24.5042 4.01141C24.347 3.85423 24.1604 3.72954 23.9551 3.64447C23.7497 3.55941 23.5296 3.51563 23.3073 3.51563V3.51563ZM1.30208 1.30208H19.1406V19.1406H1.30208V1.30208ZM14.0625 20.4427L5.89844 22.3698C5.89844 22.3698 5.89844 22.3047 5.89844 22.2656V20.4427H14.0625ZM23.763 22.2656C23.763 22.3692 23.7219 22.4686 23.6486 22.5418C23.5754 22.6151 23.476 22.6563 23.3724 22.6563H10.3516L19.7135 20.4297C19.9327 20.3723 20.1268 20.2443 20.2657 20.0653C20.4046 19.8864 20.4805 19.6666 20.4818 19.4401V4.81771H23.3464C23.3977 4.81771 23.4484 4.82781 23.4958 4.84744C23.5432 4.86707 23.5863 4.89585 23.6226 4.93212C23.6588 4.96839 23.6876 5.01146 23.7072 5.05885C23.7269 5.10624 23.737 5.15704 23.737 5.20833L23.763 22.2656Z" fill="black"/>
<path d="M7.81242 12.4993H3.51554C3.34288 12.4993 3.17728 12.4308 3.05519 12.3087C2.93309 12.1866 2.8645 12.021 2.8645 11.8483C2.8645 11.6756 2.93309 11.51 3.05519 11.388C3.17728 11.2659 3.34288 11.1973 3.51554 11.1973H7.81242C7.98509 11.1973 8.15068 11.2659 8.27278 11.388C8.39487 11.51 8.46346 11.6756 8.46346 11.8483C8.46346 12.021 8.39487 12.1866 8.27278 12.3087C8.15068 12.4308 7.98509 12.4993 7.81242 12.4993Z" fill="#E42525"/>
<path d="M7.81242 14.5838H3.51554C3.34288 14.5838 3.17728 14.5152 3.05519 14.3931C2.93309 14.271 2.8645 14.1054 2.8645 13.9328C2.8645 13.7601 2.93309 13.5945 3.05519 13.4724C3.17728 13.3503 3.34288 13.2817 3.51554 13.2817H7.81242C7.98509 13.2817 8.15068 13.3503 8.27278 13.4724C8.39487 13.5945 8.46346 13.7601 8.46346 13.9328C8.46346 14.1054 8.39487 14.271 8.27278 14.3931C8.15068 14.5152 7.98509 14.5838 7.81242 14.5838Z" fill="#E42525"/>
<path d="M16.9269 12.4993H12.63C12.4574 12.4993 12.2918 12.4308 12.1697 12.3087C12.0476 12.1866 11.979 12.021 11.979 11.8483C11.979 11.6756 12.0476 11.51 12.1697 11.388C12.2918 11.2659 12.4574 11.1973 12.63 11.1973H16.9269C17.0996 11.1973 17.2652 11.2659 17.3873 11.388C17.5094 11.51 17.578 11.6756 17.578 11.8483C17.578 12.021 17.5094 12.1866 17.3873 12.3087C17.2652 12.4308 17.0996 12.4993 16.9269 12.4993Z" fill="#E42525"/>
<path d="M16.9269 14.5838H12.63C12.4574 14.5838 12.2918 14.5152 12.1697 14.3931C12.0476 14.271 11.979 14.1054 11.979 13.9328C11.979 13.7601 12.0476 13.5945 12.1697 13.4724C12.2918 13.3503 12.4574 13.2817 12.63 13.2817H16.9269C17.0996 13.2817 17.2652 13.3503 17.3873 13.4724C17.5094 13.5945 17.578 13.7601 17.578 13.9328C17.578 14.1054 17.5094 14.271 17.3873 14.3931C17.2652 14.5152 17.0996 14.5838 16.9269 14.5838Z" fill="#E42525"/>
</svg>
