<svg width="16" height="25" viewBox="0 0 16 25" fill="none" xmlns="http://www.w3.org/2000/svg">
<path d="M14.1489 1.42287V23.5771H1.36968V1.42287H14.1622H14.1489ZM14.4282 2.6172e-09H1.13032C0.83054 2.6172e-09 0.543039 0.119087 0.331063 0.331063C0.119087 0.543039 0 0.83054 0 1.13032V23.8697C0 24.0181 0.0292364 24.1651 0.0860402 24.3022C0.142844 24.4394 0.226103 24.564 0.331063 24.6689C0.436023 24.7739 0.560628 24.8572 0.697765 24.914C0.834901 24.9708 0.981884 25 1.13032 25H14.4282C14.7292 25 15.0181 24.8814 15.2322 24.6698C15.4463 24.4582 15.5683 24.1707 15.5718 23.8697V1.13032C15.5683 0.829323 15.4463 0.541845 15.2322 0.330243C15.0181 0.11864 14.7292 -2.0348e-05 14.4282 2.6172e-09V2.6172e-09Z" fill="black"/>
<path d="M11.5823 4.7875V6.86197H3.92269V4.7875H11.5823ZM11.8748 3.37793H3.63014C3.33036 3.37793 3.04286 3.49702 2.83088 3.70899C2.6189 3.92097 2.49982 4.20847 2.49982 4.50825V7.16782C2.49982 7.4676 2.6189 7.7551 2.83088 7.96708C3.04286 8.17906 3.33036 8.29814 3.63014 8.29814H11.8748C12.1746 8.29814 12.4621 8.17906 12.6741 7.96708C12.886 7.7551 13.0051 7.4676 13.0051 7.16782V4.50825C13.0051 4.20847 12.886 3.92097 12.6741 3.70899C12.4621 3.49702 12.1746 3.37793 11.8748 3.37793V3.37793Z" fill="#E42525"/>
<path d="M3.92274 11.2104C4.31199 11.2104 4.62753 10.8948 4.62753 10.5056C4.62753 10.1163 4.31199 9.80078 3.92274 9.80078C3.5335 9.80078 3.21796 10.1163 3.21796 10.5056C3.21796 10.8948 3.5335 11.2104 3.92274 11.2104Z" fill="#E42525"/>
<path d="M7.75239 11.2104C8.14164 11.2104 8.45718 10.8948 8.45718 10.5056C8.45718 10.1163 8.14164 9.80078 7.75239 9.80078C7.36315 9.80078 7.04761 10.1163 7.04761 10.5056C7.04761 10.8948 7.36315 11.2104 7.75239 11.2104Z" fill="#E42525"/>
<path d="M11.5827 11.2104C11.9719 11.2104 12.2874 10.8948 12.2874 10.5056C12.2874 10.1163 11.9719 9.80078 11.5827 9.80078C11.1934 9.80078 10.8779 10.1163 10.8779 10.5056C10.8779 10.8948 11.1934 11.2104 11.5827 11.2104Z" fill="#E42525"/>
<path d="M3.92274 13.7763C4.31199 13.7763 4.62753 13.4607 4.62753 13.0715C4.62753 12.6822 4.31199 12.3667 3.92274 12.3667C3.5335 12.3667 3.21796 12.6822 3.21796 13.0715C3.21796 13.4607 3.5335 13.7763 3.92274 13.7763Z" fill="#E42525"/>
<path d="M7.75239 13.7763C8.14164 13.7763 8.45718 13.4607 8.45718 13.0715C8.45718 12.6822 8.14164 12.3667 7.75239 12.3667C7.36315 12.3667 7.04761 12.6822 7.04761 13.0715C7.04761 13.4607 7.36315 13.7763 7.75239 13.7763Z" fill="#E42525"/>
<path d="M11.5827 13.7763C11.9719 13.7763 12.2874 13.4607 12.2874 13.0715C12.2874 12.6822 11.9719 12.3667 11.5827 12.3667C11.1934 12.3667 10.8779 12.6822 10.8779 13.0715C10.8779 13.4607 11.1934 13.7763 11.5827 13.7763Z" fill="#E42525"/>
<path d="M3.92274 16.3295C4.31199 16.3295 4.62753 16.014 4.62753 15.6247C4.62753 15.2355 4.31199 14.9199 3.92274 14.9199C3.5335 14.9199 3.21796 15.2355 3.21796 15.6247C3.21796 16.014 3.5335 16.3295 3.92274 16.3295Z" fill="#E42525"/>
<path d="M7.75239 16.3295C8.14164 16.3295 8.45718 16.014 8.45718 15.6247C8.45718 15.2355 8.14164 14.9199 7.75239 14.9199C7.36315 14.9199 7.04761 15.2355 7.04761 15.6247C7.04761 16.014 7.36315 16.3295 7.75239 16.3295Z" fill="#E42525"/>
<path d="M11.5827 16.3295C11.9719 16.3295 12.2874 16.014 12.2874 15.6247C12.2874 15.2355 11.9719 14.9199 11.5827 14.9199C11.1934 14.9199 10.8779 15.2355 10.8779 15.6247C10.8779 16.014 11.1934 16.3295 11.5827 16.3295Z" fill="#E42525"/>
<path d="M3.92274 18.8827C4.31199 18.8827 4.62753 18.5672 4.62753 18.1779C4.62753 17.7887 4.31199 17.4731 3.92274 17.4731C3.5335 17.4731 3.21796 17.7887 3.21796 18.1779C3.21796 18.5672 3.5335 18.8827 3.92274 18.8827Z" fill="#E42525"/>
<path d="M7.75239 18.8827C8.14164 18.8827 8.45718 18.5672 8.45718 18.1779C8.45718 17.7887 8.14164 17.4731 7.75239 17.4731C7.36315 17.4731 7.04761 17.7887 7.04761 18.1779C7.04761 18.5672 7.36315 18.8827 7.75239 18.8827Z" fill="#E42525"/>
<path d="M11.5827 18.8827C11.9719 18.8827 12.2874 18.5672 12.2874 18.1779C12.2874 17.7887 11.9719 17.4731 11.5827 17.4731C11.1934 17.4731 10.8779 17.7887 10.8779 18.1779C10.8779 18.5672 11.1934 18.8827 11.5827 18.8827Z" fill="#E42525"/>
<path d="M3.92274 21.4501C4.31199 21.4501 4.62753 21.1346 4.62753 20.7453C4.62753 20.3561 4.31199 20.0405 3.92274 20.0405C3.5335 20.0405 3.21796 20.3561 3.21796 20.7453C3.21796 21.1346 3.5335 21.4501 3.92274 21.4501Z" fill="#E42525"/>
<path d="M7.75239 21.4501C8.14164 21.4501 8.45718 21.1346 8.45718 20.7453C8.45718 20.3561 8.14164 20.0405 7.75239 20.0405C7.36315 20.0405 7.04761 20.3561 7.04761 20.7453C7.04761 21.1346 7.36315 21.4501 7.75239 21.4501Z" fill="#E42525"/>
<path d="M11.5827 21.4501C11.9719 21.4501 12.2874 21.1346 12.2874 20.7453C12.2874 20.3561 11.9719 20.0405 11.5827 20.0405C11.1934 20.0405 10.8779 20.3561 10.8779 20.7453C10.8779 21.1346 11.1934 21.4501 11.5827 21.4501Z" fill="#E42525"/>
</svg>
