<svg width="34" height="31" viewBox="0 0 34 31" fill="none" xmlns="http://www.w3.org/2000/svg">
<path d="M22.4761 2.98975H25.9001C26.0816 2.98975 26.2558 3.06189 26.3841 3.19026C26.5125 3.31864 26.5846 3.49273 26.5846 3.67428V15.2296" stroke="#030504" stroke-linejoin="round"/>
<path d="M17.4264 22.848H1.93356C1.75224 22.848 1.57832 22.776 1.44999 22.6479C1.32165 22.5199 1.24938 22.3461 1.24902 22.1647V3.67428C1.24902 3.49273 1.32114 3.31864 1.44952 3.19026C1.57789 3.06189 1.75201 2.98975 1.93356 2.98975H8.09639" stroke="#030504" stroke-width="1.2" stroke-linejoin="round"/>
<path d="M1.45801 8.68262H26.5786" stroke="#030504" stroke-width="1.2" stroke-linejoin="round"/>
<path d="M8.06885 2.95215H22.6124" stroke="#030504" stroke-linejoin="round"/>
<path d="M8.95166 11.7676H10.7143" stroke="#030504" stroke-miterlimit="10"/>
<path d="M12.0366 11.7676H14.2404" stroke="#030504" stroke-miterlimit="10"/>
<path d="M15.562 11.7676H17.7658" stroke="#030504" stroke-miterlimit="10"/>
<path d="M19.0864 11.7676H21.2902" stroke="#030504" stroke-miterlimit="10"/>
<path d="M5.42383 15.293H7.62761" stroke="#030504" stroke-miterlimit="10"/>
<path d="M8.95166 15.293H10.7143" stroke="#030504" stroke-miterlimit="10"/>
<path d="M12.0366 15.293H14.2404" stroke="#030504" stroke-miterlimit="10"/>
<path d="M15.562 15.293H17.7658" stroke="#030504" stroke-miterlimit="10"/>
<path d="M5.42383 18.8184H7.62761" stroke="#030504" stroke-miterlimit="10"/>
<path d="M8.95166 18.8184H10.7143" stroke="#030504" stroke-miterlimit="10"/>
<path d="M12.0366 18.8184H14.2404" stroke="#030504" stroke-miterlimit="10"/>
<path d="M23.5049 23.8806C23.5187 24.1808 23.6451 24.4649 23.8589 24.6761C24.0728 24.8873 24.3583 25.0102 24.6587 25.0204H25.7844C26.0833 25.0096 26.367 24.886 26.5784 24.6746C26.7899 24.4631 26.9134 24.1794 26.9242 23.8806V23.7083C26.918 23.4841 26.8392 23.2679 26.6997 23.0923C26.5602 22.9166 26.3675 22.7909 26.1505 22.7341L24.2846 22.175C24.0671 22.118 23.8737 21.9924 23.7332 21.8167C23.5928 21.6411 23.5127 21.4249 23.5049 21.2001V21.0265C23.5159 20.7277 23.6395 20.4441 23.8509 20.2327C24.0623 20.0213 24.3459 19.8977 24.6447 19.8867H25.7844C26.0832 19.8977 26.3668 20.0213 26.5782 20.2327C26.7896 20.4441 26.9132 20.7277 26.9242 21.0265V21.5971" stroke="#E42525" stroke-width="1.2" stroke-miterlimit="10"/>
<path d="M25.2495 19.7502V18.2812" stroke="#E42525" stroke-width="1.2" stroke-miterlimit="10"/>
<path d="M25.2495 24.8921V26.7285" stroke="#E42525" stroke-width="1.2" stroke-miterlimit="10"/>
<path d="M25.2162 29.6597C29.3763 29.6597 32.7487 26.4559 32.7487 22.5039C32.7487 18.5519 29.3763 15.3481 25.2162 15.3481C21.056 15.3481 17.6836 18.5519 17.6836 22.5039C17.6836 26.4559 21.056 29.6597 25.2162 29.6597Z" stroke="#030504" stroke-width="1.2" stroke-miterlimit="10"/>
<path d="M21.2896 0.75V5.1569" stroke="#E42525" stroke-width="1.8" stroke-linejoin="round"/>
<path d="M6.74658 0.75V5.1569" stroke="#E42525" stroke-width="1.8" stroke-linejoin="round"/>
</svg>
