<svg width="25" height="27" viewBox="0 0 25 27" fill="none" xmlns="http://www.w3.org/2000/svg">
<path d="M22.7273 3.12504C22.9533 3.12504 23.1701 3.21484 23.3299 3.37467C23.4898 3.5345 23.5795 3.75128 23.5795 3.97732V24.4319C23.5795 24.6579 23.4898 24.8747 23.3299 25.0345C23.1701 25.1943 22.9533 25.2841 22.7273 25.2841H2.27273C2.04669 25.2841 1.82991 25.1943 1.67008 25.0345C1.51025 24.8747 1.42045 24.6579 1.42045 24.4319V3.97732C1.42045 3.75128 1.51025 3.5345 1.67008 3.37467C1.82991 3.21484 2.04669 3.12504 2.27273 3.12504H22.7273ZM22.7273 1.70459H2.27273C1.66996 1.70459 1.09189 1.94404 0.665666 2.37026C0.239447 2.79648 0 3.37455 0 3.97732V24.4319C0 25.0346 0.239447 25.6127 0.665666 26.0389C1.09189 26.4651 1.66996 26.7046 2.27273 26.7046H22.7273C23.33 26.7046 23.9081 26.4651 24.3343 26.0389C24.7606 25.6127 25 25.0346 25 24.4319V3.97732C25 3.37455 24.7606 2.79648 24.3343 2.37026C23.9081 1.94404 23.33 1.70459 22.7273 1.70459Z" fill="black"/>
<path d="M24.0059 7.8125H0.994568V9.23295H24.0059V7.8125Z" fill="black"/>
<path d="M7.52816 4.82955C7.3398 4.82955 7.15915 4.75472 7.02595 4.62152C6.89276 4.48833 6.81793 4.30768 6.81793 4.11932V0.710227C6.81793 0.521863 6.89276 0.341214 7.02595 0.208021C7.15915 0.0748273 7.3398 0 7.52816 0C7.71652 0 7.89717 0.0748273 8.03037 0.208021C8.16356 0.341214 8.23839 0.521863 8.23839 0.710227V4.11932C8.23839 4.30768 8.16356 4.48833 8.03037 4.62152C7.89717 4.75472 7.71652 4.82955 7.52816 4.82955Z" fill="black"/>
<path d="M17.4713 4.82955C17.283 4.82955 17.1023 4.75472 16.9691 4.62152C16.8359 4.48833 16.7611 4.30768 16.7611 4.11932V0.710227C16.7611 0.521863 16.8359 0.341214 16.9691 0.208021C17.1023 0.0748273 17.283 0 17.4713 0C17.6597 0 17.8403 0.0748273 17.9735 0.208021C18.1067 0.341214 18.1816 0.521863 18.1816 0.710227V4.11932C18.1816 4.30768 18.1067 4.48833 17.9735 4.62152C17.8403 4.75472 17.6597 4.82955 17.4713 4.82955Z" fill="black"/>
<path d="M7.10212 19.3174V21.5902H4.82939V19.3174H7.10212ZM7.38621 17.897H4.5453C4.24392 17.897 3.95488 18.0167 3.74177 18.2298C3.52866 18.4429 3.40894 18.732 3.40894 19.0333V21.8742C3.40894 22.1756 3.52866 22.4647 3.74177 22.6778C3.95488 22.8909 4.24392 23.0106 4.5453 23.0106H7.38621C7.68759 23.0106 7.97663 22.8909 8.18974 22.6778C8.40285 22.4647 8.52257 22.1756 8.52257 21.8742V19.0333C8.52257 18.732 8.40285 18.4429 8.18974 18.2298C7.97663 18.0167 7.68759 17.897 7.38621 17.897Z" fill="#E42525"/>
<path d="M13.6364 19.3174V21.5902H11.3636V19.3174H13.6364ZM13.9204 17.897H11.0795C10.7782 17.897 10.4891 18.0167 10.276 18.2298C10.0629 18.4429 9.94318 18.732 9.94318 19.0333V21.8742C9.94318 22.1756 10.0629 22.4647 10.276 22.6778C10.4891 22.8909 10.7782 23.0106 11.0795 23.0106H13.9204C14.0697 23.0106 14.2174 22.9812 14.3553 22.9241C14.4932 22.867 14.6185 22.7833 14.724 22.6778C14.8295 22.5723 14.9132 22.447 14.9703 22.3091C15.0274 22.1712 15.0568 22.0235 15.0568 21.8742V19.0333C15.0568 18.8841 15.0274 18.7363 14.9703 18.5985C14.9132 18.4606 14.8295 18.3353 14.724 18.2298C14.6185 18.1243 14.4932 18.0406 14.3553 17.9835C14.2174 17.9264 14.0697 17.897 13.9204 17.897Z" fill="#E42525"/>
<path d="M13.6364 12.4996V14.7723H11.3636V12.4996H13.6364ZM13.9204 11.0791H11.0795C10.7782 11.0791 10.4891 11.1988 10.276 11.4119C10.0629 11.625 9.94318 11.9141 9.94318 12.2155V15.0564C9.94318 15.3578 10.0629 15.6468 10.276 15.8599C10.4891 16.073 10.7782 16.1927 11.0795 16.1927H13.9204C14.2218 16.1927 14.5109 16.073 14.724 15.8599C14.9371 15.6468 15.0568 15.3578 15.0568 15.0564V12.2155C15.0568 11.9141 14.9371 11.625 14.724 11.4119C14.5109 11.1988 14.2218 11.0791 13.9204 11.0791V11.0791Z" fill="#E42525"/>
<path d="M20.1706 12.4996V14.7723H17.8979V12.4996H20.1706ZM20.4547 11.0791H17.6138C17.3124 11.0791 17.0234 11.1988 16.8102 11.4119C16.5971 11.625 16.4774 11.9141 16.4774 12.2155V15.0564C16.4774 15.3578 16.5971 15.6468 16.8102 15.8599C17.0234 16.073 17.3124 16.1927 17.6138 16.1927H20.4547C20.7561 16.1927 21.0451 16.073 21.2582 15.8599C21.4713 15.6468 21.5911 15.3578 21.5911 15.0564V12.2155C21.5911 11.9141 21.4713 11.625 21.2582 11.4119C21.0451 11.1988 20.7561 11.0791 20.4547 11.0791V11.0791Z" fill="#E42525"/>
</svg>
