<svg width="25" height="25" viewBox="0 0 25 25" fill="none" xmlns="http://www.w3.org/2000/svg">
<path d="M12.5 1.42045C14.6913 1.42045 16.8334 2.07026 18.6555 3.28769C20.4775 4.50513 21.8976 6.23552 22.7362 8.26004C23.5748 10.2846 23.7942 12.5123 23.3667 14.6615C22.9391 16.8107 21.8839 18.7849 20.3344 20.3344C18.7849 21.8839 16.8107 22.9391 14.6615 23.3666C12.5123 23.7942 10.2846 23.5747 8.26005 22.7362C6.23552 21.8976 4.50514 20.4775 3.2877 18.6555C2.07026 16.8334 1.42046 14.6913 1.42046 12.5C1.42422 9.56267 2.59273 6.74673 4.66973 4.66973C6.74674 2.59273 9.56268 1.42421 12.5 1.42045V1.42045ZM12.5 0C10.0277 0 7.61099 0.733112 5.55538 2.10663C3.49976 3.48015 1.89761 5.43238 0.951511 7.71646C0.00541606 10.0005 -0.242126 12.5139 0.24019 14.9386C0.722505 17.3634 1.91301 19.5907 3.66117 21.3388C5.40933 23.087 7.63661 24.2775 10.0614 24.7598C12.4861 25.2421 14.9995 24.9946 17.2835 24.0485C19.5676 23.1024 21.5199 21.5002 22.8934 19.4446C24.2669 17.389 25 14.9723 25 12.5C25 10.8585 24.6767 9.23303 24.0485 7.71646C23.4203 6.19989 22.4996 4.8219 21.3388 3.66116C20.1781 2.50043 18.8001 1.57969 17.2835 0.951506C15.767 0.323322 14.1415 0 12.5 0V0Z" fill="#E42525"/>
<path d="M12.5001 6.53422C13.6801 6.53422 14.8335 6.88412 15.8146 7.53966C16.7957 8.1952 17.5604 9.12695 18.0119 10.2171C18.4635 11.3072 18.5816 12.5067 18.3514 13.664C18.1212 14.8213 17.553 15.8843 16.7187 16.7187C15.8843 17.553 14.8213 18.1212 13.664 18.3514C12.5068 18.5816 11.3072 18.4635 10.2171 18.0119C9.12695 17.5604 8.19521 16.7957 7.53966 15.8146C6.88412 14.8335 6.53423 13.6801 6.53423 12.5001C6.53423 10.9179 7.16278 9.40042 8.2816 8.2816C9.40043 7.16277 10.9179 6.53422 12.5001 6.53422V6.53422ZM12.5001 5.11377C11.0393 5.11377 9.61117 5.54697 8.39649 6.3586C7.18181 7.17022 6.23508 8.32381 5.67603 9.67349C5.11697 11.0232 4.9707 12.5083 5.2557 13.9411C5.5407 15.374 6.24419 16.6901 7.27719 17.7231C8.31019 18.7561 9.62631 19.4596 11.0591 19.7446C12.4919 20.0296 13.9771 19.8833 15.3268 19.3242C16.6765 18.7652 17.83 17.8185 18.6417 16.6038C19.4533 15.3891 19.8865 13.961 19.8865 12.5001C19.8865 10.5411 19.1083 8.6624 17.7231 7.27719C16.3379 5.89197 14.4591 5.11377 12.5001 5.11377V5.11377Z" fill="#E42525"/>
<path d="M12.4999 14.4885C13.5982 14.4885 14.4885 13.5982 14.4885 12.4999C14.4885 11.4016 13.5982 10.5112 12.4999 10.5112C11.4016 10.5112 10.5112 11.4016 10.5112 12.4999C10.5112 13.5982 11.4016 14.4885 12.4999 14.4885Z" fill="#E42525"/>
</svg>
