<svg width="18" height="25" viewBox="0 0 18 25" fill="none" xmlns="http://www.w3.org/2000/svg">
<path d="M11.1819 2.0126C11.558 2.33804 11.8629 2.73762 12.0775 3.18633C12.2921 3.63504 12.4118 4.12321 12.429 4.6203C12.4623 5.31719 12.2992 6.00943 11.9585 6.61825C11.6178 7.22708 11.113 7.72804 10.5016 8.06416L9.76464 8.5035V11.8056H7.6388V8.5035L6.90184 8.0925C6.29045 7.77865 5.78306 7.29443 5.44101 6.69835C5.09896 6.10228 4.9369 5.41989 4.97442 4.73368C5.01726 3.70639 5.46576 2.73802 6.22157 2.04095V5.79659L6.93019 6.20759L7.99311 6.817L8.70172 7.22799L9.41033 6.817L10.4733 6.20759L11.1819 5.79659V2.0126ZM6.93019 0.000141747C6.8165 0.00344158 6.70504 0.0325172 6.60423 0.0851752C5.73191 0.476226 4.9858 1.10259 4.44961 1.89402C3.91341 2.68544 3.60833 3.61061 3.5686 4.56574C3.52886 5.52087 3.75604 6.46819 4.22465 7.30141C4.69325 8.13464 5.38475 8.82082 6.22157 9.28297V13.1803H11.1819V9.31131C12.0187 8.84916 12.7102 8.16298 13.1788 7.32976C13.6474 6.49653 13.8746 5.54922 13.8348 4.59409C13.7951 3.63895 13.49 2.71378 12.9538 1.92236C12.4176 1.13094 11.6715 0.50457 10.7992 0.11352C10.7074 0.0482663 10.5997 0.00908686 10.4874 0.000141747C10.3932 -0.00174348 10.2995 0.0151929 10.2119 0.049959C10.1243 0.0847251 10.0445 0.136622 9.97717 0.202612C9.90986 0.268601 9.8564 0.347356 9.8199 0.434266C9.78341 0.521176 9.76462 0.614494 9.76464 0.708755V0.708755V4.96043L8.70172 5.66904L7.6388 5.04546V0.793788C7.64862 0.694271 7.63767 0.5938 7.60667 0.498729C7.57566 0.403658 7.52526 0.316055 7.45866 0.241462C7.39206 0.166868 7.3107 0.106906 7.21974 0.0653679C7.12877 0.0238299 7.03018 0.00161971 6.93019 0.000141747V0.000141747Z" fill="#E42525"/>
<path d="M15.9154 16.6674C15.2722 15.0052 14.2705 13.5052 12.9818 12.274C11.8281 11.8656 10.6032 11.6968 9.38203 11.778H7.96481C6.74357 11.6948 5.51829 11.8636 4.36506 12.274C3.06866 13.5016 2.06171 15.0023 1.41723 16.6674L0 17.2201V19.2609L0.779474 20.0404V25.0007H4.81857V23.1866H12.585V25.0007H16.5674V20.0404L17.3468 19.2609V17.2201L15.9154 16.6674ZM5.20122 13.4645C6.12525 13.2219 7.08251 13.131 8.03567 13.1952H9.4529C10.4036 13.1457 11.3566 13.2219 12.2873 13.4219C13.1857 14.263 13.8999 15.2812 14.3848 16.4123H13.1093C13.1093 15.8635 12.8913 15.3372 12.5033 14.9492C12.1153 14.5611 11.589 14.3431 11.0402 14.3431C10.4914 14.3431 9.96512 14.5611 9.57708 14.9492C9.18904 15.3372 8.97104 15.8635 8.97104 16.4123H3.30214C3.73102 15.3122 4.37687 14.3097 5.20122 13.4645V13.4645ZM11.5646 16.4123H10.2607C10.2607 16.2394 10.3294 16.0736 10.4517 15.9513C10.5739 15.829 10.7397 15.7604 10.9126 15.7604C11.0855 15.7604 11.2514 15.829 11.3736 15.9513C11.4959 16.0736 11.5646 16.2394 11.5646 16.4123ZM15.9296 18.6798L15.5611 19.0341L15.1501 19.4451V23.5834H14.0022V21.7694H3.40134V23.5834H2.25339V19.4451L1.87074 19.0341L1.50226 18.6798V18.198L2.02663 17.9854L2.43763 17.8295H15.0368L15.4336 17.9854L15.958 18.198L15.9296 18.6798Z" fill="black"/>
<path d="M5.44215 18.7354H3.92571C3.73891 18.739 3.56078 18.8148 3.42866 18.9469C3.29655 19.079 3.22073 19.2572 3.2171 19.444C3.2171 19.6319 3.29176 19.8121 3.42465 19.945C3.55754 20.0779 3.73778 20.1526 3.92571 20.1526H5.44215C5.63008 20.1526 5.81032 20.0779 5.94321 19.945C6.0761 19.8121 6.15076 19.6319 6.15076 19.444C6.15076 19.256 6.0761 19.0758 5.94321 18.9429C5.81032 18.81 5.63008 18.7354 5.44215 18.7354Z" fill="black"/>
<path d="M13.3788 18.7354H11.8624C11.6756 18.739 11.4974 18.8148 11.3653 18.9469C11.2332 19.079 11.1574 19.2572 11.1537 19.444C11.1537 19.6319 11.2284 19.8121 11.3613 19.945C11.4942 20.0779 11.6744 20.1526 11.8624 20.1526H13.3788C13.5667 20.1526 13.747 20.0779 13.8799 19.945C14.0127 19.8121 14.0874 19.6319 14.0874 19.444C14.0874 19.3509 14.0691 19.2588 14.0335 19.1728C13.9979 19.0868 13.9457 19.0087 13.8799 18.9429C13.8141 18.8771 13.7359 18.8249 13.65 18.7893C13.564 18.7537 13.4718 18.7354 13.3788 18.7354Z" fill="black"/>
</svg>
