<svg width="30" height="12" viewBox="0 0 30 12" fill="none" xmlns="http://www.w3.org/2000/svg">
<path d="M23.6029 11.2203C23.047 11.2449 22.4958 11.1072 22.0168 10.8239C21.5377 10.5407 21.1514 10.1242 20.905 9.62524H8.90837C8.76419 9.91777 8.5688 10.1821 8.33145 10.4058C8.00917 10.6974 7.6307 10.92 7.21928 11.0601C6.80786 11.2001 6.37216 11.2546 5.93891 11.2203C5.39715 11.2284 4.86417 11.0829 4.4017 10.8006C3.93922 10.5184 3.56618 10.1108 3.32579 9.62524L0 9.35375V2.99063L3.56335 2.7361L4.24208 2.34583C5.56628 1.50268 6.99156 0.829943 8.48416 0.34357C11.527 -0.114523 14.6212 -0.114523 17.664 0.34357C19.1111 0.910151 20.4662 1.68781 21.6855 2.65126V2.65126L23.3824 3.0585L26.3009 3.77117C27.4847 3.99684 28.6284 4.39713 29.6946 4.95895L30 5.21348V9.76099H26.3518C26.0877 10.2474 25.6861 10.6452 25.1972 10.9047C24.7083 11.1643 24.1538 11.274 23.6029 11.2203V11.2203ZM8.21267 7.8266H22.0419L22.3643 8.77683C22.3643 8.87864 22.6527 9.40466 23.569 9.42162C23.8454 9.43937 24.1196 9.36132 24.3452 9.2006C24.5708 9.03989 24.7341 8.80633 24.8077 8.53927L24.9604 7.84357L28.1674 7.92841V6.12977C27.4216 5.83846 26.6561 5.60031 25.8767 5.4171C25.2998 5.29832 23.9932 4.95895 22.9242 4.70443L21.414 4.33113H21.0747L20.7692 4.17841C19.672 3.29792 18.455 2.57804 17.155 2.0404C14.391 1.65857 11.5876 1.65857 8.82353 2.0404C7.51352 2.48561 6.26054 3.08362 5.0905 3.82208C4.64932 4.0766 4.30995 4.28022 4.14027 4.34809H3.85181L1.69683 4.56868V7.75873L4.59842 7.94538L4.71719 8.60714C4.7814 8.87037 4.93886 9.10139 5.16038 9.2574C5.38191 9.4134 5.65248 9.4838 5.92195 9.45556C7.24547 9.45556 7.36425 8.69199 7.36425 8.67502V7.91144L8.21267 7.8266Z" fill="black"/>
</svg>
