<svg width="25" height="24" viewBox="0 0 25 24" fill="none" xmlns="http://www.w3.org/2000/svg">
<path d="M16.2673 12.6555C15.2667 12.3019 14.2047 12.1555 13.1457 12.2249H11.9617C10.8805 12.1493 9.79529 12.2958 8.77288 12.6555C7.65184 13.7272 6.77923 15.0315 6.21643 16.4767L4.97858 16.9611V18.7371L5.65133 19.4099V23.7289H9.17653V22.1547H15.904V23.7289H19.3619V19.4099L20.0482 18.7371V16.9611L18.8103 16.4767C18.2538 15.0316 17.3855 13.7269 16.2673 12.6555V12.6555ZM9.53981 13.6915C10.3314 13.4967 11.1482 13.4241 11.9617 13.4763H13.1457C13.954 13.4353 14.7641 13.5032 15.5542 13.6781C16.3427 14.403 16.9667 15.2885 17.3841 16.2749H16.2673C16.2602 15.805 16.0686 15.3567 15.7337 15.0269C15.3989 14.6971 14.9478 14.5122 14.4778 14.5123C14.0098 14.5154 13.5611 14.6991 13.2252 15.025C12.8893 15.3508 12.6921 15.7938 12.6748 16.2614H7.72339C8.13043 15.2907 8.73531 14.4155 9.49945 13.6915H9.53981ZM15.0833 16.2614H13.9396C13.9606 16.1248 14.0298 16.0003 14.1347 15.9103C14.2396 15.8203 14.3732 15.7708 14.5114 15.7708C14.6496 15.7708 14.7833 15.8203 14.8882 15.9103C14.993 16.0003 15.0623 16.1248 15.0833 16.2614V16.2614ZM18.8776 18.2259L18.5681 18.5353L18.1914 18.8582V22.4911H17.1957V20.9169H7.93867V22.4911H6.943V18.8582L6.57972 18.495L6.2568 18.1855V17.7684L6.71427 17.5935L7.0641 17.4589H18.0299L18.3932 17.5935L18.8372 17.7684L18.8776 18.2259Z" fill="black"/>
<path d="M9.71485 18.2798H8.36936C8.20628 18.2832 8.05084 18.3495 7.93551 18.4649C7.82017 18.5802 7.75386 18.7356 7.75043 18.8987C7.75043 18.98 7.76644 19.0605 7.79754 19.1356C7.82864 19.2107 7.87424 19.2789 7.93171 19.3364C7.98918 19.3938 8.05741 19.4394 8.1325 19.4705C8.20759 19.5016 8.28808 19.5176 8.36936 19.5176H9.71485C9.79964 19.5178 9.88357 19.5006 9.96142 19.467C10.0393 19.4334 10.1094 19.3842 10.1674 19.3223C10.2255 19.2605 10.2702 19.1874 10.2988 19.1076C10.3274 19.0278 10.3393 18.943 10.3338 18.8583C10.3205 18.7024 10.2499 18.557 10.1355 18.4501C10.0212 18.3432 9.87132 18.2825 9.71485 18.2798V18.2798Z" fill="black"/>
<path d="M16.6173 18.2798H15.2718C15.11 18.2833 14.956 18.3501 14.8428 18.4658C14.7296 18.5814 14.6662 18.7369 14.6663 18.8987C14.6645 18.9794 14.6788 19.0595 14.7085 19.1346C14.7381 19.2096 14.7824 19.2779 14.8388 19.3356C14.8952 19.3932 14.9626 19.439 15.0369 19.4703C15.1113 19.5016 15.1911 19.5177 15.2718 19.5176H16.6173C16.699 19.5195 16.7803 19.5047 16.8563 19.4743C16.9322 19.4438 17.0012 19.3983 17.059 19.3405C17.1168 19.2826 17.1624 19.2136 17.1928 19.1377C17.2233 19.0618 17.238 18.9805 17.2362 18.8987C17.2362 18.7346 17.171 18.5771 17.0549 18.4611C16.9388 18.345 16.7814 18.2798 16.6173 18.2798V18.2798Z" fill="black"/>
<path d="M18.8372 4.27344C18.271 2.82281 17.3938 1.51388 16.2673 0.438775C15.2658 0.0897847 14.2038 -0.0521192 13.1457 0.0216713H11.9617C10.8814 -0.0583131 9.79623 0.0836339 8.77288 0.438775C7.65388 1.51744 6.78174 2.82564 6.21643 4.27344L4.97858 4.75782V6.53388L5.65133 7.20663V11.5122H9.17653V9.93799H15.904V11.5122H19.3619V7.20663L20.0482 6.53388V4.75782L18.8372 4.27344ZM9.49945 1.47481C10.3047 1.27937 11.1342 1.20232 11.9617 1.24607H13.1457C13.9359 1.21807 14.7265 1.28584 15.5004 1.4479C16.3052 2.17548 16.9472 3.06502 17.3841 4.05816H16.2673C16.2638 3.58589 16.0736 3.13417 15.7384 2.80148C15.4032 2.46878 14.9501 2.28209 14.4778 2.28211C14.0053 2.28549 13.5527 2.47286 13.2161 2.80446C12.8795 3.13605 12.6853 3.58577 12.6748 4.05816H7.72339C8.13391 3.08541 8.73821 2.20644 9.49945 1.47481V1.47481ZM15.0429 4.05816H13.8992C13.9202 3.92157 13.9895 3.79701 14.0943 3.70703C14.1992 3.61704 14.3329 3.56757 14.4711 3.56757C14.6093 3.56757 14.7429 3.61704 14.8478 3.70703C14.9527 3.79701 15.0219 3.92157 15.0429 4.05816V4.05816ZM18.8372 6.02259L18.5277 6.33206L18.1914 6.74916V10.2878H17.1957V8.71359H7.93867V10.2878H6.943V6.74916L6.57972 6.38588L6.2568 6.07641V5.60549L6.71427 5.40366L7.0641 5.25566H18.0299L18.3932 5.40366L18.8372 5.57858V6.02259Z" fill="black"/>
<path d="M9.71493 6.07569H8.36943C8.2857 6.07901 8.20353 6.09929 8.12787 6.13532C8.05222 6.17134 7.98467 6.22235 7.92931 6.28525C7.87396 6.34815 7.83195 6.42164 7.80584 6.50126C7.77973 6.58088 7.77006 6.66497 7.77741 6.74844C7.78085 6.91151 7.84716 7.06695 7.96249 7.18229C8.07783 7.29762 8.23327 7.36393 8.39634 7.36737H9.74184C9.90017 7.35727 10.0489 7.28803 10.1586 7.17338C10.2682 7.05874 10.3308 6.90706 10.3339 6.74844C10.3413 6.66275 10.3309 6.57644 10.3031 6.49502C10.2754 6.41361 10.231 6.33886 10.1728 6.27556C10.1145 6.21226 10.0437 6.1618 9.96491 6.12738C9.88608 6.09297 9.80094 6.07536 9.71493 6.07569V6.07569Z" fill="black"/>
<path d="M16.6173 6.07593H15.2718C15.1886 6.07911 15.1069 6.09942 15.0319 6.13559C14.9569 6.17177 14.8902 6.22303 14.8359 6.28617C14.7816 6.34931 14.7409 6.42297 14.7163 6.50255C14.6918 6.58213 14.6839 6.66592 14.6933 6.74868C14.6932 6.91052 14.7566 7.06594 14.8698 7.18164C14.9829 7.29733 15.1369 7.36409 15.2987 7.36761H16.6442C16.8037 7.36067 16.9543 7.29241 17.0646 7.17708C17.1749 7.06175 17.2364 6.90827 17.2362 6.74868C17.2459 6.66256 17.237 6.57536 17.21 6.49299C17.1831 6.41062 17.1388 6.33499 17.0801 6.27122C17.0215 6.20744 16.9498 6.157 16.8699 6.12331C16.7901 6.08962 16.7039 6.07346 16.6173 6.07593V6.07593Z" fill="black"/>
<path d="M23.3043 18.2393L22.1472 17.5127C23.1513 15.8012 23.6807 13.8528 23.6807 11.8684C23.6807 9.88401 23.1513 7.93557 22.1472 6.22402L23.3177 5.55127C24.431 7.47539 25.0115 9.66132 24.9997 11.8842C24.9879 14.1071 24.3841 16.2868 23.2505 18.1989L23.3043 18.2393Z" fill="#E42525"/>
<path fill-rule="evenodd" clip-rule="evenodd" d="M22.8606 17.6475L24.3003 18.5086L23.1028 18.8585L21.9187 19.1948L21.6631 17.9839L21.4209 16.7729L22.8606 17.6475Z" fill="#E42525"/>
<path d="M1.70917 18.32C0.589807 16.4005 0 14.2183 0 11.9962C0 9.77414 0.589807 7.59189 1.70917 5.67236L2.8663 6.35857C1.87021 8.07287 1.34552 10.0202 1.34552 12.0029C1.34552 13.9856 1.87021 15.933 2.8663 17.6473L1.70917 18.32Z" fill="#E42525"/>
<path fill-rule="evenodd" clip-rule="evenodd" d="M2.22051 6.26461L0.780823 5.40349L1.96486 5.05366L3.16235 4.71729L3.40454 5.92823L3.66019 7.13918L2.22051 6.26461Z" fill="#E42525"/>
</svg>
