<svg width="25" height="20" viewBox="0 0 25 20" fill="none" xmlns="http://www.w3.org/2000/svg">
<path d="M18.8786 7.23441H17.4517C17.4706 7.05536 17.4517 6.87432 17.3962 6.70305C17.3406 6.53178 17.2497 6.3741 17.1293 6.24025C17.0088 6.1064 16.8616 5.99937 16.6971 5.9261C16.5327 5.85284 16.3546 5.81498 16.1746 5.81498C15.9945 5.81498 15.8165 5.85284 15.652 5.9261C15.4875 5.99937 15.3403 6.1064 15.2199 6.24025C15.0994 6.3741 15.0085 6.53178 14.953 6.70305C14.8974 6.87432 14.8785 7.05536 14.8975 7.23441H13.4705C13.4435 6.86279 13.4934 6.48959 13.617 6.13811C13.7407 5.78663 13.9355 5.4644 14.1892 5.19155C14.4429 4.9187 14.7502 4.70108 15.0918 4.55227C15.4334 4.40346 15.802 4.32666 16.1746 4.32666C16.5472 4.32666 16.9158 4.40346 17.2574 4.55227C17.599 4.70108 17.9062 4.9187 18.1599 5.19155C18.4137 5.4644 18.6085 5.78663 18.7321 6.13811C18.8558 6.48959 18.9056 6.86279 18.8786 7.23441V7.23441Z" fill="#E42525"/>
<path d="M13.5417 1.42694C15.0221 1.32175 16.5095 1.47629 17.9366 1.88356C19.6204 3.06792 21.2329 6.44977 21.718 7.59132L21.9463 8.1621L22.5314 8.39041L23.6872 8.93265V10.3596L22.9737 11.0731L22.5457 11.4869V17.7797H19.6918V15.1541H5.47945V17.7797H2.62557V11.4155L2.19749 11.0017L1.42694 10.3596V8.93265L2.58276 8.47603L3.16781 8.24772L3.39612 7.67694C3.88128 6.47831 5.49372 3.11073 7.16324 1.96918C8.59226 1.54608 10.0863 1.38652 11.5725 1.49829H13.5417V1.42694ZM13.5417 0.071347H11.5725C10.0599 0.071347 7.29167 0.171233 6.34989 0.799087C3.95263 2.48288 2.06906 7.19178 2.06906 7.19178L0 7.91952V10.8876L1.14155 12.0148V19.1495H6.84931V16.581H18.1507V19.2066H23.8584V12.0719L25 10.9446V7.91952L22.9309 7.12043C22.9309 7.12043 21.0474 2.41153 18.6501 0.72774C17.7511 0.0998858 14.9401 0 13.4275 0L13.5417 0.071347Z" fill="black"/>
<path d="M22.8594 7.06348H2.25439V8.49042H22.8594V7.06348Z" fill="black"/>
<path d="M6.34989 11.4587H4.79453C4.60644 11.455 4.42709 11.3787 4.29407 11.2457C4.16105 11.1126 4.08471 10.9333 4.08105 10.7452C4.08105 10.556 4.15622 10.3745 4.29003 10.2407C4.42383 10.1069 4.6053 10.0317 4.79453 10.0317H6.34989C6.53911 10.0317 6.72059 10.1069 6.85439 10.2407C6.98819 10.3745 7.06336 10.556 7.06336 10.7452C7.06336 10.9344 6.98819 11.1159 6.85439 11.2497C6.72059 11.3835 6.53911 11.4587 6.34989 11.4587Z" fill="#E42525"/>
<path d="M20.4624 11.4587H18.9071C18.719 11.455 18.5396 11.3787 18.4066 11.2457C18.2736 11.1126 18.1973 10.9333 18.1936 10.7452C18.1936 10.556 18.2688 10.3745 18.4026 10.2407C18.5364 10.1069 18.7178 10.0317 18.9071 10.0317H20.4624C20.6517 10.0317 20.8331 10.1069 20.9669 10.2407C21.1007 10.3745 21.1759 10.556 21.1759 10.7452C21.1759 10.9344 21.1007 11.1159 20.9669 11.2497C20.8331 11.3835 20.6517 11.4587 20.4624 11.4587Z" fill="#E42525"/>
</svg>
