<svg width="25" height="24" viewBox="0 0 25 24" fill="none" xmlns="http://www.w3.org/2000/svg">
<path d="M13.0474 7.83476V19.2049L14.2271 19.4038C15.9326 19.7023 16.6574 20.3134 16.7143 20.484V20.6261V20.7825C16.5864 21.1236 15.1225 22.0332 12.5215 22.0332C9.92063 22.0332 8.5278 21.1378 8.37146 20.8251V20.6261V20.484C8.37146 20.285 9.16736 19.6739 10.8729 19.3754L12.0383 19.2049V7.83476H13.0474ZM14.4687 6.69775H10.6171V17.9684C8.5278 18.3379 7.02126 19.2049 6.9502 20.3561V20.9246C7.10653 22.3316 9.50847 23.4686 12.5358 23.4686C15.563 23.4686 18.036 22.3316 18.1355 20.9246V20.3561C18.1355 19.2617 16.5579 18.3379 14.4687 17.9684V6.69775Z" fill="#E42525"/>
<path d="M19.8124 9.39817C19.345 9.41798 18.8818 9.30246 18.4784 9.06548C18.075 8.82849 17.7486 8.48012 17.5384 8.06219H7.49005C7.3791 8.31305 7.21409 8.5363 7.00682 8.71597C6.73688 8.96019 6.41988 9.14668 6.07527 9.26399C5.73067 9.38131 5.36573 9.42697 5.00284 9.39817C4.54703 9.39796 4.10091 9.2665 3.71782 9.0195C3.33473 8.77251 3.03085 8.42043 2.84252 8.00534L0 7.83478V2.50505L3.01308 2.29186L3.59579 1.96497C4.69099 1.26091 5.87042 0.697451 7.10631 0.287883C9.65971 -0.0959609 12.2561 -0.0959609 14.8096 0.287883C16.0192 0.758289 17.1502 1.41006 18.1637 2.2208V2.2208L19.5139 2.54769L21.9869 3.15883C22.9501 3.3525 23.8793 3.68777 24.7442 4.15372L25 4.3669V8.17589H21.9301C21.7249 8.55576 21.4183 8.87118 21.0444 9.087C20.6705 9.30282 20.2439 9.41055 19.8124 9.39817V9.39817ZM6.90733 6.55565H18.5048L18.7607 7.35156C18.7607 7.43683 19.0023 7.87742 19.784 7.89163C20.0145 7.90133 20.2416 7.83392 20.4295 7.70008C20.6174 7.56623 20.7553 7.37358 20.8215 7.15258L20.9494 6.58407H23.6214V5.13439C23.0017 4.88998 22.3652 4.69049 21.7169 4.53746C21.2194 4.43797 20.1109 4.15372 19.2155 3.92631L17.979 3.571H17.6947L17.4247 3.44308C16.5099 2.69945 15.4896 2.09592 14.3974 1.65229C12.087 1.33252 9.74358 1.33252 7.4332 1.65229C6.31857 2.04006 5.25449 2.56017 4.26379 3.20147L3.45367 3.64206H3.21205L1.42126 3.82683V6.4988L3.85162 6.65514L3.9369 7.20943C3.99585 7.42695 4.12897 7.61704 4.31324 7.7468C4.4975 7.87656 4.72132 7.93785 4.94599 7.92006C6.06879 7.92006 6.15406 7.28049 6.15406 7.26628V6.62671L6.90733 6.55565Z" fill="black"/>
</svg>
