<svg width="25" height="25" viewBox="0 0 25 25" fill="none" xmlns="http://www.w3.org/2000/svg">
<path d="M19.1662 16.9101C18.5417 15.2964 17.5692 13.8401 16.3181 12.6448C15.198 12.2483 14.0088 12.0845 12.8233 12.1633H11.4474C10.2619 12.0845 9.07269 12.2483 7.95263 12.6448C6.70147 13.8401 5.72905 15.2964 5.10453 16.9101L3.72864 17.4467V19.428L4.48538 20.1847V25.0004H8.39292V23.2392H15.9328V25.0004H19.7991V20.1847L20.5558 19.428V17.4467L19.1662 16.9101ZM8.76441 13.8006C9.66106 13.5627 10.5908 13.4744 11.5162 13.5392H12.8921C13.815 13.4924 14.7401 13.5664 15.6439 13.7593C16.5161 14.5758 17.2094 15.5644 17.6802 16.6624H16.4419C16.4001 16.1566 16.1696 15.685 15.7962 15.3412C15.4228 14.9974 14.9338 14.8066 14.4262 14.8066C13.9187 14.8066 13.4296 14.9974 13.0562 15.3412C12.6828 15.685 12.4524 16.1566 12.4105 16.6624H6.90695C7.32258 15.5908 7.95493 14.6166 8.76441 13.8006V13.8006ZM14.9422 16.6624H13.6764C13.6868 16.5018 13.7581 16.3513 13.8757 16.2414C13.9933 16.1315 14.1483 16.0705 14.3093 16.0708C14.4693 16.0736 14.6225 16.1357 14.7394 16.245C14.8563 16.3542 14.9286 16.503 14.9422 16.6624V16.6624ZM19.1799 18.8639L18.8222 19.2078L18.4232 19.6069V23.6245H17.3087V21.8633H7.01702V23.6245H5.90255V19.6069L5.55858 19.2078L5.20084 18.8639V18.3961L5.70993 18.1897L6.09518 18.0383H18.3269L18.7259 18.1897L19.235 18.3961L19.1799 18.8639Z" fill="black"/>
<path d="M8.99829 18.9185H7.52608C7.34473 18.922 7.17179 18.9956 7.04353 19.1238C6.91527 19.2521 6.84166 19.4251 6.83813 19.6064C6.83813 19.7889 6.91061 19.9638 7.03963 20.0929C7.16865 20.2219 7.34363 20.2944 7.52608 20.2944H8.99829C9.18074 20.2944 9.35573 20.2219 9.48474 20.0929C9.61376 19.9638 9.68624 19.7889 9.68624 19.6064C9.68624 19.4239 9.61376 19.249 9.48474 19.12C9.35573 18.9909 9.18074 18.9185 8.99829 18.9185Z" fill="black"/>
<path d="M16.7034 18.9185H15.1899C15.0085 18.922 14.8356 18.9956 14.7073 19.1238C14.5791 19.2521 14.5055 19.4251 14.502 19.6064C14.502 19.7889 14.5744 19.9638 14.7034 20.0929C14.8325 20.2219 15.0074 20.2944 15.1899 20.2944H16.7034C16.8858 20.2944 17.0608 20.2219 17.1898 20.0929C17.3189 19.9638 17.3913 19.7889 17.3913 19.6064C17.3913 19.4239 17.3189 19.249 17.1898 19.12C17.0608 18.9909 16.8858 18.9185 16.7034 18.9185Z" fill="black"/>
<path d="M6.63181 13.415L0 8.9158L7.01706 9.0809L4.63676 2.49037L10.2091 6.74188L12.1629 0L14.1717 6.71436L19.7028 2.42157L17.3775 9.03963L24.3808 8.80572L17.7903 13.3599L17.0061 12.2317L19.7578 10.333L15.41 10.4706L16.8547 6.37039L13.4287 9.03963L12.1767 4.87067L10.9659 9.05339L7.51238 6.41167L8.98459 10.4981L4.65052 10.4018L7.41607 12.273L6.63181 13.415Z" fill="#E42525"/>
</svg>
