<svg width="25" height="25" viewBox="0 0 25 25" fill="none" xmlns="http://www.w3.org/2000/svg">
<path d="M16.7894 9.82997H15.369C15.3709 9.74297 15.3554 9.65647 15.3234 9.57555C15.2914 9.49463 15.2436 9.42091 15.1827 9.35873C15.1218 9.29654 15.0492 9.24713 14.969 9.21341C14.8887 9.17969 14.8026 9.16233 14.7156 9.16235C14.5385 9.16235 14.3687 9.23269 14.2435 9.35789C14.1183 9.48309 14.048 9.6529 14.048 9.82997H12.6275C12.6037 9.54224 12.6399 9.2527 12.7336 8.97964C12.8274 8.70659 12.9768 8.45595 13.1724 8.24355C13.3679 8.03116 13.6054 7.86162 13.8698 7.74566C14.1342 7.6297 14.4198 7.56982 14.7085 7.56982C14.9972 7.56982 15.2828 7.6297 15.5472 7.74566C15.8116 7.86162 16.049 8.03116 16.2446 8.24355C16.4402 8.45595 16.5895 8.70659 16.6833 8.97964C16.7771 9.2527 16.8132 9.54224 16.7894 9.82997V9.82997Z" fill="#E42525"/>
<path d="M13.1818 6.54874C14.1346 6.50043 15.0896 6.57683 16.0227 6.77601C17.1017 7.84322 17.9354 9.13255 18.4659 10.5544L18.7073 11.1368L19.2755 11.3499L19.8011 11.5629V12.0459L19.4318 12.401L19.0198 12.8129V16.9607H17.8693V15.1425H7.18745V16.9607H6.03688V12.7845L5.68177 12.401L5.25563 12.0459V11.5629L5.7812 11.3641L6.34938 11.151L6.59086 10.5686C7.11047 9.15975 7.92949 7.88034 8.99142 6.81862C9.91711 6.57304 10.877 6.48186 11.8323 6.54874H13.2528H13.1818ZM13.2528 5.12828H11.8323C10.5998 5.06317 9.36694 5.25172 8.21018 5.68226C6.91849 6.91625 5.91458 8.41969 5.26983 10.0857L3.84938 10.6396V12.6283L4.63063 13.4095V18.3811H8.6079V16.5629H16.392V18.3811H20.3835V13.4095L21.1647 12.6283V10.5828L19.7443 10.0289C19.0881 8.38192 18.0797 6.89841 16.7897 5.68226C15.6334 5.27294 14.4057 5.10377 13.1818 5.1851L13.2528 5.12828Z" fill="#E42525"/>
<path d="M19.6162 9.77246H5.39745V11.1929H19.6162V9.77246Z" fill="#E42525"/>
<path d="M9.2332 13.522H7.71331C7.52495 13.522 7.3443 13.4472 7.2111 13.314C7.07791 13.1808 7.00308 13.0002 7.00308 12.8118C7.00672 12.6246 7.08271 12.446 7.21513 12.3136C7.34754 12.1812 7.52608 12.1052 7.71331 12.1016H9.2332C9.41674 12.1014 9.59321 12.1723 9.72562 12.2994C9.85802 12.4266 9.93608 12.6 9.94342 12.7834C9.94725 12.879 9.93171 12.9744 9.89774 13.0639C9.86376 13.1534 9.81205 13.2351 9.74572 13.3041C9.67938 13.373 9.59979 13.4279 9.51171 13.4654C9.42364 13.5028 9.3289 13.5221 9.2332 13.522Z" fill="#E42525"/>
<path d="M17.1875 13.522H15.625C15.4366 13.522 15.256 13.4472 15.1228 13.314C14.9896 13.1808 14.9148 13.0002 14.9148 12.8118C14.9184 12.6246 14.9944 12.446 15.1268 12.3136C15.2592 12.1812 15.4378 12.1052 15.625 12.1016H17.1875C17.3759 12.1016 17.5565 12.1764 17.6897 12.3096C17.8229 12.4428 17.8977 12.6234 17.8977 12.8118C17.8977 13.0002 17.8229 13.1808 17.6897 13.314C17.5565 13.4472 17.3759 13.522 17.1875 13.522Z" fill="#E42525"/>
<path d="M12.5 1.42045C14.6913 1.42045 16.8334 2.07026 18.6555 3.28769C20.4775 4.50513 21.8976 6.23552 22.7362 8.26004C23.5748 10.2846 23.7942 12.5123 23.3667 14.6615C22.9391 16.8107 21.8839 18.7849 20.3344 20.3344C18.7849 21.8839 16.8107 22.9391 14.6615 23.3666C12.5123 23.7942 10.2846 23.5747 8.26005 22.7362C6.23552 21.8976 4.50514 20.4775 3.2877 18.6555C2.07026 16.8334 1.42046 14.6913 1.42046 12.5C1.42422 9.56267 2.59273 6.74673 4.66973 4.66973C6.74674 2.59273 9.56268 1.42421 12.5 1.42045V1.42045ZM12.5 0C10.0277 0 7.61099 0.733112 5.55538 2.10663C3.49976 3.48015 1.89761 5.43238 0.951511 7.71646C0.00541606 10.0005 -0.242126 12.5139 0.24019 14.9386C0.722505 17.3634 1.91301 19.5907 3.66117 21.3388C5.40933 23.087 7.63661 24.2775 10.0614 24.7598C12.4861 25.2421 14.9995 24.9946 17.2835 24.0485C19.5676 23.1024 21.5199 21.5002 22.8934 19.4446C24.2669 17.389 25 14.9723 25 12.5C25 10.8585 24.6767 9.23303 24.0485 7.71646C23.4203 6.19989 22.4996 4.8219 21.3388 3.66116C20.1781 2.50043 18.8001 1.57969 17.2835 0.951506C15.767 0.323322 14.1415 0 12.5 0V0Z" fill="black"/>
</svg>
