<svg width="25" height="20" viewBox="0 0 25 20" fill="none" xmlns="http://www.w3.org/2000/svg">
<path d="M9.43795 9.2334H10.5005V10.8681C10.5005 10.9569 10.5182 11.0448 10.5526 11.1267C10.587 11.2086 10.6374 11.2828 10.7008 11.345C10.7642 11.4071 10.8394 11.456 10.922 11.4887C11.0046 11.5215 11.0928 11.5374 11.1816 11.5356C11.3623 11.5356 11.5355 11.4638 11.6632 11.3361C11.791 11.2084 11.8627 11.0351 11.8627 10.8545V9.2334H13.9333V10.8681C13.9403 11.0452 14.0147 11.2131 14.1413 11.3372C14.2679 11.4613 14.4372 11.5322 14.6145 11.5356V11.5356C14.7033 11.5356 14.7912 11.5179 14.8731 11.4835C14.955 11.4491 15.0292 11.3987 15.0913 11.3353C15.1535 11.2719 15.2024 11.1967 15.2351 11.1141C15.2678 11.0315 15.2838 10.9433 15.282 10.8545V9.15166H17.3662V10.8545C17.3662 11.0351 17.4379 11.2084 17.5657 11.3361C17.6934 11.4638 17.8667 11.5356 18.0473 11.5356C18.2279 11.5356 18.4012 11.4638 18.5289 11.3361C18.6567 11.2084 18.7284 11.0351 18.7284 10.8545V9.13804H19.7773C19.958 9.13804 20.1312 9.06628 20.259 8.93855C20.3867 8.81081 20.4585 8.63757 20.4585 8.45692C20.4585 8.27628 20.3867 8.10303 20.259 7.9753C20.1312 7.84757 19.958 7.77581 19.7773 7.77581H18.7148V6.10025C18.7148 6.01144 18.6971 5.92351 18.6627 5.84163C18.6283 5.75974 18.5779 5.68554 18.5145 5.62338C18.4511 5.56121 18.3759 5.51233 18.2933 5.4796C18.2107 5.44687 18.1225 5.43094 18.0337 5.43276V5.43276C17.853 5.43276 17.6798 5.50452 17.5521 5.63225C17.4243 5.75999 17.3526 5.93323 17.3526 6.11388V7.78943H15.2956V6.10025C15.292 5.92198 15.2187 5.75221 15.0913 5.62741C14.964 5.50261 14.7928 5.43272 14.6145 5.43276C14.4338 5.43276 14.2606 5.50452 14.1328 5.63225C14.0051 5.75999 13.9333 5.93323 13.9333 6.11388V7.78943H11.8491V6.11388C11.8491 5.93323 11.7774 5.75999 11.6496 5.63225C11.5219 5.50452 11.3486 5.43276 11.168 5.43276C10.9884 5.43624 10.8172 5.50912 10.6902 5.63611C10.5632 5.7631 10.4904 5.93432 10.4869 6.11388V7.87116H9.43795C9.25731 7.87116 9.08407 7.94292 8.95633 8.07066C8.8286 8.19839 8.75684 8.37164 8.75684 8.55228C8.75684 8.73292 8.8286 8.90617 8.95633 9.03391C9.08407 9.16164 9.25731 9.2334 9.43795 9.2334V9.2334Z" fill="#E42525"/>
<path d="M20.5263 13.6878C20.6627 13.6879 20.796 13.6462 20.908 13.5683C21.0201 13.4903 21.1055 13.3799 21.1529 13.2519V13.2519L24.9535 4.32924C25.0177 4.16266 25.0153 3.97776 24.9469 3.8129C24.8784 3.64803 24.749 3.51586 24.5857 3.44379H24.4904C24.3959 3.42507 24.2987 3.42507 24.2043 3.44379H5.13296L4.08404 1.05987C4.05886 0.924649 3.99332 0.800219 3.89606 0.702958C3.7988 0.605697 3.67437 0.540161 3.53914 0.514977L0.814669 0.0109491C0.634025 -0.0215668 0.447863 0.0190096 0.297136 0.123752C0.14641 0.228494 0.043465 0.388823 0.0109491 0.569467C-0.0215668 0.750111 0.0190096 0.936273 0.123752 1.087C0.228494 1.23773 0.388823 1.34067 0.569467 1.37319L2.93976 1.8091L8.85187 16.0445C8.90109 16.1481 8.97615 16.2372 9.06983 16.3033V16.3033C9.19584 16.4212 9.36053 16.489 9.53299 16.494H10.1324C10.0388 16.7183 9.99248 16.9594 9.99615 17.2024C10.0368 17.6856 10.2575 18.136 10.6145 18.4642C10.9715 18.7924 11.4388 18.9746 11.9237 18.9746C12.4087 18.9746 12.8759 18.7924 13.2329 18.4642C13.5899 18.136 13.8106 17.6856 13.8513 17.2024C13.8494 16.9599 13.8033 16.7199 13.7151 16.494H17.4476C17.3592 16.7246 17.3131 16.9691 17.3114 17.216C17.3051 17.5054 17.3639 17.7925 17.4834 18.0562C17.6029 18.3199 17.7801 18.5533 18.0018 18.7394C18.2236 18.9255 18.4843 19.0594 18.7647 19.1314C19.0451 19.2033 19.338 19.2114 19.622 19.155C19.9059 19.0986 20.1736 18.9792 20.4052 18.8057C20.6369 18.6321 20.8266 18.4087 20.9605 18.152C21.0943 17.8954 21.1689 17.6119 21.1786 17.3226C21.1883 17.0333 21.133 16.7455 21.0167 16.4804H21.2346C21.4153 16.4804 21.5885 16.4086 21.7162 16.2809C21.844 16.1532 21.9157 15.9799 21.9157 15.7993C21.9157 15.6186 21.844 15.4454 21.7162 15.3177C21.5885 15.1899 21.4153 15.1182 21.2346 15.1182L9.96891 15.1999L9.3559 13.7287L20.5263 13.6878ZM11.9578 17.7745C11.8096 17.7745 11.6676 17.7157 11.5628 17.6109C11.4581 17.5062 11.3993 17.3641 11.3993 17.216C11.3974 17.1415 11.4105 17.0674 11.4378 16.9981C11.4651 16.9287 11.5059 16.8656 11.5579 16.8122C11.61 16.7589 11.6722 16.7166 11.7408 16.6877C11.8095 16.6587 11.8833 16.6438 11.9578 16.6439C12.1095 16.6439 12.255 16.7042 12.3623 16.8114C12.4696 16.9187 12.5299 17.0643 12.5299 17.216C12.5357 17.2939 12.525 17.3721 12.4987 17.4456C12.4723 17.5191 12.4308 17.5862 12.3769 17.6427C12.323 17.6992 12.2578 17.7438 12.1857 17.7735C12.1135 17.8032 12.0358 17.8175 11.9578 17.8154V17.7745ZM19.2866 17.7745C19.2121 17.7763 19.138 17.7632 19.0687 17.736C18.9994 17.7087 18.9362 17.6679 18.8828 17.6158C18.8295 17.5638 18.7872 17.5016 18.7583 17.4329C18.7293 17.3643 18.7145 17.2905 18.7145 17.216C18.7145 17.0643 18.7748 16.9187 18.8821 16.8114C18.9893 16.7042 19.1349 16.6439 19.2866 16.6439C19.3611 16.6438 19.4349 16.6587 19.5035 16.6877C19.5722 16.7166 19.6344 16.7589 19.6864 16.8122C19.7385 16.8656 19.7793 16.9287 19.8066 16.9981C19.8338 17.0674 19.8469 17.1415 19.8451 17.216C19.8508 17.2927 19.8405 17.3698 19.8149 17.4423C19.7894 17.5149 19.7492 17.5814 19.6967 17.6376C19.6443 17.6939 19.5808 17.7387 19.5102 17.7693C19.4397 17.7999 19.3635 17.8156 19.2866 17.8154V17.7745ZM23.2371 4.68342L20.0767 12.2847H8.79738L5.63699 4.75154L23.2371 4.68342Z" fill="black"/>
</svg>
