<svg width="25" height="25" viewBox="0 0 25 25" fill="none" xmlns="http://www.w3.org/2000/svg">
<path d="M20.8198 14.7358C21.2389 14.7358 21.5786 14.3961 21.5786 13.977C21.5786 13.558 21.2389 13.2183 20.8198 13.2183C20.4007 13.2183 20.061 13.558 20.061 13.977C20.061 14.3961 20.4007 14.7358 20.8198 14.7358Z" fill="#E42525"/>
<path d="M16.6535 14.7358C17.0726 14.7358 17.4123 14.3961 17.4123 13.977C17.4123 13.558 17.0726 13.2183 16.6535 13.2183C16.2345 13.2183 15.8948 13.558 15.8948 13.977C15.8948 14.3961 16.2345 14.7358 16.6535 14.7358Z" fill="#E42525"/>
<path d="M12.7932 14.7358C13.2122 14.7358 13.552 14.3961 13.552 13.977C13.552 13.558 13.2122 13.2183 12.7932 13.2183C12.3741 13.2183 12.0344 13.558 12.0344 13.977C12.0344 14.3961 12.3741 14.7358 12.7932 14.7358Z" fill="#E42525"/>
<path d="M3.91453 6.64205C4.33358 6.64205 4.6733 6.30233 4.6733 5.88328C4.6733 5.46422 4.33358 5.12451 3.91453 5.12451C3.49547 5.12451 3.15576 5.46422 3.15576 5.88328C3.15576 6.30233 3.49547 6.64205 3.91453 6.64205Z" fill="#E42525"/>
<path d="M12.2739 6.64205C12.693 6.64205 13.0327 6.30233 13.0327 5.88328C13.0327 5.46422 12.693 5.12451 12.2739 5.12451C11.8548 5.12451 11.5151 5.46422 11.5151 5.88328C11.5151 6.30233 11.8548 6.64205 12.2739 6.64205Z" fill="#E42525"/>
<path d="M8.09397 6.64205C8.51303 6.64205 8.85274 6.30233 8.85274 5.88328C8.85274 5.46422 8.51303 5.12451 8.09397 5.12451C7.67492 5.12451 7.33521 5.46422 7.33521 5.88328C7.33521 6.30233 7.67492 6.64205 8.09397 6.64205Z" fill="#E42525"/>
<path d="M22.5373 7.81397H16.2142V2.48929C16.2213 2.16605 16.164 1.84463 16.0455 1.54378C15.9271 1.24293 15.75 0.968661 15.5245 0.736964C15.299 0.505266 15.0296 0.320777 14.7321 0.19425C14.4346 0.0677224 14.1148 0.00168943 13.7915 0H2.42331C2.1 0.00168943 1.78026 0.0677224 1.48272 0.19425C1.18519 0.320777 0.915822 0.505266 0.69032 0.736964C0.464818 0.968661 0.287694 1.24293 0.169275 1.54378C0.0508565 1.84463 -0.00648871 2.16605 0.000582769 2.48929V9.69092C0.00407859 10.3324 0.260452 10.9466 0.714047 11.4002C1.16764 11.8538 1.78184 12.1102 2.42331 12.1137H2.80935L2.54312 14.6429C2.53901 14.9619 2.64966 15.2719 2.85489 15.5162C3.06013 15.7605 3.34631 15.923 3.6613 15.974H3.79442C3.95752 15.9764 4.11941 15.9457 4.27038 15.884C4.42135 15.8222 4.55829 15.7306 4.67299 15.6146L8.24053 12.1137H8.46683V17.6247C8.46507 17.9492 8.52748 18.2709 8.65045 18.5712C8.77343 18.8715 8.95455 19.1446 9.1834 19.3747C9.41225 19.6048 9.68433 19.7874 9.98398 19.9119C10.2836 20.0365 10.605 20.1007 10.9295 20.1007H16.6136L20.2477 23.7348C20.4898 23.9615 20.8079 24.0897 21.1396 24.0942H21.2727C21.6052 24.0517 21.9094 23.8853 22.1246 23.6283C22.2317 23.4999 22.3117 23.3511 22.3598 23.191C22.4078 23.0308 22.4229 22.8626 22.4042 22.6965L22.1379 20.1007H22.5373C22.8618 20.1007 23.1831 20.0365 23.4828 19.9119C23.7825 19.7874 24.0545 19.6048 24.2834 19.3747C24.5122 19.1446 24.6934 18.8715 24.8163 18.5712C24.9393 18.2709 25.0017 17.9492 25 17.6247V10.2766C25 9.95323 24.9363 9.633 24.8125 9.33421C24.6887 9.03543 24.5073 8.76395 24.2787 8.53527C24.05 8.30659 23.7785 8.12519 23.4797 8.00143C23.1809 7.87767 22.8607 7.81397 22.5373 7.81397V7.81397ZM7.96098 10.7825C7.87369 10.7814 7.78714 10.7986 7.7069 10.833C7.62666 10.8674 7.5545 10.9182 7.49507 10.9822L3.8876 14.563L4.20708 11.5146C4.21436 11.4222 4.20264 11.3293 4.17264 11.2416C4.14264 11.1538 4.09499 11.0732 4.03263 11.0046C3.97027 10.936 3.89452 10.8809 3.81005 10.8427C3.72558 10.8045 3.63419 10.784 3.5415 10.7825H2.42331C2.13594 10.7757 1.86221 10.6585 1.65895 10.4553C1.45569 10.252 1.33852 9.97829 1.33175 9.69092V2.48929C1.32643 2.34134 1.35053 2.1938 1.40267 2.05524C1.45482 1.91667 1.53396 1.78984 1.6355 1.68211C1.73705 1.57437 1.85897 1.48787 1.99421 1.42763C2.12945 1.36739 2.2753 1.3346 2.42331 1.33117H13.7915C14.0811 1.33805 14.3568 1.45707 14.5604 1.66317C14.764 1.86927 14.8797 2.14635 14.8831 2.43604V9.69092C14.8763 9.97829 14.7591 10.252 14.5559 10.4553C14.3526 10.6585 14.0789 10.7757 13.7915 10.7825H7.96098ZM23.6688 17.6247C23.6688 17.926 23.55 18.2152 23.3382 18.4295C23.1264 18.6438 22.8386 18.766 22.5373 18.7695H21.3925C21.3003 18.7704 21.2093 18.7898 21.1247 18.8263C21.0402 18.8629 20.9637 18.916 20.9 18.9825C20.839 19.0534 20.7934 19.1361 20.7659 19.2254C20.7384 19.3147 20.7297 19.4088 20.7402 19.5016L21.1928 22.7896L17.359 18.9559C17.2292 18.8345 17.0576 18.7678 16.8798 18.7695H10.9295C10.6282 18.766 10.3404 18.6438 10.1286 18.4295C9.91676 18.2152 9.79798 17.926 9.798 17.6247V12.1137H13.7915C14.433 12.1102 15.0472 11.8538 15.5008 11.4002C15.9544 10.9466 16.2107 10.3324 16.2142 9.69092V9.14514H22.5373C22.8363 9.1486 23.1221 9.26892 23.3336 9.48037C23.545 9.69182 23.6653 9.97762 23.6688 10.2766V17.6247Z" fill="black"/>
</svg>
