<svg width="19" height="25" viewBox="0 0 19 25" fill="none" xmlns="http://www.w3.org/2000/svg">
<path d="M16.7614 1.42045V23.5795H1.42045V1.42045H16.7614ZM17.0455 0H1.13636C0.834981 0 0.545943 0.119724 0.332833 0.332833C0.119723 0.545943 0 0.834981 0 1.13636V23.8636C0 24.165 0.119723 24.4541 0.332833 24.6672C0.545943 24.8803 0.834981 25 1.13636 25H17.0455C17.3468 25 17.6359 24.8803 17.849 24.6672C18.0621 24.4541 18.1818 24.165 18.1818 23.8636V1.13636C18.1818 0.834981 18.0621 0.545943 17.849 0.332833C17.6359 0.119724 17.3468 0 17.0455 0V0Z" fill="black"/>
<path d="M14.9148 7.44292H9.37502C9.18666 7.44292 9.00601 7.36809 8.87282 7.2349C8.73962 7.1017 8.66479 6.92105 8.66479 6.73269C8.66479 6.54432 8.73962 6.36368 8.87282 6.23048C9.00601 6.09729 9.18666 6.02246 9.37502 6.02246H14.9148C15.102 6.0261 15.2806 6.10209 15.413 6.23451C15.5454 6.36692 15.6214 6.54546 15.625 6.73269C15.625 6.92105 15.5502 7.1017 15.417 7.2349C15.2838 7.36809 15.1032 7.44292 14.9148 7.44292Z" fill="#E42525"/>
<path d="M14.9148 13.1392H9.37502C9.18666 13.1392 9.00601 13.0644 8.87282 12.9312C8.73962 12.798 8.66479 12.6173 8.66479 12.429C8.66479 12.2406 8.73962 12.06 8.87282 11.9268C9.00601 11.7936 9.18666 11.7188 9.37502 11.7188H14.9148C15.102 11.7224 15.2806 11.7984 15.413 11.9308C15.5454 12.0632 15.6214 12.2418 15.625 12.429C15.625 12.6173 15.5502 12.798 15.417 12.9312C15.2838 13.0644 15.1032 13.1392 14.9148 13.1392Z" fill="#E42525"/>
<path d="M14.9148 19.0767H9.37502C9.18666 19.0767 9.00601 19.0019 8.87282 18.8687C8.73962 18.7355 8.66479 18.5548 8.66479 18.3665C8.66479 18.1781 8.73962 17.9975 8.87282 17.8643C9.00601 17.7311 9.18666 17.6562 9.37502 17.6562H14.9148C15.1032 17.6562 15.2838 17.7311 15.417 17.8643C15.5502 17.9975 15.625 18.1781 15.625 18.3665C15.625 18.5548 15.5502 18.7355 15.417 18.8687C15.2838 19.0019 15.1032 19.0767 14.9148 19.0767Z" fill="#E42525"/>
<path d="M4.65873 8.72176C4.56683 8.72307 4.47559 8.70618 4.39026 8.67205C4.30493 8.63791 4.2272 8.58722 4.16157 8.52289L2.96838 7.32971C2.90182 7.26369 2.84898 7.18513 2.81292 7.09859C2.77687 7.01204 2.7583 6.91921 2.7583 6.82545C2.7583 6.73169 2.77687 6.63886 2.81292 6.55231C2.84898 6.46577 2.90182 6.38721 2.96838 6.32119C3.10115 6.19105 3.27964 6.11816 3.46554 6.11816C3.65145 6.11816 3.82994 6.19105 3.9627 6.32119L5.11327 7.50017C5.18201 7.56642 5.23668 7.64585 5.27403 7.73371C5.31137 7.82157 5.33062 7.91606 5.33062 8.01153C5.33062 8.107 5.31137 8.20149 5.27403 8.28935C5.23668 8.37721 5.18201 8.45664 5.11327 8.52289C4.99293 8.64511 4.83016 8.71632 4.65873 8.72176V8.72176Z" fill="#E42525"/>
<path d="M4.65939 8.72131C4.5675 8.72263 4.47625 8.70574 4.39092 8.6716C4.30559 8.63747 4.22787 8.58678 4.16223 8.52245C4.09566 8.45643 4.04283 8.37787 4.00677 8.29133C3.97071 8.20478 3.95215 8.11195 3.95215 8.01819C3.95215 7.92443 3.97071 7.8316 4.00677 7.74505C4.04283 7.6585 4.09566 7.57995 4.16223 7.51393L6.69064 4.97131C6.75667 4.90475 6.83522 4.85191 6.92177 4.81585C7.00831 4.77979 7.10114 4.76123 7.1949 4.76123C7.28866 4.76123 7.38149 4.77979 7.46804 4.81585C7.55459 4.85191 7.63314 4.90475 7.69916 4.97131C7.8302 5.10647 7.90348 5.28733 7.90348 5.47558C7.90348 5.66382 7.8302 5.84468 7.69916 5.97984L5.11394 8.52245C4.99359 8.64467 4.83083 8.71588 4.65939 8.72131V8.72131Z" fill="#E42525"/>
<path d="M4.65873 14.2043C4.56583 14.2037 4.47399 14.1846 4.3886 14.148C4.30322 14.1114 4.22602 14.0581 4.16157 13.9912L2.96838 12.7838C2.90182 12.7178 2.84898 12.6392 2.81292 12.5527C2.77687 12.4661 2.7583 12.3733 2.7583 12.2796C2.7583 12.1858 2.77687 12.093 2.81292 12.0064C2.84898 11.9199 2.90182 11.8413 2.96838 11.7753C3.10115 11.6452 3.27964 11.5723 3.46554 11.5723C3.65145 11.5723 3.82994 11.6452 3.9627 11.7753L5.15589 12.9827C5.22383 13.0464 5.27798 13.1235 5.31499 13.209C5.35201 13.2945 5.37111 13.3867 5.37111 13.4798C5.37111 13.573 5.35201 13.6652 5.31499 13.7507C5.27798 13.8362 5.22383 13.9132 5.15589 13.977C5.09375 14.0478 5.01732 14.1047 4.93163 14.1438C4.84595 14.183 4.75294 14.2036 4.65873 14.2043V14.2043Z" fill="#E42525"/>
<path d="M4.65924 14.2044C4.52023 14.2024 4.38485 14.1597 4.26988 14.0816C4.15491 14.0034 4.06541 13.8932 4.01248 13.7647C3.95955 13.6361 3.94551 13.4948 3.9721 13.3584C3.99869 13.2219 4.06475 13.0963 4.16208 12.997L6.69049 10.4828C6.82422 10.3491 7.00561 10.2739 7.19475 10.2739C7.38388 10.2739 7.56527 10.3491 7.69901 10.4828C7.83275 10.6165 7.90788 10.7979 7.90788 10.9871C7.90788 11.1762 7.83275 11.3576 7.69901 11.4913L5.11378 14.0197C4.99119 14.1367 4.8287 14.2028 4.65924 14.2044V14.2044Z" fill="#E42525"/>
<path d="M4.65873 19.7443C4.56583 19.7437 4.47399 19.7246 4.3886 19.688C4.30322 19.6514 4.22602 19.5981 4.16157 19.5312L2.96838 18.338C2.90182 18.272 2.84898 18.1934 2.81292 18.1069C2.77687 18.0203 2.7583 17.9275 2.7583 17.8337C2.7583 17.74 2.77687 17.6472 2.81292 17.5606C2.84898 17.4741 2.90182 17.3955 2.96838 17.3295C3.10115 17.1994 3.27964 17.1265 3.46554 17.1265C3.65145 17.1265 3.82994 17.1994 3.9627 17.3295L5.15589 18.5369C5.22383 18.6006 5.27798 18.6777 5.31499 18.7632C5.35201 18.8487 5.37111 18.9409 5.37111 19.034C5.37111 19.1272 5.35201 19.2194 5.31499 19.3049C5.27798 19.3904 5.22383 19.4674 5.15589 19.5312C5.09247 19.5994 5.01547 19.6536 4.92985 19.6903C4.84423 19.727 4.75187 19.7454 4.65873 19.7443V19.7443Z" fill="#E42525"/>
<path d="M4.65924 19.7445C4.52023 19.7426 4.38485 19.6999 4.26988 19.6217C4.15491 19.5435 4.06541 19.4333 4.01248 19.3048C3.95955 19.1762 3.94551 19.035 3.9721 18.8985C3.99869 18.7621 4.06475 18.6364 4.16208 18.5371L6.69049 15.9945C6.82422 15.8608 7.00561 15.7856 7.19475 15.7856C7.38388 15.7856 7.56527 15.8608 7.69901 15.9945C7.83275 16.1283 7.90788 16.3096 7.90788 16.4988C7.90788 16.6879 7.83275 16.8693 7.69901 17.003L5.11378 19.5314C4.99576 19.6589 4.8327 19.7353 4.65924 19.7445V19.7445Z" fill="#E42525"/>
</svg>
