<svg width="22" height="25" viewBox="0 0 22 25" fill="none" xmlns="http://www.w3.org/2000/svg">
<path d="M14.7299 7.23047L16.5907 9.03445L8.79244 16.6055L4.27539 12.2021L6.12198 10.4123L8.79244 13.0117L14.7299 7.23047Z" fill="#E42525"/>
<path d="M10.6676 1.76136C11.7587 2.46901 13.032 2.84409 14.3324 2.84091C15.6004 2.82406 16.8427 2.48167 17.9403 1.84659L19.3608 3.53693C18.7639 4.4421 18.4076 5.4845 18.3256 6.56566C18.2435 7.64683 18.4385 8.73105 18.892 9.71591C20.3125 13.5369 20.9375 19.0909 10.6108 23.4375C0.298294 19.0909 0.9375 13.4943 2.32955 9.71591C2.78309 8.73105 2.97806 7.64683 2.89604 6.56566C2.81402 5.4845 2.45772 4.4421 1.8608 3.53693L3.28125 1.84659C4.4138 2.497 5.69681 2.83979 7.00284 2.84091C8.3064 2.8373 9.58039 2.45214 10.6676 1.73295V1.76136ZM10.6676 0C9.65793 0.900976 8.35599 1.4056 7.00284 1.42045C5.60235 1.38506 4.25329 0.885407 3.16761 0L0 3.57955C0 3.57955 2.47159 5.26989 1.05114 9.24716C-0.596591 13.7642 -1.05114 20.2841 10.6676 25C22.358 20.2841 21.9318 13.7642 20.2841 9.24716C18.8636 5.26989 21.3352 3.56534 21.3352 3.56534L18.1818 0C17.0918 0.887408 15.7376 1.38711 14.3324 1.42045C12.9807 1.39802 11.6813 0.894383 10.6676 0V0Z" fill="black"/>
</svg>
