<svg width="25" height="25" viewBox="0 0 25 25" fill="none" xmlns="http://www.w3.org/2000/svg">
<path d="M12.4998 10.7827C12.8344 10.7799 13.1622 10.8766 13.4417 11.0604C13.7212 11.2442 13.9399 11.5069 14.0698 11.8151C14.1998 12.1234 14.2353 12.4633 14.1717 12.7918C14.1082 13.1202 13.9485 13.4224 13.713 13.6599C13.4774 13.8975 13.1766 14.0597 12.8487 14.126C12.5208 14.1923 12.1806 14.1597 11.8712 14.0324C11.5619 13.905 11.2973 13.6886 11.1112 13.4107C10.925 13.1327 10.8256 12.8057 10.8256 12.4712C10.8256 12.0258 11.0015 11.5985 11.3151 11.2823C11.6287 10.966 12.0545 10.7865 12.4998 10.7827V10.7827ZM12.4998 9.3639C11.8865 9.3695 11.2886 9.55649 10.7813 9.90131C10.2741 10.2461 9.88026 10.7333 9.64942 11.3016C9.41859 11.8698 9.36109 12.4937 9.48417 13.0946C9.60725 13.6954 9.9054 14.2464 10.3411 14.6782C10.7767 15.1099 11.3304 15.403 11.9324 15.5206C12.5344 15.6382 13.1577 15.5751 13.7238 15.3391C14.2899 15.1031 14.7735 14.7048 15.1137 14.1945C15.4539 13.6841 15.6355 13.0845 15.6355 12.4712C15.6355 12.0607 15.5542 11.6543 15.3963 11.2755C15.2383 10.8966 15.0069 10.5528 14.7154 10.2639C14.4238 9.97499 14.0779 9.74671 13.6977 9.59223C13.3174 9.43776 12.9103 9.36015 12.4998 9.3639V9.3639Z" fill="#E42525"/>
<path d="M12.5 1.41885C14.694 1.41324 16.8404 2.05908 18.667 3.27453C20.4936 4.48998 21.9183 6.22033 22.7605 8.2463C23.6027 10.2723 23.8246 12.5027 23.3979 14.6548C22.9713 16.807 21.9153 18.7841 20.3639 20.3355C18.8124 21.887 16.8354 22.9429 14.6832 23.3696C12.531 23.7962 10.3006 23.5744 8.27465 22.7322C6.24868 21.89 4.51833 20.4653 3.30287 18.6386C2.08742 16.812 1.44158 14.6657 1.44719 12.4716C1.45468 9.54255 2.62157 6.73558 4.69275 4.66441C6.76392 2.59323 9.57089 1.42634 12.5 1.41885V1.41885ZM12.5 8.07149e-06C10.0265 1.44451e-05 7.60863 0.733848 5.5524 2.10862C3.49618 3.4834 1.89404 5.43731 0.948789 7.72304C0.00353332 10.0088 -0.242346 12.5236 0.242274 14.9491C0.726893 17.3746 1.92022 19.6018 3.67122 21.3489C5.42221 23.0959 7.65215 24.2842 10.0788 24.7633C12.5054 25.2424 15.0196 24.9908 17.3032 24.0403C19.5868 23.0899 21.537 21.4833 22.9071 19.424C24.2772 17.3646 25.0056 14.9451 25 12.4716C24.9981 10.832 24.6733 9.20873 24.0441 7.69459C23.4149 6.18046 22.4937 4.80508 21.3329 3.64698C20.1722 2.48888 18.7947 1.57075 17.2792 0.945001C15.7636 0.319253 14.1396 -0.00185624 12.5 8.07149e-06V8.07149e-06Z" fill="black"/>
<path d="M18.5867 19.6092C18.3996 19.6065 18.2211 19.53 18.0901 19.3963L13.7626 15.0689C13.6961 15.0029 13.6434 14.9245 13.6074 14.838C13.5713 14.7516 13.5528 14.6588 13.5528 14.5652C13.5528 14.4715 13.5713 14.3788 13.6074 14.2924C13.6434 14.2059 13.6961 14.1275 13.7626 14.0615C13.8976 13.9306 14.0783 13.8574 14.2663 13.8574C14.4544 13.8574 14.635 13.9306 14.77 14.0615L19.0265 18.389C19.1574 18.524 19.2306 18.7046 19.2306 18.8927C19.2306 19.0807 19.1574 19.2613 19.0265 19.3963C18.909 19.5161 18.7536 19.5914 18.5867 19.6092V19.6092Z" fill="#E42525"/>
<path d="M12.5143 10.6412C12.3261 10.6412 12.1457 10.5664 12.0127 10.4334C11.8796 10.3004 11.8049 10.1199 11.8049 9.93177V5.67524C11.8049 5.48709 11.8796 5.30665 12.0127 5.1736C12.1457 5.04056 12.3261 4.96582 12.5143 4.96582C12.7024 4.96582 12.8829 5.04056 13.0159 5.1736C13.149 5.30665 13.2237 5.48709 13.2237 5.67524V9.93177C13.2237 10.1199 13.149 10.3004 13.0159 10.4334C12.8829 10.5664 12.7024 10.6412 12.5143 10.6412Z" fill="#E42525"/>
</svg>
