<svg width="30" height="17" viewBox="0 0 30 17" fill="none" xmlns="http://www.w3.org/2000/svg">
<path d="M15.0936 5.93674C14.8864 5.93674 14.6877 5.85444 14.5412 5.70795C14.3947 5.56146 14.3124 5.36277 14.3124 5.15559V0.78115C14.3124 0.573976 14.3947 0.375288 14.5412 0.228794C14.6877 0.0822997 14.8864 0 15.0936 0C15.3008 0 15.4995 0.0822997 15.6459 0.228794C15.7924 0.375288 15.8747 0.573976 15.8747 0.78115V5.15559C15.8747 5.36277 15.7924 5.56146 15.6459 5.70795C15.4995 5.85444 15.3008 5.93674 15.0936 5.93674Z" fill="#E42525"/>
<path d="M17.5149 6.34302C17.4171 6.36516 17.3157 6.36516 17.218 6.34302C17.1207 6.30553 17.032 6.24853 16.9575 6.17553C16.8829 6.10252 16.8241 6.01506 16.7846 5.91849C16.7451 5.82193 16.7257 5.71831 16.7277 5.614C16.7297 5.50969 16.753 5.40689 16.7962 5.31191L18.4835 1.2343C18.5662 1.04321 18.7204 0.892065 18.9131 0.813229C19.1058 0.734392 19.3217 0.734123 19.5146 0.812481C19.6092 0.853248 19.6948 0.912321 19.7665 0.986298C19.8381 1.06028 19.8945 1.1477 19.9322 1.24353C19.97 1.33937 19.9884 1.44172 19.9864 1.54471C19.9845 1.64769 19.9622 1.74927 19.9208 1.8436L18.2335 5.87434C18.1742 6.0153 18.0741 6.13529 17.946 6.21882C17.8179 6.30236 17.6678 6.34562 17.5149 6.34302V6.34302Z" fill="#E42525"/>
<path d="M12.5312 6.3426C12.377 6.34183 12.2265 6.29543 12.0986 6.20925C11.9707 6.12306 11.8712 6.00094 11.8126 5.85829L10.0628 1.8588C9.97992 1.6682 9.97616 1.45249 10.0523 1.25912C10.1285 1.06574 10.2784 0.910553 10.469 0.827683C10.6596 0.744814 10.8753 0.741054 11.0687 0.817231C11.262 0.893407 11.4172 1.04328 11.5001 1.23388L13.2343 5.31149C13.2753 5.40469 13.2974 5.50516 13.2992 5.607C13.301 5.70884 13.2824 5.81002 13.2446 5.90459C13.2067 5.99916 13.1504 6.08524 13.0789 6.15777C13.0074 6.2303 12.9221 6.28782 12.8281 6.32698C12.7314 6.35329 12.6302 6.35861 12.5312 6.3426V6.3426Z" fill="#E42525"/>
<path d="M8.28175 12.1859C8.60908 12.1859 8.92301 12.3159 9.15447 12.5474C9.38593 12.7788 9.51596 13.0928 9.51596 13.4201C9.51596 13.7474 9.38593 14.0614 9.15447 14.2928C8.92301 14.5243 8.60908 14.6543 8.28175 14.6543C7.95441 14.6543 7.64048 14.5243 7.40902 14.2928C7.17756 14.0614 7.04753 13.7474 7.04753 13.4201C7.04753 13.0928 7.17756 12.7788 7.40902 12.5474C7.64048 12.3159 7.95441 12.1859 8.28175 12.1859V12.1859ZM8.28175 10.6236C7.72799 10.6205 7.18579 10.7819 6.72385 11.0873C6.26192 11.3927 5.90105 11.8283 5.68699 12.339C5.47293 12.8498 5.41532 13.4125 5.52145 13.956C5.62758 14.4995 5.89268 14.9993 6.28316 15.3919C6.67363 15.7846 7.17188 16.0525 7.71478 16.1617C8.25767 16.2709 8.82076 16.2164 9.33267 16.0052C9.84457 15.794 10.2823 15.4356 10.5902 14.9754C10.8982 14.5152 11.0626 13.9739 11.0626 13.4201C11.0627 12.6811 10.7702 11.9722 10.2491 11.4482C9.72802 10.9242 9.02072 10.6277 8.28175 10.6236V10.6236Z" fill="black"/>
<path d="M0.00790748 12.3108L0 13.873L6.70218 13.907L6.71009 12.3447L0.00790748 12.3108Z" fill="black"/>
<path d="M14.4684 14.0291L10.5471 13.951V12.3887H12.8593V10.6858C12.1889 10.4085 11.4997 10.1788 10.797 9.99841L8.04737 9.37349L6.68817 9.02978H6.37571L6.07888 8.88917C5.0724 8.06076 3.95161 7.38197 2.75118 6.87381C1.85057 6.65919 0.92732 6.55427 0.00152588 6.56135V4.99905C1.07829 4.95892 2.15554 5.06402 3.20424 5.31151C4.5361 5.85429 5.78306 6.58563 6.9069 7.4831V7.4831L8.37546 7.82681L11.0939 8.4986C12.1818 8.71383 13.2338 9.08202 14.2185 9.59221L14.4841 9.82655L14.4684 14.0291Z" fill="black"/>
<path d="M22.4988 12.1859C22.8261 12.1859 23.1401 12.3159 23.3715 12.5474C23.603 12.7788 23.733 13.0928 23.733 13.4201C23.733 13.7474 23.603 14.0614 23.3715 14.2928C23.1401 14.5243 22.8261 14.6543 22.4988 14.6543C22.1715 14.6543 21.8575 14.5243 21.6261 14.2928C21.3946 14.0614 21.2646 13.7474 21.2646 13.4201C21.2646 13.0928 21.3946 12.7788 21.6261 12.5474C21.8575 12.3159 22.1715 12.1859 22.4988 12.1859V12.1859ZM22.4988 10.6236C21.945 10.6205 21.4028 10.7819 20.9409 11.0873C20.479 11.3927 20.1181 11.8283 19.904 12.339C19.69 12.8498 19.6324 13.4125 19.7385 13.956C19.8446 14.4995 20.1097 14.9993 20.5002 15.3919C20.8907 15.7846 21.3889 16.0525 21.9318 16.1617C22.4747 16.2709 23.0378 16.2164 23.5497 16.0052C24.0616 15.794 24.4993 15.4356 24.8073 14.9754C25.1153 14.5152 25.2797 13.9739 25.2797 13.4201C25.2797 12.6811 24.9872 11.9722 24.4661 11.4482C23.9451 10.9242 23.2378 10.6277 22.4988 10.6236V10.6236Z" fill="black"/>
<path d="M24.5165 12.2834L24.5086 13.8457L29.9922 13.8735L30.0001 12.3112L24.5165 12.2834Z" fill="black"/>
<path d="M20.4834 13.8736L16.9214 13.6549V7.79623L20.2022 7.57751L20.8271 7.21818C22.0417 6.41758 23.3545 5.77696 24.7329 5.31217C26.4696 5.04641 28.2255 4.92622 29.9822 4.95284V6.51514C28.3414 6.49121 26.7012 6.59568 25.0766 6.8276C23.861 7.27816 22.6981 7.85963 21.6083 8.56176C21.2021 8.7961 20.8896 8.98358 20.7334 9.04607H20.4522L18.4837 9.24917V12.1863L20.5303 12.3113L20.4834 13.8736Z" fill="black"/>
</svg>
