<svg width="17" height="25" viewBox="0 0 17 25" fill="none" xmlns="http://www.w3.org/2000/svg">
<path d="M12.4013 9.48193L14.1109 11.1521L6.90418 18.1616L2.72217 14.0848L4.43179 12.4278L6.90418 14.8344L12.4013 9.48193Z" fill="#E42525"/>
<path d="M15.7812 2.24883H10.9022C10.9022 2.24883 10.9022 2.24883 10.9022 2.16992C10.8119 1.57248 10.5125 1.02647 10.0574 0.629099C9.6022 0.231731 9.02077 0.0088031 8.41662 9.76632e-06C7.81991 -0.00165345 7.2421 0.209169 6.78666 0.594719C6.33123 0.98027 6.02793 1.51536 5.93109 2.10416C5.92459 2.15217 5.92459 2.20082 5.93109 2.24883H1.05208C0.773049 2.24883 0.505449 2.35967 0.308146 2.55697C0.110843 2.75427 0 3.02187 0 3.3009V23.9479C0 24.227 0.110843 24.4946 0.308146 24.6919C0.505449 24.8892 0.773049 25 1.05208 25H15.7812C16.0602 25 16.3278 24.8892 16.5251 24.6919C16.7224 24.4946 16.8332 24.227 16.8332 23.9479V3.3009C16.8332 3.02187 16.7224 2.75427 16.5251 2.55697C16.3278 2.35967 16.0602 2.24883 15.7812 2.24883ZM8.41662 1.31511C8.68593 1.31972 8.94601 1.41406 9.15564 1.58319C9.36527 1.75233 9.51246 1.98658 9.57391 2.24883H7.24618C7.30817 1.98441 7.45732 1.74854 7.66962 1.57917C7.88193 1.40981 8.14504 1.31679 8.41662 1.31511V1.31511ZM11.3098 3.56392V5.01053H5.52341V3.56392H11.3098ZM15.5181 23.6849H1.3151V3.56392H4.20831V5.27355C4.20831 5.55258 4.31915 5.82018 4.51646 6.01748C4.71376 6.21478 4.98136 6.32563 5.26039 6.32563H11.5729C11.8519 6.32563 12.1195 6.21478 12.3168 6.01748C12.5141 5.82018 12.6249 5.55258 12.6249 5.27355V3.56392H15.5181V23.6849Z" fill="black"/>
</svg>
