<svg width="25" height="26" viewBox="0 0 25 26" fill="none" xmlns="http://www.w3.org/2000/svg">
<path d="M24.6403 20.5461L23.1643 19.0701C22.4986 18.4725 21.6817 18.0692 20.8026 17.904L14.9871 12.059C14.9193 11.9911 14.8387 11.9373 14.7501 11.9006C14.6614 11.8639 14.5664 11.845 14.4705 11.845C14.3745 11.845 14.2795 11.8639 14.1909 11.9006C14.1023 11.9373 14.0217 11.9911 13.9539 12.059C13.886 12.1268 13.8322 12.2073 13.7955 12.296C13.7588 12.3846 13.7399 12.4796 13.7399 12.5756C13.7399 12.6715 13.7588 12.7665 13.7955 12.8552C13.8322 12.9438 13.886 13.0243 13.9539 13.0922L19.6513 18.7749L18.81 19.6014L13.1568 13.9483C13.0882 13.8791 13.0066 13.8242 12.9167 13.7867C12.8267 13.7493 12.7303 13.73 12.6328 13.73C12.5354 13.73 12.439 13.7493 12.349 13.7867C12.2591 13.8242 12.1775 13.8791 12.1089 13.9483C11.9736 14.0862 11.8979 14.2717 11.8979 14.4649C11.8979 14.658 11.9736 14.8435 12.1089 14.9815L17.8506 20.7232C17.9754 21.647 18.3767 22.5114 19.0019 23.2029L20.4779 24.6789C20.7046 24.8956 21.0057 25.0171 21.3192 25.0184C21.6286 25.0179 21.9254 24.896 22.1458 24.6789L24.655 22.1697C24.8607 21.9485 24.9738 21.657 24.971 21.355C24.9683 21.053 24.8499 20.7635 24.6403 20.5461V20.5461ZM21.3045 23.4981L20.0056 22.1992C19.7465 21.881 19.5329 21.5283 19.3709 21.1513L21.0388 19.4833C21.412 19.6467 21.7639 19.8549 22.0868 20.1033L23.3857 21.4022L21.3045 23.4981Z" fill="black"/>
<path d="M11.8873 11.0257C11.9536 11.0963 12.0336 11.1525 12.1225 11.191C12.2113 11.2295 12.3071 11.2493 12.4039 11.2493C12.5008 11.2493 12.5966 11.2295 12.6854 11.191C12.7743 11.1525 12.8543 11.0963 12.9206 11.0257C12.9912 10.9594 13.0474 10.8794 13.0859 10.7905C13.1244 10.7017 13.1442 10.6059 13.1442 10.509C13.1442 10.4122 13.1244 10.3164 13.0859 10.2276C13.0474 10.1387 12.9912 10.0587 12.9206 9.99244L7.1493 4.20643C6.98301 3.33503 6.58535 2.52441 5.99801 1.85956L4.52199 0.383535C4.41338 0.272405 4.28366 0.184102 4.14045 0.123814C3.99724 0.0635268 3.84342 0.0324707 3.68803 0.0324707C3.53265 0.0324707 3.37883 0.0635268 3.23562 0.123814C3.0924 0.184102 2.96268 0.272405 2.85408 0.383535L0.344843 2.89277C0.124015 3.11414 0 3.41405 0 3.72673C0 4.0394 0.124015 4.33931 0.344843 4.56068L1.82086 6.0367C2.49145 6.6326 3.31399 7.0311 4.19726 7.188V7.188L9.96851 12.9592C10.1093 13.1005 10.3004 13.1802 10.4999 13.1806C10.6443 13.1786 10.785 13.1342 10.9045 13.053C11.0239 12.9718 11.1169 12.8573 11.1719 12.7237C11.2269 12.5901 11.2415 12.4433 11.2139 12.3015C11.1863 12.1597 11.1176 12.0292 11.0165 11.926L5.45188 6.21382L6.29321 5.38725L11.8873 11.0257ZM1.55518 3.64554L3.65113 1.60863L4.95003 2.90753C5.21393 3.24396 5.42772 3.61684 5.58472 4.01455L3.97586 5.60865C3.59694 5.4567 3.24352 5.24763 2.92788 4.98872L1.55518 3.64554Z" fill="black"/>
<path d="M24.6402 2.86348L22.1309 0.354247C22.0245 0.242078 21.8963 0.152806 21.7542 0.0918947C21.612 0.0309838 21.459 -0.000285036 21.3044 1.95779e-06C21.1476 0.000259645 20.9925 0.0317152 20.8481 0.0925347C20.7036 0.153354 20.5727 0.242321 20.463 0.354247L18.987 1.83027C18.3997 2.49512 18.002 3.30574 17.8357 4.17714L4.1825 17.8746C3.30339 18.0398 2.48649 18.4431 1.82087 19.0407L0.344843 20.5167C0.124015 20.7381 0 21.038 0 21.3507C0 21.6633 0.124015 21.9633 0.344843 22.1846L2.82456 24.6791C3.04778 24.8964 3.347 25.018 3.65851 25.018C3.97003 25.018 4.26925 24.8964 4.49247 24.6791L5.96849 23.2031C6.58831 22.5196 6.98929 21.6662 7.11979 20.7529L20.6992 7.17347H20.773C21.6599 7.0234 22.4877 6.62993 23.1641 6.03693L24.6402 4.56091C24.754 4.4508 24.8445 4.31892 24.9063 4.17312C24.9681 4.02731 25 3.87057 25 3.7122C25 3.55383 24.9681 3.39708 24.9063 3.25128C24.8445 3.10547 24.754 2.97359 24.6402 2.86348ZM6.17513 19.6311L5.34856 18.775L18.7361 5.38748L19.5774 6.21405L6.17513 19.6311ZM4.95003 22.1699L3.65113 23.4688L1.56994 21.3728L2.86884 20.0739C3.21013 19.8213 3.58211 19.613 3.97586 19.454L5.64376 21.1219C5.46352 21.5024 5.22992 21.8553 4.95003 22.1699V22.1699ZM22.1309 4.98896C21.8103 5.24458 21.458 5.45789 21.083 5.62365L19.415 4.01478C19.577 3.63773 19.7906 3.28503 20.0497 2.96681L21.3486 1.66791L23.4298 3.7491L22.1309 4.98896Z" fill="#E42525"/>
</svg>
