<svg width="25" height="25" viewBox="0 0 25 25" fill="none" xmlns="http://www.w3.org/2000/svg">
<path d="M7.7559 14.2045H5.75306L5.39795 15.3408H3.83545L6.06556 9.24707H7.48602L9.73033 15.3124H8.11102L7.7559 14.2045ZM6.09397 13.0823H7.40079L6.74738 10.9516L6.09397 13.0823Z" fill="#E42525"/>
<path d="M14.9291 13.2529C14.9227 13.6515 14.8046 14.0403 14.5882 14.3751C14.3759 14.7079 14.0693 14.97 13.7075 15.1279C13.3081 15.316 12.8704 15.4084 12.4291 15.3978C12.0761 15.4147 11.7238 15.3534 11.3972 15.2184C11.0706 15.0833 10.7779 14.8778 10.5399 14.6166C10.0503 13.9911 9.80769 13.2076 9.85809 12.4149V12.1166C9.84322 11.5834 9.9501 11.0539 10.1706 10.5683C10.3519 10.1368 10.6652 9.77382 11.0655 9.53136C11.4914 9.26891 11.9862 9.14026 12.4859 9.16204C13.11 9.14466 13.7197 9.35125 14.2047 9.74443C14.4311 9.95024 14.6133 10.1999 14.7402 10.4783C14.8672 10.7566 14.9363 11.0579 14.9433 11.3637H13.5229C13.535 11.2197 13.5173 11.0748 13.4708 10.9379C13.4244 10.801 13.3502 10.6752 13.253 10.5683C13.0299 10.3862 12.7441 10.2995 12.4575 10.3268C12.2992 10.314 12.1404 10.3441 11.9979 10.4141C11.8554 10.4842 11.7344 10.5914 11.6479 10.7245C11.4426 11.1235 11.3447 11.5689 11.3638 12.0172V12.4433C11.3209 12.9297 11.404 13.4189 11.6053 13.8637C11.6935 14.0029 11.8184 14.115 11.9663 14.1877C12.1142 14.2604 12.2792 14.2908 12.4433 14.2757C12.718 14.2941 12.9901 14.2135 13.2104 14.0484C13.402 13.8399 13.504 13.5644 13.4945 13.2814L14.9291 13.2529Z" fill="#E42525"/>
<path d="M20.5258 13.2527C20.5055 13.649 20.3885 14.0343 20.1849 14.3748C19.9726 14.7076 19.666 14.9697 19.3042 15.1277C18.9005 15.3179 18.4577 15.4104 18.0116 15.3976C17.6605 15.4163 17.3096 15.3559 16.9851 15.2206C16.6605 15.0854 16.3705 14.8789 16.1366 14.6163C15.647 13.9909 15.4044 13.2073 15.4548 12.4146V12.1163C15.4399 11.5832 15.5468 11.0537 15.7673 10.568C15.9473 10.1401 16.2548 9.77801 16.648 9.5311C17.0541 9.28352 17.5218 9.15551 17.9974 9.16178C18.6408 9.13047 19.2731 9.33787 19.773 9.74417C20.0026 9.94907 20.1888 10.198 20.3206 10.4761C20.4523 10.7542 20.5269 11.056 20.54 11.3635H19.1195C19.1375 11.0732 19.0405 10.7875 18.8497 10.568C18.6202 10.3878 18.3307 10.3015 18.04 10.3266C17.8838 10.3148 17.7274 10.3455 17.5874 10.4156C17.4473 10.4856 17.3288 10.5923 17.2445 10.7243C17.0478 11.1308 16.955 11.5799 16.9747 12.0311V12.4572C16.939 12.9433 17.0219 13.4307 17.2161 13.8777C17.3066 14.0146 17.4319 14.125 17.5793 14.1974C17.7266 14.2698 17.8905 14.3017 18.0542 14.2896C18.3335 14.3102 18.6108 14.2296 18.8355 14.0623C19.0271 13.8538 19.1291 13.5784 19.1195 13.2953L20.5258 13.2527Z" fill="#E42525"/>
<path d="M12.5 1.42045C14.6913 1.42045 16.8334 2.07026 18.6555 3.28769C20.4775 4.50513 21.8976 6.23552 22.7362 8.26004C23.5748 10.2846 23.7942 12.5123 23.3667 14.6615C22.9391 16.8107 21.8839 18.7849 20.3344 20.3344C18.7849 21.8839 16.8107 22.9391 14.6615 23.3666C12.5123 23.7942 10.2846 23.5747 8.26005 22.7362C6.23552 21.8976 4.50514 20.4775 3.2877 18.6555C2.07026 16.8334 1.42046 14.6913 1.42046 12.5C1.42422 9.56267 2.59273 6.74673 4.66973 4.66973C6.74674 2.59273 9.56268 1.42421 12.5 1.42045V1.42045ZM12.5 0C10.0277 0 7.61099 0.733112 5.55538 2.10663C3.49976 3.48015 1.89761 5.43238 0.951511 7.71646C0.00541606 10.0005 -0.242126 12.5139 0.24019 14.9386C0.722505 17.3634 1.91301 19.5907 3.66117 21.3388C5.40933 23.087 7.63661 24.2775 10.0614 24.7598C12.4861 25.2421 14.9995 24.9946 17.2835 24.0485C19.5676 23.1024 21.5199 21.5002 22.8934 19.4446C24.2669 17.389 25 14.9723 25 12.5C25 10.8585 24.6767 9.23303 24.0485 7.71646C23.4203 6.19989 22.4996 4.8219 21.3388 3.66116C20.1781 2.50043 18.8001 1.57969 17.2835 0.951506C15.767 0.323322 14.1415 0 12.5 0V0Z" fill="black"/>
</svg>
