<svg width="25" height="25" viewBox="0 0 25 25" fill="none" xmlns="http://www.w3.org/2000/svg">
<path d="M17.344 23.2529C17.344 23.6649 15.1707 24.3325 12.5002 24.3325C9.82979 24.3325 7.65649 23.8211 7.65649 23.2529C7.65649 21.9683 8.16682 20.7363 9.0752 19.8279C9.98357 18.9195 11.2156 18.4092 12.5002 18.4092C13.7849 18.4092 15.0169 18.9195 15.9253 19.8279C16.8337 20.7363 17.344 21.9683 17.344 23.2529V23.2529Z" fill="#E42525"/>
<path d="M12.5 1.42045C14.6925 1.41483 16.8374 2.05985 18.6632 3.27387C20.4889 4.48788 21.9135 6.2163 22.7564 8.24032C23.5993 10.2643 23.8228 12.493 23.3985 14.644C22.9742 16.7951 21.9212 18.772 20.3729 20.3243C18.8245 21.8767 16.8504 22.9347 14.7004 23.3645C12.5504 23.7943 10.3212 23.5766 8.29504 22.7389C6.26886 21.9011 4.5368 20.481 3.3181 18.6584C2.0994 16.8358 1.44888 14.6925 1.44887 12.5C1.4526 9.56758 2.61721 6.75592 4.68808 4.67973C6.75895 2.60354 9.56761 1.43172 12.5 1.42045ZM12.5 0C10.0277 0 7.61099 0.733112 5.55538 2.10663C3.49976 3.48015 1.89761 5.43238 0.951511 7.71646C0.00541606 10.0005 -0.242126 12.5139 0.24019 14.9386C0.722505 17.3634 1.91301 19.5907 3.66117 21.3388C5.40933 23.087 7.63661 24.2775 10.0614 24.7598C12.4861 25.2421 14.9995 24.9946 17.2835 24.0485C19.5676 23.1024 21.5199 21.5002 22.8934 19.4446C24.2669 17.389 25 14.9723 25 12.5C25 9.18479 23.683 6.00537 21.3388 3.66116C18.9946 1.31696 15.8152 0 12.5 0V0Z" fill="black"/>
<path d="M12.5142 5.46919C12.327 5.46556 12.1484 5.38956 12.016 5.25715C11.8836 5.12474 11.8076 4.94619 11.804 4.75897V3.06863C11.8076 2.8814 11.8836 2.70286 12.016 2.57044C12.1484 2.43803 12.327 2.36203 12.5142 2.3584C12.7025 2.3584 12.8832 2.43323 13.0164 2.56642C13.1496 2.69961 13.2244 2.88026 13.2244 3.06863V4.75897C13.2244 4.94733 13.1496 5.12798 13.0164 5.26117C12.8832 5.39437 12.7025 5.46919 12.5142 5.46919Z" fill="black"/>
<path d="M7.0457 7.74128C6.85375 7.7408 6.66983 7.66417 6.53433 7.52821L5.35536 6.34923C5.22162 6.21549 5.14648 6.0341 5.14648 5.84497C5.14648 5.65583 5.22162 5.47445 5.35536 5.34071C5.48909 5.20697 5.67048 5.13184 5.85962 5.13184C6.04875 5.13184 6.23014 5.20697 6.36388 5.34071L7.54286 6.51968C7.60942 6.58571 7.66226 6.66426 7.69832 6.75081C7.73437 6.83736 7.75294 6.93019 7.75294 7.02395C7.75294 7.1177 7.73437 7.21053 7.69832 7.29708C7.66226 7.38363 7.60942 7.46218 7.54286 7.52821C7.4784 7.5951 7.4012 7.64842 7.31582 7.68501C7.23044 7.7216 7.13859 7.74073 7.0457 7.74128V7.74128Z" fill="black"/>
<path d="M5.86691 19.8863C5.77402 19.8857 5.68217 19.8666 5.59679 19.83C5.5114 19.7934 5.43421 19.7401 5.36975 19.6732C5.30318 19.6072 5.25035 19.5286 5.21429 19.4421C5.17823 19.3555 5.15967 19.2627 5.15967 19.1689C5.15967 19.0752 5.17823 18.9823 5.21429 18.8958C5.25035 18.8092 5.30318 18.7307 5.36975 18.6647L6.54873 17.4857C6.60865 17.4035 6.68552 17.3351 6.77415 17.2852C6.86277 17.2353 6.96109 17.205 7.06243 17.1964C7.16378 17.1878 7.2658 17.201 7.36158 17.2352C7.45736 17.2695 7.54468 17.3239 7.61762 17.3947C7.69056 17.4656 7.74743 17.5514 7.78437 17.6461C7.82131 17.7409 7.83747 17.8425 7.83174 17.944C7.82602 18.0456 7.79855 18.1447 7.75119 18.2347C7.70384 18.3248 7.6377 18.4036 7.55725 18.4658L6.37827 19.6448C6.31359 19.7173 6.23498 19.776 6.14713 19.8175C6.05928 19.859 5.96398 19.8823 5.86691 19.8863V19.8863Z" fill="black"/>
<path d="M17.9968 7.7276C17.9039 7.72706 17.8121 7.70793 17.7267 7.67134C17.6413 7.63474 17.5641 7.58143 17.4996 7.51453C17.4331 7.44851 17.3802 7.36996 17.3442 7.28341C17.3081 7.19686 17.2896 7.10403 17.2896 7.01027C17.2896 6.91652 17.3081 6.82368 17.3442 6.73714C17.3802 6.65059 17.4331 6.57204 17.4996 6.50601L18.6786 5.32704C18.8124 5.1933 18.9937 5.11816 19.1829 5.11816C19.372 5.11816 19.5534 5.1933 19.6871 5.32704C19.8209 5.46077 19.896 5.64216 19.896 5.8313C19.896 6.02043 19.8209 6.20182 19.6871 6.33556L18.494 7.51453C18.362 7.64708 18.1838 7.72343 17.9968 7.7276V7.7276Z" fill="black"/>
<path d="M19.2048 19.8866C19.0129 19.8862 18.829 19.8095 18.6935 19.6736L17.5145 18.4662C17.4199 18.3301 17.3759 18.1653 17.39 18.0002C17.4042 17.8352 17.4756 17.6802 17.5919 17.5622C17.7082 17.4442 17.8621 17.3706 18.0269 17.3541C18.1918 17.3376 18.3572 17.3793 18.4946 17.4719L19.6736 18.6508C19.7402 18.7169 19.793 18.7954 19.829 18.882C19.8651 18.9685 19.8837 19.0613 19.8837 19.1551C19.8837 19.2489 19.8651 19.3417 19.829 19.4282C19.793 19.5148 19.7402 19.5933 19.6736 19.6594C19.5526 19.7929 19.3846 19.8744 19.2048 19.8866V19.8866Z" fill="black"/>
<path d="M4.67298 13.1529H2.99685C2.80848 13.1529 2.62784 13.078 2.49464 12.9449C2.36145 12.8117 2.28662 12.631 2.28662 12.4426C2.29026 12.2554 2.36625 12.0769 2.49867 11.9445C2.63108 11.8121 2.80962 11.7361 2.99685 11.7324H4.67298C4.86135 11.7324 5.042 11.8072 5.17519 11.9404C5.30838 12.0736 5.38321 12.2543 5.38321 12.4426C5.38321 12.631 5.30838 12.8117 5.17519 12.9449C5.042 13.078 4.86135 13.1529 4.67298 13.1529Z" fill="black"/>
<path d="M22.0314 13.1529H20.3552C20.1669 13.1529 19.9862 13.078 19.853 12.9449C19.7198 12.8117 19.645 12.631 19.645 12.4426C19.6487 12.2554 19.7246 12.0769 19.8571 11.9445C19.9895 11.8121 20.168 11.7361 20.3552 11.7324H22.0314C22.2197 11.7324 22.4004 11.8072 22.5336 11.9404C22.6668 12.0736 22.7416 12.2543 22.7416 12.4426C22.7416 12.5359 22.7232 12.6283 22.6875 12.7144C22.6519 12.8006 22.5995 12.8789 22.5336 12.9449C22.4676 13.0108 22.3893 13.0631 22.3032 13.0988C22.217 13.1345 22.1247 13.1529 22.0314 13.1529Z" fill="black"/>
<path d="M12.4999 7.38672L13.4658 13.4236L14.4175 19.4606H12.4999H10.5681L11.534 13.4236L12.4999 7.38672Z" fill="#E42525"/>
</svg>
