<svg width="25" height="25" viewBox="0 0 25 25" fill="none" xmlns="http://www.w3.org/2000/svg">
<path d="M24.9347 8.4201C24.9202 8.19556 24.8531 7.97756 24.7389 7.7837C24.0536 6.57617 23.3356 5.36864 22.6339 4.17743C22.4908 3.87318 22.2573 3.62054 21.9652 3.45405C21.6732 3.28756 21.3368 3.21535 21.0021 3.2473C20.4146 3.2473 19.8272 3.2473 19.2071 3.2473V4.30797H21.2469C21.3322 4.31097 21.4155 4.33485 21.4895 4.37753C21.5634 4.4202 21.6258 4.48036 21.6711 4.55274C22.2749 5.53182 22.8623 6.54354 23.5151 7.63684H1.51842C2.28537 6.47826 2.93809 5.48287 3.65608 4.52011C3.72542 4.43924 3.81021 4.37305 3.90549 4.32541C4.00076 4.27777 4.1046 4.24965 4.21089 4.2427C4.68411 4.2427 5.18997 4.2427 5.84269 4.2427V3.18203C5.33683 3.18203 4.91256 3.18203 4.4883 3.18203C4.13078 3.14328 3.76978 3.21086 3.45049 3.37631C3.1312 3.54176 2.86782 3.79772 2.69332 4.11216C2.19233 4.92439 1.6476 5.70881 1.06152 6.46195C0.679078 6.9091 0.389717 7.42808 0.210389 7.98848C0.0310608 8.54888 -0.0346288 9.13943 0.0171688 9.72554C0.0987587 11.2594 0.261938 11.6021 1.77951 12.0264V23.6937C1.77951 24.526 1.89374 24.6565 2.70964 24.6565H22.2912C23.1071 24.6565 23.2377 24.526 23.2377 23.7101V12.0753C24.8695 11.6184 25 11.2921 25 9.70923C24.9347 9.26864 24.9674 8.84437 24.9347 8.4201ZM14.8339 23.6121H10.0364V16.3833H14.8339V23.6121ZM22.0791 23.6121H15.9925V16.2038C15.9925 15.4532 15.8293 15.2737 15.0623 15.2737H9.84059C9.02469 15.2737 8.91047 15.3879 8.91047 16.1875V23.6121H2.79123V12.0264H22.0791V23.6121ZM23.8414 10.313C23.8521 10.3948 23.8439 10.478 23.8173 10.5561C23.7908 10.6343 23.7466 10.7052 23.6882 10.7636C23.6299 10.8219 23.5589 10.8661 23.4808 10.8926C23.4027 10.9192 23.3195 10.9275 23.2377 10.9168H2.02428C1.11047 10.9168 1.0452 10.9168 1.0452 9.93768V8.73015H23.8904L23.8414 10.313Z" fill="black"/>
<path d="M19.1255 0.979079C19.1255 0.16318 19.0112 0 18.1953 0H6.67483C5.95684 0 5.79366 0.179498 5.77734 0.881171V4.24268C5.77734 4.84644 5.77734 5.40125 5.77734 5.97238C5.77734 6.54351 5.97316 6.75564 6.51165 6.75564H18.3911C19.0112 6.75564 19.1255 6.57615 19.1255 5.95606C19.1255 5.33598 19.1255 4.84644 19.1255 4.32427V3.18201C19.1418 2.39874 19.1418 1.68075 19.1255 0.979079ZM18.0158 5.66234H6.87065V1.15858H18.0158V5.66234Z" fill="#E42525"/>
<path d="M5.71229 19.7283H4.08049C3.98945 19.7422 3.89644 19.7344 3.80895 19.7057C3.72146 19.677 3.64196 19.6281 3.57684 19.563C3.51173 19.4978 3.46284 19.4183 3.43411 19.3309C3.40538 19.2434 3.39762 19.1504 3.41145 19.0593V16.1873C3.41145 15.7468 3.60727 15.5183 4.06417 15.5183H7.16459C7.62149 15.5183 7.81731 15.7468 7.81731 16.2037V19.043C7.81731 19.5325 7.58886 19.7447 7.11563 19.7283H5.71229ZM6.82191 16.6279H4.57003V18.6024H6.82191V16.6279Z" fill="#E42525"/>
<path d="M19.1417 19.7284H17.6241C17.1836 19.7284 16.9388 19.5326 16.9388 19.0757V16.1548C16.9247 16.068 16.9315 15.9792 16.9585 15.8955C16.9855 15.8119 17.032 15.7359 17.0941 15.6737C17.1563 15.6116 17.2323 15.5651 17.3159 15.5381C17.3996 15.5111 17.4884 15.5043 17.5752 15.5184H20.7409C20.8259 15.5064 20.9125 15.5149 20.9935 15.5432C21.0746 15.5714 21.1477 15.6187 21.2068 15.681C21.2659 15.7432 21.3092 15.8187 21.3332 15.9011C21.3572 15.9836 21.3611 16.0705 21.3446 16.1548V19.092C21.3446 19.5489 21.1162 19.7447 20.6756 19.7284H19.1417ZM20.284 16.628H18.0484V18.6025H20.284V16.628Z" fill="#E42525"/>
</svg>
