<svg width="25" height="20" viewBox="0 0 25 20" fill="none" xmlns="http://www.w3.org/2000/svg">
<path d="M23.0486 7.2027V1.04767C23.0486 0.910084 23.0215 0.77385 22.9689 0.646741C22.9162 0.519633 22.8391 0.404139 22.7418 0.306854C22.6445 0.20957 22.529 0.132399 22.4019 0.0797488C22.2748 0.0270987 22.1386 0 22.001 0H1.04767C0.769807 0 0.50333 0.110379 0.306854 0.306854C0.110379 0.50333 0 0.769807 0 1.04767V15.9769C0 16.2548 0.110379 16.5212 0.306854 16.7177C0.50333 16.9142 0.769807 17.0246 1.04767 17.0246H10.2802V18.3341H8.97064C8.79697 18.3341 8.63043 18.4031 8.50763 18.5259C8.38483 18.6487 8.31584 18.8153 8.31584 18.9889C8.31584 19.1626 8.38483 19.3291 8.50763 19.4519C8.63043 19.5747 8.79697 19.6437 8.97064 19.6437H14.0125C14.1862 19.6437 14.3527 19.5747 14.4755 19.4519C14.5983 19.3291 14.6673 19.1626 14.6673 18.9889C14.6673 18.8153 14.5983 18.6487 14.4755 18.5259C14.3527 18.4031 14.1862 18.3341 14.0125 18.3341H12.7029V17.0246H18.3341V15.715H1.30958V1.30958H21.7391V7.2027H23.0486Z" fill="black"/>
<path d="M18.727 19.6445C18.5878 19.6463 18.4496 19.6195 18.321 19.5659C18.4496 19.6195 18.5878 19.6463 18.727 19.6445V19.6445Z" fill="white"/>
<path d="M18.727 6.54793C18.5878 6.54617 18.4496 6.57291 18.321 6.62651C18.4496 6.57291 18.5878 6.54617 18.727 6.54793V6.54793Z" fill="white"/>
<path d="M24.6987 6.84961C24.8898 7.05144 24.9974 7.31813 24.9999 7.59607V18.5966C24.9974 18.8745 24.8898 19.1412 24.6987 19.343C24.8898 19.1412 24.9974 18.8745 24.9999 18.5966V7.59607C24.9974 7.31813 24.8898 7.05144 24.6987 6.84961V6.84961Z" fill="#E42525"/>
<path d="M24.9999 7.5956C25.0017 7.45753 24.9758 7.32051 24.9238 7.19261C24.8717 7.0647 24.7946 6.94851 24.697 6.85087C24.5994 6.75323 24.4832 6.67613 24.3553 6.6241C24.2273 6.57207 24.0903 6.54618 23.9523 6.54794H18.7139C18.5747 6.54618 18.4365 6.57292 18.308 6.62651C18.1173 6.70666 17.9546 6.84145 17.8404 7.01391C17.7262 7.18637 17.6656 7.38877 17.6663 7.5956V18.5961C17.6656 18.8029 17.7262 19.0053 17.8404 19.1778C17.9546 19.3502 18.1173 19.485 18.308 19.5652C18.4365 19.6188 18.5747 19.6455 18.7139 19.6438H23.9523C24.0903 19.6455 24.2273 19.6196 24.3553 19.5676C24.4832 19.5156 24.5994 19.4385 24.697 19.3408C24.7946 19.2432 24.8717 19.127 24.9238 18.9991C24.9758 18.8712 25.0017 18.7342 24.9999 18.5961V7.5956ZM23.6903 18.3342H18.9889V7.85752H23.6903V18.3342Z" fill="#E42525"/>
<path d="M7.21583 11.7072C7.0784 11.7072 6.94445 11.664 6.83296 11.5837C6.72147 11.5033 6.6381 11.3899 6.59464 11.2595C6.55118 11.1291 6.54984 10.9884 6.59082 10.8572C6.6318 10.726 6.71301 10.6111 6.82295 10.5286L14.4185 4.94981C14.4873 4.89821 14.5656 4.86067 14.6489 4.83933C14.7322 4.81799 14.8189 4.81327 14.904 4.82543C14.9891 4.83759 15.071 4.8664 15.145 4.91021C15.219 4.95402 15.2836 5.01197 15.3352 5.08076C15.3868 5.14956 15.4244 5.22783 15.4457 5.31113C15.467 5.39443 15.4718 5.48112 15.4596 5.56624C15.4475 5.65136 15.4186 5.73326 15.3748 5.80725C15.331 5.88124 15.2731 5.94588 15.2043 5.99747L7.6087 11.5763C7.49581 11.6622 7.35766 11.7082 7.21583 11.7072V11.7072Z" fill="black"/>
<path d="M6.87533 8.43335C6.77295 8.42986 6.67268 8.40332 6.58199 8.3557C6.49129 8.30809 6.41251 8.24063 6.3515 8.15834C6.25203 8.01666 6.21145 7.84189 6.23832 7.67088C6.2652 7.49987 6.35742 7.34597 6.49555 7.24163L10.6076 4.22959C10.7466 4.1254 10.9212 4.08066 11.0931 4.10522C11.265 4.12978 11.4201 4.22162 11.5243 4.36055C11.6137 4.49748 11.6497 4.66243 11.6256 4.82415C11.6015 4.98586 11.5188 5.1331 11.3934 5.23797L7.2682 8.30239C7.15325 8.38427 7.01642 8.42988 6.87533 8.43335Z" fill="black"/>
<path d="M10.7778 12.8205C10.6726 12.8222 10.5687 12.798 10.475 12.75C10.3814 12.702 10.301 12.6318 10.2409 12.5455C10.1414 12.4038 10.1009 12.229 10.1277 12.058C10.1546 11.887 10.2468 11.7331 10.385 11.6288L14.497 8.61671C14.5647 8.55435 14.6447 8.50694 14.7319 8.47758C14.8191 8.44822 14.9116 8.43758 15.0032 8.44633C15.0948 8.45509 15.1835 8.48305 15.2635 8.52839C15.3436 8.57374 15.4132 8.63545 15.4678 8.7095C15.5224 8.78356 15.5608 8.86829 15.5805 8.95818C15.6002 9.04807 15.6007 9.14109 15.582 9.23119C15.5633 9.32128 15.5258 9.40643 15.472 9.48107C15.4182 9.55571 15.3493 9.61817 15.2697 9.66438L11.1576 12.6895C11.0497 12.7753 10.9157 12.8216 10.7778 12.8205V12.8205Z" fill="black"/>
<path d="M20.3376 12.559C20.2325 12.5607 20.1285 12.5365 20.0348 12.4885C19.9412 12.4406 19.8608 12.3703 19.8007 12.284C19.7012 12.1423 19.6607 11.9676 19.6875 11.7966C19.7144 11.6255 19.8066 11.4716 19.9448 11.3673L21.7127 10.0577C21.8516 9.95352 22.0263 9.90878 22.1982 9.93334C22.3701 9.9579 22.5252 10.0497 22.6294 10.1887C22.7289 10.3304 22.7695 10.5051 22.7426 10.6761C22.7157 10.8471 22.6235 11.001 22.4854 11.1054L20.7174 12.415C20.6113 12.5055 20.4771 12.5564 20.3376 12.559Z" fill="#E42525"/>
<path d="M20.3376 15.7153C20.2325 15.717 20.1285 15.6927 20.0348 15.6448C19.9412 15.5968 19.8608 15.5266 19.8007 15.4403C19.7012 15.2986 19.6607 15.1238 19.6875 14.9528C19.7144 14.7818 19.8066 14.6279 19.9448 14.5236L21.7127 13.214C21.8516 13.1098 22.0263 13.065 22.1982 13.0896C22.3701 13.1142 22.5252 13.206 22.6294 13.3449C22.7289 13.4866 22.7695 13.6614 22.7426 13.8324C22.7157 14.0034 22.6235 14.1573 22.4854 14.2616L20.7174 15.5712C20.6113 15.6618 20.4771 15.7127 20.3376 15.7153V15.7153Z" fill="#E42525"/>
</svg>
