<svg width="25" height="25" viewBox="0 0 25 25" fill="none" xmlns="http://www.w3.org/2000/svg">
<path d="M17.4457 1.64582V7.57077H19.0915V1.31665C19.0915 0.967456 18.9528 0.63256 18.7059 0.385639C18.4589 0.138719 18.124 0 17.7748 0H1.31665C0.967456 0 0.63256 0.138719 0.385639 0.385639C0.138718 0.63256 0 0.967456 0 1.31665V23.0415C0 23.3907 0.138718 23.7256 0.385639 23.9725C0.63256 24.2194 0.967456 24.3581 1.31665 24.3581H17.7748C18.124 24.3581 18.4589 24.2194 18.7059 23.9725C18.9528 23.7256 19.0915 23.3907 19.0915 23.0415V22.2186L17.4457 21.8894V22.7123H1.64582V1.64582H17.4457Z" fill="black"/>
<path d="M15.8989 22.2349C15.9996 22.4745 16.169 22.679 16.3857 22.8225C16.6025 22.966 16.8568 23.0421 17.1168 23.0413C16.8568 23.0421 16.6025 22.966 16.3857 22.8225C16.169 22.679 15.9996 22.4745 15.8989 22.2349V22.2349Z" fill="#E42525"/>
<path d="M17.1168 6.5835C16.8568 6.58269 16.6025 6.65884 16.3857 6.80235C16.169 6.94586 15.9996 7.15032 15.8989 7.38995C15.9996 7.15032 16.169 6.94586 16.3857 6.80235C16.6025 6.65884 16.8568 6.58269 17.1168 6.5835Z" fill="#E42525"/>
<path d="M24.9015 7.38995C24.8007 7.15032 24.6313 6.94586 24.4146 6.80235C24.1979 6.65884 23.9435 6.58269 23.6836 6.5835C23.9435 6.58269 24.1979 6.65884 24.4146 6.80235C24.6313 6.94586 24.8007 7.15032 24.9015 7.38995V7.38995Z" fill="#E42525"/>
<path d="M23.6836 23.0413C23.9435 23.0421 24.1979 22.966 24.4146 22.8225C24.6313 22.679 24.8007 22.4745 24.9015 22.2349C24.8007 22.4745 24.6313 22.679 24.4146 22.8225C24.1979 22.966 23.9435 23.0421 23.6836 23.0413V23.0413Z" fill="#E42525"/>
<path d="M24.901 7.38995C24.8003 7.15032 24.6309 6.94586 24.4141 6.80235C24.1974 6.65884 23.943 6.58269 23.6831 6.5835H17.0998C16.8399 6.58269 16.5855 6.65884 16.3688 6.80235C16.152 6.94586 15.9826 7.15032 15.8819 7.38995C15.8158 7.5519 15.7823 7.72526 15.7832 7.90016V21.725C15.7823 21.8999 15.8158 22.0733 15.8819 22.2352C15.9826 22.4749 16.152 22.6793 16.3688 22.8228C16.5855 22.9664 16.8399 23.0425 17.0998 23.0417H23.6831C23.943 23.0425 24.1974 22.9664 24.4141 22.8228C24.6309 22.6793 24.8003 22.4749 24.901 22.2352C24.9671 22.0733 25.0006 21.8999 24.9997 21.725V7.90016C25.0006 7.72526 24.9671 7.5519 24.901 7.38995V7.38995ZM23.3539 21.3959H17.4454V8.22932H23.3539V21.3959Z" fill="#E42525"/>
<path d="M5.85926 14.1376C5.72959 14.1384 5.6017 14.1073 5.48689 14.0471C5.37208 13.9868 5.27387 13.8992 5.20093 13.7919C5.13433 13.7077 5.0856 13.6108 5.05773 13.507C5.02986 13.4033 5.02343 13.295 5.03884 13.1887C5.05424 13.0824 5.09116 12.9804 5.14732 12.8889C5.20349 12.7973 5.27773 12.7182 5.36551 12.6563L12.8375 7.22513C13.0121 7.09418 13.2316 7.03796 13.4477 7.06882C13.6637 7.09969 13.8587 7.21511 13.9896 7.38971C14.1146 7.56777 14.1656 7.78741 14.1318 8.00233C14.0981 8.21725 13.9822 8.41066 13.8086 8.54179L6.41884 13.973C6.25938 14.0957 6.05978 14.1544 5.85926 14.1376Z" fill="black"/>
<path d="M5.05245 10.3023C4.92304 10.3017 4.79567 10.27 4.68108 10.2099C4.5665 10.1497 4.46808 10.0629 4.39413 9.95666C4.33179 9.86722 4.28785 9.76629 4.26485 9.65972C4.24186 9.55315 4.24027 9.44307 4.26017 9.33588C4.28008 9.22869 4.32109 9.12653 4.38081 9.03532C4.44054 8.94412 4.51779 8.86569 4.60808 8.80459L8.57451 5.87503C8.74911 5.74409 8.96857 5.68786 9.18463 5.71872C9.40069 5.74959 9.59563 5.86502 9.72658 6.03962C9.85159 6.21767 9.90258 6.43731 9.86881 6.65223C9.83504 6.86715 9.71914 7.06056 9.54554 7.19169L5.5462 10.1377C5.40173 10.2406 5.22977 10.2979 5.05245 10.3023Z" fill="black"/>
<path d="M9.82589 15.8992C9.69836 15.898 9.57279 15.8677 9.45872 15.8107C9.34465 15.7536 9.24508 15.6714 9.16756 15.5701C9.03661 15.3955 8.98038 15.176 9.01125 14.96C9.04211 14.7439 9.15754 14.549 9.33214 14.418L13.3479 11.5214C13.5247 11.3926 13.7454 11.3393 13.9615 11.3733C14.1775 11.4072 14.3712 11.5256 14.5 11.7024C14.6288 11.8792 14.682 12.0999 14.6481 12.3159C14.6141 12.532 14.4958 12.7257 14.319 12.8545L10.3196 15.7511C10.1729 15.8473 10.0013 15.8988 9.82589 15.8992Z" fill="black"/>
<path d="M19.1409 14.1377C19.0088 14.1398 18.8781 14.1094 18.7604 14.0491C18.6427 13.9888 18.5417 13.9006 18.4662 13.7921C18.3412 13.614 18.2902 13.3944 18.3239 13.1795C18.3577 12.9645 18.4736 12.7711 18.6472 12.64L20.8691 10.9942C21.0437 10.8632 21.2631 10.807 21.4792 10.8379C21.6952 10.8687 21.8902 10.9842 22.0211 11.1588C22.1461 11.3368 22.1971 11.5565 22.1634 11.7714C22.1296 11.9863 22.0137 12.1797 21.8401 12.3108L19.6182 13.9566C19.4849 14.0704 19.3162 14.1344 19.1409 14.1377V14.1377Z" fill="#E42525"/>
<path d="M19.1409 18.1045C19.0088 18.1066 18.8781 18.0762 18.7604 18.0159C18.6427 17.9556 18.5417 17.8674 18.4662 17.7589C18.3412 17.5808 18.2902 17.3612 18.3239 17.1463C18.3577 16.9313 18.4736 16.7379 18.6472 16.6068L20.8691 14.961C21.0437 14.83 21.2631 14.7738 21.4792 14.8047C21.6952 14.8355 21.8902 14.951 22.0211 15.1256C22.1461 15.3036 22.1971 15.5232 22.1634 15.7382C22.1296 15.9531 22.0137 16.1465 21.8401 16.2776L19.6182 17.9234C19.4849 18.0372 19.3162 18.1012 19.1409 18.1045V18.1045Z" fill="#E42525"/>
<path d="M10.8623 21.6092H8.95316C8.73623 21.605 8.52936 21.5169 8.37594 21.3635C8.22251 21.2101 8.13446 21.0032 8.13025 20.7863C8.13025 20.568 8.21695 20.3587 8.37127 20.2044C8.5256 20.0501 8.73491 19.9634 8.95316 19.9634H10.8623C11.0806 19.9634 11.2899 20.0501 11.4442 20.2044C11.5985 20.3587 11.6852 20.568 11.6852 20.7863C11.6852 21.0045 11.5985 21.2138 11.4442 21.3682C11.2899 21.5225 11.0806 21.6092 10.8623 21.6092Z" fill="black"/>
</svg>
