<svg width="19" height="25" viewBox="0 0 19 25" fill="none" xmlns="http://www.w3.org/2000/svg">
<path d="M13.7926 0H1.13636C0.834981 0 0.545943 0.119724 0.332833 0.332833C0.119723 0.545943 0 0.834981 0 1.13636V23.8636C0 24.165 0.119723 24.4541 0.332833 24.6672C0.545943 24.8803 0.834981 25 1.13636 25H17.0455C17.3468 25 17.6359 24.8803 17.849 24.6672C18.0621 24.4541 18.1818 24.165 18.1818 23.8636V4.43182L13.7926 0ZM16.2074 4.50284H13.7784V1.96023L16.2074 4.50284ZM1.42045 23.5227V1.42045H12.358V5.15625C12.3585 5.24914 12.3776 5.34099 12.4142 5.42637C12.4508 5.51176 12.5041 5.58895 12.571 5.65341C12.7082 5.78684 12.891 5.86303 13.0824 5.86648H16.7614V23.5227H1.42045Z" fill="black"/>
<path d="M8.19604 15.1705V12.5427H9.6165C10.061 12.5427 10.4874 12.3661 10.8017 12.0518C11.116 11.7374 11.2926 11.3111 11.2926 10.8665C11.2926 10.422 11.116 9.99567 10.8017 9.68134C10.4874 9.367 10.061 9.19041 9.6165 9.19041H8.62218C8.18011 9.19415 7.75742 9.3724 7.44615 9.68633C7.13487 10.0003 6.96023 10.4245 6.96025 10.8665H5.5398C5.53959 10.0386 5.86355 9.24349 6.44232 8.65144C7.02109 8.0594 7.80865 7.71749 8.63639 7.69893H9.6307C10.4708 7.68951 11.2802 8.01421 11.8809 8.60159C12.4816 9.18898 12.8244 9.99093 12.8338 10.831C12.8432 11.6711 12.5185 12.4806 11.9312 13.0813C11.3438 13.682 10.5418 14.0247 9.70173 14.0342V15.1705H8.19604Z" fill="#E42525"/>
<path d="M8.94891 18.6512C9.49805 18.6512 9.94323 18.2061 9.94323 17.6569C9.94323 17.1078 9.49805 16.6626 8.94891 16.6626C8.39976 16.6626 7.95459 17.1078 7.95459 17.6569C7.95459 18.2061 8.39976 18.6512 8.94891 18.6512Z" fill="#E42525"/>
</svg>
