<svg width="19" height="25" viewBox="0 0 19 25" fill="none" xmlns="http://www.w3.org/2000/svg">
<path d="M16.7328 1.46058V19.8951L13.1736 23.5394H1.41804V1.46058H16.7328ZM17.0164 0.0425411H1.13443C0.83356 0.0425411 0.545013 0.162061 0.332267 0.374808C0.11952 0.587555 0 0.876101 0 1.17697V23.8656C0 24.1664 0.11952 24.455 0.332267 24.6677C0.545013 24.8805 0.83356 25 1.13443 25H13.7691L18.1509 20.519V1.13443C18.1509 0.985454 18.1215 0.837938 18.0645 0.700302C18.0075 0.562667 17.924 0.437608 17.8186 0.332267C17.7133 0.226925 17.5882 0.143364 17.4506 0.0863534C17.3129 0.0293429 17.1654 0 17.0164 0V0.0425411Z" fill="black"/>
<path d="M17.2858 20.462H13.0317C12.8436 20.462 12.6633 20.3873 12.5303 20.2543C12.3974 20.1213 12.3227 19.941 12.3227 19.753C12.3227 19.5649 12.3974 19.3846 12.5303 19.2516C12.6633 19.1186 12.8436 19.0439 13.0317 19.0439H17.2858C17.4738 19.0439 17.6542 19.1186 17.7871 19.2516C17.9201 19.3846 17.9948 19.5649 17.9948 19.753C17.9948 19.941 17.9201 20.1213 17.7871 20.2543C17.6542 20.3873 17.4738 20.462 17.2858 20.462Z" fill="black"/>
<path d="M13.0462 24.7019C12.8582 24.7019 12.6778 24.6272 12.5449 24.4943C12.4119 24.3613 12.3372 24.181 12.3372 23.9929V19.7388C12.3372 19.5508 12.4119 19.3704 12.5449 19.2375C12.6778 19.1045 12.8582 19.0298 13.0462 19.0298C13.2343 19.0298 13.4146 19.1045 13.5476 19.2375C13.6805 19.3704 13.7552 19.5508 13.7552 19.7388V23.9929C13.7552 24.181 13.6805 24.3613 13.5476 24.4943C13.4146 24.6272 13.2343 24.7019 13.0462 24.7019Z" fill="black"/>
<path d="M12.1811 9.40137L13.5991 10.8194L7.75681 16.4916L4.39606 13.1308L5.81409 11.7128L7.78517 13.7264L12.1811 9.40137Z" fill="#E42525"/>
</svg>
