<svg width="24" height="32" viewBox="0 0 24 32" fill="none" xmlns="http://www.w3.org/2000/svg">
<path fill-rule="evenodd" clip-rule="evenodd" d="M1.9998 32C0.8964 32 0 31.1036 0 30.0002V1.99977C0 0.896389 0.8964 0 1.9998 0H16.0002L23.9994 7.9991V30.0002C23.9994 31.1036 23.103 32 21.9996 32H1.9998ZM1.9998 30.0002H21.9996V9.99432L16.074 9.97548C14.9796 9.97188 14.0922 9.08989 14.0796 7.9955L14.0202 1.99977H1.9998V30.0002ZM16.0812 7.9757L21.1621 7.99116L16.0286 2.85638L16.0812 7.9757Z" fill="black"/>
<path d="M6 17.9998H18V19.9998H6V17.9998Z" fill="black"/>
<path d="M6 23.9997H18V25.9997H6V23.9997Z" fill="black"/>
</svg>
