<svg width="21" height="25" viewBox="0 0 21 25" fill="none" xmlns="http://www.w3.org/2000/svg">
<path d="M13.5782 5.35147H3.70442C3.52961 5.35147 3.36196 5.28203 3.23834 5.15842C3.11473 5.0348 3.04529 4.86715 3.04529 4.69234C3.04529 4.51752 3.11473 4.34987 3.23834 4.22626C3.36196 4.10265 3.52961 4.0332 3.70442 4.0332H13.5782C13.7531 4.0332 13.9207 4.10265 14.0443 4.22626C14.1679 4.34987 14.2374 4.51752 14.2374 4.69234C14.2374 4.86715 14.1679 5.0348 14.0443 5.15842C13.9207 5.28203 13.7531 5.35147 13.5782 5.35147Z" fill="black"/>
<path d="M13.5782 8.56876H3.70442C3.52961 8.56876 3.36196 8.49931 3.23834 8.3757C3.11473 8.25209 3.04529 8.08444 3.04529 7.90962C3.04529 7.73481 3.11473 7.56716 3.23834 7.44354C3.36196 7.31993 3.52961 7.25049 3.70442 7.25049H13.5782C13.7531 7.25049 13.9207 7.31993 14.0443 7.44354C14.1679 7.56716 14.2374 7.73481 14.2374 7.90962C14.2374 8.08444 14.1679 8.25209 14.0443 8.3757C13.9207 8.49931 13.7531 8.56876 13.5782 8.56876Z" fill="black"/>
<path d="M8.8193 11.786H3.70442C3.52961 11.786 3.36196 11.7166 3.23834 11.593C3.11473 11.4694 3.04529 11.3017 3.04529 11.1269C3.04529 10.9521 3.11473 10.7844 3.23834 10.6608C3.36196 10.5372 3.52961 10.4678 3.70442 10.4678H8.8193C8.99306 10.4711 9.15876 10.5417 9.28165 10.6646C9.40453 10.7875 9.47506 10.9532 9.47844 11.1269C9.47844 11.3017 9.40899 11.4694 9.28538 11.593C9.16177 11.7166 8.99412 11.786 8.8193 11.786Z" fill="black"/>
<path d="M15.4238 23.07H12.9191C12.7443 23.07 12.5766 23.0005 12.453 22.8769C12.3294 22.7533 12.2599 22.5856 12.2599 22.4108C12.2599 22.236 12.3294 22.0684 12.453 21.9448C12.5766 21.8211 12.7443 21.7517 12.9191 21.7517H15.4238C15.4762 21.7535 15.5285 21.7446 15.5773 21.7253C15.6261 21.7061 15.6704 21.6771 15.7075 21.64C15.7446 21.6029 15.7737 21.5585 15.7929 21.5097C15.8121 21.4609 15.8211 21.4086 15.8193 21.3562V18.7197C15.8193 18.5449 15.8887 18.3772 16.0123 18.2536C16.1359 18.13 16.3036 18.0605 16.4784 18.0605C16.6532 18.0605 16.8209 18.13 16.9445 18.2536C17.0681 18.3772 17.1375 18.5449 17.1375 18.7197V21.3562C17.1375 21.8107 16.957 22.2466 16.6356 22.568C16.3142 22.8894 15.8783 23.07 15.4238 23.07V23.07Z" fill="black"/>
<path d="M8.43691 23.0697H1.71375C1.25923 23.0697 0.823336 22.8891 0.501945 22.5677C0.180555 22.2464 0 21.8105 0 21.3559V1.71375C0 1.25923 0.180555 0.823335 0.501945 0.501945C0.823336 0.180555 1.25923 0 1.71375 0H15.4237C15.6488 0 15.8716 0.0443274 16.0796 0.130451C16.2875 0.216575 16.4764 0.342809 16.6355 0.501945C16.7947 0.661082 16.9209 0.850004 17.007 1.05793C17.0932 1.26585 17.1375 1.4887 17.1375 1.71375V13.064C17.1375 13.2388 17.068 13.4065 16.9444 13.5301C16.8208 13.6537 16.6532 13.7232 16.4783 13.7232C16.3035 13.7232 16.1359 13.6537 16.0123 13.5301C15.8887 13.4065 15.8192 13.2388 15.8192 13.064V1.71375C15.8192 1.60886 15.7775 1.50827 15.7034 1.4341C15.6292 1.35993 15.5286 1.31827 15.4237 1.31827H1.71375C1.60991 1.32157 1.51122 1.36429 1.43776 1.43776C1.36429 1.51122 1.32157 1.60991 1.31827 1.71375V21.3559C1.31827 21.4608 1.35993 21.5614 1.4341 21.6356C1.50827 21.7098 1.60886 21.7514 1.71375 21.7514H8.43691C8.61173 21.7514 8.77938 21.8209 8.90299 21.9445C9.0266 22.0681 9.09605 22.2357 9.09605 22.4106C9.09605 22.5854 9.0266 22.753 8.90299 22.8766C8.77938 23.0002 8.61173 23.0697 8.43691 23.0697Z" fill="black"/>
<path d="M16.2014 12.4844L8.42366 20.249C8.37168 20.3115 8.33148 20.383 8.30501 20.4599L7.36904 24.1774C7.34289 24.2899 7.34613 24.4072 7.37846 24.518C7.41078 24.6288 7.4711 24.7294 7.5536 24.8102C7.63366 24.8893 7.73263 24.9465 7.84108 24.9765C7.94954 25.0065 8.06387 25.0083 8.17319 24.9816L11.9039 24.0456C11.9967 24.0156 12.0821 23.9662 12.1544 23.9006V23.9006L19.9058 16.2151C20.1334 15.9928 20.3142 15.7273 20.4377 15.4341C20.5612 15.141 20.6248 14.826 20.6248 14.5079C20.6248 14.1898 20.5612 13.8749 20.4377 13.5817C20.3142 13.2885 20.1334 13.023 19.9058 12.8008L19.5235 12.4317C19.073 12.0038 18.4728 11.7697 17.8517 11.7796C17.2306 11.7895 16.6381 12.0425 16.2014 12.4844V12.4844ZM10.4011 23.1624L8.87187 23.5447L9.25416 22.0286L10.4011 23.1624ZM9.8342 20.7104L16.1092 14.4354L17.9679 16.3074L11.693 22.5823L9.8342 20.7104ZM19.0621 13.7895C19.2593 13.9872 19.3701 14.255 19.3701 14.5343C19.3701 14.8136 19.2593 15.0814 19.0621 15.2791L18.9698 15.3714L17.111 13.4995L17.2033 13.4072C17.401 13.2099 17.6689 13.0992 17.9481 13.0992C18.2274 13.0992 18.4953 13.2099 18.693 13.4072L19.0621 13.7895Z" fill="#E42525"/>
</svg>
