<svg width="19" height="25" viewBox="0 0 19 25" fill="none" xmlns="http://www.w3.org/2000/svg">
<path d="M16.7614 1.42045V23.5795H1.42045V1.42045H16.7614ZM17.0455 0H1.13636C0.834981 0 0.545943 0.119724 0.332833 0.332833C0.119723 0.545943 0 0.834981 0 1.13636V23.8636C0 24.165 0.119723 24.4541 0.332833 24.6672C0.545943 24.8803 0.834981 25 1.13636 25H17.0455C17.1947 25 17.3425 24.9706 17.4803 24.9135C17.6182 24.8564 17.7435 24.7727 17.849 24.6672C17.9545 24.5616 18.0382 24.4364 18.0953 24.2985C18.1524 24.1606 18.1818 24.0129 18.1818 23.8636V1.13636C18.1818 0.987134 18.1524 0.839366 18.0953 0.701496C18.0382 0.563626 17.9545 0.438354 17.849 0.332833C17.7435 0.227312 17.6182 0.143608 17.4803 0.0865006C17.3425 0.0293929 17.1947 0 17.0455 0V0Z" fill="black"/>
<path d="M14.9146 7.48588H9.36062C9.17225 7.48588 8.9916 7.41106 8.85841 7.27786C8.72522 7.14467 8.65039 6.96402 8.65039 6.77566C8.65039 6.58729 8.72522 6.40664 8.85841 6.27345C8.9916 6.14026 9.17225 6.06543 9.36062 6.06543H14.872C15.0603 6.06543 15.241 6.14026 15.3742 6.27345C15.5074 6.40664 15.5822 6.58729 15.5822 6.77566C15.5825 6.95687 15.5136 7.13134 15.3895 7.26338C15.2654 7.39541 15.0955 7.47501 14.9146 7.48588Z" fill="black"/>
<path d="M14.9146 13.1675H9.36062C9.17225 13.1675 8.9916 13.0927 8.85841 12.9595C8.72522 12.8263 8.65039 12.6457 8.65039 12.4573C8.65039 12.2689 8.72522 12.0883 8.85841 11.9551C8.9916 11.8219 9.17225 11.7471 9.36062 11.7471H14.872C15.0603 11.7471 15.241 11.8219 15.3742 11.9551C15.5074 12.0883 15.5822 12.2689 15.5822 12.4573C15.5825 12.6385 15.5136 12.813 15.3895 12.945C15.2654 13.0771 15.0955 13.1567 14.9146 13.1675Z" fill="black"/>
<path d="M14.9146 19.105H9.36062C9.17225 19.105 8.9916 19.0302 8.85841 18.897C8.72522 18.7638 8.65039 18.5832 8.65039 18.3948C8.65039 18.2064 8.72522 18.0258 8.85841 17.8926C8.9916 17.7594 9.17225 17.6846 9.36062 17.6846H14.872C15.0603 17.6846 15.241 17.7594 15.3742 17.8926C15.5074 18.0258 15.5822 18.2064 15.5822 18.3948C15.5822 18.5832 15.5074 18.7638 15.3742 18.897C15.241 19.0302 15.0603 19.105 14.872 19.105H14.9146Z" fill="black"/>
<path d="M4.65873 8.74995C4.56495 8.74678 4.47274 8.72507 4.3874 8.68606C4.30207 8.64705 4.22532 8.59152 4.16157 8.52267L2.96838 7.3437C2.90182 7.27767 2.84898 7.19912 2.81292 7.11257C2.77687 7.02602 2.7583 6.93319 2.7583 6.83944C2.7583 6.74568 2.77687 6.65285 2.81292 6.5663C2.84898 6.47975 2.90182 6.4012 2.96838 6.33517C3.10354 6.20414 3.2844 6.13086 3.47265 6.13086C3.6609 6.13086 3.84175 6.20414 3.97691 6.33517L5.17009 7.54256C5.30022 7.67532 5.37311 7.85382 5.37311 8.03972C5.37311 8.22562 5.30022 8.40412 5.17009 8.53688C5.03459 8.67284 4.85068 8.74948 4.65873 8.74995V8.74995Z" fill="#E42525"/>
<path d="M4.65924 8.74989C4.52023 8.74794 4.38485 8.70523 4.26988 8.62707C4.15491 8.5489 4.06541 8.43871 4.01248 8.31016C3.95955 8.1816 3.94551 8.04034 3.9721 7.90389C3.99869 7.76743 4.06475 7.64178 4.16208 7.54251L6.70469 4.99989C6.76846 4.93195 6.84547 4.8778 6.93098 4.84078C7.01649 4.80377 7.10867 4.78467 7.20185 4.78467C7.29503 4.78467 7.38721 4.80377 7.47272 4.84078C7.55823 4.8778 7.63524 4.93195 7.69901 4.99989C7.76558 5.06592 7.81841 5.14447 7.85447 5.23102C7.89053 5.31757 7.90909 5.4104 7.90909 5.50415C7.90909 5.59791 7.89053 5.69074 7.85447 5.77729C7.81841 5.86384 7.76558 5.94239 7.69901 6.00842L5.1706 8.52262C5.10469 8.59252 5.02554 8.64861 4.93775 8.68763C4.84996 8.72664 4.75528 8.74781 4.65924 8.74989V8.74989Z" fill="#E42525"/>
<path d="M4.65873 14.2045C4.47139 14.2019 4.2927 14.1253 4.16157 13.9915L2.96838 12.7983C2.90182 12.7323 2.84898 12.6537 2.81292 12.5672C2.77687 12.4806 2.7583 12.3878 2.7583 12.294C2.7583 12.2003 2.77687 12.1074 2.81292 12.0209C2.84898 11.9343 2.90182 11.8558 2.96838 11.7898C3.10354 11.6587 3.2844 11.5854 3.47265 11.5854C3.6609 11.5854 3.84175 11.6587 3.97691 11.7898L5.17009 12.9971C5.30022 13.1299 5.37311 13.3084 5.37311 13.4943C5.37311 13.6802 5.30022 13.8587 5.17009 13.9915C5.03459 14.1274 4.85068 14.2041 4.65873 14.2045V14.2045Z" fill="#E42525"/>
<path d="M4.65924 14.2048C4.52023 14.2028 4.38485 14.1601 4.26988 14.082C4.15491 14.0038 4.06541 13.8936 4.01248 13.7651C3.95955 13.6365 3.94551 13.4952 3.9721 13.3588C3.99869 13.2223 4.06475 13.0967 4.16208 12.9974L6.70469 10.5116C6.83745 10.3815 7.01595 10.3086 7.20185 10.3086C7.38775 10.3086 7.56625 10.3815 7.69901 10.5116C7.76558 10.5776 7.81841 10.6562 7.85447 10.7427C7.89053 10.8293 7.90909 10.9221 7.90909 11.0159C7.90909 11.1096 7.89053 11.2025 7.85447 11.289C7.81841 11.3756 7.76558 11.4541 7.69901 11.5201L5.1706 14.0485C5.02631 14.1639 4.84338 14.2198 4.65924 14.2048V14.2048Z" fill="#E42525"/>
<path d="M5.25609 17.4005C5.45334 17.4005 5.64614 17.4592 5.80995 17.5691C5.97375 17.679 6.10117 17.8351 6.176 18.0176C6.25082 18.2002 6.26966 18.4008 6.23013 18.5941C6.1906 18.7873 6.09448 18.9644 5.954 19.1029C5.81351 19.2414 5.63502 19.335 5.44121 19.3717C5.24741 19.4085 5.04705 19.3867 4.86563 19.3093C4.68421 19.2318 4.52992 19.1022 4.42239 18.9368C4.31486 18.7714 4.25895 18.5778 4.26177 18.3806C4.26175 18.2507 4.28757 18.1221 4.33771 18.0022C4.38785 17.8824 4.46132 17.7737 4.55384 17.6825C4.64636 17.5913 4.75609 17.5194 4.87665 17.471C4.99721 17.4226 5.12618 17.3986 5.25609 17.4005V17.4005ZM5.25609 15.98C4.77729 15.9772 4.30847 16.1168 3.90919 16.3811C3.50991 16.6453 3.19821 17.0223 3.01368 17.4641C2.82916 17.9059 2.78014 18.3926 2.87286 18.8624C2.96558 19.3321 3.19585 19.7637 3.53442 20.1023C3.87298 20.4408 4.30456 20.6711 4.7743 20.7638C5.24404 20.8565 5.73074 20.8075 6.17255 20.623C6.61437 20.4385 6.99136 20.1268 7.25561 19.7275C7.51987 19.3282 7.65946 18.8594 7.65665 18.3806C7.65293 17.7451 7.39881 17.1366 6.94942 16.6873C6.50004 16.2379 5.89161 15.9837 5.25609 15.98V15.98Z" fill="black"/>
</svg>
