<svg width="19" height="25" viewBox="0 0 19 25" fill="none" xmlns="http://www.w3.org/2000/svg">
<path d="M14.5028 5.82329H3.86355C3.67518 5.82329 3.49453 5.74846 3.36134 5.61527C3.22815 5.48207 3.15332 5.30142 3.15332 5.11306C3.15332 4.9247 3.22815 4.74405 3.36134 4.61085C3.49453 4.47766 3.67518 4.40283 3.86355 4.40283H14.5028C14.6911 4.40283 14.8718 4.47766 15.005 4.61085C15.1382 4.74405 15.213 4.9247 15.213 5.11306C15.213 5.30142 15.1382 5.48207 15.005 5.61527C14.8718 5.74846 14.6911 5.82329 14.5028 5.82329Z" fill="#E42525"/>
<path d="M14.5028 9.30376H3.86355C3.67518 9.30376 3.49453 9.22893 3.36134 9.09573C3.22815 8.96254 3.15332 8.78189 3.15332 8.59353C3.15332 8.40516 3.22815 8.22451 3.36134 8.09132C3.49453 7.95813 3.67518 7.8833 3.86355 7.8833H14.5028C14.6911 7.8833 14.8718 7.95813 15.005 8.09132C15.1382 8.22451 15.213 8.40516 15.213 8.59353C15.213 8.78189 15.1382 8.96254 15.005 9.09573C14.8718 9.22893 14.6911 9.30376 14.5028 9.30376Z" fill="#E42525"/>
<path d="M9.38912 12.7842H3.86355C3.67518 12.7842 3.49453 12.7094 3.36134 12.5762C3.22815 12.443 3.15332 12.2624 3.15332 12.074C3.15332 11.8856 3.22815 11.705 3.36134 11.5718C3.49453 11.4386 3.67518 11.3638 3.86355 11.3638H9.38912C9.57748 11.3638 9.75813 11.4386 9.89132 11.5718C10.0245 11.705 10.0993 11.8856 10.0993 12.074C10.0993 12.2624 10.0245 12.443 9.89132 12.5762C9.75813 12.7094 9.57748 12.7842 9.38912 12.7842Z" fill="#E42525"/>
<path d="M17.0455 8.89968e-07H1.13636C0.834981 8.89968e-07 0.545943 0.119725 0.332833 0.332834C0.119723 0.545944 0 0.834982 0 1.13636V23.8636C0 24.165 0.119723 24.4541 0.332833 24.6672C0.545943 24.8803 0.834981 25 1.13636 25H13.7926L18.1818 20.5114V1.07955C18.1672 0.788119 18.0411 0.513472 17.8295 0.312501C17.618 0.111529 17.3372 -0.000364067 17.0455 8.89968e-07ZM1.42045 1.42046H16.7614V19.0199H13.0824C12.8903 19.0199 12.706 19.0962 12.5701 19.2321C12.4343 19.3679 12.358 19.5522 12.358 19.7443V23.5227H1.42045V1.42046ZM13.7784 22.983V20.4403H16.2074L13.7784 22.983Z" fill="black"/>
</svg>
