<svg width="21" height="25" viewBox="0 0 21 25" fill="none" xmlns="http://www.w3.org/2000/svg">
<path d="M19.1687 0H6.51245C6.06352 0 5.63297 0.178338 5.31553 0.495783C4.99808 0.813227 4.81975 1.24377 4.81975 1.69271V2.60417H3.77808C3.32914 2.60417 2.8986 2.78251 2.58115 3.09995C2.26371 3.41739 2.08537 3.84794 2.08537 4.29688V5.14323H1.0437C0.901255 5.14295 0.760262 5.17189 0.629442 5.22826C0.498622 5.28464 0.380755 5.36724 0.283125 5.47097C0.185496 5.5747 0.110179 5.69736 0.0618319 5.83135C0.0134845 5.96534 -0.00686664 6.10783 0.00203669 6.25V23.9583C0.00203669 24.2346 0.111784 24.4996 0.307134 24.6949C0.502484 24.8903 0.767436 25 1.0437 25H14.325C14.6012 25 14.8662 24.8903 15.0615 24.6949C15.2569 24.4996 15.3666 24.2346 15.3666 23.9583V22.9297H16.3822C16.8312 22.9297 17.2617 22.7513 17.5792 22.4339C17.8966 22.1165 18.075 21.6859 18.075 21.237V20.3255H19.1166C19.3389 20.3255 19.559 20.2817 19.7644 20.1967C19.9698 20.1116 20.1564 19.9869 20.3135 19.8297C20.4707 19.6726 20.5954 19.486 20.6805 19.2806C20.7655 19.0752 20.8093 18.8551 20.8093 18.6328V1.69271C20.8095 1.25265 20.6384 0.829816 20.3321 0.513827C20.0258 0.197838 19.6085 0.0135401 19.1687 0V0ZM14.1166 23.6979H1.30412V6.44531H14.1166V23.6979ZM16.825 21.237C16.825 21.3406 16.7838 21.4399 16.7105 21.5132C16.6373 21.5864 16.5379 21.6276 16.4343 21.6276H15.4187V6.25C15.4187 5.97373 15.309 5.70878 15.1136 5.51343C14.9183 5.31808 14.6533 5.20833 14.377 5.20833H3.36141V4.29688C3.36141 4.19327 3.40257 4.09392 3.47582 4.02066C3.54908 3.94741 3.64844 3.90625 3.75204 3.90625H16.4343C16.4861 3.90443 16.5377 3.91329 16.5859 3.93228C16.6342 3.95127 16.6779 3.97997 16.7146 4.01661C16.7512 4.05326 16.7799 4.09705 16.7989 4.14526C16.8179 4.19348 16.8268 4.24509 16.825 4.29688V21.237ZM19.5593 18.6328C19.5593 18.7364 19.5182 18.8358 19.4449 18.909C19.3717 18.9823 19.2723 19.0234 19.1687 19.0234H18.127V4.29688C18.127 3.84794 17.9487 3.41739 17.6313 3.09995C17.3138 2.78251 16.8833 2.60417 16.4343 2.60417H6.09579V1.69271C6.09567 1.63914 6.10657 1.58613 6.1278 1.53695C6.14904 1.48778 6.18017 1.4435 6.21925 1.40686C6.25832 1.37023 6.30452 1.34202 6.35496 1.324C6.4054 1.30597 6.45901 1.29851 6.51245 1.30208H19.1947C19.2465 1.30026 19.2981 1.30912 19.3464 1.32811C19.3946 1.3471 19.4384 1.37581 19.475 1.41245C19.5116 1.44909 19.5404 1.49288 19.5593 1.5411C19.5783 1.58931 19.5872 1.64092 19.5854 1.69271L19.5593 18.6328Z" fill="black"/>
<path d="M12.2157 9.49202H2.97087C2.7982 9.49202 2.6326 9.42343 2.51051 9.30134C2.38842 9.17925 2.31982 9.01365 2.31982 8.84098C2.31982 8.66832 2.38842 8.50272 2.51051 8.38063C2.6326 8.25853 2.7982 8.18994 2.97087 8.18994H12.2157C12.3883 8.18994 12.5539 8.25853 12.676 8.38063C12.7981 8.50272 12.8667 8.66832 12.8667 8.84098C12.8634 9.01261 12.7937 9.17627 12.6723 9.29765C12.5509 9.41903 12.3873 9.48869 12.2157 9.49202V9.49202Z" fill="#E42525"/>
<path d="M12.2157 12.4993H2.97087C2.7982 12.4993 2.6326 12.4308 2.51051 12.3087C2.38842 12.1866 2.31982 12.021 2.31982 11.8483C2.31982 11.6756 2.38842 11.51 2.51051 11.388C2.6326 11.2659 2.7982 11.1973 2.97087 11.1973H12.2157C12.3883 11.1973 12.5539 11.2659 12.676 11.388C12.7981 11.51 12.8667 11.6756 12.8667 11.8483C12.8667 12.021 12.7981 12.1866 12.676 12.3087C12.5539 12.4308 12.3883 12.4993 12.2157 12.4993V12.4993Z" fill="#E42525"/>
<path d="M7.81462 15.5081H2.97087C2.7982 15.5081 2.6326 15.4395 2.51051 15.3175C2.38842 15.1954 2.31982 15.0298 2.31982 14.8571C2.31982 14.6844 2.38842 14.5188 2.51051 14.3967C2.6326 14.2746 2.7982 14.2061 2.97087 14.2061H7.81462C7.98728 14.2061 8.15288 14.2746 8.27497 14.3967C8.39707 14.5188 8.46566 14.6844 8.46566 14.8571C8.46566 15.0298 8.39707 15.1954 8.27497 15.3175C8.15288 15.4395 7.98728 15.5081 7.81462 15.5081Z" fill="#E42525"/>
</svg>
