<svg width="22" height="25" viewBox="0 0 22 25" fill="none" xmlns="http://www.w3.org/2000/svg">
<path d="M11.1465 19.586C10.9354 19.586 10.7329 19.5021 10.5835 19.3528C10.4342 19.2035 10.3503 19.001 10.3503 18.7898V0.796178C10.3503 0.585019 10.4342 0.382508 10.5835 0.233195C10.7329 0.0838828 10.9354 0 11.1465 0C11.3577 0 11.5602 0.0838828 11.7095 0.233195C11.8588 0.382508 11.9427 0.585019 11.9427 0.796178V18.7898C11.9427 19.001 11.8588 19.2035 11.7095 19.3528C11.5602 19.5021 11.3577 19.586 11.1465 19.586Z" fill="#E42525"/>
<path d="M19.9045 25H2.07006C1.52105 25 0.99452 24.7819 0.606308 24.3937C0.218095 24.0055 0 23.479 0 22.93V18.7898C0 18.5787 0.0838826 18.3762 0.233195 18.2268C0.382507 18.0775 0.585019 17.9937 0.796178 17.9937C1.00734 17.9937 1.20985 18.0775 1.35916 18.2268C1.50847 18.3762 1.59236 18.5787 1.59236 18.7898V22.93C1.59013 22.9933 1.60097 23.0564 1.62419 23.1154C1.64741 23.1743 1.68251 23.2279 1.72733 23.2727C1.77214 23.3175 1.82569 23.3526 1.88465 23.3758C1.94362 23.3991 2.00673 23.4099 2.07006 23.4077H19.9045C19.9678 23.4099 20.0309 23.3991 20.0899 23.3758C20.1488 23.3526 20.2024 23.3175 20.2472 23.2727C20.292 23.2279 20.3271 23.1743 20.3503 23.1154C20.3736 23.0564 20.3844 22.9933 20.3822 22.93V18.7898C20.3822 18.5787 20.466 18.3762 20.6154 18.2268C20.7647 18.0775 20.9672 17.9937 21.1783 17.9937C21.3895 17.9937 21.592 18.0775 21.7413 18.2268C21.8906 18.3762 21.9745 18.5787 21.9745 18.7898V22.93C21.9745 23.479 21.7564 24.0055 21.3682 24.3937C20.98 24.7819 20.4535 25 19.9045 25V25Z" fill="black"/>
<path d="M11.099 20.589L2.54801 11.4967C2.47338 11.4227 2.41415 11.3346 2.37373 11.2376C2.33331 11.1406 2.3125 11.0365 2.3125 10.9314C2.3125 10.8263 2.33331 10.7222 2.37373 10.6252C2.41415 10.5282 2.47338 10.4401 2.54801 10.3661C2.62066 10.292 2.70737 10.2331 2.80307 10.1928C2.89877 10.1526 3.00153 10.1319 3.10533 10.1319C3.20914 10.1319 3.3119 10.1526 3.4076 10.1928C3.5033 10.2331 3.59001 10.292 3.66266 10.3661L11.0671 18.2324L18.4716 10.3661C18.6173 10.212 18.8182 10.122 19.0303 10.116C19.2423 10.1101 19.448 10.1886 19.6021 10.3343C19.7563 10.48 19.8462 10.6809 19.8522 10.893C19.8582 11.105 19.7797 11.3107 19.634 11.4648L11.099 20.589Z" fill="#E42525"/>
</svg>
