<svg width="17" height="25" viewBox="0 0 17 25" fill="none" xmlns="http://www.w3.org/2000/svg">
<path d="M15.4078 7.49306C15.4275 7.55769 15.4275 7.62673 15.4078 7.69136L9.74223 15.5524L9.47311 15.9206V23.0027L9.14734 22.776C8.71668 22.4457 8.30526 22.091 7.91507 21.7137L7.57513 21.3455V15.9631L7.30602 15.5949L1.66874 7.74801C1.62357 7.6799 1.59451 7.6024 1.58375 7.52139H15.4078V7.49306ZM15.7478 6.10499H1.07385C0.919793 6.09266 0.765008 6.11704 0.622202 6.17613C0.479395 6.23522 0.352638 6.32734 0.252338 6.44492C0.106451 6.64801 0.0227896 6.88916 0.0115492 7.13896C-0.0396307 7.63602 0.0802855 8.13567 0.351486 8.55536V8.55536L6.01709 16.4022V21.5863C6.04753 21.8021 6.14117 22.0042 6.28621 22.167C6.43912 22.3574 6.60474 22.5372 6.78195 22.7052C7.22552 23.1303 7.69886 23.5231 8.19835 23.8808C8.64512 24.2251 9.11877 24.5329 9.61475 24.8015C9.79756 24.9072 9.99995 24.9747 10.2096 24.9998H10.2946C10.4114 25.005 10.5264 24.97 10.6204 24.9006C10.6882 24.8464 10.7426 24.7773 10.7794 24.6987C10.8162 24.6202 10.8345 24.5342 10.8329 24.4474V16.3739L16.4985 8.52703C16.6378 8.3219 16.7336 8.09036 16.7799 7.84674C16.8262 7.60311 16.822 7.35258 16.7676 7.11063C16.7306 6.8616 16.6279 6.62692 16.4701 6.43076C16.393 6.33205 16.2969 6.24984 16.1874 6.18901C16.0779 6.12818 15.9573 6.08997 15.8328 6.07666L15.7478 6.10499Z" fill="black"/>
<path d="M8.48181 5.32567C8.84844 5.33044 9.2075 5.22126 9.50942 5.01321C9.81135 4.80517 10.0412 4.50851 10.1673 4.16422C10.5498 3.15857 9.65742 2.23791 9.20417 1.4164C8.94111 0.962639 8.7138 0.489072 8.5243 0C8.35409 0.490033 8.1408 0.96402 7.88692 1.4164C7.40534 2.1246 6.5555 2.93195 6.76796 3.90927C6.85123 4.30444 7.06607 4.65969 7.37737 4.91697C7.68867 5.17424 8.07802 5.31832 8.48181 5.32567Z" fill="#E42525"/>
</svg>
