<svg width="25" height="22" viewBox="0 0 25 22" fill="none" xmlns="http://www.w3.org/2000/svg">
<path d="M18.4967 21.3251C18.3796 21.3268 18.2641 21.2971 18.1623 21.2393C18.0605 21.1814 17.9759 21.0974 17.9174 20.996C17.8315 20.8421 17.8096 20.6605 17.8564 20.4905C17.9032 20.3206 18.0149 20.1758 18.1675 20.0876C18.4308 19.9296 18.6941 19.7716 18.9443 19.5873C20.4051 18.5997 21.6014 17.269 22.4284 15.7117C23.2554 14.1543 23.6878 12.418 23.6878 10.6547C23.6878 8.89136 23.2554 7.15498 22.4284 5.59764C21.6014 4.04031 20.4051 2.70957 18.9443 1.72201C18.6941 1.5377 18.4308 1.37971 18.1675 1.22173C18.0193 1.13608 17.9103 0.996071 17.8636 0.831401C17.8169 0.666731 17.8362 0.490348 17.9174 0.339654C18.0057 0.187055 18.1504 0.0752901 18.3204 0.0284895C18.4903 -0.018311 18.6719 0.00360766 18.8258 0.0895133C19.1154 0.260662 19.4182 0.444976 19.6947 0.642456C21.3293 1.75442 22.6672 3.24919 23.5918 4.99656C24.5165 6.74393 24.9999 8.69088 24.9999 10.6678C24.9999 12.6448 24.5165 14.5917 23.5918 16.3391C22.6672 18.0864 21.3293 19.5812 19.6947 20.6932C19.4182 20.8907 19.1154 21.075 18.8258 21.2461C18.7232 21.2963 18.6109 21.3233 18.4967 21.3251V21.3251Z" fill="black"/>
<path d="M6.49004 21.3253C6.37935 21.3176 6.27161 21.2861 6.17408 21.2332C5.88444 21.062 5.58164 20.8777 5.30517 20.6802C3.6706 19.5683 2.33271 18.0735 1.40805 16.3261C0.483386 14.5788 0 12.6318 0 10.6549C0 8.67794 0.483386 6.73098 1.40805 4.98362C2.33271 3.23625 3.6706 1.74148 5.30517 0.629512C5.58164 0.432033 5.88444 0.247719 6.17408 0.0765702C6.32832 -0.00416862 6.50789 -0.0218399 6.67492 0.0272842C6.84194 0.0764083 6.98335 0.188487 7.06932 0.339876C7.1546 0.491821 7.17615 0.671379 7.12926 0.839192C7.08238 1.007 6.97087 1.14938 6.81918 1.23512C6.55587 1.3931 6.29257 1.55108 6.04243 1.7354C4.58163 2.72295 3.38531 4.0537 2.55832 5.61103C1.73132 7.16836 1.29887 8.90475 1.29887 10.668C1.29887 12.4313 1.73132 14.1677 2.55832 15.7251C3.38531 17.2824 4.58163 18.6131 6.04243 19.6007C6.29257 19.785 6.55587 19.943 6.81918 20.101C6.97178 20.1892 7.08354 20.334 7.13034 20.5039C7.17714 20.6739 7.15522 20.8554 7.06932 21.0094C7.00911 21.1084 6.92384 21.1897 6.82213 21.2452C6.72042 21.3007 6.60587 21.3283 6.49004 21.3253V21.3253Z" fill="black"/>
<path d="M12.4933 2.1042C14.7898 2.07959 17.0024 2.96657 18.646 4.57069C20.2896 6.17481 21.2301 8.36519 21.2614 10.6616C21.2301 12.9581 20.2896 15.1485 18.646 16.7526C17.0024 18.3567 14.7898 19.2437 12.4933 19.2191C10.1968 19.2437 7.98418 18.3567 6.34057 16.7526C4.69696 15.1485 3.75645 12.9581 3.72522 10.6616C3.75645 8.36519 4.69696 6.17481 6.34057 4.57069C7.98418 2.96657 10.1968 2.07959 12.4933 2.1042V2.1042ZM12.4933 0.787671C11.1828 0.773767 9.88236 1.01814 8.66629 1.50684C7.45022 1.99555 6.34233 2.719 5.40587 3.6359C4.46941 4.5528 3.72274 5.64517 3.20848 6.85066C2.69422 8.05614 2.42245 9.35112 2.40869 10.6616C2.42245 11.9722 2.69422 13.2671 3.20848 14.4726C3.72274 15.6781 4.46941 16.7705 5.40587 17.6874C6.34233 18.6043 7.45022 19.3277 8.66629 19.8164C9.88236 20.3051 11.1828 20.5495 12.4933 20.5356C13.8038 20.5495 15.1042 20.3051 16.3203 19.8164C17.5364 19.3277 18.6443 18.6043 19.5807 17.6874C20.5172 16.7705 21.2639 15.6781 21.7781 14.4726C22.2924 13.2671 22.5642 11.9722 22.5779 10.6616C22.5642 9.35112 22.2924 8.05614 21.7781 6.85066C21.2639 5.64517 20.5172 4.5528 19.5807 3.6359C18.6443 2.719 17.5364 1.99555 16.3203 1.50684C15.1042 1.01814 13.8038 0.773767 12.4933 0.787671V0.787671Z" fill="black"/>
<path d="M11.4404 11.1616H8.80731V13.0047H11.967V14.1369H7.35913V7.26465H11.9538V8.41003H8.80731V10.0557H11.4404V11.1616Z" fill="#E42525"/>
<path d="M14.56 11.7149V14.1373H13.1382V7.26498H15.7712C16.2266 7.25811 16.6773 7.35727 17.0878 7.55462C17.4663 7.72193 17.7837 8.00251 17.9962 8.3577C18.2111 8.71499 18.3206 9.12573 18.3121 9.54258C18.3272 9.844 18.2719 10.1448 18.1509 10.4212C18.0298 10.6977 17.8461 10.9422 17.6144 11.1356C17.0694 11.5539 16.3909 11.7598 15.7054 11.7149H14.56ZM14.56 10.5695H15.8766C16.1838 10.5844 16.4866 10.4912 16.7323 10.3062C16.824 10.2058 16.8927 10.0867 16.9336 9.95711C16.9745 9.8275 16.9867 9.69053 16.9693 9.55574C16.982 9.40901 16.9652 9.26122 16.92 9.12105C16.8748 8.98089 16.802 8.85116 16.706 8.73949C16.5968 8.63193 16.4671 8.54737 16.3246 8.49084C16.1822 8.4343 16.0298 8.40694 15.8766 8.41036H14.56V10.5695Z" fill="#E42525"/>
</svg>
