<svg width="25" height="21" viewBox="0 0 25 21" fill="none" xmlns="http://www.w3.org/2000/svg">
<path d="M10.35 9.49516C10.5755 9.49865 10.7909 9.58981 10.9504 9.74933C11.1099 9.90884 11.2011 10.1242 11.2046 10.3497C11.2046 10.5764 11.1145 10.7938 10.9543 10.954C10.794 11.1143 10.5766 11.2043 10.35 11.2043C10.1233 11.2043 9.90595 11.1143 9.74569 10.954C9.58542 10.7938 9.49539 10.5764 9.49539 10.3497C9.49539 10.1231 9.58542 9.90572 9.74569 9.74546C9.90595 9.58519 10.1233 9.49516 10.35 9.49516V9.49516ZM10.35 8.13867C9.91266 8.13867 9.48517 8.26835 9.12157 8.5113C8.75796 8.75426 8.47456 9.09958 8.30721 9.5036C8.13986 9.90762 8.09607 10.3522 8.18139 10.7811C8.2667 11.21 8.47729 11.604 8.78651 11.9132C9.09573 12.2224 9.48971 12.433 9.91861 12.5183C10.3475 12.6036 10.7921 12.5599 11.1961 12.3925C11.6001 12.2251 11.9455 11.9418 12.1884 11.5781C12.4314 11.2145 12.561 10.787 12.561 10.3497C12.561 9.76333 12.3281 9.20093 11.9134 8.78628C11.4988 8.37162 10.9364 8.13867 10.35 8.13867V8.13867Z" fill="black"/>
<path d="M18.6922 15.8024C18.5723 15.8048 18.4544 15.7717 18.3531 15.7075L11.5707 11.8144C11.4842 11.7753 11.4069 11.7185 11.3438 11.6476C11.2806 11.5768 11.233 11.4935 11.2041 11.4031C11.1751 11.3127 11.1655 11.2173 11.1758 11.1229C11.186 11.0286 11.216 10.9375 11.2637 10.8554C11.3114 10.7734 11.3758 10.7022 11.4527 10.6466C11.5296 10.591 11.6173 10.5522 11.7102 10.5326C11.803 10.5131 11.899 10.5132 11.9918 10.533C12.0846 10.5529 12.1722 10.592 12.2489 10.6478L19.0314 14.5409C19.1587 14.6164 19.2578 14.7315 19.3136 14.8686C19.3693 15.0057 19.3787 15.1573 19.3403 15.3003C19.3019 15.4432 19.2177 15.5697 19.1007 15.6604C18.9837 15.751 18.8403 15.8009 18.6922 15.8024V15.8024Z" fill="black"/>
<path d="M1.99415 15.8032C1.84727 15.7989 1.70577 15.7469 1.59095 15.6552C1.47612 15.5635 1.39419 15.437 1.35747 15.2948C1.32075 15.1525 1.33123 15.0021 1.38734 14.8663C1.44345 14.7305 1.54215 14.6166 1.66859 14.5417L8.45101 10.6486C8.60571 10.5604 8.78908 10.5374 8.9608 10.5844C9.13251 10.6315 9.2785 10.7448 9.36664 10.8995C9.45478 11.0542 9.47786 11.2376 9.43079 11.4093C9.38373 11.581 9.27039 11.727 9.11569 11.8152L2.33327 15.7083C2.23271 15.7741 2.11427 15.8073 1.99415 15.8032V15.8032Z" fill="black"/>
<path d="M23.8198 17.4858C24.4715 17.4858 24.9999 16.9574 24.9999 16.3056C24.9999 15.6539 24.4715 15.1255 23.8198 15.1255C23.168 15.1255 22.6396 15.6539 22.6396 16.3056C22.6396 16.9574 23.168 17.4858 23.8198 17.4858Z" fill="#E42525"/>
<path d="M24.7151 3.5H22.9109C22.7611 3.5 22.6396 3.62146 22.6396 3.7713V13.6736C22.6396 13.8235 22.7611 13.9449 22.9109 13.9449H24.7151C24.8649 13.9449 24.9863 13.8235 24.9863 13.6736V3.7713C24.9863 3.62146 24.8649 3.5 24.7151 3.5Z" fill="#E42525"/>
<path d="M10.3228 1.35648C12.0962 1.35648 13.8298 1.88235 15.3043 2.86759C16.7788 3.85282 17.928 5.25318 18.6067 6.89156C19.2853 8.52995 19.4629 10.3328 19.1169 12.0721C18.7709 13.8114 17.917 15.409 16.663 16.663C15.409 17.917 13.8114 18.7709 12.0721 19.1169C10.3328 19.4629 8.52996 19.2853 6.89157 18.6067C5.25318 17.928 3.85283 16.7788 2.86759 15.3043C1.88236 13.8298 1.35649 12.0962 1.35649 10.3228C1.35649 7.94481 2.30116 5.66419 3.98267 3.98267C5.66419 2.30115 7.94482 1.35648 10.3228 1.35648V1.35648ZM10.3228 0C8.28118 0 6.28536 0.605424 4.58778 1.73971C2.8902 2.874 1.5671 4.48621 0.785784 6.37246C0.00447269 8.25871 -0.199954 10.3343 0.198355 12.3367C0.596664 14.3392 1.57982 16.1785 3.02349 17.6222C4.46717 19.0659 6.30652 20.049 8.30896 20.4473C10.3114 20.8456 12.387 20.6412 14.2732 19.8599C16.1595 19.0786 17.7717 17.7555 18.906 16.0579C20.0403 14.3603 20.6457 12.3645 20.6457 10.3228C20.6457 8.96722 20.3787 7.62488 19.8599 6.37246C19.3411 5.12004 18.5808 3.98205 17.6222 3.02349C16.6636 2.06493 15.5256 1.30455 14.2732 0.785779C13.0208 0.267008 11.6785 0 10.3228 0V0Z" fill="black"/>
</svg>
