<svg width="25" height="18" viewBox="0 0 25 18" fill="none" xmlns="http://www.w3.org/2000/svg">
<path d="M12.5986 10.2302H12.2367C12.0578 10.2368 11.8825 10.1784 11.7433 10.0657L1.46371 2.30253C1.2928 2.16909 1.18021 1.97465 1.14955 1.76001C1.11888 1.54536 1.17253 1.32717 1.29923 1.15122C1.4301 0.976732 1.62491 0.861379 1.84083 0.830534C2.05674 0.799689 2.27606 0.855879 2.45055 0.986742L12.4177 8.51964L22.3848 1.01964C22.5592 0.888774 22.7786 0.832584 22.9945 0.863429C23.2104 0.894274 23.4052 1.00963 23.5361 1.18411C23.6628 1.36007 23.7164 1.57825 23.6858 1.7929C23.6551 2.00755 23.5425 2.20199 23.3716 2.33543L13.092 10.0657C12.9528 10.1784 12.7775 10.2368 12.5986 10.2302V10.2302Z" fill="#E42525"/>
<path d="M23.3553 1.64474V15.5921H1.64474V1.64474H23.3553ZM23.6842 0H1.31579C0.96682 0 0.632144 0.138627 0.385386 0.385386C0.138627 0.632144 0 0.966821 0 1.31579V15.9211C0 16.27 0.138627 16.6047 0.385386 16.8515C0.632144 17.0982 0.96682 17.2368 1.31579 17.2368H23.6842C24.0332 17.2368 24.3679 17.0982 24.6146 16.8515C24.8614 16.6047 25 16.27 25 15.9211V1.31579C25 0.966821 24.8614 0.632144 24.6146 0.385386C24.3679 0.138627 24.0332 0 23.6842 0V0Z" fill="black"/>
</svg>
