<svg width="25" height="19" viewBox="0 0 25 19" fill="none" xmlns="http://www.w3.org/2000/svg">
<path d="M14.9527 1.4227H6.21736C6.0287 1.4227 5.84777 1.34775 5.71436 1.21435C5.58096 1.08095 5.50601 0.900012 5.50601 0.71135C5.50965 0.523829 5.58577 0.345002 5.71839 0.21238C5.85101 0.0797571 6.02984 0.00364222 6.21736 0H14.9527C15.1403 0.00364222 15.3191 0.0797571 15.4517 0.21238C15.5843 0.345002 15.6604 0.523829 15.6641 0.71135C15.6641 0.900012 15.5891 1.08095 15.4557 1.21435C15.3223 1.34775 15.1414 1.4227 14.9527 1.4227Z" fill="#E42525"/>
<path d="M0.753724 15.2228C0.565062 15.2228 0.384127 15.1479 0.250723 15.0145C0.117319 14.8811 0.0423737 14.7001 0.0423737 14.5115V5.81877C0.0423737 5.63011 0.117319 5.44918 0.250723 5.31577C0.384127 5.18237 0.565062 5.10742 0.753724 5.10742C0.942385 5.10742 1.12332 5.18237 1.25672 5.31577C1.39013 5.44918 1.46507 5.63011 1.46507 5.81877V14.5399C1.45772 14.7236 1.37954 14.8973 1.24693 15.0246C1.11431 15.1519 0.937557 15.223 0.753724 15.2228Z" fill="#E42525"/>
<path d="M9.50389 4.13985C9.31523 4.13985 9.1343 4.0649 9.00089 3.9315C8.86749 3.79809 8.79254 3.61716 8.79254 3.4285V1.37981C8.79254 1.28639 8.81094 1.19389 8.84669 1.10758C8.88244 1.02128 8.93484 0.942862 9.00089 0.876807C9.06695 0.810752 9.14537 0.758354 9.23167 0.722605C9.31798 0.686857 9.41048 0.668457 9.50389 0.668457C9.59731 0.668457 9.68981 0.686857 9.77611 0.722605C9.86242 0.758354 9.94084 0.810752 10.0069 0.876807C10.0729 0.942862 10.1253 1.02128 10.1611 1.10758C10.1968 1.19389 10.2152 1.28639 10.2152 1.37981V3.4285C10.2152 3.61716 10.1403 3.79809 10.0069 3.9315C9.87349 4.0649 9.69255 4.13985 9.50389 4.13985Z" fill="#E42525"/>
<path d="M12.0221 4.13985C11.8334 4.13985 11.6525 4.0649 11.5191 3.9315C11.3857 3.79809 11.3107 3.61716 11.3107 3.4285V1.37981C11.3107 1.19115 11.3857 1.01021 11.5191 0.876807C11.6525 0.743403 11.8334 0.668457 12.0221 0.668457C12.2096 0.672099 12.3884 0.748214 12.5211 0.880837C12.6537 1.01346 12.7298 1.19229 12.7334 1.37981V3.4285C12.7334 3.61716 12.6585 3.79809 12.5251 3.9315C12.3917 4.0649 12.2108 4.13985 12.0221 4.13985Z" fill="#E42525"/>
<path d="M3.44293 10.9549H0.71135C0.522688 10.9549 0.341754 10.88 0.20835 10.7466C0.0749456 10.6132 0 10.4322 0 10.2436C0 10.0549 0.0749456 9.87398 0.20835 9.74058C0.341754 9.60717 0.522688 9.53223 0.71135 9.53223H3.44293C3.6316 9.53223 3.81253 9.60717 3.94593 9.74058C4.07934 9.87398 4.15428 10.0549 4.15428 10.2436C4.15428 10.4322 4.07934 10.6132 3.94593 10.7466C3.81253 10.88 3.6316 10.9549 3.44293 10.9549Z" fill="#E42525"/>
<path d="M14.7958 4.43881V6.41637H18.2245V8.99145H22.1512V6.94277H22.8199C23.9309 9.70923 23.9309 12.7979 22.8199 15.5643H22.2223V13.3165H18.2245V16.987H12.4484L10.5704 14.7107L10.1436 14.1843H4.36743V6.41637H7.2982V4.43881H14.7958ZM15.5783 3.01611H6.50148C6.33546 3.01611 6.17624 3.08207 6.05884 3.19946C5.94145 3.31686 5.8755 3.47608 5.8755 3.6421V4.99367H3.58495C3.50155 4.99177 3.41862 5.00656 3.34102 5.03717C3.26342 5.06778 3.19273 5.11359 3.13308 5.17191C3.07344 5.23022 3.02605 5.29988 2.99371 5.37677C2.96136 5.45366 2.94471 5.53624 2.94473 5.61965V14.981C2.94845 15.1483 3.01754 15.3075 3.1372 15.4246C3.25687 15.5416 3.41759 15.6071 3.58495 15.607H9.47493L11.5805 18.1821C11.6393 18.2534 11.7132 18.3108 11.7969 18.3501C11.8805 18.3895 11.9718 18.4099 12.0642 18.4097H19.0212C19.1873 18.4097 19.3465 18.3438 19.4639 18.2264C19.5813 18.109 19.6472 17.9498 19.6472 17.7837V14.7392H20.7285V16.361C20.7322 16.5284 20.8013 16.6876 20.921 16.8046C21.0406 16.9216 21.2013 16.9871 21.3687 16.987H23.3036C23.4301 16.9891 23.5541 16.9519 23.6585 16.8805C23.763 16.8092 23.8428 16.7072 23.8869 16.5887C26.3908 10.0585 23.8869 5.98956 23.8869 5.81883C23.8293 5.72748 23.7495 5.65217 23.655 5.59994C23.5605 5.5477 23.4543 5.52022 23.3463 5.52007H21.3118C21.142 5.52007 20.9792 5.58752 20.8591 5.70758C20.739 5.82764 20.6716 5.99048 20.6716 6.16028V7.58298H19.5903V5.61965C19.5903 5.45363 19.5244 5.29441 19.407 5.17701C19.2896 5.05962 19.1304 4.99367 18.9643 4.99367H16.1189V3.6421C16.1193 3.49673 16.0703 3.35554 15.9798 3.24177C15.8893 3.128 15.7627 3.04842 15.621 3.01611H15.5783Z" fill="black"/>
</svg>
