<svg width="25" height="25" viewBox="0 0 25 25" fill="none" xmlns="http://www.w3.org/2000/svg">
<path fill-rule="evenodd" clip-rule="evenodd" d="M0 12.5C0 5.60805 5.60805 0 12.5 0C19.3919 0 25 5.60805 25 12.5C25 19.3919 19.3919 25 12.5 25C5.60805 25 0 19.3919 0 12.5ZM2.34424 12.5002C2.34424 18.0998 6.90043 22.656 12.5 22.656C14.7376 22.656 16.8082 21.9287 18.4885 20.6978L4.30242 6.51172C3.07151 8.19195 2.34424 10.2626 2.34424 12.5002ZM22.656 12.4996C22.656 14.7372 21.9287 16.8077 20.6978 18.488L6.51172 4.30193C8.19195 3.07102 10.2626 2.34375 12.5002 2.34375C18.0998 2.34375 22.656 6.89994 22.656 12.4996Z" fill="#E42525"/>
</svg>
