<svg width="20" height="20" viewBox="0 0 20 20" fill="none" xmlns="http://www.w3.org/2000/svg">
<path d="M19.2483 3.38106H16.5436C16.3443 3.38106 16.1532 3.3019 16.0123 3.161C15.8714 3.0201 15.7922 2.829 15.7922 2.62974C15.7922 2.43048 15.8714 2.23937 16.0123 2.09847C16.1532 1.95757 16.3443 1.87842 16.5436 1.87842H19.2483C19.4476 1.87842 19.6387 1.95757 19.7796 2.09847C19.9205 2.23937 19.9996 2.43048 19.9996 2.62974C19.9996 2.829 19.9205 3.0201 19.7796 3.161C19.6387 3.3019 19.4476 3.38106 19.2483 3.38106Z" fill="black"/>
<path d="M12.6222 3.38106H0.75132C0.552058 3.38106 0.360956 3.3019 0.220056 3.161C0.0791565 3.0201 0 2.829 0 2.62974C0 2.43048 0.0791565 2.23937 0.220056 2.09847C0.360956 1.95757 0.552058 1.87842 0.75132 1.87842H12.6222C12.8214 1.87842 13.0125 1.95757 13.1534 2.09847C13.2943 2.23937 13.3735 2.43048 13.3735 2.62974C13.3735 2.829 13.2943 3.0201 13.1534 3.161C13.0125 3.3019 12.8214 3.38106 12.6222 3.38106Z" fill="black"/>
<path d="M14.5756 5.40951C14.0407 5.40951 13.5177 5.25088 13.0729 4.95368C12.6281 4.65647 12.2815 4.23405 12.0767 3.73982C11.872 3.24559 11.8185 2.70175 11.9228 2.17708C12.0272 1.65241 12.2848 1.17047 12.6631 0.792205C13.0413 0.413939 13.5233 0.156336 14.0479 0.0519723C14.5726 -0.0523912 15.1164 0.00117193 15.6107 0.205888C16.1049 0.410605 16.5273 0.75728 16.8245 1.20207C17.1217 1.64687 17.2804 2.1698 17.2804 2.70475C17.2804 3.4221 16.9954 4.11006 16.4882 4.6173C15.9809 5.12454 15.293 5.40951 14.5756 5.40951ZM14.5756 1.50264C14.3378 1.50264 14.1054 1.57314 13.9077 1.70523C13.7101 1.83732 13.556 2.02507 13.465 2.24473C13.374 2.46438 13.3502 2.70609 13.3966 2.93927C13.443 3.17246 13.5575 3.38666 13.7256 3.55478C13.8937 3.72289 14.1079 3.83739 14.3411 3.88377C14.5743 3.93015 14.816 3.90635 15.0356 3.81536C15.2553 3.72438 15.443 3.5703 15.5751 3.37261C15.7072 3.17493 15.7777 2.94251 15.7777 2.70475C15.7777 2.38593 15.6511 2.08017 15.4256 1.85473C15.2002 1.62929 14.8944 1.50264 14.5756 1.50264Z" fill="#E42525"/>
<path d="M19.2483 17.0554H16.5436C16.3443 17.0554 16.1532 16.9762 16.0123 16.8353C15.8714 16.6944 15.7922 16.5033 15.7922 16.3041C15.7922 16.1048 15.8714 15.9137 16.0123 15.7728C16.1532 15.6319 16.3443 15.5527 16.5436 15.5527H19.2483C19.4476 15.5527 19.6387 15.6319 19.7796 15.7728C19.9205 15.9137 19.9996 16.1048 19.9996 16.3041C19.9996 16.5033 19.9205 16.6944 19.7796 16.8353C19.6387 16.9762 19.4476 17.0554 19.2483 17.0554Z" fill="black"/>
<path d="M12.6222 17.0554H0.75132C0.552058 17.0554 0.360956 16.9762 0.220056 16.8353C0.0791565 16.6944 0 16.5033 0 16.3041C0 16.1048 0.0791565 15.9137 0.220056 15.7728C0.360956 15.6319 0.552058 15.5527 0.75132 15.5527H12.6222C12.8214 15.5527 13.0125 15.6319 13.1534 15.7728C13.2943 15.9137 13.3735 16.1048 13.3735 16.3041C13.3735 16.5033 13.2943 16.6944 13.1534 16.8353C13.0125 16.9762 12.8214 17.0554 12.6222 17.0554Z" fill="black"/>
<path d="M14.5756 19.0833C14.0407 19.0833 13.5177 18.9247 13.0729 18.6275C12.6281 18.3303 12.2815 17.9079 12.0767 17.4136C11.872 16.9194 11.8185 16.3756 11.9228 15.8509C12.0272 15.3262 12.2848 14.8443 12.6631 14.466C13.0413 14.0878 13.5233 13.8302 14.0479 13.7258C14.5726 13.6214 15.1164 13.675 15.6107 13.8797C16.1049 14.0844 16.5273 14.4311 16.8245 14.8759C17.1217 15.3207 17.2804 15.8436 17.2804 16.3786C17.2804 17.0959 16.9954 17.7839 16.4882 18.2911C15.9809 18.7984 15.293 19.0833 14.5756 19.0833ZM14.5756 15.1765C14.3378 15.1765 14.1054 15.247 13.9077 15.3791C13.7101 15.5112 13.556 15.6989 13.465 15.9186C13.374 16.1382 13.3502 16.3799 13.3966 16.6131C13.443 16.8463 13.5575 17.0605 13.7256 17.2286C13.8937 17.3967 14.1079 17.5112 14.3411 17.5576C14.5743 17.604 14.816 17.5802 15.0356 17.4892C15.2553 17.3982 15.443 17.2441 15.5751 17.0464C15.7072 16.8488 15.7777 16.6163 15.7777 16.3786C15.7777 16.2207 15.7466 16.0644 15.6862 15.9186C15.6258 15.7727 15.5373 15.6402 15.4256 15.5286C15.314 15.4169 15.1815 15.3284 15.0356 15.268C14.8898 15.2076 14.7335 15.1765 14.5756 15.1765V15.1765Z" fill="#E42525"/>
<path d="M3.45607 10.218H0.75132C0.552058 10.218 0.360956 10.1388 0.220056 9.99792C0.0791565 9.85702 0 9.66591 0 9.46665C0 9.26739 0.0791565 9.07629 0.220056 8.93539C0.360956 8.79449 0.552058 8.71533 0.75132 8.71533H3.45607C3.65413 8.71918 3.84301 8.79957 3.98308 8.93964C4.12316 9.07972 4.20355 9.26859 4.20739 9.46665C4.20739 9.66591 4.12824 9.85702 3.98734 9.99792C3.84644 10.1388 3.65534 10.218 3.45607 10.218Z" fill="black"/>
<path d="M19.2485 10.218H7.36265C7.16339 10.218 6.97228 10.1388 6.83138 9.99792C6.69048 9.85702 6.61133 9.66591 6.61133 9.46665C6.61133 9.26739 6.69048 9.07629 6.83138 8.93539C6.97228 8.79449 7.16339 8.71533 7.36265 8.71533H19.2485C19.4478 8.71533 19.6389 8.79449 19.7798 8.93539C19.9207 9.07629 19.9999 9.26739 19.9999 9.46665C19.9999 9.66591 19.9207 9.85702 19.7798 9.99792C19.6389 10.1388 19.4478 10.218 19.2485 10.218Z" fill="black"/>
<path d="M5.4091 12.2464C4.87415 12.2464 4.35121 12.0878 3.90642 11.7906C3.46163 11.4934 3.11495 11.071 2.91023 10.5767C2.70552 10.0825 2.65195 9.53867 2.75632 9.014C2.86068 8.48933 3.11828 8.00739 3.49655 7.62912C3.87482 7.25085 4.35676 6.99325 4.88143 6.88889C5.4061 6.78452 5.94994 6.83809 6.44416 7.0428C6.93839 7.24752 7.36082 7.59419 7.65802 8.03899C7.95522 8.48378 8.11385 9.00672 8.11385 9.54167C8.11385 9.89686 8.04389 10.2486 7.90797 10.5767C7.77204 10.9049 7.57281 11.2031 7.32165 11.4542C7.07049 11.7054 6.77232 11.9046 6.44416 12.0405C6.11601 12.1765 5.76429 12.2464 5.4091 12.2464V12.2464ZM5.4091 8.33956C5.17134 8.33956 4.93893 8.41006 4.74124 8.54215C4.54356 8.67424 4.38948 8.86198 4.29849 9.08164C4.20751 9.3013 4.1837 9.543 4.23009 9.77619C4.27647 10.0094 4.39096 10.2236 4.55908 10.3917C4.7272 10.5598 4.94139 10.6743 5.17458 10.7207C5.40777 10.7671 5.64947 10.7433 5.86913 10.6523C6.08879 10.5613 6.27653 10.4072 6.40862 10.2095C6.54071 10.0118 6.61121 9.77942 6.61121 9.54167C6.61522 9.38129 6.58709 9.22174 6.52848 9.07241C6.46987 8.92307 6.38195 8.78698 6.26993 8.67215C6.1579 8.55732 6.02402 8.46608 5.87618 8.4038C5.72834 8.34151 5.56952 8.30945 5.4091 8.3095V8.33956Z" fill="#E42525"/>
</svg>
