<svg width="25" height="22" viewBox="0 0 25 22" fill="none" xmlns="http://www.w3.org/2000/svg">
<path d="M22.7273 4.16193H17.6136V1.84659C17.6136 1.35684 17.4191 0.887157 17.0728 0.540854C16.7265 0.194551 16.2568 0 15.767 0H9.27557C8.78582 0 8.31613 0.194551 7.96983 0.540854C7.62353 0.887157 7.42898 1.35684 7.42898 1.84659V4.16193H2.27273C1.66996 4.16193 1.09189 4.40138 0.665666 4.8276C0.239447 5.25382 0 5.83189 0 6.43466V19.1193C0 19.7221 0.239447 20.3002 0.665666 20.7264C1.09189 21.1526 1.66996 21.392 2.27273 21.392H22.7273C23.33 21.392 23.9081 21.1526 24.3343 20.7264C24.7606 20.3002 25 19.7221 25 19.1193V6.43466C25 5.83189 24.7606 5.25382 24.3343 4.8276C23.9081 4.40138 23.33 4.16193 22.7273 4.16193V4.16193ZM8.84943 1.84659C8.84943 1.73357 8.89433 1.62518 8.97424 1.54527C9.05416 1.46535 9.16255 1.42045 9.27557 1.42045H15.767C15.8235 1.41847 15.8798 1.42814 15.9324 1.44885C15.985 1.46956 16.0328 1.50088 16.0728 1.54085C16.1128 1.58083 16.1441 1.6286 16.1648 1.6812C16.1855 1.7338 16.1952 1.7901 16.1932 1.84659V4.16193H8.84943V1.84659ZM23.5795 19.1193C23.5795 19.3454 23.4898 19.5621 23.3299 19.722C23.1701 19.8818 22.9533 19.9716 22.7273 19.9716H2.27273C2.04669 19.9716 1.82991 19.8818 1.67008 19.722C1.51025 19.5621 1.42045 19.3454 1.42045 19.1193V6.43466C1.42045 6.20862 1.51025 5.99184 1.67008 5.83201C1.82991 5.67218 2.04669 5.58239 2.27273 5.58239H22.7273C22.9533 5.58239 23.1701 5.67218 23.3299 5.83201C23.4898 5.99184 23.5795 6.20862 23.5795 6.43466V19.1193Z" fill="black"/>
<path d="M11.2926 16.8046V14.0774H8.52271V11.5916L11.2926 11.62V8.8501H13.7074V11.62H16.4773V14.0774H13.7074V16.8046H11.2926Z" fill="#E42525"/>
</svg>
