<svg width="25" height="11" viewBox="0 0 25 11" fill="none" xmlns="http://www.w3.org/2000/svg">
<path d="M21.9792 0.705814L13.4162 4.43464L11.6051 2.55691H8.80848V1.33172H9.72737C9.81481 1.33172 9.9014 1.3145 9.98219 1.28104C10.063 1.24758 10.1364 1.19853 10.1982 1.1367C10.26 1.07487 10.3091 1.00146 10.3425 0.920677C10.376 0.839891 10.3932 0.753305 10.3932 0.665862C10.3932 0.489265 10.3231 0.3199 10.1982 0.195027C10.0733 0.0701533 9.90397 0 9.72737 0H6.54455C6.36795 0 6.19859 0.0701533 6.07371 0.195027C5.94884 0.3199 5.87869 0.489265 5.87869 0.665862C5.87869 0.84246 5.94884 1.01182 6.07371 1.1367C6.19859 1.26157 6.36795 1.33172 6.54455 1.33172H7.47676V2.55691H5.55907L3.33509 1.19855L3.04211 1.02543C2.00337 0.359566 1.13775 -0.106538 0.485202 0.266345C0.32134 0.36626 0.189264 0.510706 0.104379 0.682834C0.0194933 0.854963 -0.0147019 1.04768 0.00578151 1.2385V2.96975C0.0246935 3.31381 0.132878 3.64702 0.319685 3.93657C0.506492 4.22612 0.765483 4.46203 1.07116 4.62108L3.33509 5.76637V10.1477H15.4138L23.4042 2.0109L21.9792 0.705814ZM1.33751 2.96975V1.63802C1.65978 1.80453 1.97114 1.99135 2.26971 2.19734L3.33509 2.74335V4.27484L1.72371 3.46248C1.62453 3.41736 1.53766 3.34903 1.47045 3.26327C1.40323 3.17751 1.35763 3.07683 1.33751 2.96975V2.96975ZM14.8412 8.81602H4.66682V3.88864H11.0591L12.484 5.38017L13.1233 6.05935L13.9756 5.68646L21.0071 2.61018L14.8412 8.81602Z" fill="black"/>
<path d="M23.311 9.09576C23.661 9.09232 24.0015 8.98208 24.2871 8.77979C24.5727 8.57749 24.7897 8.29279 24.9091 7.96379C25.2819 6.99164 24.4163 6.07275 23.9769 5.30035C23.7121 4.83265 23.4893 4.34243 23.311 3.83545C23.1438 4.29766 22.9342 4.74346 22.6851 5.16717C22.2589 5.92626 21.3534 6.72529 21.633 7.67082C21.7064 8.06498 21.9133 8.42184 22.2189 8.68137C22.5245 8.94089 22.9101 9.08723 23.311 9.09576V9.09576Z" fill="#E42525"/>
</svg>
