<svg width="24" height="25" viewBox="0 0 24 25" fill="none" xmlns="http://www.w3.org/2000/svg">
<path d="M11.2136 4.47614V6.86386H6.06866V4.47614H11.2136ZM12.0664 3.05487H5.20169C5.1265 3.05292 5.0517 3.06629 4.98184 3.09417C4.91198 3.12205 4.84853 3.16385 4.79534 3.21704C4.74216 3.27022 4.70035 3.33367 4.67248 3.40353C4.6446 3.47339 4.63123 3.54819 4.63318 3.62338V7.71661C4.63318 7.79127 4.64789 7.8652 4.67646 7.93417C4.70503 8.00315 4.7469 8.06582 4.79969 8.11861C4.85248 8.1714 4.91516 8.21327 4.98413 8.24184C5.0531 8.27041 5.12703 8.28512 5.20169 8.28512H12.0664C12.2172 8.28512 12.3618 8.22522 12.4684 8.11861C12.575 8.01199 12.6349 7.86739 12.6349 7.71661V3.62338C12.6368 3.54819 12.6235 3.47339 12.5956 3.40353C12.5677 3.33367 12.5259 3.27022 12.4727 3.21704C12.4195 3.16385 12.3561 3.12205 12.2862 3.09417C12.2164 3.06629 12.1416 3.05292 12.0664 3.05487V3.05487Z" fill="#E42525"/>
<path d="M22.527 23.5787H14.9233V17.1973H20.452C20.6902 17.1991 20.9264 17.1538 21.1471 17.064C21.3677 16.9741 21.5684 16.8414 21.7375 16.6736C21.9066 16.5059 22.0408 16.3062 22.1324 16.0863C22.224 15.8664 22.2712 15.6305 22.2712 15.3923V9.2382C22.2722 9.09528 22.2274 8.9558 22.1433 8.84025C21.5605 7.98749 20.3809 6.38147 19.8124 5.65662C19.6965 5.52219 19.5346 5.43597 19.3583 5.41493C19.1821 5.39389 19.0044 5.43954 18.8601 5.54292C18.786 5.59982 18.7241 5.67104 18.6781 5.75236C18.6321 5.83368 18.6029 5.92342 18.5923 6.01625C18.5817 6.10908 18.5899 6.20309 18.6164 6.2927C18.6428 6.3823 18.6871 6.46566 18.7464 6.53781C19.2581 7.19159 20.2956 8.59864 20.8926 9.4656V15.3923C20.8926 15.4439 20.8822 15.495 20.862 15.5425C20.8419 15.59 20.8123 15.6329 20.7752 15.6688C20.738 15.7046 20.694 15.7326 20.6458 15.751C20.5976 15.7694 20.5462 15.7779 20.4946 15.776H14.9233V11.1995C15.2323 11.1995 15.5288 11.0768 15.7473 10.8582C15.9659 10.6396 16.0887 10.3432 16.0887 10.0341V1.16543C16.0892 0.86827 15.9763 0.582117 15.7728 0.365489C15.5694 0.14886 15.2909 0.0181194 14.9943 0H2.33087C2.02178 0 1.72534 0.122786 1.50678 0.341348C1.28822 0.559909 1.16543 0.856342 1.16543 1.16543V10.0341C1.16543 10.3432 1.28822 10.6396 1.50678 10.8582C1.72534 11.0768 2.02178 11.1995 2.33087 11.1995V11.1995V23.5787H0.710631C0.52216 23.5787 0.341408 23.6536 0.208139 23.7869C0.0748698 23.9201 0 24.1009 0 24.2894C0 24.4778 0.0748698 24.6586 0.208139 24.7919C0.341408 24.9251 0.52216 25 0.710631 25H22.527C22.7155 25 22.8962 24.9251 23.0295 24.7919C23.1628 24.6586 23.2376 24.4778 23.2376 24.2894C23.234 24.102 23.158 23.9234 23.0255 23.7909C22.893 23.6584 22.7143 23.5824 22.527 23.5787V23.5787ZM2.62933 9.77828V1.42126H14.7385V9.77828H13.502V23.5787H3.82319V9.77828H2.62933Z" fill="black"/>
</svg>
