<svg width="25" height="26" viewBox="0 0 25 26" fill="none" xmlns="http://www.w3.org/2000/svg">
<path d="M16.4452 9.62385L16.6812 9.96474L17.127 10.6465L17.953 10.5416H18.4643C18.7198 10.5419 18.9747 10.5682 19.2248 10.6203L20.0508 10.7776L20.5753 10.0565L20.7195 9.84674L21.5455 10.2925L21.4144 10.6203L21.1259 11.3545L21.6373 11.9446C21.8592 12.1999 22.0486 12.4817 22.2011 12.7837C22.3161 13.0251 22.4126 13.2749 22.4895 13.531L22.6862 14.2522L23.4073 14.4488L23.6958 14.5275L23.5647 15.4584H22.66L22.306 16.2713C22.1224 16.7568 21.8463 17.2021 21.4931 17.5824L20.9293 18.1724L21.2046 18.9329L21.3488 19.3262L20.5097 19.7458L20.2737 19.3918L19.8279 18.7231L19.0281 18.828H18.5037C18.1084 18.8302 17.715 18.7727 17.3368 18.6576L16.4321 18.3953L15.9207 19.1165L15.0947 18.6838L15.2521 18.2642L15.5012 17.6218L15.1209 17.058C15.0109 16.8978 14.9102 16.7315 14.8194 16.5597C14.6524 16.2182 14.5291 15.857 14.4523 15.4846L14.2949 14.6848L13.5214 14.475L13.1542 14.3702L13.2854 13.4524H13.6787H14.4916L14.8718 12.7312C15.0434 12.3983 15.2645 12.0933 15.5274 11.8266L16.0912 11.2365L15.8159 10.4761L15.6716 10.0827L16.5108 9.66318L16.4452 9.62385ZM16.6419 8.16849C16.5095 8.16768 16.379 8.19918 16.2616 8.26026L14.6883 9.06006C14.5043 9.14856 14.3597 9.30203 14.2822 9.49087C14.2047 9.67972 14.1999 9.89056 14.2687 10.0827L14.5572 10.8694C14.2115 11.2302 13.916 11.6359 13.6787 12.0757H12.8527C12.7202 12.0732 12.5892 12.1048 12.4725 12.1674C12.3532 12.2291 12.2505 12.3184 12.173 12.4279C12.0954 12.5374 12.0452 12.6639 12.0267 12.7968L11.7644 14.5406C11.7373 14.7422 11.7832 14.9469 11.8938 15.1176C12.0044 15.2883 12.1725 15.4139 12.3676 15.4715L13.1411 15.6813C13.2353 16.1738 13.3987 16.6505 13.6263 17.0973C13.7383 17.3198 13.8653 17.5345 14.0065 17.7398L13.6918 18.5396C13.6196 18.7324 13.6196 18.9449 13.6919 19.1377C13.7642 19.3305 13.9039 19.4907 14.0852 19.5885L15.6454 20.4276C15.7663 20.4919 15.9019 20.5235 16.0387 20.5194C16.1696 20.5198 16.299 20.493 16.419 20.4407C16.5366 20.3752 16.6393 20.2859 16.7205 20.1785L16.9434 19.8638C17.4419 20.0092 17.9582 20.0842 18.4775 20.0867C18.7045 20.1001 18.9322 20.1001 19.1592 20.0867L19.6313 20.7816C19.7068 20.8973 19.8098 20.9925 19.931 21.0589C20.0522 21.1252 20.188 21.1606 20.3262 21.1618C20.4537 21.1579 20.5789 21.1266 20.6933 21.0701L22.2797 20.2703C22.4617 20.1796 22.6045 20.0259 22.6817 19.8378C22.7589 19.6497 22.7651 19.4399 22.6993 19.2476L22.4109 18.4478C22.864 17.9576 23.216 17.3829 23.4467 16.7564H23.9056C24.0381 16.7589 24.169 16.7273 24.2858 16.6646C24.4034 16.6043 24.505 16.517 24.5825 16.4099C24.66 16.3028 24.711 16.179 24.7316 16.0484L24.9938 14.2915C25.0182 14.0902 24.9712 13.8868 24.861 13.7167C24.7508 13.5466 24.5843 13.4205 24.3907 13.3606L23.6827 13.1639C23.5893 12.8242 23.4619 12.4947 23.3024 12.1806C23.1024 11.7855 22.8559 11.4158 22.5682 11.0792L22.8566 10.3581C22.9281 10.1671 22.9276 9.95666 22.8552 9.76603C22.7828 9.57541 22.6435 9.41767 22.4633 9.32228L20.9031 8.49627C20.7832 8.42796 20.6477 8.39183 20.5097 8.39138C20.3774 8.39057 20.2469 8.42207 20.1295 8.48316C20.0063 8.54041 19.9017 8.63131 19.8279 8.74538L19.4346 9.29606C19.1067 9.22805 18.7729 9.19291 18.4381 9.19117C18.2154 9.17818 17.9921 9.17818 17.7694 9.19117L17.2974 8.48316C17.2194 8.38417 17.1198 8.30434 17.0061 8.2498C16.8925 8.19526 16.7679 8.16744 16.6419 8.16849V8.16849Z" fill="black"/>
<path d="M18.3721 13.3478C18.6612 13.3548 18.9398 13.4573 19.1646 13.6391C19.3895 13.821 19.5479 14.0721 19.6152 14.3533C19.6825 14.6345 19.655 14.9301 19.5368 15.1941C19.4187 15.458 19.2167 15.6755 18.9621 15.8127C18.6538 15.9641 18.2984 15.9885 17.9723 15.8806C17.6462 15.7727 17.3755 15.5412 17.2183 15.2358C17.0669 14.9275 17.0425 14.5721 17.1504 14.246C17.2582 13.9199 17.4898 13.6492 17.7952 13.492C17.9739 13.4004 18.1713 13.351 18.3721 13.3478V13.3478ZM18.3721 12.0366C17.9671 12.0371 17.5677 12.1313 17.2052 12.312C16.6894 12.5831 16.2787 13.0183 16.0378 13.5489C15.7969 14.0794 15.7396 14.6751 15.8749 15.2419C16.0102 15.8086 16.3304 16.3142 16.785 16.6787C17.2396 17.0432 17.8026 17.246 18.3852 17.2549C18.7907 17.259 19.1912 17.1645 19.5521 16.9796C20.0679 16.7084 20.4786 16.2732 20.7195 15.7427C20.9604 15.2121 21.0177 14.6164 20.8824 14.0497C20.7471 13.4829 20.4269 12.9774 19.9723 12.6129C19.5177 12.2483 18.9547 12.0456 18.3721 12.0366V12.0366Z" fill="#E42525"/>
<path d="M7.29337 14.6065L7.87027 14.8163V15.0785L7.68671 15.8652L8.31606 16.3765C8.60427 16.6099 8.8523 16.889 9.05029 17.2025L9.50919 17.9106L10.3352 17.7926H10.4532L10.6105 18.3957L10.4139 18.4743L9.69275 18.7628L9.61408 19.5495C9.57497 19.839 9.50913 20.1243 9.41741 20.4017C9.33574 20.62 9.23482 20.8306 9.11585 21.0311L8.73562 21.6735L9.07652 22.3291L9.15518 22.4602L8.65695 22.8142L8.11939 22.2373L7.29337 22.5389C6.87564 22.7014 6.43041 22.7815 5.98224 22.7749H5.15622L4.84155 23.4567L4.72355 23.6927L4.14665 23.496V23.2338L4.33021 22.434L3.70086 21.9226C3.31851 21.6108 3.00585 21.2222 2.78307 20.7819L2.36351 19.9428L1.57683 20.0477L1.41949 19.4577L1.68172 19.3528L2.32417 19.0906L2.4684 18.4219C2.50072 18.2559 2.54902 18.0935 2.61262 17.9368C2.72137 17.6254 2.8713 17.3299 3.05841 17.0583L3.53042 16.4027L3.15019 15.6816L3.0453 15.4456L3.53042 15.1309L3.70086 15.3145L4.23843 15.9045L5.012 15.6947C5.33186 15.6044 5.66299 15.5602 5.99535 15.5636H6.80825L7.17537 14.8425L7.29337 14.6065ZM7.03115 13.1642C6.8908 13.1611 6.75241 13.1976 6.63183 13.2695C6.51125 13.3414 6.41336 13.4458 6.34936 13.5707L6.00846 14.2525C5.56568 14.249 5.12451 14.3064 4.69733 14.4229L4.1991 13.8854C4.1156 13.7937 4.01253 13.722 3.89753 13.6756C3.81497 13.663 3.73098 13.663 3.64842 13.6756C3.48862 13.6773 3.33313 13.7276 3.20263 13.8198L1.8915 14.7376C1.74171 14.8436 1.63532 15.0003 1.59194 15.1786C1.54857 15.3569 1.57114 15.5449 1.65549 15.7078L1.99639 16.3372C1.73307 16.7043 1.52132 17.1057 1.36704 17.5303C1.30149 17.7401 1.23593 17.9499 1.18349 18.1859L0.475472 18.4743C0.30162 18.5422 0.159465 18.6727 0.0769684 18.8402C-0.00552795 19.0076 -0.0223944 19.1998 0.0296867 19.379L0.44925 20.9262C0.479499 21.0438 0.538452 21.1521 0.620828 21.2413C0.703203 21.3305 0.806429 21.398 0.921258 21.4375C1.00382 21.4501 1.08781 21.4501 1.17037 21.4375H1.27526H1.61616C1.9335 22.0511 2.38096 22.5881 2.92729 23.0109L2.75685 23.7451C2.71727 23.9255 2.74467 24.1141 2.83394 24.2757C2.9232 24.4374 3.06824 24.561 3.24197 24.6236L4.73666 25.1611C4.82363 25.1735 4.91192 25.1735 4.99889 25.1611C5.1384 25.1606 5.27497 25.121 5.39314 25.0468C5.51132 24.9727 5.60638 24.8669 5.66757 24.7416L6.00846 24.0729C6.59104 24.0726 7.16867 23.966 7.71294 23.7582L7.97516 24.0467C8.05505 24.1424 8.15921 24.2148 8.27672 24.2564C8.36359 24.2702 8.45208 24.2702 8.53895 24.2564C8.69313 24.2576 8.84403 24.2119 8.97163 24.1253L10.2828 23.2075C10.4348 23.1034 10.543 22.9467 10.5866 22.7676C10.6301 22.5885 10.606 22.3997 10.5188 22.2373L10.2172 21.6473C10.3789 21.3765 10.515 21.0911 10.6237 20.7951C10.7553 20.4174 10.8433 20.0258 10.8859 19.6281L11.5415 19.3659C11.71 19.2958 11.8471 19.1664 11.9268 19.0022C12.0065 18.8379 12.0234 18.6502 11.9741 18.4743L11.5283 16.9534C11.4981 16.8358 11.4391 16.7275 11.3568 16.6383C11.2744 16.549 11.1712 16.4816 11.0563 16.4421C10.9739 16.4284 10.8897 16.4284 10.8072 16.4421H10.7023L10.0861 16.4945C9.81391 16.0657 9.4728 15.6847 9.07652 15.367L9.24696 14.6196C9.28965 14.4425 9.26499 14.2559 9.17776 14.096C9.09053 13.936 8.94696 13.8142 8.77496 13.7543L7.26715 13.2036C7.18459 13.191 7.1006 13.191 7.01803 13.2036L7.03115 13.1642Z" fill="black"/>
<path d="M5.93009 18.0671C6.04717 18.0462 6.16702 18.0462 6.2841 18.0671C6.41311 18.1132 6.53169 18.1845 6.63296 18.2768C6.73424 18.369 6.8162 18.4805 6.87411 18.6047C6.94897 18.7641 6.98248 18.9398 6.97153 19.1156C6.96059 19.2914 6.90555 19.4616 6.81149 19.6106C6.71743 19.7595 6.58738 19.8823 6.43334 19.9678C6.2793 20.0532 6.10623 20.0984 5.93009 20.0994C5.81283 20.118 5.69335 20.118 5.57609 20.0994C5.32119 20.002 5.11425 19.8092 4.99919 19.5618C4.94064 19.4366 4.9103 19.3001 4.9103 19.1619C4.9103 19.0237 4.94064 18.8872 4.99919 18.762C5.06712 18.5664 5.19212 18.3956 5.35805 18.2718C5.52399 18.1479 5.72324 18.0766 5.93009 18.0671V18.0671ZM5.93009 16.756C5.37451 16.7528 4.83582 16.9469 4.40988 17.3036C3.98393 17.6603 3.69835 18.1566 3.60395 18.7041C3.50955 19.2516 3.61246 19.8149 3.89435 20.2936C4.17624 20.7724 4.61885 21.1356 5.14341 21.3187C5.39559 21.4109 5.66159 21.4597 5.93009 21.4629C6.4834 21.46 7.01808 21.2628 7.44073 20.9057C7.86339 20.5486 8.14713 20.0543 8.2424 19.5093C8.33766 18.9642 8.23839 18.403 7.96193 17.9237C7.68547 17.4444 7.24939 17.0775 6.72988 16.8871C6.47278 16.7978 6.20223 16.7535 5.93009 16.756V16.756Z" fill="#E42525"/>
<path d="M7.71302 1.35047H8.32925V1.56025V2.34693L9.03726 2.68783C9.30122 2.80765 9.54812 2.96196 9.7715 3.14672C9.96726 3.29397 10.1474 3.46092 10.3091 3.64495L10.7811 4.22185L11.5153 4.10385H11.6726L11.8431 4.69386L11.1089 4.99542V5.887C11.1302 6.33384 11.0588 6.78027 10.8991 7.19813L10.6237 7.95859L11.1875 8.5486L11.3973 8.71905L11.004 9.19106L10.7811 9.05994L10.0862 8.62727L9.39127 9.04683C8.96656 9.30061 8.49288 9.46148 8.00147 9.51884L7.07056 9.64995L6.91322 10.4104H6.3101V10.122V9.42706L5.72009 9.07305C5.57731 8.98762 5.44142 8.89118 5.31364 8.7846C5.05768 8.57715 4.83254 8.33434 4.64496 8.06348L4.17295 7.3948L3.37316 7.5128H3.15027L2.97982 6.92279L3.20271 6.83101L3.95006 6.51634V5.71655C3.97442 5.3892 4.04505 5.06695 4.15984 4.75942L4.43518 3.99896L3.87139 3.40895L3.68783 3.22539L4.08117 2.74027L4.30407 2.8845L4.98586 3.31717L5.68076 2.89761C6.00117 2.71227 6.34519 2.57114 6.70344 2.47804L7.4639 2.33382L7.63435 1.50781V1.40291L7.71302 1.35047ZM7.18856 0.0917794C7.00172 0.0903001 6.82046 0.155369 6.67722 0.275338C6.59904 0.37027 6.54505 0.482746 6.51988 0.603122L6.40188 1.19313C5.91195 1.31357 5.44328 1.50811 5.01208 1.77003L4.36962 1.36358C4.24774 1.28723 4.10699 1.24636 3.96317 1.24558C3.85232 1.24404 3.7426 1.26808 3.64255 1.31583C3.54249 1.36358 3.4548 1.43376 3.38627 1.52092L2.36359 2.75338C2.24366 2.89167 2.17764 3.06857 2.17764 3.25161C2.17764 3.43466 2.24366 3.61156 2.36359 3.74985L2.88804 4.30052C2.73131 4.72137 2.6385 5.16332 2.6127 5.61166L1.93091 5.90011C1.81722 5.94203 1.71738 6.01465 1.64246 6.10989C1.56582 6.20381 1.51274 6.31469 1.48766 6.43329C1.46257 6.55189 1.4662 6.67477 1.49824 6.79168L1.93091 8.32571C1.97079 8.49429 2.06899 8.64335 2.20815 8.74652C2.34731 8.84969 2.51847 8.90033 2.69137 8.88949H2.80937L3.5305 8.77149C3.78616 9.13871 4.0905 9.46952 4.43518 9.75484C4.61238 9.9007 4.8009 10.0322 4.99897 10.1482V10.9218C5.01301 11.104 5.09005 11.2756 5.21685 11.4072C5.34365 11.5388 5.51231 11.6221 5.69387 11.6429L7.29345 11.7609C7.41455 11.7729 7.53678 11.7566 7.65053 11.7134C7.76429 11.6702 7.86646 11.6012 7.94902 11.5118C8.0272 11.4168 8.08119 11.3044 8.10636 11.184V10.8562C8.80507 10.7794 9.47971 10.556 10.0862 10.2006L10.7155 10.6071C10.8379 10.6822 10.9783 10.723 11.122 10.7251C11.2346 10.7257 11.3459 10.7014 11.4479 10.6538C11.55 10.6061 11.6401 10.5365 11.712 10.4497L12.7084 9.17794C12.8284 9.03966 12.8944 8.86276 12.8944 8.67971C12.8944 8.49667 12.8284 8.31977 12.7084 8.18148L12.1447 7.57836C12.3516 7.02093 12.4495 6.42893 12.4331 5.83455L12.8002 5.67721C12.9157 5.63872 13.0165 5.56544 13.0887 5.46743C13.1653 5.37351 13.2184 5.26263 13.2435 5.14403C13.2686 5.02543 13.2649 4.90255 13.2329 4.78564L12.8133 3.2385C12.7676 3.07927 12.6712 2.93931 12.5387 2.83991C12.4061 2.74051 12.2448 2.68711 12.0791 2.68783H11.9742L11.3186 2.77961C11.1193 2.53434 10.8952 2.31027 10.65 2.11093C10.338 1.86048 9.9994 1.64504 9.64038 1.46847V0.77357C9.61135 0.599155 9.5244 0.439609 9.39356 0.32067C9.26273 0.201731 9.09564 0.130336 8.91926 0.118002L7.31968 0L7.18856 0.0917794Z" fill="black"/>
<path d="M7.46413 4.95567C7.70374 4.95405 7.93611 5.0377 8.1197 5.19167C8.28205 5.32933 8.39868 5.51312 8.4541 5.71864C8.50952 5.92415 8.50109 6.14166 8.42995 6.34228C8.35881 6.54289 8.22832 6.71712 8.05581 6.84181C7.8833 6.9665 7.67694 7.03575 7.46413 7.04038C7.22079 7.04064 6.98473 6.95733 6.79546 6.80437C6.58684 6.62416 6.45541 6.3707 6.42834 6.09636C6.40034 5.82348 6.48035 5.55049 6.65123 5.3359C6.7519 5.21837 6.87648 5.12365 7.01666 5.05809C7.15684 4.99252 7.30939 4.9576 7.46413 4.95567V4.95567ZM7.46413 3.64454C6.98007 3.64665 6.5085 3.79839 6.11404 4.07896C5.71959 4.35954 5.42153 4.75522 5.26073 5.2118C5.09992 5.66837 5.08423 6.1635 5.2158 6.62935C5.34737 7.09519 5.61976 7.50895 5.99566 7.81394C6.40767 8.15858 6.927 8.34869 7.46413 8.35151C7.8133 8.35279 8.1583 8.2757 8.47371 8.12594C8.78912 7.97617 9.06692 7.75754 9.28661 7.48616C9.67817 7.00328 9.86338 6.38539 9.80201 5.76674C9.74063 5.14809 9.43763 4.57864 8.95883 4.1821C8.53878 3.83366 8.00989 3.64345 7.46413 3.64454Z" fill="#E42525"/>
</svg>
