<svg width="21" height="26" viewBox="0 0 21 26" fill="none" xmlns="http://www.w3.org/2000/svg">
<path d="M8.56822 1.38479C10.7114 1.23167 12.8531 1.70135 14.7355 2.73728C15.3492 3.14901 15.8704 3.68386 16.2663 4.30786C16.6621 4.93186 16.9238 5.63136 17.0348 6.36193C17.143 6.9435 17.2782 7.3763 17.3594 7.71442C17.4405 8.05254 17.5081 8.21484 17.3594 8.44476C17.1164 9.08583 17.056 9.78174 17.1849 10.4551C17.3139 11.1284 17.6271 11.7528 18.0897 12.2588C18.4143 12.678 18.6577 13.0567 18.8606 13.3543C18.416 13.5177 18.0523 13.8474 17.8463 14.274C17.6368 14.804 17.6368 15.3939 17.8463 15.924C17.5914 16.1737 17.4456 16.514 17.4405 16.8707C17.4287 17.14 17.5047 17.4058 17.6569 17.6281C17.4702 18.1041 17.4559 18.6304 17.6163 19.1159C17.6325 19.2778 17.6325 19.4409 17.6163 19.6027H17.1024C16.7643 19.6027 16.4667 19.6027 16.1557 19.6027C15.8446 19.6027 15.4929 19.5351 15.1278 19.5351H15.0466C14.4815 19.5241 13.9272 19.6904 13.4614 20.0106C12.9957 20.3308 12.6419 20.7888 12.4498 21.3204C12.1142 22.4047 11.9947 23.5443 12.0982 24.6746H4.52429C4.94283 22.8346 5.11565 20.9472 5.03823 19.0618C4.8522 17.6177 4.2928 16.2472 3.41525 15.0855C2.44228 13.5734 1.78446 11.8806 1.4812 10.1083C1.14171 8.24494 1.4927 6.32171 2.46851 4.69838C3.13664 3.68926 4.04214 2.85947 5.1056 2.28176C6.16906 1.70405 7.35802 1.39606 8.56822 1.38479V1.38479ZM8.56822 0.0323081C7.15489 0.0397484 5.7642 0.387837 4.51402 1.04707C3.26383 1.7063 2.19102 2.65723 1.38653 3.81926C0.174192 5.75637 -0.265153 8.07861 0.155766 10.3247C0.489058 12.2999 1.23068 14.184 2.33327 15.8564C3.04562 16.8098 3.51032 17.9251 3.68575 19.1023C3.74261 21.4284 3.46939 23.7507 2.87426 26H13.5589C13.5514 25.5024 13.5153 25.0057 13.4507 24.5123C13.3524 23.565 13.4491 22.6076 13.7347 21.6991C13.8506 21.4403 14.0414 21.222 14.2825 21.0726C14.5235 20.9231 14.8038 20.8493 15.0872 20.8606H15.1548C15.777 20.8606 16.372 20.9958 17.1294 20.9958C17.5427 20.9965 17.955 20.9557 18.3602 20.8741C19.1176 20.7388 19.077 19.6027 18.8877 18.8048C18.6983 18.0068 19.3205 17.858 19.3205 17.5334C19.3198 17.3809 19.2747 17.2318 19.1906 17.1045C19.1065 16.9772 18.9872 16.8771 18.8471 16.8166C19.6721 16.3703 19.4828 16.0728 19.3205 15.7346C18.7795 14.558 19.3881 14.558 19.6315 14.4633C19.875 14.3686 20.6729 14.3686 20.7406 13.8412C20.3566 12.9509 19.8514 12.118 19.2393 11.3661C18.9272 11.0479 18.709 10.6497 18.6088 10.2153C18.5085 9.781 18.5302 9.32743 18.6713 8.9046C19.1041 7.90376 18.6713 7.63327 18.3872 6.06439C18.2416 5.15119 17.9079 4.27817 17.4074 3.5006C16.9068 2.72302 16.2503 2.05782 15.4794 1.54709C13.3655 0.38512 10.9607 -0.140926 8.55469 0.0323081H8.56822Z" fill="black"/>
<path d="M9.93408 4.49589V4.79344L10.0423 5.61845L10.8267 5.90247C11.1942 6.02771 11.5373 6.21529 11.8411 6.45699L12.5308 6.98446L13.3018 6.57872H13.4235L13.8157 7.13323L13.6399 7.29553L13.0313 7.83653L13.2341 8.62097C13.3043 8.92256 13.3406 9.23102 13.3423 9.54066C13.363 9.78367 13.363 10.028 13.3423 10.271L13.1936 11.0284L13.7616 11.5423L13.8969 11.6641L13.5046 12.2321L12.7743 11.8399L12.071 12.435C11.7245 12.7319 11.3254 12.9613 10.8943 13.1112L10.1099 13.3817L10.0017 14.2203V14.5178H9.32546V14.2203L9.10906 13.287L8.32462 13.003C7.82268 12.8286 7.36221 12.5524 6.97214 12.1915L6.26884 11.5288L5.56555 11.9346L5.17333 11.3936L5.44383 11.1907L5.98482 10.7038L5.87662 10.0005C5.87662 9.82468 5.87662 9.64885 5.87662 9.47303C5.87403 9.1258 5.91954 8.77988 6.01187 8.44514L6.24179 7.63365L5.61965 7.07914L5.4303 6.90331L5.82252 6.33527L6.06597 6.47052L6.79631 6.86274L7.47255 6.37584C7.7539 6.17324 8.06387 6.0137 8.39224 5.90247L9.17669 5.61845L9.28488 4.79344V4.49589H9.96113H9.93408ZM10.4615 3.14341H8.75741C8.5676 3.1444 8.38435 3.21303 8.24058 3.33698C8.09681 3.46092 8.00193 3.63205 7.97297 3.81965L7.8783 4.63114C7.43114 4.78263 7.00767 4.99664 6.62049 5.26681L5.94425 4.91516C5.83342 4.85094 5.70715 4.8182 5.57908 4.82049C5.45032 4.82132 5.32374 4.85383 5.21052 4.91516C5.09731 4.97649 5.00092 5.06474 4.92988 5.17213L3.96962 6.52462C3.85786 6.68264 3.80846 6.8764 3.83093 7.06865C3.8534 7.26089 3.94615 7.43804 4.09134 7.56603L4.64586 8.07997C4.525 8.52081 4.46136 8.97537 4.45652 9.43246C4.44305 9.66669 4.44305 9.90151 4.45652 10.1357L3.86142 10.6903C3.71623 10.8183 3.62348 10.9954 3.60101 11.1877C3.57854 11.3799 3.62794 11.5737 3.7397 11.7317L4.69996 13.0842C4.77253 13.1891 4.86958 13.2747 4.9827 13.3336C5.09583 13.3925 5.22161 13.423 5.34915 13.4223C5.47723 13.4246 5.60349 13.3918 5.71433 13.3276L6.0795 13.287C6.59305 13.7777 7.20669 14.1514 7.8783 14.3825L7.97297 15.167C7.99597 15.3595 8.08827 15.5371 8.23263 15.6665C8.37699 15.7959 8.56354 15.8684 8.75741 15.8703H10.4345C10.6284 15.8684 10.8149 15.7959 10.9593 15.6665C11.1036 15.5371 11.1959 15.3595 11.2189 15.167L11.3136 14.3825C11.901 14.1753 12.4462 13.8637 12.9231 13.4629L13.2882 13.6522C13.3991 13.7164 13.5253 13.7492 13.6534 13.7469V13.7469C13.781 13.7475 13.9067 13.7171 14.0199 13.6582C14.133 13.5993 14.23 13.5137 14.3026 13.4088L15.2629 12.0563C15.3746 11.8983 15.424 11.7045 15.4016 11.5122C15.3791 11.32 15.2863 11.1429 15.1411 11.0149L14.6407 10.555C14.7057 10.2254 14.7374 9.89012 14.7354 9.55418C14.7334 9.1351 14.6835 8.71762 14.5866 8.3099L15.1276 7.823C15.2728 7.69501 15.3656 7.51786 15.388 7.32562C15.4105 7.13338 15.3611 6.93961 15.2493 6.78159L14.2891 5.42911C14.2165 5.32421 14.1195 5.2386 14.0063 5.17968C13.8932 5.12076 13.7674 5.09032 13.6399 5.09098C13.5135 5.08923 13.3885 5.11701 13.2747 5.17213L12.7067 5.46968C12.2976 5.15234 11.8412 4.90132 11.3542 4.72581L11.2189 3.81965C11.1929 3.62959 11.0993 3.45525 10.9553 3.32858C10.8112 3.2019 10.6263 3.13136 10.4345 3.12988L10.4615 3.14341Z" fill="#E42525"/>
<path d="M9.50148 8.67465C9.65717 8.67196 9.81014 8.71568 9.94091 8.80023C10.0717 8.88477 10.1743 9.00633 10.2358 9.14941C10.2972 9.29249 10.3147 9.45062 10.286 9.60367C10.2573 9.75671 10.1836 9.89775 10.0745 10.0088C9.96534 10.1199 9.82561 10.1959 9.67308 10.2273C9.52056 10.2587 9.36215 10.244 9.21802 10.185C9.07389 10.1261 8.95057 10.0256 8.86376 9.89627C8.77695 9.767 8.73058 9.61481 8.73056 9.45909C8.73053 9.25337 8.81132 9.05586 8.95552 8.90913C9.09972 8.76241 9.29578 8.6782 9.50148 8.67465ZM9.50148 7.32217C9.08003 7.3275 8.66956 7.45735 8.32173 7.69538C7.97389 7.93341 7.70421 8.26898 7.54661 8.65989C7.38901 9.05081 7.35053 9.47959 7.43601 9.89232C7.5215 10.305 7.72712 10.6833 8.02703 10.9794C8.32693 11.2756 8.70771 11.4764 9.12148 11.5567C9.53525 11.637 9.96352 11.5931 10.3524 11.4306C10.7413 11.2681 11.0735 10.9942 11.3071 10.6434C11.5407 10.2926 11.6654 9.88057 11.6655 9.45909C11.6673 9.17566 11.6124 8.89472 11.504 8.63285C11.3955 8.37097 11.2358 8.13345 11.0341 7.93429C10.8324 7.73514 10.5929 7.57837 10.3297 7.47324C10.0665 7.36811 9.78486 7.31674 9.50148 7.32217V7.32217Z" fill="#E42525"/>
</svg>
