<svg width="28" height="27" viewBox="0 0 28 27" fill="none" xmlns="http://www.w3.org/2000/svg">
<path d="M20.4542 9.80997L20.5472 10.5693L20.6711 11.5302L21.57 11.8401C22.1246 12.0487 22.6465 12.3357 23.1197 12.6925L23.9101 13.2968L24.7779 12.8319L25.2583 12.584L26.2036 13.9322L25.7077 14.3971L25.0104 15.017L25.2428 15.9159C25.3538 16.3726 25.411 16.8407 25.4133 17.3106C25.4087 17.6901 25.3724 18.0685 25.3048 18.4419L25.1343 19.3098L25.7852 19.8832L26.2346 20.3016L25.2893 21.6498L25.1033 21.5569L24.1735 21.0609L23.3677 21.7428C22.8358 22.1943 22.2268 22.546 21.57 22.7811L20.6711 23.1066L20.5472 24.0519L20.4542 24.8113H18.7495L18.6565 24.0519L18.5325 23.1066L17.6337 22.7811C16.8761 22.5178 16.1839 22.095 15.6036 21.5414L14.7977 20.782L13.8214 21.3089H13.6974L12.7056 20.0071L13.2945 19.4802L13.9144 18.9378L13.8214 18.132C13.806 17.8636 13.806 17.5945 13.8214 17.3261C13.8254 16.8023 13.8983 16.2812 14.0383 15.7764L14.3018 14.8466L13.5889 14.1957L13.062 13.7308L14.0073 12.367L14.6582 12.708L15.4951 13.1574L16.2699 12.5995C16.7098 12.3021 17.1831 12.0576 17.6802 11.8711L18.579 11.5612L18.703 10.6003L18.796 9.84097H20.4542V9.80997ZM20.8261 8.29125H18.3776C18.1029 8.29292 17.8382 8.39448 17.6328 8.57698C17.4275 8.75949 17.2956 9.01046 17.2618 9.28307L17.1068 10.4144C16.4766 10.6495 15.878 10.9618 15.3246 11.3442L14.3638 10.8328C14.2024 10.7435 14.0213 10.6955 13.8369 10.6933C13.6547 10.6926 13.475 10.7359 13.3131 10.8195C13.1512 10.9032 13.0119 11.0247 12.907 11.1737L11.5278 13.1109C11.3557 13.3431 11.2776 13.6318 11.3092 13.9192C11.3408 14.2065 11.4798 14.4713 11.6983 14.6606L12.5041 15.3735C12.3194 16.0238 12.2255 16.6966 12.2252 17.3726C12.202 17.7132 12.202 18.0549 12.2252 18.3954L11.3728 19.1703C11.1477 19.3552 11.0039 19.6209 10.972 19.9104C10.9402 20.2 11.0228 20.4906 11.2024 20.72L12.7056 22.5642C12.8131 22.7105 12.9529 22.83 13.1142 22.9133C13.2755 22.9967 13.4539 23.0416 13.6354 23.0446C13.8203 23.0459 14.0022 22.9977 14.1623 22.9051L14.6117 22.6727C15.3578 23.355 16.2323 23.8818 17.1843 24.2224L17.3392 25.3537C17.3699 25.6276 17.5008 25.8805 17.7068 26.0637C17.9129 26.2468 18.1794 26.3472 18.455 26.3455H20.8571C21.1318 26.3438 21.3965 26.2423 21.6018 26.0598C21.8072 25.8773 21.9391 25.6263 21.9729 25.3537L22.1124 24.2224C22.9502 23.9254 23.7272 23.4791 24.406 22.9051L24.9329 23.1841C25.0967 23.2652 25.277 23.3076 25.4598 23.308C25.6422 23.3101 25.8224 23.2674 25.9845 23.1836C26.1466 23.0999 26.2857 22.9776 26.3896 22.8276L27.7689 20.875C27.9446 20.6441 28.0249 20.3545 27.9932 20.0661C27.9615 19.7776 27.8201 19.5124 27.5984 19.3253L26.87 18.6589C26.9633 18.1894 27.01 17.7118 27.0095 17.2331C26.9557 16.6583 26.8361 16.0915 26.6531 15.5439L27.4279 14.8311C27.6497 14.6439 27.791 14.3787 27.8227 14.0903C27.8545 13.8018 27.7742 13.5122 27.5984 13.2813L26.2191 11.3287C26.1162 11.1777 25.9773 11.0547 25.815 10.9709C25.6527 10.887 25.472 10.8449 25.2893 10.8483C25.1069 10.8522 24.9274 10.8945 24.7624 10.9723L23.9721 11.4062C23.3731 10.9651 22.7091 10.62 22.0039 10.3834L21.8644 9.25208C21.8275 8.98077 21.6947 8.73165 21.49 8.54974C21.2854 8.36783 21.0224 8.26515 20.7486 8.26025L20.8261 8.29125Z" fill="black"/>
<path d="M19.4938 14.6142C20.0247 14.6111 20.5446 14.7658 20.9875 15.0585C21.4304 15.3512 21.7765 15.7688 21.9818 16.2585C22.1871 16.7481 22.2424 17.2876 22.1407 17.8087C22.039 18.3298 21.7849 18.8089 21.4105 19.1854C21.0362 19.5619 20.5585 19.8188 20.0381 19.9235C19.5176 20.0282 18.9777 19.9761 18.4869 19.7736C17.9961 19.5711 17.5765 19.2275 17.2812 18.7863C16.9859 18.3451 16.8283 17.8261 16.8283 17.2952C16.8283 16.5868 17.1086 15.9073 17.608 15.4049C18.1075 14.9026 18.7854 14.6183 19.4938 14.6142V14.6142ZM19.4938 13.0645C18.6564 13.0614 17.8369 13.3069 17.1391 13.7699C16.4413 14.233 15.8967 14.8926 15.5741 15.6654C15.2515 16.4382 15.1655 17.2894 15.327 18.1111C15.4885 18.9328 15.8902 19.688 16.4812 20.2813C17.0723 20.8745 17.8261 21.279 18.6472 21.4435C19.4683 21.608 20.3198 21.5251 21.0937 21.2054C21.8677 20.8856 22.5294 20.3434 22.9949 19.6473C23.4605 18.9512 23.709 18.1326 23.709 17.2952C23.7111 16.7404 23.6036 16.1906 23.3926 15.6774C23.1817 15.1642 22.8715 14.6976 22.4799 14.3046C22.0883 13.9115 21.6229 13.5996 21.1105 13.3868C20.5981 13.174 20.0487 13.0645 19.4938 13.0645V13.0645Z" fill="#E42525"/>
<path d="M5.74765 1.68921L5.87163 1.96816L6.27456 2.836H7.23538C7.66812 2.85033 8.09636 2.92867 8.50615 3.06846L9.45148 3.4094L10.1334 2.71202L10.2418 2.63454L10.8152 3.08396L10.6913 3.28542L10.2263 4.18426L10.7068 4.97462C10.8916 5.24435 11.0426 5.53583 11.1562 5.84246C11.2441 6.10355 11.3013 6.37399 11.3266 6.64831L11.4351 7.51616L12.2255 7.88809L12.4115 7.96558L12.179 8.66295L11.2647 8.49248L10.7068 9.37582C10.4101 9.81528 10.0375 10.1984 9.60646 10.5071L8.83159 11.0805L9.01756 12.0258V12.3358L8.33568 12.5527L8.19621 12.2583L7.79328 11.3905H6.84795C6.26099 11.3767 5.68427 11.2338 5.15876 10.972L4.15144 10.4916L3.50056 11.158L3.02014 10.6931L3.19061 10.3831L3.60904 9.67027L3.2526 8.9574C3.2526 8.77143 3.09763 8.58546 3.03564 8.3995C2.92468 8.03682 2.85705 7.66228 2.83418 7.2837V6.32287L1.93534 5.88895L1.68738 5.73398L1.85785 5.09859H2.1368L3.08213 5.26906L3.65553 4.5097C3.88917 4.19852 4.1657 3.92199 4.47688 3.68835L5.23624 3.11495L5.11226 2.21611V1.90617L5.80964 1.68921H5.74765ZM6.10409 1.21233e-05H5.82514L4.02746 0.604403C3.81975 0.668895 3.64247 0.80651 3.52849 0.991737C3.4145 1.17696 3.37154 1.39724 3.40757 1.61172L3.57804 2.49506C3.15264 2.81461 2.77213 3.18991 2.44675 3.61086L1.5944 3.45589H1.43943C1.35234 3.43988 1.26306 3.43988 1.17597 3.45589C1.03879 3.50151 0.914136 3.57849 0.81191 3.68072C0.709683 3.78295 0.632702 3.9076 0.58708 4.04478L0.0446778 5.87345C-0.0241782 6.08165 -0.0131352 6.30801 0.075659 6.50851C0.164453 6.70902 0.32465 6.86932 0.525091 6.95826L1.29995 7.2992C1.31093 7.82593 1.39971 8.34815 1.5634 8.84892C1.6377 9.11065 1.73628 9.36488 1.85785 9.60828L1.39293 10.3831C1.28166 10.5688 1.24382 10.7894 1.28683 11.0016C1.32983 11.2138 1.45059 11.4022 1.62539 11.5299L3.17511 12.6767C3.33021 12.7973 3.52107 12.8627 3.71752 12.8627H3.99647C4.13544 12.8304 4.26038 12.7543 4.3529 12.6457L4.63185 12.3513C5.35267 12.7026 6.13949 12.898 6.94094 12.9247L7.31287 13.746C7.38966 13.8984 7.50691 14.0268 7.65179 14.117C7.79666 14.2072 7.96357 14.2558 8.13422 14.2574C8.22142 14.2722 8.31047 14.2722 8.39767 14.2574L10.1953 13.6995C10.4052 13.6347 10.5834 13.494 10.6952 13.3049C10.8069 13.1158 10.8442 12.8918 10.7997 12.6767L10.6448 11.8089C11.2044 11.3815 11.6822 10.8565 12.055 10.2592L12.5044 10.3521H12.6749C12.762 10.3682 12.8513 10.3682 12.9384 10.3521C13.0755 10.3065 13.2002 10.2295 13.3024 10.1273C13.4046 10.0251 13.4816 9.90044 13.5272 9.76325L14.0851 7.96558C14.1533 7.75955 14.1417 7.53548 14.0528 7.33755C13.9638 7.13962 13.804 6.98218 13.6047 6.89627L12.9074 6.57083C12.8612 6.19813 12.7835 5.83003 12.6749 5.47053C12.5295 5.02025 12.3319 4.58855 12.086 4.18426L12.5044 3.47139C12.6133 3.28242 12.6497 3.06033 12.6069 2.8465C12.5642 2.63266 12.4451 2.44167 12.272 2.3091L10.7223 1.08482C10.5661 0.966273 10.3759 0.901077 10.1799 0.89885C10.0875 0.884076 9.9933 0.884076 9.9009 0.89885C9.79175 0.941402 9.69178 1.00454 9.60646 1.08482L9.09505 1.59622C8.50937 1.40881 7.89667 1.31978 7.28187 1.33277L6.90994 0.51142C6.8387 0.357951 6.72489 0.22817 6.58203 0.13751C6.43917 0.0468504 6.27328 -0.000874152 6.10409 1.21233e-05V1.21233e-05Z" fill="black"/>
<path d="M7.01815 5.88859C7.28032 5.88546 7.53622 5.96877 7.7463 6.12563C7.95638 6.2825 8.10896 6.50418 8.18044 6.75643C8.24537 6.90283 8.27891 7.0612 8.27891 7.22135C8.27891 7.3815 8.24537 7.53987 8.18044 7.68626C8.1084 7.82979 8.00813 7.9573 7.88564 8.06115C7.76315 8.16501 7.62095 8.24307 7.46757 8.29066C7.34461 8.31304 7.21861 8.31304 7.09564 8.29066C6.83146 8.2946 6.57325 8.21188 6.36055 8.05514C6.14784 7.89841 5.99234 7.67631 5.91785 7.42281C5.85293 7.27641 5.81938 7.11804 5.81938 6.9579C5.81938 6.79775 5.85293 6.63938 5.91785 6.49298C5.99086 6.34734 6.09328 6.21843 6.21865 6.1144C6.34403 6.01037 6.48962 5.93348 6.64622 5.88859C6.76919 5.8662 6.89519 5.8662 7.01815 5.88859V5.88859ZM7.01815 4.33887C6.73485 4.34175 6.45328 4.38346 6.1813 4.46284C5.55374 4.66895 5.01968 5.09107 4.67419 5.65406C4.3287 6.21705 4.19421 6.88437 4.29465 7.53723C4.39509 8.19009 4.72395 8.78613 5.22268 9.21924C5.72141 9.65235 6.35766 9.89442 7.01815 9.90236C7.30146 9.89948 7.58303 9.85777 7.855 9.77839C8.48257 9.57228 9.01663 9.15016 9.36211 8.58717C9.7076 8.02418 9.8421 7.35686 9.74166 6.704C9.64122 6.05114 9.31236 5.4551 8.81363 5.02199C8.31489 4.58889 7.67865 4.34681 7.01815 4.33887V4.33887Z" fill="#E42525"/>
</svg>
