<svg width="25" height="27" viewBox="0 0 25 27" fill="none" xmlns="http://www.w3.org/2000/svg">
<path d="M14.4521 1.52721C14.4891 1.52999 14.5243 1.54499 14.5519 1.56986C14.5795 1.59473 14.5981 1.62807 14.6048 1.66465L14.8186 3.34458L14.9408 4.27618L15.8113 4.58162C16.7289 4.90163 17.5898 5.36559 18.3617 5.95611L19.1253 6.55172L19.9958 6.09355L21.2634 5.43686C21.2827 5.42845 21.3035 5.42411 21.3245 5.42411C21.3455 5.42411 21.3663 5.42845 21.3856 5.43686L23.4473 8.44545C23.4721 8.47555 23.4857 8.51334 23.4857 8.55236C23.4857 8.59137 23.4721 8.62917 23.4473 8.65926L22.2866 9.69776L21.5994 10.3086L21.8285 11.1944C22.011 11.9392 22.1033 12.7032 22.1034 13.47C22.102 14.0752 22.0406 14.6789 21.9201 15.2721L21.7521 16.112L22.3935 16.6924L23.4779 17.6698C23.5027 17.6999 23.5163 17.7377 23.5163 17.7767C23.5163 17.8157 23.5027 17.8535 23.4779 17.8836L21.4314 20.8006C21.4098 20.8102 21.3864 20.8153 21.3627 20.8153C21.339 20.8153 21.3156 20.8102 21.2939 20.8006V20.8006L20.3929 20.4646L19.4918 19.9911L18.6977 20.6478C17.8466 21.3836 16.8685 21.9581 15.8113 22.343L14.9255 22.6637L14.8033 23.5953L14.5895 25.2753C14.5829 25.3118 14.5643 25.3452 14.5366 25.3701C14.509 25.3949 14.4739 25.4099 14.4368 25.4127H10.8784C10.8413 25.4099 10.8062 25.3949 10.7786 25.3701C10.7509 25.3452 10.7323 25.3118 10.7257 25.2753L10.5271 23.5953L10.405 22.6637L9.51919 22.343C8.28875 21.9133 7.16413 21.226 6.22042 20.3271L5.42627 19.5941L4.46413 20.098L3.7158 20.4798C3.69073 20.4781 3.66646 20.4703 3.64514 20.457C3.62383 20.4437 3.60614 20.4253 3.59363 20.4035L1.54717 17.4865C1.52234 17.4564 1.50876 17.4186 1.50876 17.3796C1.50876 17.3406 1.52234 17.3028 1.54717 17.2727L2.83002 16.112L3.44091 15.5775L3.31873 14.7834C3.27091 14.3471 3.24542 13.9088 3.24237 13.47C3.23592 12.6073 3.35423 11.7483 3.59363 10.9195L3.83798 10.0032L3.13546 9.36178L1.94424 8.29273C1.92187 8.26158 1.90983 8.22419 1.90983 8.18583C1.90983 8.14747 1.92187 8.11008 1.94424 8.07892L3.9907 5.16196C3.9907 5.16196 3.9907 5.16196 4.11288 5.16196L5.64008 5.92556L6.46477 6.36845L7.22838 5.81866C7.93389 5.30677 8.70422 4.89079 9.51919 4.58162L10.405 4.26091L10.5271 3.32931L10.7257 1.64938C10.7352 1.61562 10.755 1.58569 10.7824 1.56378C10.8098 1.54187 10.8434 1.52908 10.8784 1.52721H14.4521ZM14.4521 0H10.8784C10.4617 0.00546058 10.0617 0.1642 9.75461 0.445906C9.44755 0.727613 9.25501 1.11255 9.21375 1.52721L8.99994 3.14605C8.0525 3.50042 7.15834 3.98347 6.3426 4.58162L4.90702 3.81802C4.66369 3.6849 4.39023 3.61653 4.11288 3.61948C3.84225 3.61594 3.57498 3.67968 3.33507 3.80496C3.09517 3.93024 2.89013 4.11316 2.73839 4.33727L0.691934 7.20841C0.455106 7.54365 0.349204 7.954 0.394222 8.36197C0.43924 8.76995 0.632063 9.14733 0.936287 9.42286L2.06642 10.5072C1.80416 11.473 1.67065 12.4692 1.66935 13.47C1.6693 13.9804 1.6999 14.4904 1.76098 14.9972L0.539213 16.1426C0.242993 16.4166 0.055289 16.788 0.0104213 17.189C-0.0344465 17.59 0.0665204 17.9938 0.29486 18.3265L2.34132 21.2434C2.4923 21.4694 2.69677 21.6546 2.93657 21.7825C3.17636 21.9103 3.44404 21.977 3.7158 21.9765C3.99224 21.9721 4.26397 21.9042 4.50995 21.778L5.12083 21.3809C6.21435 22.4205 7.51555 23.2168 8.93885 23.7175L9.15266 25.3974C9.19062 25.8134 9.38218 26.2003 9.68995 26.4826C9.99772 26.765 10.3996 26.9226 10.8173 26.9247H14.391C14.8086 26.9226 15.2106 26.765 15.5183 26.4826C15.8261 26.2003 16.0177 25.8134 16.0556 25.3974L16.2694 23.7175C17.521 23.2835 18.681 22.6206 19.6904 21.7627L20.4693 22.175C20.7104 22.2995 20.9768 22.3674 21.2481 22.3736V22.3736C21.5215 22.3713 21.7904 22.3036 22.0322 22.1761C22.274 22.0485 22.4817 21.8649 22.6379 21.6405L24.6843 18.7236C24.913 18.3844 25.0126 17.9745 24.9649 17.5682C24.9173 17.1619 24.7256 16.7862 24.4247 16.5091L23.4473 15.5928C23.765 14.0162 23.7285 12.3887 23.3404 10.8279L24.5011 9.78939C24.7824 9.51129 24.9566 9.14282 24.9929 8.74891C25.0292 8.35499 24.9254 7.96089 24.6996 7.63603L22.6532 4.65798C22.5022 4.43201 22.2977 4.24685 22.0579 4.11896C21.8181 3.99107 21.5504 3.92442 21.2787 3.92492C21.0022 3.92931 20.7305 3.99724 20.4845 4.12346L19.2933 4.76488C18.3952 4.07556 17.3958 3.52947 16.3305 3.14605L16.1167 1.52721C16.0755 1.11255 15.8829 0.727613 15.5759 0.445906C15.2688 0.1642 14.8687 0.00546058 14.4521 0V0Z" fill="black"/>
<path d="M12.5431 6.96423C13.8238 6.96423 15.0757 7.34401 16.1406 8.05553C17.2055 8.76705 18.0354 9.77836 18.5255 10.9616C19.0156 12.1448 19.1439 13.4468 18.894 14.7029C18.6442 15.959 18.0275 17.1128 17.1219 18.0184C16.2163 18.924 15.0625 19.5407 13.8064 19.7905C12.5503 20.0404 11.2483 19.9121 10.0651 19.422C8.88187 18.9319 7.87055 18.102 7.15903 17.0371C6.44751 15.9722 6.06774 14.7203 6.06774 13.4396C6.06774 11.7222 6.74996 10.0752 7.96433 8.86082C9.17869 7.64646 10.8257 6.96423 12.5431 6.96423V6.96423ZM12.5431 5.43703C10.9603 5.43703 9.41312 5.90637 8.09711 6.7857C6.78109 7.66503 5.75538 8.91486 5.14969 10.3771C4.54399 11.8394 4.38552 13.4485 4.6943 15.0008C5.00308 16.5532 5.76525 17.9791 6.88443 19.0983C8.00361 20.2174 9.42953 20.9796 10.9819 21.2884C12.5342 21.5972 14.1433 21.4387 15.6055 20.833C17.0678 20.2273 18.3176 19.2016 19.197 17.8856C20.0763 16.5696 20.5457 15.0223 20.5457 13.4396C20.5477 12.3881 20.342 11.3466 19.9406 10.3748C19.5391 9.40294 18.9498 8.51994 18.2062 7.77644C17.4627 7.03293 16.5797 6.44354 15.6079 6.04209C14.6361 5.64063 13.5946 5.43501 12.5431 5.43703V5.43703Z" fill="black"/>
<path d="M15.567 10.415L16.8804 11.6979L11.3519 17.0584L8.17529 13.9429L9.47342 12.6753L11.3672 14.5232L15.567 10.415Z" fill="#E42525"/>
</svg>
