<svg width="35" height="22" viewBox="0 0 35 22" fill="none" xmlns="http://www.w3.org/2000/svg">
<path d="M7.66658 1.62086H7.92592C9.39417 1.71069 10.7821 2.32169 11.84 3.34386C12.8978 4.36604 13.556 5.73224 13.6961 7.19656C13.7616 8.1826 13.5776 9.16924 13.1612 10.0654V10.1627C12.5291 11.3135 8.76876 18.1859 7.66658 20.2605C5.67295 16.7109 2.80406 11.3135 2.18814 10.2599V10.0817C1.84963 9.3162 1.67833 8.48733 1.68568 7.65039C1.68985 6.06094 2.31978 4.53707 3.43914 3.40861C4.5585 2.28015 6.07722 1.6379 7.66658 1.62086ZM7.66658 1.71715e-05C6.66056 -0.00211424 5.66399 0.194196 4.73393 0.577708C3.80388 0.961221 2.95859 1.52441 2.24647 2.23502C1.53435 2.94564 0.969377 3.78973 0.583897 4.71897C0.198416 5.64822 -2.25784e-06 6.64436 0 7.65039C0.00120036 8.70902 0.216208 9.75649 0.632128 10.73V10.73C0.761796 11.0217 4.31144 17.5537 6.30508 21.2006C6.43135 21.4417 6.6212 21.6437 6.85405 21.7846C7.08691 21.9255 7.35389 22 7.62606 22C7.89823 22 8.16522 21.9255 8.39807 21.7846C8.63093 21.6437 8.82078 21.4417 8.94705 21.2006C10.033 19.2394 14.5876 10.7948 14.62 10.73C15.1533 9.59233 15.3823 8.33575 15.2845 7.0831C15.1304 5.22022 14.3067 3.47626 12.9657 2.17402C11.6247 0.871782 9.85734 0.09946 7.99075 1.71715e-05H7.66658Z" fill="black"/>
<path d="M8.93081 9.36787H6.64542L6.20779 10.6808H4.83008L7.1803 4.34326H8.39593L10.7624 10.6808H9.36844L8.93081 9.36787ZM7.00201 8.2657H8.62285L7.81243 5.89927L7.00201 8.2657Z" fill="#438321"/>
<path d="M26.6504 1.62084H26.9097C28.378 1.71068 29.7659 2.32168 30.8238 3.34385C31.8816 4.36602 32.5398 5.73223 32.6799 7.19654C32.7454 8.18259 32.5614 9.16923 32.145 10.0654V10.1627L26.6342 20.2605C24.673 16.7109 21.7716 11.3297 21.2043 10.2599V10.0816C20.8658 9.31619 20.6945 8.48732 20.7019 7.65038C20.7059 6.06646 21.3314 4.54739 22.4438 3.41984C23.5562 2.29229 25.0667 1.64632 26.6504 1.62084V1.62084ZM26.6504 0C24.6214 0 22.6755 0.80602 21.2407 2.24074C19.806 3.67547 19 5.62137 19 7.65038C19.0012 8.70901 19.2162 9.75648 19.6321 10.73V10.73C19.7618 11.0217 23.3114 17.5537 25.3051 21.2006C25.4314 21.4417 25.6212 21.6437 25.8541 21.7846C26.0869 21.9255 26.3539 22 26.6261 22C26.8982 22 27.1652 21.9255 27.3981 21.7846C27.6309 21.6437 27.8208 21.4417 27.9471 21.2006C29.033 19.2394 33.5876 10.7948 33.62 10.73C34.1533 9.59232 34.3823 8.33574 34.2846 7.08308C34.1305 5.22021 33.3067 3.47624 31.9657 2.174C30.6247 0.871765 28.8573 0.0994429 26.9908 0H26.6504Z" fill="black"/>
<path d="M24.6405 11.3456V4.99193H26.8286C27.4434 4.95248 28.0553 5.10543 28.5792 5.42956C28.7715 5.58551 28.9256 5.78348 29.0296 6.00826C29.1335 6.23303 29.1846 6.47865 29.1789 6.72623C29.1829 7.01997 29.0982 7.30808 28.9357 7.55286C28.7674 7.78481 28.5371 7.96458 28.2712 8.07153C28.5747 8.13835 28.8446 8.31065 29.033 8.55778C29.2327 8.81729 29.3358 9.1382 29.3247 9.46546C29.3453 9.72509 29.303 9.98585 29.2015 10.2257C29.0999 10.4655 28.942 10.6773 28.7412 10.8432C28.2717 11.1842 27.7002 11.3557 27.1204 11.3294L24.6405 11.3456ZM25.9534 7.66632H26.9097C27.5742 7.66632 27.8984 7.39078 27.8984 6.87211C27.9093 6.75754 27.893 6.64202 27.8508 6.53497C27.8085 6.42792 27.7415 6.33239 27.6553 6.25619C27.4104 6.09703 27.1199 6.02298 26.8286 6.04548H25.9534V7.66632ZM25.9534 8.5902V10.2759H27.0718C27.327 10.2932 27.5801 10.2184 27.7849 10.0652C27.8731 9.98976 27.9425 9.89482 27.9875 9.78789C28.0325 9.68097 28.0519 9.56501 28.0443 9.44925C28.0581 9.32811 28.0438 9.20541 28.0026 9.09067C27.9613 8.97593 27.8942 8.87223 27.8065 8.7876C27.7187 8.70296 27.6126 8.63967 27.4965 8.60263C27.3803 8.56559 27.2572 8.55579 27.1366 8.57399L25.9534 8.5902Z" fill="#E42525"/>
</svg>
