<svg width="16" height="22" viewBox="0 0 16 22" fill="none" xmlns="http://www.w3.org/2000/svg">
<path d="M7.65038 1.62084H7.99076C9.45901 1.71068 10.847 2.32168 11.9048 3.34385C12.9626 4.36602 13.6209 5.73223 13.761 7.19654C13.8264 8.18259 13.6425 9.16923 13.2261 10.0654V10.1627C12.594 11.3135 8.88222 18.2669 7.74763 20.2605C5.78641 16.7109 2.8851 11.3297 2.31781 10.2599V10.0816C1.9793 9.31619 1.808 8.48732 1.81534 7.65038C1.81859 6.0856 2.42841 4.58303 3.51659 3.45858C4.60477 2.33412 6.08655 1.67538 7.65038 1.62084V1.62084ZM7.65038 0C5.62137 0 3.67547 0.80602 2.24074 2.24074C0.80602 3.67547 0 5.62137 0 7.65038C0.00120036 8.70901 0.216209 9.75648 0.632129 10.73V10.73C0.761796 11.0217 4.31144 17.5537 6.30508 21.2006C6.43135 21.4417 6.6212 21.6437 6.85406 21.7846C7.08691 21.9255 7.35389 22 7.62607 22C7.89824 22 8.16522 21.9255 8.39808 21.7846C8.63093 21.6437 8.82079 21.4417 8.94705 21.2006C10.033 19.2394 14.5876 10.7948 14.62 10.73C15.1533 9.59232 15.3823 8.33574 15.2846 7.08308C15.1305 5.22021 14.3067 3.47624 12.9657 2.174C11.6247 0.871765 9.85735 0.0994429 7.99076 0H7.65038Z" fill="black"/>
<path d="M7.65017 5.49487C8.05476 5.49166 8.4512 5.6087 8.78917 5.83114C9.12714 6.05359 9.39143 6.37141 9.54849 6.74429C9.70555 7.11717 9.74832 7.5283 9.67135 7.92553C9.59439 8.32275 9.40118 8.68816 9.11622 8.9754C8.83126 9.26264 8.4674 9.45876 8.0708 9.53888C7.6742 9.61901 7.26275 9.57952 6.88863 9.42543C6.51451 9.27135 6.19459 9.00961 5.96945 8.67342C5.74432 8.33723 5.62413 7.94174 5.62411 7.53713C5.6241 6.99828 5.83704 6.48127 6.21654 6.09873C6.59604 5.7162 7.11134 5.49914 7.65017 5.49487V5.49487ZM7.65017 3.87402C6.92567 3.87402 6.21745 4.08886 5.61506 4.49137C5.01266 4.89388 4.54315 5.46597 4.2659 6.13532C3.98865 6.80466 3.91611 7.54119 4.05745 8.25177C4.19879 8.96234 4.54767 9.61504 5.05996 10.1273C5.57226 10.6396 6.22496 10.9885 6.93553 11.1298C7.64611 11.2712 8.38263 11.1986 9.05198 10.9214C9.72132 10.6441 10.2934 10.1746 10.6959 9.57224C11.0984 8.96985 11.3133 8.26162 11.3133 7.53713C11.3133 6.56561 10.9273 5.63389 10.2404 4.94692C9.55341 4.25996 8.62168 3.87402 7.65017 3.87402Z" fill="#E42525"/>
</svg>
