<svg width="22" height="25" viewBox="0 0 22 25" fill="none" xmlns="http://www.w3.org/2000/svg">
<path d="M10.7032 25.0003C5.39033 25.0003 0 23.2035 0 19.7803C0 17.3485 3.00496 15.3813 7.74473 14.7617L7.96159 16.3107C4.22863 16.8063 1.62639 18.2314 1.62639 19.7958C1.62639 21.3602 5.2974 23.4668 10.7807 23.4668C16.2639 23.4668 19.9349 21.5771 19.9349 19.7958C19.9349 18.2468 17.3327 16.8063 13.6307 16.3107L13.8476 14.7617C18.4944 15.3813 21.4839 17.3639 21.4839 19.7803C21.4064 23.2035 16.0161 25.0003 10.7032 25.0003Z" fill="black"/>
<path d="M10.7031 1.54895H11.0284C12.4106 1.65081 13.7129 2.23588 14.7069 3.20163C15.701 4.16738 16.3235 5.45218 16.4652 6.83085C16.5278 7.77316 16.352 8.71604 15.9541 9.57249V9.66543L10.6876 19.3618C8.81342 15.9696 6.0408 10.8271 5.49867 9.82032V9.63445C5.17518 8.90294 5.01148 8.11084 5.0185 7.31103C5.02236 5.79737 5.62009 4.34568 6.68314 3.26814C7.7462 2.19061 9.18967 1.57329 10.7031 1.54895V1.54895ZM10.7031 0C8.76413 0 6.90454 0.770267 5.53346 2.14135C4.16237 3.51243 3.39211 5.37202 3.39211 7.31103C3.39325 8.3227 3.59872 9.32371 3.99619 10.254V10.254C4.12011 10.5328 7.5123 16.7751 9.41751 20.2602C9.53818 20.4906 9.71961 20.6836 9.94213 20.8183C10.1647 20.9529 10.4198 21.0241 10.6799 21.0241C10.94 21.0241 11.1951 20.9529 11.4177 20.8183C11.6402 20.6836 11.8216 20.4906 11.9423 20.2602C12.9801 18.386 17.3326 10.316 17.3636 10.254C17.8628 9.18548 18.0813 8.00734 17.9987 6.83085C17.8657 5.03956 17.0848 3.35804 15.8019 2.10081C14.519 0.843576 12.822 0.0967457 11.0284 0H10.7031Z" fill="#E42525"/>
<path d="M10.7031 5.28235C11.091 5.27931 11.4711 5.39198 11.7947 5.60596C12.1183 5.81993 12.3709 6.12551 12.52 6.48367C12.6692 6.84182 12.7082 7.2363 12.6321 7.61674C12.556 7.99717 12.3682 8.3463 12.0928 8.61953C11.8174 8.89276 11.4668 9.0777 11.0857 9.15074C10.7047 9.22377 10.3105 9.18159 9.95358 9.02956C9.59663 8.87754 9.2931 8.62259 9.08172 8.29725C8.87035 7.97191 8.76074 7.59096 8.76689 7.20304C8.77496 6.69348 8.98203 6.20729 9.34383 5.84839C9.70563 5.48948 10.1935 5.28633 10.7031 5.28235V5.28235ZM10.7031 3.7334C10.0107 3.7334 9.33391 3.93871 8.75823 4.32336C8.18256 4.70801 7.73388 5.25473 7.46892 5.89439C7.20397 6.53404 7.13465 7.2379 7.26972 7.91695C7.40479 8.59601 7.73819 9.21976 8.22776 9.70933C8.71733 10.1989 9.34108 10.5323 10.0201 10.6674C10.6992 10.8024 11.403 10.7331 12.0427 10.4682C12.6824 10.2032 13.2291 9.75453 13.6137 9.17886C13.9984 8.60318 14.2037 7.92638 14.2037 7.23402C14.2037 6.3056 13.8349 5.4152 13.1784 4.75871C12.5219 4.10221 11.6315 3.7334 10.7031 3.7334Z" fill="#E42525"/>
</svg>
