<svg width="25" height="26" viewBox="0 0 25 26" fill="none" xmlns="http://www.w3.org/2000/svg">
<path d="M15.3329 13.695L22.9148 23.8607H2.03281L9.6147 13.695L8.7958 12.4243L0.211465 23.9454C0.0922716 24.0643 0.0185263 24.2213 0.0030494 24.3889C-0.0124275 24.5566 0.0313427 24.7244 0.126751 24.8631C0.260903 25.0108 0.427952 25.1249 0.614373 25.196C0.800794 25.2671 1.00135 25.2934 1.19979 25.2726H23.7901C23.9907 25.2934 24.1934 25.2672 24.3821 25.1962C24.5707 25.1251 24.7403 25.0111 24.8773 24.8631C24.9701 24.7235 25.0123 24.5563 24.9969 24.3893C24.9815 24.2224 24.9094 24.0657 24.7926 23.9454L16.1377 12.4243L15.3329 13.695Z" fill="black"/>
<path d="M12.4669 1.4119H12.7634C14.0423 1.49015 15.2514 2.02238 16.1728 2.91279C17.0943 3.80319 17.6677 4.99328 17.7897 6.26882C17.8224 7.12905 17.6379 7.98365 17.2532 8.75376V8.83848L12.4527 17.6487C10.7443 14.5567 8.21705 9.86916 7.72288 8.93731V8.782C7.42801 8.11522 7.2788 7.3932 7.2852 6.66415C7.28872 5.28442 7.83356 3.96118 8.80255 2.97898C9.77155 1.99678 11.0873 1.43409 12.4669 1.4119ZM12.4669 0C10.6994 0 9.00436 0.702114 7.75459 1.95189C6.50482 3.20166 5.8027 4.89671 5.8027 6.66415C5.80375 7.58631 5.99104 8.49876 6.35334 9.34676V9.34676C6.4663 9.6009 9.55835 15.2908 11.295 18.4676C11.405 18.6776 11.5704 18.8536 11.7732 18.9763C11.976 19.099 12.2086 19.1639 12.4457 19.1639C12.6828 19.1639 12.9153 19.099 13.1182 18.9763C13.321 18.8536 13.4864 18.6776 13.5964 18.4676C14.5423 16.7592 18.5098 9.40324 18.538 9.34676C19.0026 8.35575 19.202 7.26116 19.1169 6.16999C18.9827 4.54726 18.2651 3.02811 17.097 1.89375C15.9288 0.759384 14.3893 0.0866235 12.7634 0H12.4669Z" fill="#E42525"/>
<path d="M12.4668 4.78592C12.8192 4.78312 13.1646 4.88508 13.459 5.07885C13.7534 5.27262 13.9836 5.54947 14.1204 5.87428C14.2572 6.19909 14.2945 6.55722 14.2274 6.90324C14.1604 7.24925 13.9921 7.56756 13.7439 7.81777C13.4956 8.06798 13.1787 8.23882 12.8332 8.30861C12.4877 8.37841 12.1293 8.34401 11.8034 8.20979C11.4775 8.07557 11.1989 7.84757 11.0027 7.55472C10.8066 7.26187 10.7019 6.91736 10.7019 6.56491C10.7019 6.09553 10.8874 5.64516 11.218 5.31194C11.5486 4.97872 11.9974 4.78965 12.4668 4.78592V4.78592ZM12.4668 3.37402C11.8357 3.37402 11.2188 3.56117 10.694 3.91178C10.1693 4.2624 9.76031 4.76075 9.5188 5.34381C9.27729 5.92687 9.2141 6.56845 9.33722 7.18742C9.46034 7.80639 9.76425 8.37496 10.2105 8.82121C10.6568 9.26746 11.2253 9.57137 11.8443 9.69449C12.4633 9.81761 13.1048 9.75442 13.6879 9.51291C14.271 9.2714 14.7693 8.86241 15.1199 8.33767C15.4705 7.81293 15.6577 7.19601 15.6577 6.56491C15.6577 5.71863 15.3215 4.90702 14.7231 4.30861C14.1247 3.71021 13.3131 3.37402 12.4668 3.37402Z" fill="#E42525"/>
</svg>
