<svg width="25" height="25" viewBox="0 0 25 25" fill="none" xmlns="http://www.w3.org/2000/svg">
<path d="M23.3708 11.7135H18.7219C18.6823 10.6257 18.5697 9.54179 18.3848 8.4691C19.8487 8.24028 21.2943 7.90703 22.7107 7.47191L22.2893 6.06741C20.9108 6.4913 19.5023 6.81056 18.0758 7.02247C17.0225 2.80899 14.7893 0 12.205 0C9.62077 0 7.38762 2.85112 6.33425 7.06461C4.87566 6.84961 3.43793 6.51132 2.0365 6.05337L1.58706 7.45787C3.04174 7.92336 4.53027 8.27553 6.03931 8.51124C5.84015 9.61058 5.72278 10.7232 5.68818 11.8399H1.36234C1.17722 11.8435 1.00068 11.9186 0.869757 12.0495C0.738832 12.1805 0.663691 12.357 0.660095 12.5421C0.660095 12.7284 0.734082 12.907 0.865779 13.0387C0.997475 13.1704 1.17609 13.2444 1.36234 13.2444H5.68818C5.72589 14.3463 5.83851 15.4443 6.02526 16.5309C4.52623 16.751 3.04692 17.0892 1.60111 17.5421L2.0365 18.9466C3.43929 18.5033 4.87697 18.1792 6.33425 17.9775C7.38762 22.1067 9.62077 25 12.205 25C14.7893 25 17.0084 22.191 18.0618 18.0618C19.4898 18.2853 20.8985 18.6187 22.2753 19.059L22.7247 17.7388C21.3045 17.2728 19.8483 16.9252 18.3708 16.6994C18.5699 15.5954 18.6873 14.4781 18.7219 13.3567H23.3708C23.557 13.3567 23.7356 13.2828 23.8673 13.1511C23.999 13.0194 24.073 12.8407 24.073 12.6545C24.1128 12.545 24.1248 12.4274 24.1078 12.3122C24.0909 12.197 24.0455 12.0878 23.9759 11.9945C23.9062 11.9011 23.8144 11.8266 23.7088 11.7775C23.6032 11.7285 23.487 11.7065 23.3708 11.7135V11.7135ZM17.3174 11.7135H12.9213V8.90449C14.2828 8.8883 15.6424 8.79922 16.9944 8.63764C17.1698 9.65466 17.2778 10.6822 17.3174 11.7135V11.7135ZM16.6854 7.2191C15.4356 7.36347 14.1793 7.44317 12.9213 7.45787V1.58708C14.396 2.10674 15.8708 4.1573 16.6854 7.2191V7.2191ZM11.5168 1.60112V7.45787C10.2247 7.45787 8.96066 7.3736 7.7247 7.20506C8.55335 4.12921 10.0281 2.07865 11.5168 1.57303V1.60112ZM7.41571 8.6236C8.82021 8.77809 10.1264 8.8764 11.5168 8.90449V11.7135H7.09268C7.13046 10.6634 7.23838 9.6171 7.41571 8.58146V8.6236ZM7.09268 13.1601H11.5168V15.9691C10.146 15.9853 8.77706 16.0744 7.41571 16.236C7.23846 15.205 7.13054 14.1634 7.09268 13.118V13.1601ZM7.7247 17.6404C8.98384 17.4962 10.2495 17.4165 11.5168 17.4017V23.2725C10.0281 22.7247 8.55335 20.6742 7.7247 17.5983V17.6404ZM12.9213 23.2584V17.3736C14.1751 17.3971 15.4268 17.4862 16.6713 17.6404C15.8567 20.6601 14.396 22.6966 12.9213 23.2163V23.2584ZM16.9803 16.3062C15.6336 16.1355 14.2786 16.0371 12.9213 16.0112V13.2022H17.3174C17.2781 14.2296 17.1654 15.2528 16.9803 16.264V16.3062Z" fill="#E42525"/>
<path d="M12.3596 1.44698C14.525 1.45531 16.6395 2.10524 18.4358 3.31467C20.2321 4.52411 21.6297 6.23878 22.4519 8.24209C23.2742 10.2454 23.4844 12.4475 23.0558 14.5701C22.6272 16.6928 21.5791 18.6408 20.0439 20.1682C18.5088 21.6955 16.5554 22.7336 14.4306 23.1513C12.3057 23.569 10.1048 23.3476 8.10569 22.5151C6.10662 21.6825 4.39913 20.2762 3.19891 18.4737C1.9987 16.6712 1.3596 14.5535 1.36237 12.388C1.3642 10.947 1.65032 9.5205 2.20432 8.19024C2.75832 6.85998 3.56933 5.65209 4.59088 4.63575C5.61243 3.61942 6.82446 2.81461 8.15754 2.26743C9.49062 1.72024 10.9186 1.44144 12.3596 1.44698V1.44698ZM12.3596 0.0424885C9.91507 0.0424885 7.52547 0.767364 5.49296 2.12545C3.46044 3.48353 1.87629 5.41383 0.94082 7.67224C0.00535521 9.93066 -0.239405 12.4157 0.237491 14.8133C0.714387 17.2108 1.89152 19.413 3.62003 21.1416C5.34855 22.8701 7.55081 24.0472 9.94833 24.5241C12.3458 25.001 14.8309 24.7562 17.0894 23.8208C19.3478 22.8853 21.2781 21.3012 22.6361 19.2686C23.9942 17.2361 24.7191 14.8465 24.7191 12.402C24.721 10.7784 24.4025 9.17042 23.7821 7.67006C23.1616 6.16969 22.2513 4.80645 21.1032 3.65839C19.9551 2.51034 18.5919 1.60001 17.0915 0.979539C15.5912 0.359068 13.9832 0.0406403 12.3596 0.0424885V0.0424885Z" fill="black"/>
</svg>
