<svg width="22" height="25" viewBox="0 0 22 25" fill="none" xmlns="http://www.w3.org/2000/svg">
<path d="M18.5463 19.0143L17.4891 18.0571C19.1604 16.1984 20.0818 13.7853 20.0749 11.2857C20.111 10.0256 19.8982 8.77074 19.4487 7.59297C18.9992 6.4152 18.3218 5.33767 17.4553 4.42206C16.5888 3.50645 15.5502 2.77075 14.399 2.25708C13.2477 1.74341 12.0065 1.46187 10.7463 1.42857C9.48731 1.46371 8.24761 1.74661 7.09802 2.2611C5.94844 2.77559 4.91151 3.51157 4.0465 4.427C3.18149 5.34242 2.50536 6.41933 2.05675 7.59619C1.60814 8.77305 1.39584 10.0268 1.432 11.2857C1.41318 13.7917 2.33598 16.2134 4.01771 18.0714L2.96057 19.0429C1.03737 16.9192 -0.0180331 14.1507 0.00342604 11.2857C-0.0326608 9.83918 0.216632 8.39972 0.73706 7.04957C1.25749 5.69942 2.03885 4.46505 3.0365 3.41698C4.03416 2.36892 5.22854 1.5277 6.55142 0.941402C7.87429 0.355102 9.29973 0.0352083 10.7463 0C12.1941 0.0333597 13.621 0.351893 14.9456 0.937371C16.2701 1.52285 17.4661 2.36378 18.4653 3.41203C19.4645 4.46028 20.2471 5.69528 20.7684 7.04634C21.2897 8.3974 21.5395 9.83801 21.5034 11.2857C21.5177 14.1408 20.4628 16.8979 18.5463 19.0143Z" fill="black"/>
<path d="M8.01752 25.0001H5.98895C5.09069 24.9484 4.24914 24.5443 3.64725 23.8755C3.04535 23.2067 2.73177 22.3274 2.77466 21.4287V17.6287C2.73166 16.7285 3.0448 15.8476 3.64634 15.1765C4.24788 14.5055 5.08945 14.0983 5.98895 14.043H8.01752C8.20696 14.043 8.38864 14.1182 8.5226 14.2522C8.65655 14.3861 8.7318 14.5678 8.7318 14.7573V24.2858C8.7318 24.4753 8.65655 24.6569 8.5226 24.7909C8.38864 24.9249 8.20696 25.0001 8.01752 25.0001ZM5.98895 15.4715C5.46817 15.5258 4.98944 15.7821 4.65556 16.1854C4.32168 16.5888 4.15928 17.1069 4.20323 17.6287V21.4287C4.15945 21.9489 4.32228 22.4654 4.65648 22.8665C4.99069 23.2675 5.46938 23.5208 5.98895 23.5715H7.30323V15.4715H5.98895Z" fill="#E42525"/>
<path d="M15.5178 25.0001H13.4892C13.2997 25.0001 13.1181 24.9249 12.9841 24.7909C12.8502 24.6569 12.7749 24.4753 12.7749 24.2858V14.7573C12.7749 14.5678 12.8502 14.3861 12.9841 14.2522C13.1181 14.1182 13.2997 14.043 13.4892 14.043H15.5178C16.4173 14.0983 17.2588 14.5055 17.8604 15.1765C18.4619 15.8476 18.775 16.7285 18.732 17.6287V21.4287C18.7749 22.3274 18.4614 23.2067 17.8595 23.8755C17.2576 24.5443 16.416 24.9484 15.5178 25.0001V25.0001ZM14.2035 23.5715H15.5178C16.0373 23.5208 16.516 23.2675 16.8502 22.8665C17.1844 22.4654 17.3473 21.9489 17.3035 21.4287V17.6287C17.3474 17.1069 17.185 16.5888 16.8512 16.1854C16.5173 15.7821 16.0385 15.5258 15.5178 15.4715H14.2035V23.5715Z" fill="#E42525"/>
</svg>
