<svg width="26" height="23" viewBox="0 0 26 23" fill="none" xmlns="http://www.w3.org/2000/svg">
<path d="M7.41055 1.40676C9.21333 1.26228 11.0199 1.63507 12.6182 2.48136C13.1268 2.82198 13.5586 3.26507 13.886 3.78226C14.2134 4.29945 14.4292 4.87933 14.5195 5.48474C14.5943 5.87557 14.6909 6.26193 14.8088 6.642L14.9052 7.00021V7.1242C14.6815 7.71165 14.6248 8.3496 14.7416 8.96729C14.8583 9.58497 15.1438 10.1583 15.5665 10.6235L16.09 11.3675C15.7562 11.5429 15.4898 11.8239 15.3323 12.1666C15.1619 12.6384 15.1619 13.1551 15.3323 13.6269C15.1329 13.8675 15.0211 14.1687 15.0154 14.4811C14.999 14.7222 15.0567 14.9626 15.1808 15.1699C14.9933 15.6045 14.9546 16.0888 15.0705 16.5476C15.0755 16.6072 15.0755 16.6671 15.0705 16.7267H14.7399C14.4737 16.7415 14.207 16.7415 13.9408 16.7267C13.6377 16.7267 13.3484 16.7267 13.0453 16.7267H13.004C12.4915 16.7276 11.9907 16.8798 11.5642 17.1641C11.1378 17.4483 10.8048 17.8521 10.6068 18.3249C10.3392 19.2175 10.2273 20.1496 10.2762 21.0803H4.17297C4.49858 19.5554 4.62821 17.9951 4.55872 16.4374C4.41977 15.1521 3.94458 13.9262 3.18103 12.883C2.366 11.629 1.81302 10.2231 1.55535 8.74988C1.2377 7.16727 1.51746 5.5231 2.34063 4.1346C2.90466 3.29465 3.66486 2.60478 4.55544 2.12468C5.44603 1.64458 6.44018 1.38871 7.45188 1.37921L7.41055 1.40676ZM7.45188 0.00151002C6.22209 0.00265595 5.01085 0.30149 3.92165 0.872481C2.83245 1.44347 1.89766 2.26965 1.19715 3.28043C0.148533 4.95885 -0.230165 6.97037 0.13632 8.9152C0.419856 10.6244 1.0632 12.2539 2.02376 13.6958C2.6319 14.5042 3.02958 15.451 3.18103 16.4512C3.23511 18.4586 2.99845 20.4632 2.4784 22.4028H11.7227C11.7121 21.9968 11.6752 21.5918 11.6125 21.1905C11.5343 20.3738 11.6186 19.5497 11.8605 18.7657C11.9629 18.5428 12.1284 18.3548 12.3365 18.225C12.5447 18.0952 12.7863 18.0293 13.0316 18.0356C13.5689 18.0356 14.0786 18.132 14.7261 18.132C15.0821 18.1374 15.4377 18.1051 15.7869 18.0356C16.4482 17.9116 16.4207 16.9334 16.2554 16.2583C16.09 15.5833 16.6273 15.4317 16.6273 15.1424C16.626 15.0118 16.586 14.8846 16.5125 14.7767C16.4389 14.6688 16.3351 14.5852 16.214 14.5362C16.9304 14.1504 16.7651 13.8887 16.6273 13.5994C16.1589 12.5799 16.6273 12.5799 16.8891 12.4972C17.1509 12.4146 17.7984 12.4146 17.8535 11.9599C17.527 11.1894 17.0908 10.4701 16.5585 9.82448C16.2961 9.54043 16.1164 9.19008 16.0387 8.81129C15.961 8.4325 15.9883 8.03968 16.1176 7.67528C16.4896 6.82111 16.1176 6.5869 15.8696 5.23676C15.7464 4.44617 15.4598 3.68994 15.0281 3.01627C14.5964 2.34261 14.029 1.7663 13.3622 1.3241C11.5402 0.326326 9.46852 -0.123408 7.39678 0.0290639L7.45188 0.00151002Z" fill="black"/>
<path d="M22.579 22.1958C22.4899 22.1971 22.4014 22.1807 22.3186 22.1476C22.2359 22.1145 22.1605 22.0653 22.0968 22.0029C21.9706 21.8742 21.8999 21.701 21.8999 21.5207C21.8999 21.3404 21.9706 21.1673 22.0968 21.0385C23.0353 20.076 23.7421 18.9122 24.1634 17.6356C24.6217 16.2494 24.7358 14.7725 24.4958 13.3323C24.2558 11.8922 23.6688 10.5321 22.7857 9.36946C22.6341 9.1628 22.4688 8.96993 22.3035 8.77705C22.2093 8.63887 22.1686 8.47115 22.1889 8.30516C22.2093 8.13918 22.2893 7.98627 22.4141 7.87496C22.5389 7.76365 22.7 7.70154 22.8672 7.70022C23.0344 7.69889 23.1964 7.75845 23.323 7.86777C23.5226 8.08303 23.7111 8.30835 23.8878 8.54284C24.9024 9.87765 25.5779 11.4388 25.8562 13.0921C26.1346 14.7455 26.0075 16.4417 25.4859 18.0352C25.0009 19.5084 24.1857 20.8514 23.1025 21.9616C23.0366 22.0353 22.956 22.0942 22.8658 22.1346C22.7755 22.1749 22.6778 22.1958 22.579 22.1958Z" fill="#E42525"/>
<path d="M19.9751 20.3639C19.8848 20.365 19.7952 20.3471 19.7122 20.3116C19.6291 20.276 19.5544 20.2234 19.4929 20.1572C19.427 20.0954 19.3745 20.0207 19.3386 19.9377C19.3027 19.8548 19.2842 19.7654 19.2842 19.675C19.2842 19.5846 19.3027 19.4952 19.3386 19.4123C19.3745 19.3294 19.427 19.2547 19.4929 19.1928C20.5811 18.1619 21.2445 16.7614 21.3528 15.2664C21.33 13.8347 20.847 12.4483 19.9751 11.3124C19.8772 11.1733 19.7714 11.0399 19.6582 10.9129C19.5937 10.8488 19.5424 10.7726 19.5075 10.6887C19.4725 10.6048 19.4545 10.5147 19.4545 10.4238C19.4545 10.3329 19.4725 10.2428 19.5075 10.1589C19.5424 10.0749 19.5937 9.99874 19.6582 9.9347C19.787 9.80849 19.9601 9.73779 20.1404 9.73779C20.3208 9.73779 20.4939 9.80849 20.6226 9.9347C20.7604 10.1 20.8982 10.2516 21.0222 10.4169C22.1005 11.8064 22.6998 13.5078 22.7305 15.2664C22.6289 17.1281 21.8149 18.8793 20.4573 20.1572C20.3958 20.2234 20.3211 20.276 20.2381 20.3116C20.155 20.3471 20.0655 20.365 19.9751 20.3639V20.3639Z" fill="#E42525"/>
</svg>
