<svg width="25" height="25" viewBox="0 0 25 25" fill="none" xmlns="http://www.w3.org/2000/svg">
<path d="M12.5 1.42045C14.6913 1.42045 16.8334 2.07026 18.6555 3.28769C20.4775 4.50513 21.8976 6.23552 22.7362 8.26004C23.5748 10.2846 23.7942 12.5123 23.3667 14.6615C22.9391 16.8107 21.8839 18.7849 20.3344 20.3344C18.7849 21.8839 16.8107 22.9391 14.6615 23.3666C12.5123 23.7942 10.2846 23.5747 8.26005 22.7362C6.23552 21.8976 4.50514 20.4775 3.2877 18.6555C2.07026 16.8334 1.42046 14.6913 1.42046 12.5C1.42422 9.56267 2.59273 6.74673 4.66973 4.66973C6.74674 2.59273 9.56268 1.42421 12.5 1.42045V1.42045ZM12.5 0C10.0277 0 7.61099 0.733112 5.55538 2.10663C3.49976 3.48015 1.89761 5.43238 0.951511 7.71646C0.00541606 10.0005 -0.242126 12.5139 0.24019 14.9386C0.722505 17.3634 1.91301 19.5907 3.66117 21.3388C5.40933 23.087 7.63661 24.2775 10.0614 24.7598C12.4861 25.2421 14.9995 24.9946 17.2835 24.0485C19.5676 23.1024 21.5199 21.5002 22.8934 19.4446C24.2669 17.389 25 14.9723 25 12.5C25 10.8585 24.6767 9.23303 24.0485 7.71646C23.4203 6.19989 22.4996 4.8219 21.3388 3.66116C20.1781 2.50043 18.8001 1.57969 17.2835 0.951506C15.767 0.323322 14.1415 0 12.5 0V0Z" fill="black"/>
<path d="M16.1219 8.26713C16.7104 8.30229 17.2615 8.56761 17.656 9.00577C17.9012 9.22479 18.0994 9.49131 18.2386 9.78919C18.3778 10.0871 18.455 10.4101 18.4657 10.7387C18.4374 11.7683 18.0095 12.7465 17.2725 13.466L12.4997 18.466L7.74122 13.4944C6.99848 12.7659 6.5659 11.7786 6.53384 10.7387C6.54581 10.4083 6.62359 10.0836 6.76261 9.78356C6.90164 9.48355 7.09912 9.2143 7.3435 8.99157C7.74306 8.56233 8.29226 8.30299 8.87759 8.26713C9.8727 8.42054 10.7665 8.96194 11.3634 9.77282L12.4855 11.1933L13.6219 9.77282C14.2284 8.96566 15.1248 8.42577 16.1219 8.26713V8.26713ZM16.1219 6.84668C15.4107 6.92896 14.7234 7.15375 14.1011 7.50764C13.4787 7.86152 12.9341 8.33723 12.4997 8.90634C12.0654 8.33723 11.5208 7.86152 10.8984 7.50764C10.2761 7.15375 9.58877 6.92896 8.87759 6.84668C7.9315 6.87517 7.03415 7.27286 6.37759 7.95463C4.51679 9.70179 4.78668 12.4149 6.70429 14.4603L12.4997 20.4404L18.2952 14.4603C20.2128 12.4149 20.4827 9.70179 18.6219 7.95463C17.9653 7.27286 17.068 6.87517 16.1219 6.84668V6.84668Z" fill="#E42525"/>
<path d="M9.65967 12.9263C9.06308 12.3297 8.23921 11.6479 8.23921 10.7956C8.21963 10.6414 8.23499 10.4847 8.28417 10.3371C8.33335 10.1896 8.41507 10.055 8.5233 9.94336" stroke="#E42525" stroke-linecap="round" stroke-linejoin="round"/>
</svg>
