<svg width="36" height="36" viewBox="0 0 36 36" fill="none" xmlns="http://www.w3.org/2000/svg">
<path d="M4.39385 3.75H23.5615C24.2627 3.75 24.9352 4.02855 25.431 4.52437C25.9268 5.02018 26.2054 5.69266 26.2054 6.39385V22.2569C26.2054 22.9581 25.9268 23.6306 25.431 24.1264C24.9352 24.6222 24.2627 24.9008 23.5615 24.9008H11.4643L6.85249 29.6732C6.76104 29.768 6.64334 29.8333 6.5145 29.8608C6.38565 29.8882 6.25156 29.8765 6.12942 29.8272C6.00728 29.7778 5.90267 29.6931 5.82902 29.5839C5.75538 29.4747 5.71607 29.3459 5.71612 29.2142V24.9008H4.39457C4.04732 24.9008 3.70344 24.8325 3.38259 24.6997C3.06174 24.5669 2.7702 24.3721 2.52462 24.1266C2.27904 23.8811 2.08424 23.5896 1.95132 23.2688C1.81841 22.948 1.75 22.6042 1.75 22.2569V6.39385C1.75 5.69266 2.02854 5.02018 2.52436 4.52437C3.02017 4.02855 3.69266 3.75 4.39385 3.75V3.75Z" stroke="black" stroke-width="1.2" stroke-linejoin="round"/>
<path d="M26.2055 14.4414H29.513C30.2142 14.4414 30.8867 14.72 31.3825 15.2158C31.8783 15.7116 32.1569 16.3841 32.1569 17.0853V26.9998C32.1572 27.3472 32.089 27.6913 31.9563 28.0123C31.8235 28.3333 31.6288 28.625 31.3833 28.8707C31.1378 29.1164 30.8462 29.3114 30.5253 29.4444C30.2044 29.5774 29.8604 29.6459 29.513 29.6459H28.1915V33.3381C28.1915 33.4689 28.1527 33.5967 28.0801 33.7054C28.0074 33.8141 27.9042 33.8988 27.7833 33.9488C27.6625 33.9988 27.5296 34.0119 27.4014 33.9863C27.2731 33.9607 27.1554 33.8976 27.063 33.8051L22.9038 29.6459H16.9553C16.6077 29.6462 16.2634 29.5781 15.9422 29.4452C15.6209 29.3124 15.3291 29.1175 15.0832 28.8717C14.8374 28.626 14.6424 28.3341 14.5095 28.0129C14.3766 27.6917 14.3083 27.3475 14.3086 26.9998V24.8828" stroke="black" stroke-width="1.2" stroke-linejoin="round"/>
<path d="M20.9189 15.1162V13.5309C20.9189 13.2427 20.6819 12.8874 20.39 12.8874H19.5556C19.4485 12.8987 19.3408 12.8739 19.2494 12.817C19.158 12.7601 19.0883 12.6743 19.0512 12.5733C18.9985 12.4206 18.9327 12.2728 18.8545 12.1315C18.8023 12.034 18.7831 11.9222 18.7997 11.8128C18.8163 11.7035 18.8679 11.6024 18.9467 11.5248L19.5455 10.9296C19.5943 10.8809 19.6331 10.8231 19.6596 10.7594C19.686 10.6957 19.6996 10.6275 19.6996 10.5585C19.6996 10.4895 19.686 10.4213 19.6596 10.3576C19.6331 10.2939 19.5943 10.2361 19.5455 10.1874L18.4221 9.06328C18.3229 8.9641 18.1884 8.90838 18.0481 8.90838C17.9078 8.90838 17.7733 8.9641 17.6741 9.06328L17.0724 9.66425C16.9924 9.74224 16.89 9.79326 16.7795 9.81018C16.669 9.82711 16.5561 9.80909 16.4563 9.75865C16.3271 9.68842 16.194 9.6254 16.0578 9.56986C15.9579 9.53142 15.8733 9.46126 15.8171 9.37015C15.7609 9.27904 15.7361 9.172 15.7465 9.06545V8.24252C15.7465 7.95069 15.3949 7.71289 15.1031 7.71289H13.5178C13.2259 7.71289 12.8743 7.94997 12.8743 8.24252V9.06545C12.8847 9.17209 12.8598 9.27919 12.8034 9.37032C12.7471 9.46144 12.6623 9.53154 12.5623 9.56986C12.4166 9.62507 12.274 9.68785 12.1349 9.75793C12.0375 9.80777 11.9267 9.82541 11.8186 9.80831C11.7105 9.79122 11.6106 9.74028 11.5333 9.66281L10.938 9.0604C10.8892 9.0114 10.8312 8.97251 10.7674 8.94598C10.7035 8.91945 10.635 8.90581 10.5659 8.90581C10.4967 8.90581 10.4282 8.91945 10.3644 8.94598C10.3005 8.97251 10.2425 9.0114 10.1937 9.0604L9.07172 10.1845C8.97319 10.2836 8.91789 10.4177 8.91789 10.5574C8.91789 10.6972 8.97319 10.8312 9.07172 10.9303L9.67486 11.5399C9.75352 11.6204 9.80469 11.7237 9.82101 11.835C9.83732 11.9464 9.81793 12.06 9.76565 12.1597C9.68759 12.2912 9.62174 12.4297 9.56893 12.5733C9.53192 12.6744 9.46219 12.7602 9.37079 12.8172C9.27939 12.8741 9.1716 12.8988 9.06453 12.8874H8.23007C7.93823 12.8874 7.70117 13.2398 7.70117 13.5309V15.1162C7.70117 15.4081 7.93751 15.7597 8.23007 15.7597H9.06453C9.17171 15.7495 9.27927 15.775 9.37048 15.8322C9.4617 15.8894 9.53146 15.9751 9.56893 16.0761C9.62093 16.2202 9.68581 16.3594 9.76277 16.4918C9.81485 16.5891 9.83361 16.7008 9.81617 16.8097C9.79873 16.9186 9.74605 17.0188 9.66621 17.095L9.0782 17.6714C9.02888 17.7203 8.98972 17.7784 8.963 17.8425C8.93627 17.9066 8.92253 17.9753 8.92253 18.0447C8.92253 18.1141 8.93627 18.1829 8.963 18.2469C8.98972 18.311 9.02888 18.3691 9.0782 18.418L10.198 19.5327C10.2471 19.5818 10.3053 19.6208 10.3694 19.6473C10.4335 19.6739 10.5022 19.6876 10.5716 19.6876C10.641 19.6876 10.7098 19.6739 10.7739 19.6473C10.838 19.6208 10.8962 19.5818 10.9453 19.5327L11.5484 18.9289C11.6285 18.8511 11.7309 18.8001 11.8413 18.7831C11.9517 18.766 12.0646 18.7837 12.1645 18.8338C12.2932 18.9034 12.4258 18.9657 12.5615 19.0204C12.6617 19.0587 12.7465 19.1288 12.803 19.2199C12.8594 19.311 12.8845 19.4181 12.8743 19.5248V20.4061C12.8743 20.6979 13.2259 20.935 13.5178 20.935H15.1031C15.3913 20.935 15.7465 20.6986 15.7465 20.4061V19.5241C15.7361 19.4175 15.7609 19.3105 15.8171 19.2194C15.8733 19.1283 15.9579 19.0581 16.0578 19.0197C16.2035 18.9646 16.3461 18.9018 16.4851 18.8316C16.5825 18.7815 16.6932 18.7636 16.8014 18.7805C16.9096 18.7975 17.0095 18.8484 17.0868 18.926L17.682 19.5284C17.7307 19.5776 17.7886 19.6166 17.8524 19.6432C17.9163 19.6698 17.9847 19.6835 18.0539 19.6835C18.123 19.6835 18.1915 19.6698 18.2553 19.6432C18.3191 19.6166 18.3771 19.5776 18.4257 19.5284L19.5433 18.4093C19.5928 18.3602 19.632 18.3017 19.6588 18.2374C19.6855 18.173 19.6993 18.104 19.6993 18.0343C19.6993 17.9645 19.6855 17.8955 19.6588 17.8312C19.632 17.7668 19.5928 17.7083 19.5433 17.6592L18.9575 17.0827C18.8769 17.0037 18.824 16.9008 18.8065 16.7893C18.7889 16.6778 18.8078 16.5637 18.8602 16.4637C18.9366 16.3415 19.0011 16.2121 19.0526 16.0775C19.0901 15.9766 19.1598 15.8908 19.2511 15.8336C19.3423 15.7764 19.4498 15.7509 19.557 15.7612H20.3922C20.6812 15.7597 20.9189 15.4081 20.9189 15.1162Z" stroke="#E42525" stroke-width="1.2" stroke-linejoin="round"/>
<path d="M14.3127 16.3363C15.4238 16.3363 16.3246 15.4355 16.3246 14.3244C16.3246 13.2133 15.4238 12.3125 14.3127 12.3125C13.2015 12.3125 12.3008 13.2133 12.3008 14.3244C12.3008 15.4355 13.2015 16.3363 14.3127 16.3363Z" stroke="#E42525" stroke-width="1.2" stroke-linejoin="round"/>
</svg>
