<svg width="25" height="26" viewBox="0 0 25 26" fill="none" xmlns="http://www.w3.org/2000/svg">
<path d="M15.3596 25.166C15.1795 25.166 15.0068 25.0945 14.8795 24.9671C14.7521 24.8398 14.6806 24.6671 14.6806 24.487V17.6969C14.7043 17.3962 14.6656 17.0938 14.5668 16.8088C14.4681 16.5238 14.3114 16.2623 14.1067 16.0408C13.902 15.8192 13.6536 15.6425 13.3773 15.5216C13.1009 15.4007 12.8026 15.3382 12.5009 15.3382C12.1993 15.3382 11.9009 15.4007 11.6246 15.5216C11.3482 15.6425 11.0999 15.8192 10.8952 16.0408C10.6905 16.2623 10.5338 16.5238 10.435 16.8088C10.3363 17.0938 10.2975 17.3962 10.3213 17.6969V24.487C10.3178 24.666 10.2452 24.8367 10.1186 24.9633C9.99198 25.0899 9.82128 25.1625 9.64229 25.166C9.4622 25.166 9.28949 25.0945 9.16215 24.9671C9.03481 24.8398 8.96327 24.6671 8.96327 24.487V17.6969C8.93333 17.2138 9.00262 16.7298 9.16686 16.2746C9.3311 15.8194 9.58682 15.4026 9.91826 15.05C10.2497 14.6974 10.6498 14.4164 11.094 14.2243C11.5382 14.0322 12.017 13.9331 12.5009 13.9331C12.9849 13.9331 13.4637 14.0322 13.9079 14.2243C14.352 14.4164 14.7522 14.6974 15.0836 15.05C15.4151 15.4026 15.6708 15.8194 15.835 16.2746C15.9993 16.7298 16.0685 17.2138 16.0386 17.6969V24.487C16.0386 24.6671 15.9671 24.8398 15.8397 24.9671C15.7124 25.0945 15.5397 25.166 15.3596 25.166Z" fill="#E42525"/>
<path d="M0.679015 11.9925C0.498929 11.9925 0.326219 11.921 0.198879 11.7937C0.0715389 11.6663 0 11.4936 0 11.3135V8.38019C0 8.2001 0.0715389 8.02739 0.198879 7.90005C0.326219 7.77271 0.498929 7.70117 0.679015 7.70117C0.8591 7.70117 1.03181 7.77271 1.15915 7.90005C1.28649 8.02739 1.35803 8.2001 1.35803 8.38019V11.3135C1.35803 11.4936 1.28649 11.6663 1.15915 11.7937C1.03181 11.921 0.8591 11.9925 0.679015 11.9925Z" fill="black"/>
<path d="M21.1311 25.3014H3.92486C3.74478 25.3014 3.57207 25.2298 3.44473 25.1025C3.31739 24.9752 3.24585 24.8025 3.24585 24.6224C3.24585 24.4423 3.31739 24.2696 3.44473 24.1422C3.57207 24.0149 3.74478 23.9434 3.92486 23.9434H21.1311C21.3112 23.9434 21.4839 24.0149 21.6112 24.1422C21.7386 24.2696 21.8101 24.4423 21.8101 24.6224C21.8101 24.8025 21.7386 24.9752 21.6112 25.1025C21.4839 25.2298 21.3112 25.3014 21.1311 25.3014Z" fill="black"/>
<path d="M21.1854 25.3014C21.0053 25.3014 20.8326 25.2298 20.7052 25.1025C20.5779 24.9751 20.5063 24.8024 20.5063 24.6223V9.84698C20.5063 9.6669 20.5779 9.49419 20.7052 9.36685C20.8326 9.23951 21.0053 9.16797 21.1854 9.16797C21.3654 9.16797 21.5382 9.23951 21.6655 9.36685C21.7928 9.49419 21.8644 9.6669 21.8644 9.84698V24.6223C21.8644 24.8024 21.7928 24.9751 21.6655 25.1025C21.5382 25.2298 21.3654 25.3014 21.1854 25.3014Z" fill="black"/>
<path d="M24.3086 11.9925C24.1285 11.9925 23.9558 11.921 23.8285 11.7937C23.7011 11.6663 23.6296 11.4936 23.6296 11.3135V8.38019C23.6296 8.2001 23.7011 8.02739 23.8285 7.90005C23.9558 7.77271 24.1285 7.70117 24.3086 7.70117C24.4887 7.70117 24.6614 7.77271 24.7887 7.90005C24.9161 8.02739 24.9876 8.2001 24.9876 8.38019V11.3135C24.9876 11.4936 24.9161 11.6663 24.7887 11.7937C24.6614 11.921 24.4887 11.9925 24.3086 11.9925Z" fill="black"/>
<path d="M3.92486 25.1651C3.74478 25.1651 3.57207 25.0935 3.44473 24.9662C3.31739 24.8388 3.24585 24.6661 3.24585 24.486V9.41192C3.24585 9.23184 3.31739 9.05913 3.44473 8.93179C3.57207 8.80445 3.74478 8.73291 3.92486 8.73291C4.10495 8.73291 4.27766 8.80445 4.405 8.93179C4.53234 9.05913 4.60388 9.23184 4.60388 9.41192V24.486C4.60388 24.6661 4.53234 24.8388 4.405 24.9662C4.27766 25.0935 4.10495 25.1651 3.92486 25.1651Z" fill="black"/>
<path d="M0.706252 8.86929C0.592158 8.87171 0.479428 8.84413 0.379334 8.78932C0.279241 8.7345 0.195291 8.65437 0.135879 8.55694C0.0472637 8.40794 0.0189962 8.23068 0.056871 8.06151C0.0947459 7.89233 0.195894 7.74405 0.339584 7.64706L12.1544 0.150741C12.229 0.0905363 12.3154 0.0467935 12.4081 0.0223888C12.5008 -0.00201578 12.5976 -0.00652944 12.6921 0.00914465C12.7866 0.0248187 12.8768 0.0603256 12.9566 0.113331C13.0365 0.166336 13.1042 0.235639 13.1553 0.316683C13.2064 0.397727 13.2398 0.488677 13.2533 0.583553C13.2668 0.678429 13.26 0.775082 13.2335 0.867157C13.2069 0.959233 13.1612 1.04465 13.0992 1.11778C13.0373 1.19091 12.9606 1.25011 12.8742 1.29149L1.07292 8.7878C0.959432 8.8452 0.833365 8.87321 0.706252 8.86929V8.86929Z" fill="black"/>
<path d="M24.3224 8.86982C24.1929 8.86543 24.0667 8.82803 23.9557 8.76118L12.1545 1.29202C12.0771 1.24618 12.0099 1.18514 11.9568 1.1126C11.9037 1.04005 11.8659 0.957505 11.8456 0.869934C11.8253 0.782363 11.8229 0.691585 11.8387 0.60308C11.8544 0.514575 11.8879 0.430177 11.9372 0.354981C12.0346 0.20391 12.1879 0.097631 12.3636 0.0594454C12.5392 0.0212598 12.7229 0.0542836 12.8742 0.151276L24.6891 7.6476C24.8401 7.74501 24.9464 7.89836 24.9846 8.07401C25.0228 8.24966 24.9898 8.43329 24.8928 8.58464C24.8301 8.67704 24.7447 8.7518 24.6448 8.80174C24.545 8.85167 24.4339 8.87512 24.3224 8.86982V8.86982Z" fill="black"/>
<path d="M0.706207 12.1554C0.592113 12.1578 0.479383 12.1303 0.379289 12.0755C0.279196 12.0206 0.195246 11.9405 0.135835 11.8431C0.0388417 11.6917 0.00581791 11.5081 0.0440035 11.3324C0.0821891 11.1568 0.188468 11.0034 0.339539 10.906L12.1544 3.43687C12.2289 3.37667 12.3154 3.33293 12.4081 3.30852C12.5007 3.28412 12.5975 3.2796 12.6921 3.29528C12.7866 3.31095 12.8767 3.34646 12.9566 3.39946C13.0364 3.45247 13.1041 3.52177 13.1553 3.60282C13.2064 3.68386 13.2398 3.77481 13.2533 3.86969C13.2667 3.96456 13.26 4.06121 13.2334 4.15329C13.2069 4.24537 13.1611 4.33078 13.0992 4.40391C13.0373 4.47705 12.9606 4.53625 12.8741 4.57762L1.07287 12.0468C0.961901 12.1136 0.835688 12.151 0.706207 12.1554V12.1554Z" fill="black"/>
<path d="M24.3224 12.1564C24.1929 12.152 24.0667 12.1146 23.9557 12.0478L12.1545 4.55147C12.0771 4.50563 12.0099 4.44459 11.9568 4.37205C11.9037 4.2995 11.8659 4.21695 11.8456 4.12938C11.8253 4.04181 11.8229 3.95103 11.8387 3.86253C11.8544 3.77402 11.8879 3.68963 11.9372 3.61443C12.0388 3.46778 12.1941 3.36705 12.3695 3.33401C12.5448 3.30097 12.7262 3.33829 12.8742 3.43789L24.6891 10.9342C24.8401 11.0316 24.9464 11.185 24.9846 11.3606C25.0228 11.5363 24.9898 11.7199 24.8928 11.8712C24.8301 11.9637 24.7447 12.0384 24.6448 12.0883C24.545 12.1383 24.4339 12.1617 24.3224 12.1564V12.1564Z" fill="black"/>
</svg>
