<svg width="25" height="25" viewBox="0 0 25 25" fill="none" xmlns="http://www.w3.org/2000/svg">
<path d="M22.7272 4.43934e-05H2.28693C1.98728 -0.00182846 1.69021 0.0555749 1.41283 0.168951C1.13545 0.282327 0.883228 0.449438 0.670679 0.660667C0.458131 0.871895 0.289452 1.12307 0.17435 1.39974C0.0592473 1.67641 -5.8523e-06 1.97311 4.33536e-10 2.27277V22.7273C4.33537e-10 23.33 0.239447 23.9081 0.665665 24.3343C1.09188 24.7606 1.66996 25 2.27272 25H22.7272C23.33 25 23.9081 24.7606 24.3343 24.3343C24.7605 23.9081 25 23.33 25 22.7273V2.27277C25 1.67 24.7605 1.09193 24.3343 0.66571C23.9081 0.239491 23.33 4.43934e-05 22.7272 4.43934e-05ZM2.28693 1.4205H22.7272C22.9533 1.4205 23.17 1.51029 23.3299 1.67012C23.4897 1.82995 23.5795 2.04673 23.5795 2.27277V15.2983L15.7244 9.37503C15.5997 9.28622 15.4513 9.23675 15.2983 9.23298H14.9716C14.8562 9.23272 14.7426 9.26115 14.6409 9.3157C14.5393 9.37024 14.4527 9.44921 14.3892 9.54548L10.1278 15.9801L5.68181 12.2443C5.55005 12.1349 5.38435 12.0746 5.21306 12.0739H4.88635C4.77466 12.0744 4.66473 12.1017 4.56584 12.1536C4.46694 12.2056 4.382 12.2805 4.31817 12.3722L1.42045 16.3921V2.27277C1.42044 2.15964 1.44294 2.04764 1.48666 1.9433C1.53037 1.83896 1.59443 1.74437 1.67508 1.66504C1.75573 1.58571 1.85137 1.52323 1.95641 1.48125C2.06146 1.43926 2.17382 1.41861 2.28693 1.4205V1.4205ZM1.42045 22.7273V18.821L5.12783 13.6506L9.26135 17.1733L4.99999 23.5795H2.28693C2.17382 23.5814 2.06146 23.5608 1.95641 23.5188C1.85137 23.4768 1.75573 23.4143 1.67508 23.335C1.59443 23.2557 1.53037 23.1611 1.48666 23.0567C1.44294 22.9524 1.42044 22.8404 1.42045 22.7273V22.7273ZM22.7272 23.5795H6.67612L10.7386 17.5284C10.7386 17.5284 10.7386 17.5284 10.7386 17.4432L15.2557 10.7955L23.5937 17.0455V22.7273C23.5937 22.8404 23.5712 22.9524 23.5275 23.0567C23.4838 23.1611 23.4197 23.2557 23.3391 23.335C23.2584 23.4143 23.1628 23.4768 23.0577 23.5188C22.9527 23.5608 22.8403 23.5814 22.7272 23.5795V23.5795Z" fill="black"/>
<path d="M6.108 8.66472C5.60792 8.66472 5.11908 8.51643 4.70329 8.23861C4.28749 7.96078 3.96342 7.5659 3.77205 7.10389C3.58069 6.64189 3.53061 6.13351 3.62817 5.64305C3.72573 5.15259 3.96654 4.70207 4.32014 4.34846C4.67375 3.99486 5.12427 3.75405 5.61473 3.65649C6.10519 3.55893 6.61357 3.60901 7.07557 3.80037C7.53758 3.99174 7.93246 4.31582 8.21029 4.73161C8.48811 5.1474 8.6364 5.63625 8.6364 6.13632C8.6364 6.46835 8.571 6.79713 8.44394 7.10389C8.31687 7.41065 8.13063 7.68938 7.89585 7.92417C7.66106 8.15895 7.38233 8.34519 7.07557 8.47226C6.76881 8.59932 6.44003 8.66472 6.108 8.66472V8.66472ZM6.108 5.04257C5.83758 5.07333 5.58795 5.20256 5.40671 5.40559C5.22547 5.60862 5.12529 5.87126 5.12529 6.14342C5.12529 6.41558 5.22547 6.67822 5.40671 6.88125C5.58795 7.08428 5.83758 7.2135 6.108 7.24427C6.26306 7.26191 6.42011 7.2466 6.56884 7.19932C6.71758 7.15205 6.85465 7.07389 6.97108 6.96996C7.0875 6.86602 7.18066 6.73867 7.24444 6.59623C7.30823 6.45379 7.3412 6.29949 7.3412 6.14342C7.3412 5.98735 7.30823 5.83304 7.24444 5.69061C7.18066 5.54817 7.0875 5.42081 6.97108 5.31688C6.85465 5.21295 6.71758 5.13479 6.56884 5.08751C6.42011 5.04024 6.26306 5.02493 6.108 5.04257V5.04257Z" fill="#E42525"/>
</svg>
