<svg width="25" height="25" viewBox="0 0 25 25" fill="none" xmlns="http://www.w3.org/2000/svg">
<path d="M12.5 1.42046C14.6901 1.42889 16.8286 2.0862 18.6453 3.30938C20.462 4.53255 21.8754 6.26671 22.7071 8.29278C23.5387 10.3189 23.7512 12.546 23.3178 14.6927C22.8843 16.8395 21.8243 18.8097 20.2717 20.3544C18.7191 21.899 16.7435 22.9489 14.5945 23.3714C12.4456 23.7938 10.2196 23.5699 8.1978 22.7279C6.17601 21.8859 4.44912 20.4636 3.23526 18.6407C2.02141 16.8177 1.37505 14.6759 1.37785 12.4858C1.3797 11.0284 1.66907 9.58572 2.22937 8.24034C2.78966 6.89497 3.60989 5.67335 4.64305 4.64547C5.67621 3.61758 6.90201 2.80363 8.25024 2.25023C9.59847 1.69683 11.0426 1.41486 12.5 1.42046V1.42046ZM12.5 8.08989e-06C10.0277 8.08989e-06 7.61099 0.73312 5.55537 2.10664C3.49976 3.48015 1.89761 5.43239 0.951511 7.71646C0.00541606 10.0005 -0.242126 12.5139 0.24019 14.9386C0.722505 17.3634 1.91301 19.5907 3.66117 21.3388C5.40932 23.087 7.63661 24.2775 10.0614 24.7598C12.4861 25.2421 14.9995 24.9946 17.2835 24.0485C19.5676 23.1024 21.5198 21.5002 22.8934 19.4446C24.2669 17.389 25 14.9723 25 12.5C25.0019 10.858 24.6798 9.23166 24.0523 7.71425C23.4248 6.19684 22.5041 4.81811 21.343 3.657C20.1819 2.4959 18.8032 1.57523 17.2858 0.947707C15.7683 0.320185 14.142 -0.00186106 12.5 8.08989e-06V8.08989e-06Z" fill="black"/>
<path d="M13.9488 17.0454C13.9488 17.8834 15.5823 17.8266 15.5823 17.8266V18.7641H9.63064V17.8266C9.63064 17.8266 11.321 17.8266 11.321 17.0454V10.7954C10.9375 9.82946 9.38916 9.6448 9.38916 9.63059V9.09082H14.0056V17.0454H13.9488Z" fill="#E42525"/>
<path d="M12.5991 5.29841C12.8997 5.29841 13.1935 5.38755 13.4435 5.55455C13.6934 5.72156 13.8882 5.95894 14.0032 6.23666C14.1183 6.51438 14.1484 6.81998 14.0897 7.11481C14.0311 7.40964 13.8863 7.68046 13.6738 7.89301C13.4612 8.10557 13.1904 8.25033 12.8956 8.30897C12.6007 8.36762 12.2951 8.33752 12.0174 8.22248C11.7397 8.10745 11.5023 7.91264 11.3353 7.6627C11.1683 7.41275 11.0792 7.1189 11.0792 6.81829C11.0773 6.61817 11.1153 6.41968 11.191 6.23442C11.2667 6.04916 11.3786 5.88086 11.5201 5.73934C11.6616 5.59783 11.8299 5.48595 12.0152 5.41024C12.2004 5.33453 12.3989 5.29651 12.5991 5.29841V5.29841Z" fill="#E42525"/>
</svg>
