<svg width="25" height="25" viewBox="0 0 25 25" fill="none" xmlns="http://www.w3.org/2000/svg">
<path d="M12.5 1.42046C14.6901 1.42889 16.8286 2.0862 18.6453 3.30938C20.462 4.53255 21.8754 6.26671 22.7071 8.29278C23.5387 10.3189 23.7512 12.546 23.3178 14.6927C22.8843 16.8395 21.8243 18.8097 20.2717 20.3544C18.7191 21.899 16.7435 22.9489 14.5945 23.3714C12.4456 23.7938 10.2196 23.5699 8.1978 22.7279C6.17601 21.8859 4.44912 20.4636 3.23526 18.6407C2.02141 16.8177 1.37505 14.6759 1.37785 12.4858C1.3797 11.0284 1.66907 9.58572 2.22937 8.24034C2.78966 6.89497 3.60989 5.67335 4.64305 4.64547C5.67621 3.61758 6.90201 2.80363 8.25024 2.25023C9.59847 1.69683 11.0426 1.41486 12.5 1.42046V1.42046ZM12.5 8.08989e-06C10.0277 8.08989e-06 7.61099 0.73312 5.55537 2.10664C3.49976 3.48015 1.89761 5.43239 0.951511 7.71646C0.00541606 10.0005 -0.242126 12.5139 0.24019 14.9386C0.722505 17.3634 1.91301 19.5907 3.66117 21.3388C5.40932 23.087 7.63661 24.2775 10.0614 24.7598C12.4861 25.2421 14.9995 24.9946 17.2835 24.0485C19.5676 23.1024 21.5198 21.5002 22.8934 19.4446C24.2669 17.389 25 14.9723 25 12.5C25.0019 10.858 24.6798 9.23166 24.0523 7.71425C23.4248 6.19684 22.5041 4.81811 21.343 3.657C20.1819 2.4959 18.8032 1.57523 17.2858 0.947707C15.7683 0.320185 14.142 -0.00186106 12.5 8.08989e-06V8.08989e-06Z" fill="black"/>
<path d="M15.1416 7.10192C15.5684 7.10253 15.9918 7.09428 16.3916 7.24396C16.6806 7.35142 16.9425 7.52115 17.1586 7.74112C17.3739 7.96098 17.543 8.22181 17.6558 8.50817C17.7985 8.90983 17.8752 9.33196 17.883 9.75817C17.883 10.4684 17.883 10.6815 17.883 12.4712C17.883 14.261 17.883 14.4599 17.883 15.1701C17.8752 15.5963 17.7985 16.0184 17.6558 16.4201C17.543 16.7064 17.3739 16.9673 17.1586 17.1871C16.9425 17.4071 16.6806 17.5768 16.3916 17.6843C15.9918 17.834 15.5684 17.911 15.1416 17.9116C14.4313 17.9116 14.2183 17.9116 12.4285 17.9116C10.6387 17.9116 10.4399 17.9116 9.72962 17.9116C9.3053 17.9246 8.88204 17.8621 8.47962 17.7269C8.18881 17.623 7.92619 17.4528 7.71258 17.2298C7.48788 17.0175 7.31739 16.7545 7.21542 16.4627C7.06611 16.0623 6.9845 15.6399 6.97394 15.2127C6.97394 14.5025 6.97394 14.3036 6.97394 12.5138C6.97394 10.7241 6.97394 10.511 6.97394 9.80078C6.98132 9.36403 7.06298 8.93172 7.21542 8.52237C7.31739 8.2306 7.48788 7.96756 7.71258 7.75533C7.92913 7.54258 8.19152 7.38223 8.47962 7.28658C8.88204 7.15139 9.3053 7.08886 9.72962 7.10192C11.6074 7.10192 13.2632 7.10192 15.1416 7.10192ZM9.67281 5.89453C9.11418 5.902 8.56122 6.00778 8.03928 6.20703C7.59505 6.37367 7.19266 6.63547 6.86031 6.97408C6.52104 7.31141 6.2593 7.71857 6.09326 8.16726C5.89854 8.67075 5.7928 9.20426 5.78076 9.74396C5.78076 10.4542 5.78076 10.6815 5.78076 12.5849C5.78076 14.4883 5.78076 14.6303 5.78076 15.3406C5.78823 15.8992 5.89401 16.4521 6.09326 16.9741C6.26381 17.4163 6.52507 17.818 6.86024 18.1531C7.1954 18.4883 7.59703 18.7495 8.03928 18.9201C8.56122 19.1193 9.11418 19.2251 9.67281 19.2326C10.383 19.2326 10.6103 19.2326 12.4285 19.2326C14.2467 19.2326 14.4881 19.2326 15.2694 19.2326C15.8235 19.2255 16.3718 19.1197 16.8887 18.9201C17.3374 18.7541 17.7446 18.4923 18.0819 18.153C18.4205 17.8207 18.6823 17.4183 18.8489 16.9741C19.0482 16.4521 19.154 15.8992 19.1614 15.3406C19.1614 14.6303 19.1614 14.403 19.1614 12.5849C19.1614 10.7667 19.1614 10.5252 19.1614 9.81498C19.1544 9.26092 19.0486 8.71256 18.8489 8.19567C18.6817 7.74757 18.4201 7.34064 18.0819 7.00244C17.7437 6.66424 17.3368 6.40267 16.8887 6.23544C16.3718 6.03581 15.8235 5.92999 15.2694 5.92294C13.3804 5.89818 11.5741 5.89453 9.67281 5.89453ZM12.4285 9.14737C11.7458 9.14737 11.0785 9.34981 10.5108 9.72909C9.94319 10.1084 9.50078 10.6474 9.23953 11.2782C8.97828 11.9089 8.90992 12.6029 9.04311 13.2725C9.17629 13.942 9.50503 14.5571 9.98776 15.0398C10.4705 15.5225 11.0855 15.8513 11.7551 15.9845C12.4247 16.1176 13.1187 16.0493 13.7494 15.788C14.3801 15.5268 14.9192 15.0844 15.2985 14.5167C15.6778 13.9491 15.8802 13.2818 15.8802 12.5991C15.8916 12.1387 15.8107 11.6806 15.6423 11.252C15.4739 10.8233 15.2215 10.4327 14.8998 10.1031C14.5782 9.77347 14.1938 9.51157 13.7694 9.3328C13.5892 9.25691 13 9.14737 12.4285 9.14737ZM11.1801 14.4499C10.8108 14.2027 10.5231 13.8513 10.3537 13.4404C10.1842 13.0295 10.1406 12.5775 10.2284 12.1418C10.3161 11.706 10.5313 11.3062 10.8466 10.9929C11.1619 10.6796 11.5631 10.4669 11.9994 10.382C12.4357 10.297 12.8874 10.3434 13.2972 10.5155C13.7071 10.6875 14.0566 10.9774 14.3015 11.3484C14.5464 11.7193 14.6756 12.1546 14.6728 12.5991C14.6472 13.1769 14.3995 13.7225 13.9813 14.1221C13.5632 14.5218 13.0069 14.7445 12.4285 14.744C11.9805 14.744 11.3322 14.5517 11.1801 14.4499ZM16.8177 9.01953C16.814 9.23179 16.727 9.4341 16.5756 9.58288C16.4241 9.73167 16.2203 9.81502 16.008 9.81498C15.7971 9.81498 15.5947 9.73118 15.4456 9.582C15.2964 9.43282 15.2126 9.2305 15.2126 9.01953C15.2125 8.80723 15.2959 8.60342 15.4447 8.45198C15.5935 8.30054 15.7958 8.2136 16.008 8.20987C16.2079 8.21186 16.4002 8.28644 16.5492 8.41972C16.6981 8.553 16.7936 8.73588 16.8177 8.9343V9.01953Z" fill="#E42525"/>
</svg>
