<svg width="25" height="19" viewBox="0 0 25 19" fill="none" xmlns="http://www.w3.org/2000/svg">
<path d="M18.9624 14.0845C18.8158 14.2301 18.6293 14.3291 18.4266 14.3689C18.2238 14.4087 18.0138 14.3876 17.823 14.3082C17.6322 14.2288 17.4692 14.0947 17.3546 13.9228C17.2399 13.7508 17.1787 13.5488 17.1787 13.3422C17.1787 13.1355 17.2399 12.9335 17.3546 12.7616C17.4692 12.5897 17.6322 12.4556 17.823 12.3762C18.0138 12.2968 18.2238 12.2757 18.4266 12.3155C18.6293 12.3553 18.8158 12.4543 18.9624 12.5999C19.0603 12.6971 19.138 12.8128 19.191 12.9402C19.244 13.0676 19.2713 13.2042 19.2713 13.3422C19.2713 13.4802 19.244 13.6168 19.191 13.7442C19.138 13.8716 19.0603 13.9872 18.9624 14.0845V14.0845Z" fill="black"/>
<path d="M17.0821 18.0432C16.2626 18.0437 15.4573 17.8284 14.7475 17.4188C14.0376 17.0093 13.4481 16.42 13.0383 15.7103H2.84407L0.115234 13.5187L3.83381 10.8747L4.8801 11.7513L5.9688 10.8464L7.04337 11.7513L7.86344 11.0585H13.0242C13.4314 10.3475 14.0186 9.75626 14.7268 9.34425C15.4351 8.93224 16.2393 8.71399 17.0586 8.71145C17.878 8.70891 18.6835 8.92216 19.3943 9.32977C20.105 9.73738 20.6959 10.325 21.1075 11.0334C21.5191 11.7419 21.7369 12.5462 21.739 13.3656C21.741 14.1849 21.5273 14.9904 21.1193 15.7009C20.7113 16.4114 20.1233 17.0019 19.4146 17.4131C18.7059 17.8243 17.9014 18.0416 17.0821 18.0432V18.0432ZM3.35308 14.2963H13.9291L14.1129 14.7064C14.4172 15.3858 14.9453 15.9403 15.6092 16.2772C16.273 16.6141 17.0324 16.7131 17.7604 16.5575C18.4885 16.4019 19.1411 16.0013 19.6093 15.4225C20.0774 14.8437 20.3329 14.1218 20.3329 13.3773C20.3329 12.6328 20.0774 11.9109 19.6093 11.3321C19.1411 10.7533 18.4885 10.3527 17.7604 10.1971C17.0324 10.0416 16.273 10.1405 15.6092 10.4774C14.9453 10.8143 14.4172 11.3688 14.1129 12.0482L13.9291 12.4583H8.38658L7.05751 13.5187L5.98294 12.6279L4.89424 13.5187L3.77725 12.5855L2.47646 13.5187L3.35308 14.2963Z" fill="black"/>
<path d="M23.9965 18.1C24.551 18.1 25.0004 17.6506 25.0004 17.0962C25.0004 16.5417 24.551 16.0923 23.9965 16.0923C23.4421 16.0923 22.9927 16.5417 22.9927 17.0962C22.9927 17.6506 23.4421 18.1 23.9965 18.1Z" fill="#E42525"/>
<path d="M24.7176 4.28613H23.2755C23.1193 4.28613 22.9927 4.41274 22.9927 4.56891V14.8056C22.9927 14.9618 23.1193 15.0884 23.2755 15.0884H24.7176C24.8738 15.0884 25.0004 14.9618 25.0004 14.8056V4.56891C25.0004 4.41274 24.8738 4.28613 24.7176 4.28613Z" fill="#E42525"/>
<path d="M14.2543 4.17276C14.0709 4.16836 13.8953 4.0981 13.7594 3.97481C12.7832 3.01092 11.5978 2.28516 10.2954 1.85395C8.87274 1.38355 7.35699 1.26646 5.87898 1.51279C4.40097 1.75913 3.00512 2.36148 1.81195 3.26786C1.59986 3.42339 1.40191 3.59306 1.20397 3.76273C1.1405 3.83035 1.06384 3.88426 0.978725 3.9211C0.893611 3.95795 0.801847 3.97696 0.7091 3.97696C0.616353 3.97696 0.52459 3.95795 0.439476 3.9211C0.354362 3.88426 0.277704 3.83035 0.214233 3.76273C0.146605 3.69926 0.0927036 3.6226 0.0558569 3.53748C0.0190101 3.45237 0 3.36061 0 3.26786C0 3.17511 0.0190101 3.08335 0.0558569 2.99823C0.0927036 2.91312 0.146605 2.83646 0.214233 2.77299C0.46301 2.57052 0.722609 2.38172 0.991881 2.20743C2.35679 1.15666 3.95656 0.45324 5.65354 0.157685C7.35053 -0.137871 9.09391 -0.0167099 10.7337 0.510743C12.2457 1.0085 13.624 1.84514 14.7633 2.9568C14.8651 3.05485 14.9351 3.18114 14.9643 3.31937C14.9936 3.4576 14.9808 3.60143 14.9275 3.73231C14.8743 3.86318 14.783 3.97509 14.6655 4.0536C14.5481 4.13211 14.4097 4.17361 14.2685 4.17276H14.2543Z" fill="#E42525"/>
<path d="M12.2468 6.84531C12.1544 6.84477 12.0629 6.82573 11.9779 6.78931C11.8929 6.75288 11.8161 6.69981 11.7519 6.63323C10.6939 5.51647 9.25664 4.83564 7.72232 4.72445C6.25331 4.74982 4.83111 5.24536 3.66441 6.13836L3.25438 6.44942C3.18863 6.52553 3.1074 6.58673 3.01611 6.62894C2.92482 6.67115 2.82557 6.6934 2.725 6.69419C2.62442 6.69499 2.52484 6.67432 2.43289 6.63355C2.34094 6.59279 2.25875 6.53288 2.19181 6.45782C2.12486 6.38276 2.0747 6.29428 2.04468 6.19829C2.01466 6.1023 2.00546 6.00101 2.01771 5.90118C2.02996 5.80135 2.06337 5.70529 2.1157 5.6194C2.16804 5.53351 2.2381 5.45978 2.3212 5.40313L2.81607 5.03551C4.22493 3.95064 5.94451 3.34606 7.72232 3.31055C9.63754 3.41274 11.44 4.24813 12.7558 5.64349C12.8854 5.77564 12.9579 5.95331 12.9579 6.13836C12.9579 6.32341 12.8854 6.50108 12.7558 6.63323C12.621 6.76856 12.4379 6.84484 12.2468 6.84531V6.84531Z" fill="#E42525"/>
<path d="M9.80044 9.27713C9.61217 9.27617 9.4309 9.20567 9.29144 9.07919C8.85947 8.60408 8.26306 8.31093 7.62303 8.25912C6.99003 8.26599 6.37765 8.48506 5.88392 8.88124L5.77081 9.02263C5.63019 9.14825 5.44543 9.21287 5.25716 9.20226C5.0689 9.19166 4.89256 9.1067 4.76694 8.96607C4.64132 8.82545 4.5767 8.64069 4.58731 8.45242C4.59791 8.26416 4.68287 8.08782 4.8235 7.9622L5.078 7.75012C5.82445 7.17495 6.73732 6.85743 7.67958 6.84521C8.69528 6.89679 9.65217 7.33726 10.3519 8.07531C10.4823 8.20985 10.5552 8.38987 10.5552 8.57725C10.5552 8.76463 10.4823 8.94465 10.3519 9.07919C10.2775 9.14686 10.1905 9.19919 10.0959 9.23316C10.0013 9.26713 9.90086 9.28207 9.80044 9.27713V9.27713Z" fill="#E42525"/>
</svg>
