<svg width="25" height="23" viewBox="0 0 25 23" fill="none" xmlns="http://www.w3.org/2000/svg">
<path d="M20.5933 2.38135C20.8148 2.3851 21.0259 2.47571 21.1811 2.63366C21.3364 2.7916 21.4234 3.00422 21.4234 3.2257C21.3967 3.4289 21.2971 3.61548 21.1431 3.75065C20.989 3.88582 20.7911 3.96036 20.5862 3.96036C20.3812 3.96036 20.1833 3.88582 20.0292 3.75065C19.8752 3.61548 19.7756 3.4289 19.749 3.2257C19.749 3.00176 19.8379 2.787 19.9963 2.62865C20.1546 2.47031 20.3694 2.38135 20.5933 2.38135V2.38135Z" fill="#E42525"/>
<path d="M3.23429 20.9851H0.715552C0.525776 20.9851 0.343772 20.9097 0.20958 20.7755C0.0753882 20.6413 0 20.4593 0 20.2695C0 20.0797 0.0753882 19.8977 0.20958 19.7635C0.343772 19.6293 0.525776 19.5539 0.715552 19.5539H3.23429C3.32504 19.5559 3.41524 19.5395 3.49946 19.5056C3.58369 19.4718 3.66019 19.4213 3.72437 19.3571C3.78855 19.2929 3.83908 19.2164 3.87291 19.1322C3.90674 19.048 3.92318 18.9578 3.92122 18.867V12.9423C3.92318 12.8515 3.90674 12.7613 3.87291 12.6771C3.83908 12.5929 3.78855 12.5164 3.72437 12.4522C3.66019 12.388 3.58369 12.3375 3.49946 12.3036C3.41524 12.2698 3.32504 12.2534 3.23429 12.2553H0.715552C0.525776 12.2553 0.343772 12.1799 0.20958 12.0457C0.0753882 11.9116 0 11.7295 0 11.5398C0 11.35 0.0753882 11.168 0.20958 11.0338C0.343772 10.8996 0.525776 10.8242 0.715552 10.8242H3.23429C3.79603 10.8242 4.33476 11.0474 4.73197 11.4446C5.12918 11.8418 5.35233 12.3805 5.35233 12.9423V18.867C5.35233 19.4288 5.12918 19.9675 4.73197 20.3647C4.33476 20.7619 3.79603 20.9851 3.23429 20.9851Z" fill="black"/>
<path d="M13.5524 22.4171C10.5079 21.6398 7.5117 20.6841 4.57939 19.5549C4.38961 19.4904 4.23324 19.3531 4.14467 19.1733C4.05611 18.9935 4.0426 18.7858 4.10712 18.5961C4.17165 18.4063 4.30892 18.2499 4.48873 18.1613C4.66855 18.0728 4.87619 18.0593 5.06596 18.1238C8.78683 19.5549 12.98 20.9001 13.5667 20.986C14.4254 20.8572 22.2678 17.3367 23.5844 16.6927C23.5895 16.4987 23.5452 16.3067 23.4556 16.1346C23.1837 16.1346 20.5076 16.7499 18.1606 17.3081C18.0666 17.3287 17.9695 17.3307 17.8747 17.3138C17.78 17.297 17.6895 17.2616 17.6085 17.2098C17.5274 17.158 17.4574 17.0907 17.4023 17.0118C17.3472 16.9329 17.3083 16.8439 17.2876 16.7499C17.2669 16.656 17.2649 16.5589 17.2818 16.4641C17.2987 16.3694 17.334 16.2789 17.3859 16.1979C17.4377 16.1168 17.505 16.0467 17.5839 15.9917C17.6628 15.9366 17.7517 15.8976 17.8457 15.877C19.0049 15.6051 22.8403 14.7178 23.5701 14.7178C23.8452 14.7364 24.1091 14.8341 24.3299 14.9991C24.5508 15.1642 24.7193 15.3895 24.8152 15.648C24.9614 15.9685 25.0225 16.3213 24.9924 16.6723C24.9623 17.0233 24.8421 17.3606 24.6435 17.6515C21.082 19.5386 17.3727 21.1324 13.5524 22.4171V22.4171Z" fill="black"/>
<path d="M11.1197 19.1251C10.9417 19.126 10.7698 19.0605 10.6375 18.9415C10.5051 18.8224 10.422 18.6583 10.4042 18.4811C10.388 18.2919 10.4463 18.1039 10.5665 17.957C10.6867 17.81 10.8595 17.7157 11.0482 17.694C13.5097 17.4794 16.2574 17.1645 17.1304 16.9785C17.1414 16.6563 17.0878 16.3352 16.9729 16.0339C16.1053 15.9883 15.2359 15.9883 14.3683 16.0339C13.5821 16.0876 12.7932 16.0876 12.007 16.0339C11.104 15.7056 10.2869 15.1773 9.61706 14.4884C9.17757 14.0956 8.69788 13.7502 8.18596 13.458C7.06695 13.4293 5.94739 13.4867 4.83718 13.6297C4.65018 13.6461 4.46405 13.5898 4.31747 13.4726C4.17088 13.3553 4.07512 13.186 4.05007 13C4.03816 12.9056 4.04559 12.8098 4.07189 12.7184C4.09819 12.6269 4.14282 12.5418 4.20307 12.4682C4.26331 12.3945 4.33791 12.3339 4.42232 12.2901C4.50673 12.2462 4.59919 12.2199 4.69407 12.2129C5.96763 12.0194 7.25622 11.9428 8.54374 11.9839C9.29319 12.2824 9.97108 12.736 10.533 13.3149C11.0515 13.7932 11.6229 14.2109 12.236 14.5599C12.5365 14.5599 13.4954 14.5599 14.3397 14.5599C16.6152 14.5599 17.3307 14.5599 17.7171 14.7746C17.9705 14.9664 18.1779 15.2124 18.324 15.4947C18.4701 15.777 18.5512 16.0884 18.5615 16.406C18.636 16.7007 18.6425 17.0084 18.5805 17.3059C18.5185 17.6035 18.3897 17.883 18.2037 18.1234C18.0176 18.3237 17.7457 18.5956 11.177 19.1967L11.1197 19.1251Z" fill="black"/>
<path d="M11.7354 11.8836L12.0645 8.86398L16.1718 4.7424C16.014 4.09692 16.0259 3.42157 16.2065 2.78208C16.387 2.14259 16.7301 1.56072 17.2022 1.09309V1.09309C17.9392 0.391378 18.9179 0 19.9356 0C20.9532 0 21.9319 0.391378 22.669 1.09309C23.2664 1.6902 23.6518 2.46664 23.766 3.30357C23.8803 4.1405 23.7171 4.99181 23.3015 5.72719C22.8859 6.46258 22.2408 7.04153 21.4649 7.37542C20.689 7.70932 19.8251 7.77977 19.0054 7.57599L17.7174 8.86398H16.9446L16.8444 9.98024L15.6995 10.152V11.211L11.7354 11.8836ZM13.4241 9.5366V10.1806L14.2684 9.99455L14.3686 8.83536L15.4848 8.73518L15.6995 7.61892L17.1306 7.49012L18.6905 5.93022L19.1198 6.10195C19.4868 6.22914 19.8787 6.26719 20.2632 6.21294C20.6477 6.1587 21.0138 6.01372 21.3312 5.79C21.6486 5.56627 21.9083 5.27022 22.0886 4.92631C22.269 4.5824 22.3649 4.2005 22.3684 3.81219C22.3692 3.49276 22.3064 3.17637 22.1835 2.88151C22.0607 2.58665 21.8803 2.31922 21.6529 2.09486C21.1875 1.65295 20.5702 1.40657 19.9284 1.40657C19.2866 1.40657 18.6693 1.65295 18.2039 2.09486C17.8729 2.42806 17.6455 2.84995 17.549 3.30959C17.4525 3.76923 17.4911 4.24698 17.6601 4.68516L17.8175 5.11449L13.4241 9.5366Z" fill="#E42525"/>
</svg>
