<svg width="25" height="19" viewBox="0 0 25 19" fill="none" xmlns="http://www.w3.org/2000/svg">
<path d="M20.3885 4.35154V14.1953H4.52097V4.35154H20.3885ZM20.6823 2.88232H4.22713C3.9154 2.88232 3.61644 3.00616 3.39602 3.22658C3.17559 3.44701 3.05176 3.74597 3.05176 4.0577V14.4891C3.05176 14.8008 3.17559 15.0998 3.39602 15.3202C3.61644 15.5406 3.9154 15.6645 4.22713 15.6645H20.6823C20.994 15.6645 21.293 15.5406 21.5134 15.3202C21.7339 15.0998 21.8577 14.8008 21.8577 14.4891V4.0577C21.8577 3.74597 21.7339 3.44701 21.5134 3.22658C21.293 3.00616 20.994 2.88232 20.6823 2.88232V2.88232Z" fill="black"/>
<path d="M12.5719 2.88296C16.9796 0.50283 22.7242 -1.28961 24.4873 1.41374C26.4413 4.35217 21.3138 10.0674 15.4957 13.9167C12.7304 15.8135 9.68017 17.2568 6.46 18.1922C5.50184 18.4529 4.5145 18.5911 3.52158 18.6035C2.93634 18.6666 2.34468 18.5797 1.80233 18.3509C1.25997 18.1222 0.784789 17.7591 0.421537 17.2959C-0.606913 15.7386 0.259923 13.2556 2.87512 10.3172L2.99266 10.2143V12.4328C1.68506 14.1812 1.17084 15.6798 1.65568 16.4144C2.14052 17.149 3.81542 17.2666 6.06332 16.6936C9.12796 15.7997 12.0297 14.4207 14.6582 12.6091C20.8289 8.52474 24.2669 3.72041 23.2237 2.14835C22.5626 1.14928 19.7858 1.25213 15.8777 2.86826L12.5719 2.88296Z" fill="#E42525"/>
<path d="M3.0515 8.31885C0.421609 5.38043 -0.474611 2.92684 0.524454 1.36947C1.52352 -0.187894 3.46288 -0.305431 6.50415 0.45856C9.72942 1.37859 12.7854 2.81231 15.5545 4.70459C21.4314 8.53923 26.5295 14.2104 24.5755 17.1782C24.2067 17.6427 23.7263 18.0062 23.1791 18.2349C22.6319 18.4635 22.0357 18.5499 21.4461 18.4858C19.9392 18.4295 18.4511 18.1319 17.0384 17.6043C15.52 17.076 14.0461 16.4275 12.6308 15.6649H16.0393L17.5086 16.2232C20.447 17.2223 22.7537 17.2811 23.3854 16.3701C24.4286 14.7834 20.9612 9.99376 14.7905 5.92403C12.141 4.1225 9.21917 2.75834 6.13685 1.8837C3.93303 1.3107 2.24343 1.42824 1.75859 2.14816C1.27375 2.86807 1.75859 4.33728 3.0515 6.05626" fill="#E42525"/>
</svg>
