<svg width="17" height="25" viewBox="0 0 17 25" fill="none" xmlns="http://www.w3.org/2000/svg">
<path d="M4.11619 9.30832C3.92774 9.30832 3.74701 9.23346 3.61375 9.10021C3.4805 8.96695 3.40564 8.78622 3.40564 8.59777C3.40612 7.63944 3.6407 6.69572 4.08899 5.8487C4.53727 5.00167 5.18567 4.27697 5.97783 3.73762C6.05256 3.66195 6.14333 3.60402 6.24343 3.56811C6.34353 3.53219 6.45042 3.51921 6.55622 3.53011C6.66201 3.54101 6.764 3.57552 6.85468 3.6311C6.94535 3.68667 7.0224 3.76189 7.08013 3.85121C7.13786 3.94053 7.1748 4.04167 7.18824 4.14717C7.20167 4.25267 7.19125 4.35984 7.15774 4.46077C7.12424 4.56171 7.0685 4.65384 6.99464 4.73036C6.92079 4.80689 6.83069 4.86585 6.73101 4.90292C6.13147 5.31502 5.64103 5.86662 5.30189 6.51024C4.96275 7.15387 4.78506 7.87026 4.78411 8.59777C4.78443 8.77906 4.71545 8.95362 4.59128 9.08572C4.46712 9.21781 4.29715 9.29745 4.11619 9.30832V9.30832Z" fill="#E42525"/>
<path d="M8.0527 8.2908e-06C6.43494 0.000998009 4.85493 0.488933 3.51831 1.40031C2.18169 2.31169 1.15036 3.6043 0.558538 5.10993C-0.0332852 6.61555 -0.158193 8.26446 0.200072 9.84205C0.558337 11.4196 1.38318 12.8529 2.56726 13.9552V13.9552C3.00827 14.3175 3.31378 14.8184 3.43413 15.3763V20.1654C3.43541 20.6155 3.58305 21.0531 3.85477 21.4119C4.1265 21.7708 4.50757 22.0316 4.9405 22.1549C4.95693 22.5451 5.05015 22.9282 5.21481 23.2823C5.37946 23.6364 5.61233 23.9545 5.90008 24.2185C6.18783 24.4825 6.52482 24.6871 6.89175 24.8207C7.25869 24.9544 7.64837 25.0143 8.03849 24.9971C8.42861 25.0143 8.81829 24.9544 9.18523 24.8207C9.55216 24.6871 9.88915 24.4825 10.1769 24.2185C10.4646 23.9545 10.6975 23.6364 10.8622 23.2823C11.0268 22.9282 11.12 22.5451 11.1365 22.1549C11.5694 22.0316 11.9505 21.7708 12.2222 21.4119C12.4939 21.0531 12.6416 20.6155 12.6428 20.1654V15.4047C12.7626 14.8431 13.0741 14.3406 13.5239 13.9836C14.7174 12.8841 15.551 11.4498 15.9157 9.86862C16.2805 8.2874 16.1592 6.6329 15.568 5.12172C14.9767 3.61054 13.9429 2.31309 12.602 1.39923C11.2611 0.48537 9.67543 -0.002319 8.0527 8.2908e-06V8.2908e-06ZM11.236 18.2043H4.86944V17.0532H11.236V18.2043ZM8.0527 23.5902C7.6624 23.6161 7.27657 23.4948 6.97138 23.2501C6.66619 23.0054 6.46382 22.6552 6.40423 22.2686H9.71539C9.64958 22.655 9.44354 23.0035 9.13674 23.2473C8.82993 23.4912 8.44394 23.6133 8.0527 23.5902V23.5902ZM10.5823 20.8475H5.52315C5.34977 20.8475 5.1835 20.7786 5.06091 20.6561C4.93831 20.5335 4.86944 20.3672 4.86944 20.1938V19.6254H11.236V20.1938C11.236 20.3672 11.1671 20.5335 11.0445 20.6561C10.9219 20.7786 10.7556 20.8475 10.5823 20.8475V20.8475ZM12.6144 12.8894C12.2207 13.1917 11.892 13.5702 11.6478 14.0024C11.4037 14.4346 11.2491 14.9115 11.1933 15.4047V15.6321H4.86944V15.3905C4.73802 14.404 4.22847 13.5072 3.44834 12.8894C2.47979 11.9781 1.80733 10.797 1.51815 9.49897C1.22896 8.20098 1.33639 6.84604 1.8265 5.60984C2.31662 4.37363 3.16681 3.31318 4.26685 2.56596C5.36689 1.81875 6.66604 1.41925 7.99586 1.41925C9.32567 1.41925 10.6248 1.81875 11.7249 2.56596C12.8249 3.31318 13.6751 4.37363 14.1652 5.60984C14.6553 6.84604 14.7628 8.20098 14.4736 9.49897C14.1844 10.797 13.5119 11.9781 12.5434 12.8894H12.6144Z" fill="black"/>
</svg>
