<svg width="17" height="25" viewBox="0 0 17 25" fill="none" xmlns="http://www.w3.org/2000/svg">
<path d="M14.6933 6.18425C14.5155 6.18381 14.3451 6.11283 14.2196 5.9869C14.1583 5.92687 14.1097 5.85522 14.0764 5.77615C14.0432 5.69708 14.0261 5.61217 14.0261 5.5264C14.0261 5.44063 14.0432 5.35573 14.0764 5.27666C14.1097 5.19758 14.1583 5.12594 14.2196 5.06591L15.8774 3.55287C15.9364 3.48994 16.0078 3.43978 16.087 3.40549C16.1662 3.37121 16.2516 3.35352 16.3379 3.35352C16.4242 3.35352 16.5096 3.37121 16.5888 3.40549C16.668 3.43978 16.7393 3.48994 16.7984 3.55287C16.86 3.61402 16.909 3.68678 16.9424 3.76695C16.9758 3.84711 16.993 3.93309 16.993 4.01994C16.993 4.10678 16.9758 4.19277 16.9424 4.27293C16.909 4.35309 16.86 4.42585 16.7984 4.48701L15.1537 6.03952C15.0229 6.14211 14.8592 6.19356 14.6933 6.18425V6.18425Z" fill="#E42525"/>
<path d="M2.26022 6.18314C2.08909 6.1815 1.92479 6.11578 1.79973 5.99894L0.19459 4.42011C0.132931 4.35896 0.0839907 4.2862 0.0505927 4.20603C0.0171948 4.12587 0 4.03989 0 3.95304C0 3.8662 0.0171948 3.78022 0.0505927 3.70005C0.0839907 3.61989 0.132931 3.54713 0.19459 3.48597C0.253651 3.42304 0.324985 3.37289 0.404186 3.3386C0.483388 3.30431 0.568777 3.28662 0.655081 3.28662C0.741386 3.28662 0.826775 3.30431 0.905977 3.3386C0.985178 3.37289 1.05651 3.42304 1.11557 3.48597L2.76019 5.10427C2.82145 5.1643 2.87012 5.23595 2.90335 5.31502C2.93657 5.39409 2.95369 5.479 2.95369 5.56476C2.95369 5.65053 2.93657 5.73544 2.90335 5.81451C2.87012 5.89358 2.82145 5.96523 2.76019 6.02526C2.69172 6.08378 2.61216 6.12793 2.52626 6.15505C2.44037 6.18218 2.34989 6.19173 2.26022 6.18314V6.18314Z" fill="#E42525"/>
<path d="M8.44407 3.61815C8.2696 3.61815 8.10227 3.54884 7.9789 3.42547C7.85553 3.3021 7.78622 3.13478 7.78622 2.9603V0.657845C7.78622 0.483374 7.85553 0.316048 7.9789 0.192678C8.10227 0.0693085 8.2696 0 8.44407 0C8.61854 0 8.78587 0.0693085 8.90924 0.192678C9.03261 0.316048 9.10192 0.483374 9.10192 0.657845V2.9603C9.10192 3.13478 9.03261 3.3021 8.90924 3.42547C8.78587 3.54884 8.61854 3.61815 8.44407 3.61815Z" fill="#E42525"/>
<path d="M11.3647 18.8797H5.6283C5.45383 18.8797 5.28651 18.8103 5.16314 18.687C5.03977 18.5636 4.97046 18.3963 4.97046 18.2218C4.97046 18.0473 5.03977 17.88 5.16314 17.7566C5.28651 17.6333 5.45383 17.564 5.6283 17.564H11.3647C11.5392 17.564 11.7065 17.6333 11.8299 17.7566C11.9533 17.88 12.0226 18.0473 12.0226 18.2218C12.0226 18.3963 11.9533 18.5636 11.8299 18.687C11.7065 18.8103 11.5392 18.8797 11.3647 18.8797Z" fill="black"/>
<path d="M11.3647 20.8533H5.6283C5.45383 20.8533 5.28651 20.784 5.16314 20.6606C5.03977 20.5372 4.97046 20.3699 4.97046 20.1954C4.97046 20.021 5.03977 19.8536 5.16314 19.7303C5.28651 19.6069 5.45383 19.5376 5.6283 19.5376H11.3647C11.5392 19.5376 11.7065 19.6069 11.8299 19.7303C11.9533 19.8536 12.0226 20.021 12.0226 20.1954C12.0226 20.3699 11.9533 20.5372 11.8299 20.6606C11.7065 20.784 11.5392 20.8533 11.3647 20.8533Z" fill="black"/>
<path d="M8.50972 24.9979C7.87539 25.023 7.25685 24.7965 6.78869 24.3677C6.32053 23.939 6.04063 23.3427 6.0099 22.7086C6.0099 22.5342 6.07921 22.3668 6.20258 22.2435C6.32595 22.1201 6.49328 22.0508 6.66775 22.0508C6.84222 22.0508 7.00955 22.1201 7.13292 22.2435C7.25629 22.3668 7.32559 22.5342 7.32559 22.7086C7.35554 22.9939 7.49653 23.256 7.7181 23.4381C7.93967 23.6203 8.22403 23.708 8.50972 23.6822C8.79541 23.708 9.07976 23.6203 9.30133 23.4381C9.5229 23.256 9.66389 22.9939 9.69384 22.7086C9.69384 22.5342 9.76315 22.3668 9.88652 22.2435C10.0099 22.1201 10.1772 22.0508 10.3517 22.0508C10.5262 22.0508 10.6935 22.1201 10.8169 22.2435C10.9402 22.3668 11.0095 22.5342 11.0095 22.7086C10.9788 23.3427 10.6989 23.939 10.2307 24.3677C9.76258 24.7965 9.14404 25.023 8.50972 24.9979V24.9979Z" fill="black"/>
<path d="M5.48387 12.9067C5.30939 12.9067 5.14207 12.8373 5.0187 12.714C4.89533 12.5906 4.82602 12.4233 4.82602 12.2488C4.82161 11.6148 4.95166 10.987 5.20757 10.4068C5.54858 9.60124 6.11513 8.91133 6.83903 8.42015C6.90958 8.36546 6.99053 8.3257 7.07694 8.30329C7.16335 8.28088 7.25341 8.27629 7.34165 8.28981C7.42989 8.30332 7.51446 8.33465 7.5902 8.38189C7.66594 8.42913 7.73128 8.49129 7.78223 8.56459C7.83318 8.63789 7.86868 8.72079 7.88657 8.80825C7.90446 8.89571 7.90436 8.98589 7.88628 9.07331C7.8682 9.16073 7.83252 9.24355 7.7814 9.31674C7.73029 9.38992 7.66482 9.45194 7.58897 9.49902C7.06553 9.85429 6.65466 10.3519 6.40485 10.9331C6.23181 11.3502 6.1424 11.7972 6.14171 12.2488C6.14171 12.4233 6.0724 12.5906 5.94903 12.714C5.82566 12.8373 5.65834 12.9067 5.48387 12.9067Z" fill="black"/>
<path d="M10.4571 22.8931H6.51005C6.07257 22.8695 5.66083 22.6789 5.35972 22.3607C5.05862 22.0424 4.89111 21.6208 4.89175 21.1827V17.4856C4.80398 17.0885 4.5864 16.732 4.27337 16.4725C3.34048 15.6077 2.68986 14.4818 2.40637 13.2418C2.12287 12.0017 2.21967 10.705 2.68414 9.52071C3.1486 8.33647 3.95917 7.31969 5.01012 6.60298C6.06107 5.88628 7.30362 5.50293 8.57568 5.50293C9.84775 5.50293 11.0903 5.88628 12.1412 6.60298C13.1922 7.31969 14.0028 8.33647 14.4672 9.52071C14.9317 10.705 15.0285 12.0017 14.745 13.2418C14.4615 14.4818 13.8109 15.6077 12.878 16.4725C12.6938 16.6435 12.2333 17.104 12.2333 17.5119V21.1827C12.2335 21.4129 12.1872 21.6408 12.0971 21.8528C12.0071 22.0647 11.8752 22.2563 11.7093 22.416C11.5435 22.5757 11.3471 22.7003 11.1319 22.7822C10.9167 22.8642 10.6872 22.9019 10.4571 22.8931V22.8931ZM5.10226 15.4857C5.71567 15.9841 6.11185 16.701 6.20744 17.4856V21.1827C6.21073 21.2863 6.25337 21.3848 6.3267 21.4581C6.40002 21.5314 6.49851 21.5741 6.60215 21.5774H10.5492C10.6529 21.5741 10.7514 21.5314 10.8247 21.4581C10.898 21.3848 10.9406 21.2863 10.9439 21.1827V17.4856C11.0254 16.6923 11.4181 15.9637 12.036 15.4594C12.5352 14.9963 12.9323 14.4342 13.2019 13.8089C13.4714 13.1836 13.6076 12.509 13.6016 11.8281C13.6018 10.9984 13.3954 10.1816 13.0011 9.45157C12.6069 8.7215 12.0371 8.10103 11.3432 7.64611C10.6493 7.19118 9.85306 6.91611 9.02632 6.84569C8.19958 6.77527 7.36831 6.91171 6.60747 7.24272C5.84662 7.57373 5.18012 8.0889 4.66805 8.74178C4.15598 9.39465 3.81445 10.1647 3.67426 10.9825C3.53406 11.8003 3.5996 12.6401 3.86497 13.4263C4.13035 14.2124 4.58721 14.9202 5.19436 15.4857H5.10226Z" fill="black"/>
</svg>
