<svg width="26" height="25" viewBox="0 0 26 25" fill="none" xmlns="http://www.w3.org/2000/svg">
<path d="M20.8161 5.12012C20.7221 5.12126 20.6288 5.10271 20.5424 5.06566C20.4559 5.02861 20.3782 4.97387 20.3141 4.90497C20.2455 4.84058 20.1908 4.76282 20.1535 4.67648C20.1161 4.59014 20.0968 4.49705 20.0968 4.40296C20.0968 4.30888 20.1161 4.21579 20.1535 4.12945C20.1908 4.04311 20.2455 3.96534 20.3141 3.90095L21.8345 2.43796C21.9695 2.30292 22.1527 2.22705 22.3437 2.22705C22.5347 2.22705 22.7178 2.30292 22.8529 2.43796C22.9879 2.573 23.0638 2.75616 23.0638 2.94714C23.0638 3.13812 22.9879 3.32128 22.8529 3.45632L21.3181 4.90497C21.2541 4.97387 21.1764 5.02861 21.0899 5.06566C21.0034 5.10271 20.9102 5.12126 20.8161 5.12012V5.12012Z" fill="#E42525"/>
<path d="M13.6587 5.03509C13.4727 5.03064 13.2945 4.95936 13.1567 4.83429L11.622 3.29958C11.5551 3.23271 11.5021 3.15333 11.4659 3.06597C11.4297 2.9786 11.4111 2.88496 11.4111 2.7904C11.4111 2.69584 11.4297 2.6022 11.4659 2.51483C11.5021 2.42747 11.5551 2.34809 11.622 2.28122C11.757 2.14618 11.9402 2.07031 12.1312 2.07031C12.2257 2.07031 12.3194 2.08894 12.4067 2.12513C12.4941 2.16131 12.5735 2.21436 12.6403 2.28122L14.2468 3.8733C14.3791 4.00978 14.4531 4.1924 14.4531 4.38248C14.4531 4.57257 14.3791 4.75519 14.2468 4.89166C14.1634 4.95383 14.0684 4.99856 13.9673 5.02321C13.8663 5.04785 13.7613 5.05189 13.6587 5.03509V5.03509Z" fill="#E42525"/>
<path d="M17.259 3.60011C17.0688 3.60011 16.8864 3.52456 16.7519 3.39007C16.6174 3.25557 16.5418 3.07316 16.5418 2.88296V0.717154C16.5418 0.526953 16.6174 0.344542 16.7519 0.21005C16.8864 0.0755573 17.0688 0 17.259 0C17.4492 0 17.6316 0.0755573 17.7661 0.21005C17.9006 0.344542 17.9761 0.526953 17.9761 0.717154V2.88296C17.9724 3.07201 17.8957 3.2523 17.762 3.386C17.6283 3.51971 17.448 3.59644 17.259 3.60011Z" fill="#E42525"/>
<path d="M24.4162 8.72093H22.2504C22.0613 8.71726 21.881 8.64052 21.7473 8.50682C21.6136 8.37311 21.5369 8.19283 21.5332 8.00378C21.5332 7.81357 21.6088 7.63116 21.7433 7.49667C21.8777 7.36218 22.0602 7.28662 22.2504 7.28662H24.4162C24.6064 7.28662 24.7888 7.36218 24.9233 7.49667C25.0578 7.63116 25.1333 7.81357 25.1333 8.00378C25.1333 8.19398 25.0578 8.37639 24.9233 8.51088C24.7888 8.64537 24.6064 8.72093 24.4162 8.72093Z" fill="#E42525"/>
<path d="M22.2647 13.7986C22.0776 13.7997 21.8974 13.7276 21.7627 13.5978L20.228 12.063C20.1608 11.9964 20.1074 11.9171 20.071 11.8297C20.0346 11.7423 20.0159 11.6485 20.0159 11.5539C20.0159 11.4592 20.0346 11.3655 20.071 11.2781C20.1074 11.1907 20.1608 11.1114 20.228 11.0447C20.3645 10.9124 20.5471 10.8384 20.7372 10.8384C20.9273 10.8384 21.1099 10.9124 21.2464 11.0447L22.7667 12.5794C22.8339 12.6461 22.8873 12.7254 22.9237 12.8128C22.9601 12.9002 22.9789 12.9939 22.9789 13.0886C22.9789 13.1832 22.9601 13.277 22.9237 13.3644C22.8873 13.4518 22.8339 13.5311 22.7667 13.5978C22.6304 13.7251 22.4513 13.7968 22.2647 13.7986Z" fill="#E42525"/>
<path d="M1.62497 16.781C1.48167 16.9152 1.36743 17.0774 1.28933 17.2575C1.21123 17.4376 1.17093 17.6318 1.17093 17.8281C1.17093 18.0244 1.21123 18.2186 1.28933 18.3987C1.36743 18.5788 1.48167 18.741 1.62497 18.8751L1.98355 19.2337L0.205004 21.084C0.0736017 21.218 0 21.3983 0 21.586C0 21.7737 0.0736017 21.9539 0.205004 22.088C0.34182 22.2253 0.527532 22.3027 0.721355 22.3031C0.815155 22.3026 0.907896 22.2833 0.994113 22.2463C1.08033 22.2094 1.15828 22.1555 1.22336 22.088L3.00191 20.3094L4.69439 22.0019L2.91585 23.7661C2.78353 23.9026 2.70954 24.0852 2.70954 24.2753C2.70954 24.4654 2.78353 24.648 2.91585 24.7845C3.04826 24.9196 3.22869 24.9969 3.41786 24.9996C3.61168 24.9992 3.79739 24.9218 3.93421 24.7845L5.71275 23.0059L6.07133 23.3645C6.20532 23.5056 6.36661 23.6179 6.54537 23.6946C6.72414 23.7714 6.91665 23.811 7.1112 23.811C7.30575 23.811 7.49826 23.7714 7.67703 23.6946C7.85579 23.6179 8.01708 23.5056 8.15107 23.3645L10.0444 21.4856L3.51826 14.9595L1.62497 16.781Z" fill="black"/>
<path d="M19.5825 5.55103L19.4391 5.42194C19.0231 4.99165 17.89 4.96296 16.0972 5.33588C14.7983 5.51412 13.5626 6.00645 12.497 6.77019L7.51999 11.7903C7.41275 11.6852 7.26856 11.6263 7.11839 11.6263C6.96821 11.6263 6.82402 11.6852 6.71678 11.7903L6.01397 12.4787L5.79882 12.2636C5.69158 12.1585 5.54739 12.0996 5.39722 12.0996C5.24704 12.0996 5.10285 12.1585 4.99561 12.2636L4.04897 13.2102C3.99476 13.2636 3.95171 13.3273 3.92232 13.3974C3.89294 13.4676 3.87781 13.5429 3.87781 13.619C3.87781 13.6951 3.89294 13.7704 3.92232 13.8406C3.95171 13.9108 3.99476 13.9744 4.04897 14.0278L11.0054 20.9842C11.1126 21.0893 11.2568 21.1482 11.407 21.1482C11.5571 21.1482 11.7013 21.0893 11.8086 20.9842L12.7552 20.0375C12.8094 19.9842 12.8525 19.9205 12.8819 19.8504C12.9112 19.7802 12.9264 19.7049 12.9264 19.6288C12.9264 19.5527 12.9112 19.4774 12.8819 19.4072C12.8525 19.337 12.8094 19.2734 12.7552 19.22L12.5544 19.0192L13.2285 18.3594C13.2827 18.306 13.3258 18.2424 13.3552 18.1722C13.3846 18.102 13.3997 18.0267 13.3997 17.9506C13.3997 17.8745 13.3846 17.7992 13.3552 17.729C13.3258 17.6589 13.2827 17.5952 13.2285 17.5419V17.5419L18.1769 12.4787C19.353 11.317 20.5005 6.46899 19.5825 5.55103ZM12.1958 16.4661L8.50966 12.8086L13.4867 7.83158C15.0216 6.93606 16.7731 6.47959 18.5498 6.51202C18.529 8.26998 18.0335 9.98964 17.1155 11.4891L12.1958 16.4661Z" fill="black"/>
<path d="M15.2654 7.94612C14.68 8.14549 14.1392 8.45731 13.6733 8.86407L11.0629 11.4889C10.9943 11.5532 10.9396 11.631 10.9022 11.7174C10.8649 11.8037 10.8456 11.8968 10.8456 11.9909C10.8456 12.085 10.8649 12.178 10.9022 12.2644C10.9396 12.3507 10.9943 12.4285 11.0629 12.4929C11.1273 12.5615 11.2051 12.6162 11.2914 12.6535C11.3777 12.6909 11.4708 12.7102 11.5649 12.7102C11.659 12.7102 11.7521 12.6909 11.8384 12.6535C11.9248 12.6162 12.0025 12.5615 12.0669 12.4929L14.6917 9.88243C15.0079 9.60937 15.3799 9.40867 15.7818 9.29437C15.9566 9.22097 16.097 9.08372 16.1743 8.91053C16.2515 8.73734 16.2599 8.54122 16.1977 8.36206C16.1643 8.27315 16.1136 8.19175 16.0485 8.12259C15.9834 8.05344 15.9053 7.9979 15.8185 7.9592C15.7318 7.9205 15.6382 7.89942 15.5433 7.89717C15.4483 7.89493 15.3539 7.91156 15.2654 7.94612V7.94612Z" fill="black"/>
</svg>
