<svg width="25" height="25" viewBox="0 0 25 25" fill="none" xmlns="http://www.w3.org/2000/svg">
<path d="M12.5 1.42045C14.6883 1.42888 16.8251 2.08512 18.6409 3.30641C20.4566 4.5277 21.8701 6.25934 22.703 8.28294C23.5359 10.3065 23.7509 12.5315 23.3209 14.6771C22.8909 16.8227 21.8351 18.793 20.2868 20.3393C18.7384 21.8857 16.7668 22.9389 14.6206 23.3662C12.4745 23.7935 10.2498 23.5756 8.22729 22.7402C6.20476 21.9047 4.47492 20.489 3.25595 18.6717C2.03698 16.8543 1.38347 14.7167 1.37785 12.5284C1.37597 11.068 1.66248 9.62153 2.22093 8.27208C2.77938 6.92262 3.59879 5.69672 4.63213 4.66469C5.66548 3.63266 6.89243 2.81482 8.2426 2.2581C9.59276 1.70137 11.0396 1.41671 12.5 1.42045V1.42045ZM12.5 0C10.0277 0 7.61099 0.733112 5.55538 2.10663C3.49976 3.48015 1.89761 5.43238 0.951511 7.71646C0.00541606 10.0005 -0.242126 12.5139 0.24019 14.9386C0.722505 17.3634 1.91301 19.5907 3.66117 21.3388C5.40933 23.087 7.63661 24.2775 10.0614 24.7598C12.4861 25.2421 14.9995 24.9946 17.2835 24.0485C19.5676 23.1024 21.5199 21.5002 22.8934 19.4446C24.2669 17.389 25 14.9723 25 12.5C25 10.8585 24.6767 9.23303 24.0485 7.71646C23.4203 6.19989 22.4996 4.8219 21.3388 3.66116C20.1781 2.50043 18.8001 1.57969 17.2835 0.951506C15.767 0.323322 14.1415 0 12.5 0V0Z" fill="black"/>
<path d="M16.2213 7.72705H8.84912C8.60292 7.72702 8.36659 7.82384 8.19118 7.9966C8.01577 8.16935 7.91535 8.40418 7.91162 8.65035V16.1219C7.91529 16.3694 8.01524 16.6058 8.19026 16.7808C8.36529 16.9558 8.60162 17.0558 8.84912 17.0594H16.2213C16.4674 17.0557 16.7023 16.9553 16.875 16.7799C17.0478 16.6045 17.1446 16.3681 17.1446 16.1219V8.65035C17.1446 8.40547 17.0473 8.17063 16.8741 7.99748C16.701 7.82433 16.4662 7.72705 16.2213 7.72705V7.72705ZM10.8804 15.1134H9.63037V11.1077H10.8804V15.1134ZM10.2554 10.6248C10.1365 10.6161 10.0226 10.5737 9.92703 10.5024C9.83149 10.4311 9.75832 10.334 9.71615 10.2226C9.67398 10.1111 9.66457 9.98986 9.68902 9.87321C9.71347 9.75655 9.77077 9.64932 9.85416 9.56416C9.93754 9.479 10.0435 9.41945 10.1597 9.39255C10.2758 9.36565 10.3972 9.37251 10.5095 9.41233C10.6218 9.45214 10.7205 9.52325 10.7937 9.61727C10.867 9.71129 10.9118 9.82429 10.923 9.94296C10.9315 10.0334 10.9202 10.1246 10.8898 10.2102C10.8595 10.2958 10.8108 10.3738 10.7473 10.4387C10.6837 10.5036 10.6068 10.5539 10.5219 10.586C10.4369 10.6181 10.346 10.6314 10.2554 10.6248ZM15.4116 15.1134H14.1616V12.8975C14.1616 12.3861 13.977 12.031 13.5224 12.031C13.3808 12.0348 13.2438 12.0818 13.1296 12.1655C13.0154 12.2493 12.9294 12.3659 12.8832 12.4998C12.867 12.5986 12.867 12.6993 12.8832 12.7981V15.1134H11.619V12.3861C11.619 11.889 11.619 11.477 11.619 11.1077H12.7412V11.6759C12.8721 11.4718 13.0531 11.3046 13.2669 11.1902C13.4807 11.0758 13.7203 11.0181 13.9628 11.0225C14.7866 11.0225 15.3832 11.5765 15.3832 12.7413L15.4116 15.1134Z" fill="#E42525"/>
</svg>
