<svg width="25" height="25" viewBox="0 0 25 25" fill="none" xmlns="http://www.w3.org/2000/svg">
<path d="M12.4998 7.72727C12.3114 7.72727 12.1308 7.65245 11.9976 7.51925C11.8644 7.38606 11.7896 7.20541 11.7896 7.01705V0.710227C11.7896 0.521863 11.8644 0.341214 11.9976 0.208021C12.1308 0.0748273 12.3114 0 12.4998 0C12.6881 0 12.8688 0.0748273 13.002 0.208021C13.1352 0.341214 13.21 0.521863 13.21 0.710227V7.01705C13.21 7.20541 13.1352 7.38606 13.002 7.51925C12.8688 7.65245 12.6881 7.72727 12.4998 7.72727Z" fill="black"/>
<path d="M8.6223 9.33253C8.52915 9.33366 8.4368 9.31529 8.35118 9.2786C8.26555 9.2419 8.18856 9.18769 8.12514 9.11946L3.66491 4.65923C3.53306 4.52738 3.45898 4.34854 3.45898 4.16207C3.45898 3.9756 3.53306 3.79677 3.66491 3.66491C3.79677 3.53306 3.9756 3.45898 4.16207 3.45898C4.34854 3.45898 4.52738 3.53306 4.65923 3.66491L9.11946 8.12514C9.1874 8.18891 9.24155 8.26592 9.27857 8.35143C9.31559 8.43694 9.33468 8.52912 9.33468 8.6223C9.33468 8.71548 9.31559 8.80767 9.27857 8.89317C9.24155 8.97868 9.1874 9.0557 9.11946 9.11946C9.05604 9.18769 8.97905 9.2419 8.89342 9.2786C8.8078 9.31529 8.71545 9.33366 8.6223 9.33253V9.33253Z" fill="black"/>
<path d="M7.01705 13.21H0.710227C0.521863 13.21 0.341214 13.1352 0.208021 13.002C0.0748273 12.8688 0 12.6881 0 12.4998C0 12.3114 0.0748273 12.1308 0.208021 11.9976C0.341214 11.8644 0.521863 11.7896 0.710227 11.7896H7.01705C7.20541 11.7896 7.38606 11.8644 7.51925 11.9976C7.65245 12.1308 7.72727 12.3114 7.72727 12.4998C7.72727 12.6881 7.65245 12.8688 7.51925 13.002C7.38606 13.1352 7.20541 13.21 7.01705 13.21Z" fill="black"/>
<path d="M4.16234 21.5484C4.06703 21.546 3.97335 21.5232 3.88759 21.4816C3.80184 21.4399 3.726 21.3804 3.66518 21.307C3.59723 21.2432 3.54308 21.1662 3.50607 21.0807C3.46905 20.9952 3.44995 20.903 3.44995 20.8098C3.44995 20.7166 3.46905 20.6244 3.50607 20.5389C3.54308 20.4534 3.59723 20.3764 3.66518 20.3126L8.1254 15.8524C8.25726 15.7206 8.43609 15.6465 8.62256 15.6465C8.80903 15.6465 8.98787 15.7206 9.11972 15.8524C9.25158 15.9843 9.32565 16.1631 9.32565 16.3496C9.32565 16.536 9.25158 16.7149 9.11972 16.8467L4.65949 21.307C4.59867 21.3804 4.52283 21.4399 4.43708 21.4816C4.35132 21.5232 4.25764 21.546 4.16234 21.5484V21.5484Z" fill="black"/>
<path d="M12.4998 25.0002C12.3114 25.0002 12.1308 24.9254 11.9976 24.7922C11.8644 24.659 11.7896 24.4784 11.7896 24.29V17.9832C11.7896 17.7948 11.8644 17.6142 11.9976 17.481C12.1308 17.3478 12.3114 17.2729 12.4998 17.2729C12.6881 17.2729 12.8688 17.3478 13.002 17.481C13.1352 17.6142 13.21 17.7948 13.21 17.9832V24.29C13.21 24.4784 13.1352 24.659 13.002 24.7922C12.8688 24.9254 12.6881 25.0002 12.4998 25.0002Z" fill="black"/>
<path d="M20.8384 21.5483C20.7452 21.5495 20.6529 21.5311 20.5672 21.4944C20.4816 21.4577 20.4046 21.4035 20.3412 21.3353L15.881 16.8751C15.7491 16.7432 15.675 16.5644 15.675 16.3779C15.675 16.1914 15.7491 16.0126 15.881 15.8807C16.0128 15.7489 16.1917 15.6748 16.3781 15.6748C16.5646 15.6748 16.7434 15.7489 16.8753 15.8807L21.3071 20.341C21.4044 20.4402 21.4705 20.5659 21.4971 20.7023C21.5237 20.8388 21.5096 20.9801 21.4567 21.1086C21.4038 21.2372 21.3143 21.3474 21.1993 21.4255C21.0843 21.5037 20.949 21.5464 20.81 21.5483H20.8384Z" fill="black"/>
<path d="M24.29 13.21H17.9832C17.7948 13.21 17.6142 13.1352 17.481 13.002C17.3478 12.8688 17.2729 12.6881 17.2729 12.4998C17.2729 12.3114 17.3478 12.1308 17.481 11.9976C17.6142 11.8644 17.7948 11.7896 17.9832 11.7896H24.29C24.4784 11.7896 24.659 11.8644 24.7922 11.9976C24.9254 12.1308 25.0002 12.3114 25.0002 12.4998C25.0002 12.6881 24.9254 12.8688 24.7922 13.002C24.659 13.1352 24.4784 13.21 24.29 13.21Z" fill="#E42525"/>
<path d="M16.3777 9.33253C16.2845 9.33366 16.1922 9.31529 16.1065 9.2786C16.0209 9.2419 15.9439 9.18769 15.8805 9.11946C15.8126 9.0557 15.7584 8.97868 15.7214 8.89317C15.6844 8.80767 15.6653 8.71548 15.6653 8.6223C15.6653 8.52912 15.6844 8.43694 15.7214 8.35143C15.7584 8.26592 15.8126 8.18891 15.8805 8.12514L20.3407 3.66491C20.406 3.59963 20.4835 3.54784 20.5688 3.5125C20.6541 3.47717 20.7456 3.45898 20.8379 3.45898C20.9302 3.45898 21.0217 3.47717 21.107 3.5125C21.1923 3.54784 21.2698 3.59963 21.3351 3.66491C21.4003 3.7302 21.4521 3.80771 21.4875 3.89301C21.5228 3.97832 21.541 4.06974 21.541 4.16207C21.541 4.2544 21.5228 4.34583 21.4875 4.43113C21.4521 4.51644 21.4003 4.59395 21.3351 4.65923L16.8748 9.11946C16.8114 9.18769 16.7344 9.2419 16.6488 9.2786C16.5632 9.31529 16.4708 9.33366 16.3777 9.33253V9.33253Z" fill="#E42525"/>
</svg>
