<svg width="25" height="25" viewBox="0 0 25 25" fill="none" xmlns="http://www.w3.org/2000/svg">
<path d="M12.4999 3.0618C12.3136 3.0618 12.135 2.98781 12.0033 2.85611C11.8716 2.72442 11.7976 2.5458 11.7976 2.35955V0.702247C11.7976 0.516 11.8716 0.33738 12.0033 0.205683C12.135 0.0739865 12.3136 0 12.4999 0C12.6861 0 12.8647 0.0739865 12.9964 0.205683C13.1281 0.33738 13.2021 0.516 13.2021 0.702247V2.35955C13.2021 2.5458 13.1281 2.72442 12.9964 2.85611C12.8647 2.98781 12.6861 3.0618 12.4999 3.0618Z" fill="#E42525"/>
<path d="M12.4999 25C12.3136 25 12.135 24.9261 12.0033 24.7944C11.8716 24.6627 11.7976 24.484 11.7976 24.2978V22.6124C11.7976 22.4262 11.8716 22.2475 12.0033 22.1158C12.135 21.9841 12.3136 21.9102 12.4999 21.9102C12.6861 21.9102 12.8647 21.9841 12.9964 22.1158C13.1281 22.2475 13.2021 22.4262 13.2021 22.6124V24.2978C13.2021 24.484 13.1281 24.6627 12.9964 24.7944C12.8647 24.9261 12.6861 25 12.4999 25Z" fill="#E42525"/>
<path d="M2.35955 13.2023H0.702247C0.516 13.2023 0.33738 13.1284 0.205683 12.9967C0.0739865 12.865 0 12.6863 0 12.5001C0 12.3139 0.0739865 12.1352 0.205683 12.0035C0.33738 11.8718 0.516 11.7979 0.702247 11.7979H2.35955C2.5458 11.7979 2.72442 11.8718 2.85611 12.0035C2.98781 12.1352 3.0618 12.3139 3.0618 12.5001C3.0618 12.6863 2.98781 12.865 2.85611 12.9967C2.72442 13.1284 2.5458 13.2023 2.35955 13.2023Z" fill="#E42525"/>
<path d="M24.2978 13.2023H22.6124C22.4262 13.2023 22.2475 13.1284 22.1158 12.9967C21.9841 12.865 21.9102 12.6863 21.9102 12.5001C21.9102 12.3139 21.9841 12.1352 22.1158 12.0035C22.2475 11.8718 22.4262 11.7979 22.6124 11.7979H24.2978C24.484 11.7979 24.6627 11.8718 24.7944 12.0035C24.9261 12.1352 25 12.3139 25 12.5001C25 12.6863 24.9261 12.865 24.7944 12.9967C24.6627 13.1284 24.484 13.2023 24.2978 13.2023Z" fill="#E42525"/>
<path d="M12.486 9.9719C13.0064 9.96925 13.516 10.1204 13.9507 10.4065C14.3855 10.6925 14.726 11.1006 14.9296 11.5796C15.1331 12.0586 15.1906 12.587 15.0947 13.0985C14.9989 13.61 14.7541 14.0818 14.391 14.4546C14.0279 14.8274 13.5627 15.0846 13.0539 15.1939C12.5451 15.3032 12.0153 15.2597 11.5312 15.0688C11.047 14.878 10.6301 14.5484 10.3327 14.1213C10.0352 13.6942 9.87067 13.1888 9.85959 12.6685C9.85213 12.3183 9.91445 11.97 10.0429 11.6441C10.1714 11.3181 10.3634 11.021 10.6079 10.77C10.8523 10.519 11.1443 10.3192 11.4667 10.1822C11.7892 10.0452 12.1356 9.97369 12.486 9.9719V9.9719ZM12.486 8.56741C11.6854 8.56463 10.902 8.79949 10.2349 9.24227C9.5679 9.68504 9.04726 10.3158 8.73895 11.0547C8.43065 11.7935 8.34854 12.6073 8.50302 13.3928C8.65751 14.1784 9.04164 14.9005 9.60677 15.4676C10.1719 16.0347 10.8926 16.4213 11.6776 16.5785C12.4627 16.7357 13.2767 16.6565 14.0166 16.3507C14.7566 16.045 15.3891 15.5265 15.8342 14.8611C16.2793 14.1956 16.5169 13.413 16.5169 12.6124C16.5169 11.542 16.0927 10.5153 15.3371 9.7571C14.5816 8.99893 13.5563 8.57112 12.486 8.56741V8.56741Z" fill="#E42525"/>
<path d="M12.5141 3.76402C14.2447 3.76402 15.9365 4.2772 17.3754 5.23867C18.8143 6.20013 19.9358 7.56669 20.5981 9.16554C21.2604 10.7644 21.4336 12.5237 21.096 14.2211C20.7584 15.9184 19.925 17.4775 18.7013 18.7012C17.4776 19.9249 15.9185 20.7583 14.2212 21.0959C12.5239 21.4335 10.7645 21.2602 9.16567 20.598C7.56681 19.9357 6.20025 18.8142 5.23879 17.3753C4.27732 15.9363 3.76415 14.2446 3.76415 12.514C3.76786 10.1945 4.69092 7.97108 6.33106 6.33094C7.9712 4.6908 10.1946 3.76774 12.5141 3.76402V3.76402ZM12.5141 2.35953C10.5034 2.34841 8.53466 2.93449 6.85739 4.04349C5.18011 5.1525 3.86985 6.7345 3.09266 8.58898C2.31547 10.4435 2.10634 12.4869 2.49179 14.4604C2.87723 16.4339 3.8399 18.2485 5.25776 19.6742C6.67563 21.1 8.48487 22.0727 10.4562 22.4691C12.4275 22.8655 14.4721 22.6677 16.3308 21.9008C18.1896 21.1339 19.7788 19.8324 20.8971 18.1614C22.0154 16.4903 22.6124 14.5248 22.6125 12.514C22.6125 9.83059 21.5504 7.25623 19.6582 5.3535C17.766 3.45077 15.1975 2.37438 12.5141 2.35953V2.35953Z" fill="black"/>
</svg>
