<svg width="20" height="25" viewBox="0 0 20 25" fill="none" xmlns="http://www.w3.org/2000/svg">
<path d="M18.1818 12.0308V23.5791H1.42045V12.0308H18.1818V12.0308ZM18.4659 10.6104H1.13636C0.834981 10.6104 0.545943 10.7301 0.332833 10.9432C0.119723 11.1563 0 11.4453 0 11.7467V23.8632C0 24.1646 0.119723 24.4536 0.332833 24.6667C0.545943 24.8798 0.834981 24.9996 1.13636 24.9996H18.4659C18.7673 24.9996 19.0563 24.8798 19.2694 24.6667C19.4825 24.4536 19.6023 24.1646 19.6023 23.8632V11.7467C19.6023 11.4453 19.4825 11.1563 19.2694 10.9432C19.0563 10.7301 18.7673 10.6104 18.4659 10.6104V10.6104Z" fill="black"/>
<path d="M4.50273 11.6477C4.31436 11.6477 4.13371 11.5729 4.00052 11.4397C3.86733 11.3065 3.7925 11.1259 3.7925 10.9375V5.99432C3.78865 4.50138 4.34075 3.06047 5.34121 1.95234C6.34168 0.844212 7.71886 0.148231 9.20443 0H10.3408C11.8364 0.142027 13.2245 0.839167 14.2315 1.95399C15.2386 3.06882 15.7914 4.52045 15.7811 6.02273C15.7811 6.21109 15.7063 6.39174 15.5731 6.52493C15.4399 6.65813 15.2593 6.73295 15.0709 6.73295C14.8825 6.73295 14.7019 6.65813 14.5687 6.52493C14.4355 6.39174 14.3607 6.21109 14.3607 6.02273C14.3709 4.88489 13.9579 3.78385 13.202 2.93338C12.446 2.08291 11.401 1.54371 10.2698 1.42045H9.27546C8.15563 1.54996 7.12307 2.08845 6.37593 2.93259C5.62879 3.77673 5.2197 4.86705 5.22716 5.99432V10.9375C5.22718 11.032 5.20835 11.1255 5.17177 11.2126C5.13519 11.2997 5.0816 11.3787 5.01414 11.4448C4.94668 11.5109 4.8667 11.563 4.77888 11.5978C4.69107 11.6326 4.59718 11.6496 4.50273 11.6477Z" fill="black"/>
<path d="M9.73025 21.8756C9.54188 21.8756 9.36123 21.8008 9.22804 21.6676C9.09485 21.5344 9.02002 21.3538 9.02002 21.1654V18.3245C9.02002 18.1361 9.09485 17.9555 9.22804 17.8223C9.36123 17.6891 9.54188 17.6143 9.73025 17.6143C9.91861 17.6143 10.0993 17.6891 10.2325 17.8223C10.3656 17.9555 10.4405 18.1361 10.4405 18.3245V21.1654C10.4405 21.3538 10.3656 21.5344 10.2325 21.6676C10.0993 21.8008 9.91861 21.8756 9.73025 21.8756Z" fill="#E42525"/>
<path d="M9.80126 19.0477C9.29557 19.0477 8.80124 18.8978 8.38077 18.6168C7.96031 18.3359 7.63259 17.9366 7.43907 17.4694C7.24555 17.0022 7.19492 16.4881 7.29358 15.9921C7.39223 15.4961 7.63574 15.0405 7.99332 14.683C8.3509 14.3254 8.80648 14.0819 9.30245 13.9832C9.79843 13.8846 10.3125 13.9352 10.7797 14.1287C11.2469 14.3222 11.6462 14.6499 11.9272 15.0704C12.2081 15.4909 12.3581 15.9852 12.3581 16.4909C12.3544 17.1679 12.0838 17.816 11.6051 18.2947C11.1264 18.7734 10.4782 19.044 9.80126 19.0477ZM9.80126 15.3545C9.57651 15.3545 9.35681 15.4212 9.16994 15.546C8.98306 15.6709 8.83741 15.8484 8.7514 16.056C8.66539 16.2637 8.64289 16.4922 8.68674 16.7126C8.73058 16.933 8.83881 17.1355 8.99773 17.2944C9.15666 17.4534 9.35914 17.5616 9.57957 17.6054C9.8 17.6493 10.0285 17.6268 10.2361 17.5408C10.4438 17.4548 10.6213 17.3091 10.7461 17.1222C10.871 16.9354 10.9376 16.7157 10.9376 16.4909C10.9376 16.3417 10.9082 16.1939 10.8511 16.056C10.794 15.9182 10.7103 15.7929 10.6048 15.6874C10.4993 15.5818 10.374 15.4981 10.2361 15.441C10.0983 15.3839 9.95049 15.3545 9.80126 15.3545Z" fill="#E42525"/>
</svg>
