<svg width="20" height="25" viewBox="0 0 20 25" fill="none" xmlns="http://www.w3.org/2000/svg">
<path d="M18.1818 12.0308V23.5791H1.42045V12.0308H18.1818V12.0308ZM18.4659 10.6104H1.13636C0.834981 10.6104 0.545943 10.7301 0.332833 10.9432C0.119723 11.1563 0 11.4453 0 11.7467V23.8632C0 24.1646 0.119723 24.4536 0.332833 24.6667C0.545943 24.8798 0.834981 24.9996 1.13636 24.9996H18.4659C18.7673 24.9996 19.0563 24.8798 19.2694 24.6667C19.4825 24.4536 19.6023 24.1646 19.6023 23.8632V11.7467C19.6023 11.4453 19.4825 11.1563 19.2694 10.9432C19.0563 10.7301 18.7673 10.6104 18.4659 10.6104V10.6104Z" fill="black"/>
<path d="M9.73025 21.8756C9.54188 21.8756 9.36123 21.8008 9.22804 21.6676C9.09485 21.5344 9.02002 21.3538 9.02002 21.1654V18.3245C9.02002 18.1361 9.09485 17.9555 9.22804 17.8223C9.36123 17.6891 9.54188 17.6143 9.73025 17.6143C9.91861 17.6143 10.0993 17.6891 10.2325 17.8223C10.3656 17.9555 10.4405 18.1361 10.4405 18.3245V21.1654C10.4405 21.3538 10.3656 21.5344 10.2325 21.6676C10.0993 21.8008 9.91861 21.8756 9.73025 21.8756Z" fill="#E42525"/>
<path d="M9.80128 19.0477C9.29559 19.0477 8.80125 18.8978 8.38079 18.6168C7.96032 18.3359 7.63261 17.9366 7.43909 17.4694C7.24557 17.0022 7.19494 16.4881 7.29359 15.9921C7.39225 15.4961 7.63576 15.0405 7.99334 14.683C8.35091 14.3254 8.80649 14.0819 9.30247 13.9832C9.79844 13.8846 10.3125 13.9352 10.7797 14.1287C11.2469 14.3222 11.6462 14.6499 11.9272 15.0704C12.2081 15.4909 12.3581 15.9852 12.3581 16.4909C12.3544 17.1679 12.0838 17.816 11.6051 18.2947C11.1264 18.7734 10.4782 19.044 9.80128 19.0477ZM9.80128 15.3545C9.57653 15.3545 9.35682 15.4212 9.16995 15.546C8.98308 15.6709 8.83743 15.8484 8.75142 16.056C8.66541 16.2637 8.6429 16.4922 8.68675 16.7126C8.7306 16.933 8.83883 17.1355 8.99775 17.2944C9.15667 17.4534 9.35915 17.5616 9.57959 17.6054C9.80002 17.6493 10.0285 17.6268 10.2361 17.5408C10.4438 17.4548 10.6213 17.3091 10.7461 17.1222C10.871 16.9354 10.9376 16.7157 10.9376 16.4909C10.9376 16.3417 10.9083 16.1939 10.8511 16.056C10.794 15.9182 10.7103 15.7929 10.6048 15.6874C10.4993 15.5818 10.374 15.4981 10.2361 15.441C10.0983 15.3839 9.95051 15.3545 9.80128 15.3545Z" fill="#E42525"/>
<path d="M15.0997 11.7187C14.9113 11.7187 14.7307 11.6439 14.5975 11.5107C14.4643 11.3775 14.3895 11.1969 14.3895 11.0085V6.02273C14.399 4.88048 13.9821 3.77576 13.2202 2.92461C12.4584 2.07347 11.4065 1.53712 10.2702 1.42045H9.27584C8.15601 1.54996 7.12345 2.08845 6.37631 2.93259C5.62917 3.77673 5.22008 4.86705 5.22755 5.99432V10.9375C5.22755 11.1259 5.15272 11.3065 5.01953 11.4397C4.88633 11.5729 4.70568 11.6477 4.51732 11.6477C4.32896 11.6477 4.14831 11.5729 4.01511 11.4397C3.88192 11.3065 3.80709 11.1259 3.80709 10.9375V5.99432C3.80289 4.50359 4.35301 3.06453 5.35054 1.95674C6.34808 0.848949 7.72181 0.151534 9.20482 0H10.327C11.8251 0.138684 13.2167 0.834371 14.2267 1.94954C15.2366 3.06472 15.7915 4.51822 15.7815 6.02273V11.0227C15.7816 11.2049 15.7102 11.3798 15.5827 11.5099C15.4552 11.6401 15.2818 11.715 15.0997 11.7187V11.7187Z" fill="black"/>
</svg>
