<svg width="25" height="20" viewBox="0 0 25 20" fill="none" xmlns="http://www.w3.org/2000/svg">
<path d="M21.8888 16.4715H24.034C24.7443 16.4715 25 16.23 25 15.5196V11.2008C25 10.3769 24.7869 10.1638 23.9629 10.1638H18.0956C17.712 10.1638 17.6268 10.0643 17.6268 9.69494C17.6268 8.38794 17.6268 7.06673 17.6268 5.73132C17.6127 5.63614 17.6236 5.53892 17.6585 5.44925C17.6934 5.35957 17.751 5.28052 17.8257 5.21988L21.3205 2.23651C21.1926 3.65716 21.5478 4.86472 20.7664 6.07227C20.5416 6.45322 20.4609 6.90224 20.5391 7.33764C20.6173 7.77304 20.8492 8.1659 21.1926 8.44477C21.4737 8.7612 21.8466 8.98195 22.2592 9.07619C22.6718 9.17042 23.1035 9.13344 23.4941 8.97041C23.8824 8.83883 24.2238 8.59658 24.4762 8.2735C24.7286 7.95041 24.881 7.56058 24.9148 7.15197C24.9148 6.59791 24.7585 6.27116 24.3181 6.18592C23.8777 6.10069 23.5793 6.37061 23.4515 6.89625C23.4674 6.9664 23.4674 7.0392 23.4515 7.10935C23.4139 7.27981 23.3111 7.42879 23.1651 7.52439C23.019 7.61998 22.8414 7.65458 22.6701 7.62079C22.5044 7.59991 22.3521 7.51895 22.2422 7.39326C22.1322 7.26757 22.0721 7.10588 22.0735 6.93887C22.0788 6.78897 22.1157 6.64188 22.1818 6.50724C22.2479 6.37259 22.3417 6.25341 22.457 6.15751C22.5699 6.02283 22.6535 5.86611 22.7024 5.69733C22.7513 5.52855 22.7645 5.35143 22.7412 5.17726V0.915297C22.7412 0.53172 22.7412 0.204969 22.3008 0.0486974C22.1391 -0.00693186 21.9649 -0.0150878 21.7987 0.0251946C21.6325 0.065477 21.4814 0.152512 21.3631 0.276002C19.7578 1.69666 18.1382 3.11731 16.5187 4.43852C16.3869 4.53239 16.2822 4.65923 16.2148 4.80633C16.1475 4.95343 16.12 5.11564 16.1351 5.27671C16.1351 5.81656 16.1351 6.38482 16.1351 6.93887C16.1351 7.23721 16.0499 7.33665 15.7515 7.33665H12.8676C12.5267 7.33665 12.484 7.19459 12.4982 6.91046V4.56638C12.4982 3.82764 12.2709 3.60033 11.5038 3.60033C9.95527 3.60033 8.40675 3.60033 6.84403 3.60033C6.62503 3.5817 6.40633 3.63944 6.22505 3.76374C6.04378 3.88804 5.91111 4.07124 5.84958 4.28225C5.2529 5.7029 4.61361 7.12356 4.00272 8.54421C3.96404 8.65604 3.90047 8.75763 3.81679 8.8413C3.73312 8.92498 3.63153 8.98855 3.5197 9.02723C2.58207 9.36819 1.65864 9.78018 0.678392 10.1353C0.45824 10.204 0.269915 10.3492 0.147456 10.5446C0.0249976 10.74 -0.0235158 10.9728 0.0106847 11.2008C0.0106847 12.5363 0.0106847 13.8575 0.0106847 15.1929C0.0106847 16.2868 0.166957 16.4431 1.24665 16.4431H1.9996C1.9996 16.3578 2.18429 16.1873 2.18429 16.0879C2.18711 15.6918 2.28453 15.3022 2.46842 14.9514H1.38872C1.43134 14.0421 1.43134 12.6215 1.43134 11.6697C1.43134 11.3855 1.61602 11.3713 1.7865 11.3145C2.6531 10.9451 3.50549 10.6042 4.35789 10.2632C4.54467 10.2087 4.71506 10.1088 4.85387 9.97251C4.99269 9.83618 5.0956 9.66761 5.15345 9.48184C5.72172 8.14643 6.31839 6.81101 6.87245 5.4756C6.90873 5.34555 6.99013 5.23267 7.10207 5.15718C7.214 5.08169 7.34916 5.04852 7.48333 5.06361C8.5062 5.06361 9.51486 5.06361 10.5377 5.06361C10.8929 5.06361 10.9781 5.17726 10.9781 5.50401C10.9781 7.223 10.9781 8.92779 10.9781 10.6326C10.9781 11.4566 11.2054 11.6839 12.0294 11.6839H22.9685C23.3662 11.6839 23.5225 11.7691 23.4941 12.2237C23.4941 13.0051 23.4941 13.8148 23.4941 14.5962C23.4941 14.8945 23.4089 15.0366 23.1247 15.0366H21.8461L21.8888 16.4715ZM15.1265 10.2064H12.7966C12.5409 10.2064 12.4556 10.1211 12.4556 9.86542C12.3704 8.7289 12.3704 8.7289 13.5211 8.7289H15.7657C16.0641 8.7289 16.1493 8.81414 16.1493 9.09827C16.2061 10.2064 16.2346 10.2064 15.1265 10.2064ZM16.6608 15.0224H15.6379C13.0097 15.0224 10.3815 15.0224 7.78167 15.0224H7.56857C7.73038 15.3893 7.81268 15.7863 7.81008 16.1873C7.82474 16.2815 7.82474 16.3773 7.81008 16.4715H16.4903C16.4685 16.378 16.4685 16.2808 16.4903 16.1873C16.4651 15.7914 16.5232 15.3945 16.6608 15.0224ZM15.8936 16.4431H7.86691Z" fill="black"/>
<path d="M22.0307 14.9797C21.8113 14.4449 21.434 13.9897 20.9492 13.675C20.4644 13.3602 19.8951 13.2008 19.3173 13.2181C18.7355 13.2169 18.1663 13.3875 17.6811 13.7084C17.1959 14.0294 16.8162 14.4864 16.5896 15.0223C16.4394 15.3923 16.3623 15.7879 16.3623 16.1872C16.3405 16.2807 16.3405 16.3779 16.3623 16.4714C16.4262 17.1999 16.7606 17.8782 17.2996 18.3725C17.8387 18.8669 18.5433 19.1414 19.2746 19.1422C20.0106 19.1424 20.7204 18.8693 21.2664 18.3758C21.8124 17.8823 22.1557 17.2036 22.2296 16.4714C22.2371 16.3768 22.2371 16.2818 22.2296 16.1872C22.2518 15.775 22.1839 15.363 22.0307 14.9797ZM19.3173 17.6363C18.9851 17.6261 18.6657 17.5063 18.4087 17.2956C18.1517 17.0849 17.9717 16.7951 17.8966 16.4714C17.8966 16.3719 17.8966 16.2725 17.8966 16.1588C17.897 15.9298 17.9527 15.7042 18.0591 15.5014C18.1655 15.2985 18.3193 15.1244 18.5075 14.9939C18.7657 14.8141 19.0737 14.7197 19.3883 14.724C19.6941 14.7198 19.993 14.8145 20.2407 14.9939C20.425 15.1319 20.5731 15.3126 20.6721 15.5204C20.771 15.7283 20.818 15.9572 20.809 16.1872C20.8164 16.2818 20.8164 16.3768 20.809 16.4714C20.7469 16.8149 20.5605 17.1235 20.2854 17.3384C20.0102 17.5533 19.6656 17.6593 19.3173 17.6363V17.6363Z" fill="#E42525"/>
<path d="M7.65406 15.0224C7.39044 14.3895 6.91494 13.8679 6.30903 13.5471C5.70311 13.2263 5.00449 13.1261 4.33284 13.2638C3.66119 13.4015 3.05832 13.7685 2.62752 14.3018C2.19671 14.8352 1.96477 15.5017 1.97144 16.1873C1.95678 16.2815 1.95678 16.3773 1.97144 16.4715C2.04329 17.2015 2.38414 17.8788 2.92768 18.3715C3.47122 18.8641 4.1786 19.137 4.9122 19.137C5.6458 19.137 6.35317 18.8641 6.89671 18.3715C7.44026 17.8788 7.7811 17.2015 7.85295 16.4715C7.86042 16.3769 7.86042 16.2819 7.85295 16.1873C7.86205 15.7898 7.79452 15.3943 7.65406 15.0224V15.0224ZM4.9122 17.6364C4.5758 17.6419 4.24838 17.5278 3.98822 17.3145C3.72806 17.1011 3.55206 16.8024 3.49154 16.4715C3.49154 16.372 3.49154 16.2726 3.49154 16.1589C3.49275 15.9249 3.55174 15.6949 3.66327 15.4891C3.7748 15.2834 3.93541 15.1085 4.13084 14.9798C4.38786 14.8103 4.68957 14.7212 4.99744 14.7241C5.30321 14.7199 5.60216 14.8146 5.84983 14.994C6.03416 15.1319 6.1822 15.3127 6.28119 15.5205C6.38019 15.7284 6.42717 15.9573 6.41809 16.1873C6.42556 16.2819 6.42556 16.3769 6.41809 16.4715C6.3558 16.8176 6.16733 17.1283 5.88916 17.3435C5.61098 17.5587 5.26288 17.6631 4.9122 17.6364Z" fill="#E42525"/>
</svg>
