<svg width="25" height="25" viewBox="0 0 25 25" fill="none" xmlns="http://www.w3.org/2000/svg">
<path d="M9.51034 1.41245C11.3828 1.40617 13.1993 2.0505 14.6493 3.23527C16.0993 4.42005 17.0927 6.0717 17.4598 7.90786C17.8268 9.74401 17.5447 11.6506 16.6616 13.3018C15.7784 14.9529 14.3492 16.2461 12.6182 16.9601C10.8872 17.6741 8.96197 17.7647 7.17157 17.2164C5.38118 16.6681 3.83684 15.5149 2.80258 13.954C1.76832 12.393 1.30837 10.5213 1.50136 8.65881C1.69435 6.7963 2.5283 5.05866 3.86063 3.74295C5.36263 2.25114 7.39338 1.41345 9.51034 1.41245V1.41245ZM9.51034 1.86537e-05C7.31634 -0.0043293 5.18859 0.751538 3.48903 2.13904C1.78947 3.52655 0.623085 5.45999 0.188275 7.61048C-0.246536 9.76097 0.0770888 11.9957 1.1041 13.9345C2.1311 15.8733 3.79807 17.3964 5.82141 18.2448C7.84476 19.0931 10.0995 19.2143 12.2022 18.5877C14.3048 17.9612 16.1254 16.6255 17.3544 14.808C18.5833 12.9905 19.1446 10.8033 18.9428 8.61862C18.7411 6.43391 17.7886 4.38658 16.2476 2.82488C15.3669 1.93233 14.318 1.22314 13.1617 0.738282C12.0053 0.253423 10.7643 0.00250361 9.51034 1.86537e-05V1.86537e-05Z" fill="black"/>
<path d="M24.0441 24.9993C23.8578 24.9966 23.6801 24.9205 23.5497 24.7874L15.5695 16.7083C15.4392 16.5739 15.3664 16.3941 15.3664 16.2069C15.3664 16.0197 15.4392 15.8399 15.5695 15.7055C15.6352 15.6393 15.7133 15.5867 15.7993 15.5509C15.8854 15.515 15.9777 15.4966 16.0709 15.4966C16.1642 15.4966 16.2565 15.515 16.3425 15.5509C16.4286 15.5867 16.5067 15.6393 16.5723 15.7055L24.5384 23.7846C24.6687 23.919 24.7416 24.0988 24.7416 24.286C24.7416 24.4732 24.6687 24.653 24.5384 24.7874C24.4049 24.9157 24.2291 24.991 24.0441 24.9993V24.9993Z" fill="black"/>
<path d="M14.4681 13.7286H11.9116C11.7243 13.7286 11.5447 13.6542 11.4122 13.5217C11.2798 13.3893 11.2054 13.2097 11.2054 13.0224V12.5563H7.63196V13.0224C7.63196 13.2097 7.55755 13.3893 7.42511 13.5217C7.29267 13.6542 7.11304 13.7286 6.92574 13.7286H4.36925C4.18195 13.7286 4.00232 13.6542 3.86988 13.5217C3.73744 13.3893 3.66303 13.2097 3.66303 13.0224V10.1269L3.36642 9.88678C3.29857 9.82372 3.24467 9.74716 3.20819 9.66202C3.1717 9.57688 3.15343 9.48505 3.15456 9.39243V8.02238C3.15548 7.87936 3.19896 7.73985 3.27945 7.62162C3.35994 7.5034 3.47381 7.41182 3.60654 7.35854L4.27038 7.06193C4.71281 5.98223 5.39362 5.01654 6.2619 4.23707C7.27473 3.85406 8.36207 3.70908 9.43987 3.81334C10.5039 3.70367 11.5787 3.84892 12.5755 4.23707C13.454 5.01355 14.1446 5.97948 14.5952 7.06193L15.2308 7.30204C15.3636 7.35532 15.4774 7.4469 15.5579 7.56513C15.6384 7.68335 15.6819 7.82286 15.6828 7.96588V9.27944C15.6839 9.37206 15.6657 9.46389 15.6292 9.54903C15.5927 9.63417 15.5388 9.71073 15.4709 9.77379L15.1743 10.0704V12.9659C15.1821 13.0633 15.1697 13.1612 15.1377 13.2535C15.1057 13.3458 15.0549 13.4305 14.9886 13.5022C14.9222 13.5739 14.8417 13.631 14.7521 13.67C14.6625 13.7089 14.5658 13.7289 14.4681 13.7286ZM12.6178 12.3162H13.7619V9.88678C13.766 9.70082 13.842 9.52368 13.9738 9.39243L14.2704 9.09582V8.47435L13.8043 8.30486C13.7135 8.26777 13.6315 8.2122 13.5634 8.14168C13.4953 8.07116 13.4427 7.98724 13.4088 7.89526C13.0441 6.95692 12.4803 6.10881 11.7562 5.40938C10.9975 5.23386 10.2168 5.17198 9.43987 5.22577C8.6528 5.17001 7.86184 5.23671 7.09523 5.42351C6.36679 6.12764 5.79837 6.98027 5.42857 7.92351C5.39469 8.01549 5.34203 8.09941 5.27394 8.16993C5.20585 8.24045 5.12383 8.29602 5.03309 8.33311L4.56699 8.47435V9.03932L4.8636 9.33593C4.9358 9.40759 4.99202 9.49372 5.02853 9.58866C5.06505 9.68361 5.08104 9.78521 5.07546 9.88678V12.3162H6.21953V11.8501C6.21953 11.6628 6.29393 11.4831 6.42637 11.3507C6.55882 11.2182 6.73844 11.1438 6.92574 11.1438H11.9116C12.0989 11.1438 12.2785 11.2182 12.411 11.3507C12.5434 11.4831 12.6178 11.6628 12.6178 11.8501V12.3162Z" fill="#E42525"/>
<path d="M13.9878 6.90625H4.86349V8.31868H13.9878V6.90625Z" fill="#E42525"/>
<path d="M7.32085 10.1561H6.34627C6.15897 10.1561 5.97935 10.0817 5.84691 9.94924C5.71447 9.81679 5.64006 9.63717 5.64006 9.44987C5.64006 9.26257 5.71447 9.08294 5.84691 8.9505C5.97935 8.81806 6.15897 8.74365 6.34627 8.74365H7.32085C7.50815 8.74365 7.68778 8.81806 7.82022 8.9505C7.95266 9.08294 8.02706 9.26257 8.02706 9.44987C8.02706 9.63717 7.95266 9.81679 7.82022 9.94924C7.68778 10.0817 7.50815 10.1561 7.32085 10.1561Z" fill="#E42525"/>
<path d="M12.4202 10.1561H11.4456C11.2583 10.1561 11.0787 10.0817 10.9463 9.94924C10.8138 9.81679 10.7394 9.63717 10.7394 9.44987C10.743 9.2637 10.8186 9.08616 10.9503 8.9545C11.0819 8.82283 11.2595 8.74727 11.4456 8.74365H12.4202C12.6075 8.74365 12.7871 8.81806 12.9196 8.9505C13.052 9.08294 13.1264 9.26257 13.1264 9.44987C13.1264 9.63717 13.052 9.81679 12.9196 9.94924C12.7871 10.0817 12.6075 10.1561 12.4202 10.1561Z" fill="#E42525"/>
</svg>
