<svg width="26" height="26" viewBox="0 0 26 26" fill="none" xmlns="http://www.w3.org/2000/svg">
<path d="M10.5839 1.42686C12.4755 1.42052 14.3106 2.07142 15.7754 3.26829C17.2402 4.46515 18.2437 6.13366 18.6145 7.98855C18.9853 9.84344 18.7003 11.7695 17.8081 13.4375C16.916 15.1055 15.4722 16.4119 13.7236 17.1332C11.9749 17.8545 10.03 17.946 8.22132 17.3921C6.41265 16.8382 4.85255 15.6732 3.80774 14.0963C2.76293 12.5195 2.29828 10.6287 2.49324 8.74716C2.6882 6.86565 3.53066 5.11028 4.87659 3.78115C6.39391 2.27411 8.44539 1.42787 10.5839 1.42686V1.42686ZM10.5839 1.8844e-05C8.36756 -0.00437348 6.21809 0.759207 4.5012 2.16087C2.7843 3.56253 1.60601 5.5157 1.16676 7.68814C0.727511 9.86057 1.05444 12.1181 2.09193 14.0767C3.12941 16.0352 4.81338 17.5739 6.85738 18.4309C8.90137 19.2879 11.1791 19.4104 13.3032 18.7774C15.4273 18.1445 17.2665 16.7952 18.508 14.9591C19.7495 13.123 20.3165 10.9136 20.1127 8.70657C19.9089 6.49957 18.9467 4.43134 17.39 2.8537C16.5003 1.95205 15.4407 1.23562 14.2725 0.745816C13.1043 0.256009 11.8507 0.00252915 10.5839 1.8844e-05V1.8844e-05Z" fill="black"/>
<path d="M25.2664 25.2558C25.0736 25.2553 24.8888 25.1784 24.7527 25.0418L16.7053 16.8803C16.6311 16.8158 16.5711 16.7366 16.5289 16.6478C16.4867 16.559 16.4634 16.4625 16.4603 16.3642C16.4572 16.2659 16.4745 16.1681 16.511 16.0768C16.5475 15.9856 16.6025 15.9028 16.6725 15.8338C16.7425 15.7648 16.826 15.711 16.9178 15.6758C17.0096 15.6406 17.1077 15.6247 17.2059 15.6292C17.3041 15.6336 17.4003 15.6584 17.4885 15.7018C17.5767 15.7452 17.6549 15.8064 17.7184 15.8815L25.7658 24.043C25.8326 24.1093 25.8857 24.1882 25.9219 24.2752C25.9581 24.3621 25.9768 24.4553 25.9768 24.5495C25.9768 24.6437 25.9581 24.737 25.9219 24.8239C25.8857 24.9108 25.8326 24.9897 25.7658 25.0561C25.6287 25.1805 25.4514 25.2514 25.2664 25.2558V25.2558Z" fill="black"/>
<path d="M10.5122 14.7828C10.323 14.7828 10.1416 14.7076 10.0078 14.5739C9.87399 14.4401 9.79883 14.2586 9.79883 14.0694V5.50834C9.79883 5.31913 9.87399 5.13767 10.0078 5.00388C10.1416 4.87009 10.323 4.79492 10.5122 4.79492C10.7015 4.79492 10.8829 4.87009 11.0167 5.00388C11.1505 5.13767 11.2257 5.31913 11.2257 5.50834V14.0694C11.222 14.2575 11.1457 14.4368 11.0127 14.5698C10.8797 14.7028 10.7003 14.7792 10.5122 14.7828Z" fill="#E42525"/>
<path d="M14.7642 10.5162H6.20317C6.01396 10.5162 5.83249 10.441 5.6987 10.3072C5.56491 10.1734 5.48975 9.99199 5.48975 9.80278C5.4934 9.61471 5.56974 9.43536 5.70274 9.30235C5.83575 9.16934 6.0151 9.09301 6.20317 9.08936H14.7642C14.9534 9.08936 15.1349 9.16452 15.2687 9.29831C15.4025 9.4321 15.4776 9.61356 15.4776 9.80278C15.4776 9.99199 15.4025 10.1734 15.2687 10.3072C15.1349 10.441 14.9534 10.5162 14.7642 10.5162Z" fill="#E42525"/>
</svg>
