<svg width="25" height="25" viewBox="0 0 25 25" fill="none" xmlns="http://www.w3.org/2000/svg">
<path d="M12.5 1.42045C14.6907 1.41765 16.8331 2.06436 18.6564 3.27883C20.4796 4.49331 21.9019 6.22104 22.7435 8.24366C23.5851 10.2663 23.8082 12.493 23.3846 14.6424C22.961 16.7917 21.9097 18.7673 20.3636 20.3193C18.8175 21.8714 16.846 22.9303 14.6983 23.3621C12.5506 23.794 10.323 23.5794 8.29719 22.7456C6.27135 21.9118 4.53817 20.4962 3.31669 18.6776C2.09522 16.859 1.44028 14.7191 1.43466 12.5284C1.43089 9.58862 2.59413 6.76753 4.66888 4.68479C6.74363 2.60205 9.56022 1.42798 12.5 1.42045V1.42045ZM12.5 0C10.0277 0 7.61099 0.733112 5.55538 2.10663C3.49976 3.48015 1.89761 5.43238 0.951511 7.71646C0.00541606 10.0005 -0.242126 12.5139 0.24019 14.9386C0.722505 17.3634 1.91301 19.5907 3.66117 21.3388C5.40933 23.087 7.63661 24.2775 10.0614 24.7598C12.4861 25.2421 14.9995 24.9946 17.2835 24.0485C19.5676 23.1024 21.5199 21.5002 22.8934 19.4446C24.2669 17.389 25 14.9723 25 12.5C25 10.8585 24.6767 9.23303 24.0485 7.71646C23.4203 6.19989 22.4996 4.8219 21.3388 3.66116C20.1781 2.50043 18.8001 1.57969 17.2835 0.951506C15.767 0.323322 14.1415 0 12.5 0V0Z" fill="black"/>
<path d="M10.5398 7.24467C11.3191 7.24412 12.0745 7.51396 12.6771 8.00817C13.2796 8.50237 13.6921 9.19033 13.844 9.95468C13.996 10.719 13.8781 11.5124 13.5104 12.1995C13.1427 12.8867 12.548 13.4249 11.8277 13.7225C11.1075 14.0201 10.3063 14.0586 9.56081 13.8314C8.81534 13.6042 8.17179 13.1254 7.73992 12.4767C7.30805 11.828 7.11461 11.0496 7.19262 10.2742C7.27062 9.49879 7.61522 8.77447 8.16765 8.22479C8.79878 7.59895 9.65099 7.24684 10.5398 7.24467V7.24467ZM10.5398 5.82422C9.43369 5.82559 8.36219 6.20997 7.50743 6.91203C6.65268 7.61408 6.06743 8.59049 5.85118 9.67525C5.63492 10.76 5.801 11.8862 6.32119 12.8624C6.84138 13.8385 7.68357 14.6044 8.7046 15.0299C9.72563 15.4553 10.8625 15.514 11.9219 15.196C12.9813 14.878 13.8979 14.2029 14.5159 13.2856C15.1339 12.3682 15.4151 11.2651 15.3117 10.1638C15.2083 9.06254 14.7268 8.03104 13.9489 7.24467C13.5021 6.79522 12.971 6.43838 12.3859 6.19463C11.8009 5.95087 11.1736 5.825 10.5398 5.82422Z" fill="#E42525"/>
<path d="M17.9117 18.7924C17.7198 18.7919 17.5359 18.7153 17.4004 18.5793L13.3805 14.5026C13.3066 14.4384 13.2468 14.3596 13.2049 14.2712C13.1629 14.1828 13.1396 14.0867 13.1366 13.9888C13.1335 13.891 13.1507 13.7936 13.187 13.7028C13.2234 13.6119 13.2781 13.5295 13.3478 13.4608C13.4175 13.3921 13.5007 13.3385 13.592 13.3035C13.6834 13.2684 13.781 13.2526 13.8788 13.2571C13.9766 13.2615 14.0723 13.2862 14.1601 13.3294C14.2479 13.3726 14.3259 13.4335 14.389 13.5083L18.4799 17.585C18.5465 17.651 18.5993 17.7295 18.6354 17.8161C18.6714 17.9026 18.69 17.9955 18.69 18.0892C18.69 18.183 18.6714 18.2758 18.6354 18.3624C18.5993 18.4489 18.5465 18.5275 18.4799 18.5935C18.4045 18.6647 18.3149 18.7192 18.217 18.7534C18.1191 18.7877 18.0151 18.801 17.9117 18.7924V18.7924Z" fill="#E42525"/>
</svg>
