<svg width="25" height="12" viewBox="0 0 25 12" fill="none" xmlns="http://www.w3.org/2000/svg">
<path d="M23.9419 0H8.86251C8.58186 0 8.3127 0.111489 8.11425 0.30994C7.9158 0.508391 7.80431 0.777549 7.80431 1.0582V10.7937C7.79839 10.8287 7.79839 10.8644 7.80431 10.8995C7.78463 10.9821 7.78463 11.0682 7.80431 11.1508C7.88829 11.3577 8.03635 11.5323 8.22678 11.649C8.41722 11.7656 8.64002 11.8182 8.86251 11.7989H23.9419C24.2225 11.7989 24.4917 11.6875 24.6901 11.489C24.8886 11.2906 25.0001 11.0214 25.0001 10.7407V1.0582C25.0001 0.777549 24.8886 0.508391 24.6901 0.30994C24.4917 0.111489 24.2225 0 23.9419 0ZM23.6773 9.25926L19.7091 4.80159L23.6773 1.8254V9.25926ZM15.8202 6.94444C15.9332 7.03305 16.0734 7.07979 16.217 7.07672H16.4683C16.6159 7.07964 16.7603 7.03307 16.8784 6.94444L18.6641 5.62169L22.9895 10.4762H9.76198L14.0212 5.66138L15.8202 6.94444ZM22.2091 1.26984L16.3493 5.74074L10.4763 1.32275L22.2091 1.26984ZM12.9498 4.80159L9.12706 9.15344V1.95767L12.9498 4.80159Z" fill="black"/>
<path d="M6.62698 3.06933H0.661376C0.485968 3.06933 0.317744 2.99965 0.193712 2.87562C0.0696805 2.75159 0 2.58337 0 2.40796C0 2.23255 0.0696805 2.06433 0.193712 1.94029C0.317744 1.81626 0.485968 1.74658 0.661376 1.74658H6.62698C6.80239 1.74658 6.97062 1.81626 7.09465 1.94029C7.21868 2.06433 7.28836 2.23255 7.28836 2.40796C7.28836 2.58337 7.21868 2.75159 7.09465 2.87562C6.97062 2.99965 6.80239 3.06933 6.62698 3.06933Z" fill="#E42525"/>
<path d="M6.6271 6.30908H2.11651C1.94111 6.30908 1.77288 6.2394 1.64885 6.11537C1.52482 5.99133 1.45514 5.82311 1.45514 5.6477C1.45514 5.4723 1.52482 5.30407 1.64885 5.18004C1.77288 5.05601 1.94111 4.98633 2.11651 4.98633H6.6271C6.8025 4.98633 6.97073 5.05601 7.09476 5.18004C7.21879 5.30407 7.28847 5.4723 7.28847 5.6477C7.28847 5.82311 7.21879 5.99133 7.09476 6.11537C6.97073 6.2394 6.8025 6.30908 6.6271 6.30908Z" fill="#E42525"/>
<path d="M6.62701 9.5498H3.98151C3.8061 9.5498 3.63787 9.48012 3.51384 9.35609C3.38981 9.23206 3.32013 9.06383 3.32013 8.88843C3.32013 8.71302 3.38981 8.54479 3.51384 8.42076C3.63787 8.29673 3.8061 8.22705 3.98151 8.22705H6.62701C6.80242 8.22705 6.97064 8.29673 7.09467 8.42076C7.2187 8.54479 7.28838 8.71302 7.28838 8.88843C7.28838 9.06383 7.2187 9.23206 7.09467 9.35609C6.97064 9.48012 6.80242 9.5498 6.62701 9.5498Z" fill="#E42525"/>
</svg>
