<svg width="21" height="25" viewBox="0 0 21 25" fill="none" xmlns="http://www.w3.org/2000/svg">
<path d="M19.5313 0H4.26136C3.13118 0 2.04729 0.448964 1.24812 1.24812C0.448964 2.04729 0 3.13118 0 4.26136V20.7386C0 21.8688 0.448964 22.9527 1.24812 23.7519C2.04729 24.551 3.13118 25 4.26136 25H19.5313C19.795 25 20.0479 24.8952 20.2343 24.7088C20.4208 24.5223 20.5256 24.2694 20.5256 24.0057V0.994318C20.5256 0.730609 20.4208 0.4777 20.2343 0.291229C20.0479 0.104758 19.795 0 19.5313 0V0ZM4.26136 1.42045H19.1193V17.8977H4.27557C3.23541 17.8643 2.22091 18.2244 1.43466 18.9063V4.26136C1.43465 3.51036 1.73201 2.78991 2.26171 2.25754C2.79142 1.72518 3.51037 1.42421 4.26136 1.42045V1.42045ZM4.26136 23.5795C3.69807 23.5796 3.1475 23.4121 2.67959 23.0985C2.21168 22.7849 1.84757 22.3392 1.63352 21.8182C1.63352 21.8182 1.63352 21.8182 1.63352 21.733C1.61823 21.3932 1.67754 21.0541 1.80728 20.7397C1.93701 20.4253 2.13403 20.1431 2.38448 19.9129C2.63494 19.6828 2.93275 19.5103 3.257 19.4075C3.58125 19.3048 3.92407 19.2743 4.26136 19.3182H19.1193V23.5795H4.26136Z" fill="black"/>
<path d="M10.3266 4.92938H10.9942V5.15665V6.00892L11.7613 6.36404C12.0474 6.50733 12.3186 6.67862 12.5709 6.8754C12.7602 7.04102 12.936 7.22152 13.0965 7.41517L13.6079 8.04017L14.4033 7.91233H14.588L14.8579 8.52313L14.0766 8.84983V9.80154C14.0842 10.2846 14.0073 10.7654 13.8494 11.222L13.5511 12.0459L14.1476 12.6709L14.3465 12.8839L13.9204 13.3953L13.6789 13.2532L12.8976 12.7845L12.1448 13.239C11.6722 13.5253 11.1447 13.7092 10.5965 13.7788L9.58799 13.9209L9.41753 14.7447H8.76412V14.4322V13.6794L8.12492 13.2959L7.68458 12.9834C7.41137 12.7543 7.16799 12.4918 6.96015 12.2021L6.46299 11.4777L5.58231 11.6055H5.34083L5.17037 10.9663L5.41185 10.8669L6.1931 10.5118V9.64529C6.21474 9.29131 6.28647 8.94218 6.40617 8.60835L6.70447 7.78449L6.1789 7.10267L5.98003 6.8896L6.33515 6.42085L6.57663 6.5771L7.38628 7.10267L8.12492 6.64813C8.45252 6.43435 8.80566 6.26255 9.17606 6.13676L10.0709 5.9379L10.2414 5.04301V4.92938H10.3266ZM9.75844 3.50892C9.57136 3.51133 9.39067 3.57734 9.2461 3.6961C9.10153 3.81485 9.00168 3.97928 8.96299 4.16233L8.82094 4.80154C8.29016 4.93202 7.78242 5.14278 7.31526 5.42654L6.61924 4.9862C6.53683 4.91104 6.44024 4.85309 6.33515 4.81574C6.21522 4.81513 6.09671 4.84165 5.98848 4.8933C5.88025 4.94496 5.7851 5.02042 5.71015 5.11404L4.6164 6.44926C4.48363 6.59771 4.41022 6.78988 4.41022 6.98904C4.41022 7.18819 4.48363 7.38037 4.6164 7.52881L5.18458 8.1254C5.01478 8.58133 4.91424 9.06013 4.88628 9.54585L4.14765 9.85835C4.02667 9.90778 3.91945 9.98576 3.83515 10.0856C3.75212 10.1874 3.69461 10.3075 3.66743 10.436C3.64025 10.5645 3.64418 10.6976 3.6789 10.8243L4.14765 12.4862C4.19219 12.6588 4.29342 12.8114 4.43509 12.9196C4.57676 13.0278 4.75066 13.0853 4.9289 13.0828H5.05674L5.82378 12.9691C6.10595 13.3672 6.44039 13.7256 6.8181 14.0345C7.00513 14.1924 7.20465 14.3349 7.41469 14.4606V15.2987C7.42429 15.498 7.5059 15.6871 7.64436 15.8307C7.78282 15.9744 7.96872 16.063 8.16753 16.0799L9.88628 16.2078H9.95731C10.1444 16.2054 10.3251 16.1394 10.4696 16.0206C10.6142 15.9019 10.7141 15.7374 10.7528 15.5544L10.8238 15.1993C11.5529 15.1022 12.2541 14.8556 12.8834 14.4748L13.5795 14.9152C13.7061 14.9982 13.8542 15.0426 14.0056 15.043C14.1277 15.0447 14.2487 15.0188 14.3594 14.9671C14.4701 14.9155 14.5677 14.8394 14.6448 14.7447L15.7386 13.4095C15.8685 13.2597 15.94 13.068 15.94 12.8697C15.94 12.6714 15.8685 12.4798 15.7386 12.3299L15.1846 11.7334C15.3949 11.1258 15.5005 10.487 15.4971 9.84415L15.8806 9.67369C16.0079 9.62861 16.1208 9.55011 16.2073 9.44642C16.2761 9.33744 16.3184 9.21384 16.3307 9.08555C16.343 8.95727 16.3251 8.82788 16.2783 8.70779L15.8522 7.10267C15.8027 6.93016 15.6982 6.77853 15.5546 6.67085C15.411 6.56316 15.2362 6.50531 15.0567 6.50608H14.9431L14.2471 6.60551C14.0224 6.343 13.7753 6.10061 13.5084 5.88108C13.1727 5.60664 12.8055 5.373 12.4147 5.18506V4.43222C12.4081 4.23191 12.3275 4.04116 12.1885 3.89684C12.0494 3.75253 11.8618 3.66492 11.6619 3.65097L9.90049 3.46631L9.75844 3.50892Z" fill="#E42525"/>
<path d="M10.0852 8.83505C10.3012 8.83045 10.5139 8.88828 10.6978 9.0016C10.8817 9.11493 11.029 9.27892 11.122 9.4739C11.215 9.66888 11.2497 9.88655 11.222 10.1008C11.1943 10.315 11.1054 10.5167 10.9659 10.6816C10.8568 10.809 10.7218 10.9116 10.57 10.9826C10.4181 11.0537 10.2528 11.0915 10.0852 11.0936C9.82561 11.0953 9.57387 11.0047 9.37497 10.8379C9.25867 10.7439 9.16232 10.6277 9.09158 10.4959C9.02084 10.3642 8.97714 10.2197 8.96304 10.0708C8.94088 9.92625 8.94834 9.77866 8.98497 9.63704C9.0216 9.49541 9.08662 9.36271 9.17611 9.24698C9.2811 9.11854 9.41327 9.01498 9.5631 8.94375C9.71293 8.87252 9.87669 8.8354 10.0426 8.83505H10.0852ZM10.0426 7.4146C9.44019 7.41338 8.8567 7.6249 8.39502 8.01185C7.93334 8.39881 7.62311 8.93635 7.51904 9.52969C7.41497 10.123 7.52374 10.7341 7.82617 11.255C8.1286 11.776 8.60527 12.1735 9.17212 12.3774C9.73897 12.5812 10.3596 12.5784 10.9246 12.3694C11.4895 12.1604 11.9626 11.7586 12.2603 11.2349C12.5579 10.7112 12.6611 10.0992 12.5517 9.50678C12.4422 8.91442 12.1271 8.37972 11.6619 7.99698C11.2081 7.61734 10.6343 7.41098 10.0426 7.4146Z" fill="#E42525"/>
</svg>
