<svg width="23" height="25" viewBox="0 0 23 25" fill="none" xmlns="http://www.w3.org/2000/svg">
<path d="M20.203 9.10643H16.2493C16.0746 9.10643 15.907 9.17585 15.7834 9.29942C15.6598 9.423 15.5904 9.5906 15.5904 9.76536C15.5904 9.94012 15.6598 10.1077 15.7834 10.2313C15.907 10.3549 16.0746 10.4243 16.2493 10.4243H20.203C20.5874 10.4243 20.9562 10.577 21.228 10.8489C21.4999 11.1208 21.6526 11.4895 21.6526 11.874V13.8639H14.088C13.9133 13.8639 13.7457 13.9334 13.6221 14.0569C13.4985 14.1805 13.4291 14.3481 13.4291 14.5229C13.4291 14.6976 13.4985 14.8652 13.6221 14.9888C13.7457 15.1124 13.9133 15.1818 14.088 15.1818H21.6526V18.1338H16.0648L13.6663 15.2741C13.6149 15.1967 13.5478 15.1312 13.4693 15.0816C13.3908 15.032 13.3028 14.9996 13.2109 14.9865C13.119 14.9733 13.0254 14.9797 12.9361 15.0053C12.8469 15.0308 12.7641 15.0749 12.6931 15.1347C12.6221 15.1945 12.5645 15.2686 12.5241 15.3522C12.4838 15.4358 12.4615 15.527 12.4588 15.6198C12.4562 15.7126 12.4731 15.8049 12.5086 15.8906C12.5441 15.9764 12.5973 16.0537 12.6647 16.1175L19.03 23.7348H12.2035L7.90722 18.5819L10.398 16.7501C10.4672 16.6982 10.5255 16.6331 10.5696 16.5586C10.6137 16.4842 10.6427 16.4018 10.6549 16.3161C10.6672 16.2305 10.6624 16.1432 10.641 16.0594C10.6195 15.9756 10.5817 15.8968 10.5298 15.8276C10.4779 15.7583 10.4128 15.7 10.3384 15.6559C10.2639 15.6118 10.1815 15.5829 10.0958 15.5706C10.0102 15.5584 9.92293 15.5631 9.8391 15.5846C9.75528 15.6061 9.6765 15.6439 9.60727 15.6958L7.06378 17.554L1.63416 10.9646C1.76219 10.7827 1.93184 10.6339 2.12898 10.5308C2.32611 10.4276 2.54504 10.373 2.76753 10.3716H6.57617C6.75093 10.3716 6.91854 10.3022 7.04211 10.1786C7.16568 10.055 7.23511 9.88741 7.23511 9.71265C7.23511 9.53789 7.16568 9.37028 7.04211 9.24671C6.91854 9.12313 6.75093 9.05371 6.57617 9.05371H2.76753C2.03353 9.05371 1.3296 9.34529 0.81059 9.8643C0.291578 10.3833 0 11.0872 0 11.8212V22.2324C0 22.9664 0.291578 23.6703 0.81059 24.1894C1.3296 24.7084 2.03353 24.9999 2.76753 24.9999H20.203C20.9359 24.9965 21.6378 24.7038 22.1561 24.1855C22.6743 23.6673 22.967 22.9653 22.9705 22.2324V11.874C22.967 11.141 22.6743 10.4391 22.1561 9.92085C21.6378 9.40258 20.9359 9.10989 20.203 9.10643V9.10643ZM1.31787 22.2851V12.691L10.543 23.7348H2.76753C2.57716 23.7348 2.38865 23.6973 2.21277 23.6244C2.03689 23.5516 1.87708 23.4448 1.74247 23.3102C1.60785 23.1756 1.50107 23.0158 1.42822 22.8399C1.35537 22.664 1.31787 22.4755 1.31787 22.2851ZM20.6642 23.603L17.1587 19.4122H21.6526V22.2851C21.6511 22.5865 21.5548 22.8797 21.3774 23.1233C21.2 23.3669 20.9505 23.5485 20.6642 23.6425V23.603Z" fill="black"/>
<path d="M11.4787 1.31787H11.716C12.9541 1.40441 14.122 1.92505 15.014 2.78809C15.9059 3.65114 16.4648 4.80124 16.5921 6.03585C16.6472 6.8646 16.4931 7.69391 16.144 8.44755V8.5398L11.4656 17.0796C9.81823 14.1144 7.34064 9.51502 6.8662 8.61887L6.80031 8.47391C6.54591 7.81917 6.42494 7.12018 6.44449 6.41803C6.44437 5.07672 6.97266 3.78936 7.91492 2.83477C8.85718 1.88018 10.1376 1.3352 11.4787 1.31787V1.31787ZM11.4787 0C9.78694 0.0139211 8.16937 0.696665 6.97923 1.89915C5.78909 3.10163 5.12308 4.72617 5.12662 6.41803C5.11937 7.3235 5.29881 8.22074 5.65376 9.05377V9.05377C5.6933 9.26463 8.68487 14.747 10.3981 17.8044C10.5056 18.0025 10.6646 18.1679 10.8582 18.2832C11.0519 18.3985 11.2731 18.4593 11.4985 18.4593C11.7239 18.4593 11.9451 18.3985 12.1388 18.2832C12.3325 18.1679 12.4914 18.0025 12.5989 17.8044C13.5083 16.1571 17.3433 9.08013 17.3696 9.02741C17.8076 8.06614 17.9979 7.01048 17.9231 5.95677C17.7955 4.37676 17.0935 2.89824 15.9498 1.80067C14.8061 0.703092 13.2999 0.0625119 11.716 0H11.4787Z" fill="#E42525"/>
<path d="M10.6219 10.1612V7.67039H11.9398C12.3522 7.67039 12.7478 7.50655 13.0394 7.21492C13.3311 6.92328 13.4949 6.52774 13.4949 6.11531C13.4949 5.70287 13.3311 5.30733 13.0394 5.01569C12.7478 4.72406 12.3522 4.56022 11.9398 4.56022H11.0173C10.8131 4.56022 10.6109 4.60044 10.4222 4.67859C10.2335 4.75674 10.0621 4.87129 9.91769 5.01569C9.77329 5.1601 9.65874 5.33153 9.58059 5.5202C9.50244 5.70887 9.46222 5.91109 9.46222 6.11531H8.14435C8.14416 5.34716 8.44472 4.60946 8.98169 4.06018C9.51866 3.51089 10.2494 3.19368 11.0173 3.17645H11.9398C12.7192 3.16772 13.4702 3.46896 14.0275 4.01393C14.5849 4.55889 14.9029 5.30293 14.9116 6.08236C14.9204 6.86179 14.6191 7.61277 14.0741 8.17009C13.5292 8.72741 12.7851 9.04542 12.0057 9.05416V10.1612H10.6219Z" fill="#E42525"/>
<path d="M11.3203 13.3367C11.8298 13.3367 12.2428 12.9237 12.2428 12.4142C12.2428 11.9047 11.8298 11.4917 11.3203 11.4917C10.8108 11.4917 10.3978 11.9047 10.3978 12.4142C10.3978 12.9237 10.8108 13.3367 11.3203 13.3367Z" fill="#E42525"/>
</svg>
