<svg width="22" height="15" viewBox="0 0 22 15" fill="none" xmlns="http://www.w3.org/2000/svg">
<path d="M21.1433 1.7134H0.856698C0.630861 1.70901 0.415496 1.61734 0.255775 1.45762C0.0960536 1.2979 0.00438642 1.08253 0 0.856698C0 0.629487 0.0902591 0.411583 0.250921 0.250921C0.411583 0.0902591 0.629487 0 0.856698 0H21.1433C21.3705 0 21.5884 0.0902591 21.7491 0.250921C21.9097 0.411583 22 0.629487 22 0.856698C22 1.08391 21.9097 1.30181 21.7491 1.46247C21.5884 1.62314 21.3705 1.7134 21.1433 1.7134Z" fill="black"/>
<path d="M21.1433 8.22414H0.856698C0.630861 8.21975 0.415496 8.12808 0.255775 7.96836C0.0960536 7.80864 0.00438642 7.59328 0 7.36744C0 7.14023 0.0902591 6.92232 0.250921 6.76166C0.411583 6.601 0.629487 6.51074 0.856698 6.51074H21.1433C21.3705 6.51074 21.5884 6.601 21.7491 6.76166C21.9097 6.92232 22 7.14023 22 7.36744C22 7.59465 21.9097 7.81255 21.7491 7.97322C21.5884 8.13388 21.3705 8.22414 21.1433 8.22414Z" fill="#E42525"/>
<path d="M21.1433 14.7359H0.856698C0.630861 14.7315 0.415496 14.6398 0.255775 14.4801C0.0960536 14.3204 0.00438642 14.105 0 13.8792C0 13.6519 0.0902591 13.434 0.250921 13.2734C0.411583 13.1127 0.629487 13.0225 0.856698 13.0225H21.1433C21.3705 13.0225 21.5884 13.1127 21.7491 13.2734C21.9097 13.434 22 13.6519 22 13.8792C22 14.1064 21.9097 14.3243 21.7491 14.4849C21.5884 14.6456 21.3705 14.7359 21.1433 14.7359Z" fill="black"/>
</svg>
