<svg width="16" height="28" viewBox="0 0 16 28" fill="none" xmlns="http://www.w3.org/2000/svg">
<path d="M9.72455 3.76368H5.87079C5.67117 3.76368 5.47972 3.68438 5.33856 3.54322C5.1974 3.40206 5.1181 3.21061 5.1181 3.01099C5.1181 2.81136 5.1974 2.61991 5.33856 2.47876C5.47972 2.3376 5.67117 2.2583 5.87079 2.2583H9.72455C9.92418 2.2583 10.1156 2.3376 10.2568 2.47876C10.3979 2.61991 10.4772 2.81136 10.4772 3.01099C10.4772 3.21061 10.3979 3.40206 10.2568 3.54322C10.1156 3.68438 9.92418 3.76368 9.72455 3.76368Z" fill="black"/>
<path d="M14.1505 1.50538V26.4946H1.50538V1.50538H14.1505V1.50538ZM14.4516 0H1.2043C0.884901 0 0.578582 0.126881 0.352731 0.352732C0.126881 0.578582 0 0.8849 0 1.2043V26.7957C0 27.1151 0.126881 27.4214 0.352731 27.6473C0.578582 27.8731 0.884901 28 1.2043 28H14.4516C14.771 28 15.0773 27.8731 15.3032 27.6473C15.529 27.4214 15.6559 27.1151 15.6559 26.7957V1.2043C15.6559 0.8849 15.529 0.578582 15.3032 0.352732C15.0773 0.126881 14.771 0 14.4516 0Z" fill="black"/>
<path d="M7.82775 25.6518C8.31827 25.6518 8.71592 25.2542 8.71592 24.7637C8.71592 24.2731 8.31827 23.8755 7.82775 23.8755C7.33722 23.8755 6.93958 24.2731 6.93958 24.7637C6.93958 25.2542 7.33722 25.6518 7.82775 25.6518Z" fill="black"/>
<path d="M4.54627 16.8452C4.38829 16.8452 4.23432 16.7955 4.10616 16.7031C3.97801 16.6107 3.88216 16.4804 3.8322 16.3305C3.78225 16.1807 3.78071 16.0189 3.82782 15.8681C3.87492 15.7173 3.96827 15.5851 4.09465 15.4904L10.8688 10.5226C11.0285 10.4028 11.2293 10.3514 11.4269 10.3796C11.6245 10.4079 11.8028 10.5134 11.9226 10.6731C12.037 10.836 12.0836 11.0369 12.0527 11.2335C12.0218 11.4301 11.9158 11.607 11.757 11.7269L4.99788 16.6947C4.86812 16.7934 4.7093 16.8463 4.54627 16.8452V16.8452Z" fill="#E42525"/>
<path d="M3.80883 13.3377C3.69046 13.3372 3.57396 13.3082 3.46915 13.2532C3.36435 13.1981 3.27432 13.1187 3.20668 13.0216C3.14816 12.9416 3.10601 12.8508 3.08266 12.7545C3.0593 12.6582 3.0552 12.5582 3.07059 12.4603C3.08597 12.3624 3.12054 12.2685 3.17232 12.184C3.22409 12.0994 3.29204 12.026 3.37227 11.9678L7.03034 9.28824C7.19004 9.16846 7.39078 9.11703 7.5884 9.14526C7.78602 9.17349 7.96433 9.27907 8.0841 9.43877C8.19844 9.60163 8.24509 9.80253 8.2142 9.99911C8.1833 10.1957 8.07729 10.3726 7.91851 10.4925L4.26044 13.1872C4.12712 13.2789 3.97055 13.3311 3.80883 13.3377Z" fill="#E42525"/>
<path d="M8.2193 18.4558C8.10266 18.4546 7.9878 18.4269 7.88347 18.3748C7.77913 18.3226 7.68805 18.2473 7.61715 18.1547C7.55785 18.0756 7.51469 17.9856 7.49016 17.8899C7.46563 17.7941 7.4602 17.6945 7.47418 17.5966C7.48816 17.4988 7.52127 17.4046 7.57163 17.3196C7.62199 17.2345 7.68861 17.1602 7.76769 17.1009L11.4408 14.4063C11.6025 14.2885 11.8044 14.2398 12.002 14.2709C12.1996 14.3019 12.3768 14.4102 12.4946 14.5719C12.6124 14.7336 12.6611 14.9355 12.63 15.1331C12.599 15.3307 12.4907 15.5079 12.329 15.6257L8.67092 18.3203C8.53669 18.4083 8.37979 18.4553 8.2193 18.4558V18.4558Z" fill="#E42525"/>
</svg>
