<svg width="25" height="25" viewBox="0 0 25 25" fill="none" xmlns="http://www.w3.org/2000/svg">
<path d="M12.5142 1.41885C14.7088 1.40761 16.8574 2.0483 18.6874 3.25969C20.5175 4.47108 21.9466 6.19861 22.7936 8.22324C23.6406 10.2479 23.8673 12.4784 23.445 14.6321C23.0227 16.7857 21.9704 18.7655 20.4216 20.3203C18.8727 21.8752 16.897 22.9351 14.745 23.3656C12.593 23.7962 10.3616 23.5781 8.33373 22.7389C6.30585 21.8997 4.57283 20.4773 3.3544 18.6519C2.13597 16.8265 1.487 14.6805 1.48978 12.4858C1.49349 9.55918 2.65483 6.75284 4.72029 4.67941C6.78574 2.60598 9.58758 1.43384 12.5142 1.41885V1.41885ZM12.5142 8.04702e-06C10.0407 -0.00279794 7.62201 0.728287 5.56422 2.10072C3.50644 3.47316 1.90208 5.42525 0.954226 7.70991C0.00637291 9.99456 -0.242364 12.5091 0.239499 14.9351C0.721361 17.3612 1.91216 19.5898 3.66117 21.3388C5.41018 23.0878 7.63877 24.2786 10.0649 24.7605C12.4909 25.2424 15.0054 24.9936 17.2901 24.0458C19.5747 23.0979 21.5268 21.4936 22.8993 19.4358C24.2717 17.378 25.0028 14.9593 25 12.4858C25 10.8462 24.677 9.22255 24.0496 7.70771C23.4221 6.19286 22.5024 4.81643 21.343 3.65702C20.1836 2.4976 18.8071 1.5779 17.2923 0.950434C15.7774 0.322963 14.1538 8.04702e-06 12.5142 8.04702e-06V8.04702e-06Z" fill="black"/>
<path d="M16.7285 14.813C16.7735 15.6281 16.5204 16.4316 16.0166 17.0738C15.5127 17.716 14.7925 18.1531 13.9902 18.3034H13.7773L13.4368 18.4311V18.6439C13.4368 18.8425 13.4368 19.0554 13.4368 19.254C13.4368 20.2472 13.3091 20.5877 12.5997 20.5877C12.4908 20.6016 12.3801 20.5924 12.275 20.5606C12.1698 20.5288 12.0726 20.4752 11.9896 20.4033C11.7768 20.1904 11.791 19.779 11.791 19.4384C11.7986 19.3203 11.7986 19.2018 11.791 19.0837V18.5588C11.4504 18.3034 11.5072 18.5588 10.7126 18.1047C10.0591 17.7154 9.46234 17.238 8.93909 16.6859C8.85618 16.6169 8.79009 16.53 8.74583 16.4316C8.70158 16.3333 8.68033 16.2261 8.6837 16.1183C8.70748 15.9238 8.79769 15.7433 8.93909 15.6076C9.07409 15.4908 9.2434 15.4211 9.42149 15.4089C9.57126 15.4232 9.71611 15.47 9.84598 15.5459C9.97584 15.6219 10.0876 15.7252 10.1735 15.8488C10.7233 16.3182 11.3943 16.6231 12.1096 16.7285C12.8248 16.8339 13.5553 16.7356 14.2172 16.4447C14.4636 16.2357 14.6565 15.9709 14.7799 15.6722C14.9033 15.3736 14.9536 15.0499 14.9266 14.7279C14.815 14.4305 14.6388 14.1617 14.4106 13.9409C14.1824 13.72 13.9079 13.5527 13.6071 13.4509C13.1817 13.3377 12.7382 13.3088 12.3017 13.3658H11.7768C10.9505 13.4066 10.1386 13.1387 9.4988 12.6143C8.859 12.0898 8.437 11.3463 8.3148 10.5281C8.19556 9.70223 8.39443 8.86189 8.87118 8.17705C9.34793 7.49221 10.067 7.01399 10.8829 6.83912L11.2376 6.72561L11.6775 6.56954V6.00201C11.6775 5.77499 11.6775 5.54798 11.6775 5.32096C11.6775 4.56898 12.1599 4.46966 12.472 4.46966C12.5875 4.45625 12.7046 4.46835 12.8149 4.50513C12.9252 4.5419 13.0261 4.60245 13.1105 4.68248C13.167 4.74582 13.2099 4.82001 13.2368 4.90051C13.2636 4.98102 13.2737 5.06615 13.2666 5.1507C13.2666 6.92425 13.1672 6.28577 14.6854 7.13708C15.3199 7.40271 15.8521 7.86532 16.2036 8.4566C16.2718 8.5362 16.3233 8.62874 16.355 8.72869C16.3867 8.82864 16.3979 8.93394 16.388 9.03833C16.3471 9.26224 16.2197 9.46105 16.0333 9.59168C15.9475 9.66436 15.8472 9.718 15.7391 9.74903C15.6309 9.78006 15.5175 9.78779 15.4061 9.77169C15.2948 9.7556 15.1882 9.71605 15.0933 9.65567C14.9984 9.59528 14.9174 9.51544 14.8557 9.42141C14.3463 8.92503 13.7105 8.57788 13.0175 8.41777C12.3246 8.25767 11.601 8.29073 10.9255 8.51336C10.6366 8.68503 10.3988 8.93073 10.2367 9.22507C10.0745 9.5194 9.99395 9.85168 10.0032 10.1876C10.0913 10.5091 10.2542 10.8053 10.4786 11.0519C10.703 11.2985 10.9825 11.4885 11.2944 11.6064C11.7564 11.7306 12.2364 11.7738 12.7132 11.7341C12.9542 11.7199 13.1958 11.7199 13.4368 11.7341C14.2674 11.755 15.0614 12.08 15.6682 12.6475C16.275 13.2151 16.6523 13.9857 16.7285 14.813V14.813Z" fill="#E42525"/>
</svg>
