<svg width="13" height="25" viewBox="0 0 13 25" fill="none" xmlns="http://www.w3.org/2000/svg">
<path d="M6.14955 7.08545V13.7699L0.989124 15.2405V14.4384C0.989124 13.4892 0.989124 12.5133 0.989124 11.5641C0.945433 10.9095 1.0803 10.2553 1.37932 9.67139C1.67835 9.08746 2.13032 8.59569 2.68698 8.24855C3.69866 7.52286 4.90493 7.11767 6.14955 7.08545V7.08545Z" fill="#E42525"/>
<path d="M6.41686 14.7059C6.23958 14.7059 6.06956 14.6355 5.9442 14.5101C5.81884 14.3847 5.74841 14.2147 5.74841 14.0374V3.98396C5.75532 3.81135 5.82879 3.64812 5.95341 3.52848C6.07802 3.40885 6.24412 3.34211 6.41686 3.34225H8.56927V0.668449C8.57269 0.492237 8.64422 0.324196 8.76884 0.199571C8.89347 0.074947 9.06151 0.00342256 9.23772 0C9.415 0 9.58502 0.0704257 9.71038 0.195784C9.83574 0.321143 9.90617 0.491165 9.90617 0.668449V3.98396C9.90984 4.0751 9.89481 4.16603 9.86202 4.25115C9.82923 4.33626 9.77936 4.41377 9.71549 4.47889C9.65162 4.54402 9.5751 4.59538 9.49063 4.62982C9.40617 4.66426 9.31555 4.68104 9.22435 4.67914H7.08531V14.0374C7.08531 14.2147 7.01489 14.3847 6.88953 14.5101C6.76417 14.6355 6.59415 14.7059 6.41686 14.7059Z" fill="black"/>
<path d="M7.48663 24.9999H5.2139C3.83218 24.9964 2.50805 24.4459 1.53102 23.4689C0.553983 22.4918 0.00352934 21.1677 0 19.786V11.6309C0.00352934 10.2492 0.553983 8.92504 1.53102 7.94801C2.50805 6.97098 3.83218 6.42052 5.2139 6.41699H7.48663C8.86836 6.42052 10.1925 6.97098 11.1695 7.94801C12.1466 8.92504 12.697 10.2492 12.7005 11.6309V19.786C12.697 21.1677 12.1466 22.4918 11.1695 23.4689C10.1925 24.4459 8.86836 24.9964 7.48663 24.9999ZM5.2139 7.75389C4.18566 7.75389 3.19953 8.16236 2.47245 8.88944C1.74537 9.61652 1.3369 10.6026 1.3369 11.6309V19.786C1.3369 20.2951 1.43718 20.7993 1.63202 21.2696C1.82686 21.74 2.11243 22.1674 2.47245 22.5274C2.83246 22.8874 3.25986 23.173 3.73024 23.3679C4.20062 23.5627 4.70477 23.663 5.2139 23.663H7.48663C7.99577 23.663 8.49992 23.5627 8.9703 23.3679C9.44068 23.173 9.86807 22.8874 10.2281 22.5274C10.5881 22.1674 10.8737 21.74 11.0685 21.2696C11.2634 20.7993 11.3636 20.2951 11.3636 19.786V11.6309C11.3636 11.1218 11.2634 10.6176 11.0685 10.1472C10.8737 9.67685 10.5881 9.24945 10.2281 8.88944C9.86807 8.52943 9.44068 8.24385 8.9703 8.04901C8.49992 7.85417 7.99577 7.75389 7.48663 7.75389H5.2139Z" fill="black"/>
<path d="M1.06935 16.4443C0.928074 16.4461 0.789871 16.403 0.67458 16.3214C0.559288 16.2397 0.472837 16.1236 0.427637 15.9897C0.375876 15.8195 0.391388 15.6358 0.470977 15.4767C0.550565 15.3175 0.688169 15.1949 0.855444 15.1341L6.20304 13.4095C6.28634 13.3805 6.37466 13.3686 6.46268 13.3745C6.5507 13.3805 6.63661 13.4041 6.71526 13.4441C6.79392 13.484 6.86369 13.5395 6.9204 13.607C6.97711 13.6746 7.01959 13.7529 7.04528 13.8373C7.09653 14.0058 7.08062 14.1876 7.00088 14.3446C6.92113 14.5016 6.78374 14.6216 6.61748 14.6796L1.26988 16.4176L1.06935 16.4443Z" fill="black"/>
<path d="M11.6043 16.4438H11.4038L6.0562 14.7059C5.88993 14.6479 5.75254 14.5278 5.6728 14.3708C5.59306 14.2138 5.57715 14.0321 5.6284 13.8636C5.65557 13.7787 5.69944 13.7001 5.75743 13.6324C5.81543 13.5648 5.88637 13.5094 5.96609 13.4695C6.04582 13.4296 6.1327 13.4061 6.22165 13.4003C6.31059 13.3946 6.3998 13.4066 6.48401 13.4358L11.8316 15.1604C11.9989 15.2212 12.1365 15.3438 12.2161 15.5029C12.2957 15.6621 12.3112 15.8458 12.2594 16.016C12.209 16.1471 12.1186 16.259 12.001 16.3358C11.8834 16.4126 11.7446 16.4504 11.6043 16.4438Z" fill="black"/>
</svg>
