<svg width="25" height="29" viewBox="0 0 25 29" fill="none" xmlns="http://www.w3.org/2000/svg">
<path d="M12.5 28.5808C11.3779 28.5589 10.2996 28.1416 9.45518 27.4023C8.61075 26.6631 8.05446 25.6494 7.8844 24.5401C7.85642 24.3245 7.91505 24.1066 8.04745 23.9342C8.17985 23.7618 8.3752 23.6489 8.5907 23.6203C8.69749 23.6039 8.80646 23.6089 8.91135 23.6347C9.01624 23.6606 9.115 23.7069 9.20197 23.7709C9.28894 23.835 9.36242 23.9156 9.41819 24.0082C9.47395 24.1007 9.51092 24.2033 9.52696 24.3101C9.63446 25.0393 10.0005 25.7054 10.5584 26.1871C11.1163 26.6687 11.8287 26.9337 12.5657 26.9337C13.3027 26.9337 14.0152 26.6687 14.573 26.1871C15.1309 25.7054 15.497 25.0393 15.6045 24.3101C15.6228 24.2023 15.6622 24.0991 15.7204 24.0065C15.7786 23.9139 15.8545 23.8336 15.9437 23.7703C16.033 23.707 16.1338 23.6619 16.2404 23.6376C16.3471 23.6132 16.4575 23.6101 16.5654 23.6285C16.6732 23.6468 16.7764 23.6862 16.869 23.7444C16.9616 23.8026 17.0419 23.8785 17.1052 23.9678C17.1685 24.057 17.2136 24.1578 17.2379 24.2645C17.2623 24.3711 17.2654 24.4815 17.247 24.5894C17.0757 25.7178 16.4994 26.7453 15.6258 27.4798C14.7522 28.2143 13.6411 28.6057 12.5 28.5808V28.5808Z" fill="#E42525"/>
<path d="M7.44051 13.6171C7.22269 13.6171 7.0138 13.5305 6.85977 13.3765C6.70575 13.2225 6.61923 13.0136 6.61923 12.7958V12.188C6.45198 11.2771 6.53472 10.3378 6.85865 9.47015C7.18258 8.60248 7.7356 7.8388 8.4589 7.26033C8.63751 7.13399 8.85899 7.08379 9.07462 7.12075C9.29025 7.15772 9.48236 7.27882 9.6087 7.45743C9.73503 7.63604 9.78524 7.85753 9.74827 8.07315C9.71131 8.28878 9.5902 8.4809 9.41159 8.60723C8.27822 9.41209 8.22894 10.4141 8.26179 12.1223V12.7465C8.2583 12.9679 8.17208 13.1801 8.0201 13.3412C7.86813 13.5023 7.66138 13.6007 7.44051 13.6171V13.6171Z" fill="#E42525"/>
<path d="M12.4999 3.82718H13.2227C15.0319 4.00731 16.7085 4.85673 17.924 6.2089C19.1394 7.56108 19.806 9.31849 19.7929 11.1366V17.3783L20.4499 17.8711L23.3737 20.0721V23.4558H1.64257V20.1379L4.59918 17.9697L5.25621 17.4769V11.153C5.24801 9.34128 5.91751 7.59195 7.1332 6.24861C8.34889 4.90528 10.0229 4.06502 11.8265 3.89288H12.5492L12.4999 3.82718ZM13.3869 0H11.6129V2.26674C9.41297 2.49072 7.37465 3.52397 5.8935 5.16598C4.41235 6.80799 3.59399 8.94168 3.59722 11.153V16.6556L0.312087 19.0538C0.215766 19.1343 0.138004 19.2347 0.0841348 19.3481C0.0302658 19.4615 0.00156477 19.5852 0 19.7108V24.195C0 24.4346 0.0951806 24.6644 0.264603 24.8338C0.434025 25.0032 0.663811 25.0984 0.903411 25.0984H24.0964C24.336 25.0984 24.5658 25.0032 24.7352 24.8338C24.9047 24.6644 24.9998 24.4346 24.9998 24.195V19.7108C25.0025 19.5701 24.971 19.4308 24.9081 19.305C24.8452 19.1791 24.7526 19.0703 24.6385 18.9881L21.3533 16.5571V11.2023C21.3647 8.98096 20.5483 6.83503 19.0633 5.183C17.5783 3.53097 15.5312 2.4913 13.3212 2.26674V0H13.3869Z" fill="black"/>
</svg>
