<svg width="25" height="24" viewBox="0 0 25 24" fill="none" xmlns="http://www.w3.org/2000/svg">
<path d="M15.1788 22.1615H13.8721V18.8295L14.2119 18.6466C14.7822 18.3298 15.2522 17.8595 15.5686 17.289C15.8851 16.7185 16.0352 16.0707 16.002 15.4192C15.9775 14.7742 15.7705 14.1494 15.4051 13.6175C15.0396 13.0855 14.5307 12.6681 13.9375 12.4139L14.0812 15.393L12.5786 16.2685L11.0759 15.393V12.4661C10.5011 12.7495 10.0141 13.1836 9.66659 13.7221C9.31912 14.2605 9.12429 14.8832 9.10287 15.5237C9.07209 16.1624 9.22574 16.7964 9.54547 17.3502C9.8652 17.9039 10.3375 18.3539 10.906 18.6466L11.2327 18.8295V22.1484H9.92605V19.5351C9.2395 19.1069 8.6769 18.5066 8.29411 17.7937C7.91131 17.0809 7.72165 16.2803 7.74395 15.4714C7.76985 14.5721 8.04826 13.6981 8.54735 12.9495C9.04644 12.2008 9.74608 11.6077 10.5663 11.2379C10.7442 11.132 10.9473 11.0762 11.1543 11.0762C11.3613 11.0762 11.5644 11.132 11.7423 11.2379C11.9239 11.3575 12.0728 11.5205 12.1754 11.7121C12.2781 11.9038 12.3313 12.118 12.3303 12.3355V14.596L12.5263 14.7136L12.7223 14.596V12.3355C12.7224 12.1287 12.7752 11.9254 12.8758 11.7448C12.9764 11.5641 13.1215 11.4122 13.2972 11.3032C13.4808 11.2002 13.6878 11.1461 13.8983 11.1461C14.1088 11.1461 14.3158 11.2002 14.4993 11.3032C15.3108 11.6544 16.0057 12.2291 16.5031 12.9601C17.0005 13.6911 17.2798 14.5485 17.3086 15.4322C17.351 16.2601 17.1769 17.0848 16.8034 17.8249C16.4299 18.565 15.87 19.195 15.1788 19.6527V22.1615Z" fill="#E42525"/>
<path d="M12.5261 1.48975L23.5673 22.1348H1.47187L12.5261 1.48975ZM12.5261 0.0655036C12.3123 0.0618351 12.1015 0.117221 11.9171 0.22557C11.7327 0.333918 11.5817 0.491032 11.4808 0.679629L0.152158 21.8474C0.0526865 22.0083 0 22.1938 0 22.3831C0 22.5723 0.0526865 22.7578 0.152158 22.9188C0.261022 23.0818 0.40889 23.215 0.58232 23.3062C0.75575 23.3975 0.949244 23.444 1.14521 23.4415H23.8548C24.0508 23.444 24.2442 23.3975 24.4177 23.3062C24.5911 23.215 24.739 23.0818 24.8478 22.9188C24.9473 22.7578 25 22.5723 25 22.3831C25 22.1938 24.9473 22.0083 24.8478 21.8474L13.5715 0.614297C13.4705 0.425699 13.3196 0.268586 13.1352 0.160237C12.9507 0.0518886 12.74 -0.00349743 12.5261 0.000171103V0.0655036Z" fill="black"/>
</svg>
