<svg width="25" height="6" viewBox="0 0 25 6" fill="none" xmlns="http://www.w3.org/2000/svg">
<path d="M2.6824 5.36481C2.15188 5.36481 1.63326 5.20749 1.19214 4.91274C0.751022 4.61799 0.407212 4.19906 0.204187 3.70892C0.00116223 3.21877 -0.0519583 2.67943 0.0515428 2.15909C0.155044 1.63876 0.410518 1.1608 0.785659 0.785659C1.1608 0.410518 1.63876 0.155044 2.15909 0.0515428C2.67943 -0.0519583 3.21877 0.00116223 3.70892 0.204187C4.19906 0.407212 4.61799 0.751022 4.91274 1.19214C5.20749 1.63326 5.36481 2.15188 5.36481 2.6824C5.36481 3.03466 5.29543 3.38347 5.16062 3.70892C5.02582 4.03436 4.82823 4.33007 4.57915 4.57915C4.33007 4.82823 4.03436 5.02582 3.70892 5.16062C3.38347 5.29543 3.03466 5.36481 2.6824 5.36481V5.36481ZM2.6824 1.3412C2.41714 1.3412 2.15783 1.41986 1.93727 1.56724C1.71671 1.71461 1.54481 1.92408 1.4433 2.16915C1.34178 2.41422 1.31522 2.68389 1.36697 2.94406C1.41872 3.20423 1.54646 3.44321 1.73403 3.63078C1.9216 3.81835 2.16058 3.94608 2.42075 3.99784C2.68092 4.04959 2.95059 4.02303 3.19566 3.92151C3.44073 3.82 3.6502 3.6481 3.79757 3.42754C3.94495 3.20698 4.02361 2.94767 4.02361 2.6824C4.00974 2.33608 3.86234 2.00856 3.6123 1.76853C3.36227 1.52849 3.02901 1.39457 2.6824 1.39485V1.3412Z" fill="black"/>
<path d="M15.7722 5.36481C15.2417 5.36481 14.7231 5.20749 14.282 4.91274C13.8409 4.61799 13.4971 4.19906 13.294 3.70892C13.091 3.21877 13.0379 2.67943 13.1414 2.15909C13.2449 1.63876 13.5004 1.1608 13.8755 0.785659C14.2506 0.410518 14.7286 0.155044 15.2489 0.0515428C15.7693 -0.0519583 16.3086 0.00116223 16.7988 0.204187C17.2889 0.407212 17.7078 0.751022 18.0026 1.19214C18.2973 1.63326 18.4547 2.15188 18.4547 2.6824C18.4547 3.39382 18.172 4.0761 17.669 4.57915C17.1659 5.0822 16.4837 5.36481 15.7722 5.36481ZM15.7722 1.3412C15.507 1.3412 15.2477 1.41986 15.0271 1.56724C14.8066 1.71461 14.6347 1.92408 14.5331 2.16915C14.4316 2.41422 14.4051 2.68389 14.4568 2.94406C14.5086 3.20423 14.6363 3.44321 14.8239 3.63078C15.0114 3.81835 15.2504 3.94608 15.5106 3.99784C15.7708 4.04959 16.0404 4.02303 16.2855 3.92151C16.5306 3.82 16.74 3.6481 16.8874 3.42754C17.0348 3.20698 17.1134 2.94767 17.1134 2.6824C17.0996 2.33608 16.9522 2.00856 16.7021 1.76853C16.4521 1.52849 16.1189 1.39457 15.7722 1.39485V1.3412Z" fill="black"/>
<path d="M22.3177 5.36481C21.7871 5.36481 21.2685 5.20749 20.8274 4.91274C20.3863 4.61799 20.0425 4.19906 19.8394 3.70892C19.6364 3.21877 19.5833 2.67943 19.6868 2.15909C19.7903 1.63876 20.0458 1.1608 20.4209 0.785659C20.7961 0.410518 21.274 0.155044 21.7943 0.0515428C22.3147 -0.0519583 22.854 0.00116223 23.3442 0.204187C23.8343 0.407212 24.2533 0.751022 24.548 1.19214C24.8427 1.63326 25.0001 2.15188 25.0001 2.6824C25.0001 3.39382 24.7175 4.0761 24.2144 4.57915C23.7114 5.0822 23.0291 5.36481 22.3177 5.36481ZM22.3177 1.3412C22.0524 1.3412 21.7931 1.41986 21.5725 1.56724C21.352 1.71461 21.1801 1.92408 21.0786 2.16915C20.977 2.41422 20.9505 2.68389 21.0022 2.94406C21.054 3.20423 21.1817 3.44321 21.3693 3.63078C21.5569 3.81835 21.7958 3.94608 22.056 3.99784C22.3162 4.04959 22.5858 4.02303 22.8309 3.92151C23.076 3.82 23.2855 3.6481 23.4328 3.42754C23.5802 3.20698 23.6589 2.94767 23.6589 2.6824C23.645 2.33608 23.4976 2.00856 23.2476 1.76853C22.9975 1.52849 22.6643 1.39457 22.3177 1.39485V1.3412Z" fill="black"/>
<path d="M9.22741 4.69457C10.3237 4.69457 11.2124 3.80586 11.2124 2.70959C11.2124 1.61332 10.3237 0.724609 9.22741 0.724609C8.13114 0.724609 7.24243 1.61332 7.24243 2.70959C7.24243 3.80586 8.13114 4.69457 9.22741 4.69457Z" fill="#E42525"/>
<path d="M9.22733 5.36481C8.6968 5.36481 8.17818 5.20749 7.73706 4.91274C7.29594 4.61799 6.95213 4.19906 6.74911 3.70892C6.54608 3.21877 6.49296 2.67943 6.59646 2.15909C6.69997 1.63876 6.95544 1.1608 7.33058 0.785659C7.70572 0.410518 8.18368 0.155044 8.70402 0.0515428C9.22435 -0.0519583 9.76369 0.00116223 10.2538 0.204187C10.744 0.407212 11.1629 0.751022 11.4577 1.19214C11.7524 1.63326 11.9097 2.15188 11.9097 2.6824C11.9097 3.39382 11.6271 4.0761 11.1241 4.57915C10.621 5.0822 9.93874 5.36481 9.22733 5.36481ZM9.22733 1.3412C8.96206 1.3412 8.70275 1.41986 8.48219 1.56724C8.26163 1.71461 8.08973 1.92408 7.98822 2.16915C7.88671 2.41422 7.86015 2.68389 7.9119 2.94406C7.96365 3.20423 8.09138 3.44321 8.27895 3.63078C8.46652 3.81835 8.7055 3.94608 8.96567 3.99784C9.22584 4.04959 9.49551 4.02303 9.74058 3.92151C9.98565 3.82 10.1951 3.6481 10.3425 3.42754C10.4899 3.20698 10.5685 2.94767 10.5685 2.6824C10.5547 2.33608 10.4073 2.00856 10.1572 1.76853C9.90719 1.52849 9.57393 1.39457 9.22733 1.39485V1.3412Z" fill="#E42525"/>
</svg>
