<svg width="17" height="25" viewBox="0 0 17 25" fill="none" xmlns="http://www.w3.org/2000/svg">
<path d="M14.9194 1.34409V23.6156H1.34409V1.34409H14.9194ZM15.1882 0H1.07527C0.79009 0 0.516591 0.113287 0.314939 0.314939C0.113287 0.516591 0 0.79009 0 1.07527V23.9247C0 24.2099 0.113287 24.4834 0.314939 24.6851C0.516591 24.8867 0.79009 25 1.07527 25H15.1882C15.4734 25 15.7469 24.8867 15.9485 24.6851C16.1502 24.4834 16.2634 24.2099 16.2634 23.9247V1.07527C16.2634 0.79009 16.1502 0.516591 15.9485 0.314939C15.7469 0.113287 15.4734 0 15.1882 0V0Z" fill="black"/>
<path d="M12.3655 4.59653V19.0051H3.8978V4.59653H12.3655V4.59653ZM13.5752 3.25244H2.68812C2.65349 3.25547 2.62103 3.2706 2.59645 3.29518C2.57187 3.31976 2.55674 3.35222 2.55371 3.38685V20.2148C2.55371 20.2505 2.56787 20.2846 2.59308 20.3098C2.61828 20.3351 2.65247 20.3492 2.68812 20.3492H13.5752C13.5934 20.3514 13.6118 20.3494 13.6291 20.3434C13.6464 20.3374 13.6621 20.3276 13.675 20.3146C13.688 20.3017 13.6978 20.286 13.7038 20.2687C13.7098 20.2514 13.7118 20.233 13.7096 20.2148V3.45405C13.7096 3.41841 13.6955 3.38422 13.6703 3.35901C13.6451 3.33381 13.6109 3.31965 13.5752 3.31965V3.25244Z" fill="black"/>
<path d="M8.13163 22.9029C8.5696 22.9029 8.92464 22.5479 8.92464 22.1099C8.92464 21.6719 8.5696 21.3169 8.13163 21.3169C7.69367 21.3169 7.33862 21.6719 7.33862 22.1099C7.33862 22.5479 7.69367 22.9029 8.13163 22.9029Z" fill="black"/>
<path d="M8.96506 15.1209C8.96506 15.6586 9.04571 16.344 8.29302 16.344C7.54033 16.344 7.68818 15.6586 7.6613 15.3494C7.14402 14.9954 6.646 14.614 6.16936 14.207C6.1046 14.1461 6.05475 14.0711 6.0237 13.9878C5.99265 13.9045 5.98123 13.8151 5.99033 13.7267C5.99944 13.6383 6.02881 13.5531 6.07618 13.4779C6.12355 13.4027 6.18764 13.3394 6.26345 13.293C6.33231 13.2373 6.41211 13.1967 6.49767 13.1739C6.58323 13.151 6.67263 13.1464 6.76008 13.1604C6.84754 13.1743 6.93108 13.2065 7.00529 13.2548C7.07951 13.3031 7.14273 13.3665 7.19087 13.4408C7.45127 13.6602 7.76631 13.8048 8.10243 13.8593C8.43855 13.9137 8.78314 13.8759 9.09947 13.75C9.2008 13.656 9.28082 13.5414 9.33415 13.4138C9.38747 13.2863 9.41286 13.1489 9.40861 13.0107C9.35407 12.8864 9.27465 12.7746 9.17525 12.6821C9.07585 12.5896 8.95858 12.5185 8.83066 12.4731C8.51838 12.4319 8.20207 12.4319 7.88979 12.4731C7.40599 12.4759 6.93774 12.3023 6.57269 11.9848C6.20764 11.6673 5.97082 11.2276 5.90655 10.7481C5.84228 10.2686 5.95498 9.78207 6.22354 9.37964C6.49211 8.97721 6.89813 8.68645 7.3656 8.56179C7.46666 8.53887 7.56558 8.50739 7.6613 8.46771C7.6613 8.29297 7.6613 8.1048 7.6613 7.93007C7.65567 7.84617 7.66759 7.76202 7.69631 7.68299C7.72503 7.60396 7.76991 7.53179 7.8281 7.47108C7.88628 7.41037 7.95648 7.36245 8.03421 7.3304C8.11195 7.29835 8.19552 7.28285 8.27958 7.28491C8.35853 7.27517 8.43865 7.28263 8.51444 7.3068C8.59023 7.33096 8.65989 7.37124 8.71864 7.42488C8.77738 7.47851 8.82382 7.54423 8.85476 7.61752C8.88569 7.6908 8.9004 7.76992 8.89786 7.84943C8.89786 8.36018 9.09947 8.56179 9.55646 8.73652C9.92007 8.90627 10.2312 9.17094 10.457 9.50265C10.513 9.56518 10.5547 9.63915 10.5792 9.71943C10.6037 9.79971 10.6105 9.88437 10.599 9.96751C10.5875 10.0507 10.558 10.1303 10.5126 10.2009C10.4672 10.2715 10.4069 10.3313 10.336 10.3763C10.2656 10.4248 10.1859 10.4582 10.102 10.4743C10.018 10.4904 9.93163 10.489 9.84827 10.47C9.7649 10.4511 9.68637 10.4151 9.61764 10.3642C9.5489 10.3134 9.49146 10.2489 9.44893 10.1747C9.19366 9.9468 8.88253 9.79066 8.54724 9.72219C8.21196 9.65371 7.86452 9.67536 7.54033 9.78491C7.42132 9.85651 7.32209 9.95673 7.25167 10.0764C7.18125 10.1962 7.14187 10.3316 7.13711 10.4704C7.18065 10.6067 7.25386 10.7316 7.35147 10.8362C7.44908 10.9408 7.56867 11.0224 7.70162 11.0752C8.0616 11.1319 8.42612 11.1544 8.79033 11.1424C9.28504 11.1357 9.76405 11.316 10.1315 11.6474C10.4989 11.9787 10.7275 12.4366 10.7717 12.9294C10.8159 13.4222 10.6723 13.9134 10.3697 14.3049C10.0671 14.6963 9.62782 14.959 9.13979 15.0403L8.96506 15.1209Z" fill="#E42525"/>
</svg>
