<svg width="25" height="26" viewBox="0 0 25 26" fill="none" xmlns="http://www.w3.org/2000/svg">
<path d="M13.3637 1.36882C14.5417 1.37963 15.6901 1.73881 16.6643 2.40112C17.6385 3.06343 18.3949 3.99923 18.8382 5.09065C19.2815 6.18207 19.3919 7.38027 19.1555 8.53432C18.9191 9.68837 18.3464 10.7466 17.5096 11.5758C16.6729 12.405 15.6094 12.968 14.4532 13.1938C13.2971 13.4197 12.0999 13.2984 11.0126 12.8451C9.92529 12.3918 8.99643 11.6269 8.34304 10.6467C7.68966 9.66649 7.34098 8.51484 7.34093 7.33682C7.3409 6.54846 7.49706 5.76791 7.8004 5.04025C8.10374 4.31259 8.54824 3.65223 9.10823 3.09733C9.66822 2.54243 10.3326 2.10398 11.063 1.8073C11.7934 1.51062 12.5754 1.36159 13.3637 1.36882V1.36882ZM13.3637 1.27746e-05C11.912 -0.00269556 10.4922 0.425298 9.28385 1.22983C8.07552 2.03436 7.13301 3.17926 6.57561 4.51965C6.0182 5.86003 5.87095 7.33565 6.1525 8.75975C6.43404 10.1839 7.13172 11.4924 8.15725 12.5199C9.18277 13.5473 10.49 14.2474 11.9136 14.5316C13.3372 14.8158 14.8131 14.6714 16.1545 14.1165C17.4959 13.5615 18.6426 12.6212 19.4494 11.4144C20.2562 10.2075 20.6868 8.78849 20.6868 7.33682C20.6868 5.39335 19.9157 3.52927 18.5427 2.15375C17.1698 0.778222 15.3072 0.00363866 13.3637 1.27746e-05V1.27746e-05Z" fill="black"/>
<path d="M14.185 10.7179C14.1166 11.2654 14.2672 11.9635 13.5006 11.9635C12.7341 11.9635 12.8162 11.2654 12.8162 10.9505C12.2888 10.5811 11.7816 10.1836 11.2968 9.75969C11.2332 9.69388 11.1858 9.61414 11.1584 9.5268C11.131 9.43946 11.1243 9.34694 11.139 9.25657C11.1536 9.16621 11.1891 9.0805 11.2426 9.00626C11.2962 8.93202 11.3663 8.87129 11.4474 8.8289C11.5841 8.73082 11.7539 8.69022 11.9202 8.71581C12.0865 8.74139 12.2362 8.83113 12.3371 8.96578C12.6023 9.1892 12.9232 9.33648 13.2655 9.39193C13.6078 9.44737 13.9587 9.40889 14.2808 9.2806C14.384 9.18488 14.4655 9.06816 14.5198 8.9383C14.5741 8.80844 14.6 8.66845 14.5957 8.52776C14.5401 8.40116 14.4592 8.28727 14.358 8.19311C14.2568 8.09895 14.1374 8.0265 14.0071 7.98024C13.6891 7.93835 13.3669 7.93835 13.0489 7.98024C12.5562 7.98312 12.0793 7.80634 11.7076 7.48298C11.3358 7.15963 11.0946 6.71188 11.0292 6.22353C10.9637 5.73519 11.0785 5.23973 11.352 4.8299C11.6255 4.42007 12.039 4.12396 12.5151 3.99701C12.6189 3.96481 12.7196 3.92359 12.8162 3.87381C12.8162 3.69587 12.8162 3.50424 12.8162 3.32629C12.8105 3.24085 12.8226 3.15515 12.8519 3.07467C12.8811 2.99418 12.9268 2.92068 12.9861 2.85885C13.0453 2.79703 13.1168 2.74823 13.196 2.71559C13.2752 2.68295 13.3603 2.66717 13.4459 2.66926C13.5263 2.65934 13.6079 2.66695 13.685 2.69155C13.7622 2.71616 13.8332 2.75718 13.893 2.8118C13.9528 2.86643 14.0001 2.93336 14.0316 3.00799C14.0631 3.08262 14.0781 3.16319 14.0755 3.24416C14.0755 3.76431 14.2808 3.96963 14.7462 4.14758C15.1165 4.32045 15.4334 4.58998 15.6633 4.9278C15.721 4.99057 15.7644 5.06512 15.7904 5.1463C15.8165 5.22748 15.8245 5.31334 15.8141 5.39796C15.8037 5.48257 15.775 5.56391 15.7301 5.63635C15.6852 5.70879 15.625 5.77061 15.5538 5.81752C15.4881 5.87146 15.4121 5.91151 15.3304 5.93527C15.2488 5.95904 15.1632 5.96601 15.0787 5.95578C14.9943 5.94555 14.9128 5.91832 14.8392 5.87573C14.7656 5.83315 14.7014 5.7761 14.6504 5.70802C14.3904 5.47593 14.0736 5.31692 13.7321 5.24718C13.3907 5.17745 13.0369 5.19949 12.7067 5.31106C12.5855 5.38398 12.4845 5.48604 12.4127 5.60796C12.341 5.72988 12.3009 5.86779 12.2961 6.00915C12.3404 6.14794 12.415 6.27516 12.5144 6.38167C12.6138 6.48818 12.7356 6.57132 12.871 6.62512C13.2397 6.66 13.6109 6.66 13.9797 6.62512C14.4835 6.61822 14.9713 6.80188 15.3455 7.13932C15.7197 7.47677 15.9525 7.94309 15.9975 8.44493C16.0425 8.94677 15.8963 9.44709 15.5881 9.84571C15.28 10.2443 14.8326 10.5118 14.3356 10.5947L14.185 10.7179Z" fill="#E42525"/>
<path d="M24.9577 17.9995C24.9018 17.6619 24.764 17.3431 24.5564 17.0711C24.3488 16.7991 24.0777 16.5821 23.7668 16.439C23.4395 16.3063 23.0843 16.2568 22.7331 16.295C22.382 16.3332 22.0458 16.458 21.7547 16.6581C21.0429 17.1235 20.3859 17.6299 19.633 18.0953C19.3866 18.2869 19.1266 18.4649 18.8665 18.6428C18.6793 18.3957 18.4338 18.1989 18.152 18.0699C17.8701 17.9409 17.5606 17.8838 17.2513 17.9037H16.2931C15.687 17.8627 15.0788 17.8627 14.4726 17.9037C13.0749 18.0609 11.672 17.6572 10.5715 16.7812C9.52303 15.9825 8.21722 15.5975 6.9031 15.6999H5.80806V15.3303C5.80806 14.947 5.80806 14.6048 5.80806 14.249C5.82064 14.1439 5.81132 14.0373 5.78069 13.936C5.75007 13.8347 5.6988 13.7409 5.63011 13.6604C5.45664 13.5205 5.23637 13.4519 5.01415 13.4687H0.784535C0.678594 13.4596 0.571903 13.4719 0.470796 13.5048C0.369688 13.5377 0.276223 13.5906 0.195948 13.6604C0.125542 13.7402 0.0722203 13.8336 0.039264 13.9348C0.00630767 14.0361 -0.00558611 14.143 0.0043147 14.249V24.296C-0.00707614 24.4 0.0041518 24.5052 0.0372287 24.6044C0.0703057 24.7037 0.124449 24.7946 0.195948 24.8709C0.269572 24.9381 0.356031 24.9897 0.450125 25.0227C0.544218 25.0556 0.644001 25.0692 0.743471 25.0625H5.02784C5.13247 25.0679 5.23714 25.0526 5.33581 25.0173C5.43448 24.9821 5.5252 24.9277 5.60274 24.8572C5.67916 24.7757 5.7361 24.6779 5.7693 24.5712C5.80249 24.4646 5.81106 24.3517 5.79437 24.2413C5.79437 23.9127 5.79437 23.5842 5.79437 23.2557V22.9409C6.6545 22.8354 7.52698 22.9729 8.31298 23.3378L10.5578 24.3097L12.173 25.0215C12.8399 25.3251 13.5621 25.4882 14.2947 25.5006C14.7176 25.5278 15.1421 25.4908 15.554 25.391C16.1434 25.2203 16.7057 24.9669 17.2239 24.6382C18.7433 23.6527 20.2627 22.6397 21.741 21.6542L23.9448 20.1896C24.3261 19.9814 24.6305 19.6561 24.8129 19.2618C24.9953 18.8674 25.046 18.4249 24.9577 17.9995V17.9995ZM4.60351 23.8854H1.18149C1.18149 23.8854 1.18149 23.6664 1.18149 23.5432V20.9014C1.18149 18.9577 1.18149 17.0276 1.18149 15.0839C1.18149 14.8786 1.18149 14.7691 1.26362 14.7007C1.34575 14.6322 1.42787 14.6185 1.64688 14.6185C2.37235 14.6185 3.09782 14.6185 3.85066 14.6185H4.60351V23.8854ZM11.0369 21.969C11.1875 21.8595 11.3654 21.7637 11.4202 21.5995C11.4749 21.4352 11.6529 21.1477 12.0635 21.1477H17.1829C17.5609 21.1906 17.9425 21.1062 18.2673 20.9079C18.592 20.7095 18.8414 20.4086 18.976 20.0527C19.0593 19.9198 19.1716 19.8075 19.3045 19.7242L22.2611 17.7257C22.3897 17.6253 22.5371 17.5518 22.6947 17.5095C22.8522 17.4672 23.0167 17.4569 23.1782 17.4793C23.3808 17.5331 23.5563 17.6598 23.671 17.8352C23.7364 17.9529 23.777 18.0828 23.7903 18.2168C23.8036 18.3509 23.7893 18.4862 23.7483 18.6144C23.7072 18.7427 23.6403 18.8612 23.5517 18.9626C23.4631 19.064 23.3546 19.1462 23.233 19.204C21.0429 20.5728 18.7159 22.2017 16.3889 23.7348C15.8704 24.0906 15.2678 24.3043 14.641 24.3547C14.0142 24.4052 13.3851 24.2905 12.8164 24.0222C12.351 23.8032 11.8947 23.5979 11.4475 23.4063C11.0095 23.242 10.5715 23.0504 10.1609 22.8588C9.02661 22.2213 7.76353 21.8471 6.46509 21.7637C6.29654 21.7502 6.12718 21.7502 5.95863 21.7637V16.8908C7.30911 16.6484 8.70134 16.922 9.85973 17.6573C10.5524 18.2047 11.3477 18.6079 12.1988 18.843C13.0498 19.0781 13.9393 19.1404 14.8148 19.0261C15.3755 18.9918 15.9378 18.9918 16.4984 19.0261H17.4292C17.6047 19.0104 17.7798 19.059 17.922 19.163C17.9634 19.209 17.9946 19.2633 18.0135 19.3223C18.0323 19.3813 18.0385 19.4436 18.0315 19.5052C18.0315 19.8337 17.8536 19.9432 17.4155 19.9432H12.0909C11.0506 19.9432 10.4209 20.436 10.3251 21.312C10.3319 21.4907 10.3941 21.6629 10.5031 21.8048" fill="black"/>
</svg>
