<svg width="25" height="21" viewBox="0 0 25 21" fill="none" xmlns="http://www.w3.org/2000/svg">
<path d="M16.265 20.1511H4.00092C3.82022 20.1511 3.64692 20.0793 3.51914 19.9515C3.39136 19.8237 3.31958 19.6504 3.31958 19.4697C3.31958 19.289 3.39136 19.1157 3.51914 18.9879C3.64692 18.8602 3.82022 18.7884 4.00092 18.7884H17.1235L16.2923 18.5158C15.0659 18.1343 14.0984 17.8345 14.221 16.9488C14.3436 16.063 14.4118 15.4226 24.3184 15.736C24.4991 15.736 24.6725 15.8078 24.8002 15.9355C24.928 16.0633 24.9998 16.2366 24.9998 16.4173C24.9998 16.598 24.928 16.7713 24.8002 16.8991C24.6725 17.0269 24.4991 17.0987 24.3184 17.0987C21.7398 16.9569 19.1548 16.9752 16.5784 17.1532H16.7283C17.9956 17.5483 19.3038 17.9571 19.5763 18.8974C19.6014 19.0187 19.6023 19.1437 19.5789 19.2653C19.5555 19.3869 19.5083 19.5027 19.4401 19.606C19.113 20.1374 18.5134 20.1511 16.265 20.1511Z" fill="#E42525"/>
<path d="M5.80007 17.1535C5.59136 17.1539 5.38903 17.0816 5.22775 16.9491V16.9491L1.65753 13.6787V13.2835C1.65076 13.1719 1.66658 13.0601 1.70404 12.9547C1.7415 12.8493 1.79984 12.7526 1.87556 12.6703L12.8996 0.406234C13.1411 0.161142 13.4664 0.016491 13.8102 0.00132531C14.1539 -0.0138404 14.4907 0.101602 14.7529 0.324474L17.4782 2.72279C17.7253 2.96252 17.8724 3.28687 17.8901 3.63066C17.9078 3.97445 17.7947 4.3122 17.5736 4.57603L6.54955 16.8401C6.45868 16.9484 6.34324 17.0333 6.21286 17.0878C6.08248 17.1424 5.94094 17.1649 5.80007 17.1535V17.1535ZM3.17011 13.2018L5.75919 15.5456L16.4426 3.71754L13.8535 1.38736L3.17011 13.2018Z" fill="black"/>
<path d="M0.730705 19.2248C0.547815 19.2376 0.367095 19.179 0.226514 19.0613C0.133074 18.9746 0.0647673 18.8642 0.0287933 18.7419C-0.00718071 18.6196 -0.00948883 18.4898 0.0221121 18.3663L1.38479 13.1882C1.43263 13.0152 1.54675 12.8681 1.70238 12.7788C1.85801 12.6896 2.04258 12.6652 2.21602 12.7112C2.30263 12.7333 2.38392 12.7725 2.45508 12.8266C2.52625 12.8806 2.58583 12.9484 2.63031 13.026C2.67479 13.1035 2.70325 13.1891 2.71401 13.2779C2.72477 13.3666 2.71761 13.4565 2.69296 13.5425L1.67095 17.3852L5.47282 15.7909C5.63946 15.7267 5.82442 15.729 5.98934 15.7975C6.15425 15.866 6.28647 15.9954 6.35856 16.1588C6.39425 16.2419 6.41303 16.3313 6.41381 16.4217C6.41459 16.5122 6.39736 16.6019 6.36311 16.6856C6.32886 16.7693 6.27829 16.8454 6.21434 16.9093C6.15039 16.9733 6.07435 17.0239 5.99064 17.0582L0.989613 19.1703C0.908919 19.2089 0.820127 19.2276 0.730705 19.2248V19.2248Z" fill="black"/>
<path d="M14.6438 7.24732C14.4737 7.24256 14.3103 7.18009 14.1804 7.07017L10.7329 3.94963C10.5973 3.82856 10.5155 3.65861 10.5052 3.47717C10.495 3.29573 10.5573 3.11766 10.6784 2.98213C10.7994 2.84661 10.9694 2.76473 11.1508 2.7545C11.3323 2.74428 11.5103 2.80656 11.6459 2.92763L15.0934 6.04816C15.2191 6.17782 15.2894 6.35132 15.2894 6.53191C15.2894 6.7125 15.2191 6.886 15.0934 7.01566C14.978 7.14663 14.8174 7.22933 14.6438 7.24732V7.24732Z" fill="black"/>
</svg>
