<svg width="25" height="26" viewBox="0 0 25 26" fill="none" xmlns="http://www.w3.org/2000/svg">
<path d="M17.3721 25.4435H16.4925C9.76014 24.7079 0.0053431 14.1216 0.0053431 7.30919C-0.0324679 6.31335 0.130707 5.32011 0.485132 4.38871C0.839557 3.45731 1.37797 2.60686 2.06824 1.88808C2.39675 1.53449 2.79192 1.24932 3.23103 1.04898C3.67013 0.848639 4.14451 0.737075 4.62688 0.720703H6.01813C7.36142 0.848635 7.71323 1.98403 7.92112 2.67166C8.12901 3.35929 8.35289 4.06292 8.56078 4.78254C8.76867 5.50215 9.00854 6.26974 9.23242 6.97337C9.32092 7.36811 9.30236 7.77934 9.17865 8.1645C9.05495 8.54967 8.83059 8.8948 8.52879 9.1642C8.06504 9.61196 7.69724 9.99575 7.15353 10.4435V10.5555C8.44165 13.6657 10.794 16.2164 13.79 17.7516L13.9179 17.8316H14.0139C14.3497 17.4429 14.7189 17.0844 15.1173 16.7601L15.5011 16.4723C15.7918 16.247 16.1322 16.0945 16.4939 16.0277C16.8556 15.961 17.228 15.9818 17.58 16.0885C18.2676 16.3444 18.9872 16.6482 19.6908 16.952C20.3945 17.2559 21.0501 17.5117 21.7377 17.7676C22.4254 18.0235 23.6247 18.5352 23.4968 19.9105V21.1578C23.4423 21.6639 23.2869 22.154 23.0397 22.5989C22.7925 23.0439 22.4585 23.4348 22.0576 23.7484C20.7496 24.8571 19.0867 25.4587 17.3721 25.4435V25.4435ZM4.53093 2.31985C4.02101 2.4061 3.55416 2.65921 3.20364 3.03947C2.66469 3.60449 2.24528 4.27244 1.97051 5.00334C1.69574 5.73424 1.57125 6.51306 1.60449 7.2932C1.60449 13.226 10.8635 23.2847 16.7324 23.8124C17.5048 23.9214 18.2913 23.8727 19.0444 23.6694C19.7975 23.466 20.5016 23.1121 21.1141 22.629C21.5789 22.2849 21.8938 21.7754 21.9936 21.2058V19.9105C21.9936 19.7505 21.9936 19.6546 21.258 19.3348C20.5224 19.0149 19.8667 18.7911 19.1631 18.5032C18.4595 18.2154 17.8038 17.9275 17.1162 17.6717C16.9563 17.6717 16.7324 17.6717 16.4286 17.9115L16.2527 18.0555C15.8832 18.361 15.5359 18.6923 15.2132 19.0469C14.1418 19.9265 13.4062 19.5586 13.0544 19.2708C9.76834 17.534 7.18991 14.7068 5.76227 11.2751C5.55819 10.9433 5.49244 10.5446 5.57916 10.1649C5.66588 9.78508 5.89814 9.45449 6.22602 9.24415C6.68978 8.84437 7.04159 8.49256 7.47336 8.06079C7.47336 8.06079 7.82517 7.67699 7.7772 7.43712C7.55331 6.78147 7.32943 6.02987 7.10555 5.27827C6.88167 4.52667 6.60982 3.919 6.40193 3.21537C6.16206 2.4158 6.06611 2.39981 5.92218 2.38382L4.54692 2.31985H4.53093Z" fill="black"/>
<path d="M24.2002 12.5703C24.096 12.5724 23.9924 12.5537 23.8954 12.5153C23.7985 12.4769 23.7102 12.4195 23.6358 12.3465C23.5613 12.2735 23.5022 12.1864 23.4618 12.0903C23.4214 11.9942 23.4006 11.891 23.4006 11.7867C23.3805 10.2294 23.003 8.69746 22.2972 7.3091C21.5343 5.80307 20.4165 4.50519 19.0403 3.52734C17.6641 2.54949 16.0707 1.92102 14.3974 1.6961C14.1062 1.64835 13.8126 1.61632 13.5179 1.60015C13.3059 1.58954 13.1067 1.49513 12.9642 1.33769C12.8218 1.18024 12.7477 0.972655 12.7583 0.760595C12.7689 0.548535 12.8633 0.349372 13.0208 0.20692C13.1782 0.0644686 13.3858 -0.00960318 13.5979 0.000999819C13.9497 0.000999819 14.2855 0.000999716 14.6213 0.11294C16.5512 0.374893 18.3886 1.10102 19.9762 2.22903C21.5638 3.35705 22.8541 4.85331 23.7365 6.58948C24.5458 8.19813 24.9778 9.97008 24.9998 11.7707C24.9998 11.9828 24.9155 12.1862 24.7656 12.3361C24.6157 12.4861 24.4123 12.5703 24.2002 12.5703Z" fill="#E42525"/>
<path d="M20.5549 13.21C20.3429 13.21 20.1395 13.1257 19.9895 12.9758C19.8396 12.8258 19.7553 12.6224 19.7553 12.4104C19.8196 10.6541 19.2136 8.93903 18.0602 7.61295C16.8567 6.46144 15.3151 5.72707 13.6626 5.51807H13.0709C12.8588 5.50534 12.6605 5.4089 12.5196 5.24995C12.3786 5.09101 12.3066 4.88258 12.3193 4.67052C12.332 4.45846 12.4285 4.26014 12.5874 4.11919C12.7464 3.97823 12.9548 3.9062 13.1669 3.91892H13.8865C15.8865 4.20705 17.7445 5.11928 19.1956 6.52553C20.6437 8.13747 21.4166 10.2444 21.3545 12.4104C21.3504 12.6212 21.2648 12.8222 21.1158 12.9712C20.9667 13.1203 20.7657 13.2059 20.5549 13.21Z" fill="#E42525"/>
</svg>
