<svg width="25" height="24" viewBox="0 0 25 24" fill="none" xmlns="http://www.w3.org/2000/svg">
<path d="M12.5196 1.42407L23.572 22.131H1.48025L12.5196 1.42407ZM12.5196 6.33489e-05C12.3063 -0.000743165 12.0968 0.0558343 11.9129 0.163865C11.729 0.271897 11.5776 0.427403 11.4745 0.614086L0.147692 21.8436C0.0510343 22.0055 0 22.1906 0 22.3792C0 22.5678 0.0510343 22.7529 0.147692 22.9149C0.257384 23.077 0.405403 23.2095 0.57861 23.3007C0.751817 23.3918 0.944853 23.4388 1.14058 23.4374H23.8594C24.0551 23.4388 24.2482 23.3918 24.4214 23.3007C24.5946 23.2095 24.7426 23.077 24.8523 22.9149C24.949 22.7529 25 22.5678 25 22.3792C25 22.1906 24.949 22.0055 24.8523 21.8436L13.5778 0.614086C13.4758 0.426473 13.3246 0.270188 13.1405 0.162011C12.9563 0.0538327 12.7462 -0.00215315 12.5327 6.33489e-05H12.5196Z" fill="black"/>
<path d="M16.5692 12.7378C16.5911 12.9746 16.5479 13.213 16.4443 13.4271C16.3407 13.6412 16.1806 13.8229 15.9813 13.9528C15.7581 14.081 15.5069 14.1527 15.2497 14.1618H14.8839C14.1377 14.168 13.4062 13.9544 12.7805 13.5478C11.7586 12.8826 10.9474 11.94 10.442 10.8304C10.262 10.4451 10.1219 10.0423 10.024 9.62847C9.94729 9.33827 9.96699 9.03101 10.0801 8.75297C10.1932 8.47493 10.3936 8.24117 10.651 8.08688C10.9048 7.92605 11.1827 7.80696 11.4741 7.73415C11.5279 7.71699 11.5862 7.72094 11.6371 7.74521C11.6881 7.76947 11.7279 7.81223 11.7485 7.86479C12.0228 8.36124 12.3102 8.84461 12.5715 9.34106C12.6091 9.38204 12.63 9.43565 12.63 9.4913C12.63 9.54694 12.6091 9.60056 12.5715 9.64154L12.0359 10.1772C11.9936 10.2041 11.9634 10.2462 11.9512 10.2948C11.9391 10.3434 11.946 10.3948 11.9705 10.4385C12.3434 11.3043 13.0225 12.002 13.8779 12.3981C13.9694 12.3981 14.0216 12.3981 14.087 12.3981C14.1523 12.3981 14.4789 11.98 14.6749 11.7841C14.6931 11.7597 14.7168 11.74 14.744 11.7264C14.7712 11.7128 14.8012 11.7057 14.8316 11.7057C14.862 11.7057 14.8921 11.7128 14.9193 11.7264C14.9465 11.74 14.9701 11.7597 14.9884 11.7841L16.4777 12.6463C16.5148 12.6695 16.546 12.7007 16.5692 12.7378V12.7378Z" fill="#E42525"/>
<path d="M14.8322 14.2268C14.1038 14.2229 13.3919 14.0097 12.7811 13.6128C11.7313 12.9366 10.9007 11.9698 10.3903 10.8301C10.1988 10.4483 10.054 10.0447 9.95922 9.62818C9.87846 9.32244 9.89985 8.99868 10.0201 8.70623C10.1404 8.41377 10.353 8.16865 10.6255 8.00821C10.8872 7.84759 11.1744 7.73272 11.4747 7.66853C11.5425 7.65158 11.6141 7.6578 11.678 7.6862C11.742 7.71461 11.7945 7.76357 11.8274 7.8253L12.0495 8.21723L12.6505 9.30157C12.6704 9.32981 12.6845 9.36173 12.692 9.39546C12.6995 9.4292 12.7002 9.46409 12.6942 9.49811C12.6881 9.53213 12.6753 9.56461 12.6566 9.59366C12.6379 9.62272 12.6136 9.64777 12.5852 9.66737L12.3108 9.95479L12.0495 10.2161C12.0495 10.2814 11.9711 10.3075 12.0495 10.399C12.4081 11.2516 13.0753 11.9375 13.9177 12.3194C13.983 12.3194 14.0222 12.3194 14.0484 12.3194L14.4533 11.8883L14.6362 11.6923C14.662 11.6642 14.6932 11.6418 14.7281 11.6264C14.763 11.611 14.8006 11.6031 14.8387 11.6031C14.8768 11.6031 14.9145 11.611 14.9494 11.6264C14.9843 11.6418 15.0155 11.6642 15.0412 11.6923L15.603 12.0189L16.5175 12.5546C16.5609 12.5779 16.5979 12.6116 16.6253 12.6526C16.6526 12.6936 16.6694 12.7407 16.6743 12.7897C16.7116 13.0437 16.6733 13.3031 16.5641 13.5355C16.4549 13.7678 16.2796 13.9628 16.0603 14.0962C15.8297 14.2311 15.5695 14.3073 15.3025 14.3183H14.8714L14.8322 14.2268ZM11.5531 7.79918H11.4747C11.1947 7.90013 10.9307 8.04093 10.6908 8.21723C10.4418 8.36251 10.2478 8.58608 10.1391 8.8531C10.0304 9.12013 10.0131 9.41561 10.0899 9.6935C10.1895 10.0858 10.3296 10.4667 10.5079 10.8301C11.0071 11.896 11.7945 12.8011 12.7811 13.443C13.3793 13.8342 14.0783 14.043 14.793 14.0439H15.2111C15.4546 14.0373 15.6926 13.9699 15.9035 13.848C16.0959 13.7254 16.2503 13.5518 16.3495 13.3464C16.4488 13.141 16.4888 12.9121 16.4653 12.6852V12.6852C16.4509 12.6324 16.4186 12.5862 16.3738 12.5546L15.4593 12.032L14.8845 11.6923C14.8728 11.6734 14.8564 11.6578 14.837 11.647C14.8175 11.6362 14.7957 11.6305 14.7734 11.6305C14.7512 11.6305 14.7293 11.6362 14.7099 11.647C14.6904 11.6578 14.6741 11.6734 14.6624 11.6923L14.4664 11.8883L14.0745 12.3064C14.0412 12.3484 13.9946 12.3778 13.9423 12.3896C13.89 12.4015 13.8352 12.3952 13.7871 12.3717C12.9456 11.9816 12.2698 11.3058 11.8797 10.4643C11.8506 10.4084 11.8439 10.3436 11.8609 10.2829C11.8779 10.2223 11.9173 10.1704 11.9711 10.1377L12.2063 9.8764L12.4937 9.58899C12.5852 9.49754 12.5721 9.43221 12.4937 9.37996L11.8927 8.29562L11.6706 7.89063C11.6602 7.86683 11.6439 7.84601 11.6234 7.83004C11.6029 7.81408 11.5787 7.80347 11.5531 7.79918V7.79918Z" fill="#E42525"/>
<path d="M8.1953 19.3873C8.1989 19.3032 8.1831 19.2194 8.14911 19.1424C8.11513 19.0653 8.06388 18.9972 7.99933 18.9431C7.77874 18.8179 7.54109 18.7255 7.29386 18.6688C7.01098 18.5828 6.7357 18.4735 6.47081 18.3422C6.17471 18.2397 5.91648 18.0501 5.72997 17.7984C5.54347 17.5466 5.4374 17.2443 5.42566 16.9312C5.41739 16.6473 5.50996 16.3696 5.68695 16.1474C5.87954 15.9077 6.13187 15.7229 6.41855 15.6117C6.77863 15.4605 7.16463 15.3807 7.55515 15.3766C7.91043 15.3687 8.26301 15.4401 8.58723 15.5856C8.8819 15.7023 9.133 15.9078 9.30576 16.1735C9.47517 16.4286 9.56185 16.7296 9.55399 17.0357H8.24755C8.24942 16.941 8.23183 16.8469 8.19587 16.7593C8.15992 16.6717 8.10637 16.5923 8.03853 16.5262C7.8837 16.4022 7.68763 16.3415 7.48982 16.3564C7.3008 16.3485 7.1139 16.3987 6.95419 16.5001C6.88891 16.5423 6.83546 16.6004 6.79888 16.669C6.76231 16.7376 6.74382 16.8143 6.74516 16.892C6.75064 16.968 6.77352 17.0417 6.81203 17.1074C6.85054 17.1731 6.90365 17.229 6.96725 17.2709C7.21025 17.4224 7.47443 17.5368 7.75111 17.6106C8.06901 17.7083 8.37558 17.8397 8.66561 18.0025C8.92544 18.1283 9.14433 18.3252 9.29692 18.5703C9.44951 18.8153 9.52958 19.0986 9.52786 19.3873C9.5362 19.5989 9.493 19.8093 9.40197 20.0005C9.31093 20.1917 9.1748 20.3578 9.00528 20.4847C8.57935 20.775 8.06985 20.9173 7.55515 20.8897C7.15101 20.8953 6.75028 20.8151 6.37936 20.6546C6.03044 20.5256 5.73256 20.2873 5.53018 19.9752C5.34612 19.6964 5.2505 19.3686 5.25583 19.0346H6.56226C6.55086 19.151 6.56481 19.2685 6.60315 19.379C6.64149 19.4895 6.70331 19.5904 6.78435 19.6747C6.8865 19.7734 7.00725 19.8508 7.13957 19.9024C7.2719 19.954 7.41316 19.9787 7.55515 19.9752C7.73628 19.9857 7.91571 19.9351 8.06465 19.8315C8.12517 19.7766 8.16938 19.7061 8.19243 19.6278C8.21548 19.5494 8.21647 19.4662 8.1953 19.3873Z" fill="#E42525"/>
<path d="M14.7017 18.2375C14.7141 18.7193 14.6158 19.1976 14.4143 19.6354C14.2338 20.0207 13.9428 20.3437 13.5781 20.563C13.2128 20.786 12.7911 20.8993 12.3632 20.8896C11.9372 20.8977 11.517 20.7893 11.1482 20.576C10.7906 20.3597 10.501 20.0474 10.3121 19.6746C10.1131 19.2679 10.0103 18.8209 10.0116 18.3682V18.0677C10.0005 17.586 10.0988 17.108 10.299 16.6698C10.4785 16.2879 10.7642 15.9659 11.122 15.7422C11.4926 15.5202 11.9182 15.407 12.3501 15.4156C12.778 15.4058 13.1997 15.5192 13.5651 15.7422C13.9293 15.9562 14.2206 16.2749 14.4012 16.6567C14.6062 17.0892 14.709 17.563 14.7017 18.0415V18.2375ZM13.3952 18.0154C13.4263 17.5938 13.3356 17.1721 13.134 16.8004C13.0536 16.6691 12.94 16.5613 12.8047 16.4879C12.6694 16.4145 12.5171 16.3781 12.3632 16.3824C11.723 16.3824 11.3703 16.8788 11.3441 17.8456V18.2375C11.3194 18.6587 11.4097 19.0787 11.6054 19.4525C11.6852 19.5882 11.8002 19.6999 11.9381 19.7758C12.0761 19.8516 12.2319 19.8889 12.3893 19.8836C12.5412 19.8869 12.6913 19.8499 12.8244 19.7765C12.9575 19.7031 13.0688 19.5958 13.147 19.4656C13.341 19.0959 13.4313 18.6805 13.4083 18.2636L13.3952 18.0154Z" fill="#E42525"/>
<path d="M18.1376 19.3873C18.1412 19.3032 18.1254 19.2194 18.0914 19.1424C18.0574 19.0653 18.0061 18.9972 17.9416 18.9431C17.724 18.7997 17.4863 18.6896 17.2361 18.6165C16.9532 18.5305 16.678 18.4213 16.4131 18.2899C16.117 18.1874 15.8587 17.9979 15.6722 17.7461C15.4857 17.4943 15.3797 17.1921 15.3679 16.879C15.3597 16.595 15.4522 16.3173 15.6292 16.0951C15.8218 15.8554 16.0741 15.6707 16.3608 15.5595C16.7039 15.4342 17.0669 15.3722 17.4321 15.3766C17.7874 15.3687 18.14 15.4401 18.4642 15.5856C18.7588 15.7023 19.0099 15.9078 19.1827 16.1735C19.3521 16.4286 19.4388 16.7296 19.4309 17.0357H18.1245C18.1281 16.942 18.1125 16.8484 18.0788 16.7609C18.0452 16.6733 17.994 16.5934 17.9285 16.5262C17.7737 16.4022 17.5776 16.3415 17.3798 16.3564C17.1908 16.3485 17.0039 16.3987 16.8442 16.5001C16.7789 16.5423 16.7255 16.6004 16.6889 16.669C16.6523 16.7376 16.6338 16.8143 16.6352 16.892C16.6406 16.968 16.6635 17.0417 16.702 17.1074C16.7406 17.1731 16.7937 17.229 16.8573 17.2709C17.1003 17.4224 17.3644 17.5368 17.6411 17.6106C17.959 17.7083 18.2656 17.8397 18.5556 18.0025C18.8154 18.1283 19.0343 18.3252 19.1869 18.5703C19.3395 18.8153 19.4196 19.0986 19.4179 19.3873C19.4262 19.5989 19.383 19.8093 19.292 20.0005C19.2009 20.1917 19.0648 20.3578 18.8953 20.4847C18.4657 20.7778 17.9512 20.9202 17.4321 20.8897C17.0279 20.8953 16.6272 20.8151 16.2563 20.6546C15.9321 20.5266 15.6542 20.3034 15.4594 20.0144C15.2753 19.7356 15.1797 19.4078 15.185 19.0738H16.4915C16.4801 19.1902 16.494 19.3077 16.5323 19.4182C16.5707 19.5287 16.6325 19.6296 16.7136 19.7139C16.9201 19.8677 17.1752 19.9419 17.4321 19.9229C17.6129 19.9306 17.7914 19.8802 17.9416 19.7792C18.0036 19.7347 18.0539 19.6758 18.088 19.6075C18.1222 19.5392 18.1392 19.4636 18.1376 19.3873Z" fill="#E42525"/>
</svg>
