<svg width="25" height="25" viewBox="0 0 25 25" fill="none" xmlns="http://www.w3.org/2000/svg">
<path d="M17.6399 1.37574C18.8262 1.37574 19.9859 1.72753 20.9723 2.38662C21.9587 3.04571 22.7275 3.9825 23.1815 5.07853C23.6355 6.17455 23.7543 7.38059 23.5228 8.54412C23.2914 9.70766 22.7201 10.7764 21.8812 11.6153C21.0424 12.4542 19.9736 13.0254 18.8101 13.2569C17.6465 13.4883 16.4405 13.3695 15.3445 12.9155C14.2484 12.4616 13.3117 11.6927 12.6526 10.7064C11.9935 9.71995 11.6417 8.56026 11.6417 7.37393C11.6417 5.78312 12.2736 4.25745 13.3985 3.13257C13.9555 2.57559 14.6167 2.13377 15.3445 1.83233C16.0722 1.53089 16.8522 1.37574 17.6399 1.37574V1.37574ZM17.6399 1.28392e-05C16.1809 -0.00270919 14.7538 0.427449 13.5394 1.23605C12.325 2.04465 11.3777 3.19535 10.8175 4.54251C10.2572 5.88968 10.1092 7.37276 10.3922 8.80406C10.6752 10.2354 11.3764 11.5506 12.4071 12.5832C13.4378 13.6158 14.7517 14.3195 16.1825 14.6051C17.6132 14.8908 19.0966 14.7456 20.4448 14.1879C21.793 13.6301 22.9455 12.685 23.7564 11.4721C24.5672 10.2592 25 8.83294 25 7.37393C25 5.42063 24.225 3.54713 22.8451 2.16464C21.4652 0.782159 19.5932 0.00365706 17.6399 1.28392e-05V1.28392e-05Z" fill="black"/>
<path d="M17.64 11.9001C17.4576 11.9001 17.2826 11.8277 17.1536 11.6987C17.0246 11.5697 16.9521 11.3947 16.9521 11.2123V5.70935C16.9521 5.52692 17.0246 5.35196 17.1536 5.22296C17.2826 5.09396 17.4576 5.02148 17.64 5.02148C17.8224 5.02148 17.9974 5.09396 18.1264 5.22296C18.2554 5.35196 18.3279 5.52692 18.3279 5.70935V11.2123C18.3244 11.3936 18.2508 11.5665 18.1225 11.6948C17.9943 11.823 17.8213 11.8966 17.64 11.9001Z" fill="#E42525"/>
<path d="M15.0259 24.7766H14.2693C8.46367 24.1438 0.0579522 15.0364 0.00292292 9.17583C-0.0231592 8.31515 0.125537 7.45811 0.440026 6.65652C0.754514 5.85493 1.22826 5.12543 1.83265 4.5121C2.40864 3.9129 3.1902 3.55407 4.02006 3.50781H5.21695C5.65045 3.56629 6.0508 3.77163 6.35123 4.08958C6.65165 4.40753 6.83399 4.81887 6.86782 5.25499C7.06043 5.86031 7.25303 6.50691 7.44563 7.13974C7.63823 7.77258 7.81708 8.3779 8.00968 8.95571C8.08719 9.29647 8.07052 9.65191 7.96147 9.98392C7.85241 10.3159 7.65507 10.612 7.3906 10.8405C7.02069 11.2279 6.63035 11.5953 6.22123 11.941V11.941V12.0373C7.34252 14.7046 9.36253 16.895 11.9305 18.2281L12.0543 18.2969L12.1369 18.2281C12.4262 17.8984 12.7439 17.5946 13.0861 17.3202L13.4163 17.0725C13.6643 16.8798 13.9548 16.7493 14.2635 16.6919C14.5723 16.6344 14.8903 16.6517 15.191 16.7424C15.7963 16.9625 16.4016 17.2239 17.0207 17.4852C17.6398 17.7466 18.1901 17.9668 18.7679 18.1869C19.3457 18.407 20.405 18.8472 20.2812 20.0304V21.1034C20.2314 21.538 20.0964 21.9586 19.8839 22.341C19.6715 22.7234 19.3857 23.0602 19.0431 23.3321C17.9195 24.2779 16.4945 24.7903 15.0259 24.7766V24.7766ZM4.02006 4.88354C3.57012 4.9476 3.1566 5.16652 2.85069 5.50262C2.3844 5.98686 2.02187 6.56118 1.78532 7.19043C1.54876 7.81967 1.44315 8.49058 1.47496 9.16207C1.47496 14.266 9.42668 22.9194 14.4894 23.3734C15.1517 23.4677 15.8263 23.426 16.4721 23.251C17.1178 23.076 17.7211 22.7712 18.2451 22.3553C18.6524 22.0638 18.929 21.6242 19.0155 21.1309V20.0166C19.0155 19.879 19.0155 19.7965 18.3689 19.5351C17.7223 19.2737 17.1858 19.0536 16.5805 18.8059C15.9752 18.5583 15.3974 18.3107 14.8058 18.0906C14.6682 18.0906 14.4756 18.0906 14.228 18.2969L14.0767 18.4207C13.7557 18.68 13.4566 18.9653 13.1824 19.2737C12.2607 20.0304 11.6279 19.7139 11.3252 19.4663C8.49824 17.9721 6.28004 15.5399 5.05186 12.5876C4.88018 12.3132 4.82016 11.9835 4.88413 11.6662C4.9481 11.3489 5.1312 11.0682 5.39579 10.8817C5.80851 10.5378 6.11117 10.2351 6.48262 9.86369C6.48262 9.86369 6.78528 9.53352 6.73025 9.32716C6.56516 8.77686 6.37256 8.15779 6.19372 7.53871C6.01487 6.91963 5.75348 6.25928 5.56088 5.66771C5.39579 4.96609 5.25822 4.95233 5.14816 4.88354H4.02006Z" fill="black"/>
<path d="M17.64 4.19556C18.0199 4.19556 18.3279 3.88759 18.3279 3.50769C18.3279 3.12779 18.0199 2.81982 17.64 2.81982C17.2601 2.81982 16.9521 3.12779 16.9521 3.50769C16.9521 3.88759 17.2601 4.19556 17.64 4.19556Z" fill="#E42525"/>
</svg>
