<svg width="25" height="25" viewBox="0 0 25 25" fill="none" xmlns="http://www.w3.org/2000/svg">
<path d="M12.5 1.41885C14.6892 1.42167 16.8286 2.07289 18.648 3.29033C20.4675 4.50778 21.8856 6.23689 22.7234 8.25947C23.5612 10.2821 23.7811 12.5075 23.3553 14.6549C22.9296 16.8023 21.8773 18.7755 20.3313 20.3255C18.7853 21.8755 16.8147 22.9328 14.6684 23.3641C12.5221 23.7953 10.2961 23.5811 8.27137 22.7485C6.24666 21.9159 4.51393 20.5022 3.29184 18.6858C2.06975 16.8694 1.41307 14.7318 1.40466 12.5426C1.40093 11.0831 1.68516 9.63727 2.24108 8.28785C2.797 6.93842 3.61369 5.71193 4.64436 4.67863C5.67503 3.64532 6.89943 2.82551 8.24743 2.26614C9.59543 1.70677 11.0405 1.41884 12.5 1.41885V1.41885ZM12.5 8.07151e-06C10.0277 8.07151e-06 7.61099 0.73312 5.55538 2.10664C3.49976 3.48015 1.89761 5.43239 0.951511 7.71646C0.00541592 10.0005 -0.242126 12.5139 0.24019 14.9386C0.722505 17.3634 1.91301 19.5907 3.66117 21.3388C5.40932 23.087 7.63661 24.2775 10.0614 24.7598C12.4861 25.2421 14.9995 24.9946 17.2835 24.0485C19.5676 23.1024 21.5198 21.5002 22.8934 19.4446C24.2669 17.389 25 14.9723 25 12.5C25.0019 10.858 24.6798 9.23166 24.0523 7.71425C23.4248 6.19684 22.5041 4.81811 21.343 3.65701C20.1819 2.4959 18.8032 1.57523 17.2857 0.947711C15.7683 0.320189 14.142 -0.00185895 12.5 8.07151e-06V8.07151e-06Z" fill="black"/>
<path d="M12.4996 18.9699C16.0493 18.9699 18.927 16.0923 18.927 12.5426C18.927 8.99286 16.0493 6.11523 12.4996 6.11523C8.94989 6.11523 6.07227 8.99286 6.07227 12.5426C6.07227 16.0923 8.94989 18.9699 12.4996 18.9699Z" fill="white"/>
<path d="M12.5 6.11524C11.0013 6.11423 9.54931 6.63702 8.3952 7.59318C7.24109 8.54935 6.45741 9.87878 6.17969 11.3516C5.90196 12.8243 6.14765 14.3479 6.87428 15.6587C7.6009 16.9695 8.76276 17.9852 10.1589 18.5301C10.0668 17.9187 10.0668 17.297 10.1589 16.6856C10.2866 16.1748 10.9109 13.4932 10.9109 13.4932C10.7862 13.187 10.7235 12.859 10.7265 12.5284C10.7265 11.6345 11.2373 10.9677 11.8899 10.9677C12.005 10.9668 12.119 10.9905 12.2242 11.0372C12.3294 11.0839 12.4234 11.1525 12.5 11.2385C12.5765 11.3245 12.6339 11.4258 12.6681 11.5357C12.7024 11.6456 12.7128 11.7615 12.6987 11.8757C12.5801 12.6025 12.4045 13.3189 12.1737 14.0182C12.1349 14.16 12.1306 14.309 12.1611 14.4528C12.1916 14.5967 12.2561 14.7311 12.3491 14.8449C12.4421 14.9588 12.561 15.0487 12.6959 15.1073C12.8307 15.1659 12.9776 15.1914 13.1243 15.1816C14.2594 15.1816 15.1391 13.9756 15.1391 12.2304C15.1493 11.88 15.0869 11.5312 14.9557 11.206C14.8245 10.8809 14.6275 10.5864 14.3769 10.3412C14.1263 10.0959 13.8277 9.90522 13.4998 9.78107C13.1719 9.65691 12.8218 9.602 12.4717 9.61977C12.0931 9.61031 11.7164 9.67671 11.3639 9.81507C11.0114 9.95344 10.6902 10.161 10.4191 10.4254C10.148 10.6899 9.93264 11.0059 9.78561 11.3549C9.63859 11.7039 9.56291 12.0788 9.56303 12.4575C9.57293 12.969 9.7415 13.4648 10.0454 13.8763C10.0616 13.9043 10.0701 13.9361 10.0701 13.9685C10.0701 14.0009 10.0616 14.0327 10.0454 14.0607C10.0454 14.2594 9.88936 14.6992 9.87517 14.7844C9.86099 14.8695 9.77586 14.9262 9.66235 14.8695C9.24827 14.6042 8.91025 14.2359 8.68141 13.8006C8.45258 13.3653 8.34079 12.878 8.35701 12.3865C8.35615 11.842 8.4697 11.3033 8.69031 10.8054C8.91091 10.3076 9.23366 9.86158 9.63762 9.49641C10.0416 9.13123 10.5178 8.855 11.0353 8.6856C11.5529 8.51621 12.1002 8.45743 12.6419 8.51308C13.1458 8.48831 13.6494 8.5648 14.1232 8.73802C14.597 8.91124 15.0312 9.17767 15.4003 9.52158C15.7693 9.86549 16.0657 10.2799 16.2718 10.7403C16.478 11.2007 16.5897 11.6977 16.6005 12.2021C16.6512 12.685 16.6046 13.1732 16.4634 13.6377C16.3223 14.1023 16.0893 14.5339 15.7785 14.9069C15.4676 15.2799 15.0851 15.5869 14.6536 15.8095C14.2221 16.0322 13.7503 16.166 13.2662 16.2032C12.9878 16.2034 12.7135 16.1364 12.4665 16.008C12.2195 15.8795 12.0071 15.6934 11.8474 15.4654C11.8474 15.4654 11.4785 16.6998 11.3366 17.0261C11.1438 17.6201 10.8769 18.1874 10.542 18.7145C11.4191 18.9682 12.3401 19.0321 13.2438 18.902C14.1475 18.7719 15.0131 18.4508 15.7829 17.96C16.5528 17.4692 17.2093 16.8201 17.7086 16.0557C18.208 15.2914 18.5388 14.4295 18.679 13.5273C18.8192 12.6251 18.7656 11.7034 18.5217 10.8236C18.2779 9.94376 17.8494 9.12598 17.2648 8.4247C16.6802 7.72342 15.9528 7.15474 15.1313 6.75652C14.3097 6.3583 13.4127 6.13969 12.5 6.11524V6.11524Z" fill="#DD001B"/>
</svg>
