<svg width="25" height="25" viewBox="0 0 25 25" fill="none" xmlns="http://www.w3.org/2000/svg">
<path d="M12.5 1.41884C14.6916 1.41884 16.8341 2.06874 18.6564 3.28635C20.4786 4.50397 21.8989 6.23461 22.7377 8.25942C23.5764 10.2842 23.7958 12.5123 23.3682 14.6618C22.9407 16.8114 21.8853 18.7858 20.3356 20.3356C18.7858 21.8853 16.8114 22.9407 14.6618 23.3682C12.5123 23.7958 10.2842 23.5764 8.25943 22.7377C6.23461 21.8989 4.50397 20.4786 3.28636 18.6564C2.06875 16.8341 1.41885 14.6916 1.41885 12.5C1.4226 9.56225 2.59128 6.74589 4.66859 4.66858C6.7459 2.59128 9.56225 1.4226 12.5 1.41884V1.41884ZM12.5 0C10.0277 0 7.61099 0.733112 5.55538 2.10663C3.49976 3.48015 1.89761 5.43238 0.951511 7.71646C0.00541609 10.0005 -0.242126 12.5139 0.24019 14.9386C0.722505 17.3634 1.91301 19.5907 3.66117 21.3388C5.40933 23.087 7.63661 24.2775 10.0614 24.7598C12.4861 25.2421 14.9995 24.9946 17.2835 24.0485C19.5676 23.1024 21.5199 21.5002 22.8934 19.4446C24.2669 17.389 25 14.9723 25 12.5C25 9.18479 23.683 6.00537 21.3388 3.66116C18.9946 1.31696 15.8152 0 12.5 0V0Z" fill="black"/>
<path d="M9.46381 8.17265L17.2391 12.7697L9.46381 17.3384V8.17265ZM8.96722 6.38491C8.81476 6.38226 8.6639 6.41633 8.52737 6.48423V6.48423C8.38833 6.55757 8.27232 6.66797 8.19218 6.80321C8.11204 6.93844 8.07091 7.09323 8.07334 7.2504V18.2039C8.07758 18.4321 8.16259 18.6514 8.31326 18.8228C8.46393 18.9943 8.6705 19.1068 8.89627 19.1403H8.9814C9.20515 19.1388 9.42119 19.0584 9.59151 18.9133V18.9133L18.743 13.5217C18.8701 13.4418 18.9745 13.3308 19.0466 13.1992C19.1186 13.0676 19.1557 12.9197 19.1545 12.7697C19.1586 12.6175 19.1212 12.467 19.0462 12.3345C18.9712 12.202 18.8615 12.0925 18.7288 12.0177L9.44962 6.51261C9.30255 6.42908 9.13635 6.38509 8.96722 6.38491V6.38491Z" fill="#E42525"/>
</svg>
