<svg width="16" height="25" viewBox="0 0 16 25" fill="none" xmlns="http://www.w3.org/2000/svg">
<path d="M6.05296 25.0002C5.85954 25.0002 5.67404 24.9234 5.53727 24.7866C5.4005 24.6498 5.32367 24.4643 5.32367 24.2709V15.6653C5.32367 15.4719 5.4005 15.2864 5.53727 15.1496C5.67404 15.0129 5.85954 14.936 6.05296 14.936C6.24638 14.936 6.43187 15.0129 6.56864 15.1496C6.70541 15.2864 6.78225 15.4719 6.78225 15.6653V24.2709C6.78225 24.4643 6.70541 24.6498 6.56864 24.7866C6.43187 24.9234 6.24638 25.0002 6.05296 25.0002Z" fill="#E42525"/>
<path d="M9.55338 25.0002C9.35997 25.0002 9.17447 24.9234 9.0377 24.7866C8.90093 24.6498 8.8241 24.4643 8.8241 24.2709V15.6653C8.8241 15.4719 8.90093 15.2864 9.0377 15.1496C9.17447 15.0129 9.35997 14.936 9.55338 14.936C9.7468 14.936 9.9323 15.0129 10.0691 15.1496C10.2058 15.2864 10.2827 15.4719 10.2827 15.6653V24.2709C10.2827 24.4643 10.2058 24.6498 10.0691 24.7866C9.9323 24.9234 9.7468 25.0002 9.55338 25.0002Z" fill="#E42525"/>
<path d="M14.2357 9.84581H1.66278C1.2243 9.84582 0.803558 9.67264 0.492143 9.36396C0.180728 9.05527 0.00384632 8.63608 0 8.19761V6.987C0.00380816 6.54718 0.180216 6.12645 0.491226 5.81544C0.802235 5.50443 1.22296 5.32803 1.66278 5.32422H14.2357C14.6755 5.32803 15.0962 5.50443 15.4073 5.81544C15.7183 6.12645 15.8947 6.54718 15.8985 6.987V8.19761C15.8946 8.63608 15.7178 9.05527 15.4063 9.36396C15.0949 9.67264 14.6742 9.84582 14.2357 9.84581V9.84581ZM1.66278 6.7828C1.60975 6.78623 1.55978 6.80884 1.5222 6.84642C1.48462 6.884 1.46201 6.93397 1.45858 6.987V8.19761C1.46227 8.2492 1.4854 8.29747 1.52331 8.33267C1.56121 8.36786 1.61105 8.38736 1.66278 8.38723H14.2357C14.2874 8.38736 14.3373 8.36786 14.3752 8.33267C14.4131 8.29747 14.4362 8.2492 14.4399 8.19761V6.987C14.4365 6.93397 14.4139 6.884 14.3763 6.84642C14.3387 6.80884 14.2887 6.78623 14.2357 6.7828H1.66278Z" fill="black"/>
<path d="M12.5144 6.62194H9.33475V2.04201C9.33475 1.50043 9.54989 0.981041 9.93284 0.59809C10.3158 0.215139 10.8352 0 11.3768 0C11.9183 0 12.4377 0.215139 12.8207 0.59809C13.2036 0.981041 13.4188 1.50043 13.4188 2.04201V6.00933H11.9602C11.952 6.08687 11.9602 6.16526 11.9844 6.2394C12.0085 6.31353 12.0481 6.38173 12.1004 6.43955C12.1527 6.49736 12.2166 6.54349 12.2879 6.57492C12.3593 6.60635 12.4365 6.62237 12.5144 6.62194V6.62194ZM10.7933 5.16336H11.9602V2.04201C11.9602 1.88727 11.8987 1.73887 11.7893 1.62946C11.6799 1.52004 11.5315 1.45858 11.3768 1.45858C11.222 1.45858 11.0736 1.52004 10.9642 1.62946C10.8548 1.73887 10.7933 1.88727 10.7933 2.04201V5.16336Z" fill="black"/>
<path d="M6.56387 6.62194H3.38418C3.53117 6.62194 3.67215 6.56354 3.7761 6.4596C3.88004 6.35565 3.93843 6.21468 3.93843 6.06768H2.47986V2.04201C2.47986 1.50043 2.695 0.981041 3.07795 0.59809C3.4609 0.215139 3.98029 0 4.52186 0C5.06344 0 5.58283 0.215139 5.96578 0.59809C6.34873 0.981041 6.56387 1.50043 6.56387 2.04201V6.62194ZM3.93843 5.16336H5.1053V2.04201C5.1053 1.88727 5.04383 1.73887 4.93441 1.62946C4.825 1.52004 4.6766 1.45858 4.52186 1.45858C4.36713 1.45858 4.21873 1.52004 4.10932 1.62946C3.9999 1.73887 3.93843 1.88727 3.93843 2.04201V5.16336Z" fill="black"/>
<path d="M8.03661 16.3505H7.71573C6.30719 16.3277 4.9634 15.7551 3.97138 14.7549C2.97935 13.7547 2.41775 12.4062 2.40651 10.9976V8.38672H13.4917V10.9976C13.486 11.7075 13.3402 12.4094 13.0628 13.0629C12.7854 13.7164 12.3817 14.3088 11.875 14.8061C11.3682 15.3033 10.7683 15.6957 10.1097 15.9608C9.45103 16.2258 8.74655 16.3582 8.03661 16.3505V16.3505ZM3.86509 9.8453V10.9976C3.86893 12.037 4.28354 13.0327 5.01852 13.7677C5.7535 14.5027 6.74924 14.9173 7.78866 14.9211H8.10954C9.13625 14.8983 10.1134 14.4754 10.8327 13.7424C11.5521 13.0095 11.9566 12.0245 11.9602 10.9976V9.8453H3.86509Z" fill="black"/>
</svg>
