<svg width="25" height="25" viewBox="0 0 25 25" fill="none" xmlns="http://www.w3.org/2000/svg">
<path d="M12.5 1.41885C14.6922 1.41604 16.8361 2.06355 18.6602 3.27946C20.4844 4.49536 21.9069 6.22502 22.7478 8.24959C23.5886 10.2742 23.8101 12.5026 23.3841 14.6531C22.9582 16.8036 21.9039 18.7794 20.3548 20.3305C18.8056 21.8817 16.8312 22.9385 14.6812 23.3672C12.5313 23.7959 10.3025 23.5773 8.2769 22.739C6.25125 21.9007 4.51978 20.4804 3.30154 18.6578C2.08329 16.8352 1.43304 14.6922 1.43304 12.5C1.43303 9.56355 2.59856 6.74717 4.67361 4.66946C6.74866 2.59174 9.56355 1.42261 12.5 1.41885V1.41885ZM12.5 8.07151e-06C10.0277 8.07151e-06 7.61099 0.73312 5.55537 2.10664C3.49976 3.48015 1.89761 5.43239 0.951511 7.71646C0.00541609 10.0005 -0.242126 12.5139 0.240189 14.9386C0.722504 17.3634 1.91301 19.5907 3.66117 21.3388C5.40932 23.087 7.63661 24.2775 10.0614 24.7598C12.4861 25.2421 14.9995 24.9946 17.2835 24.0485C19.5676 23.1024 21.5198 21.5002 22.8934 19.4446C24.2669 17.389 25 14.9723 25 12.5C25.0019 10.858 24.6798 9.23166 24.0523 7.71425C23.4248 6.19684 22.5041 4.81811 21.343 3.65701C20.1819 2.4959 18.8032 1.57523 17.2857 0.947711C15.7683 0.320189 14.142 -0.00185895 12.5 8.07151e-06V8.07151e-06Z" fill="black"/>
<path d="M12.4011 19.5094C12.2129 19.5094 12.0325 19.4347 11.8994 19.3016C11.7664 19.1686 11.6917 18.9881 11.6917 18.8V6.17231C11.6917 5.98416 11.7664 5.80372 11.8994 5.67068C12.0325 5.53763 12.2129 5.46289 12.4011 5.46289C12.5892 5.46289 12.7697 5.53763 12.9027 5.67068C13.0357 5.80372 13.1105 5.98416 13.1105 6.17231V18.8C13.1105 18.9881 13.0357 19.1686 12.9027 19.3016C12.7697 19.4347 12.5892 19.5094 12.4011 19.5094Z" fill="#E42525"/>
<path d="M18.7145 13.1952H6.08686C5.89871 13.1952 5.71827 13.1205 5.58523 12.9874C5.45218 12.8544 5.37744 12.6739 5.37744 12.4858C5.37744 12.2976 5.45218 12.1172 5.58523 11.9842C5.71827 11.8511 5.89871 11.7764 6.08686 11.7764H18.7145C18.9027 11.7764 19.0831 11.8511 19.2162 11.9842C19.3492 12.1172 19.424 12.2976 19.424 12.4858C19.424 12.6739 19.3492 12.8544 19.2162 12.9874C19.0831 13.1205 18.9027 13.1952 18.7145 13.1952Z" fill="#E42525"/>
</svg>
