<svg width="25" height="26" viewBox="0 0 25 26" fill="none" xmlns="http://www.w3.org/2000/svg">
<path d="M12.0615 6.51962C11.8728 6.51865 11.6911 6.44798 11.5513 6.3212C11.4205 6.18634 11.3474 6.00588 11.3474 5.81805C11.3474 5.63022 11.4205 5.44977 11.5513 5.31491L14.3859 2.56533C14.4495 2.49754 14.5264 2.44351 14.6117 2.40658C14.697 2.36964 14.789 2.35059 14.8819 2.35059C14.9749 2.35059 15.0669 2.36964 15.1522 2.40658C15.2375 2.44351 15.3144 2.49754 15.378 2.56533C15.4444 2.63121 15.4971 2.70959 15.5331 2.79595C15.5691 2.8823 15.5876 2.97493 15.5876 3.06848C15.5876 3.16203 15.5691 3.25465 15.5331 3.34101C15.4971 3.42737 15.4444 3.50574 15.378 3.57162L12.5576 6.3212C12.4228 6.44705 12.2459 6.51785 12.0615 6.51962V6.51962Z" fill="#E42525"/>
<path d="M2.99083 15.9164C2.89789 15.9175 2.80574 15.8992 2.72031 15.8626C2.63488 15.826 2.55805 15.7719 2.49477 15.7038C2.42835 15.6379 2.37563 15.5595 2.33966 15.4732C2.30368 15.3868 2.28516 15.2942 2.28516 15.2007C2.28516 15.1071 2.30368 15.0145 2.33966 14.9281C2.37563 14.8418 2.42835 14.7634 2.49477 14.6975L5.55616 11.6928C5.62082 11.6268 5.698 11.5744 5.78318 11.5386C5.86836 11.5028 5.95982 11.4844 6.05221 11.4844C6.14461 11.4844 6.23607 11.5028 6.32125 11.5386C6.40643 11.5744 6.48361 11.6268 6.54827 11.6928C6.61469 11.7587 6.66741 11.8371 6.70339 11.9234C6.73937 12.0098 6.75789 12.1024 6.75789 12.196C6.75789 12.2895 6.73937 12.3821 6.70339 12.4685C6.66741 12.5549 6.61469 12.6332 6.54827 12.6991L3.48689 15.7038C3.42361 15.7719 3.34679 15.826 3.26136 15.8626C3.17592 15.8992 3.08377 15.9175 2.99083 15.9164V15.9164Z" fill="#E42525"/>
<path d="M4.59207 9.68049H0.708653C0.520707 9.68049 0.340458 9.60583 0.20756 9.47293C0.0746614 9.34003 0 9.15978 0 8.97184C0 8.78389 0.0746614 8.60364 0.20756 8.47074C0.340458 8.33785 0.520707 8.26318 0.708653 8.26318H4.59207C4.78002 8.26318 4.96027 8.33785 5.09317 8.47074C5.22606 8.60364 5.30073 8.78389 5.30073 8.97184C5.30073 9.15978 5.22606 9.34003 5.09317 9.47293C4.96027 9.60583 4.78002 9.68049 4.59207 9.68049Z" fill="#E42525"/>
<path d="M8.95719 5.3149C8.77038 5.31127 8.59223 5.23544 8.46011 5.10332C8.32799 4.9712 8.25216 4.79306 8.24854 4.60625V0.708653C8.24854 0.520707 8.3232 0.340458 8.4561 0.20756C8.58899 0.0746614 8.76924 0 8.95719 0C9.14513 0 9.32538 0.0746614 9.45828 0.20756C9.59118 0.340458 9.66584 0.520707 9.66584 0.708653V4.60625C9.66584 4.79419 9.59118 4.97444 9.45828 5.10734C9.32538 5.24024 9.14513 5.3149 8.95719 5.3149Z" fill="#E42525"/>
<path d="M6.02356 6.6188C5.84548 6.62011 5.67345 6.55433 5.54167 6.43455L2.70706 3.79836C2.60555 3.7499 2.51703 3.67797 2.44883 3.58852C2.38063 3.49907 2.3347 3.39467 2.31484 3.28395C2.29498 3.17323 2.30177 3.05937 2.33463 2.95179C2.3675 2.84422 2.4255 2.74601 2.50385 2.66529C2.58219 2.58457 2.67863 2.52366 2.78517 2.4876C2.89172 2.45154 3.00533 2.44136 3.11659 2.4579C3.22785 2.47445 3.33358 2.51724 3.42503 2.58274C3.51647 2.64824 3.59101 2.73457 3.64248 2.83459L6.4771 5.45661C6.60784 5.59147 6.68096 5.77192 6.68096 5.95976C6.68096 6.14759 6.60784 6.32804 6.4771 6.4629C6.34863 6.566 6.18826 6.62113 6.02356 6.6188Z" fill="#E42525"/>
<path d="M22.1104 25.0867C21.9934 25.0879 21.8774 25.0646 21.77 25.0182C21.6626 24.9718 21.5661 24.9034 21.4868 24.8174L17.4191 20.7639L14.4995 23.5985C14.4144 23.6815 14.3099 23.7417 14.1955 23.7737C14.0811 23.8056 13.9605 23.8083 13.8448 23.7815C13.729 23.7547 13.6219 23.6992 13.5332 23.6202C13.4446 23.5412 13.3772 23.4411 13.3373 23.3292L8.14993 8.97193C8.10625 8.84321 8.09902 8.70493 8.12903 8.57236C8.15905 8.43979 8.22514 8.31811 8.32 8.22076C8.41704 8.12541 8.53947 8.06001 8.67267 8.03237C8.80587 8.00472 8.94421 8.016 9.07117 8.06485L23.3151 13.564C23.4266 13.6072 23.5254 13.678 23.6023 13.7697C23.6791 13.8614 23.7314 13.971 23.7545 14.0884C23.7802 14.205 23.7755 14.3262 23.7407 14.4404C23.706 14.5546 23.6424 14.6579 23.556 14.7404L20.7214 17.575L24.7324 21.6001C24.8173 21.6833 24.8847 21.7825 24.9307 21.892C24.9767 22.0015 25.0004 22.1191 25.0004 22.2379C25.0004 22.3567 24.9767 22.4743 24.9307 22.5838C24.8847 22.6933 24.8173 22.7926 24.7324 22.8757L22.7198 24.8174C22.5582 24.9812 22.3403 25.0775 22.1104 25.0867ZM17.4333 19.0632C17.5252 19.0602 17.6167 19.0763 17.7021 19.1105C17.7875 19.1446 17.8648 19.1961 17.9293 19.2616L22.1813 23.4426L23.4568 22.1812L19.3041 18.0143C19.236 17.9511 19.182 17.8742 19.1453 17.7888C19.1087 17.7034 19.0904 17.6112 19.0915 17.5183C19.0902 17.4232 19.1083 17.3289 19.1449 17.2411C19.1815 17.1533 19.2357 17.074 19.3041 17.0081L21.8553 14.4994L9.96408 9.92153L14.216 21.8269L16.8664 19.2332C16.9414 19.1631 17.0316 19.1113 17.1299 19.0818C17.2282 19.0523 17.3321 19.0459 17.4333 19.0632V19.0632Z" fill="black"/>
</svg>
