<svg width="22" height="25" viewBox="0 0 22 25" fill="none" xmlns="http://www.w3.org/2000/svg">
<path d="M13.0869 16.6899C12.9258 16.6877 12.7675 16.6481 12.6243 16.5742L10.8026 15.6923L8.96644 16.6031C8.79307 16.6913 8.59872 16.7299 8.40481 16.7146C8.21091 16.6993 8.02501 16.6307 7.86764 16.5164C7.71561 16.4041 7.59469 16.2549 7.51628 16.0829C7.43786 15.9108 7.40454 15.7217 7.41945 15.5333L7.72306 13.4658L6.27728 12.02C6.1355 11.8705 6.03863 11.6841 5.99773 11.4821C5.95682 11.2802 5.97353 11.0708 6.04595 10.8778C6.1193 10.6991 6.24034 10.5438 6.39585 10.4291C6.55137 10.3144 6.7354 10.2446 6.92788 10.2272L8.89415 9.90917L9.83391 8.10194C9.94027 7.92923 10.0892 7.7867 10.2664 7.68798C10.4436 7.58925 10.6431 7.53765 10.846 7.53809C11.0318 7.55174 11.2113 7.61185 11.3679 7.71289C11.5245 7.81393 11.6533 7.95268 11.7423 8.1164L12.6821 9.90917L14.6917 10.2562C14.8686 10.2767 15.0364 10.3456 15.1767 10.4552C15.317 10.5649 15.4243 10.7111 15.4869 10.8778C15.5577 11.0633 15.5776 11.2643 15.5445 11.4601C15.5115 11.6558 15.4267 11.8391 15.299 11.9911L13.8532 13.4369L14.1568 15.4754C14.181 15.671 14.1522 15.8695 14.0733 16.0501C13.9945 16.2307 13.8685 16.3868 13.7086 16.5019C13.5267 16.6293 13.3089 16.6951 13.0869 16.6899V16.6899ZM7.85318 11.514L8.89415 12.5694C9.01485 12.6966 9.1029 12.8512 9.15075 13.0199C9.19859 13.1886 9.2048 13.3664 9.16885 13.5381L8.96644 14.9839L10.3255 14.2465C10.5826 14.155 10.8635 14.155 11.1207 14.2465H11.2652L12.5954 14.9116L12.3785 13.4658C12.3677 13.1868 12.438 12.9106 12.5809 12.6706L13.7231 11.4995L12.2773 11.2538C11.9911 11.1774 11.7406 11.0035 11.5688 10.7622L10.8315 9.3164L10.1231 10.661C10.0518 10.7957 9.95331 10.9141 9.83384 11.0086C9.71437 11.1032 9.57653 11.1719 9.42909 11.2104L7.85318 11.514Z" fill="#E42525"/>
<path d="M10.7884 7.45215C11.7635 7.45215 12.7167 7.74129 13.5274 8.28302C14.3382 8.82475 14.9701 9.59473 15.3433 10.4956C15.7164 11.3965 15.814 12.3877 15.6238 13.3441C15.4336 14.3004 14.964 15.1789 14.2745 15.8684C13.5851 16.5579 12.7066 17.0274 11.7502 17.2177C10.7939 17.4079 9.80261 17.3103 8.90174 16.9371C8.00088 16.564 7.2309 15.932 6.68917 15.1213C6.14745 14.3105 5.8583 13.3574 5.8583 12.3823C5.8583 11.0747 6.37772 9.82072 7.3023 8.89614C8.22687 7.97157 9.48087 7.45215 10.7884 7.45215V7.45215ZM10.7884 6.00636C9.52677 6.0035 8.29264 6.37501 7.24223 7.07386C6.19182 7.77271 5.37235 8.76749 4.88756 9.93228C4.40276 11.0971 4.27443 12.3795 4.51881 13.6173C4.76319 14.855 5.3693 15.9924 6.2604 16.8856C7.15151 17.7787 8.28756 18.3874 9.52476 18.6346C10.762 18.8818 12.0447 18.7564 13.2106 18.2742C14.3764 17.7921 15.3731 16.9748 16.0743 15.926C16.7756 14.8772 17.1499 13.6439 17.1499 12.3823C17.1499 10.6938 16.4801 9.07422 15.2875 7.87893C14.0949 6.68363 12.4769 6.01019 10.7884 6.00636Z" fill="#E42525"/>
<path d="M10.7882 24.9887C10.6972 25.0038 10.6044 25.0038 10.5135 24.9887C1.69421 21.432 -1.48651 16.126 1.04361 9.21518C2.18577 6.06338 0.393004 4.76217 0.320715 4.70434C0.226414 4.63928 0.148571 4.55315 0.09336 4.45276C0.0381487 4.35238 0.0070885 4.24051 0.00264319 4.12603C-0.0139646 3.92278 0.0481453 3.72093 0.176137 3.56217L3.15445 0.207958C3.29202 0.0745852 3.4761 0 3.6677 0C3.85931 0 4.04339 0.0745852 4.18095 0.207958C5.02908 0.957053 6.12167 1.37048 7.25324 1.37048C8.38482 1.37048 9.47741 0.957053 10.3255 0.207958C10.4542 0.0970413 10.6183 0.0360246 10.7882 0.0360246C10.958 0.0360246 11.1222 0.0970413 11.2508 0.207958C12.1004 0.954154 13.1924 1.36567 14.3231 1.36567C15.4538 1.36567 16.5459 0.954154 17.3954 0.207958C17.5305 0.0755045 17.7122 0.00131417 17.9014 0.00131417C18.0907 0.00131417 18.2723 0.0755045 18.4075 0.207958L21.3858 3.59109C21.4552 3.66599 21.5069 3.75559 21.5369 3.85321C21.5669 3.95083 21.5746 4.05396 21.5593 4.15494C21.5471 4.2559 21.5138 4.35315 21.4614 4.44035C21.4091 4.52754 21.339 4.60272 21.2556 4.66097C21.1689 4.66097 19.3761 6.10675 20.5328 9.17181C23.0629 16.0827 19.8677 21.3887 11.0484 24.9453C10.9646 24.9736 10.8767 24.9883 10.7882 24.9887ZM1.72312 4.02482C2.35287 4.80795 2.74591 5.7546 2.85605 6.75346C2.96618 7.75232 2.78881 8.76187 2.34481 9.66338C0.899028 13.5381 0.262884 19.1766 10.7304 23.4851C21.1978 19.1477 20.5328 13.5381 19.1159 9.66338C18.6778 8.75787 18.5077 7.74602 18.6255 6.74704C18.7433 5.74805 19.1442 4.80356 19.7809 4.02482L17.7713 1.68266C16.7462 2.40296 15.5209 2.78344 14.2681 2.77047C13.0153 2.7575 11.7982 2.35174 10.7882 1.61037C9.77598 2.35296 8.55634 2.75935 7.30102 2.77232C6.04569 2.78529 4.81792 2.40418 3.79059 1.68266L1.72312 4.02482Z" fill="black"/>
</svg>
