<svg width="25" height="21" viewBox="0 0 25 21" fill="none" xmlns="http://www.w3.org/2000/svg">
<path d="M24.4012 15.3264C24.176 14.72 23.9832 14.1022 23.8236 13.4754C23.6897 12.9922 23.6102 12.4955 23.5867 11.9946C23.5867 9.26987 23.5867 6.54518 23.5867 3.82049V1.16984C23.5867 0.148081 23.4534 0 22.4317 0H2.574C1.50782 0 1.35974 0.133273 1.35974 1.19946V3.86492C1.35974 6.50076 1.35974 9.22545 1.35974 11.8909C1.34282 12.4265 1.2633 12.9583 1.12281 13.4754C0.989536 13.9048 0.88588 14.3342 0.752607 14.7637C0.191589 16.2418 -0.0604015 17.8193 0.0122013 19.3986C0.0862419 20.3167 0.160282 20.45 1.06358 20.45H24.0309C24.7714 20.45 24.9491 20.2723 24.9787 19.4875C25.0689 18.0757 24.8724 16.6602 24.4012 15.3264V15.3264ZM2.79613 1.42158H22.2244V12.0686H2.79613V1.42158ZM2.5592 13.4754H22.4317V13.5938L23.3054 16.437L23.3794 16.6295H1.61148L2.5592 13.4754ZM23.5867 19.058H1.37455V18.1103H23.5867V19.058Z" fill="black"/>
<path d="M16.5973 6.87077L12.9841 3.2576C12.7648 3.0226 12.4613 2.88415 12.14 2.87259L9.78556 2.81335C9.62598 2.80015 9.46543 2.82161 9.31491 2.87626C9.1644 2.93092 9.02749 3.01747 8.91356 3.13C8.79963 3.24252 8.71138 3.37835 8.65486 3.52817C8.59834 3.67799 8.57488 3.83827 8.5861 3.998C8.5861 4.75321 8.5861 5.47881 8.5861 6.27845C8.58779 6.44613 8.62418 6.61164 8.69299 6.76455C8.76181 6.91747 8.86154 7.05447 8.98592 7.16693C9.57825 7.72964 10.1706 8.33678 10.7481 8.9291C11.3256 9.52142 11.9624 10.1434 12.5695 10.7653C12.6751 10.8851 12.805 10.981 12.9505 11.0467C13.096 11.1124 13.2539 11.1463 13.4135 11.1463C13.5732 11.1463 13.7311 11.1124 13.8766 11.0467C14.0221 10.981 14.152 10.8851 14.2576 10.7653C14.998 10.0397 15.7384 9.28449 16.4492 8.5737C16.5812 8.47913 16.6912 8.35711 16.7716 8.21601C16.852 8.07492 16.9009 7.91809 16.915 7.75631C16.9291 7.59452 16.908 7.4316 16.8531 7.27875C16.7983 7.12589 16.711 6.98671 16.5973 6.87077V6.87077ZM11.2664 6.32287C11.0906 6.32287 10.9189 6.27076 10.7728 6.17314C10.6266 6.07551 10.5128 5.93675 10.4455 5.7744C10.3783 5.61205 10.3607 5.4334 10.395 5.26105C10.4292 5.0887 10.5139 4.93039 10.6381 4.80613C10.7624 4.68187 10.9207 4.59725 11.093 4.56297C11.2654 4.52869 11.444 4.54629 11.6064 4.61353C11.7687 4.68078 11.9075 4.79466 12.0051 4.94077C12.1027 5.08688 12.1549 5.25866 12.1549 5.43439C12.1549 5.67003 12.0612 5.89602 11.8946 6.06264C11.728 6.22927 11.502 6.32287 11.2664 6.32287V6.32287Z" fill="#E42525"/>
</svg>
