<svg width="22" height="25" viewBox="0 0 22 25" fill="none" xmlns="http://www.w3.org/2000/svg">
<path d="M4.2805 13.6476C3.10617 12.4868 1.97233 11.3394 0.797999 10.2056C0.501561 9.95473 0.27496 9.63154 0.14016 9.26734C0.00536102 8.90315 -0.0330645 8.5103 0.0286084 8.12689C0.258076 6.19667 0.420052 4.25294 0.622524 2.32272C0.63565 1.89116 0.811142 1.48044 1.11393 1.17265C1.41672 0.864856 1.8245 0.682655 2.25579 0.662456C4.2805 0.432989 6.30521 0.230518 8.32993 0.0145488C8.64351 -0.0237668 8.9617 0.0138663 9.2577 0.124276C9.55369 0.234686 9.8188 0.414636 10.0307 0.648958C13.5267 4.17196 17.0362 7.66796 20.5322 11.191C20.7304 11.3556 20.89 11.5619 20.9994 11.7952C21.1089 12.0285 21.1657 12.2831 21.1657 12.5408C21.1657 12.7985 21.1089 13.053 20.9994 13.2863C20.89 13.5196 20.7304 13.7259 20.5322 13.8906C19.5873 14.8354 18.629 15.7533 17.7111 16.7252C17.5346 16.9214 17.4383 17.1767 17.4411 17.4406C17.527 19.3576 16.8479 21.2303 15.5531 22.6466C14.2583 24.0629 12.4539 24.9068 10.5369 24.9927C8.61982 25.0787 6.74716 24.3995 5.33085 23.1047C3.91455 21.8099 3.0706 20.0055 2.98469 18.0885C2.89587 16.5035 3.35324 14.9361 4.2805 13.6476V13.6476ZM17.1307 15.6183L19.6278 13.0402C19.7063 12.9797 19.7698 12.9019 19.8135 12.813C19.8572 12.7241 19.8799 12.6263 19.8799 12.5273C19.8799 12.4282 19.8572 12.3304 19.8135 12.2415C19.7698 12.1526 19.7063 12.0749 19.6278 12.0143L18.0485 10.4486C15.106 7.51948 12.1769 4.5904 9.2343 1.66131C9.13921 1.55852 9.02457 1.47573 8.8971 1.41779C8.76962 1.35985 8.63187 1.32792 8.4919 1.32386C6.54818 1.48584 4.61795 1.70181 2.68773 1.86379C2.1748 1.86379 1.93184 2.09325 1.87784 2.63318C1.70237 4.5904 1.4999 6.57461 1.31093 8.54533C1.29845 8.7411 1.36122 8.93423 1.4864 9.08526C2.66073 10.3136 3.86206 11.5149 5.04989 12.7297C5.93421 11.8562 7.0265 11.2225 8.2237 10.8882C9.4209 10.5539 10.6835 10.5302 11.8924 10.8193C13.1013 11.1083 14.2167 11.7006 15.1332 12.5403C16.0497 13.38 16.7371 14.4393 17.1307 15.6183V15.6183ZM4.19951 17.8185C4.19696 18.9929 4.54186 20.1419 5.19082 21.1207C5.83977 22.0996 6.76377 22.8646 7.84652 23.3195C8.92927 23.7743 10.1224 23.8988 11.2757 23.6771C12.429 23.4554 13.491 22.8976 14.328 22.0737C15.1649 21.2498 15.7395 20.1968 15.9793 19.0471C16.2192 17.8975 16.1136 16.7025 15.6759 15.6127C15.2381 14.5229 14.4878 13.587 13.5193 12.9227C12.5508 12.2583 11.4075 11.8953 10.2332 11.8794C9.44627 11.8704 8.6654 12.0173 7.93552 12.3114C7.20563 12.6056 6.54114 13.0412 5.98032 13.5933C5.4195 14.1453 4.97344 14.8028 4.66781 15.528C4.36218 16.2531 4.20302 17.0316 4.19951 17.8185V17.8185Z" fill="black"/>
<path d="M5.67072 8.04562C5.04605 8.04248 4.44686 7.79752 3.99889 7.36213C3.55093 6.92675 3.289 6.33478 3.26807 5.71045C3.26807 5.0768 3.51978 4.46911 3.96784 4.02106C4.41589 3.573 5.02358 3.32129 5.65723 3.32129C6.29087 3.32129 6.89856 3.573 7.34662 4.02106C7.79467 4.46911 8.04639 5.0768 8.04639 5.71045C8.02568 6.33017 7.76751 6.91821 7.32531 7.35288C6.8831 7.78755 6.29071 8.03557 5.67072 8.04562V8.04562ZM6.73707 5.65646C6.73357 5.37473 6.6201 5.10553 6.42088 4.9063C6.22165 4.70708 5.95245 4.59361 5.67072 4.59011C5.5231 4.5883 5.3766 4.61604 5.23985 4.6717C5.10311 4.72736 4.97888 4.80982 4.87449 4.91421C4.77009 5.01861 4.68764 5.14283 4.63197 5.27958C4.57631 5.41632 4.54857 5.56282 4.55038 5.71045C4.56064 5.99948 4.68095 6.27366 4.8867 6.47691C5.09245 6.68015 5.36809 6.79709 5.65723 6.80379C5.95201 6.79322 6.23074 6.66682 6.43291 6.45201C6.63507 6.23721 6.74437 5.95134 6.73707 5.65646V5.65646Z" fill="black"/>
<path d="M10.9482 21.1795C10.8807 21.7059 11.0292 22.3943 10.2733 22.3943C9.51741 22.3943 9.5984 21.7059 9.5984 21.4089C9.03148 20.9635 8.53205 20.6395 8.11361 20.2346C8.04761 20.1707 7.99772 20.092 7.96806 20.005C7.93839 19.9181 7.9298 19.8253 7.94297 19.7344C7.95615 19.6435 7.99073 19.557 8.04386 19.482C8.09699 19.4071 8.16716 19.3458 8.24859 19.3032C8.3186 19.2479 8.39949 19.208 8.48597 19.1861C8.57245 19.1642 8.66258 19.1608 8.75047 19.1761C8.83836 19.1914 8.92204 19.225 8.99605 19.2748C9.07005 19.3247 9.13272 19.3895 9.17996 19.4652C9.44416 19.6807 9.76106 19.8218 10.098 19.874C10.4349 19.9262 10.7797 19.8876 11.0967 19.7622C11.2057 19.6737 11.2911 19.5596 11.3453 19.43C11.3995 19.3005 11.4207 19.1595 11.4071 19.0198C11.3561 18.8926 11.2776 18.7783 11.1772 18.685C11.0769 18.5916 10.9572 18.5216 10.8267 18.4798C10.5181 18.4322 10.204 18.4322 9.89535 18.4798C9.38959 18.5081 8.89179 18.3445 8.50142 18.0217C8.11104 17.6989 7.85686 17.2407 7.78965 16.7386C7.71685 16.2467 7.83399 15.7456 8.11728 15.3369C8.40057 14.9283 8.82878 14.6428 9.31494 14.5384L9.5984 14.4304C9.5984 14.2415 9.5984 14.066 9.5984 13.877C9.5984 13.688 9.81437 13.2426 10.2193 13.2426C10.299 13.2303 10.3805 13.2361 10.4576 13.2595C10.5348 13.2828 10.6058 13.3231 10.6654 13.3775C10.7249 13.4319 10.7715 13.4989 10.8018 13.5737C10.8321 13.6484 10.8452 13.729 10.8402 13.8095C10.8402 14.3089 11.0292 14.5114 11.5016 14.6869C11.8601 14.862 12.167 15.1271 12.3925 15.4563C12.449 15.5202 12.491 15.5956 12.5157 15.6773C12.5404 15.759 12.5472 15.845 12.5357 15.9295C12.5241 16.0141 12.4945 16.0951 12.4489 16.1672C12.4032 16.2393 12.3425 16.3006 12.271 16.3472C12.2053 16.3996 12.1297 16.4382 12.0486 16.4606C11.9676 16.483 11.8829 16.4886 11.7996 16.4773C11.7163 16.4659 11.6361 16.4378 11.564 16.3945C11.4919 16.3513 11.4294 16.2938 11.3801 16.2257C11.1224 15.9992 10.81 15.844 10.4738 15.7753C10.1376 15.7067 9.78933 15.727 9.46342 15.8342C9.34909 15.9118 9.25345 16.0138 9.18341 16.1328C9.11337 16.2519 9.0707 16.385 9.05847 16.5226C9.1022 16.6595 9.17572 16.7849 9.27375 16.89C9.37178 16.995 9.49188 17.077 9.62539 17.13C9.98987 17.2003 10.3619 17.223 10.7322 17.1975C11.2296 17.2057 11.7063 17.3978 12.0702 17.7368C12.4342 18.0759 12.6596 18.5377 12.703 19.0333C12.7376 19.5166 12.593 19.9958 12.2967 20.3793C12.0004 20.7628 11.5732 21.0236 11.0967 21.112L10.9482 21.1795Z" fill="#E42525"/>
</svg>
