<svg width="25" height="27" viewBox="0 0 25 27" fill="none" xmlns="http://www.w3.org/2000/svg">
<path d="M20.4435 14.4041C19.9189 14.4041 19.6042 14.1193 19.6192 13.6247C19.6103 13.5195 19.6243 13.4135 19.6601 13.3142C19.6959 13.2148 19.7528 13.1243 19.8268 13.0489C19.9007 12.9735 19.9901 12.9149 20.0888 12.8772C20.1875 12.8395 20.2931 12.8235 20.3985 12.8304C20.5032 12.8212 20.6086 12.8351 20.7073 12.871C20.806 12.907 20.8956 12.9641 20.9699 13.0383C21.0442 13.1126 21.1013 13.2023 21.1372 13.301C21.1732 13.3997 21.187 13.5051 21.1779 13.6097C21.1862 13.7111 21.1733 13.8131 21.1402 13.9092C21.107 14.0054 21.0542 14.0936 20.9852 14.1682C20.9161 14.2429 20.8323 14.3024 20.7391 14.343C20.6458 14.3836 20.5452 14.4044 20.4435 14.4041Z" fill="black"/>
<path d="M15.8572 5.12641H9.12767C8.96482 5.07989 8.82155 4.98158 8.71955 4.84637C8.61755 4.71115 8.56238 4.54639 8.56238 4.37702C8.56238 4.20765 8.61755 4.04289 8.71955 3.90767C8.82155 3.77246 8.96482 3.67415 9.12767 3.62763H15.8572C15.9732 3.5945 16.0953 3.58874 16.2139 3.61081C16.3325 3.63289 16.4443 3.68218 16.5406 3.75483C16.6369 3.82747 16.715 3.92148 16.7688 4.02945C16.8226 4.13741 16.8506 4.25639 16.8506 4.37702C16.8506 4.49765 16.8226 4.61663 16.7688 4.7246C16.715 4.83256 16.6369 4.92657 16.5406 4.99921C16.4443 5.07186 16.3325 5.12116 16.2139 5.14323C16.0953 5.1653 15.9732 5.15954 15.8572 5.12641V5.12641Z" fill="#E42525"/>
<path d="M15.8572 8.25873H9.12771C9.01172 8.29187 8.88963 8.29762 8.77104 8.27555C8.65245 8.25348 8.5406 8.20418 8.4443 8.13154C8.348 8.05889 8.26987 7.96489 8.21607 7.85692C8.16228 7.74895 8.13428 7.62997 8.13428 7.50935C8.13428 7.38872 8.16228 7.26974 8.21607 7.16177C8.26987 7.0538 8.348 6.9598 8.4443 6.88715C8.5406 6.81451 8.65245 6.76521 8.77104 6.74314C8.88963 6.72107 9.01172 6.72682 9.12771 6.75996H15.8572C15.9732 6.72682 16.0953 6.72107 16.2139 6.74314C16.3325 6.76521 16.4443 6.81451 16.5406 6.88715C16.6369 6.9598 16.7151 7.0538 16.7689 7.16177C16.8227 7.26974 16.8507 7.38872 16.8507 7.50935C16.8507 7.62997 16.8227 7.74895 16.7689 7.85692C16.7151 7.96489 16.6369 8.05889 16.5406 8.13154C16.4443 8.20418 16.3325 8.25348 16.2139 8.27555C16.0953 8.29762 15.9732 8.29187 15.8572 8.25873V8.25873Z" fill="#E42525"/>
<path d="M15.8574 23.7555H9.12788C8.93787 23.7292 8.76379 23.6351 8.63779 23.4905C8.51179 23.3458 8.44238 23.1605 8.44238 22.9687C8.44238 22.7769 8.51179 22.5915 8.63779 22.4469C8.76379 22.3022 8.93787 22.2081 9.12788 22.1818H15.8574C15.9698 22.1663 16.0843 22.175 16.1931 22.2074C16.3019 22.2398 16.4025 22.2952 16.488 22.3697C16.5736 22.4443 16.6422 22.5363 16.6893 22.6396C16.7363 22.743 16.7606 22.8552 16.7606 22.9687C16.7606 23.0822 16.7363 23.1944 16.6893 23.2977C16.6422 23.401 16.5736 23.493 16.488 23.5676C16.4025 23.6422 16.3019 23.6975 16.1931 23.7299C16.0843 23.7624 15.9698 23.7711 15.8574 23.7555V23.7555Z" fill="#E42525"/>
<path d="M23.8006 9.83199H20.0537V1.99338C20.0497 1.46333 19.8364 0.956333 19.4601 0.582927C19.0839 0.209521 18.5754 -1.47595e-05 18.0453 7.79763e-10H6.95433C6.42427 -1.47595e-05 5.91569 0.209521 5.53948 0.582927C5.16326 0.956333 4.94992 1.46333 4.94597 1.99338V9.83199H1.19902C0.881022 9.83199 0.576046 9.95831 0.351186 10.1832C0.126325 10.408 0 10.713 0 11.031V20.0237C0 20.3417 0.126325 20.6467 0.351186 20.8715C0.576046 21.0964 0.881022 21.2227 1.19902 21.2227H4.93098V24.1153C4.9127 24.395 4.9498 24.6754 5.04018 24.9407C5.13055 25.2059 5.27242 25.4507 5.45762 25.6609C5.64283 25.8712 5.86774 26.0428 6.11944 26.166C6.37114 26.2891 6.64468 26.3613 6.92436 26.3785H18.0753C18.6346 26.3437 19.1577 26.0897 19.5309 25.6716C19.9041 25.2535 20.0974 24.705 20.0686 24.1453V21.2527H23.8006C23.9581 21.2527 24.114 21.2217 24.2594 21.1614C24.4049 21.1012 24.5371 21.0128 24.6484 20.9015C24.7598 20.7902 24.8481 20.658 24.9084 20.5125C24.9686 20.367 24.9996 20.2111 24.9996 20.0537V11.061C25.0036 10.901 24.9756 10.7419 24.9171 10.5929C24.8586 10.444 24.771 10.3082 24.6592 10.1937C24.5475 10.0792 24.4139 9.98816 24.2665 9.92604C24.119 9.86392 23.9606 9.83194 23.8006 9.83199V9.83199ZM6.44475 1.99338C6.44865 1.86084 6.50405 1.73504 6.5992 1.6427C6.69434 1.55035 6.82174 1.49872 6.95433 1.49878H18.0453C18.1779 1.49872 18.3053 1.55035 18.4004 1.6427C18.4956 1.73504 18.551 1.86084 18.5549 1.99338V9.83199H6.44475V1.99338ZM18.5699 24.1453C18.5699 24.565 18.3001 24.8797 18.0753 24.8797H6.92436C6.68455 24.8797 6.42976 24.565 6.42976 24.1453V21.2527H18.5699V24.1453ZM23.5008 19.7539H1.49878V11.3308H23.5008V19.7539Z" fill="black"/>
</svg>
