<svg width="25" height="25" viewBox="0 0 25 25" fill="none" xmlns="http://www.w3.org/2000/svg">
<path d="M12.5142 1.41885C14.704 1.42726 16.8422 2.0843 18.6589 3.30702C20.4756 4.52973 21.8893 6.2633 22.7214 8.28884C23.5536 10.3144 23.767 12.5411 23.3346 14.6878C22.9023 16.8345 21.8436 18.805 20.2921 20.3505C18.7407 21.896 16.7662 22.9471 14.6178 23.3712C12.4695 23.7954 10.2436 23.5735 8.22128 22.7335C6.19894 21.8936 4.47081 20.4733 3.25507 18.6519C2.03933 16.8306 1.39049 14.6898 1.39047 12.5C1.39046 11.0412 1.67849 9.59678 2.23803 8.24957C2.79757 6.90236 3.61761 5.67889 4.6511 4.64936C5.68459 3.61982 6.9112 2.80447 8.26054 2.2501C9.60989 1.69573 11.0554 1.41325 12.5142 1.41885V1.41885ZM12.5142 8.05615e-06C10.0413 -0.00279883 7.62318 0.727926 5.5657 2.09974C3.50822 3.47155 1.90386 5.42279 0.955588 7.70662C0.0073173 9.99045 -0.242249 12.5042 0.238462 14.9299C0.719174 17.3556 1.90856 19.5842 3.65615 21.3338C5.40374 23.0834 7.631 24.2753 10.0561 24.7588C12.4813 25.2422 14.9954 24.9955 17.2803 24.0498C19.5652 23.1042 21.5182 21.502 22.8924 19.4461C24.2665 17.3902 25 14.9729 25 12.5C25.0019 10.8591 24.6803 9.23402 24.0536 7.71753C23.427 6.20105 22.5076 4.82295 21.348 3.66203C20.1884 2.50111 18.8114 1.58015 17.2956 0.951789C15.7798 0.323431 14.155 6.99671e-06 12.5142 8.05615e-06V8.05615e-06Z" fill="black"/>
<path d="M11.4786 14.5571V11.9322H12.8974C13.3415 11.9322 13.7673 11.7558 14.0813 11.4418C14.3953 11.1278 14.5717 10.702 14.5717 10.258C14.5717 9.81393 14.3953 9.38808 14.0813 9.0741C13.7673 8.76012 13.3415 8.58373 12.8974 8.58373H11.9043C11.4602 8.58373 11.0344 8.76012 10.7204 9.0741C10.4064 9.38808 10.23 9.81393 10.23 10.258H8.74023C8.74023 9.41882 9.07359 8.61404 9.66695 8.02067C10.2603 7.4273 11.0651 7.09395 11.9043 7.09395H12.8974C13.7366 7.08454 14.5451 7.40887 15.1451 7.99559C15.7451 8.5823 16.0875 9.38335 16.0969 10.2225C16.1063 11.0616 15.782 11.8702 15.1953 12.4702C14.6086 13.0702 13.8075 13.4126 12.9684 13.422V14.5571H11.4786Z" fill="#E42525"/>
<path d="M12.2305 18.0333C12.779 18.0333 13.2237 17.5886 13.2237 17.0401C13.2237 16.4915 12.779 16.0469 12.2305 16.0469C11.682 16.0469 11.2373 16.4915 11.2373 17.0401C11.2373 17.5886 11.682 18.0333 12.2305 18.0333Z" fill="#E42525"/>
</svg>
