<svg width="25" height="32" viewBox="0 0 25 32" fill="none" xmlns="http://www.w3.org/2000/svg">
<path d="M10.317 1.66999C12.8884 1.48721 15.4577 2.0519 17.7154 3.29601C18.4521 3.79376 19.079 4.43727 19.5572 5.18679C20.0354 5.9363 20.3549 6.77591 20.4959 7.65375C20.588 8.20417 20.7184 8.74749 20.8862 9.27977C21.065 9.88139 21.065 9.88139 20.8862 10.1416C20.5922 10.912 20.5186 11.7491 20.6737 12.559C20.8288 13.3689 21.2064 14.1196 21.7642 14.7269C22.1545 15.2473 22.4634 15.6863 22.6911 16.0603C22.4244 16.1504 22.1796 16.2953 21.9724 16.4857C21.7652 16.6762 21.6001 16.9079 21.4878 17.166C21.2285 17.7962 21.2285 18.5032 21.4878 19.1334C21.3342 19.284 21.2119 19.4636 21.1282 19.6618C21.0445 19.86 21.0009 20.0728 21 20.2879C20.9944 20.6105 21.085 20.9275 21.2602 21.1985C20.9706 21.7896 20.9069 22.4662 21.0813 23.1009C21.0996 23.2902 21.0996 23.4808 21.0813 23.67C20.8756 23.6862 20.669 23.6862 20.4634 23.67C20.0569 23.67 19.6992 23.67 19.3252 23.67C18.9878 23.5813 18.6458 23.5107 18.3008 23.4587H18.187C17.5048 23.442 16.8347 23.6402 16.2715 24.0254C15.7083 24.4106 15.2805 24.9632 15.0488 25.605C14.6461 26.9087 14.5024 28.2786 14.626 29.6375H5.43899C5.94293 27.4255 6.15071 25.1563 6.05687 22.8895C5.83367 21.1562 5.16722 19.5097 4.12191 18.109C2.93966 16.3154 2.14747 14.2934 1.7967 12.1741C1.35841 9.90971 1.77556 7.56326 2.96744 5.5887C3.78366 4.38925 4.87896 3.40597 6.15919 2.72337C7.43941 2.04077 8.86625 1.67929 10.317 1.66999V1.66999ZM10.317 0.0439754C8.61614 0.0557262 6.94288 0.475313 5.43768 1.26752C3.93249 2.05973 2.63929 3.20144 1.66662 4.59683C0.20954 6.9319 -0.318477 9.72865 0.186944 12.4342C0.591645 14.8028 1.48304 17.0617 2.80484 19.0684C3.65601 20.2177 4.21413 21.5572 4.43085 22.9708C4.49921 25.7673 4.17074 28.5593 3.45524 31.2635H16.3008C16.2918 30.6653 16.2484 30.0681 16.1707 29.4749C16.0606 28.3414 16.1767 27.1974 16.5122 26.1091C16.6526 25.7975 16.8817 25.5342 17.1709 25.352C17.4601 25.1698 17.7965 25.0768 18.1382 25.0847H18.3008C19.0488 25.0847 19.748 25.231 20.6585 25.231C21.1546 25.2306 21.6497 25.1871 22.1382 25.1009C23.0488 24.9221 23 23.5725 22.7724 22.6131C22.5447 21.6538 23.2927 21.4586 23.2927 21.0684C23.288 20.8859 23.2321 20.7084 23.1315 20.556C23.0309 20.4037 22.8896 20.2826 22.7236 20.2066C23.7154 19.67 23.4878 19.3123 23.3089 18.9221C22.6585 17.4912 23.3089 17.5074 23.6667 17.3936C24.0244 17.2798 24.9187 17.2798 25 16.6294C24.5293 15.5602 23.9168 14.5594 23.1789 13.6538C22.8036 13.2712 22.5413 12.7924 22.4208 12.2702C22.3003 11.748 22.3263 11.2027 22.4959 10.6944C23.0163 9.49115 22.4959 9.16594 22.1545 7.29602C21.9853 6.194 21.5867 5.13976 20.9845 4.20145C20.3823 3.26315 19.5899 2.46167 18.6585 1.84886C16.1011 0.448253 13.1918 -0.17881 10.2845 0.0439754H10.317Z" fill="black"/>
<path d="M10.512 14.6132V11.605H12.138C12.6469 11.605 13.1349 11.4029 13.4947 11.0431C13.8546 10.6832 14.0567 10.1952 14.0567 9.68633C14.0567 9.17745 13.8546 8.68942 13.4947 8.3296C13.1349 7.96977 12.6469 7.76762 12.138 7.76762H10.9998C10.4909 7.76762 10.0029 7.96977 9.64307 8.3296C9.28325 8.68942 9.0811 9.17745 9.0811 9.68633H7.45508C7.45484 8.73857 7.82569 7.82838 8.48821 7.15066C9.15074 6.47294 10.0523 6.08155 10.9998 6.0603H12.138C13.0997 6.0603 14.022 6.44233 14.702 7.12234C15.382 7.80235 15.764 8.72464 15.764 9.68633C15.764 10.648 15.382 11.5703 14.702 12.2503C14.022 12.9303 13.0997 13.3123 12.138 13.3123V14.6132H10.512Z" fill="#E42525"/>
<path d="M11.3741 18.597C12.0027 18.597 12.5123 18.0874 12.5123 17.4588C12.5123 16.8302 12.0027 16.3206 11.3741 16.3206C10.7454 16.3206 10.2358 16.8302 10.2358 17.4588C10.2358 18.0874 10.7454 18.597 11.3741 18.597Z" fill="#E42525"/>
</svg>
