<svg width="36" height="36" viewBox="0 0 36 36" fill="none" xmlns="http://www.w3.org/2000/svg">
<ellipse cx="18" cy="17.9998" rx="18" ry="17.9998" fill="#C42121"/>
<path fill-rule="evenodd" clip-rule="evenodd" d="M28.971 24.0139L19.0623 8.0045C18.5431 7.13913 17.4181 7.13913 16.8989 8.0045L6.99021 24.0139C6.38444 25.0091 6.99021 26.3937 8.07194 26.3937H27.8892C28.971 26.3937 29.62 25.0091 28.971 24.0139ZM17.9806 22.9322C17.245 22.9322 16.6825 22.3697 16.6825 21.6341C16.6825 20.8986 17.245 20.3361 17.9806 20.3361C18.7162 20.3361 19.2787 20.8986 19.2787 21.6341C19.2787 22.3697 18.7162 22.9322 17.9806 22.9322ZM19.2787 19.038C19.2787 19.2976 19.1056 19.4707 18.846 19.4707H17.1152C16.8556 19.4707 16.6825 19.2976 16.6825 19.038V13.4131C16.6825 13.1535 16.8556 12.9804 17.1152 12.9804H18.846C19.1056 12.9804 19.2787 13.1535 19.2787 13.4131V19.038Z" fill="white"/>
</svg>
