<svg width="25" height="26" viewBox="0 0 25 26" fill="none" xmlns="http://www.w3.org/2000/svg">
<path d="M12.4503 11.3855C12.8423 11.3855 13.1601 11.0677 13.1601 10.6756C13.1601 10.2836 12.8423 9.96582 12.4503 9.96582C12.0583 9.96582 11.7405 10.2836 11.7405 10.6756C11.7405 11.0677 12.0583 11.3855 12.4503 11.3855Z" fill="#E42525"/>
<path d="M12.8762 2.93848H12.0244C11.8676 2.93848 11.7405 3.0656 11.7405 3.22241V8.97198C11.7405 9.12879 11.8676 9.25591 12.0244 9.25591H12.8762C13.033 9.25591 13.1601 9.12879 13.1601 8.97198V3.22241C13.1601 3.0656 13.033 2.93848 12.8762 2.93848Z" fill="#E42525"/>
<path d="M19.7473 25.0002C19.281 25.0165 18.8198 24.8996 18.4175 24.6633C18.0153 24.427 17.6886 24.081 17.4759 23.6657H7.45315C7.33253 23.9105 7.16905 24.1317 6.97047 24.3188C6.69816 24.5586 6.38114 24.7423 6.03762 24.8593C5.6941 24.9762 5.33086 25.0241 4.96877 25.0002C4.51551 25.007 4.06959 24.8853 3.68266 24.6491C3.29573 24.413 2.98363 24.072 2.78251 23.6657L0 23.4244V18.1007L2.93867 17.902L3.50653 17.5755C4.61814 16.864 5.81546 16.2964 7.06985 15.8861C9.6156 15.5028 12.2044 15.5028 14.7501 15.8861C15.9571 16.3617 17.09 17.007 18.1147 17.8026V17.8026L19.435 18.1291C20.3294 18.3421 21.4367 18.626 21.9194 18.7254C22.91 18.9207 23.8666 19.2603 24.7587 19.7333L25 19.9463V23.7367H21.9478C21.7384 24.1342 21.4204 24.4639 21.0308 24.6876C20.6412 24.9113 20.1961 25.0197 19.7473 25.0002V25.0002ZM6.8711 22.1609H18.4412L18.711 22.9559C18.711 23.0411 18.9523 23.4812 19.7189 23.4954C19.9523 23.522 20.1873 23.4614 20.3787 23.3251C20.57 23.1888 20.7042 22.9865 20.7553 22.7572L20.883 22.1751L23.5662 22.2461V20.7271C22.9417 20.4884 22.3013 20.2939 21.6496 20.145L19.1369 19.5346L17.916 19.2223H17.632L17.3765 19.0803C16.4399 18.3331 15.4029 17.7214 14.2959 17.2631C11.9886 16.9365 9.64684 16.9365 7.33958 17.2631C6.24443 17.6498 5.19666 18.1594 4.21635 18.7822C3.84725 19.0093 3.56332 19.1655 3.42135 19.2364H3.18001L1.37706 19.3642V22.0332L3.80466 22.1751L3.90403 22.7288C3.95482 22.9516 4.08531 23.1482 4.27095 23.2816C4.45659 23.4149 4.68457 23.4758 4.91198 23.4528C5.99091 23.4528 6.10449 22.7998 6.10449 22.7998V22.1609H6.8711Z" fill="black"/>
<path d="M12.4504 1.41966C13.6016 1.41966 14.727 1.76103 15.6842 2.4006C16.6414 3.04017 17.3874 3.94922 17.8279 5.01279C18.2685 6.07636 18.3838 7.24668 18.1592 8.37575C17.9346 9.50483 17.3802 10.542 16.5662 11.356C15.7522 12.17 14.7151 12.7243 13.586 12.9489C12.4569 13.1735 11.2866 13.0583 10.223 12.6177C9.15945 12.1772 8.2504 11.4311 7.61083 10.4739C6.97126 9.51676 6.62989 8.39142 6.62989 7.24022C6.62989 5.69651 7.24313 4.21603 8.33469 3.12446C9.42626 2.0329 10.9067 1.41966 12.4504 1.41966V1.41966ZM12.4504 1.39245e-05C11.0179 -0.00279506 9.61666 0.419447 8.42415 1.2133C7.23163 2.00716 6.30143 3.13694 5.75126 4.45966C5.20109 5.78239 5.05568 7.23859 5.33344 8.64399C5.6112 10.0494 6.29964 11.3408 7.31163 12.3548C8.32363 13.3688 9.61368 14.0597 11.0185 14.3402C12.4234 14.6208 13.8799 14.4782 15.2037 13.9306C16.5275 13.3831 17.6591 12.4551 18.4553 11.2641C19.2515 10.0732 19.6765 8.6728 19.6765 7.24022C19.6765 5.32245 18.9156 3.48303 17.5609 2.12563C16.2061 0.768239 14.3682 0.00377425 12.4504 1.39245e-05V1.39245e-05Z" fill="#E42525"/>
</svg>
