<svg width="36" height="36" viewBox="0 0 36 36" fill="none" xmlns="http://www.w3.org/2000/svg">
<ellipse cx="18" cy="17.9998" rx="18" ry="17.9998" fill="#FFB75D"/>
<path fill-rule="evenodd" clip-rule="evenodd" d="M28.24 9.82551L25.203 11.6219C23.8597 12.4164 23.7465 13.751 24.3092 14.642C24.7811 15.5868 25.9658 16.1537 27.3091 15.3591L30.3461 13.5627C30.4678 14.5694 30.1978 15.4644 29.6735 16.4072C28.3369 18.8105 25.2372 19.4822 23.0311 18.0319C22.6888 17.8083 22.3139 17.7187 21.9667 17.9241L12.9823 23.2386C12.4177 23.5726 12.1048 24.0767 11.8119 24.6317C11.69 24.8606 11.5693 25.0994 11.436 25.3389C10.2422 27.4888 7.23403 27.5783 6.03511 25.4509C4.83619 23.3234 6.41597 20.6992 8.83025 20.7149L9.33104 20.7284C10.0582 20.7521 10.7298 20.777 11.3787 20.3931L20.3636 15.0794C20.7108 14.8741 20.8225 14.4966 20.8047 14.0811C20.7425 12.704 21.2698 11.3982 22.1619 10.4555C23.0078 9.56127 24.1843 8.9928 25.4993 9.00007C26.1459 9.00372 26.7309 9.08211 27.2676 9.28213C27.6083 9.41079 27.9325 9.5869 28.24 9.82551ZM9.81371 25.7688C10.8455 25.1585 11.1996 23.8061 10.6036 22.7486C10.0077 21.6911 8.68746 21.329 7.65565 21.9393C7.46097 22.0545 7.28987 22.1961 7.14651 22.3563C6.52447 23.0489 6.3822 24.1015 6.86575 24.9595C7.4617 26.017 8.7819 26.3791 9.81371 25.7688Z" fill="black"/>
</svg>
