<svg width="25" height="27" viewBox="0 0 25 27" fill="none" xmlns="http://www.w3.org/2000/svg">
<path d="M22.7273 3.12504C22.9533 3.12504 23.1701 3.21484 23.3299 3.37467C23.4898 3.5345 23.5795 3.75128 23.5795 3.97732V24.4319C23.5795 24.6579 23.4898 24.8747 23.3299 25.0345C23.1701 25.1943 22.9533 25.2841 22.7273 25.2841H2.27273C2.04669 25.2841 1.82991 25.1943 1.67008 25.0345C1.51025 24.8747 1.42045 24.6579 1.42045 24.4319V3.97732C1.42045 3.75128 1.51025 3.5345 1.67008 3.37467C1.82991 3.21484 2.04669 3.12504 2.27273 3.12504H22.7273ZM22.7273 1.70459H2.27273C1.66996 1.70459 1.09189 1.94404 0.665666 2.37026C0.239447 2.79648 0 3.37455 0 3.97732V24.4319C0 25.0346 0.239447 25.6127 0.665666 26.0389C1.09189 26.4651 1.66996 26.7046 2.27273 26.7046H22.7273C23.33 26.7046 23.9081 26.4651 24.3343 26.0389C24.7606 25.6127 25 25.0346 25 24.4319V3.97732C25 3.37455 24.7606 2.79648 24.3343 2.37026C23.9081 1.94404 23.33 1.70459 22.7273 1.70459Z" fill="black"/>
<path d="M24.0059 7.8125H0.994568V9.23295H24.0059V7.8125Z" fill="black"/>
<path d="M7.52816 4.82955C7.3398 4.82955 7.15915 4.75472 7.02595 4.62152C6.89276 4.48833 6.81793 4.30768 6.81793 4.11932V0.710227C6.81793 0.521863 6.89276 0.341214 7.02595 0.208021C7.15915 0.0748273 7.3398 0 7.52816 0C7.71652 0 7.89717 0.0748273 8.03037 0.208021C8.16356 0.341214 8.23839 0.521863 8.23839 0.710227V4.11932C8.23839 4.30768 8.16356 4.48833 8.03037 4.62152C7.89717 4.75472 7.71652 4.82955 7.52816 4.82955Z" fill="black"/>
<path d="M17.4713 4.82955C17.283 4.82955 17.1023 4.75472 16.9691 4.62152C16.8359 4.48833 16.7611 4.30768 16.7611 4.11932V0.710227C16.7611 0.521863 16.8359 0.341214 16.9691 0.208021C17.1023 0.0748273 17.283 0 17.4713 0C17.6597 0 17.8403 0.0748273 17.9735 0.208021C18.1067 0.341214 18.1816 0.521863 18.1816 0.710227V4.11932C18.1816 4.30768 18.1067 4.48833 17.9735 4.62152C17.8403 4.75472 17.6597 4.82955 17.4713 4.82955Z" fill="black"/>
<path d="M17.0456 12.7842L18.8922 14.5882L11.0797 22.1592L6.56268 17.7558L8.40927 15.966L11.0797 18.5654L17.0456 12.7842Z" fill="#E42525"/>
</svg>
