<svg width="25" height="25" viewBox="0 0 25 25" fill="none" xmlns="http://www.w3.org/2000/svg">
<path d="M12.5 1.42045C14.6913 1.42045 16.8334 2.07026 18.6555 3.28769C20.4775 4.50513 21.8976 6.23552 22.7362 8.26004C23.5748 10.2846 23.7942 12.5123 23.3667 14.6615C22.9391 16.8107 21.8839 18.7849 20.3344 20.3344C18.7849 21.8839 16.8107 22.9391 14.6615 23.3666C12.5123 23.7942 10.2846 23.5747 8.26005 22.7362C6.23552 21.8976 4.50514 20.4775 3.2877 18.6555C2.07026 16.8334 1.42046 14.6913 1.42046 12.5C1.42422 9.56267 2.59273 6.74673 4.66973 4.66973C6.74674 2.59273 9.56268 1.42421 12.5 1.42045V1.42045ZM12.5 0C10.0277 0 7.61099 0.733112 5.55538 2.10663C3.49976 3.48015 1.89761 5.43238 0.951511 7.71646C0.00541606 10.0005 -0.242126 12.5139 0.24019 14.9386C0.722505 17.3634 1.91301 19.5907 3.66117 21.3388C5.40933 23.087 7.63661 24.2775 10.0614 24.7598C12.4861 25.2421 14.9995 24.9946 17.2835 24.0485C19.5676 23.1024 21.5199 21.5002 22.8934 19.4446C24.2669 17.389 25 14.9723 25 12.5C25 10.8585 24.6767 9.23303 24.0485 7.71646C23.4203 6.19989 22.4996 4.8219 21.3388 3.66116C20.1781 2.50043 18.8001 1.57969 17.2835 0.951506C15.767 0.323322 14.1415 0 12.5 0V0Z" fill="black"/>
<path d="M10.5113 19.2897H10.284C8.78455 18.8127 7.48596 17.8512 6.59211 16.5562C5.69827 15.2612 5.25979 13.706 5.34551 12.1348C5.43123 10.5636 6.0363 9.06537 7.06573 7.8753C8.09516 6.68522 9.49065 5.87071 11.0331 5.55962C12.5756 5.24854 14.1777 5.45849 15.5879 6.15654C16.9981 6.85458 18.1366 8.00118 18.8246 9.41632C19.5126 10.8315 19.7112 12.435 19.3892 13.9752C19.0671 15.5155 18.2427 16.9051 17.0454 17.9261C16.9001 18.0226 16.7243 18.0623 16.5517 18.0376C16.379 18.0129 16.2214 17.9255 16.109 17.792C15.9967 17.6586 15.9373 17.4885 15.9424 17.3141C15.9474 17.1397 16.0164 16.9733 16.1363 16.8465C17.0981 16.0361 17.7638 14.9295 18.0291 13.7001C18.2944 12.4707 18.1442 11.188 17.6023 10.0531C17.0603 8.91816 16.157 7.99514 15.0341 7.42868C13.9112 6.86223 12.6321 6.68436 11.3972 6.92295C10.1624 7.16153 9.04157 7.8031 8.21049 8.74709C7.37941 9.69107 6.88503 10.8841 6.80483 12.1393C6.72463 13.3944 7.06314 14.6407 7.76731 15.6828C8.47148 16.7249 9.5015 17.5039 10.696 17.8977C10.8752 17.9564 11.0245 18.0828 11.112 18.2499C11.1996 18.4171 11.2185 18.6117 11.1647 18.7926C11.1189 18.9318 11.0319 19.0539 10.9152 19.1426C10.7986 19.2314 10.6577 19.2827 10.5113 19.2897V19.2897Z" fill="#E42525"/>
<path d="M15.9658 15.7103L18.5369 17.6847C18.5711 17.7139 18.5969 17.7516 18.6119 17.794C18.6269 17.8364 18.6304 17.882 18.6221 17.9262C18.6139 17.9732 18.5939 18.0173 18.5641 18.0545C18.5343 18.0918 18.4957 18.1209 18.4516 18.1393L15.4829 19.3182C15.4474 19.3427 15.4053 19.3557 15.3622 19.3557C15.319 19.3557 15.2769 19.3427 15.2414 19.3182C15.2053 19.2926 15.176 19.2584 15.1562 19.2188C15.1364 19.1792 15.1266 19.1353 15.1278 19.091L15.5255 15.9802C15.5049 15.9203 15.5049 15.8553 15.5255 15.7955V15.7955C15.5469 15.7588 15.5759 15.7272 15.6106 15.7026C15.6452 15.6781 15.6847 15.6612 15.7264 15.6531C15.7681 15.6451 15.811 15.646 15.8523 15.6558C15.8936 15.6657 15.9323 15.6843 15.9658 15.7103V15.7103Z" fill="#E42525"/>
</svg>
