<svg width="25" height="26" viewBox="0 0 25 26" fill="none" xmlns="http://www.w3.org/2000/svg">
<path d="M18.608 23.2508C16.5528 23.2508 14.5289 23.2508 12.5051 23.2508C10.4812 23.2508 8.39461 23.2508 6.33938 23.2508C5.93147 23.2508 5.79027 23.1253 5.80596 22.7017V17.7284C5.80596 16.9439 6.10405 16.6458 6.93555 16.6458H18.0432C18.8747 16.6458 19.1258 16.9439 19.1258 17.7284C19.1258 19.4071 19.1258 21.0701 19.1258 22.7331C19.1414 23.141 18.9846 23.2508 18.608 23.2508ZM17.4157 0.0156888V1.58457H17.855C18.3849 1.5938 18.8908 1.80739 19.267 2.18074C20.5534 3.45154 21.7144 4.59682 22.9068 5.83624C23.1273 6.07087 23.2554 6.37736 23.2676 6.69912C23.2676 11.8137 23.2676 16.9439 23.2676 22.0742C23.2676 23.0155 23.0166 23.2194 22.1066 23.2508C20.7574 23.2508 20.7574 23.2508 20.7574 21.9016V17.9009C20.7574 15.8614 19.8318 14.9357 17.7922 14.9357H7.81413C7.3649 14.9052 6.91412 14.9052 6.46489 14.9357C5.89288 14.9497 5.34649 15.1758 4.93188 15.5702C4.51726 15.9645 4.26403 16.4988 4.22139 17.0694C4.22139 18.8423 4.22139 20.568 4.22139 22.3252V23.1881H2.65251C2.53913 23.1966 2.42518 23.1827 2.31721 23.147C2.20924 23.1114 2.10937 23.0548 2.02336 22.9804C1.93734 22.9061 1.86686 22.8154 1.81598 22.7138C1.7651 22.6121 1.73482 22.5013 1.72687 22.3879C1.71112 22.2367 1.71112 22.0842 1.72687 21.933V3.10638C1.72687 2.00817 1.9622 1.74146 3.10748 1.74146H7.48466V0.172577H2.8094C2.45138 0.153549 2.0932 0.206898 1.75627 0.329436C1.41934 0.451973 1.11057 0.641184 0.848425 0.885757C0.586277 1.13033 0.376129 1.42525 0.230543 1.75288C0.0849573 2.08051 0.00692146 2.43413 0.00109989 2.79261V22.1526C-0.0101152 22.5865 0.064529 23.0184 0.220743 23.4234C0.425626 23.9322 0.790574 24.3605 1.26043 24.6436C1.73028 24.9266 2.2795 25.049 2.82509 24.9923C5.96285 24.9923 9.2575 24.9923 12.4423 24.9923H22.1223C22.5095 25.0439 22.9033 25.0056 23.2733 24.8804C23.6433 24.7552 23.9794 24.5464 24.2556 24.2702C24.5318 23.994 24.7406 23.6579 24.8658 23.2879C24.9911 22.9179 25.0293 22.5241 24.9777 22.1369V6.18139C24.9857 5.95016 24.9468 5.71971 24.8632 5.50397C24.7796 5.28824 24.6531 5.09171 24.4913 4.92629C23.0009 3.46723 21.5261 2.02386 20.0671 0.53342C19.9308 0.377449 19.765 0.250011 19.5792 0.158459C19.3934 0.0669058 19.1913 0.0130505 18.9846 0H17.4157V0.0156888Z" fill="black"/>
<path d="M17.4154 0.0940691V0.015625H7.42163V6.38528C7.42163 7.60901 8.00212 8.315 9.19447 8.34638C11.3281 8.34638 13.4932 8.34638 15.6739 8.34638C15.9201 8.36055 16.1663 8.31981 16.3948 8.22709C16.6233 8.13438 16.8283 7.99201 16.995 7.81031C17.1617 7.62861 17.2859 7.41212 17.3586 7.17651C17.4313 6.9409 17.4507 6.69207 17.4154 6.44804C17.4154 5.85186 17.4154 5.24 17.4154 4.61245C17.4154 3.98489 17.4154 3.04356 17.4154 2.24344V0.0940691ZM15.6896 6.58924H9.11602C9.11602 5.91462 9.11602 5.25569 9.11602 4.59676C9.11602 3.93783 9.11602 2.83961 9.11602 1.97673C9.13396 1.90717 9.16929 1.84332 9.21869 1.79118C9.26809 1.73903 9.32994 1.70031 9.39842 1.67864H15.6739L15.6896 6.58924Z" fill="#E42525"/>
</svg>
