<svg width="25" height="25" viewBox="0 0 25 25" fill="none" xmlns="http://www.w3.org/2000/svg">
<path d="M12.5 1.41884C14.6916 1.41884 16.8341 2.06874 18.6564 3.28635C20.4787 4.50397 21.8989 6.23461 22.7377 8.25942C23.5764 10.2842 23.7958 12.5123 23.3682 14.6618C22.9407 16.8114 21.8853 18.7858 20.3356 20.3356C18.7858 21.8853 16.8114 22.9407 14.6618 23.3682C12.5123 23.7958 10.2842 23.5764 8.25943 22.7377C6.23461 21.8989 4.50397 20.4786 3.28636 18.6564C2.06875 16.8341 1.41885 14.6916 1.41885 12.5C1.4226 9.56225 2.59128 6.74589 4.66859 4.66858C6.7459 2.59128 9.56225 1.4226 12.5 1.41884V1.41884ZM12.5 0C10.0277 0 7.61099 0.733112 5.55538 2.10663C3.49976 3.48015 1.89761 5.43238 0.951511 7.71646C0.00541609 10.0005 -0.242126 12.5139 0.24019 14.9386C0.722505 17.3634 1.91301 19.5907 3.66117 21.3388C5.40933 23.087 7.63661 24.2775 10.0614 24.7598C12.4861 25.2421 14.9995 24.9946 17.2835 24.0485C19.5676 23.1024 21.5199 21.5002 22.8934 19.4446C24.2669 17.389 25 14.9723 25 12.5C25 10.8585 24.6767 9.23303 24.0485 7.71646C23.4203 6.19989 22.4996 4.8219 21.3388 3.66116C20.1781 2.50043 18.8001 1.57969 17.2835 0.951506C15.767 0.323322 14.1415 0 12.5 0V0Z" fill="black"/>
<path d="M12.032 10.5277C12.0377 10.9038 11.9342 11.2734 11.7341 11.5919C11.5256 11.9079 11.2366 12.1625 10.897 12.3296C11.2806 12.5025 11.6094 12.7773 11.8476 13.1242C12.0894 13.4737 12.2137 13.8912 12.2023 14.316C12.2136 14.6437 12.1505 14.9696 12.0178 15.2694C11.8851 15.5692 11.6862 15.8351 11.4361 16.047C10.8651 16.4989 10.1484 16.726 9.42136 16.6855C8.68539 16.7278 7.95918 16.5008 7.37822 16.047C7.13068 15.8337 6.93448 15.5672 6.80428 15.2675C6.67407 14.9678 6.61321 14.6426 6.62624 14.316C6.61487 13.8912 6.73911 13.4737 6.98095 13.1242C7.21631 12.7803 7.53972 12.5059 7.91738 12.3296C7.61548 12.1469 7.36233 11.8938 7.17958 11.5919C6.99005 11.2695 6.89194 10.9016 6.89582 10.5277C6.88129 10.2147 6.93608 9.90229 7.05626 9.61288C7.17644 9.32346 7.35905 9.06416 7.59105 8.85349C8.10924 8.43751 8.75698 8.21657 9.42136 8.2292C10.1099 8.19952 10.7857 8.42142 11.3226 8.85349C11.558 9.06219 11.7438 9.3208 11.8665 9.61044C11.9892 9.90008 12.0458 10.2135 12.032 10.5277ZM10.5706 14.1883C10.5835 13.8702 10.4715 13.5596 10.2585 13.3228C10.148 13.215 10.017 13.1305 9.87313 13.0745C9.7293 13.0184 9.57565 12.9919 9.42136 12.9965C9.2682 12.994 9.11616 13.023 8.97462 13.0815C8.83308 13.1401 8.70505 13.2271 8.59843 13.337C8.38543 13.5737 8.27341 13.8843 8.28628 14.2025C8.27898 14.3559 8.30288 14.5092 8.35653 14.6531C8.41018 14.797 8.49248 14.9285 8.59843 15.0396C8.70901 15.1514 8.84212 15.2383 8.98891 15.2945C9.1357 15.3508 9.2928 15.3752 9.44973 15.366C9.60114 15.3747 9.75269 15.3515 9.89449 15.2977C10.0363 15.2439 10.1652 15.1608 10.2727 15.0538C10.3776 14.9368 10.458 14.7999 10.5092 14.6512C10.5603 14.5026 10.5812 14.3452 10.5706 14.1883V14.1883ZM10.4004 10.6129C10.4142 10.3302 10.3233 10.0523 10.145 9.83249C10.0517 9.73614 9.93883 9.66094 9.81399 9.61198C9.68915 9.56303 9.55525 9.54145 9.42136 9.54872C9.28938 9.53963 9.15705 9.56043 9.03423 9.60956C8.9114 9.65869 8.80124 9.73489 8.71193 9.83249C8.52989 10.0502 8.43846 10.3296 8.45654 10.6129C8.45297 10.8811 8.54332 11.1421 8.71193 11.3506C8.79923 11.4562 8.91035 11.5396 9.03615 11.5939C9.16195 11.6481 9.29883 11.6718 9.43554 11.6628C9.56992 11.6695 9.704 11.6448 9.82715 11.5906C9.95029 11.5364 10.0591 11.4542 10.145 11.3506C10.3136 11.1421 10.4039 10.8811 10.4004 10.6129V10.6129Z" fill="#E42525"/>
<path d="M18.2889 10.5276C18.2965 10.9059 18.1875 11.2774 17.9767 11.5917C17.7738 11.9072 17.4895 12.1621 17.1538 12.3295C17.5374 12.5024 17.8663 12.7772 18.1044 13.1241C18.3463 13.4736 18.4705 13.891 18.4591 14.3159C18.4722 14.6424 18.4113 14.9677 18.2811 15.2674C18.1509 15.5671 17.9547 15.8336 17.7072 16.0469C17.1318 16.5009 16.4099 16.7281 15.6782 16.6854C14.9469 16.7254 14.2259 16.4985 13.6493 16.0469C13.394 15.8377 13.1897 15.5731 13.052 15.2732C12.9143 14.9732 12.8469 14.6458 12.8547 14.3159C12.8434 13.891 12.9676 13.4736 13.2094 13.1241C13.4415 12.7772 13.7658 12.502 14.1459 12.3295C13.8129 12.1582 13.5295 11.9041 13.3229 11.5917C13.1228 11.2733 13.0193 10.9037 13.025 10.5276C13.0122 10.2134 13.0692 9.90038 13.1919 9.6109C13.3146 9.32141 13.4998 9.0627 13.7344 8.85336C14.2861 8.40793 14.9847 8.18522 15.6924 8.22907C16.3809 8.19939 17.0567 8.42129 17.5937 8.85336C17.8264 9.06341 18.0096 9.3226 18.1298 9.61217C18.2501 9.90174 18.3044 10.2144 18.2889 10.5276ZM16.87 14.2024C16.8883 13.8859 16.7813 13.575 16.5721 13.3369C16.4616 13.2291 16.3306 13.1446 16.1867 13.0885C16.0429 13.0325 15.8893 13.006 15.735 13.0106C15.5805 13.0043 15.4263 13.03 15.2823 13.0862C15.1382 13.1423 15.0073 13.2277 14.8979 13.3369C14.7897 13.4524 14.7063 13.5887 14.6526 13.7375C14.5989 13.8863 14.5762 14.0445 14.5857 14.2024C14.5784 14.3558 14.6023 14.5091 14.656 14.653C14.7096 14.7968 14.7919 14.9283 14.8979 15.0395C15.1288 15.244 15.4265 15.3569 15.735 15.3569C16.0434 15.3569 16.3412 15.244 16.5721 15.0395C16.7601 14.7979 16.8466 14.4925 16.8133 14.1882L16.87 14.2024ZM16.714 10.6127C16.7278 10.33 16.6369 10.0522 16.4586 9.83236C16.3653 9.73601 16.2524 9.66081 16.1276 9.61185C16.0028 9.5629 15.8689 9.54132 15.735 9.54859C15.6029 9.53845 15.4702 9.55875 15.3472 9.60795C15.2243 9.65715 15.1142 9.73392 15.0255 9.83236C14.8435 10.0501 14.7521 10.3295 14.7702 10.6127C14.7563 10.8954 14.8472 11.1733 15.0255 11.3931C15.1114 11.4967 15.2202 11.5788 15.3434 11.633C15.4665 11.6872 15.6006 11.7119 15.735 11.7052C15.8657 11.7004 15.9936 11.6659 16.1091 11.6045C16.2246 11.543 16.3247 11.4562 16.4018 11.3505C16.5704 11.1419 16.6608 10.8809 16.6572 10.6127H16.714Z" fill="#E42525"/>
</svg>
