<svg width="25" height="22" viewBox="0 0 25 22" fill="none" xmlns="http://www.w3.org/2000/svg">
<path d="M20.1187 12.2538L13.6389 9.33924C13.8359 8.63732 13.8674 7.89924 13.7308 7.18309C13.5942 6.46695 13.2932 5.79227 12.8516 5.21217C12.41 4.63206 11.8398 4.16236 11.1859 3.84001C10.532 3.51767 9.81217 3.35148 9.08311 3.35453C8.00422 3.35426 6.95792 3.72428 6.11908 4.40277C5.28023 5.08125 4.69966 6.02708 4.47439 7.08219C4.24912 8.1373 4.39281 9.23776 4.88144 10.1997C5.37006 11.1616 6.17402 11.9266 7.15895 12.367C7.76337 12.6405 8.41968 12.7805 9.08311 12.7773C9.8703 12.7771 10.645 12.5803 11.3368 12.2048C12.0286 11.8292 12.6157 11.2868 13.0446 10.6267V10.6267L19.5245 13.5413C19.6176 13.5625 19.7144 13.5625 19.8075 13.5413C19.9433 13.5396 20.0759 13.5004 20.1908 13.428C20.3057 13.3556 20.3983 13.2528 20.4583 13.131C20.5191 12.9686 20.518 12.7895 20.4554 12.6278C20.3928 12.4661 20.273 12.333 20.1187 12.2538ZM12.0825 9.42413C11.8216 10.0012 11.4 10.4909 10.868 10.8346C10.3361 11.1784 9.71644 11.3616 9.08311 11.3624C8.59627 11.3752 8.11278 11.2785 7.66829 11.0795C6.9707 10.7708 6.40176 10.2297 6.05845 9.54847C5.71514 8.86725 5.61872 8.08804 5.78562 7.34368C5.95251 6.59932 6.3724 5.93588 6.9737 5.46645C7.575 4.99702 8.3205 4.75066 9.08311 4.76936C9.54755 4.76826 10.0065 4.86971 10.4272 5.06647C10.8232 5.24246 11.1805 5.49512 11.4784 5.80989C11.7762 6.12466 12.0088 6.4953 12.1627 6.90043C12.3166 7.30556 12.3888 7.73715 12.375 8.1703C12.3613 8.60345 12.2618 9.02959 12.0825 9.42413V9.42413Z" fill="#E42525"/>
<path d="M22.6372 0.00216765H2.27791C1.97893 -0.00159953 1.68219 0.0542758 1.40505 0.166527C1.12792 0.278779 0.875936 0.445154 0.663847 0.655926C0.451759 0.866697 0.283817 1.11764 0.169841 1.39407C0.0558647 1.6705 -0.00185866 1.96688 4.56258e-05 2.26589V14.9003C4.56258e-05 15.5006 0.238544 16.0764 0.663074 16.501C1.0876 16.9255 1.66339 17.164 2.26377 17.164H10.7527L10.116 20.2342H8.94174C8.75412 20.2342 8.57419 20.3087 8.44152 20.4414C8.30886 20.574 8.23433 20.754 8.23433 20.9416C8.23433 21.1292 8.30886 21.3091 8.44152 21.4418C8.57419 21.5745 8.75412 21.649 8.94174 21.649H16.0159C16.2035 21.649 16.3834 21.5745 16.5161 21.4418C16.6487 21.3091 16.7233 21.1292 16.7233 20.9416C16.7233 20.754 16.6487 20.574 16.5161 20.4414C16.3834 20.3087 16.2035 20.2342 16.0159 20.2342H14.8982L14.2473 17.164H22.7363C23.3367 17.164 23.9124 16.9255 24.337 16.501C24.7615 16.0764 25 15.5006 25 14.9003V2.26589C25.0003 1.96009 24.9386 1.65741 24.8187 1.3761C24.6988 1.09479 24.5232 0.840691 24.3023 0.629137C24.0815 0.417584 23.8202 0.252961 23.534 0.145203C23.2478 0.0374461 22.9427 -0.0112111 22.6372 0.00216765V0.00216765ZM13.4126 20.2342H11.5026L12.1392 17.164H12.7335L13.4126 20.2342ZM23.4861 14.9003C23.4861 15.1254 23.3967 15.3413 23.2375 15.5005C23.0783 15.6597 22.8624 15.7492 22.6372 15.7492H2.27791C2.05277 15.7492 1.83685 15.6597 1.67765 15.5005C1.51846 15.3413 1.42902 15.1254 1.42902 14.9003V2.26589C1.42902 2.04075 1.51846 1.82483 1.67765 1.66563C1.83685 1.50643 2.05277 1.41699 2.27791 1.41699H22.6372C22.8624 1.41699 23.0783 1.50643 23.2375 1.66563C23.3967 1.82483 23.4861 2.04075 23.4861 2.26589V14.9003Z" fill="black"/>
</svg>
