<svg width="25" height="24" viewBox="0 0 25 24" fill="none" xmlns="http://www.w3.org/2000/svg">
<path d="M5.58552 22.7225C5.30729 22.7157 5.03065 22.6785 4.76054 22.6114C4.16226 22.4397 3.61786 22.1177 3.17911 21.6762C2.74037 21.2347 2.42186 20.6882 2.25388 20.0889C2.10298 19.5251 2.11051 18.9306 2.27566 18.3708C2.4408 17.8109 2.75715 17.3075 3.18991 16.9159L9.10753 10.9824L10.2181 12.093L4.30046 18.0106C4.06906 18.2169 3.89918 18.4831 3.80959 18.7799C3.72 19.0766 3.71418 19.3924 3.79278 19.6923C3.88705 20.0204 4.06316 20.3193 4.3046 20.5607C4.54603 20.8021 4.84486 20.9782 5.17303 21.0725C5.45854 21.1433 5.75811 21.1333 6.03826 21.0436C6.31842 20.954 6.56814 20.7882 6.75952 20.5648L12.6771 14.6472L13.7877 15.7736L7.96526 21.6754C7.65847 21.9998 7.28989 22.2596 6.8812 22.4394C6.4725 22.6192 6.03197 22.7155 5.58552 22.7225ZM15.1045 14.5044L13.9939 13.378L17.0241 10.3478L17.4684 10.4747C18.2909 10.7167 19.1651 10.7214 19.9903 10.4885C20.8154 10.2555 21.558 9.79433 22.1327 9.15794C22.7209 8.53281 23.1161 7.75117 23.2709 6.90689C23.4257 6.06261 23.3334 5.19159 23.0052 4.39846L20.3241 7.23828L18.1981 6.66714L17.627 4.54124L20.451 1.78074C19.6411 1.50401 18.7715 1.45079 17.9339 1.62669C17.0963 1.80259 16.3217 2.20109 15.6915 2.78023C15.0677 3.34565 14.6195 4.07835 14.4001 4.89116C14.1807 5.70398 14.1994 6.56271 14.454 7.3652L14.5968 7.80942L11.4873 10.8238L10.3767 9.71321L12.7406 7.33347C12.5182 6.31752 12.5668 5.26096 12.8815 4.2697C13.1961 3.27843 13.7658 2.38728 14.5333 1.68555C15.3757 0.889713 16.425 0.347111 17.5614 0.119847C18.6977 -0.107416 19.875 -0.0101582 20.9586 0.40049C21.2062 0.479984 21.4287 0.622829 21.604 0.814853C21.7794 1.00688 21.9014 1.24141 21.9581 1.49517C22.0145 1.76368 22.0003 2.04223 21.9169 2.30361C21.8335 2.565 21.6837 2.80027 21.4822 2.98648L19.4039 5.01719L19.4991 5.36622L19.8481 5.46141L22.0375 3.27204C22.2237 3.09193 22.4512 2.96016 22.7001 2.88826C22.949 2.81635 23.2117 2.8065 23.4653 2.85956C23.7183 2.92214 23.9519 3.04607 24.1456 3.22039C24.3393 3.39471 24.4871 3.61406 24.5759 3.85905C24.9958 4.92144 25.1069 6.08088 24.8964 7.20368C24.6858 8.32649 24.1623 9.36693 23.386 10.205C22.665 10.9963 21.7506 11.5864 20.7325 11.9174C19.7145 12.2484 18.6279 12.3089 17.5794 12.093L15.1045 14.5044Z" fill="black"/>
<path d="M3.41185 1.68562C3.91622 1.68947 4.39952 1.88847 4.76037 2.24089L11.0112 8.58687L10.0275 9.61809L11.1539 10.7286L18.0393 17.5506L19.1499 18.677L19.8955 17.9472L21.0219 20.2L19.9431 21.2788L17.6744 20.1524L18.4518 19.3909L17.2778 18.2645L10.44 11.3791L9.34534 10.2527L8.32998 11.2046L2.07919 4.98552C1.83848 4.71712 1.67894 4.38589 1.61911 4.03037C1.55928 3.67484 1.60164 3.30963 1.74125 2.97724C1.88085 2.64484 2.11197 2.35891 2.40772 2.15273C2.70347 1.94654 3.05168 1.82857 3.41185 1.81254V1.68562ZM3.41185 0.226041C2.73687 0.241214 2.08078 0.451825 1.52309 0.832352C0.965398 1.21288 0.530039 1.74698 0.269771 2.36995C0.00950353 2.99291 -0.0645 3.67799 0.0567287 4.34216C0.177957 5.00633 0.489214 5.62109 0.952781 6.11194L7.83817 12.9973C7.97344 13.1186 8.14833 13.1863 8.32998 13.1877C8.42049 13.1902 8.51059 13.1746 8.59503 13.142C8.67947 13.1093 8.75655 13.0601 8.82179 12.9973L9.34534 12.5055L16.2307 19.3909L15.7389 19.8827C15.664 19.9637 15.6081 20.0603 15.575 20.1656C15.542 20.2709 15.5328 20.3821 15.5479 20.4914C15.5631 20.6007 15.6023 20.7052 15.6628 20.7975C15.7233 20.8897 15.8034 20.9674 15.8976 21.025L19.8321 22.9922C19.9365 23.016 20.0449 23.016 20.1494 22.9922C20.2448 22.9928 20.3393 22.9733 20.4268 22.9351C20.5142 22.8968 20.5927 22.8406 20.657 22.7701L22.6243 20.8029C22.728 20.6986 22.7961 20.5642 22.8189 20.4189C22.8417 20.2736 22.818 20.1248 22.7512 19.9938L20.7522 16.1227C20.7074 16.024 20.6392 15.9378 20.5535 15.8714C20.4678 15.8051 20.3672 15.7606 20.2604 15.742H20.1494C20.0552 15.7403 19.9617 15.7577 19.8744 15.7932C19.7872 15.8286 19.708 15.8814 19.6417 15.9482L19.1499 16.44L12.2645 9.61809L12.7563 9.12628C12.8861 8.99551 12.959 8.81872 12.959 8.63446C12.959 8.4502 12.8861 8.27341 12.7563 8.14265L5.87091 1.1938C5.55557 0.855524 5.1753 0.58425 4.7528 0.396171C4.33031 0.208092 3.87425 0.107065 3.41185 0.0991211V0.226041Z" fill="#E42525"/>
</svg>
