<svg width="21" height="25" viewBox="0 0 21 25" fill="none" xmlns="http://www.w3.org/2000/svg">
<path d="M6.87075 13.2116L5.8584 14.6968L13.0547 19.6022L14.0671 18.117L6.87075 13.2116Z" fill="black"/>
<path d="M13.0622 4.88849L5.86328 9.79004L6.87486 11.2757L14.0738 6.37419L13.0622 4.88849Z" fill="black"/>
<path d="M4.16668 16.0951C3.34259 16.0951 2.537 15.8507 1.8518 15.3929C1.16659 14.935 0.632538 14.2843 0.317171 13.5229C0.00180536 12.7616 -0.0807088 11.9238 0.0800634 11.1155C0.240836 10.3073 0.637673 9.56483 1.22039 8.98211C1.80311 8.39939 2.54555 8.00255 3.3538 7.84178C4.16206 7.68101 4.99984 7.76352 5.7612 8.07889C6.52256 8.39426 7.17331 8.92831 7.63115 9.61352C8.08899 10.2987 8.33336 11.1043 8.33336 11.9284C8.32906 13.0321 7.88869 14.0895 7.10821 14.8699C6.32774 15.6504 5.27043 16.0908 4.16668 16.0951ZM4.16668 9.39571C3.66576 9.39571 3.17609 9.54425 2.7596 9.82255C2.3431 10.1008 2.01848 10.4964 1.82678 10.9592C1.63509 11.422 1.58493 11.9312 1.68266 12.4225C1.78038 12.9138 2.0216 13.3651 2.3758 13.7193C2.73 14.0735 3.18128 14.3147 3.67258 14.4124C4.16387 14.5101 4.67311 14.46 5.1359 14.2683C5.59869 14.0766 5.99424 13.752 6.27253 13.3355C6.55083 12.919 6.69937 12.4293 6.69937 11.9284C6.69937 11.2567 6.43253 10.6125 5.95756 10.1375C5.48259 9.66255 4.83839 9.39571 4.16668 9.39571V9.39571Z" fill="#E42525"/>
<path d="M16.34 8.33336C15.5159 8.33336 14.7103 8.08899 14.0251 7.63115C13.3399 7.17331 12.8059 6.52256 12.4905 5.7612C12.1751 4.99984 12.0926 4.16206 12.2534 3.3538C12.4142 2.54555 12.811 1.80311 13.3937 1.22039C13.9765 0.637673 14.7189 0.240836 15.5271 0.0800634C16.3354 -0.0807088 17.1732 0.00180536 17.9345 0.317171C18.6959 0.632538 19.3466 1.16659 19.8045 1.8518C20.2623 2.53701 20.5067 3.34259 20.5067 4.16668C20.5067 4.71386 20.3989 5.25567 20.1895 5.7612C19.9801 6.26672 19.6732 6.72606 19.2863 7.11297C18.8994 7.49988 18.4401 7.8068 17.9345 8.01619C17.429 8.22559 16.8872 8.33336 16.34 8.33336V8.33336ZM16.34 1.63399C15.8391 1.63399 15.3494 1.78253 14.9329 2.06083C14.5164 2.33912 14.1918 2.73468 14.0001 3.19746C13.8084 3.66025 13.7583 4.16949 13.856 4.66078C13.9537 5.15208 14.1949 5.60336 14.5491 5.95756C14.9033 6.31176 15.3546 6.55298 15.8459 6.6507C16.3372 6.74843 16.8465 6.69827 17.3092 6.50658C17.772 6.31489 18.1676 5.99026 18.4459 5.57377C18.7242 5.15727 18.8727 4.6676 18.8727 4.16668C18.8749 3.83348 18.8109 3.50316 18.6843 3.1949C18.5578 2.88664 18.3714 2.60658 18.1357 2.37096C17.9001 2.13535 17.6201 1.94887 17.3118 1.82236C17.0035 1.69585 16.6732 1.63182 16.34 1.63399V1.63399Z" fill="#E42525"/>
<path d="M16.34 24.9999C15.5159 24.9999 14.7103 24.7555 14.0251 24.2977C13.3399 23.8398 12.8059 23.1891 12.4905 22.4277C12.1751 21.6663 12.0926 20.8286 12.2534 20.0203C12.4142 19.2121 12.811 18.4696 13.3937 17.8869C13.9765 17.3042 14.7189 16.9073 15.5271 16.7466C16.3354 16.5858 17.1732 16.6683 17.9345 16.9837C18.6959 17.299 19.3466 17.8331 19.8045 18.5183C20.2623 19.2035 20.5067 20.0091 20.5067 20.8332C20.5067 21.3804 20.3989 21.9222 20.1895 22.4277C19.9801 22.9332 19.6732 23.3926 19.2863 23.7795C18.8994 24.1664 18.4401 24.4733 17.9345 24.6827C17.429 24.8921 16.8872 24.9999 16.34 24.9999V24.9999ZM16.34 18.3005C15.8391 18.3005 15.3494 18.449 14.9329 18.7273C14.5164 19.0056 14.1918 19.4012 14.0001 19.864C13.8084 20.3268 13.7583 20.836 13.856 21.3273C13.9537 21.8186 14.1949 22.2699 14.5491 22.6241C14.9033 22.9783 15.3546 23.2195 15.8459 23.3172C16.3372 23.4149 16.8465 23.3648 17.3092 23.1731C17.772 22.9814 18.1676 22.6568 18.4459 22.2403C18.7242 21.8238 18.8727 21.3341 18.8727 20.8332C18.8749 20.5 18.8109 20.1697 18.6843 19.8614C18.5578 19.5531 18.3714 19.2731 18.1357 19.0375C17.9001 18.8019 17.6201 18.6154 17.3118 18.4889C17.0035 18.3624 16.6732 18.2983 16.34 18.3005V18.3005Z" fill="#E42525"/>
</svg>
