<svg width="25" height="25" viewBox="0 0 25 25" fill="none" xmlns="http://www.w3.org/2000/svg">
<path d="M12.5 1.41884C14.6928 1.41042 16.8389 2.0528 18.6664 3.26465C20.494 4.4765 21.9209 6.20335 22.7666 8.22658C23.6122 10.2498 23.8386 12.4785 23.417 14.6304C22.9954 16.7823 21.9448 18.7608 20.3982 20.3154C18.8516 21.8699 16.8785 22.9306 14.7288 23.3633C12.579 23.7959 10.3493 23.581 8.32171 22.7457C6.29417 21.9105 4.56003 20.4924 3.33882 18.6711C2.11761 16.8497 1.46424 14.707 1.46141 12.5142C1.46137 9.58132 2.62255 6.76775 4.69107 4.68859C6.75959 2.60943 9.56718 1.43384 12.5 1.41884V1.41884ZM12.5 0C10.0277 0 7.61099 0.733112 5.55538 2.10663C3.49976 3.48015 1.89761 5.43238 0.951511 7.71646C0.00541609 10.0005 -0.242126 12.5139 0.24019 14.9386C0.722505 17.3634 1.91301 19.5907 3.66117 21.3388C5.40933 23.087 7.63661 24.2775 10.0614 24.7598C12.4861 25.2421 14.9995 24.9946 17.2835 24.0485C19.5676 23.1024 21.5199 21.5002 22.8934 19.4446C24.2669 17.389 25 14.9723 25 12.5C24.9962 9.18594 23.6781 6.0087 21.3347 3.66531C18.9913 1.32192 15.8141 0.0037553 12.5 0V0Z" fill="black"/>
<path d="M16.4019 19.8634H8.55575C8.21822 19.8597 7.89556 19.724 7.65688 19.4853C7.4182 19.2466 7.28248 18.924 7.27879 18.5865V13.3367C6.98637 13.4157 6.67551 13.3893 6.40058 13.2622C6.12565 13.1351 5.90415 12.9154 5.77482 12.6415L4.35598 9.4633C4.28472 9.31167 4.24436 9.14737 4.23723 8.97999C4.2301 8.8126 4.25635 8.64546 4.31445 8.48832C4.37256 8.33118 4.46135 8.18717 4.57566 8.06469C4.68997 7.9422 4.82751 7.84368 4.98027 7.77488L8.95303 5.67499C10.2867 5.20678 11.1522 5.49054 11.6488 6.48373C12.0035 7.19316 12.1312 7.36342 12.4292 7.36342H12.5853C12.8832 7.36342 13.0109 7.17897 13.2947 6.59724C13.3989 6.35431 13.5525 6.13577 13.7459 5.95558C13.9393 5.77538 14.1681 5.63749 14.4178 5.55071C14.6675 5.46392 14.9325 5.43015 15.196 5.45155C15.4594 5.47295 15.7155 5.54905 15.9479 5.67499L20.0484 7.80326C20.1944 7.87042 20.3251 7.96674 20.4324 8.08631C20.5398 8.20587 20.6215 8.34614 20.6727 8.49849C20.7997 8.81246 20.7997 9.16351 20.6727 9.47749L19.2538 12.6415C19.1267 12.9173 18.9055 13.1387 18.6299 13.2662C18.3543 13.3936 18.0423 13.4186 17.7498 13.3367V18.5865C17.7501 18.7603 17.7149 18.9323 17.6463 19.0921C17.5778 19.2518 17.4773 19.3959 17.3511 19.5154C17.2249 19.635 17.0756 19.7275 16.9124 19.7874C16.7492 19.8472 16.5755 19.8731 16.4019 19.8634V19.8634ZM8.7402 18.4446H16.2601V12.2159C16.2593 12.0934 16.2903 11.9729 16.35 11.866C16.4097 11.7591 16.496 11.6694 16.6006 11.6058C16.7067 11.5461 16.8264 11.5147 16.9482 11.5147C17.07 11.5147 17.1897 11.5461 17.2958 11.6058L17.9485 11.9463L19.3673 9.03765L15.3804 6.95195C14.8128 6.75331 14.7419 6.95195 14.6284 7.1364C14.2737 7.84582 13.8338 8.86739 12.5427 8.81063H12.4008C11.9531 8.77942 11.5253 8.61372 11.1734 8.33523C10.8215 8.05673 10.5619 7.67844 10.4286 7.24991C10.2584 6.88101 10.1874 6.75331 9.52056 6.98033L5.71807 8.99508L7.05178 11.9179L7.70445 11.5774C7.80965 11.5149 7.92972 11.482 8.05206 11.482C8.1744 11.482 8.29448 11.5149 8.39968 11.5774C8.50314 11.6388 8.58891 11.7259 8.6486 11.8304C8.70829 11.9348 8.73985 12.053 8.7402 12.1733V18.4446Z" fill="#E42525"/>
</svg>
