<svg width="25" height="25" viewBox="0 0 25 25" fill="none" xmlns="http://www.w3.org/2000/svg">
<path d="M12.5 1.41885C14.6916 1.41885 16.8341 2.06875 18.6564 3.28636C20.4786 4.50397 21.8989 6.23461 22.7376 8.25943C23.5764 10.2842 23.7958 12.5123 23.3682 14.6618C22.9407 16.8114 21.8853 18.7858 20.3356 20.3356C18.7858 21.8853 16.8114 22.9407 14.6618 23.3682C12.5123 23.7958 10.2842 23.5764 8.25942 22.7376C6.23461 21.8989 4.50397 20.4786 3.28636 18.6564C2.06875 16.8341 1.41885 14.6916 1.41885 12.5C1.41885 9.5611 2.58632 6.74256 4.66444 4.66444C6.74256 2.58632 9.56109 1.41885 12.5 1.41885V1.41885ZM12.5 8.07151e-06C10.0277 8.07151e-06 7.61099 0.73312 5.55537 2.10664C3.49976 3.48015 1.89761 5.43239 0.951511 7.71646C0.00541592 10.0005 -0.242125 12.5139 0.24019 14.9386C0.722504 17.3634 1.91301 19.5907 3.66117 21.3388C5.40932 23.087 7.63661 24.2775 10.0614 24.7598C12.4861 25.2421 14.9995 24.9946 17.2835 24.0485C19.5676 23.1024 21.5198 21.5002 22.8934 19.4446C24.2669 17.389 25 14.9723 25 12.5C25.0019 10.858 24.6798 9.23166 24.0523 7.71425C23.4248 6.19684 22.5041 4.81811 21.343 3.65701C20.1819 2.4959 18.8032 1.57523 17.2857 0.947711C15.7683 0.320189 14.142 -0.00185895 12.5 8.07151e-06V8.07151e-06Z" fill="black"/>
<path d="M18.5722 15.4796C18.5353 15.381 18.4785 15.291 18.4052 15.2153C18.332 15.1396 18.2439 15.0799 18.1466 15.0397H18.0614L17.8912 14.9546C17.3673 14.6989 16.9178 14.3129 16.5859 13.8337C16.4996 13.7076 16.4237 13.5748 16.3588 13.4365C16.3391 13.3863 16.3391 13.3305 16.3588 13.2804L16.444 13.1952L16.6994 13.025L17.0257 12.7696C17.23 12.6359 17.4001 12.4561 17.5223 12.2446C17.5816 12.1056 17.6122 11.956 17.6122 11.8048C17.6122 11.6536 17.5816 11.504 17.5223 11.3649C17.4412 11.1662 17.3012 10.9972 17.1211 10.8805C16.9409 10.7638 16.7294 10.7051 16.5149 10.7123H16.2311H16.146C16.146 10.4285 16.146 10.1306 16.146 9.84678C16.1146 9.30786 15.9489 8.78536 15.6639 8.32689C15.3789 7.86842 14.9837 7.48856 14.5143 7.22193C13.9358 6.90524 13.2868 6.73926 12.6273 6.73926C11.9677 6.73926 11.3188 6.90524 10.7402 7.22193C10.2537 7.49261 9.8453 7.88427 9.55448 8.35902C9.26367 8.83377 9.1003 9.37554 9.08018 9.93191C9.05895 10.22 9.05895 10.5093 9.08018 10.7974H8.99505H8.71128C8.50315 10.7759 8.29336 10.8171 8.10881 10.9157C7.92427 11.0143 7.77339 11.1658 7.67553 11.3508C7.61621 11.4898 7.58563 11.6394 7.58563 11.7906C7.58563 11.9418 7.61621 12.0914 7.67553 12.2304C7.81188 12.4537 8.00216 12.6391 8.22888 12.7696L8.51264 12.954L8.76804 13.1243C8.80315 13.145 8.83244 13.1743 8.85317 13.2094C8.87293 13.2596 8.87293 13.3154 8.85317 13.3655C8.79142 13.5054 8.71534 13.6386 8.62615 13.7628C8.29303 14.2266 7.85563 14.6057 7.34919 14.8695C7.06543 15.0256 6.76747 15.1249 6.63977 15.4654C6.58953 15.6048 6.58158 15.7559 6.61692 15.8998C6.65226 16.0437 6.72931 16.1739 6.83841 16.2741V16.2741C6.93259 16.3666 7.03737 16.4475 7.15056 16.5153C7.38982 16.6413 7.64193 16.7412 7.90254 16.8133L8.05862 16.8842C8.14375 16.9552 8.05862 17.0687 8.24306 17.2389C8.30756 17.3292 8.38392 17.4103 8.47008 17.4801C8.72118 17.6189 9.00672 17.6829 9.29301 17.6646C9.60548 17.6694 9.91581 17.7171 10.2153 17.8065C10.3774 17.8646 10.5304 17.9458 10.6693 18.0477C11.241 18.4422 11.9185 18.6549 12.6131 18.6578C13.3038 18.6583 13.9778 18.4452 14.5427 18.0477C14.6834 17.9486 14.8359 17.8676 14.9967 17.8065C15.2962 17.7171 15.6065 17.6694 15.919 17.6646C16.2057 17.6879 16.4927 17.6236 16.7419 17.4801C16.8451 17.4035 16.9319 17.307 16.9973 17.1964C17.0824 17.0545 17.0824 16.9552 17.1534 16.8842L17.2953 16.8133C17.5613 16.7438 17.8184 16.6438 18.0614 16.5153C18.1821 16.4466 18.2921 16.3606 18.3878 16.2599C18.4905 16.1615 18.5625 16.0355 18.5953 15.897C18.628 15.7586 18.62 15.6136 18.5722 15.4796V15.4796Z" fill="#E42525"/>
</svg>
