<svg width="25" height="17" viewBox="0 0 25 17" fill="none" xmlns="http://www.w3.org/2000/svg">
<path d="M16.0154 5.38655H4.11002C3.92208 5.38655 3.74183 5.31189 3.60893 5.17899C3.47603 5.04609 3.40137 4.86584 3.40137 4.67789C3.40137 4.48995 3.47603 4.3097 3.60893 4.1768C3.74183 4.0439 3.92208 3.96924 4.11002 3.96924H16.0154C16.2034 3.96924 16.3836 4.0439 16.5165 4.1768C16.6494 4.3097 16.7241 4.48995 16.7241 4.67789C16.7241 4.86584 16.6494 5.04609 16.5165 5.17899C16.3836 5.31189 16.2034 5.38655 16.0154 5.38655Z" fill="#E42525"/>
<path d="M16.0156 9.28401H0.708656C0.520709 9.28401 0.340459 9.20935 0.207561 9.07645C0.0746617 8.94355 0 8.7633 0 8.57536C0 8.38741 0.0746617 8.20716 0.207561 8.07426C0.340459 7.94136 0.520709 7.8667 0.708656 7.8667H16.0156C16.2036 7.8667 16.3838 7.94136 16.5167 8.07426C16.6496 8.20716 16.7243 8.38741 16.7243 8.57536C16.7243 8.7633 16.6496 8.94355 16.5167 9.07645C16.3838 9.20935 16.2036 9.28401 16.0156 9.28401Z" fill="#E42525"/>
<path d="M16.0155 13.182H6.236C6.04805 13.182 5.8678 13.1073 5.7349 12.9744C5.60201 12.8415 5.52734 12.6613 5.52734 12.4733C5.52734 12.2854 5.60201 12.1051 5.7349 11.9722C5.8678 11.8393 6.04805 11.7646 6.236 11.7646H16.0155C16.2034 11.7646 16.3836 11.8393 16.5165 11.9722C16.6494 12.1051 16.7241 12.2854 16.7241 12.4733C16.7241 12.6613 16.6494 12.8415 16.5165 12.9744C16.3836 13.1073 16.2034 13.182 16.0155 13.182Z" fill="#E42525"/>
<path d="M17.1495 2.24019L23.6266 8.02282L17.1495 13.8338V2.24019ZM16.4975 0.000835941C16.3689 0.00488283 16.2449 0.0495348 16.1432 0.128394V0.128394C16.0125 0.251022 15.9104 0.40097 15.8442 0.567556C15.7781 0.734142 15.7495 0.913266 15.7605 1.09217V14.996C15.7341 15.2426 15.7873 15.4911 15.9122 15.7053C16.0372 15.9195 16.2274 16.0882 16.455 16.1865V16.1865C16.5584 16.1833 16.6597 16.1559 16.7507 16.1067C16.8417 16.0575 16.92 15.9878 16.9794 15.9031C16.9794 15.9031 16.9794 15.9031 16.9794 15.9031L24.6471 9.07163C24.8764 8.80386 24.9976 8.46024 24.9872 8.10786C25.013 7.92638 24.9997 7.7415 24.9484 7.56554C24.8971 7.38958 24.8089 7.22657 24.6896 7.0874L16.9085 0.114221C16.7872 0.0333597 16.6431 -0.00638805 16.4975 0.000835941Z" fill="black"/>
</svg>
