<svg width="25" height="25" viewBox="0 0 25 25" fill="none" xmlns="http://www.w3.org/2000/svg">
<path d="M12.5 1.41885C14.6916 1.41885 16.8341 2.06875 18.6564 3.28636C20.4786 4.50397 21.8989 6.23461 22.7376 8.25943C23.5764 10.2842 23.7958 12.5123 23.3682 14.6618C22.9407 16.8114 21.8853 18.7858 20.3356 20.3356C18.7858 21.8853 16.8114 22.9407 14.6618 23.3682C12.5123 23.7958 10.2842 23.5764 8.25942 22.7376C6.23461 21.8989 4.50397 20.4786 3.28636 18.6564C2.06875 16.8341 1.41885 14.6916 1.41885 12.5C1.41885 9.5611 2.58632 6.74256 4.66444 4.66444C6.74256 2.58632 9.56109 1.41885 12.5 1.41885V1.41885ZM12.5 8.07151e-06C10.0277 8.07151e-06 7.61099 0.73312 5.55537 2.10664C3.49976 3.48015 1.89761 5.43239 0.951511 7.71646C0.00541592 10.0005 -0.242125 12.5139 0.24019 14.9386C0.722504 17.3634 1.91301 19.5907 3.66117 21.3388C5.40932 23.087 7.63661 24.2775 10.0614 24.7598C12.4861 25.2421 14.9995 24.9946 17.2835 24.0485C19.5676 23.1024 21.5198 21.5002 22.8934 19.4446C24.2669 17.389 25 14.9723 25 12.5C25.0019 10.858 24.6798 9.23166 24.0523 7.71425C23.4248 6.19684 22.5041 4.81811 21.343 3.65701C20.1819 2.4959 18.8032 1.57523 17.2857 0.947711C15.7683 0.320189 14.142 -0.00185895 12.5 8.07151e-06V8.07151e-06Z" fill="black"/>
<path d="M16.2035 18.7996C16.0163 18.7995 15.8317 18.7557 15.6643 18.6719L12.5712 17.1254L9.39304 18.6719C9.18261 18.771 8.94973 18.8126 8.71801 18.7927C8.48629 18.7728 8.26395 18.6919 8.07352 18.5584C7.892 18.4247 7.74912 18.2453 7.6594 18.0384C7.56969 17.8316 7.53634 17.6047 7.56274 17.3808L8.07352 13.8904L5.67568 11.3507C5.50774 11.1745 5.39429 10.9536 5.34898 10.7145C5.30367 10.4753 5.32843 10.2282 5.42029 10.0028C5.50527 9.79585 5.64551 9.61624 5.82568 9.48362C6.00584 9.351 6.219 9.27046 6.44185 9.25081L9.80451 8.66908L11.351 5.5902C11.4788 5.38573 11.6566 5.21719 11.8677 5.10052C12.0787 4.98384 12.3159 4.92286 12.5571 4.92334C12.7754 4.93161 12.9877 4.9977 13.1722 5.11486C13.3566 5.23202 13.5067 5.39606 13.607 5.5902L15.2245 8.68327L18.6723 9.29337C18.8814 9.31741 19.0798 9.39914 19.2451 9.52944C19.4105 9.65973 19.5364 9.83345 19.6087 10.0312C19.692 10.2514 19.7149 10.4898 19.675 10.7219C19.6351 10.9539 19.5338 11.171 19.3817 11.3507L16.842 13.933L17.4095 17.3666C17.4396 17.5963 17.4067 17.8299 17.3142 18.0424C17.2218 18.2548 17.0732 18.4381 16.8845 18.5726C16.6867 18.7173 16.4486 18.7967 16.2035 18.7996V18.7996ZM6.8817 10.6413L9.15184 12.9398C9.28653 13.0961 9.38551 13.2799 9.44187 13.4784C9.49823 13.6769 9.51062 13.8853 9.47818 14.0891L9.00996 17.2673L11.9753 15.8484C12.2884 15.7435 12.6271 15.7435 12.9401 15.8484H13.082L15.9197 17.2673L15.4515 14.0465C15.417 13.7046 15.5077 13.3617 15.7069 13.0817L18.0622 10.6555L14.9123 10.0737C14.5704 9.98292 14.2699 9.77759 14.061 9.49201L12.5003 6.49826L10.9821 9.42107C10.7953 9.73338 10.4956 9.96196 10.145 10.0595L6.8817 10.6413Z" fill="#E42525"/>
</svg>
