<svg width="25" height="28" viewBox="0 0 25 28" fill="none" xmlns="http://www.w3.org/2000/svg">
<path d="M20.8044 19.2944C20.8044 19.106 20.7296 18.9253 20.5964 18.7921C20.4631 18.6588 20.2824 18.584 20.094 18.584C19.9056 18.584 19.7249 18.6588 19.5917 18.7921C19.4585 18.9253 19.3836 19.106 19.3836 19.2944C19.2767 20.4254 18.7735 21.4822 17.9628 22.2781C17.1598 22.9974 16.1785 23.4881 15.1212 23.6989C14.9622 23.2018 14.6524 22.7665 14.2349 22.4534C13.8174 22.1403 13.3128 21.9648 12.7911 21.9513C12.3199 21.9521 11.8582 22.0846 11.4582 22.3338C11.0583 22.583 10.7359 22.939 10.5274 23.3617C10.319 23.7844 10.2328 24.2568 10.2786 24.7259C10.3243 25.1949 10.5002 25.6418 10.7864 26.0162C11.0726 26.3906 11.4577 26.6776 11.8984 26.8448C12.339 27.012 12.8175 27.0528 13.28 26.9625C13.7426 26.8722 14.1707 26.6545 14.5161 26.3339C14.8615 26.0133 15.1105 25.6026 15.2349 25.1481C16.668 24.907 18.0005 24.2555 19.0711 23.2726C20.1064 22.1968 20.7214 20.7852 20.8044 19.2944V19.2944ZM12.7911 25.5743C12.5707 25.5771 12.3545 25.5142 12.1701 25.3935C11.9857 25.2728 11.8415 25.0999 11.7559 24.8968C11.6702 24.6937 11.6471 24.4697 11.6894 24.2534C11.7317 24.0372 11.8375 23.8384 11.9934 23.6826C12.1492 23.5267 12.348 23.4209 12.5643 23.3786C12.7806 23.3363 13.0045 23.3594 13.2076 23.445C13.4107 23.5307 13.5836 23.6749 13.7043 23.8593C13.825 24.0437 13.8879 24.2599 13.8851 24.4803C13.8815 24.7693 13.765 25.0454 13.5606 25.2498C13.3563 25.4542 13.0801 25.5706 12.7911 25.5743V25.5743Z" fill="#E42525"/>
<path d="M22.7369 10.6844V9.10733C22.7369 4.0777 18.1761 0 12.5071 0C6.83811 0 2.23472 4.0777 2.23472 9.09312V10.6986C1.57016 10.9277 0.995769 11.3624 0.594726 11.9397C0.193682 12.5169 -0.0131923 13.2069 0.00406147 13.9096V17.419C-0.0385694 18.2662 0.255765 19.0959 0.822786 19.7268C1.38981 20.3577 2.18344 20.7386 3.03037 20.7863H4.92003C5.10844 20.7863 5.28913 20.7115 5.42236 20.5782C5.55559 20.445 5.63043 20.2643 5.63043 20.0759V11.2527H5.68726V9.83194C5.68726 6.47885 8.71357 3.83616 12.5071 3.83616C16.3006 3.83616 19.3838 6.49306 19.3838 9.78931V11.2101V20.0333C19.3838 20.2217 19.4586 20.4024 19.5918 20.5356C19.7251 20.6688 19.9058 20.7437 20.0942 20.7437H21.9696C22.8166 20.696 23.6102 20.3151 24.1772 19.6841C24.7442 19.0532 25.0386 18.2236 24.9959 17.3764V13.9096C25.0121 13.2015 24.8016 12.5068 24.3952 11.9266C23.9889 11.3465 23.4079 10.9113 22.7369 10.6844V10.6844ZM3.04457 19.3655C2.57311 19.3187 2.13898 19.0883 1.83594 18.7241C1.53289 18.3599 1.38524 17.8911 1.42486 17.419V13.9096C1.38524 13.4375 1.53289 12.9687 1.83594 12.6046C2.13898 12.2404 2.57311 12.01 3.04457 11.9631H4.26646V17.6463V19.3229L3.04457 19.3655ZM12.5071 2.41536C7.93213 2.41536 4.26646 5.69741 4.26646 9.77511V10.5423H3.69814V9.12154C3.69814 4.85914 7.67638 1.43501 12.5497 1.43501C17.4231 1.43501 21.3161 4.87334 21.3161 9.10733V10.5281H20.762V9.77511C20.8046 5.69741 17.0537 2.41536 12.5071 2.41536ZM23.5751 17.4332C23.615 17.9031 23.4692 18.3699 23.1692 18.7337C22.8691 19.0975 22.4385 19.3294 21.9696 19.3797H20.8046V11.9631H21.9696C22.4385 12.0134 22.8691 12.2453 23.1692 12.6091C23.4692 12.9729 23.615 13.4397 23.5751 13.9096V17.4332Z" fill="black"/>
</svg>
