<svg width="25" height="26" viewBox="0 0 25 26" fill="none" xmlns="http://www.w3.org/2000/svg">
<path d="M20.695 7.13599C20.0457 7.13599 19.4111 6.94347 18.8712 6.58278C18.3314 6.22208 17.9107 5.70941 17.6622 5.10959C17.4138 4.50978 17.3488 3.84976 17.4754 3.213C17.6021 2.57623 17.9147 1.99133 18.3738 1.53225C18.8329 1.07317 19.4178 0.760536 20.0545 0.633876C20.6913 0.507217 21.3513 0.572223 21.9511 0.820675C22.551 1.06913 23.0636 1.48987 23.4243 2.02969C23.785 2.56951 23.9775 3.20416 23.9775 3.8534C23.9775 4.724 23.6317 5.55894 23.0161 6.17454C22.4005 6.79015 21.5655 7.13599 20.695 7.13599ZM20.695 1.99802C20.328 1.99802 19.9693 2.10683 19.6642 2.31071C19.359 2.51458 19.1212 2.80435 18.9808 3.14338C18.8404 3.4824 18.8036 3.85546 18.8752 4.21537C18.9468 4.57527 19.1235 4.90587 19.383 5.16535C19.6425 5.42483 19.9731 5.60154 20.333 5.67313C20.6929 5.74472 21.0659 5.70798 21.405 5.56755C21.744 5.42712 22.0338 5.18931 22.2376 4.88419C22.4415 4.57908 22.5503 4.22036 22.5503 3.8534C22.5503 3.60975 22.5023 3.36848 22.4091 3.14338C22.3159 2.91827 22.1792 2.71373 22.0069 2.54145C21.8346 2.36916 21.6301 2.23249 21.405 2.13925C21.1799 2.04601 20.9386 1.99802 20.695 1.99802V1.99802Z" fill="black"/>
<path d="M5.99431 11.9886C4.80875 11.9886 3.64981 11.6371 2.66405 10.9784C1.67829 10.3197 0.909987 9.38355 0.456292 8.28823C0.00259723 7.19291 -0.11611 5.98766 0.115182 4.82488C0.346473 3.6621 0.917375 2.59401 1.75569 1.75569C2.59401 0.917375 3.6621 0.346473 4.82488 0.115182C5.98766 -0.11611 7.19291 0.00259723 8.28823 0.456292C9.38355 0.909987 10.3197 1.67829 10.9784 2.66405C11.6371 3.64981 11.9886 4.80875 11.9886 5.99431C11.9886 7.5841 11.3571 9.10877 10.2329 10.2329C9.10877 11.3571 7.5841 11.9886 5.99431 11.9886V11.9886ZM5.99431 1.42722C5.09102 1.42722 4.20802 1.69507 3.45697 2.19691C2.70591 2.69875 2.12054 3.41203 1.77487 4.24656C1.4292 5.08109 1.33875 5.99937 1.51497 6.8853C1.6912 7.77123 2.12617 8.58501 2.76489 9.22373C3.40361 9.86245 4.21738 10.2974 5.10331 10.4736C5.98924 10.6499 6.90753 10.5594 7.74206 10.2137C8.57658 9.86808 9.28987 9.2827 9.7917 8.53165C10.2935 7.78059 10.5614 6.89759 10.5614 5.99431C10.5576 4.7842 10.0753 3.62473 9.21957 2.76905C8.36389 1.91337 7.20442 1.43098 5.99431 1.42722V1.42722Z" fill="#E42525"/>
<path d="M19.5955 8.82002C19.8557 8.82067 20.1095 8.9003 20.3234 9.04837C20.4659 9.14265 20.5877 9.26502 20.6813 9.40799C20.7749 9.55097 20.8384 9.71154 20.8678 9.87988C20.8972 10.0482 20.8919 10.2208 20.8523 10.387C20.8127 10.5533 20.7396 10.7097 20.6374 10.8467L14.9285 20.7087L14.7715 20.9228C14.6979 21.0417 14.5949 21.1397 14.4724 21.2072C14.3499 21.2747 14.2121 21.3095 14.0722 21.3082C13.816 21.2971 13.5684 21.2129 13.3586 21.0655L9.89047 18.6964L9.57648 18.5536L9.27676 18.2682L8.99132 18.0684L7.79246 17.2406L6.99322 18.4395C6.09407 19.781 5.16638 21.1083 4.25297 22.4071L3.68208 23.2492C3.36809 23.6916 3.13974 23.6916 3.02556 23.6916H2.85429C2.66618 23.6815 2.4837 23.6238 2.32394 23.524C2.16419 23.4241 2.03239 23.2854 1.94088 23.1207C1.87973 22.9443 1.86336 22.7554 1.89326 22.571C1.92315 22.3867 1.99836 22.2127 2.11214 22.0646C2.89711 20.9228 3.69635 19.7668 4.48132 18.6535L4.6954 18.3395C5.26629 17.526 5.83718 16.7268 6.39379 15.899C6.53383 15.7192 6.71071 15.5714 6.91256 15.4656C7.11441 15.3597 7.33656 15.2983 7.56411 15.2853C7.63936 15.2691 7.71721 15.2691 7.79246 15.2853C8.44058 15.5673 9.07412 15.8817 9.69066 16.2273L11.1179 17.212L11.6888 17.6117L12.959 18.4965L13.7297 17.1692L16.1845 12.9732L17.0836 11.546C17.5261 10.8324 17.9685 10.1188 18.5108 9.40518C18.6277 9.21983 18.79 9.06745 18.9824 8.96253C19.1747 8.85761 19.3907 8.80364 19.6098 8.80575L19.5955 8.82002ZM19.6098 7.37853C19.1542 7.38047 18.7061 7.49481 18.3053 7.7114C17.9045 7.928 17.5633 8.24016 17.312 8.62021C16.841 9.33382 16.3843 10.0474 15.8848 10.7896L14.9856 12.2168L12.5165 16.4984L10.4471 15.0712C9.76233 14.6817 9.05723 14.3292 8.3348 14.0151C8.08915 13.9195 7.82769 13.8711 7.56411 13.8724C7.10489 13.8861 6.65498 14.0052 6.24913 14.2205C5.84328 14.4358 5.49236 14.7415 5.22347 15.114C4.65259 15.9133 4.09597 16.7268 3.52509 17.5403L3.311 17.8543C2.52603 18.9675 1.71252 20.1236 0.941826 21.2653C0.680671 21.6092 0.514244 22.0155 0.45915 22.4437C0.404055 22.8719 0.462219 23.3071 0.627838 23.7059C0.812222 24.0996 1.09617 24.4383 1.45162 24.6886C1.80706 24.939 2.22168 25.0922 2.65448 25.1331H2.98274C3.35112 25.1231 3.71117 25.0213 4.0302 24.8369C4.34924 24.6524 4.61714 24.3912 4.80958 24.077L5.38047 23.2349C6.29388 21.9361 7.23585 20.5945 8.13499 19.253L8.72015 19.6669L9.03414 19.8809C10.1902 20.6516 11.4176 21.4081 12.488 22.2358C12.9323 22.5578 13.4664 22.7325 14.0151 22.7354C14.3293 22.7387 14.6406 22.6754 14.9285 22.5498C15.3272 22.3766 15.6651 22.0884 15.899 21.722L21.8505 11.546C22.0461 11.2519 22.1816 10.9222 22.2494 10.5756C22.3172 10.229 22.3159 9.87251 22.2457 9.52644C22.1754 9.18038 22.0375 8.85158 21.8399 8.55892C21.6423 8.26626 21.3888 8.01548 21.0941 7.82097C20.6453 7.52424 20.1193 7.36547 19.5813 7.36426L19.6098 7.37853Z" fill="black"/>
<path d="M13.5589 25.3048C13.4217 25.3043 13.2876 25.2635 13.1734 25.1873C13.0592 25.1112 12.9699 25.0032 12.9167 24.8766L8.14977 14.2724C8.101 14.1812 8.07306 14.0803 8.06798 13.977C8.0629 13.8737 8.0808 13.7705 8.12039 13.675C8.15998 13.5794 8.22027 13.4938 8.29692 13.4244C8.37357 13.3549 8.46468 13.3034 8.56366 13.2734C8.73594 13.1961 8.93179 13.1903 9.10834 13.2572C9.28489 13.3241 9.42775 13.4582 9.50563 13.6302L14.2725 24.2629C14.3498 24.4352 14.3556 24.6311 14.2887 24.8076C14.2218 24.9842 14.0877 25.127 13.9157 25.2049C13.8067 25.2667 13.6842 25.301 13.5589 25.3048Z" fill="#E42525"/>
<path d="M14.6434 12.6735C14.4542 12.6981 14.2629 12.6465 14.1117 12.5301C13.9604 12.4136 13.8617 12.2419 13.8371 12.0526C13.8125 11.8634 13.864 11.6721 13.9805 11.5209C14.0969 11.3696 14.2686 11.2709 14.4579 11.2463L24.0773 8.64873C24.171 8.62436 24.2686 8.61869 24.3645 8.63204C24.4604 8.64539 24.5528 8.67751 24.6363 8.72654C24.7198 8.77558 24.7928 8.84058 24.8512 8.91783C24.9095 8.99509 24.9521 9.08308 24.9765 9.1768C25.0008 9.27051 25.0065 9.3681 24.9932 9.464C24.9798 9.55991 24.9477 9.65224 24.8987 9.73574C24.8496 9.81923 24.7846 9.89225 24.7074 9.95062C24.6301 10.009 24.5421 10.0516 24.4484 10.0759L14.829 12.6449L14.6434 12.6735Z" fill="#E42525"/>
</svg>
