<svg width="24" height="25" viewBox="0 0 24 25" fill="none" xmlns="http://www.w3.org/2000/svg">
<path d="M13.6353 23.289C13.4608 23.289 13.2934 23.2196 13.17 23.0963C13.0467 22.9729 12.9774 22.8056 12.9774 22.6311C12.9807 22.4576 13.0511 22.2922 13.1738 22.1696C13.2964 22.0469 13.4618 21.9765 13.6353 21.9732C14.7668 21.8551 15.8359 21.3963 16.701 20.6574C17.4463 19.9164 17.9113 18.9398 18.0168 17.8942C18.0168 17.7197 18.0861 17.5524 18.2095 17.429C18.3329 17.3056 18.5002 17.2363 18.6747 17.2363C18.8492 17.2363 19.0165 17.3056 19.1399 17.429C19.2633 17.5524 19.3326 17.7197 19.3326 17.8942C19.2526 19.2728 18.6779 20.5763 17.7142 21.5653C16.5848 22.5787 15.1491 23.1854 13.6353 23.289Z" fill="#E42525"/>
<path d="M4.55644 17.0268C4.38195 17.0268 4.21462 16.9575 4.09124 16.8341C3.96786 16.7107 3.89854 16.5434 3.89854 16.3689V9.05309C3.95118 5.27678 7.34591 2.2373 11.5828 2.2373C15.8196 2.2373 19.267 5.28994 19.267 9.06625V10.382C19.267 10.5565 19.1977 10.7239 19.0743 10.8472C18.9509 10.9706 18.7836 11.0399 18.6091 11.0399C18.4346 11.0399 18.2673 10.9706 18.1439 10.8472C18.0205 10.7239 17.9512 10.5565 17.9512 10.382V9.06625C17.9512 6.00046 15.0828 3.55309 11.5828 3.55309C8.08276 3.55309 5.26697 6.00046 5.26697 9.05309V16.3689C5.26726 16.4599 5.24866 16.55 5.21236 16.6334C5.17606 16.7169 5.12283 16.7919 5.05605 16.8537C4.98927 16.9156 4.91039 16.9629 4.8244 16.9927C4.7384 17.0224 4.64716 17.0341 4.55644 17.0268V17.0268Z" fill="black"/>
<path d="M11.8456 25.0006C11.3824 25.0006 10.9296 24.8633 10.5444 24.6059C10.1592 24.3485 9.85905 23.9828 9.68178 23.5548C9.50451 23.1268 9.45813 22.6559 9.5485 22.2016C9.63887 21.7473 9.86193 21.3299 10.1895 21.0024C10.517 20.6748 10.9344 20.4518 11.3887 20.3614C11.843 20.271 12.3139 20.3174 12.7419 20.4947C13.1698 20.672 13.5356 20.9722 13.793 21.3573C14.0503 21.7425 14.1877 22.1953 14.1877 22.6585C14.1877 22.9661 14.1271 23.2706 14.0094 23.5548C13.8917 23.839 13.7192 24.0971 13.5017 24.3146C13.2842 24.5321 13.026 24.7046 12.7419 24.8223C12.4577 24.94 12.1532 25.0006 11.8456 25.0006V25.0006ZM11.8456 21.6454C11.5951 21.6739 11.3639 21.7936 11.196 21.9816C11.0281 22.1697 10.9353 22.413 10.9353 22.6651C10.9353 22.9172 11.0281 23.1605 11.196 23.3486C11.3639 23.5366 11.5951 23.6563 11.8456 23.6848C11.9892 23.7012 12.1347 23.687 12.2725 23.6432C12.4103 23.5994 12.5372 23.527 12.6451 23.4307C12.7529 23.3345 12.8392 23.2165 12.8983 23.0845C12.9574 22.9526 12.9879 22.8097 12.9879 22.6651C12.9879 22.5205 12.9574 22.3776 12.8983 22.2456C12.8392 22.1137 12.7529 21.9957 12.6451 21.8995C12.5372 21.8032 12.4103 21.7308 12.2725 21.687C12.1347 21.6432 11.9892 21.629 11.8456 21.6454V21.6454Z" fill="#E42525"/>
<path d="M20.4247 10.9868C20.2502 10.9868 20.0829 10.9175 19.9595 10.7941C19.8361 10.6708 19.7668 10.5034 19.7668 10.3289V8.43421C19.7668 4.48684 16.0957 1.31579 11.5826 1.31579C7.06941 1.31579 3.3852 4.51316 3.3852 8.43421V10.3026C3.3852 10.4771 3.31589 10.6445 3.19251 10.7678C3.06913 10.8912 2.90179 10.9605 2.72731 10.9605C2.55282 10.9605 2.38548 10.8912 2.26211 10.7678C2.13873 10.6445 2.06941 10.4771 2.06941 10.3026V8.44737C2.06941 3.77632 6.33257 0 11.5826 0C16.8326 0 21.0563 3.77632 21.0563 8.43421V10.3289C21.0564 10.499 20.9907 10.6624 20.873 10.7851C20.7552 10.9077 20.5946 10.98 20.4247 10.9868Z" fill="black"/>
<path d="M4.55639 19.25H2.80639C2.02206 19.2058 1.28709 18.8531 0.761974 18.2688C0.236862 17.6845 -0.0357188 16.9162 0.00376129 16.1316V12.8816C-0.0357188 12.097 0.236862 11.3287 0.761974 10.7444C1.28709 10.1601 2.02206 9.80738 2.80639 9.76318H4.55639C4.72982 9.76655 4.89521 9.83695 5.01787 9.9596C5.14052 10.0823 5.21092 10.2476 5.21429 10.4211V18.5921C5.21092 18.7656 5.14052 18.931 5.01787 19.0536C4.89521 19.1763 4.72982 19.2467 4.55639 19.25ZM2.80639 11.079C2.37215 11.1256 1.97341 11.3403 1.69551 11.6772C1.41762 12.0141 1.28267 12.4464 1.31955 12.8816V16.1316C1.27902 16.5654 1.41091 16.9978 1.6867 17.3352C1.96249 17.6725 2.36 17.8877 2.79324 17.9342H3.95113V11.079H2.80639Z" fill="black"/>
<path d="M20.3458 19.25H18.5958C18.4224 19.2467 18.257 19.1763 18.1343 19.0536C18.0117 18.931 17.9413 18.7656 17.9379 18.5921V10.4211C17.9413 10.2476 18.0117 10.0823 18.1343 9.9596C18.257 9.83695 18.4224 9.76655 18.5958 9.76318H20.3458C21.1278 9.81071 21.8594 10.1649 22.3817 10.7488C22.9041 11.3327 23.1749 12.0992 23.1353 12.8816V16.1316C23.1749 16.914 22.9041 17.6805 22.3817 18.2644C21.8594 18.8483 21.1278 19.2025 20.3458 19.25ZM19.2537 17.9342H20.3458C20.779 17.8877 21.1766 17.6725 21.4523 17.3352C21.7281 16.9978 21.86 16.5654 21.8195 16.1316V12.8816C21.8566 12.4485 21.7234 12.0179 21.4483 11.6814C21.1731 11.3448 20.7777 11.1287 20.3458 11.079H19.2537V17.9342Z" fill="black"/>
</svg>
