<svg width="25" height="26" viewBox="0 0 25 26" fill="none" xmlns="http://www.w3.org/2000/svg">
<path d="M13.0493 18.4389C12.8612 18.4389 12.6808 18.3642 12.5478 18.2312C12.4148 18.0982 12.3401 17.9178 12.3401 17.7298V8.60958C12.3401 8.42149 12.4148 8.24111 12.5478 8.10811C12.6808 7.97511 12.8612 7.90039 13.0493 7.90039C13.2374 7.90039 13.4178 7.97511 13.5508 8.10811C13.6837 8.24111 13.7585 8.42149 13.7585 8.60958V17.6872C13.7643 17.7839 13.7502 17.8807 13.7172 17.9717C13.6842 18.0627 13.6329 18.146 13.5664 18.2164C13.5 18.2868 13.4198 18.3429 13.3309 18.3812C13.2419 18.4195 13.1461 18.4391 13.0493 18.4389Z" fill="#E42525"/>
<path d="M4.75147 7.09182C4.34471 7.09182 3.94708 6.9712 3.60886 6.74521C3.27065 6.51922 3.00704 6.19802 2.85138 5.82221C2.69572 5.44641 2.65499 5.03288 2.73434 4.63393C2.8137 4.23498 3.00958 3.86852 3.2972 3.5809C3.58483 3.29327 3.95129 3.09739 4.35024 3.01803C4.74919 2.93868 5.16272 2.97941 5.53852 3.13507C5.91432 3.29073 6.23553 3.55434 6.46152 3.89255C6.6875 4.23077 6.80812 4.6284 6.80812 5.03517C6.80812 5.58062 6.59144 6.10374 6.20575 6.48944C5.82005 6.87513 5.29693 7.09182 4.75147 7.09182V7.09182ZM4.75147 4.3969C4.62524 4.3969 4.50183 4.43433 4.39687 4.50446C4.29191 4.5746 4.2101 4.67428 4.16179 4.79091C4.11348 4.90754 4.10084 5.03587 4.12547 5.15969C4.1501 5.2835 4.21089 5.39723 4.30015 5.48649C4.38941 5.57576 4.50314 5.63655 4.62695 5.66117C4.75077 5.6858 4.8791 5.67316 4.99573 5.62485C5.11236 5.57654 5.21204 5.49473 5.28218 5.38977C5.35231 5.28481 5.38975 5.1614 5.38975 5.03517C5.38975 4.86589 5.3225 4.70354 5.2028 4.58384C5.0831 4.46414 4.92075 4.3969 4.75147 4.3969Z" fill="black"/>
<path d="M9.14819 15.4888C8.68532 15.4888 8.23284 15.3515 7.84797 15.0943C7.46311 14.8372 7.16314 14.4717 6.98601 14.044C6.80888 13.6164 6.76253 13.1458 6.85283 12.6919C6.94313 12.2379 7.16603 11.8209 7.49333 11.4936C7.82063 11.1663 8.23763 10.9434 8.69161 10.8531C9.14559 10.7628 9.61615 10.8091 10.0438 10.9863C10.4714 11.1634 10.8369 11.4634 11.0941 11.8482C11.3513 12.2331 11.4885 12.6856 11.4885 13.1484C11.4885 13.7691 11.2419 14.3644 10.803 14.8033C10.3642 15.2422 9.76888 15.4888 9.14819 15.4888V15.4888ZM9.14819 12.2265C8.96584 12.2265 8.7876 12.2806 8.63598 12.3819C8.48437 12.4832 8.3662 12.6272 8.29642 12.7956C8.22664 12.9641 8.20838 13.1495 8.24396 13.3283C8.27953 13.5071 8.36734 13.6714 8.49627 13.8003C8.62521 13.9293 8.78949 14.0171 8.96833 14.0527C9.14717 14.0882 9.33254 14.07 9.501 14.0002C9.66947 13.9304 9.81345 13.8123 9.91476 13.6606C10.0161 13.509 10.0701 13.3308 10.0701 13.1484C10.0701 13.0274 10.0463 12.9075 9.99996 12.7956C9.95362 12.6838 9.88571 12.5821 9.8001 12.4965C9.71449 12.4109 9.61286 12.343 9.501 12.2967C9.38915 12.2503 9.26926 12.2265 9.14819 12.2265V12.2265Z" fill="#E42525"/>
<path d="M16.8081 15.4888C16.3452 15.4888 15.8927 15.3515 15.5079 15.0943C15.123 14.8372 14.8231 14.4717 14.6459 14.044C14.4688 13.6164 14.4224 13.1458 14.5127 12.6919C14.603 12.2379 14.8259 11.8209 15.1532 11.4936C15.4805 11.1663 15.8975 10.9434 16.3515 10.8531C16.8055 10.7628 17.2761 10.8091 17.7037 10.9863C18.1313 11.1634 18.4969 11.4634 18.754 11.8482C19.0112 12.2331 19.1484 12.6856 19.1484 13.1484C19.1484 13.4558 19.0879 13.7601 18.9703 14.044C18.8527 14.328 18.6803 14.586 18.463 14.8033C18.2456 15.0206 17.9876 15.193 17.7037 15.3106C17.4198 15.4282 17.1154 15.4888 16.8081 15.4888ZM16.8081 12.2265C16.6258 12.2265 16.4475 12.2806 16.2959 12.3819C16.1443 12.4832 16.0261 12.6272 15.9563 12.7956C15.8866 12.9641 15.8683 13.1495 15.9039 13.3283C15.9394 13.5071 16.0272 13.6714 16.1562 13.8003C16.2851 13.9293 16.4494 14.0171 16.6282 14.0527C16.8071 14.0882 16.9924 14.07 17.1609 14.0002C17.3294 13.9304 17.4734 13.8123 17.5747 13.6606C17.676 13.509 17.73 13.3308 17.73 13.1484C17.73 13.0274 17.7062 12.9075 17.6599 12.7956C17.6135 12.6838 17.5456 12.5821 17.46 12.4965C17.3744 12.4109 17.2728 12.343 17.1609 12.2967C17.0491 12.2503 16.9292 12.2265 16.8081 12.2265V12.2265Z" fill="#E42525"/>
<path d="M8.97834 1.41838C9.94243 1.47728 10.8578 1.86244 11.574 2.51053L23.4033 14.3114C23.5259 14.4449 23.5939 14.6196 23.5939 14.8008C23.5939 14.982 23.5259 15.1567 23.4033 15.2901L15.2759 23.4033C15.2123 23.4652 15.1368 23.5135 15.0538 23.5452C14.9709 23.5769 14.8824 23.5913 14.7937 23.5876C14.6116 23.5872 14.4356 23.5218 14.2973 23.4033L2.51053 11.5882C1.87162 10.8606 1.48808 9.9441 1.41838 8.97834V2.11338C1.42201 1.93019 1.4964 1.75552 1.62596 1.62596C1.75552 1.4964 1.93019 1.42201 2.11338 1.41838H8.97834ZM8.97834 0H2.11338C1.55403 0.00371678 1.01864 0.22757 0.623103 0.623103C0.22757 1.01864 0.00371678 1.55403 0 2.11338V8.97834C0.0631484 10.3226 0.5951 11.6023 1.50348 12.5952L13.2902 24.3961C13.6928 24.7874 14.2322 25.0062 14.7937 25.006C15.0699 25.0073 15.3436 24.9541 15.5991 24.8495C15.8547 24.7448 16.0871 24.5907 16.283 24.3961L24.3961 16.2972C24.7835 15.8954 25 15.3589 25 14.8008C25 14.2426 24.7835 13.7062 24.3961 13.3044L12.581 1.50348C11.5958 0.591938 10.3193 0.0592212 8.97834 0V0Z" fill="black"/>
</svg>
