<svg width="25" height="25" viewBox="0 0 25 25" fill="none" xmlns="http://www.w3.org/2000/svg">
<path d="M12.5 1.41885C14.6928 1.41323 16.8381 2.05836 18.6641 3.27255C20.4901 4.48674 21.9148 6.21541 22.7579 8.23973C23.6009 10.264 23.8244 12.493 23.4001 14.6444C22.9757 16.7958 21.9226 18.7729 20.374 20.3255C18.8254 21.878 16.851 22.9362 14.7007 23.3661C12.5504 23.796 10.3209 23.5782 8.29438 22.7403C6.26791 21.9025 4.5356 20.4822 3.31672 18.6593C2.09785 16.8364 1.44723 14.6929 1.44722 12.5C1.44721 9.56601 2.61079 6.75176 4.68278 4.67446C6.75476 2.59715 9.56601 1.42636 12.5 1.41885V1.41885ZM12.5 8.07151e-06C10.0277 8.07151e-06 7.61099 0.73312 5.55537 2.10664C3.49976 3.48015 1.89761 5.43239 0.951511 7.71646C0.00541609 10.0005 -0.242126 12.5139 0.240189 14.9386C0.722504 17.3634 1.91301 19.5907 3.66117 21.3388C5.40932 23.087 7.63661 24.2775 10.0614 24.7598C12.4861 25.2421 14.9995 24.9946 17.2835 24.0485C19.5676 23.1024 21.5198 21.5002 22.8934 19.4446C24.2669 17.389 25 14.9723 25 12.5C25.0019 10.858 24.6798 9.23166 24.0523 7.71425C23.4248 6.19684 22.5041 4.81811 21.343 3.65701C20.1819 2.4959 18.8032 1.57523 17.2857 0.947711C15.7683 0.320189 14.142 -0.00185895 12.5 8.07151e-06V8.07151e-06Z" fill="black"/>
<path d="M10.3146 12.0602C9.90775 12.0602 9.50998 11.9395 9.17166 11.7135C8.83333 11.4874 8.56964 11.1661 8.41393 10.7902C8.25822 10.4143 8.21747 10.0006 8.29686 9.60151C8.37624 9.20243 8.57218 8.83585 8.8599 8.54813C9.14762 8.26041 9.5142 8.06447 9.91328 7.98509C10.3124 7.90571 10.726 7.94645 11.1019 8.10216C11.4779 8.25788 11.7992 8.52157 12.0252 8.85989C12.2513 9.19822 12.372 9.59598 12.372 10.0029C12.372 10.5485 12.1552 11.0718 11.7694 11.4576C11.3836 11.8434 10.8603 12.0602 10.3146 12.0602ZM10.3146 9.3644C10.1884 9.3644 10.0649 9.40184 9.95993 9.472C9.85493 9.54216 9.77309 9.64188 9.72477 9.75854C9.67644 9.87521 9.6638 10.0036 9.68843 10.1274C9.71307 10.2513 9.77388 10.3651 9.86317 10.4544C9.95247 10.5436 10.0662 10.6045 10.1901 10.6291C10.3139 10.6537 10.4423 10.6411 10.559 10.5928C10.6756 10.5444 10.7754 10.4626 10.8455 10.3576C10.9157 10.2526 10.9531 10.1292 10.9531 10.0029C10.9531 9.83354 10.8859 9.67114 10.7661 9.5514C10.6464 9.43167 10.484 9.3644 10.3146 9.3644V9.3644Z" fill="#E42525"/>
<path d="M11.2943 6.76796C11.7741 6.81082 12.2295 6.99889 12.5997 7.30712L20.1195 14.8412L15.0117 19.9348L7.50602 12.415C7.1878 12.0495 6.99401 11.5924 6.95267 11.1096V6.76796H11.2943ZM11.2943 5.34912H6.88173C6.50543 5.34912 6.14454 5.49861 5.87846 5.76469C5.61238 6.03077 5.46289 6.39166 5.46289 6.76796V11.1096C5.50714 11.969 5.84813 12.7863 6.4277 13.4223L13.9759 20.9848C14.239 21.2383 14.5896 21.3806 14.9549 21.382C15.1299 21.3835 15.3033 21.349 15.4644 21.2807C15.6255 21.2123 15.7708 21.1116 15.8914 20.9848L21.0985 15.7918C21.3378 15.5302 21.4705 15.1886 21.4705 14.8341C21.4705 14.4796 21.3378 14.1379 21.0985 13.8764L13.5929 6.31393C12.9638 5.73229 12.1501 5.39072 11.2943 5.34912V5.34912Z" fill="#E42525"/>
</svg>
