<svg width="25" height="26" viewBox="0 0 25 26" fill="none" xmlns="http://www.w3.org/2000/svg">
<path d="M5.41747 11.7688C5.28097 11.7677 5.14735 11.7294 5.031 11.658C4.91465 11.5866 4.81999 11.4848 4.7572 11.3636C4.70007 11.2725 4.66279 11.1704 4.64779 11.0639C4.63278 10.9574 4.6404 10.8489 4.67013 10.7455C4.69987 10.6422 4.75105 10.5462 4.82035 10.464C4.88965 10.3817 4.97551 10.315 5.07233 10.2682C7.7134 8.88761 7.62336 4.74593 7.36826 3.26033V2.76513C7.29567 2.37401 7.30486 1.97209 7.39525 1.5847C7.48564 1.1973 7.65528 0.832823 7.89347 0.514217C8.30706 0.153325 8.84623 -0.029994 9.39408 0.00400953C11.78 0.00400953 13.3257 2.72011 13.3257 6.92182C13.3257 7.41702 13.3257 7.73214 13.3257 7.98725C13.3885 8.48872 13.358 8.99749 13.2356 9.48786C13.1939 9.68685 13.0747 9.86109 12.9045 9.97225C12.7342 10.0834 12.5268 10.1224 12.3278 10.0806C12.1288 10.0388 11.9545 9.91968 11.8434 9.74942C11.7322 9.57917 11.6932 9.37172 11.735 9.17273C11.7864 8.8295 11.7864 8.48054 11.735 8.13731C11.735 7.85219 11.735 7.50705 11.735 6.98184C11.735 4.37078 10.9697 1.56464 9.30404 1.56464C8.91389 1.56464 8.82385 1.56464 8.82385 1.56464C8.75288 1.96274 8.76308 2.37108 8.85386 2.76513V3.24532C9.22901 5.31616 9.07895 9.96805 5.85264 11.7088C5.7161 11.7692 5.56528 11.79 5.41747 11.7688V11.7688Z" fill="black"/>
<path d="M22.2387 13.5992H16.3563C16.1573 13.5992 15.9665 13.5202 15.8258 13.3795C15.6851 13.2388 15.606 13.0479 15.606 12.8489C15.606 12.6499 15.6851 12.4591 15.8258 12.3184C15.9665 12.1777 16.1573 12.0986 16.3563 12.0986H22.2387C22.3841 12.1162 22.5316 12.1028 22.6714 12.0591C22.8113 12.0155 22.9403 11.9427 23.0499 11.8456C23.1595 11.7484 23.2473 11.6291 23.3074 11.4956C23.3675 11.362 23.3985 11.2172 23.3985 11.0707C23.3985 10.9242 23.3675 10.7794 23.3074 10.6458C23.2473 10.5123 23.1595 10.393 23.0499 10.2958C22.9403 10.1987 22.8113 10.1259 22.6714 10.0822C22.5316 10.0386 22.3841 10.0252 22.2387 10.0428H12.7999C12.6009 10.0428 12.41 9.96373 12.2693 9.82302C12.1286 9.68231 12.0496 9.49147 12.0496 9.29248C12.0496 9.09348 12.1286 8.90264 12.2693 8.76193C12.41 8.62122 12.6009 8.54217 12.7999 8.54217H22.2687C22.6171 8.51531 22.9674 8.56075 23.2974 8.67564C23.6274 8.79053 23.9302 8.97239 24.1866 9.20981C24.443 9.44723 24.6476 9.73509 24.7875 10.0553C24.9274 10.3755 24.9997 10.7212 24.9997 11.0707C24.9997 11.4202 24.9274 11.7659 24.7875 12.0861C24.6476 12.4063 24.443 12.6942 24.1866 12.9316C23.9302 13.169 23.6274 13.3509 23.2974 13.4658C22.9674 13.5806 22.6171 13.6261 22.2687 13.5992H22.2387Z" fill="black"/>
<path d="M22.2388 17.1861C22.041 17.1823 21.8523 17.102 21.7125 16.9621C21.5726 16.8222 21.4923 16.6336 21.4884 16.4358C21.4884 16.2368 21.5675 16.046 21.7082 15.9053C21.8489 15.7646 22.0398 15.6855 22.2388 15.6855C22.3767 15.6875 22.5137 15.6623 22.6419 15.6113C22.7701 15.5604 22.887 15.4847 22.9859 15.3885C23.0849 15.2924 23.1639 15.1777 23.2185 15.051C23.2731 14.9243 23.3022 14.7881 23.3042 14.6501C23.3023 14.5128 23.273 14.3773 23.2183 14.2515C23.1635 14.1256 23.0842 14.0119 22.9851 13.9169C22.8859 13.8219 22.7689 13.7476 22.6407 13.6983C22.5126 13.649 22.376 13.6257 22.2388 13.6297C22.041 13.6259 21.8523 13.5456 21.7125 13.4057C21.5726 13.2658 21.4923 13.0772 21.4884 12.8794C21.4884 12.6804 21.5675 12.4896 21.7082 12.3488C21.8489 12.2081 22.0398 12.1291 22.2388 12.1291C22.5872 12.1022 22.9374 12.1477 23.2674 12.2626C23.5975 12.3774 23.9002 12.5593 24.1566 12.7967C24.4131 13.0341 24.6177 13.322 24.7576 13.6422C24.8975 13.9625 24.9697 14.3081 24.9697 14.6576C24.9697 15.0071 24.8975 15.3528 24.7576 15.673C24.6177 15.9932 24.4131 16.2811 24.1566 16.5185C23.9002 16.7559 23.5975 16.9378 23.2674 17.0527C22.9374 17.1676 22.5872 17.213 22.2388 17.1861V17.1861Z" fill="black"/>
<path d="M21.6838 20.7726H18.0524C17.8534 20.7726 17.6625 20.6935 17.5218 20.5528C17.3811 20.4121 17.3021 20.2213 17.3021 20.0223C17.3021 19.8233 17.3811 19.6324 17.5218 19.4917C17.6625 19.351 17.8534 19.272 18.0524 19.272H21.6838C21.8198 19.2739 21.9548 19.2491 22.0812 19.1989C22.2076 19.1487 22.3229 19.0741 22.4204 18.9793C22.518 18.8846 22.5959 18.7715 22.6497 18.6467C22.7036 18.5218 22.7323 18.3875 22.7343 18.2515C22.7343 18.1143 22.707 17.9784 22.654 17.8518C22.6011 17.7252 22.5234 17.6104 22.4257 17.514C22.328 17.4177 22.212 17.3417 22.0847 17.2906C21.9573 17.2394 21.8211 17.2141 21.6838 17.2161H16.9119C16.7129 17.2161 16.5221 17.1371 16.3814 16.9964C16.2406 16.8557 16.1616 16.6648 16.1616 16.4658C16.1654 16.268 16.2457 16.0794 16.3856 15.9395C16.5255 15.7996 16.7141 15.7194 16.9119 15.7155H21.6838C22.0323 15.6886 22.3825 15.7341 22.7125 15.849C23.0426 15.9639 23.3453 16.1457 23.6017 16.3831C23.8581 16.6206 24.0627 16.9084 24.2027 17.2287C24.3426 17.5489 24.4148 17.8946 24.4148 18.244C24.4148 18.5935 24.3426 18.9392 24.2027 19.2594C24.0627 19.5796 23.8581 19.8675 23.6017 20.1049C23.3453 20.3423 23.0426 20.5242 22.7125 20.6391C22.3825 20.754 22.0323 20.7994 21.6838 20.7726V20.7726Z" fill="black"/>
<path d="M19.598 24.3439H5.65732C5.45832 24.3439 5.26748 24.2648 5.12677 24.1241C4.98606 23.9834 4.90701 23.7925 4.90701 23.5935C4.90701 23.3946 4.98606 23.2037 5.12677 23.063C5.26748 22.9223 5.45832 22.8432 5.65732 22.8432H19.598C19.7434 22.8608 19.8909 22.8474 20.0307 22.8038C20.1705 22.7602 20.2995 22.6874 20.4092 22.5902C20.5188 22.4931 20.6065 22.3738 20.6666 22.2402C20.7267 22.1066 20.7578 21.9618 20.7578 21.8153C20.7578 21.6688 20.7267 21.524 20.6666 21.3905C20.6065 21.2569 20.5188 21.1376 20.4092 21.0404C20.2995 20.9433 20.1705 20.8705 20.0307 20.8269C19.8909 20.7833 19.7434 20.7698 19.598 20.7874C19.399 20.7874 19.2081 20.7084 19.0674 20.5676C18.9267 20.4269 18.8477 20.2361 18.8477 20.0371C18.8477 19.8381 18.9267 19.6473 19.0674 19.5066C19.2081 19.3658 19.399 19.2868 19.598 19.2868C19.9464 19.2599 20.2966 19.3054 20.6267 19.4203C20.9567 19.5352 21.2594 19.717 21.5159 19.9544C21.7723 20.1919 21.9769 20.4797 22.1168 20.7999C22.2567 21.1202 22.3289 21.4659 22.3289 21.8153C22.3289 22.1648 22.2567 22.5105 22.1168 22.8307C21.9769 23.1509 21.7723 23.4388 21.5159 23.6762C21.2594 23.9136 20.9567 24.0955 20.6267 24.2104C20.2966 24.3253 19.9464 24.3707 19.598 24.3439V24.3439Z" fill="black"/>
<path d="M4.6819 9.68274V23.9235H1.50061V9.68274H4.6819ZM4.98202 8.18213H1.20049C0.882098 8.18213 0.57675 8.30861 0.351615 8.53374C0.12648 8.75888 0 9.06423 0 9.38262V24.2236C0 24.542 0.12648 24.8474 0.351615 25.0725C0.57675 25.2976 0.882098 25.4241 1.20049 25.4241H4.98202C5.30041 25.4241 5.60576 25.2976 5.83089 25.0725C6.05603 24.8474 6.18251 24.542 6.18251 24.2236V9.38262C6.18251 9.06423 6.05603 8.75888 5.83089 8.53374C5.60576 8.30861 5.30041 8.18213 4.98202 8.18213Z" fill="#E42525"/>
</svg>
