<svg width="19" height="25" viewBox="0 0 19 25" fill="none" xmlns="http://www.w3.org/2000/svg">
<path d="M18.1999 4.54287V0.28393C18.1903 0.209571 18.1555 0.140761 18.1012 0.0890583C18.0469 0.0373555 17.9765 0.00590889 17.9018 0H0.255536C0.185265 0.0129624 0.121563 0.0496297 0.0750592 0.103884C0.0285555 0.158138 0.00206252 0.226699 0 0.298126V4.55707C0.00127305 4.59745 0.0107381 4.63714 0.0278209 4.67375C0.0449038 4.71035 0.069248 4.74311 0.0993753 4.77002L8.0778 12.4929L0.0993753 20.23C0.069248 20.2569 0.0449038 20.2896 0.0278209 20.3263C0.0107381 20.3629 0.00127305 20.4026 0 20.4429V24.7019C0.00684926 24.7811 0.0423521 24.855 0.0998511 24.9099C0.15735 24.9648 0.232896 24.9968 0.312322 25H17.9018C17.972 24.987 18.0357 24.9504 18.0822 24.8961C18.1287 24.8419 18.1552 24.7733 18.1573 24.7019V20.4429C18.156 20.4026 18.1466 20.3629 18.1295 20.3263C18.1124 20.2896 18.088 20.2569 18.0579 20.23L10.1221 12.4929L18.1005 4.75582C18.1306 4.72891 18.155 4.69616 18.1721 4.65955C18.1891 4.62295 18.1986 4.58325 18.1999 4.54287V4.54287ZM16.7802 23.5662H1.41965V20.9114L9.09994 13.4867L16.7802 20.9114V23.5662ZM16.7802 4.07439L9.09994 11.4991L1.41965 4.07439V1.41965H16.7802V4.07439Z" fill="black"/>
<path d="M9.09991 15.332L8.85856 15.5166L3.54908 20.8119C3.53483 20.8484 3.53483 20.8889 3.54908 20.9254V22.0612C3.55236 22.1053 3.57136 22.1467 3.60263 22.178C3.63389 22.2092 3.67535 22.2282 3.71944 22.2315H14.7359C14.776 22.2247 14.8124 22.2038 14.8384 22.1726C14.8644 22.1414 14.8784 22.1018 14.8779 22.0612V21.0674C14.8921 21.0309 14.8921 20.9904 14.8779 20.9538L9.38383 15.5166L9.09991 15.332Z" fill="#E42525"/>
</svg>
