<svg width="25" height="25" viewBox="0 0 25 25" fill="none" xmlns="http://www.w3.org/2000/svg">
<path d="M12.4999 11.6347C12.6683 11.6347 12.8329 11.6846 12.9729 11.7781C13.1129 11.8717 13.222 12.0046 13.2864 12.1602C13.3509 12.3157 13.3677 12.4869 13.3349 12.652C13.302 12.8172 13.221 12.9689 13.1019 13.0879C12.9829 13.207 12.8312 13.2881 12.666 13.3209C12.5009 13.3538 12.3297 13.3369 12.1742 13.2725C12.0186 13.208 11.8857 13.0989 11.7921 12.9589C11.6986 12.8189 11.6486 12.6543 11.6486 12.486C11.6486 12.2602 11.7383 12.0437 11.898 11.884C12.0576 11.7244 12.2742 11.6347 12.4999 11.6347V11.6347ZM12.4999 10.2158C12.051 10.2158 11.612 10.349 11.2387 10.5984C10.8654 10.8479 10.5744 11.2024 10.4026 11.6172C10.2308 12.032 10.1858 12.4885 10.2734 12.9289C10.361 13.3692 10.5772 13.7737 10.8947 14.0912C11.2122 14.4087 11.6167 14.6249 12.0571 14.7125C12.4974 14.8001 12.9539 14.7551 13.3687 14.5833C13.7835 14.4115 14.1381 14.1205 14.3875 13.7472C14.637 13.3739 14.7701 12.935 14.7701 12.486C14.7701 11.8839 14.5309 11.3065 14.1052 10.8807C13.6794 10.455 13.102 10.2158 12.4999 10.2158V10.2158Z" fill="#E42525"/>
<path d="M17.2956 18.3317C17.2025 18.3328 17.1103 18.3144 17.0248 18.2778C16.9392 18.2411 16.8623 18.187 16.799 18.1188L13.11 14.4298C12.9783 14.2981 12.9043 14.1195 12.9043 13.9332C12.9043 13.747 12.9783 13.5684 13.11 13.4367C13.2417 13.3049 13.4203 13.231 13.6066 13.231C13.7928 13.231 13.9715 13.3049 14.1032 13.4367L17.7922 17.1256C17.86 17.1893 17.9141 17.2663 17.9511 17.3517C17.9881 17.4371 18.0072 17.5292 18.0072 17.6222C18.0072 17.7153 17.9881 17.8074 17.9511 17.8928C17.9141 17.9782 17.86 18.0551 17.7922 18.1188C17.7288 18.187 17.6519 18.2411 17.5664 18.2778C17.4809 18.3144 17.3886 18.3328 17.2956 18.3317V18.3317Z" fill="#E42525"/>
<path d="M12.5143 11.3505C12.3261 11.3505 12.1457 11.2758 12.0127 11.1428C11.8796 11.0097 11.8049 10.8293 11.8049 10.6411V6.81025C11.8049 6.6221 11.8796 6.44166 12.0127 6.30861C12.1457 6.17557 12.3261 6.10083 12.5143 6.10083C12.7024 6.10083 12.8829 6.17557 13.0159 6.30861C13.149 6.44166 13.2237 6.6221 13.2237 6.81025V10.6411C13.2237 10.8293 13.149 11.0097 13.0159 11.1428C12.8829 11.2758 12.7024 11.3505 12.5143 11.3505Z" fill="#E42525"/>
<path d="M12.5 0C10.0271 1.59301e-06 7.60982 0.733473 5.5539 2.10762C3.49798 3.48176 1.89583 5.43484 0.950152 7.71974C0.00447508 10.0046 -0.242237 12.5187 0.24123 14.9438C0.724696 17.369 1.91661 19.5963 3.66619 21.3438C5.41577 23.0914 7.64438 24.2808 10.0701 24.7615C12.4958 25.2422 15.0095 24.9927 17.2934 24.0444C19.5772 23.0961 21.5285 21.4918 22.9003 19.4343C24.2721 17.3768 25.0028 14.9587 25 12.4858C24.9925 9.17422 23.6727 6.00061 21.3297 3.66029C18.9867 1.31996 15.8116 0.00374614 12.5 0V0ZM20.8144 19.8638L19.3956 18.4449C19.2661 18.3312 19.0997 18.2685 18.9273 18.2685C18.755 18.2685 18.5886 18.3312 18.4591 18.4449C18.3291 18.5776 18.2563 18.7558 18.2563 18.9415C18.2563 19.1272 18.3291 19.3055 18.4591 19.4381L19.878 20.857C18.0367 22.4834 15.7043 23.4474 13.252 23.5953V21.7367C13.252 21.5485 13.1772 21.3681 13.0442 21.235C12.9112 21.102 12.7307 21.0272 12.5426 21.0272C12.3544 21.0272 12.174 21.102 12.0409 21.235C11.9079 21.3681 11.8331 21.5485 11.8331 21.7367V23.5244C9.40161 23.3598 7.0924 22.3972 5.2639 20.786L6.68274 19.3672C6.81273 19.2346 6.88554 19.0563 6.88554 18.8706C6.88554 18.6849 6.81273 18.5066 6.68274 18.374C6.61679 18.3075 6.53833 18.2547 6.45188 18.2187C6.36543 18.1827 6.27271 18.1642 6.17905 18.1642C6.0854 18.1642 5.99268 18.1827 5.90623 18.2187C5.81978 18.2547 5.74131 18.3075 5.67536 18.374L4.25652 19.7928C2.58653 17.9544 1.59092 15.603 1.43303 13.1243H3.27752C3.46567 13.1243 3.64612 13.0495 3.77916 12.9165C3.9122 12.7835 3.98694 12.603 3.98694 12.4149C3.98694 12.2267 3.9122 12.0463 3.77916 11.9132C3.64612 11.7802 3.46567 11.7054 3.27752 11.7054H1.43303C1.61378 9.29204 2.58066 7.00442 4.18558 5.19296L5.60442 6.6118C5.7354 6.74547 5.91389 6.82196 6.10102 6.82463C6.29275 6.82416 6.47646 6.74761 6.6118 6.6118C6.74269 6.4768 6.81588 6.29615 6.81588 6.10811C6.81588 5.92008 6.74269 5.73943 6.6118 5.60442L5.19296 4.18558C7.01765 2.56408 9.32724 1.59136 11.7622 1.41884V3.39103C11.7622 3.57918 11.8369 3.75963 11.97 3.89267C12.103 4.02571 12.2835 4.10045 12.4716 4.10045C12.6586 4.09682 12.837 4.02091 12.9692 3.88865C13.1015 3.75639 13.1774 3.57805 13.181 3.39103V1.41884C15.619 1.56932 17.9388 2.52216 19.7787 4.12883L18.3598 5.54767C18.2289 5.68267 18.1557 5.86333 18.1557 6.05136C18.1557 6.2394 18.2289 6.42005 18.3598 6.55505C18.4952 6.69086 18.6789 6.76741 18.8706 6.76788C18.9634 6.76734 19.0551 6.74823 19.1404 6.71167C19.2257 6.67512 19.3028 6.62187 19.3672 6.55505L20.786 5.13621C22.3959 6.96129 23.3628 9.26397 23.5386 11.6913H21.6515C21.4634 11.6913 21.2829 11.766 21.1499 11.899C21.0168 12.0321 20.9421 12.2125 20.9421 12.4007C20.9457 12.5877 21.0216 12.766 21.1539 12.8983C21.2862 13.0306 21.4645 13.1065 21.6515 13.1101H23.5386C23.4018 15.575 22.4426 17.923 20.8144 19.7787V19.8638Z" fill="black"/>
</svg>
