<svg width="25" height="25" viewBox="0 0 25 25" fill="none" xmlns="http://www.w3.org/2000/svg">
<path d="M12.5 1.42045C14.6913 1.42045 16.8334 2.07026 18.6555 3.28769C20.4775 4.50513 21.8976 6.23552 22.7362 8.26004C23.5748 10.2846 23.7942 12.5123 23.3667 14.6615C22.9391 16.8107 21.8839 18.7849 20.3344 20.3344C18.7849 21.8839 16.8107 22.9391 14.6615 23.3666C12.5123 23.7942 10.2846 23.5747 8.26005 22.7362C6.23552 21.8976 4.50514 20.4775 3.2877 18.6555C2.07026 16.8334 1.42046 14.6913 1.42046 12.5C1.42422 9.56267 2.59273 6.74673 4.66973 4.66973C6.74674 2.59273 9.56268 1.42421 12.5 1.42045V1.42045ZM12.5 0C10.0277 0 7.61099 0.733112 5.55538 2.10663C3.49976 3.48015 1.89761 5.43238 0.951511 7.71646C0.00541606 10.0005 -0.242126 12.5139 0.24019 14.9386C0.722505 17.3634 1.91301 19.5907 3.66117 21.3388C5.40933 23.087 7.63661 24.2775 10.0614 24.7598C12.4861 25.2421 14.9995 24.9946 17.2835 24.0485C19.5676 23.1024 21.5199 21.5002 22.8934 19.4446C24.2669 17.389 25 14.9723 25 12.5C25 10.8585 24.6767 9.23303 24.0485 7.71646C23.4203 6.19989 22.4996 4.8219 21.3388 3.66116C20.1781 2.50043 18.8001 1.57969 17.2835 0.951506C15.767 0.323322 14.1415 0 12.5 0V0Z" fill="black"/>
<path d="M7.17354 11.2216H5.68206V15.1705H4.5457V11.2216H3.12524V10.3125H7.17354V11.2216Z" fill="#E42525"/>
<path d="M8.83518 13.5226V15.1704H7.67041V10.3124H9.60223C9.94565 10.3059 10.2859 10.3788 10.5965 10.5255C10.8702 10.646 11.0989 10.8498 11.25 11.1079C11.4088 11.3637 11.4925 11.659 11.4914 11.9601C11.4982 12.176 11.4556 12.3905 11.367 12.5874C11.2784 12.7843 11.1461 12.9584 10.9801 13.0965C10.5747 13.4076 10.0693 13.5592 9.55961 13.5226H8.83518ZM8.83518 12.6278H9.60223C9.79269 12.6396 9.98054 12.5787 10.1278 12.4573C10.1866 12.392 10.2319 12.3157 10.2612 12.2328C10.2904 12.1499 10.303 12.0621 10.2983 11.9743C10.3048 11.8766 10.2918 11.7786 10.2601 11.6859C10.2284 11.5932 10.1786 11.5078 10.1136 11.4346C10.0526 11.3633 9.9761 11.307 9.88988 11.27C9.80367 11.2331 9.7101 11.2165 9.61643 11.2215H8.83518V12.6278Z" fill="#E42525"/>
<path d="M13.6503 10.3125L14.7441 13.6932L15.8236 10.3125H17.3577V15.1705H16.1929V14.0483L16.3066 11.7187L15.1276 15.1705H14.3463L13.1673 11.7187L13.281 14.0483V15.1705H12.1162V10.3125H13.6503Z" fill="#E42525"/>
<path d="M20.6111 13.8921C20.6162 13.8136 20.602 13.7351 20.5699 13.6633C20.5377 13.5915 20.4884 13.5286 20.4264 13.4802C20.2271 13.3537 20.0123 13.2534 19.7872 13.1819C19.5362 13.1003 19.2896 13.0054 19.0486 12.8978C18.7803 12.8043 18.5462 12.6326 18.3766 12.4047C18.2069 12.1768 18.1095 11.9032 18.0969 11.6194C18.0947 11.3621 18.1798 11.1118 18.3384 10.9092C18.5083 10.6858 18.7406 10.5177 19.006 10.4262C19.3142 10.3086 19.642 10.2508 19.9719 10.2558C20.294 10.2498 20.6136 10.3127 20.9094 10.4404C21.1699 10.5483 21.3924 10.7312 21.5486 10.966C21.7066 11.2011 21.7907 11.4781 21.7901 11.7614H20.6111C20.6022 11.6131 20.542 11.4724 20.4406 11.3637C20.2926 11.2187 20.0939 11.1372 19.8867 11.1364C19.7095 11.1248 19.5338 11.175 19.3895 11.2785C19.3312 11.3138 19.2834 11.364 19.2509 11.4239C19.2185 11.4838 19.2026 11.5513 19.2049 11.6194C19.2092 11.6878 19.2294 11.7542 19.2639 11.8134C19.2985 11.8726 19.3463 11.9229 19.4037 11.9603C19.6223 12.1016 19.8621 12.2071 20.1139 12.2728C20.4003 12.3619 20.6764 12.4809 20.9378 12.6279C21.1726 12.7429 21.3711 12.9204 21.5114 13.141C21.6518 13.3615 21.7285 13.6165 21.7333 13.8779C21.7377 14.0722 21.6963 14.2647 21.6124 14.4399C21.5285 14.6152 21.4044 14.7681 21.2503 14.8864C20.8597 15.1439 20.3964 15.2685 19.9293 15.2416C19.563 15.2481 19.1996 15.1754 18.8639 15.0285C18.5671 14.9156 18.3135 14.7118 18.1395 14.4461C17.9789 14.1963 17.8949 13.905 17.898 13.608H19.077C19.0665 13.7115 19.0789 13.8161 19.1133 13.9142C19.1476 14.0124 19.2031 14.1019 19.2759 14.1762C19.4623 14.3185 19.6959 14.3846 19.9293 14.3609C20.0908 14.3702 20.2508 14.3252 20.3838 14.233C20.4482 14.201 20.503 14.1526 20.5429 14.0928C20.5827 14.033 20.6063 13.9638 20.6111 13.8921V13.8921Z" fill="#E42525"/>
</svg>
