<svg width="22" height="25" viewBox="0 0 22 25" fill="none" xmlns="http://www.w3.org/2000/svg">
<path d="M14.2201 21.881H14.1492C14.0559 21.8722 13.9653 21.8449 13.8827 21.8009C13.8 21.7568 13.7269 21.6967 13.6676 21.6242C13.6082 21.5517 13.5639 21.4682 13.537 21.3784C13.5102 21.2887 13.5014 21.1945 13.5112 21.1013L14.9998 7.23576C15.0091 7.14267 15.0367 7.05232 15.0809 6.96988C15.1251 6.88744 15.1852 6.81452 15.2576 6.75527C15.33 6.69603 15.4134 6.65163 15.5029 6.62461C15.5925 6.59758 15.6865 6.58846 15.7796 6.59777C15.8727 6.60708 15.963 6.63464 16.0455 6.67886C16.1279 6.72309 16.2008 6.78312 16.2601 6.85552C16.3193 6.92793 16.3637 7.0113 16.3907 7.10086C16.4178 7.19043 16.4269 7.28444 16.4176 7.37753L14.9998 21.2572C14.975 21.4415 14.8802 21.6092 14.7349 21.7254C14.5897 21.8415 14.4053 21.8973 14.2201 21.881Z" fill="#E42525"/>
<path d="M10.9875 21.8806C10.7995 21.8806 10.6192 21.8059 10.4863 21.6729C10.3533 21.54 10.2786 21.3597 10.2786 21.1717V7.20692C10.2786 7.01891 10.3533 6.83861 10.4863 6.70567C10.6192 6.57273 10.7995 6.49805 10.9875 6.49805C11.1744 6.50168 11.3526 6.57753 11.4847 6.70969C11.6169 6.84185 11.6928 7.02005 11.6964 7.20692V21.1717C11.6928 21.3586 11.6169 21.5368 11.4847 21.6689C11.3526 21.8011 11.1744 21.8769 10.9875 21.8806Z" fill="#E42525"/>
<path d="M7.74056 21.8805C7.57643 21.8833 7.41662 21.8279 7.28945 21.724C7.16229 21.6202 7.07599 21.4748 7.04587 21.3134L5.62812 7.43369C5.61881 7.3406 5.62793 7.24658 5.65496 7.15702C5.68198 7.06745 5.72638 6.98408 5.78562 6.91168C5.90527 6.76544 6.0781 6.67273 6.26611 6.65393C6.45411 6.63513 6.64189 6.69178 6.78812 6.81143C6.86053 6.87067 6.92056 6.94359 6.96478 7.02604C7.009 7.10848 7.03656 7.19882 7.04587 7.29191L8.46361 21.1574C8.48354 21.3434 8.42916 21.5297 8.31231 21.6758C8.19546 21.8219 8.02562 21.9158 7.8398 21.9372L7.74056 21.8805Z" fill="#E42525"/>
<path d="M20.9968 4.55641H0.708872C0.520867 4.55641 0.340563 4.48173 0.207623 4.34879C0.0746843 4.21585 0 4.03555 0 3.84754C0 3.65954 0.0746843 3.47923 0.207623 3.3463C0.340563 3.21336 0.520867 3.13867 0.708872 3.13867H20.9968C21.1848 3.13867 21.3651 3.21336 21.498 3.3463C21.631 3.47923 21.7056 3.65954 21.7056 3.84754C21.7056 4.03555 21.631 4.21585 21.498 4.34879C21.3651 4.48173 21.1848 4.55641 20.9968 4.55641Z" fill="black"/>
<path d="M18.5154 24.9996H3.48732C3.26863 24.9829 3.06341 24.8875 2.90963 24.7311C2.75585 24.5747 2.66392 24.3679 2.65085 24.149L1.78603 4.47072H3.20377L3.98353 23.5819H18.0192L18.6288 4.45654H20.0466L19.4228 24.149C19.4083 24.3797 19.3064 24.5962 19.1377 24.7542C18.9691 24.9123 18.7465 25.0001 18.5154 24.9996V24.9996Z" fill="black"/>
<path d="M7.04643 4.07411L6.90466 4.04575C6.81428 4.02262 6.72935 3.98188 6.65475 3.92586C6.58015 3.86984 6.51734 3.79965 6.46992 3.7193C6.42251 3.63896 6.39142 3.55004 6.37843 3.45766C6.36545 3.36527 6.37083 3.27123 6.39427 3.18093C6.65286 2.05481 7.34587 1.07645 8.3224 0.458864C9.21025 0.0584181 10.1929 -0.0840624 11.1579 0.0477181C11.9911 -0.0246184 12.8292 0.111815 13.5964 0.444686C14.0925 0.74077 14.5232 1.13483 14.862 1.60284C15.2008 2.07084 15.4407 2.60297 15.5671 3.16675C15.6141 3.35476 15.5845 3.55373 15.4848 3.71991C15.3851 3.88608 15.2234 4.00584 15.0354 4.05284C14.8474 4.09984 14.6484 4.07024 14.4823 3.97053C14.3161 3.87083 14.1963 3.70919 14.1493 3.52119C14.0695 3.14847 13.9154 2.79567 13.6962 2.48387C13.4769 2.17207 13.1971 1.90767 12.8734 1.70648C12.3288 1.49101 11.7407 1.40839 11.1579 1.46546C10.4554 1.35435 9.73595 1.43266 9.0738 1.6923C8.74855 1.89508 8.46779 2.1617 8.24848 2.47604C8.02917 2.79039 7.87587 3.14593 7.79784 3.52119C7.7607 3.68867 7.66408 3.837 7.52591 3.93868C7.38774 4.04035 7.21738 4.08847 7.04643 4.07411Z" fill="black"/>
</svg>
