<svg width="25" height="25" viewBox="0 0 25 25" fill="none" xmlns="http://www.w3.org/2000/svg">
<path d="M12.5 1.42045C14.6913 1.42045 16.8334 2.07026 18.6555 3.28769C20.4775 4.50513 21.8976 6.23552 22.7362 8.26004C23.5748 10.2846 23.7942 12.5123 23.3667 14.6615C22.9391 16.8107 21.8839 18.7849 20.3344 20.3344C18.7849 21.8839 16.8107 22.9391 14.6615 23.3666C12.5123 23.7942 10.2846 23.5747 8.26005 22.7362C6.23552 21.8976 4.50514 20.4775 3.2877 18.6555C2.07026 16.8334 1.42046 14.6913 1.42046 12.5C1.42422 9.56267 2.59273 6.74673 4.66973 4.66973C6.74674 2.59273 9.56268 1.42421 12.5 1.42045V1.42045ZM12.5 0C10.0277 0 7.61099 0.733112 5.55538 2.10663C3.49976 3.48015 1.89761 5.43238 0.951511 7.71646C0.00541606 10.0005 -0.242126 12.5139 0.24019 14.9386C0.722505 17.3634 1.91301 19.5907 3.66117 21.3388C5.40933 23.087 7.63661 24.2775 10.0614 24.7598C12.4861 25.2421 14.9995 24.9946 17.2835 24.0485C19.5676 23.1024 21.5199 21.5002 22.8934 19.4446C24.2669 17.389 25 14.9723 25 12.5C25 10.8585 24.6767 9.23303 24.0485 7.71646C23.4203 6.19989 22.4996 4.8219 21.3388 3.66116C20.1781 2.50043 18.8001 1.57969 17.2835 0.951506C15.767 0.323322 14.1415 0 12.5 0V0Z" fill="black"/>
<path d="M12.2726 19.8864C11.0786 19.8876 9.90353 19.5878 8.85607 19.0146C7.8086 18.4415 6.92254 17.6135 6.27981 16.6072C5.63709 15.6009 5.25844 14.4488 5.17887 13.2574C5.09931 12.066 5.3214 10.8738 5.8246 9.79101C6.32781 8.70819 7.0959 7.76971 8.05785 7.06235C9.0198 6.35498 10.1446 5.90156 11.3282 5.74399C12.5117 5.58643 13.716 5.72982 14.8295 6.16089C15.943 6.59197 16.9298 7.29683 17.6988 8.21029C17.7597 8.28061 17.8059 8.36244 17.8346 8.45092C17.8634 8.5394 17.8741 8.63275 17.8662 8.72545C17.8582 8.81815 17.8318 8.90831 17.7884 8.99061C17.745 9.07291 17.6855 9.14568 17.6135 9.20461C17.5432 9.26553 17.4614 9.31172 17.3729 9.34048C17.2844 9.36923 17.1911 9.37995 17.0984 9.372C17.0057 9.36406 16.9155 9.33761 16.8332 9.29422C16.7509 9.25083 16.6782 9.19138 16.6192 9.11938C15.8088 8.15761 14.7022 7.49191 13.4728 7.22661C12.2434 6.96132 10.9607 7.11144 9.82577 7.65342C8.69085 8.19541 7.76783 9.09864 7.20137 10.2216C6.63492 11.3445 6.45705 12.6236 6.69564 13.8585C6.93422 15.0933 7.57579 16.2141 8.51978 17.0452C9.46376 17.8763 10.6568 18.3706 11.912 18.4508C13.1671 18.531 14.4134 18.1925 15.4555 17.4884C16.4975 16.7842 17.2765 15.7542 17.6704 14.5597C17.7288 14.3714 17.8596 14.2139 18.0341 14.122C18.1205 14.0765 18.215 14.0485 18.3122 14.0395C18.4094 14.0305 18.5075 14.0408 18.6008 14.0697C18.694 14.0986 18.7807 14.1456 18.8558 14.208C18.9309 14.2704 18.993 14.347 19.0385 14.4334C19.084 14.5198 19.112 14.6143 19.121 14.7115C19.13 14.8087 19.1197 14.9068 19.0908 15.0001C18.6204 16.4329 17.706 17.6788 16.4802 18.5573C15.2543 19.4359 13.7807 19.9014 12.2726 19.8864V19.8864Z" fill="#E42525"/>
<path d="M15.4831 9.26126L17.4575 6.70444C17.484 6.66646 17.5208 6.63689 17.5636 6.61926C17.6064 6.60163 17.6534 6.59668 17.699 6.60501V6.60501C17.7447 6.61638 17.7874 6.6375 17.8242 6.66692C17.8609 6.69635 17.8909 6.73337 17.912 6.77546L19.091 9.74421C19.105 9.7859 19.1085 9.83037 19.1013 9.87375C19.0942 9.91713 19.0765 9.9581 19.0499 9.9931C19.0233 10.0281 18.9886 10.0561 18.9487 10.0746C18.9088 10.0931 18.865 10.1016 18.8211 10.0993L15.7103 9.7016C15.6509 9.7246 15.5851 9.7246 15.5257 9.7016V9.7016C15.4922 9.67674 15.4643 9.64514 15.4438 9.60885C15.4233 9.57256 15.4107 9.53237 15.4067 9.49088C15.4026 9.44939 15.4074 9.40752 15.4205 9.36797C15.4337 9.32842 15.455 9.29207 15.4831 9.26126Z" fill="#E42525"/>
</svg>
