<svg width="25" height="25" viewBox="0 0 25 25" fill="none" xmlns="http://www.w3.org/2000/svg">
<path d="M12.5 1.42045C14.6913 1.42045 16.8334 2.07026 18.6555 3.28769C20.4775 4.50513 21.8976 6.23552 22.7362 8.26004C23.5748 10.2846 23.7942 12.5123 23.3667 14.6615C22.9391 16.8107 21.8839 18.7849 20.3344 20.3344C18.7849 21.8839 16.8107 22.9391 14.6615 23.3666C12.5123 23.7942 10.2846 23.5747 8.26005 22.7362C6.23552 21.8976 4.50514 20.4775 3.2877 18.6555C2.07026 16.8334 1.42046 14.6913 1.42046 12.5C1.42422 9.56267 2.59273 6.74673 4.66973 4.66973C6.74674 2.59273 9.56268 1.42421 12.5 1.42045V1.42045ZM12.5 0C10.0277 0 7.61099 0.733112 5.55538 2.10663C3.49976 3.48015 1.89761 5.43238 0.951511 7.71646C0.00541606 10.0005 -0.242126 12.5139 0.24019 14.9386C0.722505 17.3634 1.91301 19.5907 3.66117 21.3388C5.40933 23.087 7.63661 24.2775 10.0614 24.7598C12.4861 25.2421 14.9995 24.9946 17.2835 24.0485C19.5676 23.1024 21.5199 21.5002 22.8934 19.4446C24.2669 17.389 25 14.9723 25 12.5C25 10.8585 24.6767 9.23303 24.0485 7.71646C23.4203 6.19989 22.4996 4.8219 21.3388 3.66116C20.1781 2.50043 18.8001 1.57969 17.2835 0.951506C15.767 0.323322 14.1415 0 12.5 0V0Z" fill="black"/>
<path d="M17.8833 10.1279V10.483C17.891 11.5259 17.6905 12.5598 17.2936 13.5243C16.8968 14.4887 16.3115 15.3643 15.5721 16.0997C14.8326 16.8352 13.9539 17.4157 12.9874 17.8074C12.0208 18.1991 10.9858 18.394 9.943 18.3807V18.3807C8.43119 18.3875 6.95024 17.9531 5.68164 17.1307C5.89921 17.1449 6.11748 17.1449 6.33505 17.1307C7.58741 17.1346 8.80413 16.714 9.78675 15.9376C9.22326 15.9107 8.68052 15.7167 8.2277 15.3802C7.77488 15.0438 7.43248 14.5801 7.24414 14.0484C7.65966 14.1479 8.09282 14.1479 8.50834 14.0484C7.88387 13.927 7.3206 13.5934 6.91411 13.1041C6.50762 12.6147 6.28295 11.9998 6.27823 11.3637C6.66612 11.5792 7.09908 11.7008 7.54244 11.7188C6.93512 11.3149 6.50642 10.6929 6.34512 9.98157C6.18382 9.27026 6.30227 8.52416 6.67596 7.89779C7.37475 8.73887 8.2406 9.42567 9.21864 9.91469C10.1967 10.4037 11.2656 10.6843 12.3578 10.7387C12.2671 10.1565 12.3596 9.56058 12.6226 9.03334C12.8856 8.50611 13.306 8.07368 13.8256 7.79593C14.3452 7.51818 14.9383 7.40886 15.5228 7.48309C16.1073 7.55733 16.6542 7.81146 17.0879 8.21029C17.7097 8.08552 18.3055 7.8549 18.8493 7.52847C18.6371 8.16862 18.204 8.71241 17.6277 9.06256C18.1764 9.00143 18.7127 8.85776 19.2186 8.63643C18.8653 9.20869 18.4132 9.71369 17.8833 10.1279Z" fill="#E42525"/>
</svg>
