<svg width="19" height="25" viewBox="0 0 19 25" fill="none" xmlns="http://www.w3.org/2000/svg">
<path d="M14.6617 19.4759C14.5615 19.4766 14.4624 19.4553 14.3714 19.4135C14.2804 19.3717 14.1997 19.3104 14.135 19.2339C14.0683 19.1677 14.0153 19.089 13.9792 19.0023C13.9431 18.9156 13.9245 18.8225 13.9245 18.7286C13.9245 18.6346 13.9431 18.5416 13.9792 18.4549C14.0153 18.3681 14.0683 18.2894 14.135 18.2233C15.3023 17.1939 16.1296 15.8345 16.5075 14.3248C16.8855 12.8151 16.7963 11.2263 16.2517 9.76838C15.7071 8.31048 14.7328 7.05224 13.4576 6.16006C12.1825 5.26787 10.6665 4.78378 9.11028 4.77179C8.76425 4.75012 8.4172 4.75012 8.07117 4.77179C7.9777 4.78488 7.88258 4.77943 7.79122 4.75575C7.69986 4.73207 7.61406 4.69063 7.53872 4.63379C7.46338 4.57696 7.39997 4.50584 7.35212 4.42449C7.30426 4.34315 7.27289 4.25318 7.25981 4.15972C7.24672 4.06625 7.25218 3.97113 7.27586 3.87977C7.29953 3.78841 7.34097 3.70261 7.39781 3.62727C7.45465 3.55193 7.52577 3.48852 7.60711 3.44067C7.68845 3.39281 7.77842 3.36144 7.87189 3.34836C9.82553 3.06708 11.8177 3.42792 13.5486 4.37656C15.2794 5.32521 16.6554 6.81034 17.4694 8.60847C18.2833 10.4066 18.4913 12.4205 18.062 14.347C17.6326 16.2735 16.5892 18.0085 15.0887 19.2908C14.9738 19.4027 14.8219 19.4686 14.6617 19.4759V19.4759Z" fill="#E42525"/>
<path d="M9.11045 21.5679C7.19228 21.568 5.32301 20.9626 3.76907 19.838C2.21512 18.7135 1.0558 17.1271 0.456322 15.305C-0.143155 13.4829 -0.152193 11.5181 0.430496 9.69053C1.01319 7.863 2.15787 6.26603 3.7014 5.12721C3.77617 5.07113 3.86125 5.03033 3.95179 5.00713C4.04233 4.98393 4.13656 4.9788 4.22908 4.99202C4.32161 5.00523 4.41062 5.03655 4.49104 5.08417C4.57147 5.13179 4.64172 5.19478 4.6978 5.26955C4.75388 5.34432 4.79468 5.42941 4.81788 5.51995C4.84108 5.61049 4.84621 5.70471 4.83299 5.79723C4.81978 5.88976 4.78846 5.97877 4.74084 6.0592C4.69322 6.13962 4.63023 6.20988 4.55546 6.26595C3.25091 7.2255 2.28276 8.57256 1.78913 10.1149C1.29551 11.6573 1.30163 13.3162 1.80664 14.8549C2.31164 16.3935 3.28972 17.7334 4.60132 18.6833C5.91291 19.6332 7.49102 20.1446 9.11045 20.1444C9.54933 20.1418 9.98728 20.1038 10.42 20.0306C10.6088 20.0004 10.8018 20.0464 10.9566 20.1585C11.1115 20.2706 11.2154 20.4397 11.2456 20.6284C11.2758 20.8172 11.2298 21.0102 11.1177 21.165C11.0056 21.3199 10.8365 21.4238 10.6478 21.454C10.1394 21.5349 9.62517 21.573 9.11045 21.5679V21.5679Z" fill="black"/>
<path d="M11.5165 8.18821C11.4267 8.18843 11.3377 8.17094 11.2546 8.13675C11.1716 8.10255 11.0961 8.05232 11.0325 7.98893L7.40275 4.57269C7.33069 4.50824 7.27314 4.42924 7.23388 4.34091C7.19462 4.25257 7.17455 4.15691 7.175 4.06025C7.17599 3.96172 7.19665 3.86438 7.23576 3.77395C7.27487 3.68351 7.33164 3.60179 7.40275 3.53358L11.0325 0.131569C11.1724 0.0321239 11.3436 -0.0133879 11.5145 0.00342113C11.6853 0.0202302 11.8443 0.0982272 11.9622 0.223037C12.0801 0.347847 12.1489 0.511057 12.1559 0.682588C12.1629 0.854119 12.1077 1.02241 12.0004 1.15644L8.92582 4.00331L12.0004 6.85018C12.0671 6.91635 12.1201 6.99506 12.1562 7.08179C12.1924 7.16852 12.211 7.26155 12.211 7.3555C12.211 7.44946 12.1924 7.54248 12.1562 7.62921C12.1201 7.71594 12.0671 7.79466 12.0004 7.86082C11.9462 7.94538 11.8753 8.01801 11.7921 8.07429C11.7089 8.13058 11.6151 8.16934 11.5165 8.18821V8.18821Z" fill="#E42525"/>
<path d="M7.18844 24.9997C7.09178 25.0002 6.99612 24.9801 6.90778 24.9408C6.81945 24.9016 6.74045 24.844 6.67601 24.772C6.60973 24.707 6.55707 24.6295 6.52112 24.544C6.48517 24.4584 6.46666 24.3665 6.46666 24.2738C6.46666 24.181 6.48517 24.0891 6.52112 24.0036C6.55707 23.918 6.60973 23.8405 6.67601 23.7756L9.75063 20.9287L6.67601 18.0818C6.53444 17.9478 6.4519 17.763 6.44657 17.5682C6.44123 17.3733 6.51352 17.1843 6.64754 17.0427C6.78156 16.9011 6.96632 16.8186 7.16119 16.8133C7.35606 16.8079 7.54508 16.8802 7.68664 17.0142L11.3022 20.4305C11.3742 20.4949 11.4318 20.5739 11.471 20.6623C11.5103 20.7506 11.5304 20.8463 11.5299 20.9429C11.5289 21.0414 11.5083 21.1388 11.4692 21.2292C11.43 21.3197 11.3733 21.4014 11.3022 21.4696L7.68664 24.8004C7.62185 24.8662 7.54414 24.9179 7.4584 24.9522C7.37266 24.9865 7.28074 25.0027 7.18844 24.9997Z" fill="black"/>
</svg>
