<svg width="22" height="25" viewBox="0 0 22 25" fill="none" xmlns="http://www.w3.org/2000/svg">
<path d="M19.6171 24.9999H2.04018C1.49909 24.9999 0.980161 24.785 0.597554 24.4024C0.214946 24.0198 0 23.5009 0 22.9598V18.8794C0 18.6713 0.0826715 18.4717 0.229828 18.3246C0.376985 18.1774 0.576572 18.0947 0.784683 18.0947C0.992794 18.0947 1.19238 18.1774 1.33954 18.3246C1.48669 18.4717 1.56937 18.6713 1.56937 18.8794V22.9598C1.56937 23.0216 1.58154 23.0828 1.6052 23.1399C1.62886 23.1971 1.66354 23.249 1.70726 23.2927C1.75098 23.3364 1.80288 23.3711 1.86 23.3947C1.91713 23.4184 1.97835 23.4306 2.04018 23.4306H19.6171C19.6795 23.4328 19.7417 23.4221 19.7998 23.3992C19.8579 23.3763 19.9107 23.3417 19.9549 23.2976C19.999 23.2534 20.0336 23.2006 20.0565 23.1425C20.0794 23.0844 20.0901 23.0222 20.0879 22.9598V18.8794C20.0879 18.6713 20.1706 18.4717 20.3177 18.3246C20.4649 18.1774 20.6645 18.0947 20.8726 18.0947C21.0807 18.0947 21.2803 18.1774 21.4274 18.3246C21.5746 18.4717 21.6573 18.6713 21.6573 18.8794V22.9598C21.6573 23.2277 21.6045 23.493 21.502 23.7405C21.3994 23.988 21.2491 24.2129 21.0597 24.4024C20.8703 24.5918 20.6453 24.7421 20.3978 24.8446C20.1503 24.9472 19.885 24.9999 19.6171 24.9999V24.9999Z" fill="black"/>
<path d="M10.9075 20.292C10.6994 20.292 10.4998 20.2093 10.3526 20.0621C10.2055 19.915 10.1228 19.7154 10.1228 19.5073V1.77345C10.1228 1.56534 10.2055 1.36575 10.3526 1.2186C10.4998 1.07144 10.6994 0.98877 10.9075 0.98877C11.1156 0.98877 11.3152 1.07144 11.4623 1.2186C11.6095 1.36575 11.6922 1.56534 11.6922 1.77345V19.5073C11.6922 19.7154 11.6095 19.915 11.4623 20.0621C11.3152 20.2093 11.1156 20.292 10.9075 20.292Z" fill="#E42525"/>
<path d="M18.8169 10.295C18.7082 10.2939 18.6009 10.2712 18.5012 10.228C18.4015 10.1849 18.3114 10.1223 18.2362 10.0439L10.9387 2.29127L3.64111 10.0439C3.57609 10.1354 3.49221 10.2119 3.39513 10.2682C3.29804 10.3245 3.19 10.3593 3.07831 10.3703C2.96662 10.3813 2.85387 10.3682 2.74767 10.3319C2.64147 10.2956 2.54429 10.2369 2.4627 10.1599C2.3811 10.0828 2.31699 9.98915 2.27468 9.8852C2.23238 9.78125 2.21286 9.66943 2.21745 9.55729C2.22205 9.44515 2.25064 9.3353 2.30131 9.23516C2.35198 9.13501 2.42354 9.0469 2.51116 8.97677L10.9387 0L19.3818 8.97677C19.4549 9.04837 19.513 9.13383 19.5526 9.22815C19.5922 9.32247 19.6127 9.42375 19.6127 9.52605C19.6127 9.62836 19.5922 9.72963 19.5526 9.82395C19.513 9.91827 19.4549 10.0037 19.3818 10.0753C19.2296 10.2198 19.0267 10.2987 18.8169 10.295V10.295Z" fill="#E42525"/>
</svg>
