<svg width="25" height="25" viewBox="0 0 25 25" fill="none" xmlns="http://www.w3.org/2000/svg">
<path d="M12.5 1.42045C14.6913 1.42045 16.8334 2.07026 18.6555 3.28769C20.4775 4.50513 21.8976 6.23552 22.7362 8.26004C23.5748 10.2846 23.7942 12.5123 23.3667 14.6615C22.9391 16.8107 21.8839 18.7849 20.3344 20.3344C18.7849 21.8839 16.8107 22.9391 14.6615 23.3666C12.5123 23.7942 10.2846 23.5747 8.26005 22.7362C6.23552 21.8976 4.50514 20.4775 3.2877 18.6555C2.07026 16.8334 1.42046 14.6913 1.42046 12.5C1.42422 9.56267 2.59273 6.74673 4.66973 4.66973C6.74674 2.59273 9.56268 1.42421 12.5 1.42045V1.42045ZM12.5 0C10.0277 0 7.61099 0.733112 5.55538 2.10663C3.49976 3.48015 1.89761 5.43238 0.951511 7.71646C0.00541606 10.0005 -0.242126 12.5139 0.24019 14.9386C0.722505 17.3634 1.91301 19.5907 3.66117 21.3388C5.40933 23.087 7.63661 24.2775 10.0614 24.7598C12.4861 25.2421 14.9995 24.9946 17.2835 24.0485C19.5676 23.1024 21.5199 21.5002 22.8934 19.4446C24.2669 17.389 25 14.9723 25 12.5C25 10.8585 24.6767 9.23303 24.0485 7.71646C23.4203 6.19989 22.4996 4.8219 21.3388 3.66116C20.1781 2.50043 18.8001 1.57969 17.2835 0.951506C15.767 0.323322 14.1415 0 12.5 0V0Z" fill="black"/>
<path d="M9.54549 6.17898C9.89916 6.25934 10.2326 6.41128 10.5253 6.62542C10.818 6.83957 11.0638 7.11139 11.2474 7.42413C11.4311 7.73687 11.5487 8.08391 11.5932 8.44386C11.6376 8.8038 11.6078 9.16904 11.5057 9.51704L11.2784 10.3267L11.875 10.9233L18.4659 17.5426C18.7074 17.7841 18.679 17.9403 18.6222 18.0824C18.5745 18.1979 18.4965 18.2984 18.3965 18.3734C18.2966 18.4484 18.1783 18.495 18.054 18.5085C18.054 18.5085 17.8836 18.5085 17.6847 18.3097L11.0938 11.6903L10.4972 11.0937L9.68754 11.3636C9.42829 11.4351 9.16098 11.4733 8.89208 11.4773C8.4786 11.4763 8.07172 11.3735 7.7075 11.1777C7.34328 10.982 7.03295 10.6994 6.80402 10.3551C6.6109 10.0788 6.46676 9.77124 6.37788 9.44602L7.45743 10.5114L8.02561 11.0795L8.82106 10.8665L9.75856 10.625L10.554 10.4119L10.7671 9.61648L11.0228 8.67898L11.2358 7.88352L10.6534 7.27273L9.54549 6.17898ZM8.99152 4.75852C8.47633 4.75889 7.96573 4.85523 7.48583 5.04261C7.39528 5.07452 7.31429 5.12886 7.25043 5.20055C7.18656 5.27224 7.1419 5.35895 7.12063 5.45257C7.09935 5.5462 7.10214 5.64369 7.12875 5.73594C7.15535 5.82819 7.2049 5.9122 7.27277 5.98011V5.98011L9.64492 8.28125L9.40345 9.21875L8.52277 9.47443L6.09379 7.10227C6.04068 7.04688 5.97664 7.00312 5.90573 6.97378C5.83482 6.94444 5.75858 6.93015 5.68186 6.93182C5.56078 6.93001 5.44245 6.96792 5.34497 7.03975C5.24749 7.11158 5.17622 7.21337 5.14208 7.32954C4.9131 7.94289 4.83414 8.60211 4.91179 9.25219C4.98944 9.90227 5.22144 10.5243 5.58844 11.0665C5.95544 11.6087 6.4468 12.0552 7.0215 12.3688C7.59619 12.6824 8.23756 12.854 8.89208 12.8693C9.29568 12.8666 9.69705 12.8092 10.0853 12.6989L16.7046 19.3182C17.0813 19.6949 17.5923 19.9066 18.125 19.9066C18.6578 19.9066 19.1688 19.6949 19.5455 19.3182C19.9222 18.9415 20.1339 18.4305 20.1339 17.8977C20.1339 17.365 19.9222 16.854 19.5455 16.4773L12.8694 9.94318C13.0497 9.33627 13.0866 8.69579 12.9774 8.07217C12.8681 7.44854 12.6156 6.85879 12.2397 6.34933C11.8638 5.83987 11.3748 5.42461 10.8111 5.13624C10.2475 4.84787 9.62461 4.69426 8.99152 4.6875V4.75852Z" fill="#E42525"/>
</svg>
