<svg width="19" height="25" viewBox="0 0 19 25" fill="none" xmlns="http://www.w3.org/2000/svg">
<path d="M16.3352 0H1.84659C1.60409 0 1.36397 0.0477634 1.13993 0.140563C0.915892 0.233363 0.712326 0.369382 0.540854 0.540854C0.194551 0.887157 0 1.35684 0 1.84659V23.1534C0 23.6432 0.194551 24.1128 0.540854 24.4591C0.712326 24.6306 0.915892 24.7666 1.13993 24.8594C1.36397 24.9522 1.60409 25 1.84659 25H16.3352C16.825 25 17.2947 24.8054 17.641 24.4591C17.9873 24.1128 18.1818 23.6432 18.1818 23.1534V1.84659C18.1818 1.35684 17.9873 0.887157 17.641 0.540854C17.2947 0.194551 16.825 0 16.3352 0V0ZM16.7614 1.84659V5.68182H14.7443V1.42045H16.3352C16.4471 1.42401 16.5535 1.47005 16.6326 1.54921C16.7118 1.62836 16.7578 1.7347 16.7614 1.84659V1.84659ZM4.65909 1.42045H13.3239V23.5795H4.65909V1.42045ZM14.7443 13.2102H16.7614V17.8977H14.7443V13.2102ZM14.7443 11.7898V7.10227H16.7614V11.7898H14.7443ZM1.42045 1.84659C1.42401 1.7347 1.47005 1.62836 1.54921 1.54921C1.62836 1.47005 1.7347 1.42401 1.84659 1.42045H3.26704V5.68182H1.42045V1.84659ZM1.42045 7.10227H3.23864V11.7898H1.42045V7.10227ZM1.42045 13.2102H3.23864V17.8977H1.42045V13.2102ZM1.42045 23.1534V19.3182H3.23864V23.5795H1.81818C1.71134 23.5692 1.61196 23.5202 1.53871 23.4417C1.46547 23.3632 1.42342 23.2607 1.42045 23.1534V23.1534ZM16.3352 23.5795H14.7443V19.3182H16.7614V23.1534C16.7578 23.2653 16.7118 23.3716 16.6326 23.4508C16.5535 23.53 16.4471 23.576 16.3352 23.5795V23.5795Z" fill="black"/>
<path d="M7.52842 14.7163V10.81C7.52599 10.7529 7.53927 10.6962 7.56682 10.6461C7.59437 10.5961 7.63513 10.5545 7.68467 10.5259V10.5259C7.73434 10.4973 7.79067 10.4822 7.84802 10.4822C7.90537 10.4822 7.96171 10.4973 8.01137 10.5259L11.3494 12.5004C11.3979 12.5266 11.4381 12.5656 11.4656 12.6133C11.4932 12.6609 11.5071 12.7152 11.5057 12.7703C11.5058 12.8234 11.4928 12.8758 11.4681 12.9228C11.4433 12.9698 11.4075 13.0101 11.3636 13.0402L8.0824 14.972C8.02475 15.0264 7.94859 15.0568 7.86933 15.0572V15.0572C7.78004 15.0537 7.69535 15.0166 7.63216 14.9535C7.56897 14.8903 7.53193 14.8056 7.52842 14.7163Z" fill="#E42525"/>
</svg>
