<svg width="23" height="25" viewBox="0 0 23 25" fill="none" xmlns="http://www.w3.org/2000/svg">
<path d="M16.8786 6.43425H15.3849C15.3547 6.18419 15.2339 5.95387 15.0454 5.7868C14.8568 5.61973 14.6137 5.52748 14.3618 5.52748C14.1099 5.52748 13.8667 5.61973 13.6782 5.7868C13.4897 5.95387 13.3689 6.18419 13.3386 6.43425H11.845C11.8938 5.80024 12.1802 5.20804 12.6468 4.77602C13.1134 4.344 13.7259 4.104 14.3618 4.104C14.9977 4.104 15.6101 4.344 16.0768 4.77602C16.5434 5.20804 16.8297 5.80024 16.8786 6.43425V6.43425Z" fill="black"/>
<path d="M12.024 1.51968C13.2945 1.44566 14.5689 1.56655 15.8029 1.87815C17.2435 3.29475 18.3595 5.00703 19.074 6.89685L19.3279 7.49431L19.9254 7.73329L20.8067 8.07684V9.06265L20.2391 9.61531L19.8059 10.0634V15.575H17.655V13.2449H4.64528V15.575H2.50935V10.0634L2.06125 9.61531L1.49366 9.06265V8.07684L2.38985 7.73329L2.98732 7.49431L3.2263 6.89685C3.93919 5.01415 5.04985 3.30741 6.48248 1.89309C7.7187 1.56485 8.99988 1.43875 10.2764 1.51968H12.024ZM12.024 0.0260173H10.2764C8.70036 -0.0786354 7.11958 0.139928 5.63109 0.66829C3.5101 2.16195 1.85214 6.34419 1.85214 6.34419L0 7.04621V9.7348L1.01569 10.7355V17.1284H6.13894V14.7386H16.1614V17.0687H21.2846V10.6758L22.2854 9.7348V7.04621L20.4482 6.34419C20.4482 6.34419 18.7902 2.16195 16.6543 0.66829C15.1713 0.13865 13.5951 -0.0799801 12.024 0.0260173V0.0260173Z" fill="black"/>
<path d="M20.2836 6.17969H2.00127V7.67335H20.2836V6.17969Z" fill="black"/>
<path d="M5.63123 10.3025H4.25707C4.059 10.3025 3.86904 10.2238 3.72898 10.0838C3.58892 9.9437 3.51024 9.75374 3.51024 9.55567C3.51024 9.3576 3.58892 9.16764 3.72898 9.02758C3.86904 8.88752 4.059 8.80884 4.25707 8.80884H5.63123C5.82931 8.80884 6.01926 8.88752 6.15932 9.02758C6.29938 9.16764 6.37806 9.3576 6.37806 9.55567C6.37806 9.75374 6.29938 9.9437 6.15932 10.0838C6.01926 10.2238 5.82931 10.3025 5.63123 10.3025Z" fill="black"/>
<path d="M18.1632 10.3025H16.7891C16.591 10.3025 16.401 10.2238 16.261 10.0838C16.1209 9.9437 16.0422 9.75374 16.0422 9.55567C16.0422 9.3576 16.1209 9.16764 16.261 9.02758C16.401 8.88752 16.591 8.80884 16.7891 8.80884H18.1632C18.3613 8.80884 18.5513 8.88752 18.6913 9.02758C18.8314 9.16764 18.9101 9.3576 18.9101 9.55567C18.9101 9.75374 18.8314 9.9437 18.6913 10.0838C18.5513 10.2238 18.3613 10.3025 18.1632 10.3025Z" fill="black"/>
<path d="M3.89875 25.0001C3.80107 24.9996 3.70449 24.9794 3.61471 24.941C3.52492 24.9025 3.44375 24.8464 3.37597 24.7761C3.30597 24.7066 3.25041 24.624 3.2125 24.533C3.17458 24.442 3.15506 24.3444 3.15506 24.2458C3.15506 24.1472 3.17458 24.0496 3.2125 23.9586C3.25041 23.8676 3.30597 23.785 3.37597 23.7156C4.42153 22.6999 4.21242 22.3862 3.76432 21.6842C3.10711 20.6685 2.61421 19.5333 4.36179 17.8604C4.4324 17.7918 4.51584 17.7377 4.60736 17.7013C4.69887 17.6649 4.79665 17.6469 4.89513 17.6483C4.9936 17.6497 5.09084 17.6704 5.18129 17.7094C5.27174 17.7484 5.35363 17.8048 5.42228 17.8754C5.49094 17.946 5.54501 18.0294 5.58141 18.1209C5.61782 18.2125 5.63584 18.3102 5.63445 18.4087C5.63306 18.5072 5.61229 18.6044 5.57333 18.6949C5.53436 18.7853 5.47796 18.8672 5.40735 18.9359C4.39166 19.9067 4.58583 20.1905 5.019 20.8776C5.67621 21.9232 6.18405 23.0733 4.42153 24.791C4.28123 24.9263 4.09362 25.0013 3.89875 25.0001V25.0001Z" fill="#E42525"/>
<path d="M16.8932 25.0001C16.7955 24.9996 16.6989 24.9794 16.6091 24.941C16.5193 24.9025 16.4381 24.8464 16.3704 24.7761C16.3004 24.7066 16.2448 24.624 16.2069 24.533C16.169 24.442 16.1495 24.3444 16.1495 24.2458C16.1495 24.1472 16.169 24.0496 16.2069 23.9586C16.2448 23.8676 16.3004 23.785 16.3704 23.7156C17.4159 22.6999 17.2068 22.3862 16.7587 21.6842C16.1015 20.6685 15.6235 19.5333 17.3562 17.8604C17.4988 17.7218 17.6906 17.6455 17.8895 17.6483C18.0884 17.6511 18.278 17.7328 18.4167 17.8754C18.5553 18.018 18.6317 18.2098 18.6289 18.4087C18.626 18.6076 18.5444 18.7972 18.4017 18.9359C17.3861 19.9067 17.5802 20.1905 18.0134 20.8776C18.6706 21.9232 19.1784 23.0733 17.4309 24.791C17.2835 24.9246 17.092 24.9991 16.8932 25.0001Z" fill="#E42525"/>
</svg>
