<svg width="25" height="25" viewBox="0 0 25 25" fill="none" xmlns="http://www.w3.org/2000/svg">
<path d="M12.5 1.42045C14.6913 1.42045 16.8334 2.07026 18.6555 3.28769C20.4775 4.50513 21.8976 6.23552 22.7362 8.26004C23.5748 10.2846 23.7942 12.5123 23.3667 14.6615C22.9391 16.8107 21.8839 18.7849 20.3344 20.3344C18.7849 21.8839 16.8107 22.9391 14.6615 23.3666C12.5123 23.7942 10.2846 23.5747 8.26005 22.7362C6.23552 21.8976 4.50514 20.4775 3.2877 18.6555C2.07026 16.8334 1.42046 14.6913 1.42046 12.5C1.42422 9.56267 2.59273 6.74673 4.66973 4.66973C6.74674 2.59273 9.56268 1.42421 12.5 1.42045V1.42045ZM12.5 0C10.0277 0 7.61099 0.733112 5.55538 2.10663C3.49976 3.48015 1.89761 5.43238 0.951511 7.71646C0.00541606 10.0005 -0.242126 12.5139 0.24019 14.9386C0.722505 17.3634 1.91301 19.5907 3.66117 21.3388C5.40933 23.087 7.63661 24.2775 10.0614 24.7598C12.4861 25.2421 14.9995 24.9946 17.2835 24.0485C19.5676 23.1024 21.5199 21.5002 22.8934 19.4446C24.2669 17.389 25 14.9723 25 12.5C25 10.8585 24.6767 9.23303 24.0485 7.71646C23.4203 6.19989 22.4996 4.8219 21.3388 3.66116C20.1781 2.50043 18.8001 1.57969 17.2835 0.951506C15.767 0.323322 14.1415 0 12.5 0V0Z" fill="black"/>
<path d="M10.9374 10.4402L8.96298 12.8834V12.9687C8.5842 13.4327 8.21488 13.5179 7.85503 13.2243C7.49992 12.9402 7.51412 12.5425 7.85503 12.088C8.6931 11.0226 9.58798 9.94309 10.4118 8.87775C10.6919 8.43921 11.1156 8.1116 11.6105 7.95096C12.1054 7.79031 12.6407 7.80661 13.1249 7.99707C13.4866 8.06958 13.8213 8.24059 14.092 8.49124C14.3627 8.74188 14.5589 9.06243 14.659 9.41752C14.659 9.659 14.8579 9.87207 14.9005 10.0993C14.9577 10.4537 15.1019 10.7883 15.32 11.0733C15.5381 11.3584 15.8234 11.585 16.1505 11.7329C16.4747 11.923 16.7878 12.1317 17.088 12.3579C17.1737 12.4029 17.2488 12.4657 17.3083 12.542C17.3679 12.6183 17.4105 12.7064 17.4333 12.8005C17.4562 12.8945 17.4587 12.9924 17.4408 13.0875C17.4229 13.1826 17.3849 13.2729 17.3295 13.3522C17.2747 13.4284 17.2052 13.4927 17.1249 13.5414C17.0447 13.59 16.9555 13.6219 16.8626 13.6352C16.7697 13.6484 16.6751 13.6428 16.5845 13.6186C16.4938 13.5943 16.409 13.5521 16.3351 13.4942C15.6675 13.0397 14.9999 12.5993 14.3465 12.0738C14.1755 11.9318 14.0476 11.7448 13.9772 11.534C13.7925 11.0937 13.6647 10.6533 13.4232 10.1988L13.2954 10.6817C13.1391 11.3351 12.9829 12.0027 12.7982 12.6704C12.7584 12.7816 12.7534 12.9023 12.7839 13.0165C12.8143 13.1307 12.8788 13.2329 12.9687 13.3096C13.6647 14.034 14.3891 14.73 14.9999 15.5539C15.161 15.745 15.2688 15.9753 15.3124 16.2215C15.4971 17.2442 15.6391 18.2812 15.7954 19.3181C15.8806 19.8294 15.6817 20.1562 15.2414 20.2414C14.8011 20.3266 14.5454 20.0425 14.4601 19.5738C14.2755 18.6789 14.1334 17.7698 13.9488 16.8749C13.8929 16.6244 13.7702 16.3937 13.5937 16.2073C12.9687 15.5539 12.3011 14.9431 11.6476 14.3181C11.4772 15.0709 11.3209 15.8522 11.1363 16.6334C11.0994 16.845 11.0223 17.0476 10.909 17.23C10.355 18.0965 9.78685 18.9488 9.21867 19.801C8.92037 20.2414 8.53685 20.3692 8.18173 20.1277C7.82662 19.8863 7.7698 19.4743 8.0681 19.0198C8.56526 18.2385 9.07662 17.4715 9.55957 16.676C9.6602 16.5158 9.72781 16.3372 9.75844 16.1505C9.9431 15.0567 10.0709 13.9346 10.2982 12.8408C10.4403 12.1022 10.7243 11.4204 10.9374 10.6675V10.4971V10.4402Z" fill="#E42525"/>
<path d="M11.9889 6.13627C11.9889 5.75955 12.1386 5.39825 12.405 5.13186C12.6714 4.86547 13.0327 4.71582 13.4094 4.71582C13.6034 4.71582 13.7955 4.75403 13.9747 4.82827C14.1539 4.90251 14.3168 5.01133 14.454 5.1485C14.5912 5.28568 14.7 5.44853 14.7742 5.62777C14.8484 5.807 14.8867 5.99909 14.8867 6.19309C14.8867 6.38709 14.8484 6.57919 14.7742 6.75842C14.7 6.93765 14.5912 7.1005 14.454 7.23768C14.3168 7.37486 14.1539 7.48367 13.9747 7.55791C13.7955 7.63215 13.6034 7.67037 13.4094 7.67037C13.2129 7.67099 13.0184 7.63085 12.8382 7.55247C12.658 7.47408 12.4961 7.35917 12.3626 7.21499C12.2291 7.0708 12.1269 6.90049 12.0626 6.71482C11.9983 6.52914 11.9732 6.33214 11.9889 6.13627V6.13627Z" fill="#E42525"/>
</svg>
