<svg width="19" height="25" viewBox="0 0 19 25" fill="none" xmlns="http://www.w3.org/2000/svg">
<path d="M14.0271 4.55147H4.27708C4.10469 4.55147 3.93936 4.48299 3.81746 4.36109C3.69556 4.23919 3.62708 4.07386 3.62708 3.90147C3.62708 3.72908 3.69556 3.56375 3.81746 3.44185C3.93936 3.31995 4.10469 3.25146 4.27708 3.25146H14.0271C14.1995 3.25146 14.3649 3.31995 14.4868 3.44185C14.6087 3.56375 14.6771 3.72908 14.6771 3.90147C14.6771 4.07386 14.6087 4.23919 14.4868 4.36109C14.3649 4.48299 14.1995 4.55147 14.0271 4.55147Z" fill="black"/>
<path d="M14.0271 7.73507H4.27708C4.10469 7.73507 3.93936 7.66658 3.81746 7.54469C3.69556 7.42279 3.62708 7.25745 3.62708 7.08506C3.62708 6.91267 3.69556 6.74734 3.81746 6.62544C3.93936 6.50354 4.10469 6.43506 4.27708 6.43506H14.0271C14.1995 6.43506 14.3649 6.50354 14.4868 6.62544C14.6087 6.74734 14.6771 6.91267 14.6771 7.08506C14.6771 7.25745 14.6087 7.42279 14.4868 7.54469C14.3649 7.66658 14.1995 7.73507 14.0271 7.73507Z" fill="black"/>
<path d="M16.8091 22.101H14.2091C14.0367 22.101 13.8714 22.0325 13.7495 21.9106C13.6276 21.7887 13.5591 21.6234 13.5591 21.451C13.5591 21.2786 13.6276 21.1133 13.7495 20.9914C13.8714 20.8695 14.0367 20.801 14.2091 20.801H16.8091C16.8953 20.801 16.978 20.7667 17.0389 20.7058C17.0999 20.6448 17.1341 20.5622 17.1341 20.476V1.62584C17.1341 1.53965 17.0999 1.45698 17.0389 1.39603C16.978 1.33508 16.8953 1.30084 16.8091 1.30084H1.67701C1.59082 1.30084 1.50815 1.33508 1.4472 1.39603C1.38625 1.45698 1.35201 1.53965 1.35201 1.62584V20.541C1.3672 20.6155 1.40805 20.6823 1.46743 20.7298C1.52682 20.7773 1.60098 20.8025 1.67701 20.801H8.04705C8.21944 20.801 8.38478 20.8695 8.50668 20.9914C8.62858 21.1133 8.69706 21.2786 8.69706 21.451C8.69706 21.6234 8.62858 21.7887 8.50668 21.9106C8.38478 22.0325 8.21944 22.101 8.04705 22.101H1.67701C1.24814 22.115 0.831123 21.9589 0.516944 21.6667C0.202765 21.3744 0.0169335 20.9697 2.13128e-07 20.541V1.62584C-0.000111354 1.408 0.04358 1.19235 0.128477 0.991728C0.213374 0.791105 0.337743 0.6096 0.49419 0.458004C0.650637 0.306408 0.835969 0.187816 1.03917 0.109278C1.24236 0.0307407 1.45928 -0.00613884 1.67701 0.000832275H16.8091C17.2401 0.000832275 17.6534 0.172038 17.9582 0.476787C18.2629 0.781536 18.4341 1.19486 18.4341 1.62584V20.541C18.4173 20.9606 18.2387 21.3574 17.9358 21.6482C17.6328 21.9391 17.2291 22.1013 16.8091 22.101V22.101Z" fill="black"/>
<path d="M10.621 16.7977C10.536 16.7972 10.4519 16.7797 10.3738 16.7462C10.2956 16.7127 10.225 16.6639 10.166 16.6027L9.07398 15.5107C9.01306 15.4502 8.9647 15.3784 8.9317 15.2991C8.8987 15.2199 8.88171 15.135 8.88171 15.0492C8.88171 14.9634 8.8987 14.8784 8.9317 14.7992C8.9647 14.72 9.01306 14.6481 9.07398 14.5877C9.19549 14.4686 9.35885 14.4019 9.52899 14.4019C9.69913 14.4019 9.86249 14.4686 9.98399 14.5877L11.076 15.6927C11.1382 15.751 11.1877 15.8215 11.2216 15.8998C11.2555 15.978 11.273 16.0624 11.273 16.1477C11.273 16.233 11.2555 16.3173 11.2216 16.3956C11.1877 16.4738 11.1382 16.5443 11.076 16.6027C11.018 16.6651 10.9475 16.7147 10.8691 16.7483C10.7908 16.7819 10.7062 16.7987 10.621 16.7977V16.7977Z" fill="#E42525"/>
<path d="M10.621 16.7971C10.4938 16.7954 10.3699 16.7563 10.2647 16.6847C10.1595 16.6132 10.0776 16.5123 10.0291 16.3947C9.98068 16.277 9.96783 16.1478 9.99217 16.0229C10.0165 15.898 10.077 15.783 10.166 15.6921L12.4801 13.3651C12.5405 13.3042 12.6124 13.2558 12.6916 13.2228C12.7708 13.1898 12.8557 13.1729 12.9416 13.1729C13.0274 13.1729 13.1123 13.1898 13.1915 13.2228C13.2707 13.2558 13.3426 13.3042 13.4031 13.3651C13.523 13.4888 13.59 13.6543 13.59 13.8266C13.59 13.9989 13.523 14.1644 13.4031 14.2881L11.076 16.6411C11.0147 16.6966 10.9427 16.739 10.8645 16.7658C10.7863 16.7926 10.7035 16.8033 10.621 16.7971V16.7971Z" fill="#E42525"/>
<path d="M15.7172 14.8211C15.7213 14.099 15.5535 13.3864 15.2277 12.742C14.9019 12.0976 14.4274 11.5401 13.8434 11.1154C13.2595 10.6907 12.5828 10.4111 11.8694 10.2996C11.156 10.1882 10.4264 10.2481 9.74072 10.4745C9.05508 10.7009 8.43315 11.0872 7.92634 11.6015C7.41953 12.1158 7.0424 12.7433 6.82612 13.4322C6.60983 14.1211 6.5606 14.8516 6.68249 15.5633C6.80439 16.275 7.09391 16.9474 7.52712 17.5251H7.46212V24.9221L11.1931 22.2571L14.6772 25.0001V17.6811C15.3447 16.877 15.7123 15.8661 15.7172 14.8211V14.8211ZM11.1671 11.571C11.8099 11.571 12.4383 11.7616 12.9728 12.1188C13.5072 12.4759 13.9238 12.9835 14.1698 13.5773C14.4158 14.1712 14.4801 14.8247 14.3547 15.4551C14.2293 16.0855 13.9198 16.6646 13.4653 17.1192C13.0107 17.5737 12.4316 17.8832 11.8012 18.0086C11.1707 18.134 10.5173 18.0697 9.92341 17.8237C9.32955 17.5777 8.82197 17.1611 8.46485 16.6267C8.10773 16.0922 7.91712 15.4638 7.91712 14.8211C7.91712 13.9591 8.25954 13.1324 8.86903 12.5229C9.47853 11.9134 10.3052 11.571 11.1671 11.571V11.571ZM11.1671 20.6711L8.69713 22.4261V18.6691C9.41584 19.1268 10.2501 19.3703 11.1021 19.3711C11.8777 19.3628 12.6383 19.157 13.3122 18.7731V22.3221L11.1671 20.6711Z" fill="#E42525"/>
</svg>
