<svg width="22" height="25" viewBox="0 0 22 25" fill="none" xmlns="http://www.w3.org/2000/svg">
<path d="M10.6825 24.9663H10.3618C10.2946 24.9813 10.2249 24.9813 10.1577 24.9663C6.73335 23.818 3.84588 21.4593 2.03739 18.333C-0.14941 14.4259 -0.076517 7.88004 0.0546911 5.21214C0.061098 5.07898 0.103901 4.95013 0.178444 4.8396C0.252987 4.72907 0.356414 4.6411 0.477473 4.58526L10.2452 0.0658708C10.4702 -0.0219569 10.72 -0.0219569 10.945 0.0658708L20.7127 4.58526C20.8337 4.6411 20.9372 4.72907 21.0117 4.8396C21.0862 4.95013 21.129 5.07898 21.1355 5.21214C21.2667 7.83631 21.3396 14.3821 19.1528 18.333C17.3313 21.4777 14.4223 23.8475 10.9741 24.9954C10.876 25.0068 10.7765 24.9969 10.6825 24.9663V24.9663ZM10.5076 23.5084H10.5805C13.652 22.4768 16.2431 20.3625 17.8698 17.5603C19.7359 14.1635 19.7651 8.41945 19.5901 5.63493L10.5513 1.48L1.45424 5.63493C1.33761 8.36114 1.38135 14.1051 3.27658 17.4874C4.87617 20.3024 7.44696 22.4378 10.5076 23.4938V23.5084Z" fill="black"/>
<path d="M14.0941 17.0498H7.09636V15.6649L10.3911 12.1368C10.7707 11.7405 11.1078 11.3056 11.3971 10.8393C11.6023 10.5265 11.7182 10.1635 11.7324 9.78965C11.7544 9.40343 11.6294 9.0232 11.3825 8.7254C11.2586 8.59208 11.1068 8.4877 10.938 8.41967C10.7692 8.35164 10.5875 8.32163 10.4057 8.33178C10.2111 8.334 10.0191 8.37812 9.84305 8.46114C9.66696 8.54415 9.5108 8.66412 9.38522 8.81288C9.09217 9.143 8.92672 9.56697 8.9187 10.0083H6.89226C6.88627 9.41128 7.03708 8.82312 7.32962 8.30262C7.63061 7.78835 8.07011 7.36906 8.59797 7.09259C9.1638 6.79478 9.79555 6.64436 10.4349 6.65523C11.3158 6.60561 12.1852 6.87471 12.8841 7.41332C13.1858 7.68793 13.4213 8.02741 13.5728 8.4062C13.7243 8.78498 13.7879 9.1932 13.7588 9.60012C13.7494 10.1388 13.6146 10.6679 13.3652 11.1455C12.9943 11.7921 12.5437 12.3897 12.024 12.9241L9.70595 15.417H14.0795L14.0941 17.0498Z" fill="#E42525"/>
</svg>
