<svg width="25" height="25" viewBox="0 0 25 25" fill="none" xmlns="http://www.w3.org/2000/svg">
<path d="M12.5 1.42045C14.6913 1.42045 16.8334 2.07026 18.6555 3.28769C20.4775 4.50513 21.8976 6.23552 22.7362 8.26004C23.5748 10.2846 23.7942 12.5123 23.3667 14.6615C22.9391 16.8107 21.8839 18.7849 20.3344 20.3344C18.7849 21.8839 16.8107 22.9391 14.6615 23.3666C12.5123 23.7942 10.2846 23.5747 8.26005 22.7362C6.23552 21.8976 4.50514 20.4775 3.2877 18.6555C2.07026 16.8334 1.42046 14.6913 1.42046 12.5C1.42422 9.56267 2.59273 6.74673 4.66973 4.66973C6.74674 2.59273 9.56268 1.42421 12.5 1.42045V1.42045ZM12.5 0C10.0277 0 7.61099 0.733112 5.55538 2.10663C3.49976 3.48015 1.89761 5.43238 0.951511 7.71646C0.00541606 10.0005 -0.242126 12.5139 0.24019 14.9386C0.722505 17.3634 1.91301 19.5907 3.66117 21.3388C5.40933 23.087 7.63661 24.2775 10.0614 24.7598C12.4861 25.2421 14.9995 24.9946 17.2835 24.0485C19.5676 23.1024 21.5199 21.5002 22.8934 19.4446C24.2669 17.389 25 14.9723 25 12.5C25 10.8585 24.6767 9.23303 24.0485 7.71646C23.4203 6.19989 22.4996 4.8219 21.3388 3.66116C20.1781 2.50043 18.8001 1.57969 17.2835 0.951506C15.767 0.323322 14.1415 0 12.5 0V0Z" fill="black"/>
<path d="M11.6477 17.1876C11.5499 17.2135 11.4471 17.2135 11.3494 17.1876C10.8442 16.9614 10.4018 16.6155 10.0603 16.1799C9.71874 15.7444 9.4884 15.2322 9.38916 14.6876C9.35596 14.5031 9.39705 14.313 9.50349 14.1586C9.60993 14.0043 9.77307 13.8983 9.95734 13.8638C10.1419 13.8306 10.332 13.8717 10.4863 13.9781C10.6407 14.0845 10.7467 14.2477 10.7812 14.432C10.8501 14.7994 11.0226 15.1394 11.2784 15.4121C11.4655 15.6206 11.6925 15.7897 11.946 15.9092C12.0898 15.9788 12.206 16.095 12.2757 16.2388C12.3454 16.3826 12.3646 16.5458 12.3301 16.7018C12.2956 16.8579 12.2094 16.9977 12.0856 17.0988C11.9618 17.1998 11.8075 17.2562 11.6477 17.2587V17.1876Z" fill="#E42525"/>
<path d="M12.2585 6.63372C13.6511 8.34284 14.8427 10.2064 15.8096 12.1877C16.0843 12.8282 16.2103 13.5226 16.1783 14.2188C16.1464 14.915 15.9572 15.5949 15.625 16.2076C15.3598 16.7791 14.965 17.2809 14.4718 17.673C13.9786 18.0651 13.4007 18.3367 12.784 18.4661C12.6044 18.4802 12.4239 18.4802 12.2443 18.4661C11.437 18.4249 10.6608 18.1412 10.0172 17.6522C9.37358 17.1631 8.89234 16.4914 8.63632 15.7246C8.52229 15.405 8.43208 15.0774 8.36643 14.7445C8.35249 14.5459 8.35249 14.3465 8.36643 14.1479C8.36643 14.0485 8.36643 13.9491 8.36643 13.8638C8.3939 13.3234 8.52406 12.7931 8.74996 12.3013C9.57785 10.4363 10.6476 8.68831 11.9318 7.10247V7.01724L12.2017 6.66213L12.2585 6.63372ZM12.2017 5.0002C12.0441 5.00491 11.8893 5.04276 11.7474 5.11129C11.6054 5.17982 11.4795 5.27749 11.3778 5.39792C11.1505 5.66781 10.9233 5.9519 10.7102 6.23599C9.37245 7.93462 8.25558 9.79606 7.38632 11.7758C7.07801 12.455 6.90896 13.1892 6.88916 13.9349C6.88916 14.3042 6.88916 14.6735 7.017 15.0428C7.09754 15.4539 7.21156 15.8577 7.35791 16.2502C7.716 17.2833 8.3786 18.1837 9.25845 18.8328C10.1383 19.4819 11.1941 19.8493 12.2869 19.8866C12.5465 19.9146 12.8085 19.9146 13.0681 19.8866C13.9217 19.673 14.7176 19.2737 15.3992 18.7172C16.0807 18.1607 16.631 17.4607 17.0109 16.667C17.3907 15.8734 17.5908 15.0057 17.5968 14.1258C17.6027 13.246 17.4145 12.3756 17.0454 11.5769C15.9501 9.34394 14.591 7.2504 12.9971 5.34111C12.9097 5.2245 12.7959 5.13024 12.665 5.06605C12.5342 5.00186 12.39 4.96956 12.2443 4.97179L12.2017 5.0002Z" fill="#E42525"/>
</svg>
