<svg width="25" height="25" viewBox="0 0 25 25" fill="none" xmlns="http://www.w3.org/2000/svg">
<path d="M14.4458 15.625C14.8381 15.625 15.1561 15.3071 15.1561 14.9148C15.1561 14.5226 14.8381 14.2046 14.4458 14.2046C14.0536 14.2046 13.7356 14.5226 13.7356 14.9148C13.7356 15.3071 14.0536 15.625 14.4458 15.625Z" fill="#E42525"/>
<path d="M10.8948 15.625C11.287 15.625 11.605 15.3071 11.605 14.9148C11.605 14.5226 11.287 14.2046 10.8948 14.2046C10.5025 14.2046 10.1846 14.5226 10.1846 14.9148C10.1846 15.3071 10.5025 15.625 10.8948 15.625Z" fill="#E42525"/>
<path d="M9.75857 12.6421C10.1508 12.6421 10.4688 12.3242 10.4688 11.9319C10.4688 11.5397 10.1508 11.2217 9.75857 11.2217C9.36632 11.2217 9.04834 11.5397 9.04834 11.9319C9.04834 12.3242 9.36632 12.6421 9.75857 12.6421Z" fill="#E42525"/>
<path d="M12.5996 10.7955C12.9919 10.7955 13.3099 10.4775 13.3099 10.0852C13.3099 9.69298 12.9919 9.375 12.5996 9.375C12.2074 9.375 11.8894 9.69298 11.8894 10.0852C11.8894 10.4775 12.2074 10.7955 12.5996 10.7955Z" fill="#E42525"/>
<path d="M15.2984 12.5C15.6906 12.5 16.0086 12.1821 16.0086 11.7898C16.0086 11.3976 15.6906 11.0796 15.2984 11.0796C14.9061 11.0796 14.5881 11.3976 14.5881 11.7898C14.5881 12.1821 14.9061 12.5 15.2984 12.5Z" fill="#E42525"/>
<path d="M9.06263 10.4544C8.06518 10.369 7.09704 10.0738 6.22172 9.58793L5.86661 9.41748C5.60891 9.30865 5.35756 9.18534 5.11377 9.04816L5.824 7.81237C6.02161 7.92784 6.22552 8.03217 6.43479 8.12487L6.81831 8.29532C7.51434 8.62203 8.9632 9.30384 9.47456 8.92032C9.98593 8.5368 10.057 6.69021 10.0001 5.65328V5.38339C9.9825 5.09299 9.94931 4.80375 9.9007 4.51691L11.3212 4.26123C11.3832 4.59902 11.4212 4.94079 11.4348 5.28396V5.53964C11.52 6.96009 11.6621 9.06237 10.3552 10.0283C9.98355 10.3097 9.52884 10.4596 9.06263 10.4544V10.4544Z" fill="#E42525"/>
<path d="M7.25828 18.551L6.12191 17.6846L6.42021 17.301C7.03101 16.534 8.15316 15.1135 7.84066 14.3749C7.52816 13.6363 5.63896 13.0823 4.36055 12.855H4.06226L4.31794 11.4346H4.61623C6.15032 11.7045 8.47987 12.1306 9.16169 13.8067C9.84351 15.4829 8.47987 17.0454 7.54237 18.1817L7.25828 18.551Z" fill="#E42525"/>
<path d="M15.8382 10.2698C15.3816 10.2852 14.9325 10.1505 14.5598 9.88623C13.253 8.90612 13.3808 6.78964 13.466 5.38339V5.12771C13.4797 4.78454 13.5176 4.44277 13.5797 4.10498L15.0001 4.33225C15.0001 4.60214 14.9291 4.90043 14.9007 5.21293V5.48282C14.9007 6.50555 14.7302 8.2243 15.4263 8.73566C16.1223 9.24703 17.3865 8.43737 18.0825 8.11066L18.4234 7.94021C18.6327 7.84751 18.8366 7.74318 19.0342 7.62771L19.7444 8.8635L18.9916 9.24703L18.6365 9.40328C17.7741 9.88341 16.821 10.1785 15.8382 10.2698V10.2698Z" fill="#E42525"/>
<path d="M17.9406 18.2243L17.6565 17.8692C16.7616 16.7328 15.4122 15.0283 16.0372 13.5084C16.6622 11.9885 19.0486 11.3635 20.5827 11.1362H20.881L21.1366 12.5567H20.8384C19.6026 12.7698 17.7276 13.1107 17.344 14.0624C17.0457 14.801 18.1679 16.2357 18.7645 17.0027L19.0628 17.372L17.9406 18.2243Z" fill="#E42525"/>
<path d="M9.90075 20.3696L8.69336 19.6167L8.84961 19.3611C9.67347 18.04 10.9235 16.023 12.7417 16.0088C14.361 16.0088 15.4547 17.898 16.1649 19.1338L16.3922 19.5315L15.1848 20.2702L14.9292 19.844C14.4462 19.0059 13.5087 17.4292 12.7417 17.4292C11.7189 17.4292 10.7246 19.0486 10.057 20.1139L9.90075 20.3696Z" fill="#E42525"/>
<path d="M12.4859 21.6333C10.6766 21.6333 8.908 21.0968 7.40366 20.0917C5.89933 19.0865 4.72684 17.6578 4.03447 15.9863C3.3421 14.3148 3.16094 12.4755 3.51391 10.701C3.86688 8.9265 4.73811 7.29653 6.01745 6.0172C7.29678 4.73787 8.92675 3.86663 10.7012 3.51367C12.4757 3.1607 14.315 3.34185 15.9865 4.03422C17.6581 4.72659 19.0868 5.89908 20.0919 7.40342C21.0971 8.90775 21.6336 10.6764 21.6336 12.4856C21.6298 14.9106 20.6649 17.2352 18.9501 18.9499C17.2354 20.6646 14.9108 21.6296 12.4859 21.6333V21.6333ZM12.4859 4.75835C10.9576 4.75835 9.46357 5.21155 8.19282 6.06063C6.92208 6.90971 5.93166 8.11655 5.3468 9.52852C4.76194 10.9405 4.60891 12.4942 4.90707 13.9931C5.20523 15.4921 5.94118 16.8689 7.02186 17.9496C8.10254 19.0303 9.47941 19.7663 10.9783 20.0644C12.4773 20.3626 14.031 20.2095 15.443 19.6247C16.8549 19.0398 18.0618 18.0494 18.9109 16.7787C19.7599 15.5079 20.2131 14.0139 20.2131 12.4856C20.2094 10.4374 19.3941 8.47409 17.9457 7.02576C16.4974 5.57743 14.5341 4.7621 12.4859 4.75835V4.75835Z" fill="black"/>
<path d="M12.5 1.42045C14.6895 1.42888 16.8274 2.08583 18.6438 3.30837C20.4602 4.53092 21.8737 6.26423 22.7057 8.28948C23.5378 10.3147 23.7511 12.5411 23.3188 14.6875C22.8865 16.8339 21.8279 18.8041 20.2768 20.3494C18.7256 21.8946 16.7513 22.9456 14.6033 23.3697C12.4552 23.7937 10.2297 23.5718 8.20765 22.732C6.18561 21.8922 4.45773 20.4721 3.24217 18.651C2.02661 16.8299 1.37786 14.6895 1.37785 12.5C1.37971 11.0419 1.66897 9.59857 2.2291 8.2524C2.78922 6.90623 3.60922 5.68368 4.64219 4.65466C5.67517 3.62564 6.90086 2.81035 8.24917 2.25539C9.59748 1.70044 11.042 1.41672 12.5 1.42045V1.42045ZM12.5 0C10.0277 0 7.61099 0.733112 5.55538 2.10663C3.49976 3.48015 1.89761 5.43238 0.951511 7.71646C0.00541606 10.0005 -0.242126 12.5139 0.24019 14.9386C0.722505 17.3634 1.91301 19.5907 3.66117 21.3388C5.40933 23.087 7.63661 24.2775 10.0614 24.7598C12.4861 25.2421 14.9995 24.9946 17.2835 24.0485C19.5676 23.1024 21.5199 21.5002 22.8934 19.4446C24.2669 17.389 25 14.9723 25 12.5C25 10.8585 24.6767 9.23303 24.0485 7.71646C23.4203 6.19989 22.4996 4.8219 21.3388 3.66116C20.1781 2.50043 18.8001 1.57969 17.2835 0.951506C15.767 0.323322 14.1415 0 12.5 0V0Z" fill="black"/>
</svg>
