<svg width="25" height="25" viewBox="0 0 25 25" fill="none" xmlns="http://www.w3.org/2000/svg">
<path d="M12.9263 17.7414C12.9282 17.8347 12.9117 17.9274 12.8777 18.0143C12.8438 18.1012 12.793 18.1806 12.7284 18.2478C12.6637 18.3151 12.5865 18.369 12.501 18.4064C12.4156 18.4438 12.3236 18.464 12.2303 18.4659C12.0343 18.4646 11.8463 18.3884 11.7047 18.2528C11.5786 18.1178 11.5076 17.9404 11.5059 17.7556C11.5059 17.5673 11.5807 17.3866 11.7139 17.2534C11.8471 17.1202 12.0277 17.0454 12.2161 17.0454C12.4045 17.0454 12.5851 17.1202 12.7183 17.2534C12.8515 17.3866 12.9263 17.5673 12.9263 17.7556V17.7414Z" fill="#E42525"/>
<path d="M18.4658 11.3636C18.2816 11.3592 18.1051 11.2886 17.9687 11.1647C17.0672 10.2892 15.9795 9.62884 14.7869 9.23289C13.4689 8.80841 12.0679 8.70814 10.7029 8.94058C9.33794 9.17303 8.04916 9.73133 6.94595 10.5681C6.74691 10.7123 6.55714 10.8688 6.37777 11.0369C6.30596 11.0994 6.22253 11.1471 6.13227 11.1773C6.04201 11.2076 5.94667 11.2198 5.8517 11.2132C5.75673 11.2066 5.66399 11.1813 5.57878 11.1389C5.49356 11.0965 5.41754 11.0377 5.35505 10.9658C5.29256 10.894 5.24482 10.8106 5.21457 10.7203C5.18432 10.6301 5.17215 10.5347 5.17874 10.4398C5.18534 10.3448 5.21057 10.2521 5.25301 10.1668C5.29545 10.0816 5.35425 10.0056 5.42607 9.94312L6.09368 9.40335C7.37771 8.42105 8.88189 7.76665 10.4759 7.49686C12.0699 7.22706 13.7056 7.35001 15.2414 7.85505C16.6589 8.32593 17.9509 9.11279 19.0198 10.1562C19.1211 10.2588 19.1887 10.3899 19.2137 10.5319C19.2387 10.6739 19.2199 10.8201 19.1598 10.9512C19.0996 11.0822 19.001 11.1919 18.8771 11.2655C18.7531 11.3392 18.6097 11.3734 18.4658 11.3636V11.3636Z" fill="#E42525"/>
<path d="M16.6339 13.9061C16.4466 13.9034 16.2679 13.8269 16.1368 13.693C15.1601 12.6613 13.8323 12.0329 12.4152 11.9317C11.0451 11.9602 9.72056 12.4283 8.63677 13.2669C8.50751 13.3585 8.38416 13.4581 8.26745 13.5652C8.20143 13.6318 8.12288 13.6846 8.03633 13.7207C7.94978 13.7567 7.85695 13.7753 7.76319 13.7753C7.66943 13.7753 7.5766 13.7567 7.49006 13.7207C7.40351 13.6846 7.32496 13.6318 7.25893 13.5652C7.1288 13.4324 7.05591 13.254 7.05591 13.068C7.05591 12.8821 7.1288 12.7037 7.25893 12.5709L7.72768 12.1874C9.06663 11.1343 10.7121 10.5459 12.4152 10.5112C14.2149 10.6033 15.9096 11.387 17.1453 12.6987C17.2754 12.8315 17.3483 13.01 17.3483 13.1959C17.3483 13.3818 17.2754 13.5603 17.1453 13.693C17.0098 13.829 16.8259 13.9056 16.6339 13.9061V13.9061Z" fill="#E42525"/>
<path d="M14.3465 16.1788C14.2523 16.1812 14.1586 16.1649 14.0708 16.1307C13.983 16.0966 13.9029 16.0453 13.8351 15.9799C13.4437 15.5434 12.8996 15.2739 12.3152 15.2271C11.7374 15.2393 11.1792 15.4387 10.7243 15.7953C10.6667 15.8307 10.6142 15.8737 10.5681 15.9231C10.5003 15.9922 10.4191 16.0467 10.3294 16.0833C10.2398 16.1199 10.1436 16.1378 10.0468 16.1358C9.95006 16.1339 9.85469 16.1122 9.7666 16.0721C9.6785 16.0319 9.59954 15.9742 9.53457 15.9024C9.46959 15.8307 9.41997 15.7464 9.38876 15.6547C9.35755 15.5631 9.3454 15.4661 9.35306 15.3696C9.36072 15.2731 9.38802 15.1791 9.4333 15.0936C9.47858 15.008 9.54087 14.9326 9.61635 14.872L9.94306 14.6589C10.6438 14.118 11.5011 13.8189 12.3862 13.8066C13.3473 13.8561 14.2525 14.2731 14.9146 14.9714C14.9812 15.0374 15.0341 15.116 15.0701 15.2025C15.1062 15.2891 15.1247 15.3819 15.1247 15.4757C15.1247 15.5694 15.1062 15.6623 15.0701 15.7488C15.0341 15.8354 14.9812 15.9139 14.9146 15.9799C14.8421 16.0553 14.7529 16.1125 14.6542 16.147C14.5556 16.1816 14.4501 16.1925 14.3465 16.1788V16.1788Z" fill="#E42525"/>
<path d="M12.5 1.42045C14.6913 1.42045 16.8334 2.07026 18.6555 3.28769C20.4775 4.50513 21.8976 6.23552 22.7362 8.26004C23.5748 10.2846 23.7942 12.5123 23.3667 14.6615C22.9391 16.8107 21.8839 18.7849 20.3344 20.3344C18.7849 21.8839 16.8107 22.9391 14.6615 23.3666C12.5123 23.7942 10.2846 23.5747 8.26005 22.7362C6.23552 21.8976 4.50514 20.4775 3.2877 18.6555C2.07026 16.8334 1.42046 14.6913 1.42046 12.5C1.42422 9.56267 2.59273 6.74673 4.66973 4.66973C6.74674 2.59273 9.56268 1.42421 12.5 1.42045V1.42045ZM12.5 0C10.0277 0 7.61099 0.733112 5.55538 2.10663C3.49976 3.48015 1.89761 5.43238 0.951511 7.71646C0.00541606 10.0005 -0.242126 12.5139 0.24019 14.9386C0.722505 17.3634 1.91301 19.5907 3.66117 21.3388C5.40933 23.087 7.63661 24.2775 10.0614 24.7598C12.4861 25.2421 14.9995 24.9946 17.2835 24.0485C19.5676 23.1024 21.5199 21.5002 22.8934 19.4446C24.2669 17.389 25 14.9723 25 12.5C25 10.8585 24.6767 9.23303 24.0485 7.71646C23.4203 6.19989 22.4996 4.8219 21.3388 3.66116C20.1781 2.50043 18.8001 1.57969 17.2835 0.951506C15.767 0.323322 14.1415 0 12.5 0V0Z" fill="black"/>
</svg>
