<svg width="25" height="25" viewBox="0 0 25 25" fill="none" xmlns="http://www.w3.org/2000/svg">
<path d="M12.5 1.42045C14.6913 1.42045 16.8334 2.07026 18.6555 3.28769C20.4775 4.50513 21.8976 6.23552 22.7362 8.26004C23.5748 10.2846 23.7942 12.5123 23.3667 14.6615C22.9391 16.8107 21.8839 18.7849 20.3344 20.3344C18.7849 21.8839 16.8107 22.9391 14.6615 23.3666C12.5123 23.7942 10.2846 23.5747 8.26005 22.7362C6.23552 21.8976 4.50514 20.4775 3.2877 18.6555C2.07026 16.8334 1.42046 14.6913 1.42046 12.5C1.42422 9.56267 2.59273 6.74673 4.66973 4.66973C6.74674 2.59273 9.56268 1.42421 12.5 1.42045V1.42045ZM12.5 0C10.0277 0 7.61099 0.733112 5.55538 2.10663C3.49976 3.48015 1.89761 5.43238 0.951511 7.71646C0.00541606 10.0005 -0.242126 12.5139 0.24019 14.9386C0.722505 17.3634 1.91301 19.5907 3.66117 21.3388C5.40933 23.087 7.63661 24.2775 10.0614 24.7598C12.4861 25.2421 14.9995 24.9946 17.2835 24.0485C19.5676 23.1024 21.5199 21.5002 22.8934 19.4446C24.2669 17.389 25 14.9723 25 12.5C25 10.8585 24.6767 9.23303 24.0485 7.71646C23.4203 6.19989 22.4996 4.8219 21.3388 3.66116C20.1781 2.50043 18.8001 1.57969 17.2835 0.951506C15.767 0.323322 14.1415 0 12.5 0V0Z" fill="black"/>
<path d="M15.7243 6.17904L15.1562 6.73301L14.5738 7.3154L14.7868 8.11085L15.0425 9.04835L15.2556 9.84381L16.051 10.0569L16.9885 10.2984L17.784 10.5114L18.3664 9.94324L18.963 9.34665C18.8845 9.66175 18.7497 9.96009 18.5652 10.2273C18.2551 10.6974 17.8008 11.054 17.2705 11.2436C16.7402 11.4332 16.1627 11.4454 15.6249 11.2785L14.8152 11.0512L14.2045 11.6478L7.99707 17.8694C7.7982 18.0682 7.67036 18.0682 7.62775 18.0682C7.50351 18.0548 7.38519 18.0081 7.28521 17.9331C7.18524 17.8581 7.10729 17.7576 7.05957 17.6421C7.05957 17.5001 7.05957 17.3438 7.21582 17.1023L13.4516 10.8665L14.0482 10.2841L13.8067 9.47449C13.6856 9.08924 13.6584 8.68057 13.7276 8.28268C13.7968 7.8848 13.9603 7.50928 14.2045 7.18756C14.5901 6.69086 15.1297 6.33616 15.7385 6.17904H15.7243ZM16.392 4.67335C15.7482 4.6591 15.1103 4.79862 14.5313 5.08032C13.9523 5.36202 13.4488 5.77778 13.0627 6.29308C12.6766 6.80838 12.4189 7.40835 12.3112 8.04318C12.2034 8.67801 12.2486 9.32939 12.4431 9.94324L6.2215 16.0938C5.94248 16.3728 5.75275 16.7284 5.67645 17.1155C5.60016 17.5027 5.64073 17.9037 5.79303 18.2677C5.94532 18.6317 6.20244 18.9421 6.53169 19.1596C6.86093 19.377 7.24741 19.4916 7.64195 19.4887C7.90867 19.4947 8.17354 19.4432 8.41863 19.3378C8.66371 19.2324 8.88326 19.0756 9.06241 18.8779L15.2272 12.6421C15.5958 12.7532 15.9785 12.8106 16.3635 12.8126C17.0253 12.8139 17.6773 12.6536 18.2629 12.3455C18.8486 12.0375 19.3501 11.591 19.724 11.045C20.0978 10.499 20.3325 9.86993 20.4079 9.2125C20.4832 8.55508 20.3968 7.88921 20.1562 7.27279C20.1176 7.16046 20.0447 7.06306 19.9479 6.99427C19.8511 6.92548 19.7352 6.88875 19.6164 6.88926C19.4711 6.89358 19.3334 6.9548 19.2329 7.05972V7.05972L17.3579 8.93472L16.4204 8.67904L16.1647 7.74154L18.0113 5.88074C18.0868 5.81521 18.1432 5.73047 18.1744 5.6355C18.2057 5.54052 18.2106 5.43886 18.1888 5.34129C18.167 5.24372 18.1191 5.15388 18.0503 5.0813C17.9816 5.00872 17.8944 4.95611 17.7982 4.92904C17.3431 4.76202 16.8625 4.6755 16.3777 4.67335H16.392Z" fill="#E42525"/>
</svg>
