<svg width="25" height="24" viewBox="0 0 25 24" fill="none" xmlns="http://www.w3.org/2000/svg">
<path d="M12.5055 1.56816L23.4961 22.1706H1.52832L12.5055 1.56816ZM12.519 0C12.3101 0.0114194 12.1082 0.0789816 11.9345 0.195564C11.7608 0.312147 11.6218 0.473431 11.5321 0.662414L0.122382 21.9272C0.0336741 22.091 -0.00820806 22.2761 0.00133083 22.4621C0.0108697 22.6481 0.0714611 22.8279 0.176456 22.9817C0.282398 23.1464 0.428667 23.2813 0.601383 23.3735C0.774099 23.4658 0.96753 23.5124 1.16332 23.5089H23.8611C24.0569 23.5124 24.2503 23.4658 24.4231 23.3735C24.5958 23.2813 24.742 23.1464 24.848 22.9817C24.9474 22.8213 25 22.6364 25 22.4477C25 22.259 24.9474 22.0741 24.848 21.9137L13.5599 0.662414C13.4661 0.465447 13.3186 0.298869 13.1346 0.181728C12.9505 0.064587 12.7372 0.00161073 12.519 0V0Z" fill="black"/>
<path d="M13.5736 11.2881L12.9788 11.7478L12.3704 12.2344L12.4786 13.005L12.6002 13.9243L12.7084 14.6948L13.4384 14.9787L14.3036 15.3302L15.0201 15.6276L15.5879 15.1409L16.2232 14.6408C16.1422 14.8816 16.0186 15.106 15.8582 15.3032C15.619 15.6103 15.3137 15.8597 14.9651 16.0329C14.6164 16.206 14.2332 16.2985 13.844 16.3035C13.5046 16.3044 13.1687 16.2353 12.8571 16.1008L12.1136 15.7898L11.5323 16.2224L6.65203 20.0888C6.56268 20.1719 6.44891 20.2241 6.32759 20.2375C6.2101 20.2206 6.0997 20.1711 6.00891 20.0946C5.91811 20.0181 5.85055 19.9178 5.81388 19.8049C5.81388 19.6427 5.81388 19.4804 6.01666 19.2777L10.8969 15.4519L11.5323 14.9652L11.4106 14.1811C11.3384 13.8293 11.3458 13.4658 11.4324 13.1173C11.5189 12.7687 11.6824 12.444 11.9108 12.1668C12.342 11.6844 12.932 11.3726 13.5736 11.2881V11.2881ZM13.9115 9.93627C13.3467 9.92613 12.7865 10.0408 12.2711 10.2721C11.7556 10.5033 11.2975 10.8455 10.9295 11.2742C10.5615 11.7029 10.2927 12.2075 10.1422 12.752C9.99164 13.2966 9.96315 13.8676 10.0587 14.4245L5.1785 18.2097C4.85401 18.4469 4.61347 18.7813 4.49173 19.1643C4.36999 19.5474 4.37337 19.9593 4.50138 20.3403C4.62939 20.7213 4.87538 21.0517 5.20372 21.2836C5.53206 21.5154 5.92569 21.6367 6.32759 21.6299C6.75248 21.6039 7.1567 21.4375 7.47667 21.1567L12.3434 17.3445C12.8265 17.5497 13.3461 17.6554 13.871 17.6554C14.4601 17.6569 15.0417 17.5237 15.5715 17.266C16.1013 17.0083 16.5651 16.633 16.9277 16.1687C17.2903 15.7044 17.542 15.1634 17.6636 14.587C17.7851 14.0105 17.7734 13.414 17.6292 12.8428C17.6021 12.7222 17.5355 12.6142 17.44 12.5358C17.3444 12.4574 17.2255 12.4132 17.1019 12.4102C16.9845 12.407 16.8696 12.4453 16.7775 12.5183V12.5183L14.7903 14.073L13.9251 13.735L13.8034 12.8157L15.7636 11.2746C15.8413 11.2209 15.9031 11.1473 15.9426 11.0615C15.9821 10.9757 15.9978 10.8809 15.9882 10.787C15.9785 10.693 15.9438 10.6034 15.8876 10.5275C15.8315 10.4516 15.756 10.3921 15.669 10.3553C15.1258 10.0595 14.5165 9.90605 13.898 9.90923L13.9115 9.93627Z" fill="#E42525"/>
</svg>
