<svg width="21" height="23" viewBox="0 0 21 23" fill="none" xmlns="http://www.w3.org/2000/svg">
<path d="M19.7599 16.9209L17.7829 14.9056L17.5788 15.1096L17.4258 15.2755L17.3237 15.3775L16.9921 15.6836L18.9946 17.6734C19.0614 17.7366 19.1146 17.8127 19.151 17.8972C19.1873 17.9816 19.2061 18.0726 19.2061 18.1645C19.2061 18.2564 19.1873 18.3474 19.151 18.4318C19.1146 18.5162 19.0614 18.5924 18.9946 18.6556L18.9181 18.7321C18.854 18.7973 18.7776 18.849 18.6933 18.8844C18.609 18.9197 18.5185 18.9379 18.427 18.9379C18.3356 18.9379 18.2451 18.9197 18.1608 18.8844C18.0765 18.849 18.0001 18.7973 17.936 18.7321L15.6656 16.4617C15.5426 16.475 15.4186 16.475 15.2957 16.4617C14.861 16.4473 14.4455 16.2792 14.1232 15.9873C13.8009 15.6953 13.5926 15.2984 13.5355 14.8673C13.369 14.7901 13.2109 14.6961 13.0635 14.5867C12.8447 14.418 12.67 14.1987 12.5545 13.9476C12.439 13.6966 12.3861 13.4213 12.4003 13.1454L11.9028 12.6607C11.6705 12.5388 11.4487 12.398 11.2395 12.2397H11.1758C11.1758 12.3163 11.1758 12.4056 11.0992 12.5331L10.9717 13.4387L17.0941 19.5484C17.2675 19.7281 17.4757 19.8705 17.706 19.967C17.9362 20.0635 18.1838 20.112 18.4334 20.1096C18.6716 20.1066 18.9069 20.0566 19.1258 19.9625C19.3447 19.8684 19.5428 19.732 19.7089 19.5612L19.7982 19.4846C19.9762 19.3106 20.1166 19.1021 20.211 18.8717C20.3053 18.6414 20.3515 18.3942 20.3467 18.1454C20.3147 17.6772 20.1047 17.2391 19.7599 16.9209V16.9209Z" fill="#E42525"/>
<path d="M9.83658 6.7424C10.1707 5.8271 10.2156 4.83131 9.96547 3.88961C9.7153 2.94792 9.18203 2.10574 8.43774 1.47693C7.69346 0.848111 6.77405 0.462976 5.8038 0.373584C4.83355 0.284193 3.85925 0.494855 3.0126 0.977095C2.93252 1.02376 2.86435 1.08837 2.81345 1.16583C2.76254 1.24329 2.7303 1.3315 2.71924 1.42352C2.70745 1.51164 2.7163 1.60128 2.74507 1.6854C2.77385 1.76951 2.82177 1.84579 2.88505 1.90822L5.15546 4.17863L4.21158 5.1225L2.04322 2.96689C1.9758 2.8984 1.8926 2.84752 1.80091 2.81872C1.70923 2.78991 1.61187 2.78407 1.5174 2.80171C1.42293 2.81934 1.33424 2.85991 1.25912 2.91985C1.184 2.97979 1.12475 3.05726 1.08658 3.14546C0.710191 4.0008 0.594023 4.94804 0.752578 5.86898C0.911133 6.78992 1.33739 7.64377 1.97815 8.32399C2.61891 9.0042 3.44581 9.48065 4.35564 9.69389C5.26548 9.90712 6.21796 9.84769 7.09424 9.52301L7.19628 9.6123L7.29832 9.43373C7.41311 9.29342 7.51516 9.15312 7.62995 9.03832C7.73524 8.91831 7.85044 8.80737 7.97434 8.70669L7.65546 8.40056C7.57376 8.29081 7.45478 8.21469 7.3209 8.1865C7.18701 8.15831 7.04744 8.18001 6.92842 8.2475C6.34486 8.53763 5.69283 8.66194 5.04346 8.60687C4.39408 8.5518 3.7723 8.31947 3.24593 7.93522C2.71956 7.55097 2.30881 7.02955 2.05848 6.42784C1.80816 5.82613 1.72787 5.16723 1.82638 4.52301L3.79067 6.39801C3.90785 6.50378 4.0601 6.56232 4.21796 6.56232C4.37582 6.56232 4.52807 6.50378 4.64526 6.39801L6.41822 4.59954C6.47453 4.54486 6.5193 4.47943 6.54987 4.40712C6.58044 4.33482 6.59619 4.25712 6.59619 4.17863C6.59619 4.10013 6.58044 4.02243 6.54987 3.95013C6.5193 3.87783 6.47453 3.81239 6.41822 3.75771L4.3774 1.69138C4.99467 1.50277 5.65192 1.48748 6.27729 1.6472C6.90266 1.80692 7.47209 2.13549 7.92332 2.59699C8.43979 3.12147 8.78091 3.79319 8.8997 4.51962C9.01848 5.24606 8.90909 5.99145 8.58658 6.65312C8.53607 6.76439 8.52001 6.88823 8.54046 7.0087C8.56092 7.12918 8.61697 7.24078 8.70138 7.32914L9.27536 7.92863L8.94373 8.13271L9.10954 8.05618H9.18607L10.0917 7.89036H10.4361L10.6019 7.69903L10.6784 7.59699L9.83658 6.7424Z" fill="#E42525"/>
<path d="M14.2242 16.8571L13.8925 17.2142C13.8119 17.3563 13.6879 17.4688 13.5388 17.5354C13.3896 17.6019 13.223 17.619 13.0634 17.5841C12.6304 17.4883 12.1794 17.5124 11.759 17.654C11.3387 17.7956 10.965 18.0493 10.6782 18.3877L7.23436 14.7397L8.20375 13.6556C8.29982 13.543 8.3655 13.4077 8.39452 13.2626C8.42354 13.1175 8.41495 12.9673 8.36956 12.8265C8.22616 12.3793 8.19419 11.9038 8.27644 11.4414C8.35869 10.979 8.55267 10.5437 8.8415 10.1734C9.04733 9.92537 9.3148 9.73586 9.61706 9.62391C9.91931 9.51196 10.2457 9.48153 10.5634 9.53566C11.7214 9.8717 12.7521 10.547 13.5226 11.4744C13.5868 11.5234 13.6355 11.5898 13.6629 11.6658L13.7905 11.8954C13.4589 12.0994 12.7828 11.8954 12.1706 11.4107C11.7894 11.1634 11.349 11.0225 10.8951 11.0025C10.7452 10.9529 10.5832 10.9534 10.4336 11.0041C10.284 11.0547 10.155 11.1526 10.066 11.2831C9.77183 11.9776 9.61586 12.7228 9.60681 13.477C9.60681 13.9362 9.53028 14.3188 10.0022 14.3443C10.2176 14.3455 10.4257 14.2664 10.586 14.1226C10.7463 13.9788 10.8474 13.7805 10.8696 13.5663V13.5663L10.9971 12.6607C10.9971 12.5331 10.9971 12.4438 11.0736 12.3673H11.1374C11.3543 12.5076 11.5711 12.4948 11.7879 12.6224C12.0048 12.7499 12.3619 12.6224 12.5277 12.7499C12.6935 12.8775 12.2981 13.2091 12.2981 13.2729C12.2839 13.5489 12.3369 13.8242 12.4524 14.0752C12.5679 14.3262 12.7426 14.5455 12.9614 14.7142C13.1087 14.8236 13.2669 14.9176 13.4333 14.9948C13.452 15.2446 13.5249 15.4872 13.647 15.7059C13.7691 15.9246 13.9374 16.114 14.1402 16.2609C14.343 16.4079 14.5754 16.5088 14.8212 16.5567C15.067 16.6046 15.3203 16.5983 15.5634 16.5382C15.981 16.4401 16.367 16.2383 16.6859 15.9515L16.8772 15.7729L17.2089 15.4668L17.3109 15.3647L17.464 15.1989L17.668 14.9948C18.409 14.4253 18.9059 13.5955 19.0583 12.6734V12.5969C19.045 12.2283 18.9261 11.8713 18.7159 11.5683C18.5056 11.2654 18.2127 11.0291 17.8721 10.8877C17.8077 10.4629 17.5954 10.0744 17.2726 9.79076C17.0582 9.51417 16.7645 9.3095 16.4308 9.20402C16.4226 8.76957 16.2493 8.35454 15.9461 8.04331C15.7517 7.81601 15.5051 7.63925 15.2274 7.52817C14.9497 7.4171 14.6492 7.37502 14.3517 7.40556V7.40556C14.1907 7.08295 13.9317 6.81954 13.6119 6.653C13.1003 6.41294 12.5182 6.36999 11.9769 6.53238C11.4356 6.69476 10.9732 7.05107 10.6782 7.53311L10.6017 7.63515L10.4359 7.82647H10.0915L9.18589 7.99229H9.10936L8.94354 8.06882C8.59291 8.2203 8.26632 8.42227 7.97416 8.66831C7.85026 8.76899 7.73505 8.87993 7.62977 8.99994C7.51497 9.11474 7.41293 9.25504 7.29814 9.39535L7.1961 9.57392L7.10681 9.72698L6.92824 10.0841C6.58552 10.952 6.51001 11.9026 6.7114 12.8137L6.12467 13.4642C5.95463 13.3463 5.74806 13.2931 5.54222 13.3142C5.33639 13.3352 5.14487 13.4292 5.00222 13.579L3.31854 15.3647C3.1733 15.5206 3.09253 15.7257 3.09253 15.9387C3.09253 16.1517 3.1733 16.3569 3.31854 16.5127L8.73946 22.38C8.90658 22.5449 9.12981 22.6406 9.36446 22.6479C9.58806 22.6474 9.80283 22.5606 9.96395 22.4056L11.6731 20.6836C11.7986 20.5538 11.8797 20.3877 11.9049 20.209C11.9301 20.0302 11.8981 19.8481 11.8134 19.6887C11.9117 19.5551 12.0406 19.4471 12.1893 19.3739C12.3381 19.3006 12.5023 19.2642 12.668 19.2678C13.1066 19.3865 13.5715 19.3627 13.9956 19.1999C14.4198 19.0372 14.7812 18.7438 15.0277 18.3622L15.2956 17.9795L14.2242 16.8571ZM15.2956 17.9795L14.2242 16.8571L15.2956 17.9795ZM10.5762 20.0459L9.36446 21.3214L4.37722 15.9515L5.52518 14.676L10.5762 20.0459ZM12.8849 9.07647C12.8293 9.14268 12.7822 9.21551 12.7446 9.29331C12.3488 9.00957 11.9206 8.77407 11.4691 8.59178C11.7879 8.17086 12.464 7.41831 13.0634 7.74994C13.1154 7.77803 13.1599 7.81817 13.1932 7.86699C13.2265 7.91581 13.2476 7.9719 13.2548 8.03056C13.2319 8.38743 13.1031 8.72937 12.8849 9.0127V9.07647ZM13.3185 9.71423C13.3185 9.6377 13.4078 9.57392 13.4716 9.47188C13.7094 9.10308 14.0714 8.83159 14.492 8.70658C14.6051 8.6922 14.7199 8.70966 14.8235 8.75698C14.9272 8.8043 15.0156 8.87961 15.0787 8.97443C15.1315 9.02249 15.1727 9.08189 15.1993 9.14817C15.2258 9.21445 15.2369 9.28588 15.2318 9.35709C15.2318 9.73974 14.9384 9.94382 14.6451 10.301C14.5366 10.4054 14.4344 10.5161 14.339 10.6326V10.6326C14.0711 10.3392 13.5354 9.82903 13.3058 9.65045L13.3185 9.71423ZM13.7395 13.8469C13.6162 13.7446 13.5369 13.599 13.5179 13.4399C13.4989 13.2809 13.5417 13.1207 13.6374 12.9923C13.643 12.9628 13.643 12.9325 13.6374 12.903H13.8925C14.1685 12.8643 14.4217 12.7287 14.6068 12.5204C14.7308 12.3647 14.8141 12.1806 14.8492 11.9846C14.8722 11.7783 14.8505 11.5695 14.7854 11.3724C14.8923 11.2749 14.9905 11.1682 15.0787 11.0535C15.3634 10.7568 15.7334 10.5561 16.1374 10.4795C16.2194 10.4736 16.3016 10.4854 16.3786 10.514C16.4557 10.5426 16.5256 10.5874 16.5838 10.6454C16.6541 10.7047 16.71 10.7791 16.7475 10.863C16.7851 10.9469 16.8032 11.0382 16.8007 11.13C16.8007 11.7168 16.0481 12.4056 15.7548 12.6734C15.7384 12.6784 15.7232 12.6866 15.71 12.6975C15.6969 12.7085 15.6861 12.722 15.6782 12.7372L15.4869 12.954C15.2573 13.2091 15.0101 13.4478 14.7471 13.6683C14.3262 13.9489 14.0328 14.0255 13.7395 13.7831V13.8469ZM16.9537 14.1147L16.6859 14.3954L16.1247 14.9566C15.6145 15.403 15.2701 15.5306 14.9384 15.2627C14.8189 15.1734 14.7378 15.042 14.7118 14.8951C14.6857 14.7481 14.7166 14.5968 14.7981 14.4719C14.9677 14.3687 15.1296 14.2536 15.2828 14.1275C15.5519 13.9048 15.8035 13.6617 16.0354 13.4005C16.0992 13.4005 16.1502 13.2729 16.214 13.2219C16.2088 13.1966 16.2088 13.1706 16.214 13.1454C16.6423 12.7889 17.0012 12.3565 17.2726 11.8698C17.3598 11.8532 17.4497 11.8585 17.5343 11.8852C17.6189 11.9119 17.6955 11.9593 17.7573 12.0229C17.8283 12.0809 17.8841 12.1554 17.9196 12.2399C17.9552 12.3244 17.9696 12.4163 17.9614 12.5076C17.9486 13.1071 17.2471 13.7959 16.9537 14.051V14.1147Z" fill="black"/>
</svg>
