<svg width="25" height="25" viewBox="0 0 25 25" fill="none" xmlns="http://www.w3.org/2000/svg">
<path d="M12.5 1.42045C14.6925 1.41483 16.8374 2.05985 18.6632 3.27387C20.4889 4.48788 21.9135 6.2163 22.7564 8.24032C23.5993 10.2643 23.8228 12.493 23.3985 14.644C22.9742 16.7951 21.9212 18.772 20.3729 20.3243C18.8245 21.8767 16.8504 22.9347 14.7004 23.3645C12.5504 23.7943 10.3212 23.5766 8.29504 22.7389C6.26886 21.9011 4.5368 20.481 3.3181 18.6584C2.0994 16.8358 1.44888 14.6925 1.44887 12.5C1.4526 9.56758 2.61721 6.75592 4.68808 4.67973C6.75895 2.60354 9.56761 1.43172 12.5 1.42045ZM12.5 0C10.0277 0 7.61099 0.733112 5.55538 2.10663C3.49976 3.48015 1.89761 5.43238 0.951511 7.71646C0.00541606 10.0005 -0.242126 12.5139 0.24019 14.9386C0.722505 17.3634 1.91301 19.5907 3.66117 21.3388C5.40933 23.087 7.63661 24.2775 10.0614 24.7598C12.4861 25.2421 14.9995 24.9946 17.2835 24.0485C19.5676 23.1024 21.5199 21.5002 22.8934 19.4446C24.2669 17.389 25 14.9723 25 12.5C25 9.18479 23.683 6.00537 21.3388 3.66116C18.9946 1.31696 15.8152 0 12.5 0V0Z" fill="black"/>
<path fill-rule="evenodd" clip-rule="evenodd" d="M13.1394 8.38135C14.1621 8.38135 15.5257 8.38135 16.5343 8.49498C17.5428 8.60862 17.5428 8.67964 17.7558 8.87851C18.3433 9.82984 18.6027 10.9475 18.4945 12.0603V12.9268C18.6197 14.0334 18.3803 15.1505 17.8127 16.1086C17.5996 16.2933 17.3865 16.4211 16.5911 16.4921C15.7956 16.5632 14.2189 16.5916 13.1962 16.6058H11.9178C10.8808 16.6058 9.51721 16.6058 8.50869 16.4921C7.71323 16.4921 7.51437 16.2933 7.3013 16.1086C6.72247 15.139 6.47795 14.0062 6.60528 12.8842V12.1313C6.60528 10.7109 6.73312 9.37567 7.3013 8.87851C7.51437 8.67964 7.71323 8.56601 8.50869 8.49498C9.51721 8.39555 10.8808 8.38135 11.9178 8.38135H13.1394Z" fill="#E01B22"/>
<path fill-rule="evenodd" clip-rule="evenodd" d="M11.3352 10.7812V14.304L14.3324 12.4858L11.3352 10.7812Z" fill="white"/>
</svg>
