<svg width="80" height="45" viewBox="0 0 80 45" fill="none" xmlns="http://www.w3.org/2000/svg">
<path fill-rule="evenodd" clip-rule="evenodd" d="M38.8311 0C33.832 0.0686112 24.4514 1.01533 24.4514 13.615C24.4514 26.2146 34.0607 27.0519 38.8311 27.1881C43.6014 27.0509 53.2117 26.2146 53.2117 13.615C53.2127 1.01533 43.8292 0.0686112 38.8311 0ZM38.1849 1.02385C38.5488 1.02385 39.1306 1.00694 39.4956 1.00694L39.5015 10.7744H38.1849L38.1849 1.02385ZM26.0498 13.6135C26.0498 3.6621 32.5773 1.01389 37.7813 1.01389L33.525 13.2257L31.6714 24.6757C31.1214 24.5574 26.004 22.1329 26.0498 13.6135H26.0498ZM38.8538 26.3131C36.5258 26.2912 33.1507 25.5245 32.3064 25.0004L37.9917 12.5121H39.6822L45.3217 25.0839C44.4764 25.608 41.1818 26.3359 38.8538 26.3131L38.8538 26.3131ZM45.9799 24.7508L44.2863 13.2292L39.8819 1.01736C45.0869 1.01736 51.6263 3.66558 51.6263 13.617C51.6711 22.1275 46.499 24.6394 45.9799 24.7508ZM7.04266 32.3368H10.211L17.2974 44.0265H13.9173L8.62781 35.1192L5.8185 39.8448H10.3701L11.7434 42.0545H4.62218L3.34531 44.0265H0L7.04266 32.3368ZM69.7455 32.3368H72.9148L80.0003 44.0265H76.6211L71.3307 35.1192L68.5214 39.8448H73.072L74.4453 42.0545H67.325L66.0492 44.0265H62.7048L69.7455 32.3368ZM17.0868 39.7272C17.1574 42.791 18.8828 44.0938 21.5588 44.0222H30.3965V41.6285H21.5946C20.1149 41.6643 20.0095 40.643 19.9747 39.6396V36.6454C20.0095 35.7305 20.1149 34.6913 21.5946 34.7271H30.3965V32.3325H21.5588C18.8828 32.2628 17.1574 33.5835 17.0868 36.6285V39.7272V39.7272ZM50.6129 44.0315L47.7578 44.0255V32.3368H58.46C62.1952 32.3368 63.1448 37.2852 60.5404 38.9916C61.6492 39.6072 61.8421 40.8582 61.9137 41.3156C61.9813 41.7731 62.0012 44.0265 62.0012 44.0265H59.185L59.0955 41.6329C59.0079 40.6126 58.3924 39.8906 57.3353 39.9085H51.8947L51.3298 37.4085H57.7042C58.6907 37.4085 59.186 36.9858 59.186 36.1226C59.186 35.2605 58.6907 34.8378 57.7042 34.8378H50.6089L50.6129 44.0315ZM41.4788 44.033C44.5417 43.9633 45.8454 42.237 45.7748 39.5609V32.3333H42.9566V40.1417C42.9934 41.6204 41.9721 41.7269 40.9697 41.7617H36.8835C35.9686 41.7268 34.9294 41.6204 34.9642 40.1417V32.3333H32.0773V39.5779C32.0067 42.2539 33.3273 43.9624 36.3733 44.032H41.4788V44.033H41.4788Z" fill="white"/>
</svg>
