<svg width="159" height="111" viewBox="0 0 159 111" fill="none" xmlns="http://www.w3.org/2000/svg">
<mask id="mask0" mask-type="alpha" maskUnits="userSpaceOnUse" x="115" y="80" width="28" height="14">
<path fill-rule="evenodd" clip-rule="evenodd" d="M124.442 93.7791H124.44L115.078 93.7773V91.9241L117.061 91.7129C117.658 91.6383 117.909 91.2541 118.093 90.9735L123.074 83.3817C123.286 83.058 123.243 82.8019 123.169 82.644C123.054 82.3976 122.8 82.2481 122.608 82.2279L119.96 81.9462V80.0898H131.065C131.778 80.0898 132.127 80.2941 132.62 81.0004L139.367 90.6551C139.394 90.6934 139.42 90.7329 139.448 90.7732C139.708 91.1583 140.033 91.6375 140.873 91.7289L142.735 91.9242V93.7755L130.068 93.7773V91.9225L131.725 91.7641C132.21 91.7154 132.568 91.5348 132.682 91.2811C132.775 91.0753 132.719 90.8227 132.514 90.5303L131.85 89.5829H122.862L122.114 90.7255C121.975 90.9393 121.947 91.1487 122.034 91.3313C122.145 91.5667 122.442 91.7303 122.828 91.7689L124.442 91.9225V93.7773L124.442 93.7791ZM127.217 82.9485L124.45 87.1638H130.16L127.217 82.9485H127.217Z" fill="white"/>
</mask>
<g mask="url(#mask0)">
<path d="M108.891 100.028H148.926V73.8418H108.891V100.028Z" fill="#767676"/>
</g>
<mask id="mask1" mask-type="alpha" maskUnits="userSpaceOnUse" x="92" y="80" width="23" height="14">
<path fill-rule="evenodd" clip-rule="evenodd" d="M92.1853 93.8342H92.1836V93.8324V91.973L93.9967 91.7554C94.6025 91.6862 94.897 91.2858 94.897 90.5312V83.2418C94.897 82.3583 94.4194 82.1789 93.9524 82.1199L92.35 81.9503V80.0859H105.752C108.316 80.0859 110.474 80.6403 111.995 81.6892C113.722 82.8809 114.598 84.654 114.598 86.9593C114.598 89.2646 113.722 91.0376 111.995 92.2293C110.474 93.2782 108.316 93.8326 105.752 93.8326L92.1853 93.8342ZM100.219 82.7198V91.2015L104.766 91.1999C107.351 91.1999 108.359 90.0109 108.359 86.9591C108.359 83.9084 107.351 82.7199 104.766 82.7199L100.219 82.7198Z" fill="white"/>
</mask>
<g mask="url(#mask1)">
<path d="M85.9609 100.085H120.827V73.8379H85.9609V100.085Z" fill="#767676"/>
</g>
<mask id="mask2" mask-type="alpha" maskUnits="userSpaceOnUse" x="67" y="80" width="25" height="14">
<path d="M82.9641 80.0859V81.9496L84.828 82.1663C85.6641 82.2582 85.7562 82.9504 85.7562 83.3901V90.2704L78.3833 80.6698C78.0514 80.2291 77.7635 80.0859 76.9705 80.0859H67.3945V81.9496L69.2599 82.1663C70.0945 82.2582 70.1867 82.9504 70.1867 83.3901V90.531C70.1867 90.9716 70.0945 91.6636 69.2599 91.7566L67.3945 91.9728V93.8343H76.3143V91.9728L74.4493 91.7566C73.6143 91.6636 73.5228 90.9716 73.5228 90.531V83.6501L80.8931 93.2506C81.2284 93.6927 81.5151 93.8343 82.307 93.8343H82.3745H89.0912V83.3901C89.0912 82.9504 89.183 82.2582 90.0193 82.1663L91.8823 81.9496V80.0859H82.9641Z" fill="black"/>
</mask>
<g mask="url(#mask2)">
<path d="M61.2695 100.085H98.001V73.8379H61.2695V100.085Z" fill="#767676"/>
</g>
<mask id="mask3" mask-type="alpha" maskUnits="userSpaceOnUse" x="42" y="78" width="24" height="17">
<path fill-rule="evenodd" clip-rule="evenodd" d="M54.0471 94.9812C50.0249 94.9812 47.0253 94.1071 45.1315 92.3831C43.2665 90.6853 42.875 88.5111 42.875 86.9861C42.875 85.4618 43.2665 83.2884 45.1315 81.5912C47.0253 79.8679 50.0249 78.9941 54.0471 78.9941C58.0693 78.9941 61.0689 79.8679 62.9627 81.5912C64.8277 83.2884 65.2192 85.4618 65.2192 86.9861C65.2192 88.5111 64.8277 90.6853 62.9627 92.3831C61.0689 94.1071 58.0693 94.9812 54.0471 94.9812ZM54.0457 81.8441C50.6273 81.8441 49.1689 83.3819 49.1689 86.9859C49.1689 90.5911 50.6273 92.1293 54.0457 92.1293C57.464 92.1293 58.9225 90.5911 58.9225 86.9859C58.9225 83.3819 57.464 81.8441 54.0457 81.8441Z" fill="white"/>
</mask>
<g mask="url(#mask3)">
<path d="M36.6523 101.108H71.4488V72.5156H36.6523V101.108Z" fill="#767676"/>
</g>
<mask id="mask4" mask-type="alpha" maskUnits="userSpaceOnUse" x="14" y="80" width="29" height="14">
<path d="M30.1176 80.0859V81.9496L32.1474 82.1663C33.0585 82.2582 33.1572 82.9504 33.1572 83.3901V85.5694H23.8005V83.3901C23.8005 82.9504 23.899 82.2582 24.8103 82.1663L26.839 81.9496V80.0859H14.6875V81.9496L16.7169 82.1663C17.6259 82.2582 17.7248 82.9504 17.7248 83.3901V90.531C17.7248 90.9716 17.6259 91.6636 16.7169 91.7566L14.6875 91.9728V93.8343H26.839V91.9728L24.8103 91.7566C23.899 91.6636 23.8005 90.9716 23.8005 90.531V88.3537H33.1572V90.531C33.1572 90.9716 33.0585 91.6636 32.1474 91.7566L30.1176 91.9728V93.8343H42.2739V91.9728L40.2433 91.7566C39.3327 91.6636 39.2331 90.9716 39.2331 90.531V83.3901C39.2331 82.9504 39.3327 82.2582 40.2433 82.1663L42.2739 81.9496V80.0859H30.1176Z" fill="black"/>
</mask>
<g mask="url(#mask4)">
<path d="M8.12109 100.085H48.8434V73.8379H8.12109V100.085Z" fill="#767676"/>
</g>
<mask id="mask5" mask-type="alpha" maskUnits="userSpaceOnUse" x="56" y="19" width="42" height="49">
<path d="M89.1068 35.1748C87.9042 40.1618 86.9731 44.7888 85.3632 47.0319C83.7273 49.3083 81.5467 49.8056 80.063 49.9789C79.2939 50.0694 78.7358 50.1084 77.0689 50.1155C75.403 50.1084 74.8434 50.0694 74.0734 49.9789C72.5899 49.8056 70.4091 49.3083 68.7734 47.0319C67.163 44.7888 66.2321 40.1618 65.0296 35.1748C63.7767 29.9787 63.1679 26.6816 61.6262 19.5059C61.6262 19.5059 60.0884 19.5686 59.4079 19.6169C58.4868 19.6864 57.7658 19.7688 56.9805 19.8771C56.9805 19.8771 57.8662 34.6369 58.2661 40.8893C58.688 47.4676 59.4271 58.5488 60.1235 66.9179C60.1235 66.9179 61.4139 67.1324 63.5595 67.2598C65.8152 67.394 66.819 67.4101 66.819 67.4101C67.7482 63.7234 68.8951 58.6077 70.1993 56.4273C71.2575 54.6522 72.8911 54.4628 73.8154 54.3319C75.2686 54.1244 76.4946 54.0928 77.0638 54.1116H77.0689H77.0762C77.6422 54.0928 78.8679 54.1244 80.3224 54.3319C81.2472 54.4628 82.8786 54.6522 83.939 56.4273C85.2436 58.6077 86.3913 63.7234 87.3197 67.4101C87.3197 67.4101 88.3232 67.394 90.5769 67.2598C92.7227 67.1324 94.0141 66.9179 94.0141 66.9179C94.709 58.5488 95.449 47.4676 95.8713 40.8893C96.2714 34.6368 97.1572 19.8771 97.1572 19.8771C96.3707 19.7687 95.6508 19.6864 94.7299 19.6169C94.0482 19.5686 92.5116 19.5059 92.5116 19.5059C90.9669 26.6816 90.3602 29.9787 89.1068 35.1748H89.1068Z" fill="black"/>
</mask>
<g mask="url(#mask5)">
<path d="M50.8906 73.7137H103.242V13.2031H50.8906V73.7137Z" fill="#767676"/>
</g>
<mask id="mask6" mask-type="alpha" maskUnits="userSpaceOnUse" x="44" y="14" width="70" height="57">
<path fill-rule="evenodd" clip-rule="evenodd" d="M79.0609 70.9308L78.815 70.9306L78.5692 70.9308C72.432 70.9308 63.7444 70.6525 59.4584 69.868C59.4102 69.8592 59.3528 69.849 59.2869 69.8373C55.781 69.215 53.1604 68.1963 51.491 66.8082C49.9602 65.5356 48.7728 64.328 47.4305 60.359C46.3707 57.2234 45.6044 51.2277 45.4572 49.7937C45.4251 49.4839 45.3903 49.1585 45.3538 48.8168C45.0625 46.0915 44.664 42.3629 44.5951 37.108C44.545 33.2133 44.6394 30.036 44.8756 27.6646C45.2966 23.4441 46.7829 20.4099 49.4195 18.3886C51.8042 16.5605 54.7372 15.8681 57.2918 15.4318C60.0233 14.9649 64.7886 14.5762 67.8854 14.4477C70.533 14.2765 76.7867 14.1882 78.7168 14.1836H78.9149C80.8447 14.1882 87.0969 14.2765 89.7431 14.4477C92.8395 14.5762 97.6051 14.9649 100.338 15.4318C102.892 15.8681 105.825 16.5606 108.209 18.3886C110.846 20.4099 112.333 23.4442 112.755 27.6646C112.991 30.0554 113.085 33.2326 113.033 37.108C112.966 42.3553 112.567 46.0815 112.276 48.8022L112.275 48.8162C112.238 49.1581 112.203 49.4837 112.171 49.7937C112.024 51.2291 111.258 57.2289 110.2 60.359C108.855 64.3311 107.668 65.5375 106.138 66.8082C104.469 68.1963 101.849 69.215 98.3501 69.8361C98.2764 69.8492 98.2195 69.8593 98.1717 69.868C93.8843 70.6525 85.1972 70.9308 79.0609 70.9308H79.0609ZM77.9669 16.4171C75.2469 16.4171 71.1004 16.5129 68.4382 16.6959C64.543 16.8918 60.7893 17.2803 58.1394 17.7617C55.0676 18.3206 52.8275 19.3577 51.2912 20.9323C49.7598 22.5019 48.8359 24.7003 48.4667 27.6533C47.9953 31.4118 47.8886 38.604 48.2337 43.3587C48.7649 50.6739 49.401 55.2101 50.3606 58.5265C51.1876 61.3898 52.2082 63.2677 53.67 64.6156C56.1064 66.8626 59.4538 67.3698 61.4539 67.6728L61.5343 67.685C66.9023 68.4957 76.1168 68.5637 78.8131 68.5652C81.5089 68.5637 90.722 68.4957 96.0919 67.685L96.1723 67.6728C98.1724 67.3698 101.52 66.8625 103.956 64.6156C105.415 63.2704 106.436 61.3924 107.267 58.5265C108.224 55.2128 108.86 50.6767 109.391 43.3587C109.738 38.6048 109.631 31.4126 109.158 27.6532C108.789 24.7 107.865 22.5016 106.334 20.9323C104.798 19.3577 102.558 18.3206 99.4852 17.7617C96.8367 17.2802 93.083 16.8918 89.1864 16.6959C86.5241 16.5129 82.3783 16.4171 79.659 16.4171C79.3589 16.4171 79.076 16.4183 78.8131 16.4206C78.55 16.4183 78.267 16.4171 77.9668 16.4171L77.9669 16.4171Z" fill="white"/>
</mask>
<g mask="url(#mask6)">
<path d="M38.3086 77.0021H119.325V8.10742H38.3086V77.0021Z" fill="#767676"/>
</g>
</svg>
