<svg width="80" height="50" viewBox="0 0 80 50" fill="none" xmlns="http://www.w3.org/2000/svg">
<mask id="mask0_16622_112751" style="mask-type:alpha" maskUnits="userSpaceOnUse" x="62" y="40" width="18" height="10">
<path fill-rule="evenodd" clip-rule="evenodd" d="M68.5717 49.2514H68.5706L62.7217 49.2503V48.1037L63.9604 47.973C64.3336 47.9268 64.4905 47.6891 64.605 47.5155L67.7171 42.8181C67.8498 42.6178 67.8228 42.4593 67.7767 42.3616C67.7048 42.2092 67.5459 42.1167 67.426 42.1041L65.7714 41.9299V40.7812H72.7096C73.155 40.7812 73.3729 40.9076 73.681 41.3447L77.8962 47.3184C77.9129 47.3421 77.9296 47.3665 77.9467 47.3915C78.1095 47.6297 78.3122 47.9262 78.8369 47.9828L80.0003 48.1036V49.2492L72.0868 49.2503V48.1026L73.1216 48.0046C73.4246 47.9745 73.6483 47.8627 73.7199 47.7057C73.778 47.5784 73.7426 47.4221 73.6147 47.2412L73.1998 46.655H67.5845L67.1171 47.362C67.0304 47.4942 67.0131 47.6239 67.0671 47.7368C67.1367 47.8824 67.3224 47.9837 67.5637 48.0076L68.5717 48.1026V49.2503L68.5717 49.2514ZM70.3062 42.5482L68.5773 45.1563H72.145L70.3062 42.5482H70.3062Z" fill="white"/>
</mask>
<g mask="url(#mask0_16622_112751)">
<path d="M58.8564 53.1188H83.8683V36.916H58.8564V53.1188Z" fill="white"/>
</g>
<mask id="mask1_16622_112751" style="mask-type:alpha" maskUnits="userSpaceOnUse" x="48" y="40" width="15" height="10">
<path fill-rule="evenodd" clip-rule="evenodd" d="M48.4181 49.2859H48.417V49.2848V48.1343L49.5498 47.9997C49.9282 47.9569 50.1122 47.7091 50.1122 47.2422V42.7319C50.1122 42.1853 49.8139 42.0743 49.522 42.0378L48.521 41.9329V40.7793H56.8939C58.4956 40.7793 59.8442 41.1223 60.794 41.7713C61.873 42.5087 62.4201 43.6057 62.4201 45.0321C62.4201 46.4585 61.873 47.5556 60.794 48.2929C59.8442 48.9419 58.4956 49.285 56.8939 49.285L48.4181 49.2859ZM53.436 42.4064V47.6543L56.2768 47.6533C57.8922 47.6533 58.5216 46.9176 58.5216 45.0294C58.5216 43.1418 57.8922 42.4064 56.2768 42.4064H53.436Z" fill="white"/>
</mask>
<g mask="url(#mask1_16622_112751)">
<path d="M44.5273 53.1484H66.3098V36.9082H44.5273V53.1484Z" fill="white"/>
</g>
<mask id="mask2_16622_112751" style="mask-type:alpha" maskUnits="userSpaceOnUse" x="32" y="40" width="17" height="10">
<path d="M42.6538 40.7793V41.9324L43.8183 42.0665C44.3406 42.1234 44.3982 42.5517 44.3982 42.8237V42.8237V47.0808L39.792 41.1406C39.5847 40.8679 39.4048 40.7793 38.9093 40.7793V40.7793H32.9268V41.9325L34.0921 42.0665C34.6136 42.1234 34.6712 42.5517 34.6712 42.8237V42.8237V47.2421C34.6712 47.5147 34.6136 47.9429 34.0921 48.0004V48.0004L32.9268 48.1342V49.286H38.4994V48.1342L37.3342 48.0004C36.8126 47.9429 36.7554 47.5147 36.7554 47.2421V47.2421V42.9846L41.36 48.9249C41.5695 49.1984 41.7486 49.286 42.2433 49.286V49.286H42.2855H46.4818V42.8237C46.4818 42.5517 46.5391 42.1234 47.0616 42.0665V42.0665L48.2255 41.9324V40.7793H42.6538Z" fill="black"/>
</mask>
<g mask="url(#mask2_16622_112751)">
<path d="M29.1025 53.1484H52.0506V36.9082H29.1025V53.1484Z" fill="white"/>
</g>
<mask id="mask3_16622_112751" style="mask-type:alpha" maskUnits="userSpaceOnUse" x="17" y="40" width="15" height="10">
<path fill-rule="evenodd" clip-rule="evenodd" d="M24.5901 49.9935C22.0773 49.9935 20.2033 49.4526 19.0201 48.3859C17.8549 47.3354 17.6104 45.9901 17.6104 45.0465C17.6104 44.1034 17.8549 42.7586 19.0201 41.7085C20.2033 40.6422 22.0773 40.1016 24.5901 40.1016C27.103 40.1016 28.977 40.6422 30.1602 41.7085C31.3253 42.7586 31.5699 44.1034 31.5699 45.0465C31.5699 45.9901 31.3253 47.3354 30.1602 48.3859C28.977 49.4526 27.103 49.9935 24.5901 49.9935ZM24.5902 41.8655C22.4546 41.8655 21.5434 42.817 21.5434 45.047C21.5434 47.2776 22.4545 48.2294 24.5902 48.2294C26.7258 48.2294 27.6369 47.2776 27.6369 45.047C27.6369 42.817 26.7258 41.8655 24.5902 41.8655Z" fill="white"/>
</mask>
<g mask="url(#mask3_16622_112751)">
<path d="M13.7207 53.7911H35.4599V36.0996H13.7207V53.7911Z" fill="white"/>
</g>
<mask id="mask4_16622_112751" style="mask-type:alpha" maskUnits="userSpaceOnUse" x="0" y="40" width="18" height="10">
<path d="M9.63994 40.7793V41.9324L10.9081 42.0665C11.4773 42.1234 11.5389 42.5517 11.5389 42.8237V42.8237V44.1721H5.69337V42.8237C5.69337 42.5517 5.75488 42.1234 6.32422 42.0665V42.0665L7.59165 41.9324V40.7793H0V41.9324L1.26786 42.0665C1.83576 42.1234 1.89755 42.5517 1.89755 42.8237V42.8237V47.2421C1.89755 47.5147 1.83575 47.9429 1.26786 48.0004V48.0004L0 48.1342V49.286H7.59165V48.1342L6.32422 48.0004C5.75489 47.9429 5.69337 47.5147 5.69337 47.2421V47.2421V45.8949H11.5389V47.2421C11.5389 47.5147 11.4773 47.9429 10.9081 48.0004V48.0004L9.63994 48.1342V49.286H17.2346V48.1342L15.966 48.0004C15.3971 47.9429 15.3349 47.5147 15.3349 47.2421V47.2421V42.8237C15.3349 42.5517 15.3971 42.1234 15.966 42.0665V42.0665L17.2346 41.9324V40.7793H9.63994Z" fill="black"/>
</mask>
<g mask="url(#mask4_16622_112751)">
<path d="M-4.10352 53.1484H21.3378V36.9082H-4.10352V53.1484Z" fill="white"/>
</g>
<mask id="mask5_16622_112751" style="mask-type:alpha" maskUnits="userSpaceOnUse" x="26" y="3" width="26" height="30">
<path d="M46.4938 12.988C45.7425 16.0737 45.1608 18.9366 44.155 20.3245C43.133 21.733 41.7706 22.0407 40.8437 22.1479C40.3632 22.2039 40.0145 22.2281 38.9731 22.2325C37.9323 22.2281 37.5827 22.2039 37.1017 22.1479C36.1749 22.0407 34.8124 21.733 33.7905 20.3245C32.7844 18.9366 32.2028 16.0737 31.4515 12.988C30.6688 9.77298 30.2884 7.73294 29.3253 3.29297C29.3253 3.29297 28.3645 3.33175 27.9394 3.36167C27.3639 3.4047 26.9135 3.45563 26.4229 3.52269C26.4229 3.52269 26.9762 12.6552 27.2261 16.5238C27.4896 20.5941 27.9514 27.4505 28.3865 32.6288C28.3865 32.6288 29.1926 32.7616 30.5331 32.8404C31.9423 32.9234 32.5695 32.9334 32.5695 32.9334C33.15 30.6523 33.8665 27.487 34.6813 26.1379C35.3425 25.0395 36.363 24.9224 36.9405 24.8414C37.8484 24.713 38.6144 24.6934 38.9699 24.705H38.9731H38.9777C39.3313 24.6934 40.0971 24.713 41.0058 24.8414C41.5835 24.9224 42.6028 25.0395 43.2652 26.1379C44.0803 27.487 44.7973 30.6523 45.3774 32.9334C45.3774 32.9334 46.0042 32.9234 47.4123 32.8404C48.7529 32.7616 49.5597 32.6288 49.5597 32.6288C49.9939 27.4505 50.4561 20.5941 50.72 16.5238C50.9699 12.6552 51.5233 3.52269 51.5233 3.52269C51.032 3.45563 50.5822 3.40469 50.0069 3.36167C49.581 3.33176 48.621 3.29297 48.621 3.29297C47.656 7.73294 47.2769 9.77298 46.4938 12.988H46.4938Z" fill="black"/>
</mask>
<g mask="url(#mask5_16622_112751)">
<path d="M22.6201 36.835H55.3269V-0.605469H22.6201V36.835Z" fill="white"/>
</g>
<mask id="mask6_16622_112751" style="mask-type:alpha" maskUnits="userSpaceOnUse" x="18" y="0" width="44" height="36">
<path fill-rule="evenodd" clip-rule="evenodd" d="M40.2175 35.1119L40.0639 35.1118L39.9103 35.1119C36.0761 35.1119 30.6485 34.9397 27.9708 34.4543C27.9407 34.4489 27.9048 34.4426 27.8637 34.4353C25.6733 34.0503 24.0361 33.42 22.9932 32.5611C22.0368 31.7736 21.295 31.0265 20.4563 28.5707C19.7942 26.6305 19.3155 22.9208 19.2236 22.0335C19.2035 21.8418 19.1818 21.6405 19.1589 21.429C18.977 19.7428 18.728 17.4357 18.6849 14.1843C18.6536 11.7745 18.7126 9.80859 18.8602 8.34128C19.1232 5.72986 20.0518 3.85247 21.699 2.60182C23.1888 1.47072 25.0212 1.04226 26.6172 0.772348C28.3237 0.483439 31.3008 0.242968 33.2356 0.163385C34.8897 0.0574735 38.7967 0.00288043 40.0025 0H40.1263C41.3319 0.00286917 45.238 0.0574622 46.8912 0.163385C48.8256 0.242957 51.803 0.483428 53.5106 0.772348C55.1062 1.0423 56.9383 1.47075 58.428 2.60182C60.0753 3.85251 61.0042 5.72991 61.2676 8.34128C61.4155 9.82056 61.4741 11.7865 61.4419 14.1843C61.3998 17.431 61.1507 19.7366 60.9689 21.42L60.9679 21.4286C60.9451 21.6402 60.9233 21.8416 60.9032 22.0335C60.8112 22.9216 60.3324 26.634 59.6715 28.5707C58.8312 31.0284 58.0896 31.7749 57.1336 32.5611C56.0913 33.42 54.4544 34.0503 52.2684 34.4346C52.2223 34.4426 52.1868 34.4489 52.157 34.4543C49.4784 34.9397 44.0511 35.1119 40.2175 35.1119H40.2175ZM39.5355 1.37981C37.8361 1.37981 35.2457 1.43906 33.5825 1.55229C31.1489 1.6735 28.8038 1.91386 27.1483 2.21175C25.2291 2.55756 23.8297 3.19926 22.8698 4.17355C21.9131 5.14468 21.3359 6.50494 21.1052 8.33207C20.8107 10.6576 20.744 15.1078 20.9596 18.0497C21.2915 22.5759 21.6889 25.3826 22.2885 27.4347C22.8051 29.2063 23.4428 30.3683 24.356 31.2023C25.8781 32.5925 27.9694 32.9064 29.219 33.0939L29.2692 33.1014C32.6229 33.6031 38.3797 33.6451 40.0642 33.6461C41.7484 33.6451 47.5043 33.6031 50.8591 33.1014L50.9094 33.0939C52.1589 32.9064 54.2503 32.5925 55.7724 31.2023C56.6838 30.3699 57.3218 29.2079 57.8409 27.4347C58.4389 25.3844 58.8357 22.5776 59.1677 18.0497C59.3843 15.1083 59.3177 10.6581 59.0222 8.33207C58.7914 6.50478 58.2144 5.14451 57.258 4.17355C56.2982 3.19925 54.8986 2.55754 52.9791 2.21175C51.3245 1.91384 48.9793 1.67349 46.5449 1.55229C44.8816 1.43905 42.2915 1.37981 40.5926 1.37981C40.4052 1.37981 40.2284 1.38053 40.0642 1.38199C39.8998 1.38053 39.723 1.37981 39.5355 1.37981H39.5355Z" fill="white"/>
</mask>
<g mask="url(#mask6_16622_112751)">
<path d="M14.7568 38.8703H65.3717V-3.75781H14.7568V38.8703Z" fill="white"/>
</g>
</svg>
