<svg width="100" height="28" viewBox="0 0 100 28" fill="none" xmlns="http://www.w3.org/2000/svg">
<rect x="87.0842" y="21.7734" width="8.61061" height="2.01811" fill="white"/>
<path fill-rule="evenodd" clip-rule="evenodd" d="M86.0072 25.8092H96.7709V27.8273H81.8354V22.714L81.9707 21.5032L82.1052 20.5621L82.5096 19.6203L83.1815 18.9476L83.854 18.4094L84.7966 18.0052L85.8732 17.7367L87.084 17.6016H96.7709V19.7542H88.1601L87.084 20.024L86.6793 20.2923L86.4104 20.6966L86.1413 21.773L86.0072 22.4456" fill="white"/>
<path fill-rule="evenodd" clip-rule="evenodd" d="M79.6833 22.7141V21.5033L79.4146 20.5621L79.0109 19.6204L78.3382 18.9477L77.6654 18.4096L76.7234 18.0052L75.6472 17.7367L74.4364 17.6016H64.4802V27.8273H68.6509V19.7541C76.9933 19.4865 75.2304 19.6904 75.5127 27.8273H79.6834V22.7141" fill="white"/>
<path fill-rule="evenodd" clip-rule="evenodd" d="M58.1575 22.7129V27.8262H62.3286V19.2148" fill="white"/>
<path fill-rule="evenodd" clip-rule="evenodd" d="M58.1575 17.6016V21.3688L62.5971 17.6016" fill="white"/>
<path fill-rule="evenodd" clip-rule="evenodd" d="M53.4481 24.5983L53.9855 24.4639L54.5243 24.0603L55.0619 23.7911L55.4655 23.3874L55.8691 22.8493L56.2725 21.2348L56.1382 20.5621L55.6008 19.216L55.0618 18.6778L53.7163 17.8713L52.9092 17.7367L51.9675 17.6016H40.4978V27.8273H44.8032V19.7541H50.7566L51.1608 19.8887C51.5254 20.2461 52.0248 20.668 51.9675 21.2348V21.5033L51.6983 22.042L51.4294 22.3111L51.1608 22.4456L50.7566 22.7141H46.0139L50.7566 27.8273H56.4072L53.4481 24.5983" fill="white"/>
<path fill-rule="evenodd" clip-rule="evenodd" d="M38.4806 22.7153C38.2282 16.2076 32.2883 17.8278 27.5821 17.6028L26.3712 17.7379L25.2949 18.0064L24.3532 18.4108L23.6804 18.949L23.1421 19.6217L22.604 20.5633L22.4694 21.5045L22.335 22.7153V27.8286H26.6403L26.5057 22.4469L26.6403 21.7742L26.9093 20.6979L27.1784 20.2935L27.5821 20.0253L28.6583 19.7554H29.3312C31.9687 19.8171 34.3034 19.1303 34.1745 22.7153H27.5821V24.8687H34.1745V27.8286H38.4806V22.7153" fill="white"/>
<path fill-rule="evenodd" clip-rule="evenodd" d="M10.0908 20.1582V27.827H13.4543V21.1" fill="white"/>
<path fill-rule="evenodd" clip-rule="evenodd" d="M7.53418 19.7541V27.8273H3.229V17.6016H14.9347L16.1455 17.7367L17.2218 18.0052L18.1637 18.4096L18.9709 18.9477L19.5091 19.6204L19.9127 20.5621L20.1817 21.5033V27.8273H16.0109C16.1875 18.352 16.725 19.8214 7.53419 19.7541" fill="white"/>
<path fill-rule="evenodd" clip-rule="evenodd" d="M50.0848 15.4508L100 14.6436V14.2399L50.0848 13.2988L0 14.2399V14.6436" fill="white"/>
<path fill-rule="evenodd" clip-rule="evenodd" d="M84.2581 5.89744L86.4108 2.56754L88.5635 5.89744H84.2581M96.5022 9.53091L95.6947 9.26119L95.4257 8.72306L92.4656 4.28383L90.9852 2.02958L90.4477 1.223L90.3124 1.08784L90.1778 0.684866L89.6398 0.415153L89.2368 0.28125H81.0292V1.76116L82.9121 2.02959L83.1819 2.16413L83.3164 2.29867L83.451 2.56774L83.3164 2.972L79.5487 8.99199L79.2803 9.26122L78.8766 9.53093L77.396 9.66483V11.1454H84.258V9.66483L83.1819 9.53093H82.7781L82.5098 9.26122V8.99199L82.6437 8.72308L83.1819 7.78196H89.7744C91.2095 9.51266 90.0671 9.63676 88.429 9.66483V11.1454H97.8475V9.66483L96.5022 9.53091Z" fill="white"/>
<path fill-rule="evenodd" clip-rule="evenodd" d="M70.4005 9.12659H66.7679V2.43375H71.0731L71.7451 2.56765L72.2843 2.83672L72.5533 3.24033L72.9568 3.64474L73.0915 4.28375L73.2259 4.95643C73.2604 7.49387 73.254 8.82448 70.4005 9.12659M71.2075 0.28125H60.4436V1.76116L61.6545 1.8957L62.0579 2.02959L62.3278 2.16413L62.4619 2.43384V8.85825L62.1925 9.39639L61.7892 9.53092L60.3091 9.66483V11.1454H71.2075L73.8984 10.8756L75.1086 10.4727L76.1848 9.93453L76.5893 9.53092C77.6452 8.62909 77.9851 7.78883 78.2038 6.43577C78.5534 1.87051 75.281 0.572773 71.2075 0.28125" fill="white"/>
<path fill-rule="evenodd" clip-rule="evenodd" d="M52.6395 1.76119L54.1201 2.02961L54.5243 2.16412L54.7927 2.29868V8.32007L49.1421 0.819404L48.7385 0.41511H48.4693L48.0656 0.28125H40.4978V1.76119L41.9776 2.02961L42.3813 2.16412L42.5159 2.29868L42.6505 2.70229V8.85825L42.3813 9.39641L41.9776 9.53092L40.4978 9.66478V11.1454H47.5276V9.66478L46.0139 9.53092L45.6103 9.39641L45.3413 8.85825V3.10591L51.0255 10.7411L51.2947 10.8756L51.4292 11.0109L51.8328 11.1454H57.4836V2.70229L57.6182 2.29868L57.7526 2.16412L58.1561 2.02961L59.636 1.76119V0.28125H52.6395" fill="white"/>
<path fill-rule="evenodd" clip-rule="evenodd" d="M31.2138 9.39701C28.6792 9.65277 27.2757 8.25129 27.3121 5.76371C27.0886 3.4086 28.9322 1.84516 31.2138 2.03021C33.775 1.98323 35.0511 3.2032 35.1156 5.76371C34.8569 8.43697 34.0939 9.50621 31.2138 9.39701M31.214 0.0106646C29.17 -0.0733605 26.367 0.331688 24.6215 1.49072C23.3356 2.29441 22.0939 4.23261 22.3342 5.76237C22.2348 10.341 27.5219 11.762 31.214 11.5476H32.4248L33.6356 11.4131L34.5776 11.2785L35.5193 11.0101L37.1345 10.472L37.6726 10.0684C39.3691 9.01516 39.9235 7.73841 40.0943 5.76238C39.8869 3.67635 39.43 2.58097 37.6726 1.49073L37.1345 1.08712L35.5193 0.548971L34.5776 0.280539L33.6356 0.146L32.4248 0.0106646H31.214Z" fill="white"/>
<path fill-rule="evenodd" clip-rule="evenodd" d="M13.1855 1.76116L14.6654 2.02959L15.069 2.16413L15.2035 2.29867L15.338 2.70229V4.68681H8.74495V2.29867L9.01467 2.16413L9.41829 2.02959L10.8982 1.76116V0.28125H2.15234V1.76116L3.6324 2.02959L4.03604 2.16413L4.17057 2.29867L4.3051 2.70229V8.85826L4.03604 9.3964L3.6324 9.53093L2.15234 9.66483V11.1454H10.8982V9.66483L9.41829 9.53093L9.01467 9.3964L8.74495 9.12669V6.83941H15.338C15.2378 9.11818 15.9161 9.67462 13.1855 9.66483V11.1454H21.9305V9.66483L20.4506 9.53093L20.047 9.3964L19.7779 9.12669V2.29867L20.047 2.16413L20.4506 2.02959L21.9305 1.76116V0.28125H13.1855V1.76116" fill="white"/>
</svg>
