<svg width="100" height="33" viewBox="0 0 100 33" fill="none" xmlns="http://www.w3.org/2000/svg">
<path d="M86.2545 26.7279H85.0461V29.0909C85.0461 29.3653 85.0973 29.5613 85.1996 29.6796C85.302 29.7971 85.4652 29.8564 85.6883 29.8564C85.7714 29.8564 85.8618 29.8476 85.9569 29.83C86.0536 29.8124 86.1393 29.786 86.2168 29.7508L86.2455 30.4898C86.1369 30.5281 86.0169 30.5586 85.8857 30.5809C85.7546 30.6033 85.6187 30.6144 85.478 30.6144C85.0493 30.6144 84.7214 30.4961 84.4943 30.2594C84.2671 30.0227 84.1536 29.6676 84.1536 29.1941V26.7279H83.2803V25.9888H84.1536V24.6836H85.0461V25.9888H86.2545V26.7279Z" fill="white"/>
<path d="M79.546 25.988C79.559 26.1032 79.5685 26.2327 79.5749 26.3767C79.5812 26.5207 79.5845 26.6408 79.5845 26.7365H79.6132C79.6709 26.6149 79.7492 26.5015 79.8483 26.3959C79.9475 26.2904 80.0611 26.1976 80.1891 26.1177C80.317 26.0378 80.4577 25.9752 80.6113 25.9305C80.765 25.8858 80.9248 25.8633 81.0911 25.8633C81.3856 25.8633 81.6382 25.9129 81.8492 26.0119C82.0604 26.1111 82.2363 26.2441 82.3771 26.4104C82.5178 26.5767 82.6218 26.7718 82.6891 26.9955C82.7561 27.2197 82.7897 27.4595 82.7897 27.7154V30.5368H81.8877V28.0129C81.8877 27.8274 81.8732 27.6516 81.8445 27.4851C81.8156 27.3188 81.7628 27.1717 81.6861 27.0437C81.6094 26.9156 81.5038 26.8133 81.3695 26.7365C81.2351 26.6599 81.0623 26.6214 80.8513 26.6214C80.4929 26.6214 80.2002 26.7574 79.9732 27.0292C79.7459 27.3012 79.6323 27.6643 79.6323 28.1185V30.5368H78.7303V26.9669C78.7303 26.8453 78.7271 26.6886 78.7208 26.4967C78.7144 26.3046 78.7048 26.1352 78.6919 25.988H79.546Z" fill="white"/>
<path fill-rule="evenodd" clip-rule="evenodd" d="M77.7711 28.224V28.3777C77.7711 28.4288 77.7678 28.4801 77.7614 28.5312H74.1435C74.15 28.7215 74.1931 28.9013 74.2731 29.0701C74.353 29.238 74.4603 29.3846 74.5945 29.5077C74.7289 29.6323 74.8841 29.7292 75.0599 29.7988C75.2359 29.8691 75.4231 29.9035 75.6214 29.9035C75.9285 29.9035 76.1941 29.8363 76.418 29.7019C76.6419 29.5676 76.8178 29.4046 76.9457 29.2126L77.5791 29.7213C77.336 30.0435 77.0497 30.2811 76.7203 30.4337C76.3908 30.5857 76.0245 30.6617 75.6214 30.6617C75.2759 30.6617 74.9561 30.604 74.6617 30.489C74.3675 30.3736 74.1149 30.2123 73.9036 30.0043C73.6925 29.7963 73.5262 29.5453 73.4046 29.2509C73.283 28.9566 73.2222 28.6303 73.2222 28.2722C73.2222 27.9202 73.2815 27.5955 73.3998 27.2981C73.519 27.0005 73.6837 26.7463 73.8955 26.535C74.1068 26.3239 74.3571 26.1593 74.6458 26.0408C74.9344 25.9225 75.2447 25.8633 75.5782 25.8633C75.9117 25.8633 76.2148 25.9177 76.4876 26.0265C76.7594 26.1353 76.9906 26.2919 77.1793 26.4967C77.3688 26.7013 77.5144 26.9493 77.6176 27.2404C77.72 27.5316 77.7711 27.8595 77.7711 28.224H77.7711ZM76.8497 27.859C76.8433 27.6797 76.8129 27.5118 76.7584 27.3551C76.7041 27.1983 76.6242 27.0624 76.5184 26.9472C76.4129 26.8321 76.2819 26.7409 76.1251 26.6737C75.9684 26.6066 75.7844 26.573 75.5733 26.573C75.3813 26.573 75.2006 26.6066 75.031 26.6737C74.8614 26.7409 74.7143 26.8321 74.5897 26.9472C74.4648 27.0624 74.3624 27.1983 74.2825 27.3551C74.2026 27.5118 74.1562 27.6797 74.1434 27.859H76.8497Z" fill="white"/>
<path d="M66.7303 26.1177C66.9832 25.9481 67.2822 25.8633 67.6276 25.8633C67.9347 25.8633 68.2114 25.9336 68.4578 26.0745C68.704 26.2152 68.8977 26.4487 69.0384 26.775C69.1919 26.4807 69.4061 26.2552 69.6812 26.0985C69.9563 25.9415 70.2571 25.8633 70.5834 25.8633C70.8768 25.8633 71.1303 25.9129 71.3415 26.0119C71.5527 26.1111 71.7286 26.2441 71.8693 26.4104C72.0095 26.5767 72.114 26.7718 72.1812 26.9955C72.2484 27.2197 72.2821 27.4595 72.2821 27.7154V30.5368H71.3801V28.0129C71.3801 27.8274 71.364 27.6516 71.332 27.4851C71.2999 27.3188 71.2457 27.1717 71.1688 27.0437C71.092 26.9156 70.9896 26.8133 70.8616 26.7365C70.7336 26.6599 70.5707 26.6214 70.3723 26.6214C70.1675 26.6214 69.9917 26.6646 69.8446 26.7509C69.6972 26.8372 69.5765 26.9493 69.4846 27.0869C69.3918 27.2244 69.3246 27.3796 69.283 27.5523C69.2416 27.7251 69.2207 27.9011 69.2207 28.0801V30.5368H68.3186V27.8307C68.3186 27.6516 68.3026 27.4884 68.2706 27.3413C68.2385 27.194 68.1843 27.0676 68.1075 26.9621C68.0306 26.8565 67.9316 26.7734 67.81 26.7126C67.6884 26.6518 67.5381 26.6214 67.3589 26.6214C67.0263 26.6214 66.7496 26.7574 66.5288 27.0292C66.3082 27.3012 66.1978 27.6643 66.1978 28.1185V30.5368H65.2956V26.9669C65.2956 26.8453 65.2925 26.6886 65.2861 26.4967C65.2797 26.3046 65.27 26.1352 65.2573 25.988H66.1113C66.1241 26.1032 66.1337 26.2327 66.1402 26.3767C66.1457 26.5207 66.1498 26.6408 66.1498 26.7365H66.1784C66.2937 26.4934 66.4777 26.287 66.7303 26.1177V26.1177Z" fill="white"/>
<path fill-rule="evenodd" clip-rule="evenodd" d="M60.4007 32.84H59.4985V25.988H60.3813V26.6982H60.4101C60.5573 26.4551 60.7725 26.2552 61.0563 26.0985C61.3403 25.9415 61.6706 25.8633 62.0471 25.8633C62.3855 25.8633 62.6933 25.924 62.971 26.0456C63.2485 26.1672 63.4882 26.3368 63.689 26.5542C63.8898 26.7718 64.0449 27.0261 64.1537 27.3171C64.2616 27.6083 64.3159 27.9201 64.3159 28.2528C64.3159 28.5856 64.2616 28.899 64.1537 29.1932C64.0449 29.4876 63.8922 29.7435 63.6938 29.9611C63.4954 30.1786 63.2565 30.3496 62.9765 30.4745C62.695 30.5992 62.3791 30.6617 62.0288 30.6617C61.7025 30.6617 61.3962 30.5913 61.1092 30.4505C60.822 30.3098 60.5958 30.1114 60.4294 29.8555H60.4007L60.4007 32.84ZM63.3952 28.2526C63.3952 28.0415 63.3631 27.8367 63.2991 27.6384C63.2351 27.44 63.1391 27.2641 63.0111 27.1106C62.8832 26.9571 62.7249 26.8355 62.5361 26.7461C62.3474 26.6564 62.1283 26.6116 61.8789 26.6116C61.6485 26.6116 61.439 26.6564 61.2502 26.7461C61.0614 26.8355 60.8999 26.9571 60.7657 27.1106C60.6313 27.2641 60.5272 27.44 60.4537 27.6384C60.3801 27.8367 60.3433 28.0447 60.3433 28.2621C60.3433 28.4798 60.3801 28.6877 60.4537 28.886C60.5272 29.0843 60.6313 29.2587 60.7657 29.409C60.8998 29.5593 61.0614 29.6794 61.2502 29.7689C61.439 29.8583 61.6485 29.9033 61.8789 29.9033C62.1283 29.9033 62.3474 29.8568 62.5361 29.7641C62.7249 29.6714 62.8832 29.5483 63.0111 29.3946C63.1391 29.2411 63.2351 29.0652 63.2991 28.8669C63.3631 28.6685 63.3952 28.4638 63.3952 28.2526V28.2526Z" fill="white"/>
<path fill-rule="evenodd" clip-rule="evenodd" d="M58.3575 24.3471C58.3575 24.5135 58.2982 24.651 58.1817 24.7597C58.0639 24.8685 57.9224 24.923 57.7575 24.923C57.593 24.923 57.453 24.867 57.3395 24.755C57.2251 24.643 57.1675 24.5071 57.1675 24.3471C57.1675 24.1807 57.2251 24.0416 57.3395 23.9297C57.453 23.8176 57.593 23.7617 57.7575 23.7617C57.9224 23.7617 58.0639 23.8176 58.1817 23.9297C58.2982 24.0416 58.3575 24.1807 58.3575 24.3471ZM58.2136 30.534H57.3117V25.9853H58.2136V30.534Z" fill="white"/>
<path d="M55.2107 30.5391C55.198 30.4238 55.1876 30.2943 55.1821 30.1502C55.1755 30.0065 55.1724 29.8864 55.1724 29.7905H55.1533C55.038 30.0336 54.8445 30.2399 54.5725 30.4094C54.2999 30.579 53.9984 30.6638 53.6658 30.6638C53.3714 30.6638 53.1164 30.6158 52.9028 30.5198C52.6876 30.4238 52.5125 30.2912 52.3748 30.1216C52.2366 29.9521 52.1344 29.7554 52.0671 29.5314C52 29.3075 51.9663 29.0676 51.9663 28.8115V25.9902H52.8684V28.5045C52.8684 28.6901 52.8828 28.8676 52.9124 29.037C52.9412 29.2066 52.9939 29.3554 53.0707 29.4834C53.1474 29.6113 53.253 29.7138 53.3874 29.7906C53.5218 29.8673 53.6947 29.9056 53.9057 29.9056C54.2703 29.9056 54.5645 29.7696 54.7885 29.4978C55.0125 29.2259 55.1244 28.8628 55.1244 28.4085V25.9903H56.0265V29.5602C56.0265 29.6816 56.0297 29.8384 56.0361 30.0305C56.0426 30.2223 56.0514 30.3918 56.0649 30.5392L55.2107 30.5391Z" fill="white"/>
<path fill-rule="evenodd" clip-rule="evenodd" d="M49.8164 29.8555C49.6492 30.1114 49.4204 30.3098 49.1293 30.4505C48.8383 30.5913 48.5296 30.6617 48.2033 30.6617C47.8513 30.6617 47.5348 30.5992 47.2531 30.4745C46.9717 30.3496 46.7318 30.1786 46.5343 29.9611C46.335 29.7435 46.1815 29.4876 46.0729 29.1932C45.9639 28.899 45.9097 28.5856 45.9097 28.2528C45.9097 27.9201 45.9639 27.6083 46.0729 27.3171C46.1815 27.0261 46.3367 26.7718 46.5383 26.5542C46.7398 26.3368 46.9813 26.1672 47.2628 26.0456C47.5443 25.924 47.8546 25.8633 48.1937 25.8633C48.5648 25.8633 48.8927 25.9415 49.1773 26.0985C49.4621 26.2552 49.682 26.4551 49.8347 26.6982H49.8642V25.988H50.7367V32.84H49.8347V29.8556L49.8164 29.8555ZM46.8506 28.2526C46.8506 28.4638 46.8819 28.6685 46.9459 28.8669C47.0098 29.0652 47.1058 29.2411 47.2338 29.3946C47.3618 29.5483 47.5185 29.6714 47.704 29.7641C47.8896 29.8568 48.1072 29.9033 48.3565 29.9033C48.5869 29.9033 48.7965 29.8583 48.9852 29.7689C49.174 29.6794 49.3354 29.5593 49.4698 29.409C49.6043 29.2587 49.7081 29.0843 49.7825 28.886C49.8552 28.6877 49.8921 28.4798 49.8921 28.2621C49.8921 28.0447 49.8552 27.8367 49.7825 27.6384C49.7081 27.44 49.6042 27.2641 49.4698 27.1106C49.3354 26.9571 49.174 26.8355 48.9852 26.7461C48.7965 26.6564 48.5869 26.6116 48.3565 26.6116C48.1072 26.6116 47.8896 26.6564 47.704 26.7461C47.5185 26.8355 47.3618 26.9571 47.2338 27.1106C47.1058 27.2641 47.0098 27.44 46.9459 27.6384C46.8819 27.8367 46.8506 28.0415 46.8506 28.2526V28.2526Z" fill="white"/>
<path d="M41.7367 29.6902H45.2874V30.5347H40.7866V23.7402H45.1436V24.5751H41.7367V26.6097H44.9419V27.4253H41.7367L41.7367 29.6902Z" fill="white"/>
<path d="M35.4321 26.4967C35.4257 26.3046 35.4161 26.1353 35.4033 25.988H36.2573C36.2701 26.1032 36.2798 26.236 36.2862 26.3863C36.2917 26.5366 36.2958 26.6599 36.2958 26.7559H36.3247C36.4526 26.4871 36.6389 26.2711 36.886 26.1081C37.1323 25.9449 37.4091 25.8633 37.7161 25.8633C37.856 25.8633 37.9753 25.8761 38.0712 25.9017L38.0328 26.7365C37.9048 26.7046 37.7672 26.6886 37.6201 26.6886C37.4027 26.6886 37.2138 26.7287 37.0539 26.8086C36.894 26.8885 36.7612 26.9955 36.6557 27.13C36.55 27.2644 36.4718 27.4197 36.4205 27.5955C36.3694 27.7714 36.3438 27.9553 36.3438 28.1473V30.5368H35.4416V26.9669C35.4416 26.8453 35.4385 26.6886 35.4321 26.4967H35.4321Z" fill="white"/>
<path fill-rule="evenodd" clip-rule="evenodd" d="M34.4815 28.224V28.3777C34.4815 28.4288 34.4775 28.4801 34.4719 28.5312H30.854C30.8595 28.7215 30.9036 28.9013 30.9835 29.0701C31.0635 29.238 31.1707 29.3846 31.305 29.5077C31.4394 29.6323 31.5938 29.7292 31.7704 29.7988C31.9464 29.8691 32.1336 29.9035 32.3318 29.9035C32.639 29.9035 32.9046 29.8363 33.1284 29.7019C33.3523 29.5676 33.5274 29.4046 33.6562 29.2126L34.2887 29.7213C34.0456 30.0435 33.7593 30.2811 33.4307 30.4337C33.1012 30.5857 32.7349 30.6617 32.3318 30.6617C31.9864 30.6617 31.6664 30.604 31.3722 30.489C31.0771 30.3736 30.8243 30.2123 30.614 30.0043C30.403 29.7963 30.2366 29.5453 30.115 29.2509C29.9927 28.9566 29.9326 28.6303 29.9326 28.2722C29.9326 27.9202 29.991 27.5955 30.1103 27.2981C30.2286 27.0005 30.394 26.7463 30.6061 26.535C30.8172 26.3239 31.0675 26.1593 31.3561 26.0408C31.644 25.9225 31.9552 25.8633 32.2887 25.8633C32.6221 25.8633 32.9244 25.9177 33.1971 26.0265C33.4699 26.1353 33.701 26.2919 33.8897 26.4967C34.0793 26.7013 34.2249 26.9493 34.3271 27.2404C34.4295 27.5316 34.4815 27.8595 34.4815 28.224H34.4815ZM33.561 27.859C33.5545 27.6797 33.5233 27.5118 33.4697 27.3551C33.4154 27.1983 33.3354 27.0624 33.2299 26.9472C33.1235 26.8321 32.9923 26.7409 32.8364 26.6737C32.6789 26.6066 32.4957 26.573 32.2847 26.573C32.0918 26.573 31.9111 26.6066 31.7416 26.6737C31.5728 26.7409 31.4249 26.8321 31.301 26.9472C31.1754 27.0624 31.0738 27.1983 30.993 27.3551C30.9131 27.5118 30.8675 27.6797 30.8547 27.859H33.561Z" fill="white"/>
<path d="M23.4349 25.9902L24.461 29.4642H24.4809L25.5653 25.9902H26.5154L27.619 29.4642H27.6383L28.6651 25.9902H29.6152L28.1077 30.5391H27.168L26.0444 27.1225H26.0253L24.9129 30.5391H23.9724L22.4561 25.9902H23.4349Z" fill="white"/>
<path fill-rule="evenodd" clip-rule="evenodd" d="M22.2168 28.2528C22.2168 28.6047 22.1544 28.9279 22.0297 29.2221C21.9048 29.5165 21.7321 29.7706 21.5115 29.9851C21.2907 30.1994 21.03 30.3657 20.7294 30.484C20.4286 30.6025 20.1055 30.6617 19.76 30.6617C19.4146 30.6617 19.0915 30.6025 18.7908 30.484C18.4901 30.3657 18.2309 30.1994 18.0135 29.9851C17.796 29.7706 17.6248 29.5165 17.5 29.2221C17.3753 28.9279 17.313 28.6047 17.313 28.2528C17.313 27.9011 17.3753 27.5795 17.5 27.2883C17.6248 26.9973 17.796 26.7463 18.0135 26.535C18.2309 26.3239 18.4901 26.1593 18.7908 26.0408C19.0915 25.9225 19.4146 25.8633 19.76 25.8633C20.1055 25.8633 20.4286 25.9225 20.7294 26.0408C21.03 26.1593 21.2907 26.324 21.5115 26.535C21.7321 26.7463 21.9048 26.9973 22.0297 27.2883C22.1544 27.5795 22.2168 27.9011 22.2168 28.2528ZM21.2765 28.2556C21.2765 28.0389 21.243 27.8318 21.1758 27.6334C21.1079 27.4359 21.0103 27.2623 20.8815 27.112C20.7536 26.9625 20.5944 26.8425 20.4056 26.7538C20.2161 26.6641 19.9994 26.6194 19.7555 26.6194C19.5116 26.6194 19.2949 26.6641 19.1054 26.7538C18.9158 26.8425 18.7574 26.9625 18.6287 27.112C18.5008 27.2623 18.4024 27.4359 18.3352 27.6334C18.268 27.8318 18.2344 28.0389 18.2344 28.2556C18.2344 28.4723 18.268 28.6803 18.3352 28.8777C18.4024 29.0753 18.5008 29.2512 18.6287 29.404C18.7574 29.5567 18.9158 29.6783 19.1054 29.7678C19.2949 29.8565 19.5116 29.9015 19.7555 29.9015C19.9994 29.9015 20.2161 29.8565 20.4056 29.7678C20.5944 29.6784 20.7536 29.5567 20.8815 29.404C21.0103 29.2512 21.1079 29.0753 21.1758 28.8777C21.243 28.6803 21.2765 28.4723 21.2765 28.2556Z" fill="white"/>
<path fill-rule="evenodd" clip-rule="evenodd" d="M12.9565 23.7402H15.0294C15.3941 23.7402 15.7267 23.777 16.0275 23.8507C16.3282 23.9241 16.584 24.0376 16.7952 24.1912C17.0063 24.3449 17.1695 24.54 17.2846 24.7766C17.3997 25.0134 17.4573 25.2981 17.4573 25.6308C17.4573 25.9697 17.395 26.2609 17.2702 26.504C17.1454 26.7472 16.9727 26.9456 16.752 27.0991C16.5313 27.2526 16.2689 27.3662 15.9651 27.4398C15.6611 27.5133 15.3333 27.5501 14.9814 27.5501H13.9065V30.5347H12.9566L12.9565 23.7402ZM13.907 26.7421H14.9147C15.145 26.7421 15.3578 26.7214 15.5529 26.6798C15.748 26.6382 15.9159 26.5743 16.0567 26.4879C16.1974 26.4016 16.3063 26.288 16.383 26.1472C16.4597 26.0065 16.4982 25.8337 16.4982 25.629C16.4982 25.4242 16.4582 25.2531 16.3782 25.1157C16.2982 24.978 16.1894 24.866 16.0519 24.7797C15.9144 24.6933 15.7497 24.6325 15.5576 24.5973C15.3657 24.5621 15.1578 24.5446 14.9339 24.5446H13.907V26.7421Z" fill="white"/>
<path fill-rule="evenodd" clip-rule="evenodd" d="M85.8576 6.29253H90.2608L88.0385 2.80164L85.8576 6.29253M78.5879 11.7629V10.2444L80.1218 10.07C80.6552 10.0028 80.8782 9.5165 80.9454 9.4062L84.7697 3.18043C85.0809 2.69099 84.7768 2.2606 84.377 2.21663L82.3673 1.97921V0.445312H91.0835C91.5728 0.445312 91.8834 0.778719 92.0856 1.06678L97.1765 8.85043C97.5764 9.47252 97.8884 9.96197 98.3986 10.0284L99.9997 10.2068V11.7629H90.1951V10.2283L91.4394 10.0731C92.04 10.0059 92.5293 9.73884 92.04 9.00468L91.5728 8.29465H84.6129L84.0787 9.16147C83.7461 9.69488 84.0787 10.0059 84.5898 10.0731L85.8357 10.2283V11.7629H78.5879" fill="white"/>
<path fill-rule="evenodd" clip-rule="evenodd" d="M70.3607 9.5847H67.4705V2.60316H70.3607C73.1182 2.60316 74.2737 3.24851 74.2737 6.09305C74.2737 8.96247 73.1182 9.58469 70.3607 9.58469M72.0937 0.445312H60.8816L60.8807 1.98008L62.2836 2.12467C62.8113 2.20142 63.0216 2.57969 63.0216 3.09073V9.18308C63.0216 9.60695 62.8441 10.0067 62.3779 10.0731L60.8735 10.2684V11.7589L72.0937 11.7629C77.2526 11.7629 79.4767 9.25118 79.4767 5.93692C79.4767 2.95808 77.2526 0.445312 72.0937 0.445312" fill="white"/>
<path d="M40.0425 11.7629H47.2912V10.2508L45.735 10.0732C45.2895 10.0284 45.0232 9.65582 45.0232 9.13913V3.38107L51.0491 11.3182C51.2498 11.5854 51.6264 11.7629 51.9832 11.7629H57.6756V3.18044C57.6756 2.77807 57.782 2.22632 58.3649 2.15672L59.9436 1.97921V0.445312H52.6949V1.95759L54.2727 2.15671C54.8301 2.22542 54.9622 2.691 54.9622 3.22516V8.82707L48.981 0.934878C48.7594 0.645313 48.47 0.445312 48.047 0.445312H40.0425V1.97921L41.5548 2.15672C42.0882 2.23586 42.2882 2.50785 42.2882 3.24665V8.98398C42.2882 9.66286 42.1026 9.98999 41.5315 10.0732L40.0425 10.2508V11.7629" fill="white"/>
<path fill-rule="evenodd" clip-rule="evenodd" d="M30.2872 2.18048C27.7081 2.18048 26.2398 3.13687 26.2398 6.07112C26.2398 9.05096 27.7081 10.0066 30.2872 10.0066C32.8663 10.0066 34.3338 9.05096 34.3338 6.07112C34.3338 3.13687 32.8664 2.18048 30.2872 2.18048M21.0376 6.04914C21.0376 2.49116 23.9054 0 30.3088 0C36.6673 0 39.5368 2.49116 39.5368 6.04914C39.5368 9.69504 36.6673 12.1628 30.3088 12.1628C23.9054 12.1628 21.0376 9.69504 21.0376 6.04914" fill="white"/>
<path d="M0 11.7629H9.07207V10.2508L7.51658 10.0732C7.15986 10.0284 6.80484 9.80683 6.80484 9.05044V7.22698H13.7872V8.96149C13.7872 9.47253 13.6968 9.96198 13.0971 10.0284L11.5176 10.2068V11.7629H20.5897V10.2068L18.9894 10.0284C18.6784 9.98446 18.3225 9.73886 18.3225 9.0944V3.20192C18.3225 2.60219 18.5447 2.20232 19.011 2.15672L20.5897 1.97921V0.445313H11.5176V1.95759L13.0971 2.15671C13.6313 2.22467 13.7872 2.64615 13.7872 3.20192V4.95893H6.80485V3.18044C6.80485 2.51261 7.07118 2.20232 7.5382 2.15672L9.07209 1.97921V0.445312H0.0223835V1.97921L1.53549 2.15672C2.13528 2.22468 2.29126 2.66865 2.26883 3.24665V8.98398C2.26883 9.62844 2.09132 10.0059 1.51231 10.0732L3.08738e-05 10.2508V11.7629" fill="white"/>
</svg>
