<svg width="65" height="47" viewBox="0 0 65 47" fill="none" xmlns="http://www.w3.org/2000/svg">
<path fill-rule="evenodd" clip-rule="evenodd" d="M0.329353 40.0286H4.38023H6.17385V40.9211C5.30221 40.926 4.78271 40.9869 4.67991 41.5648L4.69084 42.6411H9.24482L9.23498 41.4627C9.19561 40.9554 8.66847 40.8857 7.77167 40.9211L7.78151 40.0267H13.6249L13.6358 40.9211C12.8265 40.9024 12.2031 40.9791 12.1583 41.4882V45.1247C12.2097 45.6554 12.6887 45.7154 13.6249 45.7095V46.6333L7.7815 46.6245L7.79244 45.7095C8.69362 45.7036 9.20216 45.681 9.23716 45.1247V43.959L4.67772 43.9698V45.1139C4.73459 45.677 5.21581 45.7026 6.17602 45.7007V46.6333H0.334819L0.344662 45.7154C1.4066 45.6957 1.75438 45.5896 1.81016 45.1247L1.80031 41.556C1.73032 40.9506 1.19225 40.9211 0.344662 40.9211L0.329353 40.0286ZM19.9426 39.7723C24.2056 39.8018 25.9511 41.3577 25.9511 43.3018C25.9511 45.2458 24.2844 46.8144 19.9426 46.8301C15.7265 46.8439 13.9351 45.2458 13.9351 43.3018C13.9351 41.3577 15.7736 39.7458 19.9426 39.7723ZM19.9428 41.0483C22.0853 41.0483 22.5872 42.0802 22.5872 43.3284C22.5872 44.5776 22.1038 45.5605 19.9428 45.5949C17.8211 45.6313 17.2994 44.5776 17.2994 43.3284C17.2994 42.0802 17.7325 41.0483 19.9428 41.0483ZM26.2827 40.0293V40.9277C27.2812 40.9277 27.6793 41.0437 27.7066 41.5557V45.1234C27.7066 45.5922 27.2878 45.7347 26.2827 45.7259V46.635H30.9329V45.719C30.0186 45.7161 29.474 45.5863 29.4532 45.1234L29.463 41.7454L33.386 46.3785C33.5763 46.5702 33.8125 46.635 34.075 46.635H37.6687V41.5556C37.6698 41.0279 38.314 40.9208 39.1386 40.9277L39.1484 40.0293H34.4435V40.9277C35.2638 40.9021 35.8828 41.0024 35.9222 41.5556L35.9134 44.8758L31.8701 40.1689C31.7827 40.0754 31.6547 40.0322 31.4928 40.0293L26.2827 40.0293ZM39.7007 40.0293V40.9236C40.6631 40.9109 41.0721 41.133 41.0678 41.5507V45.1224C41.0678 45.541 40.522 45.712 39.588 45.715L39.5979 46.6359H47.1539C49.7404 46.5043 51.6434 45.6363 51.686 43.5154L51.6773 42.9896C51.5668 40.8656 49.1914 40.0283 47.1638 40.0293H39.7007ZM43.9226 41.2707L43.9127 45.3435L46.812 45.3514C47.7569 45.3082 48.3912 44.6419 48.3759 43.5057L48.3716 43.0751C48.3464 41.8624 47.6169 41.2943 46.5266 41.2618L43.9226 41.2707ZM53.6118 40.0139V40.923C54.5918 40.9397 55.3956 41.0351 55.1703 41.5609L52.7391 45.1256C52.3848 45.5836 52.0206 45.7114 51.1468 45.7212L51.1347 46.6304L55.8101 46.6402V45.7105C54.98 45.7144 54.3873 45.6112 54.6465 45.1256L55.0194 44.6136L59.5909 44.6027L59.9507 45.1256C60.1213 45.4441 59.7352 45.7605 58.6722 45.7105V46.6402H65.0001L64.987 45.7105C64.2859 45.733 63.7391 45.6859 63.3246 45.1256L59.8337 40.3373C59.6718 40.1505 59.5077 40.0168 59.1829 40.0237L53.6118 40.0139ZM57.2223 41.4471L55.8454 43.4226L58.7108 43.4285L57.2223 41.4471ZM63.1494 0.000311184C49.8756 5.82964 33.5955 11.6578 17.1896 17.488L4.42229 22.1792C-0.864442 23.9778 -1.08864 27.6683 2.04577 30.4989C2.87476 31.2705 3.66438 31.9161 4.32167 32.5452C8.21618 36.278 9.80963 36.856 10.4286 38.8197L15.7996 38.8187L4.11825 29.0345C1.2146 26.1774 4.55134 25.0186 7.4714 24.2147L43.9349 12.6878L54.4471 9.28535C57.6778 8.32019 60.4283 7.52498 62.2602 2.80638L63.239 0.514453L63.3735 0.073195C63.3735 0.073195 63.1472 -0.005545 63.1494 0.000311184H63.1494ZM38.2922 16.2933L14.5041 23.304C12.3572 23.8887 10.3198 24.5128 8.55242 25.0544C6.63634 25.6411 5.27364 25.9064 4.6601 26.4196C4.10015 26.8873 4.1089 27.655 4.65682 28.1661C5.04617 28.4894 5.40926 28.7961 5.7975 29.1194L15.3364 26.8894L17.8135 26.3065C17.3684 25.9921 17.3749 25.6028 17.8725 25.4495L30.1772 22.4843L42.7477 19.4315L51.3504 17.3234C53.436 16.9047 54.9245 15.9514 56.005 14.6324C57.0834 13.2327 58.0578 11.8125 58.7162 10.3157C58.8146 10.1428 58.7916 10.0514 58.6298 10.0376C52.7197 12.1979 45.0706 14.2078 38.2922 16.2933ZM6.48801 29.6915L9.25604 31.9885L23.6431 29.5167C23.0284 29.1491 23.2067 28.6842 24.0401 28.5652L44.8206 24.966C49.6185 24.2171 49.9115 23.8928 53.3369 19.2361C53.6267 18.842 53.5534 18.734 52.9311 18.9146L34.1017 23.2569L12.6267 28.2341L6.48801 29.6915ZM9.9726 32.5671L13.1179 35.2296L30.4075 33.3072C29.876 32.9671 30.0204 32.4668 30.717 32.4087L39.7714 31.2156C43.6364 30.7557 44.6305 29.5733 47.5298 26.4125C47.6884 26.2169 47.5527 26.1756 47.0529 26.2818L29.2395 29.3198L9.9726 32.5671ZM13.8521 35.8379L17.3639 38.7697H40.2869L31.5737 33.9106L13.8521 35.8379" fill="white"/>
</svg>
