<svg width="24" height="24" viewBox="0 0 24 24" fill="none" xmlns="http://www.w3.org/2000/svg">
<path d="M12.0922 1.06189C16.8633 1.13717 20.6985 5.01339 20.723 9.78497C20.723 15.785 14.5845 21.2311 12.6461 22.7542C12.3088 23.0242 11.8294 23.0242 11.4922 22.7542C9.55376 21.3234 3.36914 15.785 3.36914 9.78497V9.69266C3.3793 4.93023 7.23748 1.07204 11.9999 1.06189H12.0922ZM11.9999 3.46189C9.60519 3.47871 7.42871 4.85667 6.38923 7.01409C5.34975 9.1715 5.62842 11.7324 7.1076 13.6157C7.61529 12.8311 8.67683 12.3234 9.69222 11.8619C9.74295 11.868 9.79376 11.8511 9.83068 11.8157C9.93337 11.7693 10.0511 11.7693 10.1538 11.8157C10.6985 12.1839 11.3425 12.3771 11.9999 12.3696C12.6531 12.3491 13.2895 12.1581 13.8461 11.8157C13.9488 11.7693 14.0664 11.7693 14.1691 11.8157C14.2199 11.8096 14.2707 11.8266 14.3076 11.8619C15.323 12.2773 16.3845 12.8311 16.8922 13.5696C18.3702 11.6924 18.6476 9.13645 17.6067 6.98591C16.5658 4.83536 14.3891 3.46724 11.9999 3.46189ZM11.9999 5.58497C13.4274 5.58497 14.5845 6.86612 14.5845 8.4465C14.5845 10.0269 13.4274 11.308 11.9999 11.308C10.5725 11.308 9.41529 10.0269 9.41529 8.4465C9.41529 6.86612 10.5725 5.58497 11.9999 5.58497Z" fill="#E42525"/>
</svg>
