<svg width="19" height="21" viewBox="0 0 19 21" fill="none" xmlns="http://www.w3.org/2000/svg">
<path fill-rule="evenodd" clip-rule="evenodd" d="M11.4911 10.3745L16.2411 5.37044C16.4604 5.14124 16.4604 4.79745 16.2411 4.56825L15.5104 3.76607C15.2911 3.53687 14.9623 3.53687 14.743 3.76607L9.95651 8.77017C9.81035 8.92297 9.59112 8.92297 9.44497 8.77017L4.65843 3.72787C4.4392 3.49867 4.11035 3.49867 3.89112 3.72787L3.12381 4.53005C2.90458 4.75925 2.90458 5.10304 3.12381 5.33224L7.91035 10.3363C8.05651 10.4891 8.05651 10.7183 7.91035 10.8711L3.08727 15.9134C2.86804 16.1426 2.86804 16.4864 3.08727 16.7156L3.85458 17.5178C4.07381 17.747 4.40266 17.747 4.62189 17.5178L9.40843 12.5137C9.55458 12.3609 9.77381 12.3609 9.91997 12.5137L14.7065 17.5178C14.9257 17.747 15.2546 17.747 15.4738 17.5178L16.2411 16.7156C16.4604 16.4864 16.4604 16.1426 16.2411 15.9134L11.4911 10.9093C11.345 10.7565 11.345 10.5273 11.4911 10.3745V10.3745Z" fill="#E42525"/>
</svg>
