<svg width="24" height="23" viewBox="0 0 24 23" fill="none" xmlns="http://www.w3.org/2000/svg">
<path fill-rule="evenodd" clip-rule="evenodd" d="M11.9988 9.19161C9.96803 9.19161 8.30649 10.719 8.30649 12.5857C8.30649 14.4524 9.96803 15.9798 11.9988 15.9798C14.0296 15.9798 15.6911 14.4524 15.6911 12.5857C15.6911 10.719 14.0296 9.19161 11.9988 9.19161ZM21.2296 6.64604H18.8296C18.1834 6.64604 17.6296 6.34906 17.2603 5.88237L16.1988 4.39746C15.8757 3.67621 15.0911 3.25195 14.2603 3.25195H9.73726C8.90649 3.25195 8.12188 3.67621 7.75264 4.39746L6.69111 5.88237C6.36803 6.34906 5.76803 6.64604 5.12188 6.64604H2.76803C1.75264 6.64604 0.921875 7.40971 0.921875 8.34309V18.5254C0.921875 19.4587 1.75264 20.2224 2.76803 20.2224H21.2296C22.245 20.2224 23.0757 19.4587 23.0757 18.5254V8.34309C23.0757 7.40971 22.245 6.64604 21.2296 6.64604ZM11.9988 17.6768C8.95264 17.6768 6.46034 15.3858 6.46034 12.5857C6.46034 9.78558 8.95264 7.49457 11.9988 7.49457C15.045 7.49457 17.5373 9.78558 17.5373 12.5857C17.5373 15.3858 15.045 17.6768 11.9988 17.6768Z" fill="#E42525"/>
</svg>
