<svg width="30" height="30" viewBox="0 0 30 30" fill="none" xmlns="http://www.w3.org/2000/svg">
<path fill-rule="evenodd" clip-rule="evenodd" d="M26.5384 19.0475H26.25C25.1538 19.0475 24.2307 18.1244 24.2307 17.0282V10.3936C24.2307 5.14363 19.8461 0.932091 14.5384 1.16286C9.57689 1.39363 5.76919 5.66286 5.76919 10.6821V17.0859C5.76919 18.1821 4.84612 19.0475 3.74996 19.0475H3.4615C2.19227 19.0475 1.15381 20.1436 1.15381 21.4129V22.2782C1.15381 22.6821 1.55765 23.0859 2.01919 23.0859H27.9807C28.4423 23.0859 28.8461 22.6821 28.8461 22.2206V21.3552C28.8461 20.0859 27.8077 19.0475 26.5384 19.0475ZM17.8269 25.3936H12.173C11.8269 25.3936 11.5384 25.7398 11.5961 26.0859C11.8846 27.7013 13.3269 28.8552 15 28.8552C16.673 28.8552 18.1153 27.6436 18.4038 26.0859C18.4615 25.7398 18.173 25.3936 17.8269 25.3936Z" fill="black"/>
</svg>
