<svg width="43" height="38" viewBox="0 0 43 38" fill="none" xmlns="http://www.w3.org/2000/svg">
<g clip-path="url(#clip0_3494_35132)">
<path d="M42.0721 9.25664L31.8315 4.64286L21.5908 0.0290895C21.5061 -0.00969651 21.4066 -0.00969651 21.3219 0.0290895L0.936317 9.21432C0.227206 9.53343 -0.187209 10.3162 0.083542 11.0214C0.387447 11.8095 1.32126 12.1656 2.09852 11.8148L21.3219 3.16194C21.4066 3.12316 21.5061 3.12316 21.5908 3.16194L40.8141 11.813C41.5509 12.1462 42.4313 11.843 42.7794 11.136C43.1257 10.4308 42.8107 9.58985 42.0721 9.25664Z" fill="white"/>
<path d="M38.8959 13.6527L21.5807 5.85675C21.5034 5.82149 21.4131 5.82149 21.3358 5.85498L3.90267 13.4941C3.79953 13.5399 3.73322 13.6369 3.73322 13.7462L3.61719 37.5608C3.61719 37.7142 3.74612 37.8394 3.90636 37.8411L8.71358 37.8623C8.87382 37.8623 9.00459 37.7389 9.00643 37.5855L9.10773 17.006C9.10773 16.8526 9.2385 16.7292 9.39875 16.7292H33.3685C33.5306 16.7292 33.6614 16.8543 33.6596 17.0095L33.5583 37.6948C33.5583 37.8482 33.6872 37.9733 33.8474 37.9751L38.6546 37.9963C38.8149 37.9963 38.9457 37.8728 38.9475 37.7195L39.0635 13.9031C39.0635 13.7991 38.9972 13.7003 38.8959 13.6527Z" fill="white"/>
<path d="M31.3594 23.5742H11.3219C11.158 23.5742 11.0254 23.7012 11.0254 23.8581V24.7061C11.0254 24.863 11.158 24.9899 11.3219 24.9899H31.3594C31.5233 24.9899 31.6559 24.863 31.6559 24.7061V23.8581C31.6559 23.7012 31.5233 23.5742 31.3594 23.5742Z" fill="#E42525"/>
<path d="M31.3594 19.7129H11.3219C11.158 19.7129 11.0254 19.8398 11.0254 19.9967V20.8447C11.0254 21.0016 11.158 21.1286 11.3219 21.1286H31.3594C31.5233 21.1286 31.6559 21.0016 31.6559 20.8447V19.9967C31.6559 19.8398 31.5233 19.7129 31.3594 19.7129Z" fill="#E42525"/>
<path d="M31.3594 27.4355H11.3219C11.158 27.4355 11.0254 27.5625 11.0254 27.7194V28.5674C11.0254 28.7243 11.158 28.8512 11.3219 28.8512H31.3594C31.5233 28.8512 31.6559 28.7243 31.6559 28.5674V27.7194C31.6559 27.5625 31.5233 27.4355 31.3594 27.4355Z" fill="#E42525"/>
<path d="M31.3594 35.1582H11.3219C11.158 35.1582 11.0254 35.2851 11.0254 35.442V36.2901C11.0254 36.447 11.158 36.5739 11.3219 36.5739H31.3594C31.5233 36.5739 31.6559 36.447 31.6559 36.2901V35.442C31.6559 35.2851 31.5233 35.1582 31.3594 35.1582Z" fill="#E42525"/>
<path d="M31.3594 31.2969H11.3219C11.158 31.2969 11.0254 31.4238 11.0254 31.5807V32.4287C11.0254 32.5856 11.158 32.7126 11.3219 32.7126H31.3594C31.5233 32.7126 31.6559 32.5856 31.6559 32.4287V31.5807C31.6559 31.4238 31.5233 31.2969 31.3594 31.2969Z" fill="#E42525"/>
</g>
<defs>
<clipPath id="clip0_3494_35132">
<rect width="42.9187" height="38" fill="white"/>
</clipPath>
</defs>
</svg>
