<svg width="24" height="24" viewBox="0 0 24 24" fill="none" xmlns="http://www.w3.org/2000/svg">
<path fill-rule="evenodd" clip-rule="evenodd" d="M22.8911 20.9067L16.7065 14.7683C17.9527 13.0144 18.5988 10.7991 18.2757 8.44521C17.7219 4.47598 14.4911 1.33751 10.4757 0.968284C5.02959 0.414438 0.414201 5.02982 0.968048 10.5221C1.33728 14.4914 4.47574 17.7683 8.44497 18.3221C10.7988 18.6452 13.0142 17.9991 14.768 16.7529L20.9065 22.8914C21.1834 23.1683 21.5988 23.1683 21.8757 22.8914L22.845 21.9221C23.1219 21.6452 23.1219 21.1837 22.8911 20.9067V20.9067ZM3.69112 9.64521C3.69112 6.36828 6.36805 3.69136 9.64497 3.69136C12.9219 3.69136 15.5988 6.36828 15.5988 9.64521C15.5988 12.9221 12.9219 15.5991 9.64497 15.5991C6.36805 15.5991 3.69112 12.9683 3.69112 9.64521V9.64521Z" fill="#E42525"/>
</svg>
