<svg width="21" height="21" viewBox="0 0 21 21" fill="none" xmlns="http://www.w3.org/2000/svg">
<path fill-rule="evenodd" clip-rule="evenodd" d="M20.0308 18.2934L14.6193 12.9223C15.7097 11.3877 16.2751 9.4492 15.9924 7.38959C15.5078 3.91651 12.6808 1.17036 9.16737 0.847279C4.40199 0.362664 0.363525 4.40113 0.84814 9.2069C1.17122 12.68 3.91737 15.5473 7.39045 16.0319C9.45006 16.3146 11.3885 15.7492 12.9231 14.6588L18.2943 20.03C18.5366 20.2723 18.9001 20.2723 19.1424 20.03L19.9904 19.1819C20.2328 18.9396 20.2328 18.5357 20.0308 18.2934V18.2934ZM3.23083 8.43959C3.23083 5.57228 5.57314 3.22997 8.44045 3.22997C11.3078 3.22997 13.6501 5.57228 13.6501 8.43959C13.6501 11.3069 11.3078 13.6492 8.44045 13.6492C5.57314 13.6492 3.23083 11.3473 3.23083 8.43959V8.43959Z" fill="white"/>
</svg>
