<svg width="24" height="24" viewBox="0 0 24 24" fill="none" xmlns="http://www.w3.org/2000/svg">
<path fill-rule="evenodd" clip-rule="evenodd" d="M14.3075 8.76925H11.5382V6.00002C11.5382 5.7231 11.3536 5.53848 11.0767 5.53848H9.23054C8.95362 5.53848 8.76901 5.7231 8.76901 6.00002V8.76925H5.99977C5.72285 8.76925 5.53824 8.95387 5.53824 9.23079V11.0769C5.53824 11.3539 5.72285 11.5385 5.99977 11.5385H8.76901V14.3077C8.76901 14.5846 8.95362 14.7693 9.23054 14.7693H11.0767C11.3536 14.7693 11.5382 14.5846 11.5382 14.3077V11.5385H14.3075C14.5844 11.5385 14.769 11.3539 14.769 11.0769V9.23079C14.769 8.95387 14.5844 8.76925 14.3075 8.76925ZM22.8921 20.8616L17.5844 15.6C18.6921 14.0769 19.3844 12.1846 19.3844 10.1539C19.3844 5.07694 15.2305 0.923096 10.1536 0.923096C5.0767 0.923096 0.922852 5.07694 0.922852 10.1539C0.922852 15.2308 5.0767 19.3846 10.1536 19.3846C12.1844 19.3846 14.0767 18.6923 15.5998 17.5846L20.9075 22.8923C21.1844 23.1692 21.5998 23.1692 21.8767 22.8923L22.8459 21.9231C23.1229 21.6462 23.1229 21.1846 22.8921 20.8616ZM10.1536 16.6154C6.59977 16.6154 3.69208 13.7077 3.69208 10.1539C3.69208 6.60002 6.59977 3.69233 10.1536 3.69233C13.7075 3.69233 16.6152 6.60002 16.6152 10.1539C16.6152 13.7077 13.7075 16.6154 10.1536 16.6154Z" fill="#E42525"/>
</svg>
