<svg width="162" height="48" viewBox="0 0 162 48" fill="none" xmlns="http://www.w3.org/2000/svg">
<path d="M156.236 48H5.6748C2.5464 48 0 45.4464 0 42.3204V5.6712C0 2.544 2.5464 0 5.6748 0H156.236C159.364 0 162 2.544 162 5.6712V42.3204C162 45.4464 159.364 48 156.236 48Z" fill="#A6A6A6"/>
<path d="M160.839 42.322C160.839 44.8612 158.782 46.918 156.238 46.918H5.67516C3.13236 46.918 1.06836 44.8612 1.06836 42.322V5.67036C1.06836 3.13236 3.13236 1.06836 5.67516 1.06836H156.237C158.782 1.06836 160.838 3.13236 160.838 5.67036L160.839 42.322Z" fill="black"/>
<path d="M36.1529 23.7414C36.1181 19.8738 39.3197 17.9922 39.4661 17.9046C37.6529 15.261 34.8425 14.8998 33.8549 14.871C31.4945 14.6226 29.2049 16.2834 28.0025 16.2834C26.7761 16.2834 24.9245 14.895 22.9289 14.9358C20.3609 14.9754 17.9585 16.4622 16.6409 18.771C13.9217 23.4786 15.9497 30.3966 18.5549 34.2018C19.8581 36.0654 21.3809 38.1462 23.3741 38.073C25.3241 37.9926 26.0525 36.8298 28.4057 36.8298C30.7373 36.8298 31.4213 38.073 33.4541 38.0262C35.5469 37.9926 36.8645 36.1542 38.1221 34.2738C39.6281 32.1378 40.2329 30.0342 40.2569 29.9262C40.2077 29.9094 36.1925 28.377 36.1529 23.7414Z" fill="white"/>
<path d="M32.3125 12.3677C33.3613 11.0561 34.0789 9.27174 33.8797 7.46094C32.3617 7.52814 30.4633 8.51094 29.3701 9.79374C28.4029 10.9241 27.5389 12.7769 27.7621 14.5193C29.4673 14.6465 31.2181 13.6589 32.3125 12.3677Z" fill="white"/>
<path d="M64.3746 37.8055H61.6494L60.1566 33.1147H54.9678L53.5458 37.8055H50.8926L56.0334 21.8359H59.2086L64.3746 37.8055ZM59.7066 31.1467L58.3566 26.9767C58.2138 26.5507 57.9462 25.5475 57.5514 23.9683H57.5034C57.3462 24.6475 57.093 25.6507 56.745 26.9767L55.419 31.1467H59.7066V31.1467Z" fill="white"/>
<path d="M77.5951 31.9071C77.5951 33.8655 77.0659 35.4135 76.0075 36.5499C75.0595 37.5615 73.8823 38.0667 72.4771 38.0667C70.9603 38.0667 69.8707 37.5219 69.2071 36.4323H69.1591V42.4983H66.6007V30.0819C66.6007 28.8507 66.5683 27.5871 66.5059 26.2911H68.7559L68.8987 28.1163H68.9467C69.7999 26.7411 71.0947 26.0547 72.8323 26.0547C74.1907 26.0547 75.3247 26.5911 76.2319 27.6651C77.1415 28.7403 77.5951 30.1539 77.5951 31.9071ZM74.9887 32.0007C74.9887 30.8799 74.7367 29.9559 74.2303 29.2287C73.6771 28.4703 72.9343 28.0911 72.0031 28.0911C71.3719 28.0911 70.7983 28.3023 70.2859 28.7187C69.7723 29.1387 69.4363 29.6871 69.2791 30.3663C69.1999 30.6831 69.1603 30.9423 69.1603 31.1463V33.0663C69.1603 33.9039 69.4171 34.6107 69.9307 35.1879C70.4443 35.7651 71.1115 36.0531 71.9323 36.0531C72.8959 36.0531 73.6459 35.6811 74.1823 34.9395C74.7199 34.1967 74.9887 33.2175 74.9887 32.0007Z" fill="white"/>
<path d="M90.84 31.9071C90.84 33.8655 90.3108 35.4135 89.2512 36.5499C88.3044 37.5615 87.1272 38.0667 85.722 38.0667C84.2052 38.0667 83.1156 37.5219 82.4532 36.4323H82.4052V42.4983H79.8468V30.0819C79.8468 28.8507 79.8144 27.5871 79.752 26.2911H82.002L82.1448 28.1163H82.1927C83.0447 26.7411 84.3396 26.0547 86.0784 26.0547C87.4356 26.0547 88.5696 26.5911 89.4792 27.6651C90.3852 28.7403 90.84 30.1539 90.84 31.9071ZM88.2336 32.0007C88.2336 30.8799 87.9804 29.9559 87.474 29.2287C86.9208 28.4703 86.1804 28.0911 85.248 28.0911C84.6156 28.0911 84.0432 28.3023 83.5296 28.7187C83.016 29.1387 82.6812 29.6871 82.524 30.3663C82.446 30.6831 82.4052 30.9423 82.4052 31.1463V33.0663C82.4052 33.9039 82.662 34.6107 83.1732 35.1879C83.6868 35.7639 84.354 36.0531 85.1772 36.0531C86.1408 36.0531 86.8908 35.6811 87.4272 34.9395C87.9648 34.1967 88.2336 33.2175 88.2336 32.0007Z" fill="white"/>
<path d="M105.647 33.3268C105.647 34.6852 105.176 35.7904 104.229 36.6436C103.189 37.576 101.74 38.0416 99.879 38.0416C98.1606 38.0416 96.783 37.7104 95.7402 37.0468L96.333 34.9144C97.4562 35.5936 98.6886 35.9344 100.031 35.9344C100.995 35.9344 101.745 35.716 102.284 35.2816C102.82 34.8472 103.088 34.264 103.088 33.5368C103.088 32.8888 102.867 32.3428 102.424 31.9C101.984 31.4572 101.248 31.0456 100.221 30.6652C97.425 29.6224 96.0282 28.0948 96.0282 26.086C96.0282 24.7732 96.5178 23.6968 97.4982 22.8592C98.475 22.0204 99.7782 21.6016 101.408 21.6016C102.861 21.6016 104.068 21.8548 105.032 22.36L104.392 24.4456C103.492 23.956 102.475 23.7112 101.336 23.7112C100.436 23.7112 99.7326 23.9332 99.2286 24.3748C98.8026 24.7696 98.589 25.2508 98.589 25.8208C98.589 26.452 98.8326 26.974 99.3222 27.3844C99.7482 27.7636 100.522 28.174 101.645 28.6168C103.019 29.17 104.029 29.8168 104.678 30.5584C105.325 31.2976 105.647 32.2228 105.647 33.3268Z" fill="white"/>
<path d="M114.107 28.2091H111.287V33.7999C111.287 35.2219 111.783 35.9323 112.779 35.9323C113.237 35.9323 113.616 35.8927 113.916 35.8135L113.987 37.7563C113.483 37.9447 112.819 38.0395 111.997 38.0395C110.987 38.0395 110.197 37.7311 109.627 37.1155C109.059 36.4987 108.774 35.4643 108.774 34.0111V28.2067H107.094V26.2867H108.774V24.1783L111.287 23.4199V26.2867H114.107V28.2091Z" fill="white"/>
<path d="M126.832 31.9527C126.832 33.7227 126.325 35.1759 125.315 36.3123C124.255 37.4823 122.849 38.0655 121.096 38.0655C119.406 38.0655 118.061 37.5051 117.058 36.3843C116.054 35.2635 115.553 33.8487 115.553 32.1435C115.553 30.3591 116.069 28.8975 117.104 27.7611C118.138 26.6235 119.532 26.0547 121.285 26.0547C122.975 26.0547 124.334 26.6151 125.36 27.7371C126.342 28.8255 126.832 30.2307 126.832 31.9527ZM124.177 32.0355C124.177 30.9735 123.95 30.0627 123.491 29.3031C122.954 28.3839 122.188 27.9255 121.194 27.9255C120.166 27.9255 119.384 28.3851 118.848 29.3031C118.388 30.0639 118.162 30.9891 118.162 32.0835C118.162 33.1455 118.388 34.0563 118.848 34.8147C119.401 35.7339 120.174 36.1923 121.171 36.1923C122.148 36.1923 122.915 35.7243 123.468 34.7907C123.94 34.0167 124.177 33.0963 124.177 32.0355Z" fill="white"/>
<path d="M135.145 28.5411C134.892 28.4943 134.622 28.4703 134.339 28.4703C133.439 28.4703 132.743 28.8099 132.253 29.4903C131.827 30.0903 131.614 30.8487 131.614 31.7643V37.8063H129.056L129.08 29.9175C129.08 28.5903 129.048 27.3819 128.984 26.2923H131.213L131.306 28.4955H131.377C131.647 27.7383 132.073 27.1287 132.656 26.6715C133.226 26.2599 133.842 26.0547 134.506 26.0547C134.742 26.0547 134.956 26.0715 135.145 26.1015V28.5411Z" fill="white"/>
<path d="M146.589 31.5021C146.589 31.9605 146.559 32.3468 146.495 32.6624H138.82C138.85 33.8 139.221 34.67 139.934 35.27C140.581 35.8064 141.417 36.0752 142.444 36.0752C143.581 36.0752 144.617 35.894 145.55 35.5304L145.951 37.3065C144.861 37.7817 143.575 38.018 142.09 38.018C140.305 38.018 138.903 37.4924 137.883 36.4424C136.865 35.3924 136.355 33.9824 136.355 32.2136C136.355 30.4772 136.829 29.0312 137.779 27.878C138.772 26.6468 140.115 26.0312 141.805 26.0312C143.464 26.0312 144.721 26.6468 145.574 27.878C146.249 28.856 146.589 30.0657 146.589 31.5021ZM144.149 30.8384C144.166 30.08 143.999 29.4248 143.653 28.8716C143.21 28.16 142.529 27.8048 141.614 27.8048C140.777 27.8048 140.097 28.1517 139.577 28.8477C139.151 29.4009 138.898 30.0644 138.82 30.8372H144.149V30.8384Z" fill="white"/>
<path d="M58.859 12.0104C58.859 13.4228 58.4354 14.486 57.5894 15.2C56.8058 15.8588 55.6922 16.1888 54.2498 16.1888C53.5346 16.1888 52.9226 16.1576 52.4102 16.0952V8.37804C53.0786 8.27004 53.7986 8.21484 54.5762 8.21484C55.9502 8.21484 56.9858 8.51364 57.6842 9.11124C58.4666 9.78684 58.859 10.7528 58.859 12.0104ZM57.533 12.0452C57.533 11.1296 57.2906 10.4276 56.8058 9.93804C56.321 9.44964 55.613 9.20484 54.6806 9.20484C54.2846 9.20484 53.9474 9.23124 53.6678 9.28644V15.1532C53.8226 15.1772 54.1058 15.188 54.5174 15.188C55.4798 15.188 56.2226 14.9204 56.7458 14.3852C57.269 13.85 57.533 13.07 57.533 12.0452Z" fill="white"/>
<path d="M65.8881 13.2445C65.8881 14.1145 65.6397 14.8273 65.1429 15.3865C64.6221 15.9613 63.9321 16.2481 63.0705 16.2481C62.2401 16.2481 61.5789 15.9733 61.0857 15.4213C60.5937 14.8705 60.3477 14.1757 60.3477 13.3381C60.3477 12.4621 60.6009 11.7433 61.1097 11.1853C61.6185 10.6273 62.3025 10.3477 63.1641 10.3477C63.9945 10.3477 64.6617 10.6225 65.1669 11.1733C65.6469 11.7085 65.8881 12.3997 65.8881 13.2445ZM64.5837 13.2853C64.5837 12.7633 64.4709 12.3157 64.2465 11.9425C63.9825 11.4913 63.6069 11.2657 63.1185 11.2657C62.6133 11.2657 62.2293 11.4913 61.9653 11.9425C61.7397 12.3157 61.6281 12.7705 61.6281 13.3081C61.6281 13.8301 61.7409 14.2777 61.9653 14.6509C62.2377 15.1021 62.6169 15.3277 63.1065 15.3277C63.5865 15.3277 63.9633 15.0985 64.2345 14.6389C64.4673 14.2585 64.5837 13.8073 64.5837 13.2853Z" fill="white"/>
<path d="M75.3171 10.4609L73.5471 16.1177H72.3951L71.6619 13.6613C71.4759 13.0481 71.3247 12.4385 71.2071 11.8337H71.1843C71.0751 12.4553 70.9239 13.0637 70.7295 13.6613L69.9507 16.1177H68.7855L67.1211 10.4609H68.4135L69.0531 13.1501C69.2079 13.7861 69.3351 14.3921 69.4371 14.9657H69.4599C69.5535 14.4929 69.7083 13.8905 69.9267 13.1621L70.7295 10.4621H71.7543L72.5235 13.1045C72.7095 13.7489 72.8607 14.3693 72.9771 14.9669H73.0119C73.0971 14.3849 73.2255 13.7645 73.3959 13.1045L74.0823 10.4621H75.3171V10.4609Z" fill="white"/>
<path d="M81.8373 16.1193H80.5797V12.8793C80.5797 11.8809 80.2005 11.3817 79.4397 11.3817C79.0665 11.3817 78.7653 11.5186 78.5313 11.7934C78.2997 12.0682 78.1821 12.3921 78.1821 12.7629V16.1181H76.9245V12.079C76.9245 11.5822 76.9089 11.0434 76.8789 10.4602H77.9841L78.0429 11.3446H78.0777C78.2241 11.0698 78.4425 10.843 78.7293 10.6618C79.0701 10.4506 79.4517 10.3438 79.8693 10.3438C80.3973 10.3438 80.8365 10.5142 81.1857 10.8562C81.6201 11.275 81.8373 11.9002 81.8373 12.7306V16.1193V16.1193Z" fill="white"/>
<path d="M85.3052 16.1196H84.0488V7.86719H85.3052V16.1196Z" fill="white"/>
<path d="M92.7084 13.2445C92.7084 14.1145 92.46 14.8273 91.9632 15.3865C91.4424 15.9613 90.7512 16.2481 89.8908 16.2481C89.0592 16.2481 88.398 15.9733 87.906 15.4213C87.414 14.8705 87.168 14.1757 87.168 13.3381C87.168 12.4621 87.4212 11.7433 87.93 11.1853C88.4388 10.6273 89.1228 10.3477 89.9832 10.3477C90.8148 10.3477 91.4808 10.6225 91.9872 11.1733C92.4672 11.7085 92.7084 12.3997 92.7084 13.2445ZM91.4028 13.2853C91.4028 12.7633 91.29 12.3157 91.0656 11.9425C90.8028 11.4913 90.426 11.2657 89.9388 11.2657C89.4324 11.2657 89.0484 11.4913 88.7856 11.9425C88.56 12.3157 88.4484 12.7705 88.4484 13.3081C88.4484 13.8301 88.5612 14.2777 88.7856 14.6509C89.058 15.1021 89.4372 15.3277 89.9268 15.3277C90.4068 15.3277 90.7824 15.0985 91.0536 14.6389C91.2876 14.2585 91.4028 13.8073 91.4028 13.2853Z" fill="white"/>
<path d="M98.7944 16.1197H97.6652L97.5716 15.4681H97.5368C97.1504 15.9877 96.5996 16.2481 95.8844 16.2481C95.3504 16.2481 94.9184 16.0765 94.5932 15.7357C94.298 15.4261 94.1504 15.0409 94.1504 14.5837C94.1504 13.8925 94.4384 13.3657 95.018 13.0009C95.5964 12.6361 96.41 12.4573 97.4576 12.4657V12.3601C97.4576 11.6149 97.0664 11.2429 96.2828 11.2429C95.7248 11.2429 95.2328 11.3833 94.808 11.6617L94.5524 10.8361C95.078 10.5109 95.7272 10.3477 96.4928 10.3477C97.9712 10.3477 98.7128 11.1277 98.7128 12.6877V14.7709C98.7128 15.3361 98.7404 15.7861 98.7944 16.1197ZM97.4888 14.1757V13.3033C96.1016 13.2793 95.408 13.6597 95.408 14.4433C95.408 14.7385 95.4872 14.9593 95.6492 15.1069C95.8112 15.2545 96.0176 15.3277 96.2636 15.3277C96.5396 15.3277 96.7976 15.2401 97.0328 15.0661C97.2692 14.8909 97.4144 14.6689 97.4684 14.3965C97.4816 14.3353 97.4888 14.2609 97.4888 14.1757Z" fill="white"/>
<path d="M105.941 16.1196H104.825L104.766 15.2112H104.731C104.375 15.9024 103.768 16.248 102.915 16.248C102.233 16.248 101.665 15.9804 101.215 15.4452C100.765 14.91 100.541 14.2152 100.541 13.362C100.541 12.4464 100.785 11.7048 101.274 11.1384C101.748 10.6104 102.329 10.3464 103.02 10.3464C103.78 10.3464 104.311 10.602 104.614 11.1144H104.638V7.86719H105.897V14.5956C105.897 15.1464 105.911 15.654 105.941 16.1196ZM104.638 13.734V12.7908C104.638 12.6276 104.626 12.4956 104.603 12.3948C104.532 12.0924 104.38 11.838 104.148 11.6328C103.914 11.4276 103.632 11.3244 103.307 11.3244C102.838 11.3244 102.471 11.5104 102.201 11.8836C101.933 12.2568 101.797 12.7332 101.797 13.3152C101.797 13.8744 101.926 14.328 102.184 14.6772C102.456 15.0492 102.823 15.2352 103.283 15.2352C103.696 15.2352 104.026 15.0804 104.277 14.7696C104.519 14.4828 104.638 14.1372 104.638 13.734Z" fill="white"/>
<path d="M116.697 13.2445C116.697 14.1145 116.448 14.8273 115.951 15.3865C115.431 15.9613 114.742 16.2481 113.879 16.2481C113.05 16.2481 112.389 15.9733 111.894 15.4213C111.402 14.8705 111.156 14.1757 111.156 13.3381C111.156 12.4621 111.409 11.7433 111.918 11.1853C112.427 10.6273 113.111 10.3477 113.974 10.3477C114.803 10.3477 115.471 10.6225 115.975 11.1733C116.455 11.7085 116.697 12.3997 116.697 13.2445ZM115.393 13.2853C115.393 12.7633 115.281 12.3157 115.056 11.9425C114.791 11.4913 114.417 11.2657 113.927 11.2657C113.423 11.2657 113.039 11.4913 112.774 11.9425C112.548 12.3157 112.437 12.7705 112.437 13.3081C112.437 13.8301 112.549 14.2777 112.774 14.6509C113.046 15.1021 113.425 15.3277 113.915 15.3277C114.395 15.3277 114.773 15.0985 115.044 14.6389C115.276 14.2585 115.393 13.8073 115.393 13.2853Z" fill="white"/>
<path d="M123.459 16.1193H122.203V12.8793C122.203 11.8809 121.824 11.3817 121.062 11.3817C120.688 11.3817 120.387 11.5186 120.154 11.7934C119.922 12.0682 119.805 12.3921 119.805 12.7629V16.1181H118.546V12.079C118.546 11.5822 118.532 11.0434 118.502 10.4602H119.606L119.665 11.3446H119.7C119.847 11.0698 120.066 10.843 120.351 10.6618C120.693 10.4506 121.074 10.3438 121.492 10.3438C122.019 10.3438 122.458 10.5142 122.808 10.8562C123.243 11.275 123.459 11.9002 123.459 12.7306V16.1193V16.1193Z" fill="white"/>
<path d="M131.922 11.4035H130.537V14.1515C130.537 14.8499 130.783 15.1991 131.27 15.1991C131.496 15.1991 131.683 15.1799 131.831 15.1403L131.863 16.0943C131.615 16.1879 131.288 16.2347 130.886 16.2347C130.389 16.2347 130.003 16.0835 129.723 15.7811C129.443 15.4787 129.303 14.9699 129.303 14.2559V11.4035H128.477V10.4615H129.303V9.42473L130.536 9.05273V10.4603H131.921V11.4035H131.922Z" fill="white"/>
<path d="M138.581 16.1196H137.322V12.9036C137.322 11.8896 136.943 11.382 136.183 11.382C135.6 11.382 135.202 11.676 134.983 12.264C134.946 12.3876 134.924 12.5388 134.924 12.7164V16.1184H133.668V7.86719H134.924V11.2764H134.948C135.344 10.656 135.912 10.3464 136.648 10.3464C137.168 10.3464 137.599 10.5168 137.941 10.8588C138.367 11.2848 138.581 11.9184 138.581 12.756V16.1196V16.1196Z" fill="white"/>
<path d="M145.447 13.0247C145.447 13.2503 145.43 13.4399 145.4 13.5947H141.629C141.646 14.1539 141.826 14.5799 142.175 14.8751C142.494 15.1391 142.906 15.2711 143.41 15.2711C143.968 15.2711 144.476 15.1823 144.935 15.0035L145.132 15.8771C144.595 16.1099 143.964 16.2263 143.233 16.2263C142.357 16.2263 141.667 15.9683 141.168 15.4523C140.666 14.9363 140.418 14.2439 140.418 13.3751C140.418 12.5219 140.65 11.8115 141.116 11.2451C141.604 10.6403 142.262 10.3379 143.094 10.3379C143.908 10.3379 144.526 10.6403 144.943 11.2451C145.28 11.7251 145.447 12.3191 145.447 13.0247ZM144.247 12.6995C144.257 12.3263 144.174 12.0047 144.004 11.7335C143.785 11.3843 143.453 11.2091 143.003 11.2091C142.592 11.2091 142.258 11.3795 142.002 11.7215C141.793 11.9939 141.67 12.3191 141.629 12.6995H144.247Z" fill="white"/>
</svg>
