<svg width="164" height="49" viewBox="0 0 164 49" fill="none" xmlns="http://www.w3.org/2000/svg">
<g clip-path="url(#clip0_15804_112538)">
<path fill-rule="evenodd" clip-rule="evenodd" d="M157.924 48.3932H6.07631C2.7274 48.3932 0 45.6658 0 42.3441V6.04916C0 2.71533 2.7274 0 6.07631 0H157.924C161.27 0 164 2.71533 164 6.04916V42.3441C164 45.6658 161.27 48.3932 157.924 48.3932Z" fill="black"/>
<path fill-rule="evenodd" clip-rule="evenodd" d="M157.924 0.968468C160.733 0.968468 163.032 3.25236 163.032 6.04916V42.3441C163.032 45.1409 160.748 47.4248 157.924 47.4248H6.07631C3.26745 47.4248 0.968468 45.1409 0.968468 42.3441V6.04916C0.968468 3.25236 3.25236 0.968468 6.07631 0.968468C6.07631 0.968468 157.924 0.968468 157.924 0.968468ZM157.924 0H6.07631C2.7274 0 0 2.7274 0 6.04916V42.3441C0 45.6779 2.7274 48.3932 6.07631 48.3932H157.924C161.27 48.3932 164 45.6779 164 42.3441V6.04916C164 2.7274 161.27 0 157.924 0Z" fill="#A6A6A6"/>
<path d="M86.3971 16.0087C85.3019 16.0087 84.3787 15.6256 83.6486 14.8713C82.9245 14.1382 82.5202 13.1275 82.5383 12.0956C82.5383 10.9944 82.9124 10.0621 83.6486 9.32297C84.3757 8.56871 85.2989 8.18555 86.3941 8.18555C87.4772 8.18555 88.4004 8.56871 89.1426 9.32297C89.8788 10.0863 90.2529 11.0185 90.2529 12.0956C90.2408 13.1999 89.8667 14.1321 89.1426 14.8683C88.4155 15.6286 87.4923 16.0087 86.3971 16.0087ZM53.8101 16.0087C52.7391 16.0087 51.8098 15.6316 51.0495 14.8864C50.2953 14.1442 49.9121 13.2059 49.9121 12.0986C49.9121 10.9914 50.2953 10.0531 51.0495 9.3109C51.7947 8.56569 52.724 8.18856 53.8101 8.18856C54.3411 8.18856 54.857 8.29416 55.3518 8.50837C55.8376 8.71655 56.2328 9.00015 56.5254 9.34711L56.5979 9.4346L55.7802 10.2371L55.6958 10.1376C55.2342 9.58847 54.6157 9.31995 53.798 9.31995C53.0679 9.31995 52.4313 9.57942 51.9064 10.0923C51.3784 10.6082 51.1099 11.284 51.1099 12.1017C51.1099 12.9193 51.3784 13.5951 51.9064 14.111C52.4313 14.6239 53.0679 14.8834 53.798 14.8834C54.5764 14.8834 55.2311 14.6239 55.741 14.111C56.0427 13.8093 56.2298 13.3869 56.2962 12.8529H53.6744V11.7245H57.4215L57.4366 11.8271C57.4637 12.0172 57.4909 12.2133 57.4909 12.3943C57.4909 13.4352 57.1771 14.2769 56.5556 14.8985C55.8496 15.6346 54.9264 16.0087 53.8101 16.0087ZM97.1378 15.8488H95.9822L92.4433 10.1858L92.4734 11.2056V15.8458H91.3179V8.34847H92.6363L92.6726 8.40579L96.0003 13.7399L95.9702 12.7232V8.34847H97.1378V15.8488V15.8488ZM77.7141 15.8488H76.5435V9.47684H74.513V8.34847H79.7415V9.47684H77.7111V15.8488H77.7141ZM73.5596 15.8488H72.392V8.34847H73.5596V15.8488ZM66.9976 15.8488H65.83V9.47684H63.7995V8.34847H69.028V9.47684H66.9976V15.8488ZM63.0604 15.8367H58.5831V8.34847H63.0604V9.47684H59.7537V11.5345H62.7375V12.6508H59.7537V14.7084H63.0604V15.8367ZM84.5054 14.0959C85.0274 14.6179 85.661 14.8803 86.3971 14.8803C87.1544 14.8803 87.7729 14.6239 88.2888 14.0959C88.8017 13.583 89.0612 12.9102 89.0612 12.0986C89.0612 11.2871 88.8017 10.6112 88.2918 10.1014C87.7699 9.57942 87.1333 9.31694 86.4001 9.31694C85.6429 9.31694 85.0244 9.57338 84.5115 10.1014C83.9986 10.6143 83.7391 11.2871 83.7391 12.0986C83.7391 12.9102 83.9956 13.586 84.5054 14.0959Z" fill="white"/>
<path fill-rule="evenodd" clip-rule="evenodd" d="M82.4285 26.3197C79.5774 26.3197 77.2664 28.4829 77.2664 31.4668C77.2664 34.4235 79.5925 36.6139 82.4285 36.6139C85.2796 36.6139 87.5907 34.4356 87.5907 31.4668C87.5907 28.4829 85.2796 26.3197 82.4285 26.3197ZM82.4285 34.5743C80.8687 34.5743 79.5262 33.2831 79.5262 31.4547C79.5262 29.5993 80.8718 28.3351 82.4285 28.3351C83.9884 28.3351 85.3309 29.5993 85.3309 31.4547C85.3339 33.2951 83.9884 34.5743 82.4285 34.5743ZM71.166 26.3197C68.3149 26.3197 66.0038 28.4829 66.0038 31.4668C66.0038 34.4235 68.3299 36.6139 71.166 36.6139C74.017 36.6139 76.3281 34.4356 76.3281 31.4668C76.3281 28.4829 74.014 26.3197 71.166 26.3197ZM71.166 34.5743C69.6061 34.5743 68.2636 33.2831 68.2636 31.4547C68.2636 29.5993 69.6092 28.3351 71.166 28.3351C72.7258 28.3351 74.0683 29.5993 74.0683 31.4547C74.0683 33.2951 72.7258 34.5743 71.166 34.5743ZM57.7643 27.8916V30.0699H62.9928C62.8329 31.2918 62.4286 32.1939 61.8101 32.8124C61.0438 33.5787 59.8611 34.4114 57.7763 34.4114C54.5632 34.4114 52.05 31.8168 52.05 28.6036C52.05 25.3905 54.5632 22.7958 57.7763 22.7958C59.5111 22.7958 60.7753 23.4807 61.7136 24.3556L63.2583 22.8109C61.9549 21.5619 60.2201 20.6055 57.7884 20.6055C53.3805 20.6055 49.6816 24.1957 49.6816 28.5916C49.6816 32.9995 53.3775 36.5777 57.7884 36.5777C60.1689 36.5777 61.9549 35.7993 63.3669 34.333C64.806 32.8939 65.2616 30.8634 65.2616 29.2251C65.2616 28.7153 65.2224 28.2567 65.1409 27.8675H57.7613C57.7643 27.8645 57.7643 27.8916 57.7643 27.8916ZM112.581 29.5872C112.149 28.4317 110.846 26.3077 108.173 26.3077C105.524 26.3077 103.322 28.3924 103.322 31.4547C103.322 34.345 105.5 36.6018 108.429 36.6018C110.783 36.6018 112.152 35.1627 112.717 34.3179L110.97 33.1473C110.39 34.0071 109.585 34.5713 108.441 34.5713C107.286 34.5713 106.477 34.0464 105.94 33.0115L112.822 30.1604C112.822 30.1634 112.581 29.5872 112.581 29.5872ZM105.563 31.3069C105.509 29.3187 107.108 28.308 108.251 28.308C109.153 28.308 109.905 28.7515 110.161 29.3971L105.563 31.3069ZM99.9726 36.2941H102.232V21.1727H99.9726V36.2941ZM96.2617 27.4632H96.1802C95.6703 26.8568 94.7018 26.3077 93.4649 26.3077C90.8974 26.3077 88.532 28.5674 88.532 31.4698C88.532 34.3601 90.8853 36.5927 93.4649 36.5927C94.6868 36.5927 95.6703 36.0406 96.1802 35.4221H96.2617V36.1613C96.2617 38.1254 95.2117 39.1844 93.5192 39.1844C92.1343 39.1844 91.2745 38.1887 90.9245 37.356L88.9604 38.1767C89.5246 39.5343 91.0301 41.2148 93.5161 41.2148C96.1651 41.2148 98.4098 39.655 98.4098 35.8505V26.6154H96.2737V27.4632C96.2767 27.4632 96.2617 27.4632 96.2617 27.4632ZM93.667 34.5743C92.1072 34.5743 90.8038 33.271 90.8038 31.4698C90.8038 29.6536 92.1072 28.3381 93.667 28.3381C95.2117 28.3381 96.4095 29.6686 96.4095 31.4698C96.4246 33.271 95.2147 34.5743 93.667 34.5743ZM123.162 21.1727H117.758V36.2941H120.018V30.5677H123.165C125.666 30.5677 128.125 28.7545 128.125 25.8762C128.125 22.998 125.675 21.1727 123.162 21.1727ZM123.228 28.4558H120.015V23.2665H123.228C124.92 23.2665 125.877 24.6634 125.877 25.8611C125.877 27.0468 124.908 28.4558 123.228 28.4558ZM137.182 26.2926C135.54 26.2926 133.848 27.0197 133.148 28.6036L135.151 29.4363C135.583 28.6036 136.373 28.32 137.209 28.32C138.379 28.32 139.562 29.02 139.589 30.269V30.4289C139.185 30.1996 138.298 29.8497 137.236 29.8497C135.073 29.8497 132.879 31.0323 132.879 33.2499C132.879 35.2803 134.653 36.5837 136.63 36.5837C138.147 36.5837 138.983 35.8988 139.505 35.1053H139.586V36.276H141.765V30.4832C141.765 27.786 139.761 26.2926 137.182 26.2926ZM136.898 34.5743C136.159 34.5743 135.124 34.2123 135.124 33.283C135.124 32.1124 136.415 31.6689 137.517 31.6689C138.512 31.6689 138.983 31.8831 139.574 32.1788C139.411 33.5365 138.265 34.5623 136.898 34.5743ZM149.711 26.6154L147.117 33.1744H147.035L144.347 26.6154H141.915L145.949 35.7842L143.65 40.8799H146.003L152.21 26.6154H149.711ZM129.371 36.2941H131.63V21.1727H129.371V36.2941Z" fill="white"/>
<path fill-rule="evenodd" clip-rule="evenodd" d="M12.6244 9.11466C12.2744 9.49179 12.0723 10.068 12.0723 10.8223V37.5744C12.0723 38.3286 12.2744 38.9049 12.6365 39.2669L12.73 39.3484L27.7186 24.3597V24.0249L12.7179 9.0332L12.6244 9.11466Z" fill="url(#paint0_linear_15804_112538)"/>
<path fill-rule="evenodd" clip-rule="evenodd" d="M32.7043 29.3699L27.7051 24.3707V24.0207L32.7043 19.0215L32.8129 19.0879L38.7263 22.4488C40.4189 23.4022 40.4189 24.9771 38.7263 25.9426L32.8129 29.3035L32.7043 29.3699Z" fill="url(#paint1_linear_15804_112538)"/>
<path fill-rule="evenodd" clip-rule="evenodd" d="M32.813 29.3051L27.7052 24.1973L12.623 39.2794C13.1752 39.8708 14.1014 39.9371 15.1362 39.3609L32.813 29.3051Z" fill="url(#paint2_linear_15804_112538)"/>
<path fill-rule="evenodd" clip-rule="evenodd" d="M32.813 19.0881L15.1362 9.04745C14.1014 8.45611 13.1721 8.53757 12.623 9.12891L27.7052 24.196L32.813 19.0881Z" fill="url(#paint3_linear_15804_112538)"/>
<path opacity="0.2" fill-rule="evenodd" clip-rule="evenodd" d="M32.7041 29.1953L15.148 39.1696C14.1674 39.7338 13.2925 39.6946 12.7283 39.1817L12.6348 39.2752L12.7283 39.3567C13.2925 39.8666 14.1674 39.9088 15.148 39.3446L32.8248 29.3039L32.7041 29.1953Z" fill="black"/>
<path opacity="0.12" fill-rule="evenodd" clip-rule="evenodd" d="M38.7265 25.7691L32.6895 29.1965L32.7981 29.3051L38.7115 25.9441C39.5592 25.4614 39.9756 24.8278 39.9756 24.1973C39.9243 24.7765 39.4929 25.3256 38.7265 25.7691Z" fill="black"/>
<path opacity="0.25" fill-rule="evenodd" clip-rule="evenodd" d="M15.1376 9.22185L38.7278 22.6235C39.4941 23.055 39.9255 23.6191 39.9919 24.1954C39.9919 23.5648 39.5756 22.9313 38.7278 22.4485L15.1376 9.04686C13.445 8.07839 12.0723 8.88696 12.0723 10.8209V10.9959C12.0723 9.05893 13.445 8.26545 15.1376 9.22185Z" fill="white"/>
</g>
<defs>
<linearGradient id="paint0_linear_15804_112538" x1="26.3742" y1="10.5337" x2="2.36496" y2="16.931" gradientUnits="userSpaceOnUse">
<stop stop-color="#00A0FF"/>
<stop offset="0.00657" stop-color="#00A1FF"/>
<stop offset="0.2601" stop-color="#00BEFF"/>
<stop offset="0.5122" stop-color="#00D2FF"/>
<stop offset="0.7604" stop-color="#00DFFF"/>
<stop offset="1" stop-color="#00E3FF"/>
</linearGradient>
<linearGradient id="paint1_linear_15804_112538" x1="40.9336" y1="24.1957" x2="11.6594" y2="24.1957" gradientUnits="userSpaceOnUse">
<stop stop-color="#FFE000"/>
<stop offset="0.4087" stop-color="#FFBD00"/>
<stop offset="0.7754" stop-color="#FFA500"/>
<stop offset="1" stop-color="#FF9C00"/>
</linearGradient>
<linearGradient id="paint2_linear_15804_112538" x1="30.0356" y1="26.9767" x2="10.7611" y2="59.4172" gradientUnits="userSpaceOnUse">
<stop stop-color="#FF3A44"/>
<stop offset="1" stop-color="#C31162"/>
</linearGradient>
<linearGradient id="paint3_linear_15804_112538" x1="8.82519" y1="0.215668" x2="17.4243" y2="14.7041" gradientUnits="userSpaceOnUse">
<stop stop-color="#32A071"/>
<stop offset="0.0685" stop-color="#2DA771"/>
<stop offset="0.4762" stop-color="#15CF74"/>
<stop offset="0.8009" stop-color="#06E775"/>
<stop offset="1" stop-color="#00F076"/>
</linearGradient>
<clipPath id="clip0_15804_112538">
<rect width="164" height="48.3932" fill="white"/>
</clipPath>
</defs>
</svg>
