<svg width="16" height="16" viewBox="0 0 16 16" fill="none" xmlns="http://www.w3.org/2000/svg">
<path d="M0 12.1774V6.04054C0.000144787 5.97846 0.0179846 5.91764 0.0515327 5.86485C0.0850808 5.81206 0.13302 5.76938 0.190012 5.74155L7.84731 2.03466C7.89481 2.01186 7.94705 2 8 2C8.05295 2 8.1052 2.01186 8.15269 2.03466L15.81 5.74155C15.867 5.76938 15.9149 5.81206 15.9485 5.86485C15.982 5.91764 15.9999 5.97846 16 6.04054V12.1774L13.1855 11.2564C13.171 11.2218 13.1575 11.1871 13.143 11.1532L14.5054 8.48537L12.9327 6.9557L10.1928 8.27723C10.158 8.26236 10.1224 8.24915 10.0867 8.23511L9.11208 5.41034H6.88792L5.91327 8.23841L5.80723 8.27723L3.06818 6.9557L1.49549 8.48537L2.85696 11.1532C2.84254 11.1871 2.82897 11.2218 2.81455 11.2564L0 12.1774ZM8 10.2777C7.17914 10.2777 6.39187 10.5951 5.81128 11.1601C5.23068 11.7251 4.90428 12.4915 4.90383 13.2908H11.0962C11.0962 12.4911 10.77 11.7242 10.1894 11.1587C9.60876 10.5932 8.82123 10.2754 8 10.2752V10.2777Z" fill="#E42525"/>
</svg>
