<svg width="120" height="82" viewBox="0 0 120 82" fill="none" xmlns="http://www.w3.org/2000/svg">
<mask id="mask0" mask-type="alpha" maskUnits="userSpaceOnUse" x="87" y="59" width="22" height="12">
<path fill-rule="evenodd" clip-rule="evenodd" d="M94.2227 70.1129H94.2213L87.1328 70.1116V68.722L88.6341 68.5636C89.0864 68.5076 89.2765 68.2195 89.4153 68.0091L93.187 62.3161C93.3478 62.0734 93.3151 61.8813 93.2592 61.763C93.1721 61.5782 92.9794 61.4661 92.8342 61.4509L90.8289 61.2397V59.8477H99.2376C99.7774 59.8477 100.041 60.0008 100.415 60.5305L105.523 67.7703C105.544 67.799 105.564 67.8287 105.585 67.8589C105.782 68.1476 106.028 68.507 106.663 68.5756L108.074 68.722V70.1103L98.4828 70.1116V68.7208L99.7369 68.602C100.104 68.5654 100.375 68.43 100.462 68.2397C100.532 68.0855 100.49 67.896 100.334 67.6767L99.8317 66.9663H93.0262L92.4598 67.8231C92.3547 67.9834 92.3338 68.1405 92.3992 68.2774C92.4836 68.4539 92.7086 68.5766 93.001 68.6056L94.2227 68.7208V70.1116V70.1129ZM96.3254 61.9909L94.2301 65.1518H98.5538L96.3254 61.9909H96.3254Z" fill="white"/>
</mask>
<g mask="url(#mask0)">
<path d="M82.4473 74.798H112.76V55.1611H82.4473V74.798Z" fill="#1B86C3"/>
</g>
<mask id="mask1" mask-type="alpha" maskUnits="userSpaceOnUse" x="69" y="59" width="18" height="12">
<path fill-rule="evenodd" clip-rule="evenodd" d="M69.8002 70.1543H69.7988V70.153V68.7586L71.1717 68.5954C71.6303 68.5436 71.8533 68.2433 71.8533 67.6774V62.2112C71.8533 61.5487 71.4917 61.4142 71.1381 61.37L69.9248 61.2428V59.8447H80.0724C82.0136 59.8447 83.648 60.2605 84.7991 61.047C86.1068 61.9406 86.7698 63.2702 86.7698 64.9989C86.7698 66.7276 86.1068 68.0572 84.7991 68.9508C83.648 69.7373 82.0136 70.1531 80.0724 70.1531L69.8002 70.1543ZM75.8818 61.82V68.1802L79.3247 68.179C81.2824 68.179 82.0452 67.2874 82.0452 64.9989C82.0452 62.7113 81.2824 61.82 79.3247 61.82H75.8818Z" fill="white"/>
</mask>
<g mask="url(#mask1)">
<path d="M65.084 74.8404H91.4831V55.1582H65.084V74.8404Z" fill="#1B86C3"/>
</g>
<mask id="mask2" mask-type="alpha" maskUnits="userSpaceOnUse" x="51" y="59" width="19" height="12">
<path d="M62.8121 59.8447V61.2423L64.2233 61.4047C64.8564 61.4737 64.9262 61.9927 64.9262 62.3224V62.3224V67.4818L59.3437 60.2826C59.0924 59.9521 58.8744 59.8447 58.274 59.8447V59.8447H51.0234V61.2423L52.4358 61.4047C53.0678 61.4737 53.1376 61.9927 53.1376 62.3224V62.3224V67.6773C53.1376 68.0076 53.0678 68.5266 52.4358 68.5963V68.5963L51.0234 68.7584V70.1543H57.7771V68.7584L56.365 68.5963C55.7328 68.5266 55.6635 68.0076 55.6635 67.6773V67.6773V62.5174L61.244 69.7167C61.4979 70.0482 61.7149 70.1543 62.3146 70.1543V70.1543H62.3657H67.4513V62.3224C67.4513 61.9927 67.5208 61.4737 68.154 61.4047V61.4047L69.5646 61.2423V59.8447L62.8121 59.8447Z" fill="black"/>
</mask>
<g mask="url(#mask2)">
<path d="M46.3887 74.8404H74.2004V55.1582H46.3887V74.8404Z" fill="#1B86C3"/>
</g>
<mask id="mask3" mask-type="alpha" maskUnits="userSpaceOnUse" x="32" y="59" width="18" height="13">
<path fill-rule="evenodd" clip-rule="evenodd" d="M40.92 71.0167C37.8746 71.0167 35.6034 70.3612 34.1695 69.0685C32.7574 67.7953 32.4609 66.1649 32.4609 65.0213C32.4609 63.8783 32.7574 62.2485 34.1695 60.9758C35.6034 59.6836 37.8746 59.0283 40.92 59.0283C43.9655 59.0283 46.2367 59.6836 47.6706 60.9758C49.0827 62.2485 49.3791 63.8783 49.3791 65.0213C49.3791 66.1649 49.0827 67.7953 47.6706 69.0685C46.2367 70.3612 43.9655 71.0167 40.92 71.0167ZM40.9199 61.1656C38.3316 61.1656 37.2273 62.3187 37.2273 65.0214C37.2273 67.7248 38.3316 68.8783 40.9199 68.8783C43.5081 68.8783 44.6124 67.7248 44.6124 65.0214C44.6124 62.3187 43.5081 61.1656 40.9199 61.1656Z" fill="white"/>
</mask>
<g mask="url(#mask3)">
<path d="M27.7461 75.6129H54.0927V54.1719H27.7461V75.6129Z" fill="#1B86C3"/>
</g>
<mask id="mask4" mask-type="alpha" maskUnits="userSpaceOnUse" x="11" y="59" width="22" height="12">
<path d="M22.8022 59.8447V61.2423L24.3391 61.4047C25.029 61.4737 25.1037 61.9927 25.1037 62.3224V62.3224V63.9566H18.0192V62.3224C18.0192 61.9927 18.0937 61.4737 18.7837 61.4047V61.4047L20.3198 61.2423V59.8447H11.1191V61.2423L12.6557 61.4047C13.344 61.4737 13.4189 61.9927 13.4189 62.3224V62.3224V67.6773C13.4189 68.0076 13.344 68.5265 12.6557 68.5963V68.5963L11.1191 68.7584V70.1543H20.3198V68.7584L18.7837 68.5963C18.0937 68.5265 18.0192 68.0076 18.0192 67.6773V67.6773V66.0446H25.1037V67.6773C25.1037 68.0076 25.029 68.5265 24.3391 68.5963V68.5963L22.8022 68.7584V70.1543H32.0065V68.7584L30.4691 68.5963C29.7796 68.5265 29.7042 68.0076 29.7042 67.6773V67.6773V62.3224C29.7042 61.9927 29.7796 61.4737 30.4691 61.4047V61.4047L32.0065 61.2423V59.8447H22.8022Z" fill="black"/>
</mask>
<g mask="url(#mask4)">
<path d="M6.14648 74.8404H36.9799V55.1582H6.14648V74.8404Z" fill="#1B86C3"/>
</g>
<mask id="mask5" mask-type="alpha" maskUnits="userSpaceOnUse" x="43" y="14" width="31" height="37">
<path d="M67.4674 26.1688C66.5569 29.9084 65.8519 33.3781 64.6329 35.0602V35.0602C63.3943 36.7672 61.7432 37.1401 60.6198 37.2701V37.2701C60.0374 37.3379 59.6149 37.3672 58.3528 37.3725V37.3725C57.0914 37.3672 56.6677 37.3379 56.0847 37.2701V37.2701C54.9614 37.1401 53.3102 36.7672 52.0717 35.0602V35.0602C50.8524 33.3781 50.1476 29.9084 49.2371 26.1688V26.1688C48.2885 22.2723 47.8275 19.7999 46.6602 14.4189V14.4189C46.6602 14.4189 45.4958 14.466 44.9805 14.5022V14.5022C44.2831 14.5543 43.7372 14.6161 43.1426 14.6974V14.6974C43.1426 14.6974 43.8132 25.7654 44.116 30.454V30.454C44.4355 35.3869 44.9951 43.6965 45.5224 49.9723V49.9723C45.5224 49.9723 46.4994 50.1332 48.124 50.2287V50.2287C49.8319 50.3293 50.5919 50.3414 50.5919 50.3414V50.3414C51.2955 47.5768 52.1639 43.7407 53.1514 42.1057V42.1057C53.9526 40.7745 55.1895 40.6325 55.8894 40.5343V40.5343C56.9897 40.3787 57.918 40.3551 58.3489 40.3691V40.3691H58.3528H58.3583C58.7868 40.3551 59.715 40.3787 60.8162 40.5343V40.5343C61.5164 40.6325 62.7517 40.7745 63.5546 42.1057V42.1057C64.5424 43.7407 65.4114 47.5768 66.1143 50.3414V50.3414C66.1143 50.3414 66.8741 50.3293 68.5805 50.2287V50.2287C70.2053 50.1332 71.1831 49.9723 71.1831 49.9723V49.9723C71.7093 43.6965 72.2695 35.3869 72.5893 30.454V30.454C72.8922 25.7654 73.5629 14.6974 73.5629 14.6974V14.6974C72.9675 14.6161 72.4224 14.5543 71.7251 14.5022V14.5022C71.2089 14.466 70.0455 14.4189 70.0455 14.4189V14.4189C68.8759 19.7999 68.4165 22.2723 67.4674 26.1688H67.4674Z" fill="black"/>
</mask>
<g mask="url(#mask5)">
<path d="M38.5332 55.068H78.1719V9.69238H38.5332V55.068Z" fill="#1B86C3"/>
</g>
<mask id="mask6" mask-type="alpha" maskUnits="userSpaceOnUse" x="33" y="10" width="53" height="43">
<path fill-rule="evenodd" clip-rule="evenodd" d="M59.86 52.9804L59.6739 52.9802L59.4877 52.9804C54.8408 52.9804 48.2629 52.7716 45.0178 52.1834C44.9813 52.1768 44.9378 52.1691 44.8879 52.1604C42.2334 51.6937 40.2492 50.9298 38.9851 49.8889C37.826 48.9346 36.927 48.029 35.9106 45.0528C35.1082 42.7014 34.528 38.2054 34.4166 37.1301C34.3923 36.8977 34.3659 36.6538 34.3383 36.3975C34.1177 34.3539 33.816 31.5579 33.7638 27.6174C33.7259 24.6967 33.7973 22.3142 33.9762 20.5359C34.2949 17.371 35.4203 15.0957 37.4167 13.58C39.2222 12.2092 41.443 11.6899 43.3773 11.3628C45.4455 11.0126 49.0536 10.7212 51.3984 10.6248C53.403 10.4964 58.1381 10.4302 59.5995 10.4268H59.7495C61.2106 10.4302 65.9446 10.4964 67.9481 10.6248C70.2926 10.7212 73.901 11.0126 75.9704 11.3628C77.9043 11.6899 80.1246 12.2092 81.9301 13.58C83.9266 15.0958 85.0523 17.3711 85.3716 20.5359C85.5507 22.3287 85.6218 24.7113 85.5828 27.6174C85.5317 31.5522 85.2299 34.3464 85.0095 36.3866L85.0083 36.397C84.9807 36.6535 84.9543 36.8976 84.9299 37.1301C84.8184 38.2065 84.2381 42.7056 83.4371 45.0528C82.4188 48.0314 81.52 48.9361 80.3614 49.8889C79.0981 50.9298 77.1143 51.6938 74.465 52.1595C74.4092 52.1693 74.3662 52.1768 74.33 52.1834C71.0837 52.7717 64.5062 52.9804 59.86 52.9804L59.86 52.9804ZM59.033 12.103C56.9735 12.103 53.834 12.1748 51.8183 12.312C48.869 12.4589 46.0268 12.7502 44.0204 13.1113C41.6946 13.5304 39.9985 14.3081 38.8352 15.4888C37.6757 16.6658 36.9762 18.3144 36.6966 20.5287C36.3397 23.3472 36.2589 28.7405 36.5202 32.3059C36.9224 37.7915 37.404 41.193 38.1306 43.6799C38.7568 45.8271 39.5296 47.2353 40.6363 48.2461C42.481 49.931 45.0156 50.3114 46.53 50.5386L46.5909 50.5478C50.6553 51.1557 57.6322 51.2067 59.6738 51.2078C61.7149 51.2067 68.6907 51.1557 72.7566 50.5478L72.8175 50.5386C74.3319 50.3114 76.8665 49.931 78.7112 48.2461C79.8158 47.2373 80.5889 45.8291 81.2181 43.6799C81.9429 41.1951 82.4238 37.7935 82.8262 32.3059C83.0887 28.7411 83.0079 23.3478 82.6497 20.5287C82.3701 18.3142 81.6707 16.6656 80.5116 15.4888C79.3485 14.308 77.6522 13.5303 75.3259 13.1113C73.3206 12.7502 70.4783 12.4589 67.528 12.312C65.5122 12.1748 62.3732 12.103 60.3142 12.103C60.087 12.103 59.8728 12.1038 59.6738 12.1056C59.4746 12.1039 59.2603 12.103 59.033 12.103H59.033Z" fill="white"/>
</mask>
<g mask="url(#mask6)">
<path d="M29.002 57.5348H90.3443V5.87207H29.002V57.5348Z" fill="#1B86C3"/>
</g>
</svg>
