<svg width="72" height="90" viewBox="0 0 72 90" fill="none" xmlns="http://www.w3.org/2000/svg">
<mask id="mask0_16177_23996" style="mask-type:alpha" maskUnits="userSpaceOnUse" x="56" y="63" width="16" height="9">
<path fill-rule="evenodd" clip-rule="evenodd" d="M61.6547 71.6566H61.6537L56.3947 71.6556V70.5926L57.5085 70.4715C57.8441 70.4287 57.9851 70.2083 58.0881 70.0473L60.8864 65.6925C61.0057 65.5068 60.9814 65.3599 60.94 65.2694C60.8753 65.128 60.7324 65.0423 60.6246 65.0307L59.1369 64.8691V63.8043H65.3753C65.7758 63.8043 65.9717 63.9214 66.2487 64.3266L70.0388 69.8647C70.0538 69.8866 70.0689 69.9093 70.0842 69.9324C70.2306 70.1533 70.4129 70.4282 70.8846 70.4806L71.9307 70.5926V71.6546L64.8153 71.6556V70.5917L65.7457 70.5008C66.0182 70.4729 66.2194 70.3693 66.2838 70.2237C66.336 70.1057 66.3041 69.9608 66.1891 69.7931L65.8161 69.2496H60.7671L60.3468 69.9051C60.2689 70.0277 60.2533 70.1478 60.3019 70.2526C60.3645 70.3876 60.5314 70.4814 60.7484 70.5036L61.6547 70.5917V71.6556V71.6566ZM63.215 65.4445L61.6605 67.8625H64.8683L63.215 65.4445H63.215Z" fill="white"/>
</mask>
<g mask="url(#mask0_16177_23996)">
<path d="M52.9181 75.2408H75.4074V60.2196H52.9181V75.2408Z" fill="#1B86C3"/>
</g>
<mask id="mask1_16177_23996" style="mask-type:alpha" maskUnits="userSpaceOnUse" x="43" y="63" width="14" height="9">
<path fill-rule="evenodd" clip-rule="evenodd" d="M43.5349 71.6878H43.5339V71.6868V70.6202L44.5524 70.4954C44.8927 70.4557 45.0581 70.226 45.0581 69.7931V65.6118C45.0581 65.105 44.7899 65.0021 44.5275 64.9683L43.6274 64.871V63.8016H51.1559C52.596 63.8016 53.8086 64.1196 54.6626 64.7213C55.6328 65.4048 56.1247 66.4219 56.1247 67.7442C56.1247 69.0666 55.6328 70.0837 54.6626 70.7672C53.8086 71.3689 52.596 71.6869 51.1559 71.6869L43.5349 71.6878ZM48.0464 65.3124V70.1776L50.6007 70.1767C52.0531 70.1767 52.619 69.4946 52.619 67.7441C52.619 65.9941 52.0531 65.3124 50.6007 65.3124H48.0464Z" fill="white"/>
</mask>
<g mask="url(#mask1_16177_23996)">
<path d="M40.036 75.272H59.6215V60.2162H40.036V75.272Z" fill="#1B86C3"/>
</g>
<mask id="mask2_16177_23996" style="mask-type:alpha" maskUnits="userSpaceOnUse" x="29" y="63" width="15" height="9">
<path d="M38.3514 63.8016V64.8706L39.3985 64.9949C39.8681 65.0476 39.9199 65.4447 39.9199 65.6969V65.6969V69.6436L35.7782 64.1365C35.5918 63.8837 35.4301 63.8016 34.9846 63.8016V63.8016H29.6054V64.8706L30.6533 64.9949C31.1221 65.0476 31.1739 65.4447 31.1739 65.6969V65.6969V69.7931C31.1739 70.0458 31.1221 70.4427 30.6533 70.4961V70.4961L29.6054 70.6201V71.6879H34.616V70.6201L33.5684 70.4961C33.0993 70.4427 33.0479 70.0458 33.0479 69.7931V69.7931V65.846L37.1881 71.3531C37.3764 71.6067 37.5375 71.6879 37.9823 71.6879V71.6879H38.0203H41.7933V65.6969C41.7933 65.4447 41.8448 65.0476 42.3146 64.9949V64.9949L43.3612 64.8706V63.8016L38.3514 63.8016Z" fill="black"/>
</mask>
<g mask="url(#mask2_16177_23996)">
<path d="M26.1664 75.272H46.8V60.2162H26.1664V75.272Z" fill="#1B86C3"/>
</g>
<mask id="mask3_16177_23996" style="mask-type:alpha" maskUnits="userSpaceOnUse" x="15" y="63" width="14" height="10">
<path fill-rule="evenodd" clip-rule="evenodd" d="M22.1097 72.3484C19.8502 72.3484 18.1652 71.847 17.1014 70.8581C16.0538 69.8841 15.8338 68.637 15.8338 67.7622C15.8338 66.8878 16.0538 65.6412 17.1014 64.6676C18.1652 63.6791 19.8502 63.1779 22.1097 63.1779C24.3691 63.1779 26.0541 63.6791 27.1179 64.6676C28.1656 65.6412 28.3855 66.8878 28.3855 67.7622C28.3855 68.637 28.1656 69.8841 27.1179 70.8581C26.0541 71.847 24.3691 72.3484 22.1097 72.3484ZM22.1094 64.8132C20.1892 64.8132 19.3699 65.6953 19.3699 67.7626C19.3699 69.8306 20.1892 70.713 22.1094 70.713C24.0296 70.713 24.8489 69.8306 24.8489 67.7626C24.8489 65.6953 24.0296 64.8132 22.1094 64.8132Z" fill="white"/>
</mask>
<g mask="url(#mask3_16177_23996)">
<path d="M12.3367 75.8645H31.8833V59.4632H12.3367V75.8645Z" fill="#1B86C3"/>
</g>
<mask id="mask4_16177_23996" style="mask-type:alpha" maskUnits="userSpaceOnUse" x="0" y="63" width="16" height="9">
<path d="M8.6677 63.8016V64.8706L9.80794 64.9949C10.3197 65.0476 10.3752 65.4447 10.3752 65.6969V65.6969V66.947H5.11916V65.6969C5.11916 65.4447 5.17446 65.0476 5.68638 64.9949V64.9949L6.82598 64.8706V63.8016H0V64.8706L1.13999 64.9949C1.65062 65.0476 1.70617 65.4447 1.70617 65.6969V65.6969V69.7931C1.70617 70.0458 1.65062 70.4427 1.13999 70.496V70.496L0 70.6201V71.6879H6.82598V70.6201L5.68638 70.496C5.17446 70.4427 5.11916 70.0458 5.11916 69.7931V69.7931V68.5441H10.3752V69.7931C10.3752 70.0458 10.3197 70.4427 9.80794 70.496V70.496L8.6677 70.6201V71.6879H15.4964V70.6201L14.3558 70.496C13.8442 70.4427 13.7883 70.0458 13.7883 69.7931V69.7931V65.6969C13.7883 65.4447 13.8442 65.0476 14.3558 64.9949V64.9949L15.4964 64.8706V63.8016H8.6677Z" fill="black"/>
</mask>
<g mask="url(#mask4_16177_23996)">
<path d="M-3.68936 75.272H19.186V60.2162H-3.68936V75.272Z" fill="#1B86C3"/>
</g>
<mask id="mask5_16177_23996" style="mask-type:alpha" maskUnits="userSpaceOnUse" x="23" y="29" width="24" height="28">
<path d="M41.8048 38.0418C41.1293 40.9025 40.6062 43.5566 39.7018 44.8433V44.8433C38.7829 46.1491 37.558 46.4343 36.7245 46.5337V46.5337C36.2925 46.5856 35.9789 46.6081 35.0426 46.6121V46.6121C34.1068 46.6081 33.7924 46.5856 33.3599 46.5337V46.5337C32.5266 46.4343 31.3015 46.1491 30.3827 44.8433V44.8433C29.4781 43.5566 28.9551 40.9025 28.2796 38.0418V38.0418C27.5759 35.0613 27.2339 33.17 26.3678 29.0539V29.0539C26.3678 29.0539 25.5039 29.0898 25.1217 29.1176V29.1176C24.6043 29.1574 24.1993 29.2047 23.7581 29.2668V29.2668C23.7581 29.2668 24.2557 37.7333 24.4803 41.3198V41.3198C24.7173 45.0932 25.1325 51.4496 25.5237 56.2503V56.2503C25.5237 56.2503 26.2486 56.3733 27.4538 56.4464V56.4464C28.7209 56.5234 29.2848 56.5326 29.2848 56.5326V56.5326C29.8068 54.4179 30.4511 51.4834 31.1837 50.2327V50.2327C31.7781 49.2144 32.6958 49.1058 33.215 49.0307V49.0307C34.0313 48.9117 34.72 48.8936 35.0398 48.9044V48.9044H35.0426H35.0467C35.3646 48.8936 36.0532 48.9117 36.8703 49.0307V49.0307C37.3897 49.1058 38.3062 49.2144 38.9018 50.2327V50.2327C39.6347 51.4834 40.2794 54.4179 40.8009 56.5326V56.5326C40.8009 56.5326 41.3646 56.5234 42.6306 56.4464V56.4464C43.836 56.3733 44.5614 56.2503 44.5614 56.2503V56.2503C44.9518 51.4496 45.3675 45.0932 45.6047 41.3198V41.3198C45.8295 37.7333 46.327 29.2668 46.327 29.2668V29.2668C45.8853 29.2047 45.4809 29.1574 44.9636 29.1176V29.1176C44.5806 29.0898 43.7174 29.0539 43.7174 29.0539V29.0539C42.8497 33.17 42.5089 35.0613 41.8048 38.0418H41.8048Z" fill="black"/>
</mask>
<g mask="url(#mask5_16177_23996)">
<path d="M20.3386 60.1482H49.7466V25.4383H20.3386V60.1482Z" fill="#1B86C3"/>
</g>
<mask id="mask6_16177_23996" style="mask-type:alpha" maskUnits="userSpaceOnUse" x="16" y="26" width="40" height="33">
<path fill-rule="evenodd" clip-rule="evenodd" d="M36.161 58.5512L36.0229 58.5511L35.8848 58.5512C32.4372 58.5512 27.5571 58.3915 25.1495 57.9416C25.1224 57.9365 25.0901 57.9307 25.0531 57.9239C23.0837 57.567 21.6116 56.9826 20.6739 56.1864C19.8139 55.4564 19.1469 54.7637 18.3929 52.487C17.7975 50.6884 17.3671 47.2492 17.2844 46.4266C17.2664 46.2489 17.2469 46.0622 17.2263 45.8662C17.0627 44.3029 16.8388 42.1641 16.8001 39.1499C16.772 36.9158 16.825 35.0932 16.9577 33.7329C17.1942 31.312 18.0291 29.5715 19.5102 28.4121C20.8498 27.3635 22.4974 26.9662 23.9324 26.716C25.4668 26.4482 28.1436 26.2252 29.8833 26.1515C31.3705 26.0533 34.8835 26.0027 35.9677 26H36.079C37.163 26.0027 40.6751 26.0533 42.1616 26.1515C43.9009 26.2252 46.578 26.4482 48.1133 26.716C49.5481 26.9663 51.1954 27.3635 52.5349 28.4121C54.016 29.5715 54.8512 31.312 55.088 33.7329C55.221 35.1043 55.2737 36.9269 55.2447 39.1499C55.2069 42.1598 54.9829 44.2972 54.8194 45.8578L54.8186 45.8658C54.798 46.062 54.7785 46.2487 54.7604 46.4266C54.6777 47.25 54.2472 50.6916 53.6529 52.487C52.8974 54.7655 52.2306 55.4575 51.371 56.1864C50.4338 56.9826 48.962 57.567 46.9965 57.9232C46.9551 57.9307 46.9231 57.9365 46.8963 57.9416C44.4879 58.3915 39.608 58.5512 36.161 58.5512L36.161 58.5512ZM35.5475 27.2817C34.0195 27.2817 31.6903 27.3367 30.1948 27.4416C28.0067 27.554 25.8981 27.7768 24.4096 28.053C22.684 28.3736 21.4257 28.9685 20.5626 29.8717C19.7024 30.772 19.1834 32.0331 18.976 33.727C18.7112 35.8829 18.6513 40.0085 18.8451 42.7359C19.1435 46.932 19.5009 49.5341 20.0399 51.4364C20.5045 53.0789 21.0778 54.1561 21.8989 54.9293C23.2675 56.2181 25.1479 56.5091 26.2714 56.6829L26.3166 56.6899C29.332 57.155 34.5082 57.1939 36.0228 57.1948C37.5372 57.1939 42.7125 57.155 45.729 56.6899L45.7742 56.6829C46.8977 56.5091 48.7781 56.2181 50.1468 54.9293C50.9663 54.1576 51.5399 53.0804 52.0066 51.4364C52.5443 49.5356 52.9011 46.9336 53.1997 42.7359C53.3944 40.009 53.3345 35.8834 53.0688 33.727C52.8613 32.0329 52.3424 30.7719 51.4825 29.8717C50.6195 28.9685 49.3611 28.3736 47.6352 28.053C46.1474 27.7768 44.0388 27.554 41.8499 27.4416C40.3544 27.3367 38.0256 27.2817 36.498 27.2817C36.3294 27.2817 36.1705 27.2824 36.0228 27.2838C35.8751 27.2824 35.7161 27.2817 35.5474 27.2817H35.5475Z" fill="white"/>
</mask>
<g mask="url(#mask6_16177_23996)">
<path d="M13.2673 62.0348H58.7774V22.5155H13.2673V62.0348Z" fill="#1B86C3"/>
</g>
</svg>
