<svg width="150" height="62" viewBox="0 0 150 62" fill="none" xmlns="http://www.w3.org/2000/svg">
<rect x="119.484" y="40.0879" width="10.3286" height="2.42077" fill="#083F88"/>
<path fill-rule="evenodd" clip-rule="evenodd" d="M118.192 44.9302H131.103V47.3509H113.188V41.2175L113.35 39.765L113.511 38.6362L113.996 37.5065L114.802 36.6996L115.609 36.054L116.739 35.5691L118.031 35.2471L119.483 35.085H131.103V37.6671H120.774L119.483 37.9907L118.998 38.3126L118.675 38.7976L118.352 40.0887L118.192 40.8956" fill="#083F88"/>
<path fill-rule="evenodd" clip-rule="evenodd" d="M110.608 41.2175V39.7651L110.285 38.6362L109.801 37.5066L108.994 36.6997L108.187 36.0542L107.057 35.5691L105.766 35.247L104.314 35.085H92.3711V47.3509H97.3739V37.667C107.381 37.346 105.266 37.5906 105.605 47.3509H110.608V41.2175" fill="#083F88"/>
<path fill-rule="evenodd" clip-rule="evenodd" d="M84.7852 41.2175V47.351H89.7886V37.0215" fill="#083F88"/>
<path fill-rule="evenodd" clip-rule="evenodd" d="M84.7852 35.085V39.6038L90.1107 35.085" fill="#083F88"/>
<path fill-rule="evenodd" clip-rule="evenodd" d="M79.1358 43.4777L79.7805 43.3165L80.4266 42.8324L81.0715 42.5094L81.5557 42.0252L82.0398 41.3797L82.5237 39.4431L82.3626 38.6362L81.7181 37.0215L81.0715 36.376L79.4575 35.4085L78.4894 35.247L77.3597 35.085H63.6016V47.3509H68.766V37.667H75.9073L76.3921 37.8284C76.8294 38.2571 77.4284 38.7632 77.3597 39.4431V39.7651L77.0369 40.4114L76.7142 40.7342L76.3921 40.8955L75.9073 41.2175H70.2182L75.9073 47.3509H82.6853L79.1358 43.4777" fill="#083F88"/>
<path fill-rule="evenodd" clip-rule="evenodd" d="M61.1796 41.2172C60.8768 33.4111 53.7517 35.3545 48.1066 35.0846L46.6541 35.2468L45.3631 35.5688L44.2334 36.0539L43.4264 36.6995L42.7808 37.5064L42.1353 38.6359L41.9738 39.7649L41.8125 41.2172V47.3507H46.9768L46.8154 40.8953L46.9768 40.0883L47.2996 38.7973L47.6223 38.3122L48.1066 37.9905L49.3975 37.6668H50.2046C53.3684 37.7408 56.1689 36.917 56.0143 41.2172H48.1066V43.8003H56.0143V47.3507H61.1795V41.2172" fill="#083F88"/>
<path fill-rule="evenodd" clip-rule="evenodd" d="M27.1289 38.1514V47.3503H31.1635V39.2811" fill="#083F88"/>
<path fill-rule="evenodd" clip-rule="evenodd" d="M24.0626 37.667V47.3509H18.8984V35.085H32.9396L34.392 35.247L35.6831 35.5691L36.8129 36.0542L37.7812 36.6997L38.4267 37.5066L38.9109 38.6362L39.2336 39.7651V47.3509H34.2307C34.4424 35.9851 35.0872 37.7478 24.0626 37.667" fill="#083F88"/>
<path fill-rule="evenodd" clip-rule="evenodd" d="M75.1013 32.5022L134.976 31.5339V31.0498L75.1013 29.9209L15.0234 31.0498V31.5339" fill="#083F88"/>
<path fill-rule="evenodd" clip-rule="evenodd" d="M116.094 21.0446L118.677 17.0503L121.259 21.0446H116.094M130.782 25.4028L129.813 25.0793L129.49 24.4338L125.94 19.1088L124.164 16.4048L123.519 15.4373L123.357 15.2751L123.195 14.7918L122.55 14.4682L122.067 14.3076H112.221V16.0828L114.48 16.4048L114.804 16.5662L114.965 16.7275L115.126 17.0503L114.965 17.5352L110.446 24.7563L110.124 25.0793L109.639 25.4028L107.863 25.5634V27.3394H116.095V25.5634L114.804 25.4028H114.319L113.997 25.0793V24.7563L114.158 24.4338L114.804 23.3049H122.712C124.433 25.3809 123.063 25.5297 121.098 25.5634V27.3394H132.395V25.5634L130.782 25.4028Z" fill="#E42525"/>
<path fill-rule="evenodd" clip-rule="evenodd" d="M99.4679 24.9179H95.1106V16.8896H100.275L101.081 17.0503L101.728 17.373L102.05 17.8572L102.534 18.3423L102.696 19.1088L102.857 19.9157C102.898 22.9594 102.891 24.5555 99.4679 24.9179M100.436 14.3076H87.5247V16.0828L88.9771 16.2442L89.461 16.4048L89.7847 16.5662L89.9456 16.8897V24.5959L89.6225 25.2414L89.1387 25.4028L87.3633 25.5634V27.3394H100.436L103.664 27.0158L105.116 26.5325L106.407 25.8869L106.892 25.4028C108.158 24.3211 108.566 23.3131 108.828 21.6901C109.248 16.214 105.322 14.6573 100.436 14.3076" fill="#E42525"/>
<path fill-rule="evenodd" clip-rule="evenodd" d="M78.1658 16.0828L79.9418 16.4048L80.4266 16.5662L80.7486 16.7276V23.9504L73.9706 14.9531L73.4864 14.4682H73.1636L72.6793 14.3076H63.6016V16.0828L65.3766 16.4048L65.8608 16.5662L66.0222 16.7276L66.1838 17.2117V24.5959L65.8608 25.2414L65.3766 25.4028L63.6016 25.5634V27.3394H72.034V25.5634L70.2183 25.4028L69.7341 25.2414L69.4114 24.5959V17.6958L76.2297 26.8544L76.5527 27.0158L76.714 27.178L77.1982 27.3394H83.9764V17.2117L84.1379 16.7276L84.299 16.5662L84.7831 16.4048L86.5583 16.0828V14.3076H78.1658" fill="#E42525"/>
<path fill-rule="evenodd" clip-rule="evenodd" d="M52.4647 25.241C49.4244 25.5478 47.7409 23.8667 47.7845 20.8828C47.5164 18.0578 49.7279 16.1824 52.4647 16.4043C55.5369 16.348 57.0677 17.8114 57.145 20.8828C56.8347 24.0894 55.9194 25.372 52.4647 25.241M52.4649 13.9835C50.013 13.8827 46.6508 14.3686 44.557 15.7589C43.0146 16.7229 41.5251 19.0478 41.8134 20.8828C41.6942 26.3749 48.0361 28.0795 52.4649 27.8223H53.9173L55.3697 27.661L56.4996 27.4996L57.6292 27.1776L59.5666 26.5321L60.2121 26.0479C62.2471 24.7846 62.9121 23.2531 63.1171 20.8828C62.8682 18.3806 62.3202 17.0666 60.2121 15.7589L59.5666 15.2747L57.6292 14.6292L56.4996 14.3072L55.3697 14.1458L53.9173 13.9835L52.4649 13.9835Z" fill="#E42525"/>
<path fill-rule="evenodd" clip-rule="evenodd" d="M30.8399 16.0828L32.6151 16.4048L33.0993 16.5662L33.2606 16.7275L33.422 17.2117V19.5922H25.5135V16.7275L25.837 16.5662L26.3211 16.4048L28.0963 16.0828V14.3076H17.6055V16.0828L19.3808 16.4048L19.865 16.5662L20.0264 16.7275L20.1877 17.2117V24.5959L19.865 25.2414L19.3808 25.4028L17.6055 25.5634V27.3394H28.0963V25.5634L26.3211 25.4028L25.837 25.2414L25.5135 24.9179V22.1743H33.422C33.3018 24.9077 34.1154 25.5752 30.84 25.5634V27.3394H41.3298V25.5634L39.5546 25.4028L39.0705 25.2414L38.7478 24.9179V16.7275L39.0705 16.5662L39.5546 16.4048L41.3298 16.0828V14.3076H30.84V16.0828" fill="#E42525"/>
</svg>
