<svg width="105" height="90" viewBox="0 0 105 90" fill="none" xmlns="http://www.w3.org/2000/svg">
<path d="M90.0986 65.1086H88.8364V67.6824C88.8364 67.9811 88.8899 68.1945 88.9968 68.3234C89.1037 68.4514 89.2741 68.5159 89.5072 68.5159C89.5941 68.5159 89.6885 68.5063 89.7879 68.4871C89.889 68.468 89.9784 68.4392 90.0594 68.4009L90.0894 69.2057C89.9758 69.2475 89.8505 69.2806 89.7135 69.3049C89.5765 69.3293 89.4345 69.3415 89.2875 69.3415C88.8397 69.3415 88.4972 69.2126 88.26 68.9548C88.0227 68.697 87.9041 68.3103 87.9041 67.7947V65.1086H86.9919V64.3038H87.9041V62.8824H88.8364V64.3038H90.0986V65.1086Z" fill="#231F20"/>
<path d="M83.0926 64.3029C83.1059 64.4283 83.1159 64.5694 83.1226 64.7262C83.1293 64.8829 83.1326 65.0136 83.1326 65.1181H83.1627C83.2228 64.9857 83.3047 64.862 83.4083 64.7471C83.5119 64.6321 83.6305 64.531 83.7642 64.444C83.8978 64.3569 84.0449 64.2889 84.2052 64.2401C84.3656 64.1914 84.5327 64.167 84.7065 64.167C85.0139 64.167 85.2779 64.221 85.4984 64.329C85.7189 64.437 85.9027 64.5816 86.0497 64.7627C86.1968 64.9439 86.3053 65.1564 86.3755 65.4003C86.4457 65.6441 86.4808 65.9054 86.4808 66.1841V69.2569H85.5385V66.5081C85.5385 66.3061 85.5235 66.1145 85.4934 65.9333C85.4633 65.7521 85.4082 65.5919 85.328 65.4525C85.2478 65.3132 85.1375 65.2017 84.9972 65.1181C84.8568 65.0345 84.6764 64.9926 84.4559 64.9926C84.0816 64.9926 83.7759 65.1407 83.5386 65.4368C83.3014 65.733 83.1828 66.1284 83.1828 66.6231V69.2569H82.2405V65.3689C82.2405 65.2365 82.2371 65.0658 82.2305 64.8568C82.2238 64.6478 82.2137 64.4631 82.2004 64.3029H83.0926Z" fill="#231F20"/>
<path fill-rule="evenodd" clip-rule="evenodd" d="M81.2377 66.7381V66.9053C81.2377 66.9611 81.2343 67.0168 81.2276 67.0725H77.4485C77.4551 67.2798 77.5002 67.4758 77.5838 67.6596C77.6673 67.8425 77.7792 68.0019 77.9196 68.136C78.0599 68.2719 78.222 68.3773 78.4058 68.453C78.5896 68.5297 78.785 68.5671 78.9922 68.5671C79.313 68.5671 79.5903 68.494 79.8242 68.3476C80.0581 68.2013 80.2419 68.0236 80.3756 67.8146L81.0372 68.3685C80.7832 68.7195 80.4842 68.9782 80.14 69.1446C79.7958 69.3101 79.4132 69.3928 78.9922 69.3928C78.6313 69.3928 78.2972 69.3301 77.9898 69.2047C77.6823 69.0793 77.4184 68.9033 77.1978 68.6769C76.9773 68.4504 76.8035 68.1769 76.6766 67.8564C76.5496 67.5359 76.4861 67.1806 76.4861 66.7904C76.4861 66.4071 76.5479 66.0535 76.6715 65.7295C76.796 65.4055 76.9681 65.1286 77.1895 64.8986C77.41 64.6687 77.6715 64.4893 77.973 64.3603C78.2746 64.2314 78.5987 64.167 78.9471 64.167C79.2954 64.167 79.612 64.2262 79.8969 64.3447C80.1809 64.4631 80.4223 64.6338 80.6195 64.8568C80.8175 65.0798 80.9695 65.3498 81.0773 65.6668C81.1842 65.9838 81.2377 66.3409 81.2377 66.7381L81.2377 66.7381ZM80.2741 66.3407C80.2674 66.1456 80.2357 65.9627 80.1789 65.792C80.1221 65.6213 80.0385 65.4732 79.9283 65.3478C79.818 65.2224 79.681 65.1231 79.5173 65.0499C79.3535 64.9768 79.1614 64.9402 78.9409 64.9402C78.7404 64.9402 78.5516 64.9768 78.3745 65.0499C78.1974 65.1231 78.0437 65.2224 77.9134 65.3478C77.7831 65.4732 77.6762 65.6213 77.5926 65.792C77.5091 65.9627 77.4606 66.1456 77.4473 66.3407H80.2741Z" fill="#231F20"/>
<path d="M69.7047 64.444C69.9687 64.2593 70.2811 64.167 70.642 64.167C70.9628 64.167 71.2518 64.2436 71.5091 64.3969C71.7664 64.5502 71.9685 64.8045 72.1156 65.1599C72.276 64.8394 72.4998 64.5938 72.7872 64.4231C73.0746 64.2524 73.3887 64.167 73.7295 64.167C74.0361 64.167 74.3009 64.221 74.5214 64.329C74.742 64.437 74.9258 64.5816 75.0728 64.7627C75.219 64.9439 75.3284 65.1564 75.3986 65.4003C75.4687 65.6442 75.5038 65.9054 75.5038 66.1842V69.2569H74.5615V66.5081C74.5615 66.3061 74.5448 66.1145 74.5114 65.9333C74.478 65.7522 74.4212 65.5919 74.341 65.4525C74.2608 65.3132 74.1539 65.2017 74.0202 65.1181C73.8866 65.0345 73.7162 64.9927 73.509 64.9927C73.2951 64.9927 73.1114 65.0397 72.9576 65.1338C72.8039 65.2278 72.6778 65.3498 72.5817 65.4996C72.4848 65.6494 72.4146 65.8183 72.3712 66.0065C72.3278 66.1946 72.3061 66.3862 72.3061 66.5813V69.2569H71.3637V66.3096C71.3637 66.1145 71.347 65.9368 71.3136 65.7765C71.2802 65.6163 71.2234 65.4787 71.1432 65.3637C71.063 65.2487 70.9594 65.1581 70.8324 65.092C70.7055 65.0258 70.5484 64.9927 70.3613 64.9927C70.0138 64.9927 69.7247 65.1407 69.4942 65.4369C69.2636 65.733 69.1483 66.1284 69.1483 66.6231V69.2569H68.206V65.3689C68.206 65.2365 68.2027 65.0658 68.196 64.8568C68.1894 64.6478 68.1793 64.4631 68.166 64.3029H69.0581C69.0715 64.4283 69.0815 64.5694 69.0882 64.7262C69.094 64.8829 69.0982 65.0136 69.0982 65.1181H69.1283C69.2486 64.8533 69.4407 64.6286 69.7047 64.444V64.444Z" fill="#231F20"/>
<path fill-rule="evenodd" clip-rule="evenodd" d="M63.0941 71.7653H62.1518V64.3029H63.0741V65.0763H63.1041C63.2578 64.8115 63.4825 64.5938 63.7791 64.4231C64.0757 64.2524 64.4207 64.167 64.8142 64.167C65.1675 64.167 65.4891 64.2332 65.779 64.3656C66.0689 64.498 66.3195 64.6826 66.5292 64.9195C66.7388 65.1564 66.9009 65.4334 67.0145 65.7504C67.1273 66.0675 67.1841 66.4071 67.1841 66.7695C67.1841 67.1318 67.1273 67.4732 67.0145 67.7937C66.9009 68.1142 66.7413 68.3929 66.5342 68.6299C66.327 68.8667 66.0772 69.0531 65.7848 69.189C65.4908 69.3249 65.1608 69.3928 64.7949 69.3928C64.4541 69.3928 64.1341 69.3162 63.8343 69.1629C63.5344 69.0096 63.2979 68.7936 63.1242 68.5149H63.0941L63.0941 71.7653ZM66.2223 66.7695C66.2223 66.5396 66.1889 66.3166 66.122 66.1006C66.0552 65.8846 65.9549 65.693 65.8213 65.5257C65.6876 65.3585 65.5222 65.2261 65.3251 65.1286C65.1279 65.031 64.899 64.9823 64.6384 64.9823C64.3978 64.9823 64.179 65.031 63.9818 65.1286C63.7847 65.2261 63.6159 65.3585 63.4756 65.5257C63.3352 65.693 63.2266 65.8846 63.1498 66.1006C63.0729 66.3166 63.0345 66.543 63.0345 66.7799C63.0345 67.0168 63.0729 67.2433 63.1498 67.4593C63.2266 67.6753 63.3352 67.8652 63.4756 68.0289C63.6159 68.1927 63.7847 68.3233 63.9818 68.4209C64.179 68.5184 64.3978 68.5672 64.6384 68.5672C64.899 68.5672 65.1279 68.5167 65.3251 68.4156C65.5222 68.3146 65.6876 68.1805 65.8213 68.0132C65.955 67.846 66.0552 67.6544 66.122 67.4384C66.1889 67.2224 66.2223 66.9994 66.2223 66.7695Z" fill="#231F20"/>
<path fill-rule="evenodd" clip-rule="evenodd" d="M60.9591 62.5165C60.9591 62.6976 60.8973 62.8475 60.7753 62.9659C60.6525 63.0844 60.5047 63.1436 60.3326 63.1436C60.1605 63.1436 60.0143 63.0826 59.8957 62.9607C59.7762 62.8388 59.7161 62.6907 59.7161 62.5165C59.7161 62.3353 59.7762 62.1838 59.8957 62.0619C60.0143 61.9399 60.1605 61.8789 60.3326 61.8789C60.5047 61.8789 60.6525 61.9399 60.7753 62.0619C60.8973 62.1838 60.9591 62.3353 60.9591 62.5165ZM60.8089 69.2581H59.8666V64.304H60.8089V69.2581Z" fill="#231F20"/>
<path d="M57.6718 69.2576C57.6584 69.1322 57.6476 68.9911 57.6417 68.8343C57.635 68.6776 57.6317 68.5469 57.6317 68.4424H57.6116C57.4913 68.7072 57.2892 68.9319 57.0052 69.1165C56.7203 69.3012 56.4054 69.3935 56.0579 69.3935C55.7504 69.3935 55.484 69.3413 55.2609 69.2367C55.0362 69.1322 54.8533 68.9876 54.7096 68.803C54.5651 68.6183 54.4581 68.4041 54.388 68.1602C54.3178 67.9163 54.2827 67.6551 54.2827 67.3763V64.3036H55.225V67.0419C55.225 67.244 55.24 67.4373 55.2709 67.622C55.301 67.8066 55.3562 67.9686 55.4363 68.1079C55.5165 68.2473 55.6268 68.3588 55.7672 68.4424C55.9075 68.526 56.0879 68.5678 56.3085 68.5678C56.6894 68.5678 56.9968 68.4198 57.2307 68.1236C57.4646 67.8275 57.5816 67.4321 57.5816 66.9374V64.3036H58.5239V68.1916C58.5239 68.324 58.5272 68.4947 58.5339 68.7037C58.5406 68.9127 58.5498 69.0974 58.564 69.2576L57.6718 69.2576Z" fill="#231F20"/>
<path fill-rule="evenodd" clip-rule="evenodd" d="M52.0382 68.5149C51.8636 68.7936 51.6247 69.0096 51.3206 69.1629C51.0165 69.3162 50.6941 69.3928 50.3532 69.3928C49.9857 69.3928 49.6549 69.3249 49.3608 69.189C49.0668 69.0531 48.8162 68.8667 48.6098 68.6299C48.4018 68.3929 48.2414 68.1142 48.1278 67.7937C48.0142 67.4732 47.9574 67.1318 47.9574 66.7695C47.9574 66.4071 48.0142 66.0675 48.1278 65.7504C48.2414 65.4334 48.4035 65.1564 48.614 64.9195C48.8245 64.6826 49.0768 64.498 49.3709 64.3656C49.6649 64.2332 49.989 64.167 50.3432 64.167C50.7308 64.167 51.0733 64.2524 51.3707 64.4231C51.6681 64.5938 51.8978 64.8115 52.0574 65.0763H52.0883V64.3029H52.9997V71.7653H52.0574V68.5149L52.0382 68.5149ZM48.9408 66.7695C48.9408 66.9994 48.9734 67.2224 49.0402 67.4384C49.107 67.6544 49.2073 67.846 49.3409 68.0132C49.4746 68.1805 49.6383 68.3146 49.8321 68.4156C50.0259 68.5167 50.2532 68.5672 50.5138 68.5672C50.7544 68.5672 50.9732 68.5184 51.1704 68.4209C51.3675 68.3233 51.5363 68.1927 51.6766 68.0289C51.8169 67.8652 51.9255 67.6753 52.0032 67.4593C52.0792 67.2433 52.1177 67.0168 52.1177 66.7799C52.1177 66.543 52.0792 66.3166 52.0032 66.1006C51.9256 65.8846 51.8169 65.693 51.6766 65.5257C51.5363 65.3585 51.3675 65.2261 51.1704 65.1286C50.9732 65.031 50.7544 64.9823 50.5138 64.9823C50.2532 64.9823 50.0259 65.031 49.8321 65.1286C49.6383 65.2261 49.4746 65.3585 49.3409 65.5257C49.2073 65.693 49.107 65.8846 49.0402 66.1006C48.9734 66.3166 48.9408 66.5396 48.9408 66.7695Z" fill="#231F20"/>
<path d="M43.5965 68.338H47.3055V69.2577H42.6041V61.8579H47.1551V62.7672H43.5965V64.983H46.9446V65.8714H43.5965L43.5965 68.338Z" fill="#231F20"/>
<path d="M37.0112 64.8568C37.0045 64.6478 36.9944 64.4631 36.9811 64.3029H37.8733C37.8866 64.4283 37.8966 64.5729 37.9033 64.7366C37.9092 64.9003 37.9134 65.0345 37.9134 65.139H37.9434C38.0771 64.8463 38.2717 64.6112 38.5299 64.4335C38.7872 64.2558 39.0762 64.167 39.397 64.167C39.5432 64.167 39.6677 64.1809 39.7679 64.2088L39.7278 65.1181C39.5941 65.0832 39.4504 65.0658 39.2967 65.0658C39.0695 65.0658 38.8724 65.1094 38.7053 65.1965C38.5382 65.2835 38.3995 65.4003 38.2893 65.5466C38.179 65.6929 38.0971 65.8619 38.0437 66.0535C37.9902 66.2451 37.9635 66.4454 37.9635 66.6545V69.2569H37.0212V65.3689C37.0212 65.2365 37.0178 65.0658 37.0112 64.8568V64.8568Z" fill="#231F20"/>
<path fill-rule="evenodd" clip-rule="evenodd" d="M36.019 66.7381V66.9053C36.019 66.9611 36.0148 67.0168 36.0089 67.0725H32.2297C32.2356 67.2798 32.2815 67.4758 32.3651 67.6596C32.4486 67.8425 32.5605 68.0019 32.7009 68.136C32.8412 68.2719 33.0025 68.3773 33.1871 68.453C33.3708 68.5297 33.5663 68.5671 33.7735 68.5671C34.0943 68.5671 34.3716 68.494 34.6055 68.3476C34.8394 68.2013 35.0224 68.0236 35.1569 67.8146L35.8177 68.3685C35.5637 68.7195 35.2646 68.9782 34.9213 69.1446C34.5771 69.3101 34.1945 69.3928 33.7735 69.3928C33.4126 69.3928 33.0785 69.3301 32.7711 69.2047C32.4628 69.0793 32.1988 68.9033 31.9791 68.6769C31.7586 68.4504 31.5848 68.1769 31.4579 67.8564C31.33 67.5359 31.2674 67.1806 31.2674 66.7904C31.2674 66.4071 31.3284 66.0535 31.4528 65.7295C31.5765 65.4055 31.7494 65.1286 31.9708 64.8986C32.1913 64.6687 32.4528 64.4893 32.7543 64.3603C33.0551 64.2314 33.38 64.167 33.7284 64.167C34.0767 64.167 34.3925 64.2262 34.6774 64.3447C34.9622 64.4631 35.2037 64.6338 35.4008 64.8568C35.5988 65.0798 35.7508 65.3498 35.8578 65.6668C35.9647 65.9838 36.019 66.3409 36.019 66.7381L36.019 66.7381ZM35.0568 66.3407C35.0501 66.1456 35.0176 65.9627 34.9616 65.792C34.9048 65.6213 34.8213 65.4732 34.711 65.3478C34.5999 65.2224 34.4629 65.1231 34.3 65.0499C34.1354 64.9768 33.9441 64.9402 33.7236 64.9402C33.5222 64.9402 33.3335 64.9768 33.1564 65.0499C32.9801 65.1231 32.8255 65.2224 32.6961 65.3478C32.5649 65.4732 32.4588 65.6213 32.3744 65.792C32.2909 65.9627 32.2433 66.1456 32.2299 66.3407H35.0568Z" fill="#231F20"/>
<path d="M24.4806 64.3036L25.5524 68.087H25.5733L26.706 64.3036H27.6985L28.8513 68.087H28.8713L29.9439 64.3036H30.9363L29.3617 69.2576H28.3801L27.2064 65.5368H27.1864L26.0244 69.2576H25.042L23.4581 64.3036H24.4806Z" fill="#231F20"/>
<path fill-rule="evenodd" clip-rule="evenodd" d="M23.2071 66.7694C23.2071 67.1527 23.1419 67.5045 23.0116 67.8251C22.8813 68.1456 22.7009 68.4226 22.4703 68.656C22.2397 68.8894 21.9674 69.0705 21.6533 69.1994C21.3392 69.3284 21.0017 69.3928 20.6408 69.3928C20.2799 69.3928 19.9425 69.3284 19.6284 69.1994C19.3143 69.0705 19.0436 68.8894 18.8164 68.656C18.5892 68.4226 18.4104 68.1456 18.2801 67.8251C18.1498 67.5045 18.0846 67.1527 18.0846 66.7694C18.0846 66.3862 18.1498 66.0361 18.2801 65.719C18.4104 65.402 18.5892 65.1286 18.8164 64.8986C19.0436 64.6687 19.3143 64.4893 19.6284 64.3603C19.9425 64.2314 20.28 64.167 20.6408 64.167C21.0017 64.167 21.3392 64.2314 21.6533 64.3603C21.9674 64.4893 22.2397 64.6687 22.4703 64.8986C22.7009 65.1286 22.8813 65.402 23.0116 65.719C23.1419 66.0361 23.2071 66.3862 23.2071 66.7694ZM22.224 66.7735C22.224 66.5375 22.1889 66.3119 22.1188 66.0959C22.0478 65.8807 21.9458 65.6918 21.8113 65.528C21.6777 65.3652 21.5114 65.2345 21.3143 65.1378C21.1163 65.0403 20.8899 64.9915 20.6351 64.9915C20.3804 64.9915 20.154 65.0403 19.956 65.1378C19.758 65.2345 19.5926 65.3652 19.4581 65.528C19.3244 65.6918 19.2217 65.8807 19.1515 66.0959C19.0813 66.3119 19.0463 66.5375 19.0463 66.7735C19.0463 67.0095 19.0813 67.236 19.1515 67.4511C19.2217 67.6663 19.3244 67.8578 19.4581 68.0242C19.5926 68.1906 19.758 68.3229 19.956 68.4205C20.154 68.5172 20.3804 68.5659 20.6351 68.5659C20.8899 68.5659 21.1163 68.5172 21.3143 68.4205C21.5114 68.3229 21.6777 68.1906 21.8113 68.0242C21.9458 67.8579 22.0478 67.6663 22.1188 67.4511C22.1889 67.236 22.224 67.0095 22.224 66.7735Z" fill="#231F20"/>
<path fill-rule="evenodd" clip-rule="evenodd" d="M13.5337 61.8579H15.699C16.0799 61.8579 16.4274 61.898 16.7415 61.9781C17.0556 62.0583 17.3229 62.1819 17.5435 62.3492C17.764 62.5164 17.9344 62.7289 18.0547 62.9867C18.175 63.2445 18.2352 63.5546 18.2352 63.9169C18.2352 64.2862 18.17 64.6032 18.0397 64.868C17.9094 65.1328 17.7289 65.3488 17.4984 65.516C17.2678 65.6832 16.9938 65.8069 16.6764 65.8871C16.3589 65.9672 16.0164 66.0072 15.6488 66.0072H14.5261V69.2577H13.5337V61.8579ZM14.526 65.1286H15.5786C15.8192 65.1286 16.0414 65.1059 16.2452 65.0606C16.449 65.0153 16.6245 64.9456 16.7715 64.8516C16.9185 64.7575 17.0321 64.6339 17.1123 64.4806C17.1925 64.3273 17.2326 64.1391 17.2326 63.9162C17.2326 63.6932 17.1908 63.5068 17.1073 63.357C17.0238 63.2072 16.9101 63.0853 16.7665 62.9912C16.6228 62.8972 16.4507 62.831 16.2502 62.7926C16.0497 62.7543 15.8325 62.7352 15.5986 62.7352H14.526L14.526 65.1286Z" fill="#231F20"/>
<path fill-rule="evenodd" clip-rule="evenodd" d="M89.6842 42.8525H94.2838L91.9622 39.0507L89.6842 42.8525M82.0908 48.8106V47.1567L83.693 46.9668C84.2502 46.8936 84.4832 46.3641 84.5534 46.2439L88.5482 39.4634C88.8731 38.9304 88.5557 38.4618 88.138 38.4139L86.0387 38.1552V36.4847H95.1434C95.6546 36.4847 95.9788 36.8479 96.1901 37.1614L101.508 45.6386C101.926 46.3162 102.252 46.8492 102.785 46.9215L104.457 47.1157V48.8106H94.2153V47.1392L95.5151 46.9703C96.1425 46.8971 96.6537 46.6062 96.1425 45.8067L95.6546 45.0332H88.3844L87.8264 45.9774C87.4789 46.5583 87.8264 46.8971 88.3602 46.9703L89.6617 47.1392V48.8106H82.0908" fill="#CC0000"/>
<path fill-rule="evenodd" clip-rule="evenodd" d="M73.4971 46.4376H70.4781V38.834H73.4971C76.3774 38.834 77.5845 39.5369 77.5845 42.6349C77.5845 45.76 76.3774 46.4376 73.4971 46.4376M75.3082 36.4847H63.5963L63.5955 38.1561L65.0607 38.3137C65.6121 38.3973 65.8318 38.8093 65.8318 39.3658V46.0009C65.8318 46.4625 65.6463 46.898 65.1593 46.9703L63.588 47.1828V48.8063L75.3082 48.8106C80.6972 48.8106 83.0203 46.0749 83.0203 42.4656C83.0203 39.2213 80.6972 36.4847 75.3082 36.4847" fill="#CC0000"/>
<path d="M41.8274 48.8106H49.3992V47.1636L47.7735 46.9703C47.3083 46.9215 47.0301 46.5156 47.0301 45.953V39.682L53.3246 48.3264C53.5342 48.6173 53.9277 48.8106 54.3003 48.8106H60.2464V39.4634C60.2464 39.0253 60.3575 38.4243 60.9665 38.3485L62.6155 38.1552V36.4847H55.0438V38.1317L56.6919 38.3485C57.2742 38.4234 57.412 38.9304 57.412 39.5122V45.6133L51.1643 37.0177C50.9329 36.7024 50.6305 36.4847 50.1886 36.4847H41.8274V38.1552L43.4071 38.3485C43.9643 38.4348 44.1731 38.7309 44.1731 39.5357V45.784C44.1731 46.5235 43.9793 46.8797 43.3829 46.9703L41.8274 47.1636V48.8106" fill="#CC0000"/>
<path fill-rule="evenodd" clip-rule="evenodd" d="M31.6364 38.373C28.9424 38.373 27.4086 39.4147 27.4086 42.6103C27.4086 45.8555 28.9424 46.8963 31.6364 46.8963C34.3305 46.8963 35.8634 45.8555 35.8634 42.6103C35.8634 39.4147 34.3305 38.373 31.6364 38.373M21.9747 42.588C21.9747 38.7131 24.9704 36 31.6592 36C38.3012 36 41.2985 38.7131 41.2985 42.588C41.2985 46.5588 38.3012 49.2466 31.6592 49.2466C24.9704 49.2466 21.9747 46.5588 21.9747 42.588" fill="#CC0000"/>
<path d="M0 48.8106H9.47643V47.1636L7.85165 46.9703C7.47907 46.9215 7.10816 46.6802 7.10816 45.8563V43.8705H14.4018V45.7596C14.4018 46.3162 14.3074 46.8492 13.6809 46.9215L12.031 47.1157V48.8106H21.5074V47.1157L19.8359 46.9215C19.5109 46.8736 19.1392 46.6062 19.1392 45.9042V39.4869C19.1392 38.8337 19.3714 38.3982 19.8584 38.3485L21.5074 38.1552V36.4847H12.031V38.1317L13.6809 38.3485C14.2389 38.4226 14.4018 38.8816 14.4018 39.4869V41.4004H7.10816V39.4634C7.10816 38.7361 7.38635 38.3982 7.8742 38.3485L9.47644 38.1552V36.4847H0.0233898V38.1552L1.60391 38.3485C2.23044 38.4226 2.39333 38.906 2.36994 39.5357V45.784C2.36994 46.486 2.18449 46.8971 1.57968 46.9703L0 47.1636V48.8106" fill="#CC0000"/>
</svg>
