<svg width="74" height="90" viewBox="0 0 74 90" fill="none" xmlns="http://www.w3.org/2000/svg">
<path fill-rule="evenodd" clip-rule="evenodd" d="M35.7332 33C31.1329 33.0607 22.5007 33.8987 22.5007 45.0515C22.5007 56.2042 31.3434 56.9454 35.7332 57.066C40.123 56.9445 48.9666 56.2042 48.9666 45.0515C48.9675 33.8987 40.3325 33.0607 35.7332 33ZM35.1385 33.9084C35.4734 33.9084 36.0088 33.8934 36.3446 33.8934L36.3501 42.5392H35.1385V33.9084ZM23.9715 45.0514C23.9715 36.2428 29.9783 33.8987 34.7671 33.8987L30.8504 44.7081L29.1446 54.8433C28.6386 54.7385 23.9294 52.5925 23.9715 45.0514ZM35.7542 56.2913C33.6119 56.2719 30.506 55.5933 29.7291 55.1294L34.9608 44.0752H36.5165L41.7061 55.2033C40.9282 55.6672 37.8965 56.3116 35.7542 56.2913ZM42.3111 54.9076L40.7526 44.7091L36.6996 33.8996C41.4893 33.8996 47.5071 36.2437 47.5071 45.0524C47.5483 52.5855 42.7887 54.809 42.3111 54.9076ZM6.48082 61.6204H9.39637L15.9174 71.9677H12.807L7.93951 64.0833L5.35431 68.2663H9.54278L10.8066 70.2222H4.25344L3.07843 71.9677H0L6.48082 61.6204ZM64.1813 61.6204H67.0977L73.6179 71.9677H70.5083L65.6399 64.0833L63.0548 68.2663H67.2423L68.5061 70.2222H61.9539L60.7798 71.9677H57.7023L64.1813 61.6204ZM15.7236 68.165C15.7886 70.877 17.3763 72.0301 19.8389 71.9668H27.9715V69.848H19.8718C18.5101 69.8797 18.4131 68.9757 18.3811 68.0875V65.4371C18.4131 64.6273 18.5101 63.7074 19.8718 63.7391H27.9715V61.6195H19.8389C17.3763 61.5578 15.7886 62.7268 15.7236 65.4221V68.165ZM46.5744 71.9721L43.9471 71.9668V61.6204H53.7955C57.2327 61.6204 58.1066 66.0005 55.71 67.511C56.7303 68.0559 56.9079 69.1632 56.9737 69.5681C57.036 69.9731 57.0543 71.9677 57.0543 71.9677H54.4627L54.3803 69.8489C54.2997 68.9458 53.7333 68.3068 52.7606 68.3226H47.754L47.2342 66.1096H53.1001C54.0079 66.1096 54.4636 65.7355 54.4636 64.9715C54.4636 64.2083 54.0079 63.8342 53.1001 63.8342H46.5707L46.5744 71.9721ZM38.1699 71.9756C40.9885 71.914 42.1882 70.3859 42.1232 68.0171V61.6195H39.5298V68.5312C39.5636 69.8401 38.6238 69.9343 37.7014 69.9651H33.9412C33.0993 69.9343 32.143 69.8401 32.175 68.5312V61.6195H29.5185V68.0321C29.4535 70.4008 30.6688 71.9131 33.4718 71.9747H38.1699V71.9756V71.9756Z" fill="black"/>
</svg>
