<svg width="112" height="90" viewBox="0 0 112 90" fill="none" xmlns="http://www.w3.org/2000/svg">
<rect x="96.7992" y="65.2343" width="9.57117" height="2.33884" fill="#083F88"/>
<path fill-rule="evenodd" clip-rule="evenodd" d="M95.6028 69.9118H107.567V72.2506H90.9657V66.3247L91.1161 64.9214L91.2656 63.8308L91.7151 62.7393L92.4619 61.9596L93.2096 61.336L94.2572 60.8674L95.4539 60.5564L96.7997 60.3997H107.567V62.8944H97.996L96.7997 63.2071L96.35 63.5181L96.051 63.9866L95.7519 65.2341L95.6028 66.0136" fill="#083F88"/>
<path fill-rule="evenodd" clip-rule="evenodd" d="M88.5731 66.3247V64.9215L88.2745 63.8308L87.8257 62.7394L87.078 61.9598L86.3301 61.3361L85.283 60.8674L84.0867 60.5563L82.7408 60.3997H71.674V72.2505H76.3099V62.8943C85.583 62.5842 83.6234 62.8205 83.9372 72.2505H88.5731V66.3247" fill="#083F88"/>
<path fill-rule="evenodd" clip-rule="evenodd" d="M64.6445 66.3247V72.2506H69.281V62.2707" fill="#083F88"/>
<path fill-rule="evenodd" clip-rule="evenodd" d="M64.6445 60.3997V64.7656L69.5795 60.3997" fill="#083F88"/>
<path fill-rule="evenodd" clip-rule="evenodd" d="M59.4113 68.5084L60.0087 68.3527L60.6075 67.8849L61.2051 67.5729L61.6538 67.1051L62.1023 66.4814L62.5508 64.6104L62.4015 63.8308L61.8042 62.2707L61.2051 61.647L59.7095 60.7123L58.8123 60.5563L57.7655 60.3997H45.0162V72.2505H49.8019V62.8943H56.4195L56.8688 63.0503C57.2741 63.4645 57.8292 63.9534 57.7655 64.6104V64.9215L57.4663 65.5458L57.1673 65.8577L56.8688 66.0136L56.4195 66.3247H51.1477L56.4195 72.2505H62.7006L59.4113 68.5084" fill="#083F88"/>
<path fill-rule="evenodd" clip-rule="evenodd" d="M42.7727 66.3245C42.4922 58.7825 35.8896 60.6602 30.6584 60.3994L29.3125 60.5561L28.1161 60.8672L27.0693 61.3359L26.3215 61.9596L25.7232 62.7392L25.125 63.8305L24.9754 64.9213L24.8259 66.3245V72.2504H29.6115L29.462 66.0134L29.6115 65.2338L29.9106 63.9864L30.2097 63.5178L30.6584 63.2069L31.8547 62.8941H32.6026C35.5344 62.9657 38.1296 62.1697 37.9862 66.3245H30.6584V68.8201H37.9862V72.2504H42.7727V66.3245" fill="#083F88"/>
<path fill-rule="evenodd" clip-rule="evenodd" d="M11.2172 63.3619V72.2495H14.9558V64.4534" fill="#083F88"/>
<path fill-rule="evenodd" clip-rule="evenodd" d="M8.37519 62.8943V72.2505H3.58972V60.3997H16.6013L17.9472 60.5563L19.1435 60.8674L20.1905 61.3361L21.0878 61.9598L21.686 62.7394L22.1346 63.8308L22.4337 64.9215V72.2505H17.7976C17.9939 61.2694 18.5913 62.9724 8.37519 62.8943" fill="#083F88"/>
<path fill-rule="evenodd" clip-rule="evenodd" d="M55.6722 57.9049L111.156 56.9693V56.5016L55.6722 55.4109L0 56.5016V56.9693" fill="#083F88"/>
<path fill-rule="evenodd" clip-rule="evenodd" d="M93.6575 46.8342L96.0503 42.975L98.4431 46.8342H93.6575M107.268 51.0452L106.37 50.7326L106.071 50.109L102.781 44.9642L101.135 42.3517L100.538 41.417L100.387 41.2603L100.238 40.7933L99.6397 40.4807L99.1918 40.3255H90.0686V42.0406L92.1616 42.3517L92.4614 42.5076L92.611 42.6636L92.7605 42.9754L92.611 43.4439L88.4229 50.4206L88.1245 50.7326L87.6759 51.0452L86.03 51.2004V52.9163H93.6577V51.2004L92.4614 51.0452H92.0126L91.7143 50.7326V50.4206L91.8632 50.109L92.4614 49.0183H99.7894C101.385 51.024 100.115 51.1679 98.2939 51.2004V52.9163H108.763V51.2004L107.268 51.0452Z" fill="#E42525"/>
<path fill-rule="evenodd" clip-rule="evenodd" d="M78.2537 50.5773H74.2159V42.8208H79.0014L79.7484 42.976L80.3478 43.2878L80.6468 43.7556L81.0953 44.2242L81.245 44.9648L81.3943 45.7444C81.4327 48.6851 81.4255 50.2272 78.2537 50.5773M79.1512 40.3255H67.1865V42.0406L68.5325 42.1966L68.9809 42.3517L69.2809 42.5076L69.43 42.8202V50.2656L69.1305 50.8893L68.6822 51.0452L67.037 51.2004V52.9163H79.1512L82.1422 52.6037L83.4874 52.1367L84.6837 51.513L85.1333 51.0452C86.3071 50.0001 86.6847 49.0263 86.9279 47.4582C87.3166 42.1674 83.679 40.6634 79.1512 40.3255" fill="#E42525"/>
<path fill-rule="evenodd" clip-rule="evenodd" d="M58.5125 42.0407L60.1582 42.3517L60.6075 42.5076L60.9059 42.6636V49.6419L54.6249 40.9492L54.1762 40.4807H53.8771L53.4283 40.3255H45.0162V42.0407L46.6611 42.3518L47.1098 42.5076L47.2594 42.6636L47.4091 43.1313V50.2656L47.1098 50.8893L46.6611 51.0452L45.0162 51.2004V52.9163H52.8303V51.2004L51.1477 51.0452L50.6991 50.8893L50.4001 50.2656V43.5991L56.7184 52.4477L57.0177 52.6036L57.1671 52.7604L57.6158 52.9163H63.8969V43.1313L64.0466 42.6636L64.1959 42.5076L64.6445 42.3518L66.2896 42.0407V40.3255H58.5125" fill="#E42525"/>
<path fill-rule="evenodd" clip-rule="evenodd" d="M34.6965 50.889C31.8792 51.1854 30.3191 49.5612 30.3596 46.6783C30.1111 43.9489 32.1604 42.137 34.6965 42.3514C37.5434 42.297 38.9619 43.7108 39.0336 46.6783C38.746 49.7764 37.8978 51.0156 34.6965 50.889M34.6965 40.0124C32.4244 39.915 29.3088 40.3844 27.3686 41.7277C25.9392 42.6591 24.559 44.9053 24.8261 46.6782C24.7157 51.9844 30.5925 53.6313 34.6965 53.3829H36.0424L37.3883 53.2269L38.4353 53.071L39.4821 52.7599L41.2775 52.1363L41.8755 51.6685C43.7614 50.4479 44.3776 48.9683 44.5675 46.6782C44.3369 44.2606 43.8291 42.9912 41.8755 41.7277L41.2775 41.2599L39.4821 40.6362L38.4353 40.3251L37.3883 40.1692L36.0424 40.0124L34.6965 40.0124Z" fill="#E42525"/>
<path fill-rule="evenodd" clip-rule="evenodd" d="M14.6572 42.0406L16.3022 42.3517L16.7508 42.5076L16.9003 42.6636L17.0499 43.1313V45.4312H9.72127V42.6636L10.0211 42.5076L10.4697 42.3517L12.1147 42.0406V40.3255H2.39319V42.0406L4.03837 42.3517L4.48703 42.5076L4.63656 42.6636L4.7861 43.1313V50.2656L4.48703 50.8893L4.03837 51.0452L2.39319 51.2004V52.9163H12.1147V51.2004L10.4697 51.0452L10.0211 50.8893L9.72127 50.5767V47.9259H17.0499C16.9385 50.5669 17.6925 51.2117 14.6572 51.2004V52.9163H24.3778V51.2004L22.7328 51.0452L22.2842 50.8893L21.9851 50.5767V42.6636L22.2842 42.5076L22.7328 42.3517L24.3778 42.0406V40.3255H14.6572V42.0406" fill="#E42525"/>
</svg>
