<svg width="87" height="63" viewBox="0 0 87 63" fill="none" xmlns="http://www.w3.org/2000/svg">
<path fill-rule="evenodd" clip-rule="evenodd" d="M0.754563 53.4068H6.10061H8.46769V54.5846C7.31736 54.5911 6.63178 54.6715 6.49611 55.4341L6.51054 56.8545H12.5205L12.5076 55.2993C12.4556 54.6299 11.7599 54.5379 10.5764 54.5846L10.5894 53.4043H18.3011L18.3155 54.5846C17.2474 54.5599 16.4247 54.6612 16.3656 55.333V60.1322C16.4334 60.8326 17.0656 60.9117 18.3011 60.904V62.1232L10.5894 62.1115L10.6038 60.904C11.7931 60.8962 12.4643 60.8663 12.5104 60.1322V58.5938L6.49323 58.6081V60.118C6.56829 60.8611 7.20334 60.8949 8.47058 60.8923V62.1232H0.761785L0.774777 60.9117C2.17625 60.8857 2.63522 60.7458 2.70883 60.1322L2.69584 55.4225C2.60347 54.6235 1.89335 54.5846 0.774771 54.5846L0.754563 53.4068ZM26.6388 53.0721C32.2649 53.111 34.5685 55.1643 34.5685 57.73C34.5685 60.2956 32.3688 62.3657 26.6388 62.3864C21.0748 62.4046 18.7106 60.2956 18.7106 57.73C18.7106 55.1643 21.1369 53.0371 26.6388 53.0721ZM26.6391 54.7519C29.4666 54.7519 30.129 56.1138 30.129 57.7611C30.129 59.4097 29.4911 60.7068 26.6391 60.7522C23.839 60.8003 23.1506 59.4097 23.1506 57.7611C23.1506 56.1138 23.7221 54.7519 26.6391 54.7519ZM35.0059 53.4068V54.5923C36.3236 54.5923 36.849 54.7454 36.8851 55.4211V60.1295C36.8851 60.7483 36.3323 60.9363 35.0059 60.9246V62.1245H41.1429V60.9156C39.9362 60.9117 39.2175 60.7405 39.19 60.1295L39.203 55.6715L44.3802 61.786C44.6314 62.0389 44.9431 62.1245 45.2895 62.1245H50.0323V55.4211C50.0337 54.7246 50.8839 54.5833 51.9721 54.5924L51.9851 53.4068H45.7759V54.5924C46.8584 54.5586 47.6753 54.691 47.7273 55.4211L47.7157 59.8028L42.3798 53.591C42.2643 53.4677 42.0955 53.4107 41.8818 53.4068L35.0059 53.4068ZM52.7137 53.4055V54.5858C53.9838 54.5689 54.5236 54.8621 54.5178 55.4133V60.1269C54.5178 60.6795 53.7976 60.9051 52.565 60.909L52.578 62.1244H62.5499C65.9634 61.9507 68.4748 60.8052 68.5311 58.0062L68.5195 57.3123C68.3738 54.5092 65.2389 53.4042 62.5629 53.4055H52.7137ZM58.287 55.0463L58.274 60.4214L62.1002 60.4317C63.3472 60.3747 64.1844 59.4953 64.1642 57.9959L64.1584 57.4277C64.1252 55.8271 63.1625 55.0774 61.7235 55.0346L58.287 55.0463ZM71.0731 53.3861V54.5858C72.3663 54.6079 73.4272 54.7338 73.1298 55.4277L69.9213 60.1322C69.4537 60.7366 68.9731 60.9052 67.8198 60.9182L67.8039 62.118L73.9742 62.131V60.904C72.8787 60.9091 72.0964 60.773 72.4385 60.1322L72.9306 59.4564L78.9638 59.442L79.4386 60.1322C79.6638 60.5524 79.1543 60.97 77.7514 60.904V62.131H86.1024L86.0851 60.904C85.1599 60.9337 84.4382 60.8715 83.8912 60.1322L79.2842 53.8129C79.0705 53.5663 78.854 53.3899 78.4254 53.399L71.0731 53.3861ZM75.8375 55.2785L74.0203 57.8857L77.8018 57.8934L75.8375 55.2785ZM83.6602 0.580501C66.1425 8.27363 44.6572 15.9653 23.0059 23.6595L6.15652 29.8505C-0.820513 32.2242 -1.1164 37.0947 3.02018 40.8303C4.11422 41.8486 5.15629 42.7007 6.02373 43.5308C11.1634 48.4571 13.2663 49.2199 14.0833 51.8114L21.1714 51.8102L5.75527 38.8976C1.92325 35.127 6.32683 33.5978 10.1805 32.5369L58.3024 17.3246L72.1756 12.8342C76.4392 11.5605 80.0692 10.511 82.4868 4.28376L83.7785 1.25901L83.956 0.676678C83.956 0.676678 83.6573 0.572763 83.6602 0.580488L83.6602 0.580501ZM50.8549 22.0823L19.4611 31.3344C16.6279 32.1061 13.9389 32.9298 11.6065 33.6445C9.07783 34.4188 7.27945 34.7689 6.46974 35.4461C5.73076 36.0634 5.74231 37.0765 6.46541 37.751C6.97924 38.1778 7.45842 38.5825 7.9708 39.0092L20.5595 36.0662L23.8286 35.2969C23.2412 34.882 23.2498 34.3683 23.9066 34.1659L40.1454 30.2527L56.735 26.2239L68.0882 23.4417C70.8406 22.8891 72.805 21.631 74.231 19.8903C75.6541 18.0431 76.9401 16.1689 77.809 14.1935C77.9389 13.9652 77.9086 13.8447 77.6949 13.8264C69.8952 16.6774 59.8006 19.3299 50.8549 22.0823H50.8549ZM8.8835 39.7653L12.5366 42.7967L31.5235 39.5346C30.7123 39.0494 30.9476 38.4359 32.0474 38.279L59.472 33.529C65.8039 32.5406 66.1907 32.1126 70.7112 25.967C71.0937 25.4469 70.997 25.3044 70.1757 25.5428L45.326 31.2734L16.9849 37.8419L8.8835 39.7653ZM13.4815 43.5594L17.6325 47.0732L40.45 44.5361C39.7485 44.0873 39.9391 43.4271 40.8584 43.3505L52.8077 41.7759C57.9084 41.1688 59.2204 39.6085 63.0467 35.4371C63.256 35.179 63.077 35.1245 62.4174 35.2645L38.9085 39.2739L13.4815 43.5594ZM18.6007 47.8747L23.2352 51.7439H53.4873L41.9883 45.3311L18.6007 47.8747" fill="#E42525"/>
</svg>
