<svg width="139" height="63" viewBox="0 0 139 63" fill="none" xmlns="http://www.w3.org/2000/svg">
<path d="M109.608 43.2822H108.256V45.9252C108.256 46.2319 108.313 46.451 108.428 46.5834C108.542 46.7149 108.725 46.7811 108.974 46.7811C109.067 46.7811 109.168 46.7712 109.275 46.7516C109.383 46.7319 109.479 46.7024 109.565 46.663L109.598 47.4894C109.476 47.5324 109.342 47.5664 109.195 47.5914C109.049 47.6164 108.896 47.629 108.739 47.629C108.26 47.629 107.893 47.4966 107.639 47.2319C107.385 46.9671 107.258 46.57 107.258 46.0405V43.2822H106.281V42.4558H107.258V40.9961H108.256V42.4558H109.608V43.2822Z" fill="#231F20"/>
<path d="M102.104 42.4559C102.118 42.5847 102.129 42.7296 102.136 42.8906C102.143 43.0516 102.147 43.1858 102.147 43.2931H102.179C102.243 43.1571 102.331 43.0301 102.442 42.9121C102.553 42.794 102.68 42.6903 102.823 42.6008C102.966 42.5114 103.123 42.4416 103.295 42.3915C103.467 42.3414 103.646 42.3164 103.832 42.3164C104.161 42.3164 104.443 42.3718 104.68 42.4828C104.916 42.5937 105.112 42.7421 105.27 42.9282C105.427 43.1142 105.543 43.3325 105.619 43.5829C105.694 43.8333 105.731 44.1016 105.731 44.3878V47.5433H104.722V44.7205C104.722 44.513 104.706 44.3163 104.674 44.1302C104.642 43.9442 104.583 43.7796 104.497 43.6365C104.411 43.4934 104.293 43.3789 104.143 43.2931C103.993 43.2072 103.799 43.1643 103.563 43.1643C103.163 43.1643 102.835 43.3163 102.581 43.6204C102.327 43.9245 102.2 44.3306 102.2 44.8386V47.5432H101.191V43.5507C101.191 43.4147 101.188 43.2394 101.181 43.0248C101.173 42.8101 101.163 42.6205 101.148 42.4559H102.104Z" fill="#231F20"/>
<path fill-rule="evenodd" clip-rule="evenodd" d="M100.119 44.9567V45.1284C100.119 45.1856 100.115 45.2429 100.108 45.3001H96.0616C96.0688 45.513 96.1171 45.7142 96.2065 45.9029C96.2959 46.0908 96.4158 46.2544 96.5661 46.3922C96.7163 46.5317 96.8898 46.6399 97.0866 46.7177C97.2834 46.7964 97.4927 46.8349 97.7145 46.8349C98.0579 46.8349 98.3549 46.7598 98.6053 46.6095C98.8557 46.4592 99.0525 46.2768 99.1956 46.0621L99.9039 46.631C99.632 46.9914 99.3118 47.2571 98.9434 47.4279C98.5749 47.5978 98.1652 47.6828 97.7145 47.6828C97.3281 47.6828 96.9703 47.6184 96.6412 47.4896C96.312 47.3608 96.0294 47.1801 95.7933 46.9476C95.5572 46.7151 95.3711 46.4342 95.2352 46.1051C95.0992 45.7759 95.0312 45.411 95.0312 45.0104C95.0312 44.6168 95.0974 44.2537 95.2298 43.921C95.3631 43.5882 95.5473 43.3038 95.7843 43.0677C96.0205 42.8316 96.3004 42.6473 96.6233 42.515C96.9462 42.3826 97.2932 42.3164 97.6662 42.3164C98.0391 42.3164 98.3781 42.3772 98.6831 42.4989C98.9872 42.6205 99.2457 42.7958 99.4567 43.0248C99.6687 43.2537 99.8315 43.531 99.9469 43.8565C100.061 44.1821 100.119 44.5488 100.119 44.9567L100.119 44.9567ZM99.0874 44.5488C99.0802 44.3485 99.0462 44.1606 98.9854 43.9853C98.9246 43.81 98.8351 43.658 98.7171 43.5292C98.599 43.4004 98.4524 43.2985 98.277 43.2233C98.1017 43.1482 97.896 43.1106 97.6599 43.1106C97.4452 43.1106 97.2431 43.1482 97.0535 43.2233C96.8639 43.2985 96.6993 43.4004 96.5598 43.5292C96.4203 43.658 96.3058 43.81 96.2164 43.9853C96.1269 44.1606 96.075 44.3485 96.0607 44.5488H99.0874Z" fill="#231F20"/>
<path d="M87.7725 42.6008C88.0551 42.4112 88.3896 42.3164 88.776 42.3164C89.1194 42.3164 89.4289 42.3951 89.7044 42.5525C89.9798 42.71 90.1963 42.9711 90.3537 43.336C90.5254 43.0069 90.7651 42.7547 91.0728 42.5794C91.3805 42.4041 91.7168 42.3164 92.0817 42.3164C92.4099 42.3164 92.6934 42.3719 92.9296 42.4828C93.1657 42.5937 93.3625 42.7421 93.5199 42.9282C93.6764 43.1142 93.7935 43.3325 93.8687 43.5829C93.9438 43.8333 93.9814 44.1016 93.9814 44.3878V47.5433H92.9725V44.7205C92.9725 44.513 92.9546 44.3163 92.9189 44.1302C92.8831 43.9442 92.8222 43.7796 92.7364 43.6365C92.6505 43.4934 92.536 43.3789 92.3929 43.2931C92.2498 43.2072 92.0674 43.1643 91.8456 43.1643C91.6166 43.1643 91.4198 43.2126 91.2553 43.3092C91.0907 43.4058 90.9556 43.531 90.8528 43.6848C90.749 43.8387 90.6739 44.0122 90.6274 44.2054C90.5809 44.3986 90.5576 44.5953 90.5576 44.7957V47.5433H89.5487V44.5166C89.5487 44.3163 89.5309 44.1338 89.4951 43.9692C89.4593 43.8047 89.3985 43.6634 89.3126 43.5453C89.2268 43.4272 89.1159 43.3342 88.9799 43.2663C88.844 43.1983 88.6758 43.1643 88.4755 43.1643C88.1034 43.1643 87.7939 43.3163 87.5471 43.6204C87.3002 43.9245 87.1768 44.3306 87.1768 44.8386V47.5433H86.1679V43.5507C86.1679 43.4147 86.1643 43.2394 86.1572 43.0248C86.15 42.8101 86.1393 42.6205 86.125 42.4559H87.0802C87.0945 42.5847 87.1052 42.7296 87.1124 42.8906C87.1187 43.0516 87.1231 43.1858 87.1231 43.2931H87.1553C87.2841 43.0212 87.4898 42.7905 87.7725 42.6008V42.6008Z" fill="#231F20"/>
<path fill-rule="evenodd" clip-rule="evenodd" d="M80.6925 50.1191H79.6836V42.4559H80.671V43.2502H80.7032C80.8678 42.9783 81.1084 42.7547 81.4259 42.5794C81.7434 42.4041 82.1128 42.3164 82.5341 42.3164C82.9124 42.3164 83.2567 42.3844 83.5671 42.5203C83.8774 42.6563 84.1457 42.8459 84.3703 43.0892C84.5947 43.3325 84.7683 43.6168 84.8899 43.9424C85.0106 44.268 85.0714 44.6168 85.0714 44.9889C85.0714 45.361 85.0106 45.7115 84.8899 46.0407C84.7683 46.3698 84.5974 46.656 84.3756 46.8993C84.1538 47.1426 83.8864 47.334 83.5733 47.4735C83.2585 47.613 82.9052 47.6828 82.5135 47.6828C82.1486 47.6828 81.806 47.6041 81.4849 47.4467C81.1638 47.2893 80.9107 47.0675 80.7247 46.7812H80.6925L80.6925 50.1191ZM84.0413 44.9889C84.0413 44.7527 84.0055 44.5238 83.9339 44.302C83.8624 44.0802 83.7551 43.8834 83.612 43.7117C83.4689 43.5399 83.2918 43.404 83.0807 43.3038C82.8696 43.2037 82.6246 43.1536 82.3455 43.1536C82.0879 43.1536 81.8536 43.2037 81.6425 43.3038C81.4314 43.404 81.2507 43.5399 81.1005 43.7117C80.9502 43.8834 80.834 44.0802 80.7517 44.302C80.6694 44.5238 80.6283 44.7563 80.6283 44.9996C80.6283 45.2429 80.6694 45.4754 80.7517 45.6972C80.834 45.919 80.9502 46.114 81.1005 46.2822C81.2508 46.4503 81.4314 46.5845 81.6425 46.6847C81.8536 46.7848 82.0879 46.8349 82.3455 46.8349C82.6246 46.8349 82.8696 46.783 83.0807 46.6793C83.2918 46.5755 83.4689 46.4378 83.612 46.2661C83.7551 46.0943 83.8624 45.8976 83.9339 45.6758C84.0055 45.454 84.0413 45.225 84.0413 44.9889Z" fill="#231F20"/>
<path fill-rule="evenodd" clip-rule="evenodd" d="M78.4051 40.6205C78.4051 40.8066 78.3389 40.9604 78.2083 41.082C78.0769 41.2037 77.9185 41.2645 77.7343 41.2645C77.5501 41.2645 77.3935 41.2019 77.2665 41.0767C77.1386 40.9515 77.0742 40.7994 77.0742 40.6205C77.0742 40.4345 77.1386 40.2789 77.2665 40.1537C77.3935 40.0284 77.5501 39.9658 77.7343 39.9658C77.9185 39.9658 78.0769 40.0284 78.2083 40.1537C78.3389 40.2789 78.4051 40.4345 78.4051 40.6205ZM78.2441 47.5432H77.2352V42.4558H78.2441V47.5432Z" fill="#231F20"/>
<path d="M74.8864 47.5434C74.8721 47.4146 74.8604 47.2697 74.8542 47.1087C74.847 46.9477 74.8435 46.8136 74.8435 46.7062H74.822C74.6932 46.9781 74.4767 47.2089 74.1727 47.3985C73.8677 47.5881 73.5305 47.6829 73.1584 47.6829C72.8293 47.6829 72.544 47.6293 72.3052 47.5219C72.0646 47.4146 71.8687 47.2661 71.7148 47.0765C71.5601 46.8869 71.4456 46.6669 71.3705 46.4164C71.2954 46.166 71.2578 45.8977 71.2578 45.6115V42.4561H72.2667V45.2681C72.2667 45.4755 72.2828 45.6741 72.3159 45.8637C72.3481 46.0533 72.4071 46.2197 72.493 46.3628C72.5788 46.5059 72.6969 46.6204 72.8472 46.7062C72.9974 46.7921 73.1906 46.835 73.4267 46.835C73.8346 46.835 74.1637 46.683 74.4142 46.3789C74.6646 46.0748 74.7898 45.6687 74.7898 45.1607V42.4561H75.7987V46.4486C75.7987 46.5846 75.8023 46.7599 75.8094 46.9746C75.8166 47.1892 75.8264 47.3788 75.8416 47.5434L74.8864 47.5434Z" fill="#231F20"/>
<path fill-rule="evenodd" clip-rule="evenodd" d="M68.8574 46.7812C68.6705 47.0675 68.4147 47.2893 68.0891 47.4467C67.7636 47.6041 67.4183 47.6828 67.0534 47.6828C66.6599 47.6828 66.3057 47.613 65.9909 47.4735C65.6761 47.334 65.4077 47.1426 65.1868 46.8993C64.9641 46.656 64.7924 46.3698 64.6707 46.0407C64.5491 45.7116 64.4883 45.361 64.4883 44.9889C64.4883 44.6168 64.5491 44.268 64.6707 43.9424C64.7924 43.6168 64.9659 43.3325 65.1913 43.0892C65.4167 42.8459 65.6868 42.6563 66.0016 42.5203C66.3164 42.3844 66.6635 42.3164 67.0427 42.3164C67.4577 42.3164 67.8244 42.4041 68.1428 42.5794C68.4612 42.7547 68.7072 42.9783 68.878 43.2502H68.9111V42.4559H69.8869V50.1191H68.878V46.7812L68.8574 46.7812ZM65.5408 44.9889C65.5408 45.225 65.5757 45.454 65.6472 45.6758C65.7188 45.8976 65.8261 46.0943 65.9692 46.2661C66.1123 46.4378 66.2876 46.5755 66.4951 46.6793C66.7026 46.783 66.9459 46.8349 67.2249 46.8349C67.4825 46.8349 67.7169 46.7848 67.9279 46.6847C68.139 46.5845 68.3197 46.4503 68.47 46.2822C68.6202 46.114 68.7365 45.919 68.8197 45.6972C68.9011 45.4754 68.9422 45.2429 68.9422 44.9996C68.9422 44.7563 68.9011 44.5238 68.8197 44.302C68.7365 44.0802 68.6202 43.8834 68.47 43.7117C68.3197 43.5399 68.139 43.404 67.9279 43.3038C67.7169 43.2037 67.4825 43.1536 67.2249 43.1536C66.9459 43.1536 66.7026 43.2037 66.4951 43.3038C66.2876 43.404 66.1123 43.5399 65.9692 43.7117C65.8261 43.8834 65.7188 44.0802 65.6472 44.302C65.5757 44.5238 65.5408 44.7527 65.5408 44.9889Z" fill="#231F20"/>
<path d="M59.8165 46.5987H63.7876V47.5431H58.7539V39.9443H63.6266V40.8781H59.8164V43.1534H63.4012V44.0657H59.8164L59.8165 46.5987Z" fill="#231F20"/>
<path d="M52.7666 43.0248C52.7594 42.8101 52.7487 42.6205 52.7344 42.4559H53.6896C53.7039 42.5847 53.7146 42.7332 53.7218 42.9013C53.728 43.0695 53.7325 43.2072 53.7325 43.3145H53.7647C53.9078 43.014 54.1162 42.7725 54.3926 42.5901C54.6681 42.4076 54.9775 42.3164 55.321 42.3164C55.4775 42.3164 55.6108 42.3307 55.7181 42.3593L55.6752 43.2931C55.532 43.2573 55.3782 43.2394 55.2136 43.2394C54.9704 43.2394 54.7593 43.2841 54.5804 43.3736C54.4015 43.463 54.2531 43.5829 54.135 43.7331C54.0169 43.8834 53.9293 44.0569 53.8721 44.2537C53.8148 44.4504 53.7862 44.6561 53.7862 44.8708V47.5433H52.7773V43.5507C52.7773 43.4147 52.7737 43.2394 52.7666 43.0248V43.0248Z" fill="#231F20"/>
<path fill-rule="evenodd" clip-rule="evenodd" d="M51.7045 44.9567V45.1284C51.7045 45.1856 51.7001 45.2429 51.6938 45.3001H47.6475C47.6538 45.513 47.703 45.7142 47.7924 45.9029C47.8819 46.0908 48.0017 46.2544 48.152 46.3922C48.3022 46.5317 48.4749 46.6399 48.6725 46.7177C48.8693 46.7964 49.0786 46.8349 49.3004 46.8349C49.6438 46.8349 49.9408 46.7598 50.1912 46.6095C50.4416 46.4592 50.6375 46.2768 50.7815 46.0621L51.489 46.631C51.2171 46.9914 50.8969 47.2571 50.5293 47.4279C50.1608 47.5978 49.7511 47.6828 49.3004 47.6828C48.914 47.6828 48.5562 47.6184 48.2271 47.4896C47.8971 47.3608 47.6144 47.1801 47.3792 46.9476C47.1431 46.7151 46.9571 46.4342 46.8211 46.1051C46.6843 45.7759 46.6172 45.411 46.6172 45.0104C46.6172 44.6168 46.6825 44.2537 46.8157 43.921C46.9481 43.5882 47.1332 43.3038 47.3703 43.0677C47.6064 42.8316 47.8863 42.6473 48.2092 42.515C48.5312 42.3826 48.8791 42.3164 49.2521 42.3164C49.625 42.3164 49.9631 42.3772 50.2681 42.4989C50.5731 42.6205 50.8316 42.7958 51.0427 43.0248C51.2546 43.2537 51.4174 43.531 51.5319 43.8565C51.6464 44.1821 51.7045 44.5488 51.7045 44.9567L51.7045 44.9567ZM50.6741 44.5488C50.667 44.3485 50.6321 44.1606 50.5722 43.9853C50.5114 43.81 50.4219 43.658 50.3039 43.5292C50.1849 43.4004 50.0382 43.2985 49.8638 43.2233C49.6876 43.1482 49.4828 43.1106 49.2467 43.1106C49.0311 43.1106 48.829 43.1482 48.6394 43.2233C48.4507 43.2985 48.2852 43.4004 48.1466 43.5292C48.0062 43.658 47.8926 43.81 47.8022 43.9853C47.7128 44.1606 47.6618 44.3485 47.6475 44.5488H50.6741Z" fill="#231F20"/>
<path d="M39.3526 42.4561L40.5001 46.3413H40.5224L41.7352 42.4561H42.7978L44.032 46.3413H44.0535L45.2019 42.4561H46.2645L44.5785 47.5434H43.5276L42.271 43.7225H42.2495L41.0054 47.5434H39.9536L38.2578 42.4561H39.3526Z" fill="#231F20"/>
<path fill-rule="evenodd" clip-rule="evenodd" d="M37.9883 44.9889C37.9883 45.3824 37.9186 45.7437 37.7791 46.0729C37.6395 46.402 37.4464 46.6864 37.1995 46.9261C36.9526 47.1658 36.6611 47.3519 36.3248 47.4842C35.9885 47.6166 35.6271 47.6828 35.2408 47.6828C34.8544 47.6828 34.493 47.6166 34.1568 47.4842C33.8204 47.3519 33.5307 47.1658 33.2874 46.9261C33.0441 46.6864 32.8527 46.402 32.7132 46.0729C32.5737 45.7437 32.5039 45.3824 32.5039 44.9889C32.5039 44.5953 32.5737 44.2358 32.7132 43.9102C32.8527 43.5846 33.0441 43.3038 33.2874 43.0677C33.5307 42.8316 33.8204 42.6473 34.1568 42.515C34.493 42.3826 34.8544 42.3164 35.2408 42.3164C35.6271 42.3164 35.9885 42.3826 36.3248 42.515C36.6611 42.6473 36.9526 42.8316 37.1995 43.0677C37.4464 43.3038 37.6395 43.5846 37.7791 43.9102C37.9186 44.2358 37.9883 44.5953 37.9883 44.9889ZM36.9364 44.9942C36.9364 44.7518 36.8988 44.5202 36.8237 44.2984C36.7477 44.0774 36.6385 43.8834 36.4946 43.7152C36.3514 43.548 36.1735 43.4138 35.9624 43.3145C35.7504 43.2144 35.508 43.1643 35.2352 43.1643C34.9624 43.1643 34.7201 43.2144 34.5081 43.3145C34.2961 43.4138 34.119 43.548 33.975 43.7152C33.8319 43.8834 33.7219 44.0774 33.6468 44.2984C33.5717 44.5202 33.5341 44.7518 33.5341 44.9942C33.5341 45.2366 33.5717 45.4691 33.6468 45.6901C33.7219 45.911 33.8319 46.1077 33.975 46.2786C34.119 46.4494 34.2961 46.5853 34.5081 46.6855C34.7201 46.7848 34.9624 46.8349 35.2352 46.8349C35.508 46.8349 35.7504 46.7848 35.9624 46.6855C36.1735 46.5853 36.3514 46.4494 36.4946 46.2786C36.6385 46.1077 36.7477 45.911 36.8237 45.6901C36.8988 45.4691 36.9364 45.2366 36.9364 44.9942Z" fill="#231F20"/>
<path fill-rule="evenodd" clip-rule="evenodd" d="M27.6289 39.9443H29.9472C30.355 39.9443 30.7271 39.9855 31.0634 40.0678C31.3997 40.1501 31.6859 40.277 31.922 40.4488C32.1581 40.6205 32.3406 40.8388 32.4694 41.1035C32.5982 41.3682 32.6626 41.6866 32.6626 42.0587C32.6626 42.4379 32.5928 42.7635 32.4533 43.0354C32.3138 43.3073 32.1206 43.5291 31.8737 43.7008C31.6269 43.8725 31.3335 43.9995 30.9936 44.0818C30.6538 44.1641 30.2871 44.2052 29.8935 44.2052H28.6914V47.5431H27.6289V39.9443ZM28.6911 43.3037H29.818C30.0756 43.3037 30.3135 43.2805 30.5318 43.2339C30.75 43.1874 30.9378 43.1159 31.0952 43.0193C31.2526 42.9227 31.3743 42.7957 31.4601 42.6383C31.546 42.4809 31.5889 42.2877 31.5889 42.0587C31.5889 41.8297 31.5442 41.6383 31.4548 41.4845C31.3653 41.3306 31.2437 41.2054 31.0899 41.1088C30.936 41.0123 30.7518 40.9443 30.5371 40.9049C30.3225 40.8656 30.0899 40.8459 29.8395 40.8459H28.6911L28.6911 43.3037Z" fill="#231F20"/>
<path fill-rule="evenodd" clip-rule="evenodd" d="M109.161 20.4286H114.086L111.6 16.5245L109.161 20.4286M101.031 26.5462V24.8477L102.747 24.6528C103.343 24.5776 103.593 24.0338 103.668 23.9104L107.945 16.9475C108.293 16.4002 107.953 15.9189 107.506 15.8698L105.258 15.6041V13.8887H115.006C115.554 13.8887 115.901 14.2616 116.127 14.5836L121.821 23.2888C122.268 23.9846 122.617 24.532 123.187 24.6063L124.978 24.8057V26.5462H114.013V24.8298L115.404 24.6563C116.076 24.5812 116.623 24.2825 116.076 23.4614L115.554 22.6672H107.77L107.172 23.6367C106.8 24.2333 107.172 24.5812 107.744 24.6563L109.137 24.8298V26.5462H101.031" fill="#CC0000"/>
<path fill-rule="evenodd" clip-rule="evenodd" d="M91.832 24.109H88.5996V16.3009H91.832C94.9158 16.3009 96.2083 17.0226 96.2083 20.204C96.2083 23.4131 94.9158 24.109 91.832 24.109M93.7711 13.8887H81.2316L81.2307 15.605L82.7995 15.7669C83.3898 15.8528 83.625 16.2758 83.625 16.8473V23.6609C83.625 24.1349 83.4265 24.5821 82.905 24.6563L81.2227 24.8746V26.5417L93.7711 26.5462C99.5409 26.5462 102.028 23.7369 102.028 20.0305C102.028 16.6989 99.5409 13.8887 93.7711 13.8887" fill="#CC0000"/>
<path d="M57.9219 26.5462H66.0287V24.8549L64.2882 24.6563C63.79 24.6062 63.4922 24.1895 63.4922 23.6117V17.172L70.2315 26.0489C70.456 26.3476 70.8772 26.5462 71.2761 26.5462H77.6424V16.9475C77.6424 16.4976 77.7614 15.8805 78.4134 15.8027L80.179 15.6041V13.8887H72.0721V15.58L73.8368 15.8027C74.4602 15.8796 74.6078 16.4002 74.6078 16.9976V23.2629L67.9186 14.4361C67.6708 14.1122 67.347 13.8887 66.8739 13.8887H57.9219V15.6041L59.6132 15.8027C60.2097 15.8912 60.4334 16.1953 60.4334 17.0217V23.4382C60.4334 24.1975 60.2259 24.5633 59.5872 24.6563L57.9219 24.8549V26.5462" fill="#CC0000"/>
<path fill-rule="evenodd" clip-rule="evenodd" d="M47.0129 15.8288C44.1285 15.8288 42.4863 16.8985 42.4863 20.18C42.4863 23.5126 44.1284 24.5814 47.0129 24.5814C49.8973 24.5814 51.5385 23.5126 51.5385 20.18C51.5385 16.8985 49.8973 15.8288 47.0129 15.8288M36.668 20.1559C36.668 16.1767 39.8753 13.3906 47.0367 13.3906C54.1481 13.3906 57.3572 16.1767 57.3572 20.1559C57.3572 24.2334 54.1481 26.9935 47.0367 26.9935C39.8753 26.9935 36.668 24.2334 36.668 20.1559" fill="#CC0000"/>
<path d="M13.1406 26.5462H23.2867V24.8549L21.5471 24.6563C21.1482 24.6062 20.7511 24.3585 20.7511 23.5124V21.4731H28.5601V23.4131C28.5601 23.9846 28.459 24.532 27.7882 24.6063L26.0217 24.8057V26.5462H36.1678V24.8057L34.3781 24.6063C34.0302 24.5571 33.6322 24.2825 33.6322 23.5616V16.9717C33.6322 16.3009 33.8808 15.8537 34.4023 15.8027L36.1678 15.6041V13.8887H26.0217V15.58L27.7882 15.8027C28.3856 15.8787 28.5601 16.3501 28.5601 16.9717V18.9366H20.7511V16.9475C20.7511 16.2007 21.0489 15.8536 21.5712 15.8027L23.2867 15.6041V13.8887H13.1657V15.6041L14.8579 15.8027C15.5287 15.8787 15.7031 16.3751 15.678 17.0217V23.4382C15.678 24.159 15.4795 24.5812 14.8319 24.6563L13.1406 24.8549V26.5462" fill="#CC0000"/>
</svg>
