<svg width="72" height="90" viewBox="0 0 72 90" fill="none" xmlns="http://www.w3.org/2000/svg">
<path fill-rule="evenodd" clip-rule="evenodd" d="M0.363901 64.1881H4.8471H6.83214V65.2179C5.86747 65.2236 5.29255 65.2939 5.17877 65.9606L5.19087 67.2025H10.2309L10.22 65.8428C10.1764 65.2575 9.593 65.177 8.6005 65.2179L8.6114 64.1859H15.0784L15.0905 65.2179C14.1949 65.1963 13.5049 65.2848 13.4553 65.8723V70.0684C13.5122 70.6808 14.0423 70.75 15.0784 70.7432V71.8092L8.6114 71.799L8.6235 70.7432C9.62085 70.7364 10.1837 70.7103 10.2224 70.0684V68.7233L5.17635 68.7358V70.0559C5.2393 70.7057 5.77186 70.7353 6.83456 70.733V71.8092H0.369958L0.380853 70.75C1.55613 70.7272 1.94102 70.6049 2.00275 70.0684L1.99186 65.9505C1.9144 65.2519 1.31889 65.2179 0.380847 65.2179L0.363901 64.1881ZM22.0706 63.8959C26.7887 63.9299 28.7204 65.7252 28.7204 67.9685C28.7204 70.2117 26.8758 72.0217 22.0706 72.0398C17.4046 72.0557 15.422 70.2117 15.422 67.9685C15.422 65.7252 17.4566 63.8653 22.0706 63.8959ZM22.0708 65.3642C24.4419 65.3642 24.9975 66.555 24.9975 67.9953C24.9975 69.4367 24.4625 70.5708 22.0708 70.6105C19.7227 70.6525 19.1453 69.4367 19.1453 67.9953C19.1453 66.555 19.6246 65.3642 22.0708 65.3642ZM29.0872 64.1887V65.2253C30.1923 65.2253 30.6329 65.3591 30.6631 65.9499V70.0667C30.6631 70.6077 30.1996 70.7721 29.0872 70.7619V71.8109H34.2337V70.754C33.2219 70.7506 32.6191 70.6009 32.5961 70.0667L32.607 66.1688L36.9486 71.515C37.1592 71.7361 37.4206 71.811 37.7111 71.811H41.6884V65.9499C41.6896 65.3409 42.4025 65.2173 43.3151 65.2253L43.326 64.1887H38.119V65.2253C39.0268 65.1958 39.7119 65.3115 39.7554 65.9499L39.7457 69.781L35.271 64.3498C35.1742 64.2419 35.0326 64.1921 34.8534 64.1887L29.0872 64.1887ZM43.937 64.1868V65.2188C45.0021 65.204 45.4548 65.4603 45.45 65.9423V70.0636C45.45 70.5467 44.846 70.744 43.8123 70.7475L43.8232 71.8101H52.1857C55.0483 71.6582 57.1544 70.6567 57.2016 68.2094L57.1919 67.6027C57.0696 65.1519 54.4407 64.1857 52.1967 64.1868L43.937 64.1868ZM48.6111 65.6218L48.6002 70.3214L51.8089 70.3304C52.8546 70.2805 53.5567 69.5117 53.5397 68.2007L53.5349 67.7039C53.507 66.3045 52.6997 65.649 51.493 65.6115L48.6111 65.6218ZM59.333 64.1709V65.2199C60.4175 65.2392 61.3071 65.3493 61.0578 65.9559L58.3671 70.0693C57.975 70.5978 57.5719 70.7452 56.6048 70.7565L56.5915 71.8056L61.7659 71.817V70.7441C60.8472 70.7486 60.1912 70.6296 60.478 70.0693L60.8908 69.4785L65.9502 69.4659L66.3484 70.0693C66.5372 70.4368 66.1099 70.8019 64.9334 70.7441V71.8169H71.9367L71.9222 70.7441C71.1463 70.7701 70.5411 70.7158 70.0824 70.0693L66.2189 64.5441C66.0397 64.3285 65.8582 64.1743 65.4987 64.1822L59.333 64.1709ZM63.3289 65.8251L61.8051 68.1046L64.9763 68.1114L63.3289 65.8251ZM69.889 18.0004C55.1987 24.7268 37.181 31.4519 19.0242 38.1793L4.89426 43.5924C-0.9567 45.6678 -1.20483 49.9262 2.26411 53.1924C3.18158 54.0828 4.05547 54.8278 4.7829 55.5536C9.09305 59.8609 10.8566 60.5278 11.5416 62.7937L17.4858 62.7926L4.55777 51.5026C1.34423 48.2058 5.03708 46.8688 8.26878 45.9411L48.6239 32.6404L60.2581 28.7143C63.8335 27.6006 66.8776 26.683 68.905 21.2383L69.9883 18.5936L70.1371 18.0845C70.1371 18.0845 69.8866 17.9936 69.889 18.0004L69.889 18.0004ZM42.3787 36.8005L16.0518 44.89C13.6758 45.5647 11.4209 46.2849 9.46493 46.9099C7.34435 47.5869 5.83622 47.893 5.15719 48.4851C4.53748 49.0248 4.54716 49.9106 5.15356 50.5004C5.58446 50.8735 5.9863 51.2273 6.41599 51.6004L16.9729 49.0273L19.7144 48.3546C19.2218 47.9918 19.229 47.5427 19.7798 47.3657L33.3977 43.9442L47.3098 40.4217L56.8306 37.9891C59.1388 37.506 60.7861 36.406 61.982 34.884C63.1754 33.2689 64.2538 31.6302 64.9825 29.903C65.0914 29.7034 65.066 29.598 64.8869 29.5821C58.346 32.0748 49.8806 34.394 42.3787 36.8005H42.3787ZM7.18107 52.2615L10.2445 54.912L26.167 52.0597C25.4868 51.6355 25.6841 51.0991 26.6064 50.9619L49.6047 46.8088C54.9146 45.9446 55.239 45.5704 59.0299 40.197C59.3507 39.7423 59.2696 39.6177 58.5809 39.8262L37.7418 44.8367L13.9749 50.5797L7.18107 52.2615ZM11.0369 55.5787L14.518 58.6509L33.6528 56.4327C33.0645 56.0403 33.2243 55.463 33.9953 55.396L44.016 54.0193C48.2935 53.4886 49.3937 52.1243 52.6024 48.4771C52.7779 48.2514 52.6278 48.2037 52.0747 48.3262L32.3601 51.8317L11.0369 55.5787ZM15.3297 59.352L19.2163 62.735H44.5857L34.9426 57.128L15.3297 59.352" fill="#E42525"/>
</svg>
