<svg width="138" height="84" viewBox="0 0 138 84" fill="none" xmlns="http://www.w3.org/2000/svg">
<path fill-rule="evenodd" clip-rule="evenodd" d="M67.1987 15.2686C60.6051 15.352 48.2325 16.5037 48.2325 31.8313C48.2325 47.1589 60.9068 48.1775 67.1987 48.3432C73.4905 48.1763 86.1661 47.1589 86.1661 31.8313C86.1674 16.5037 73.7909 15.352 67.1987 15.2686ZM66.3464 16.517C66.8264 16.517 67.5937 16.4964 68.0751 16.4964L68.083 28.3786H66.3464V16.517ZM50.3407 31.8313C50.3407 19.7252 58.9502 16.5037 65.814 16.5037L60.2002 31.3595L57.7554 45.2886C57.03 45.1446 50.2804 42.1952 50.3407 31.8313ZM67.2289 47.2786C64.1584 47.252 59.7067 46.3193 58.5932 45.6818L66.0917 30.4897H68.3215L75.7597 45.7834C74.6449 46.4209 70.2994 47.3065 67.2289 47.2786ZM76.6268 45.3769L74.3931 31.3607L68.5839 16.5049C75.449 16.5049 84.0742 19.7265 84.0742 31.8325C84.1333 42.1856 77.3115 45.2414 76.6268 45.3769ZM25.2714 54.6025H29.4502L38.7969 68.8232H34.3386L27.3621 57.9874L23.6568 63.7361H29.6601L31.4714 66.4242H22.0789L20.3947 68.8232H15.9824L25.2714 54.6025ZM107.973 54.6025H112.153L121.499 68.8232H117.042L110.064 57.9874L106.359 63.7361H112.361L114.172 66.4242H104.781L103.098 68.8232H98.687L107.973 54.6025ZM38.519 63.597C38.6122 67.3242 40.8878 68.909 44.4174 68.8219H56.0739V65.91H44.4646C42.5129 65.9536 42.3739 64.7111 42.328 63.4905V59.8479C42.3739 58.735 42.5129 57.4708 44.4646 57.5143H56.0739V54.6012H44.4174C40.8878 54.5165 38.6122 56.1231 38.519 59.8274V63.597ZM82.7374 68.8292L78.9718 68.822V54.6025H93.0875C98.014 54.6025 99.2666 60.6223 95.8314 62.6982C97.2939 63.447 97.5483 64.9689 97.6428 65.5254C97.732 66.0819 97.7582 68.8232 97.7582 68.8232H94.0437L93.9256 65.9113C93.8101 64.6701 92.9983 63.7918 91.604 63.8136H84.4281L83.6831 60.7722H92.0906C93.3918 60.7722 94.045 60.2581 94.045 59.208C94.045 58.1592 93.3918 57.645 92.0906 57.645H82.7322L82.7374 68.8292ZM70.6913 68.8341C74.7311 68.7494 76.4506 66.6493 76.3575 63.3938V54.6013H72.6404V64.1003C72.6889 65.8992 71.3419 66.0287 70.0198 66.071H64.6303C63.4236 66.0287 62.0529 65.8992 62.0988 64.1003V54.6013H58.2912V63.4144C58.1981 66.6698 59.9399 68.7482 63.9574 68.8329H70.6913V68.8341V68.8341Z" fill="black"/>
</svg>
